<svg width="237" height="60" viewBox="0 0 237 60" fill="none" xmlns="http://www.w3.org/2000/svg">
<g filter="url(#filter0_i_141_3128)">
<path d="M40.859 1.88057C41.1015 1.55658 41.5873 1.55658 41.8299 1.88057L58.5257 24.1839C58.825 24.5837 58.5397 25.1537 58.0403 25.1537H24.6486C24.1492 25.1537 23.8639 24.5837 24.1632 24.1839L40.859 1.88057Z" fill="url(#paint0_linear_141_3128)"/>
</g>
<g filter="url(#filter1_i_141_3128)">
<path fill-rule="evenodd" clip-rule="evenodd" d="M42.6065 1.29914L59.3023 23.6025C60.0805 24.642 59.3387 26.1239 58.0402 26.1239H24.6485C23.35 26.1239 22.6082 24.642 23.3864 23.6025L40.0822 1.29914C40.7128 0.456768 41.9759 0.456763 42.6065 1.29914ZM41.8298 1.88055C41.5873 1.55656 41.1015 1.55656 40.8589 1.88055L24.1631 24.1839C23.8638 24.5837 24.1491 25.1537 24.6485 25.1537H58.0402C58.5396 25.1537 58.8249 24.5837 58.5256 24.1839L41.8298 1.88055Z" fill="#011813"/>
</g>
<g filter="url(#filter2_i_141_3128)">
<path d="M41.5314 57.0742C41.2892 57.4064 40.7935 57.4064 40.5513 57.0742L21.7884 31.3321C21.4964 30.9314 21.7826 30.3685 22.2785 30.3685L59.8043 30.3685C60.3002 30.3685 60.5864 30.9314 60.2943 31.3321L41.5314 57.0742Z" fill="url(#paint1_linear_141_3128)"/>
</g>
<g filter="url(#filter3_i_141_3128)">
<path fill-rule="evenodd" clip-rule="evenodd" d="M39.7671 57.6456L21.0042 31.9036C20.2447 30.8617 20.9889 29.3983 22.2782 29.3983L59.804 29.3983C61.0933 29.3983 61.8375 30.8617 61.0781 31.9036L42.3152 57.6456C41.6855 58.5096 40.3968 58.5096 39.7671 57.6456ZM40.5511 57.0742C40.7933 57.4064 41.289 57.4064 41.5311 57.0742L60.2941 31.3321C60.5861 30.9314 60.2999 30.3685 59.804 30.3685L22.2782 30.3685C21.7823 30.3685 21.4961 30.9314 21.7882 31.3321L40.5511 57.0742Z" fill="#643EDE"/>
</g>
<g filter="url(#filter4_i_141_3128)">
<path d="M18.1771 35.0056C18.4194 34.6757 18.9122 34.6757 19.1545 35.0056L35.8638 57.7513C36.158 58.1518 35.8721 58.7167 35.3751 58.7167H1.95647C1.45955 58.7167 1.17359 58.1518 1.46778 57.7513L18.1771 35.0056Z" fill="url(#paint2_linear_141_3128)"/>
</g>
<g filter="url(#filter5_i_141_3128)">
<path fill-rule="evenodd" clip-rule="evenodd" d="M19.9365 34.4312L36.6459 57.1769C37.4108 58.2181 36.6673 59.6869 35.3753 59.6869H1.95661C0.664639 59.6869 -0.0788825 58.2181 0.68602 57.1769L17.3954 34.4312C18.0254 33.5736 19.3065 33.5736 19.9365 34.4312ZM19.1546 35.0055C18.9123 34.6757 18.4196 34.6757 18.1773 35.0055L1.46792 57.7513C1.17373 58.1518 1.45969 58.7167 1.95661 58.7167H35.3753C35.8722 58.7167 36.1582 58.1518 35.864 57.7513L19.1546 35.0055Z" fill="#011813"/>
</g>
<g filter="url(#filter6_i_141_3128)">
<path d="M63.2917 35.0056C63.534 34.6757 64.0268 34.6757 64.2691 35.0056L80.9785 57.7513C81.2727 58.1518 80.9867 58.7167 80.4898 58.7167H47.0711C46.5742 58.7167 46.2882 58.1518 46.5824 57.7513L63.2917 35.0056Z" fill="url(#paint3_linear_141_3128)"/>
</g>
<g filter="url(#filter7_i_141_3128)">
<path fill-rule="evenodd" clip-rule="evenodd" d="M65.051 34.4312L81.7604 57.1769C82.5253 58.2181 81.7818 59.6869 80.4898 59.6869H47.0711C45.7791 59.6869 45.0356 58.2181 45.8005 57.1769L62.5099 34.4312C63.1399 33.5736 64.421 33.5736 65.051 34.4312ZM64.2691 35.0055C64.0268 34.6757 63.5341 34.6757 63.2918 35.0055L46.5824 57.7513C46.2882 58.1518 46.5742 58.7167 47.0711 58.7167H80.4898C80.9867 58.7167 81.2727 58.1518 80.9785 57.7513L64.2691 35.0055Z" fill="#011813"/>
</g>
<path d="M100.58 29.3754C98.41 29.3754 96.5285 28.9022 94.9356 27.9557C93.3657 26.9861 92.1422 25.624 91.2649 23.8695C90.4107 22.1149 89.9836 20.0257 89.9836 17.6017C89.9836 15.1776 90.4338 13.0884 91.3342 11.3339C92.2576 9.57933 93.5389 8.22881 95.178 7.28229C96.8171 6.31268 98.6986 5.82788 100.822 5.82788C103.085 5.82788 104.92 6.25497 106.328 7.10915C107.76 7.96332 108.914 9.27921 109.791 11.0568L107.263 12.442C106.756 11.1261 105.948 10.1334 104.839 9.4639C103.754 8.77133 102.415 8.42504 100.822 8.42504C99.2757 8.42504 97.9021 8.79441 96.7016 9.53316C95.5242 10.2488 94.5893 11.2992 93.8967 12.6844C93.2272 14.0464 92.8925 15.6855 92.8925 17.6017C92.8925 19.5178 93.181 21.1684 93.7582 22.5536C94.3584 23.9156 95.2357 24.966 96.39 25.7048C97.5673 26.4205 98.9987 26.7783 100.684 26.7783C101.63 26.7783 102.508 26.6629 103.316 26.432C104.147 26.1781 104.862 25.8087 105.463 25.3239C106.086 24.8391 106.571 24.2273 106.917 23.4886C107.263 22.7498 107.437 21.8841 107.437 20.8914V20.0949H100.165V17.4978H109.964V29.0292H107.783L107.644 24.7698L108.233 24.8737C107.633 26.305 106.686 27.4131 105.393 28.1981C104.101 28.983 102.496 29.3754 100.58 29.3754Z" fill="#491ED7"/>
<path d="M125.085 6.17417C127.416 6.17417 129.286 6.7744 130.694 7.97486C132.103 9.17533 132.807 10.8029 132.807 12.8575C132.807 14.9122 132.091 16.5166 130.66 17.6709C129.251 18.8021 127.382 19.3677 125.05 19.3677L124.807 19.5409H119.198V29.0292H116.427V6.17417H125.085ZM125.05 16.9437C126.689 16.9437 127.901 16.609 128.686 15.9395C129.494 15.2469 129.898 14.2196 129.898 12.8575C129.898 11.4955 129.494 10.4797 128.686 9.81019C127.901 9.11761 126.689 8.77133 125.05 8.77133H119.198V16.9437H125.05ZM126.643 17.4978L134.192 29.0292H130.902L124.323 19.0214L126.643 17.4978Z" fill="#491ED7"/>
<path d="M148.465 5.82788C150.635 5.82788 152.505 6.31268 154.075 7.28229C155.668 8.22881 156.891 9.57933 157.746 11.3339C158.623 13.0884 159.062 15.1776 159.062 17.6017C159.062 20.0257 158.623 22.1149 157.746 23.8695C156.891 25.624 155.668 26.9861 154.075 27.9557C152.505 28.9022 150.635 29.3754 148.465 29.3754C146.295 29.3754 144.414 28.9022 142.821 27.9557C141.251 26.9861 140.027 25.624 139.15 23.8695C138.296 22.1149 137.869 20.0257 137.869 17.6017C137.869 15.1776 138.296 13.0884 139.15 11.3339C140.027 9.57933 141.251 8.22881 142.821 7.28229C144.414 6.31268 146.295 5.82788 148.465 5.82788ZM148.465 8.42504C146.895 8.42504 145.533 8.79441 144.379 9.53316C143.225 10.2488 142.336 11.2992 141.713 12.6844C141.089 14.0464 140.778 15.6855 140.778 17.6017C140.778 19.5178 141.089 21.1684 141.713 22.5536C142.336 23.9156 143.225 24.966 144.379 25.7048C145.533 26.4205 146.895 26.7783 148.465 26.7783C150.058 26.7783 151.42 26.4205 152.551 25.7048C153.706 24.966 154.594 23.9156 155.218 22.5536C155.841 21.1684 156.153 19.5178 156.153 17.6017C156.153 15.6855 155.841 14.0464 155.218 12.6844C154.594 11.2992 153.706 10.2488 152.551 9.53316C151.42 8.79441 150.058 8.42504 148.465 8.42504Z" fill="#491ED7"/>
<path d="M169.147 29.0292L162.394 6.17417H165.268L170.913 26.5013L176.28 6.17417H179.431L184.799 26.5705L190.443 6.17417H193.179L186.461 29.0292H183.033L178.981 14.208L177.804 9.04836H177.769L176.592 14.208L172.575 29.0292H169.147Z" fill="#491ED7"/>
<path d="M214.231 6.17417V8.77133H206.267V29.0292H203.496V8.77133H195.532V6.17417H214.231Z" fill="#491ED7"/>
<path d="M237 6.17417V29.0292H234.23V6.17417H237ZM221.833 6.17417V29.0292H219.062V6.17417H221.833ZM235.511 16.1473V18.7444H220.517V16.1473H235.511Z" fill="#491ED7"/>
<path d="M99.9694 35.8859C103.655 35.8859 106.472 36.9083 108.422 38.953C110.395 40.9977 111.382 43.8983 111.382 47.6548C111.382 51.4114 110.395 54.312 108.422 56.3567C106.472 58.4014 103.655 59.4237 99.9694 59.4237H89.9836V35.8859H99.9694ZM99.3631 54.7875C101.36 54.7875 102.811 54.1931 103.714 53.0043C104.641 51.7918 105.105 50.0086 105.105 47.6548C105.105 45.3011 104.641 43.5298 103.714 42.341C102.811 41.1284 101.36 40.5222 99.3631 40.5222H96.1177V54.7875H99.3631Z" fill="#3B0FC8"/>
<path d="M136.109 59.4237H129.797L128.156 54.1099H120.096L118.42 59.4237H112.25L120.524 35.8859H127.871L136.109 59.4237ZM121.238 49.9373H127.015L124.126 40.4152L121.238 49.9373Z" fill="#3B0FC8"/>
<path d="M148.532 35.5293C150.91 35.5293 152.955 36.0167 154.666 36.9915C156.402 37.9425 157.733 39.3215 158.661 41.1284C159.588 42.9354 160.052 45.1108 160.052 47.6548C160.052 50.1988 159.588 52.3743 158.661 54.1812C157.733 55.9882 156.402 57.379 154.666 58.3538C152.955 59.3049 150.91 59.7804 148.532 59.7804C146.155 59.7804 144.098 59.3049 142.363 58.3538C140.627 57.379 139.295 55.9882 138.368 54.1812C137.441 52.3743 136.977 50.1988 136.977 47.6548C136.977 45.1108 137.441 42.9354 138.368 41.1284C139.295 39.3215 140.627 37.9425 142.363 36.9915C144.098 36.0167 146.155 35.5293 148.532 35.5293ZM148.532 40.3438C147.391 40.3438 146.428 40.6173 145.644 41.1641C144.859 41.7109 144.265 42.5312 143.86 43.6249C143.456 44.6948 143.254 46.0381 143.254 47.6548C143.254 49.2478 143.456 50.5911 143.86 51.6848C144.265 52.7785 144.859 53.5987 145.644 54.1456C146.428 54.6924 147.391 54.9658 148.532 54.9658C149.674 54.9658 150.625 54.6924 151.385 54.1456C152.17 53.5987 152.764 52.7785 153.169 51.6848C153.573 50.5911 153.775 49.2478 153.775 47.6548C153.775 46.0381 153.573 44.6948 153.169 43.6249C152.764 42.5312 152.17 41.7109 151.385 41.1641C150.625 40.6173 149.674 40.3438 148.532 40.3438Z" fill="#3B0FC8"/>
<defs>
<filter id="filter0_i_141_3128" x="24.0411" y="1.63757" width="34.6066" height="24.9714" filterUnits="userSpaceOnUse" color-interpolation-filters="sRGB">
<feFlood flood-opacity="0" result="BackgroundImageFix"/>
<feBlend mode="normal" in="SourceGraphic" in2="BackgroundImageFix" result="shape"/>
<feColorMatrix in="SourceAlpha" type="matrix" values="0 0 0 0 0 0 0 0 0 0 0 0 0 0 0 0 0 0 127 0" result="hardAlpha"/>
<feOffset dy="2.30423"/>
<feGaussianBlur stdDeviation="0.727652"/>
<feComposite in2="hardAlpha" operator="arithmetic" k2="-1" k3="1"/>
<feColorMatrix type="matrix" values="0 0 0 0 0 0 0 0 0 0 0 0 0 0 0 0 0 0 0.65 0"/>
<feBlend mode="normal" in2="shape" result="effect1_innerShadow_141_3128"/>
</filter>
<filter id="filter1_i_141_3128" x="23.0691" y="0.667358" width="36.5505" height="26.9118" filterUnits="userSpaceOnUse" color-interpolation-filters="sRGB">
<feFlood flood-opacity="0" result="BackgroundImageFix"/>
<feBlend mode="normal" in="SourceGraphic" in2="BackgroundImageFix" result="shape"/>
<feColorMatrix in="SourceAlpha" type="matrix" values="0 0 0 0 0 0 0 0 0 0 0 0 0 0 0 0 0 0 127 0" result="hardAlpha"/>
<feOffset dy="2.30423"/>
<feGaussianBlur stdDeviation="0.727652"/>
<feComposite in2="hardAlpha" operator="arithmetic" k2="-1" k3="1"/>
<feColorMatrix type="matrix" values="0 0 0 0 0 0 0 0 0 0 0 0 0 0 0 0 0 0 0.65 0"/>
<feBlend mode="normal" in2="shape" result="effect1_innerShadow_141_3128"/>
</filter>
<filter id="filter2_i_141_3128" x="21.671" y="30.3685" width="38.7407" height="26.9548" filterUnits="userSpaceOnUse" color-interpolation-filters="sRGB">
<feFlood flood-opacity="0" result="BackgroundImageFix"/>
<feBlend mode="normal" in="SourceGraphic" in2="BackgroundImageFix" result="shape"/>
<feColorMatrix in="SourceAlpha" type="matrix" values="0 0 0 0 0 0 0 0 0 0 0 0 0 0 0 0 0 0 127 0" result="hardAlpha"/>
<feOffset/>
<feGaussianBlur stdDeviation="3.82018"/>
<feComposite in2="hardAlpha" operator="arithmetic" k2="-1" k3="1"/>
<feColorMatrix type="matrix" values="0 0 0 0 0 0 0 0 0 0 0 0 0 0 0 0 0 0 1 0"/>
<feBlend mode="normal" in2="shape" result="effect1_innerShadow_141_3128"/>
</filter>
<filter id="filter3_i_141_3128" x="20.6989" y="29.3983" width="40.6846" height="28.8953" filterUnits="userSpaceOnUse" color-interpolation-filters="sRGB">
<feFlood flood-opacity="0" result="BackgroundImageFix"/>
<feBlend mode="normal" in="SourceGraphic" in2="BackgroundImageFix" result="shape"/>
<feColorMatrix in="SourceAlpha" type="matrix" values="0 0 0 0 0 0 0 0 0 0 0 0 0 0 0 0 0 0 127 0" result="hardAlpha"/>
<feOffset/>
<feGaussianBlur stdDeviation="3.82018"/>
<feComposite in2="hardAlpha" operator="arithmetic" k2="-1" k3="1"/>
<feColorMatrix type="matrix" values="0 0 0 0 0 0 0 0 0 0 0 0 0 0 0 0 0 0 1 0"/>
<feBlend mode="normal" in2="shape" result="effect1_innerShadow_141_3128"/>
</filter>
<filter id="filter4_i_141_3128" x="1.349" y="34.7582" width="34.6337" height="25.4138" filterUnits="userSpaceOnUse" color-interpolation-filters="sRGB">
<feFlood flood-opacity="0" result="BackgroundImageFix"/>
<feBlend mode="normal" in="SourceGraphic" in2="BackgroundImageFix" result="shape"/>
<feColorMatrix in="SourceAlpha" type="matrix" values="0 0 0 0 0 0 0 0 0 0 0 0 0 0 0 0 0 0 127 0" result="hardAlpha"/>
<feOffset dy="2.30423"/>
<feGaussianBlur stdDeviation="0.727652"/>
<feComposite in2="hardAlpha" operator="arithmetic" k2="-1" k3="1"/>
<feColorMatrix type="matrix" values="0 0 0 0 0 0 0 0 0 0 0 0 0 0 0 0 0 0 0.65 0"/>
<feBlend mode="normal" in2="shape" result="effect1_innerShadow_141_3128"/>
</filter>
<filter id="filter5_i_141_3128" x="0.377197" y="33.788" width="36.5775" height="27.3542" filterUnits="userSpaceOnUse" color-interpolation-filters="sRGB">
<feFlood flood-opacity="0" result="BackgroundImageFix"/>
<feBlend mode="normal" in="SourceGraphic" in2="BackgroundImageFix" result="shape"/>
<feColorMatrix in="SourceAlpha" type="matrix" values="0 0 0 0 0 0 0 0 0 0 0 0 0 0 0 0 0 0 127 0" result="hardAlpha"/>
<feOffset dy="2.30423"/>
<feGaussianBlur stdDeviation="0.727652"/>
<feComposite in2="hardAlpha" operator="arithmetic" k2="-1" k3="1"/>
<feColorMatrix type="matrix" values="0 0 0 0 0 0 0 0 0 0 0 0 0 0 0 0 0 0 0.65 0"/>
<feBlend mode="normal" in2="shape" result="effect1_innerShadow_141_3128"/>
</filter>
<filter id="filter6_i_141_3128" x="46.4636" y="34.7582" width="34.6337" height="25.4138" filterUnits="userSpaceOnUse" color-interpolation-filters="sRGB">
<feFlood flood-opacity="0" result="BackgroundImageFix"/>
<feBlend mode="normal" in="SourceGraphic" in2="BackgroundImageFix" result="shape"/>
<feColorMatrix in="SourceAlpha" type="matrix" values="0 0 0 0 0 0 0 0 0 0 0 0 0 0 0 0 0 0 127 0" result="hardAlpha"/>
<feOffset dy="2.30423"/>
<feGaussianBlur stdDeviation="0.727652"/>
<feComposite in2="hardAlpha" operator="arithmetic" k2="-1" k3="1"/>
<feColorMatrix type="matrix" values="0 0 0 0 0 0 0 0 0 0 0 0 0 0 0 0 0 0 0.65 0"/>
<feBlend mode="normal" in2="shape" result="effect1_innerShadow_141_3128"/>
</filter>
<filter id="filter7_i_141_3128" x="45.4917" y="33.788" width="36.5775" height="27.3542" filterUnits="userSpaceOnUse" color-interpolation-filters="sRGB">
<feFlood flood-opacity="0" result="BackgroundImageFix"/>
<feBlend mode="normal" in="SourceGraphic" in2="BackgroundImageFix" result="shape"/>
<feColorMatrix in="SourceAlpha" type="matrix" values="0 0 0 0 0 0 0 0 0 0 0 0 0 0 0 0 0 0 127 0" result="hardAlpha"/>
<feOffset dy="2.30423"/>
<feGaussianBlur stdDeviation="0.727652"/>
<feComposite in2="hardAlpha" operator="arithmetic" k2="-1" k3="1"/>
<feColorMatrix type="matrix" values="0 0 0 0 0 0 0 0 0 0 0 0 0 0 0 0 0 0 0.65 0"/>
<feBlend mode="normal" in2="shape" result="effect1_innerShadow_141_3128"/>
</filter>
<linearGradient id="paint0_linear_141_3128" x1="41.3444" y1="1.23209" x2="41.3444" y2="33.1275" gradientUnits="userSpaceOnUse">
<stop stop-color="#00FFC7"/>
<stop offset="0.729167" stop-color="#179D80"/>
<stop offset="1" stop-color="#0B6E58"/>
</linearGradient>
<linearGradient id="paint1_linear_141_3128" x1="41.0414" y1="57.7465" x2="41.0414" y2="21.2426" gradientUnits="userSpaceOnUse">
<stop stop-color="#240099"/>
<stop offset="1" stop-color="#501CF4"/>
</linearGradient>
<linearGradient id="paint2_linear_141_3128" x1="18.6658" y1="34.3403" x2="18.6658" y2="66.8421" gradientUnits="userSpaceOnUse">
<stop stop-color="#00FFC7"/>
<stop offset="0.729167" stop-color="#179D80"/>
<stop offset="1" stop-color="#0B6E58"/>
</linearGradient>
<linearGradient id="paint3_linear_141_3128" x1="63.7804" y1="34.3403" x2="63.7804" y2="66.8421" gradientUnits="userSpaceOnUse">
<stop stop-color="#00FFC7"/>
<stop offset="0.729167" stop-color="#179D80"/>
<stop offset="1" stop-color="#0B6E58"/>
</linearGradient>
</defs>
</svg>
