<svg width="182" height="181" viewBox="0 0 182 181" fill="none" xmlns="http://www.w3.org/2000/svg">
<g clip-path="url(#clip0_127_553)">
<g opacity="0.69">
<path d="M139.72 6.68309C139.192 5.87798 137.934 6.31614 138.025 7.27653C138.9 16.5372 140.434 40.8931 134.358 56.4729C124.468 81.8396 124.812 116.707 141.863 128.268C141.863 128.266 197.178 94.3722 139.72 6.68309Z" fill="url(#paint0_linear_127_553)"/>
<path d="M142.669 19.2424C142.753 19.5243 142.799 19.7636 142.866 20.0178L143.033 20.7725L143.348 22.2838C143.546 23.2926 143.744 24.3034 143.927 25.3153C144.295 27.3389 144.64 29.3668 144.961 31.399C145.601 35.4641 146.131 39.545 146.6 43.6339C147.069 47.7227 147.435 51.8234 147.707 55.931C147.979 60.0386 148.188 64.1511 148.263 68.2686C148.43 76.5017 148.149 84.7525 147.287 92.9499C146.812 97.0427 146.229 101.126 145.407 105.167C144.561 109.199 143.542 113.199 142.236 117.105C142.223 117.147 142.194 117.182 142.155 117.202C142.116 117.222 142.071 117.226 142.029 117.213C141.987 117.2 141.952 117.171 141.932 117.132C141.912 117.093 141.908 117.048 141.921 117.006C143.063 113.068 144.003 109.073 144.736 105.038C145.483 101.008 145.994 96.9379 146.399 92.8599C146.805 88.782 147.041 84.6862 147.191 80.5895C147.34 76.4928 147.31 72.3891 147.263 68.2884C147.133 60.0851 146.565 51.8916 145.772 43.7219C145.368 39.6383 144.885 35.5624 144.322 31.494C144.045 29.4605 143.749 27.4292 143.432 25.4003L142.928 22.3629L142.661 20.8476L142.518 20.092C142.468 19.8457 142.419 19.5796 142.365 19.366L142.356 19.3304C142.346 19.2889 142.352 19.245 142.374 19.2081C142.396 19.1712 142.431 19.1442 142.472 19.1328C142.513 19.1215 142.557 19.1267 142.595 19.1473C142.632 19.168 142.66 19.2024 142.673 19.2434L142.669 19.2424Z" fill="url(#paint1_linear_127_553)"/>
</g>
<path d="M172.854 16.8013C172.565 15.8379 171.173 15.9022 170.975 16.8883C169.096 26.4269 163.372 51.2843 152.642 65.0818C135.171 87.5466 125.127 122.58 138.765 139.242C138.767 139.242 204.284 121.772 172.854 16.8013Z" fill="#0D5DD6"/>
<path opacity="0.43" d="M172.062 30.2655C172.062 30.5731 172.038 30.8263 172.023 31.0992L171.965 31.9053L171.83 33.5126C171.731 34.5837 171.62 35.6529 171.506 36.7221C171.271 38.8598 171.011 40.9942 170.728 43.1254C170.157 47.3873 169.471 51.6314 168.722 55.8695C167.972 60.1077 167.116 64.3192 166.164 68.5148C165.211 72.7104 164.196 76.8932 163.044 81.0404C160.758 89.3377 158.018 97.5193 154.712 105.47C153.016 109.427 151.217 113.346 149.194 117.15C147.145 120.939 144.935 124.642 142.463 128.167C142.436 128.201 142.398 128.223 142.356 128.23C142.313 128.237 142.27 128.227 142.234 128.203C142.198 128.179 142.173 128.143 142.163 128.101C142.153 128.059 142.16 128.015 142.181 127.978C144.5 124.373 146.633 120.652 148.57 116.829C150.52 113.014 152.247 109.088 153.868 105.124C155.489 101.16 156.948 97.1276 158.319 93.0665C159.69 89.0054 160.883 84.8869 162.057 80.7644C164.372 72.5077 166.244 64.1303 167.884 55.7093C168.696 51.4965 169.426 47.2689 170.074 43.0264C170.403 40.9059 170.711 38.7823 170.996 36.6558L171.391 33.4621L171.574 31.8648L171.657 31.0656C171.68 30.8035 171.709 30.5216 171.72 30.2912V30.2536C171.72 30.209 171.739 30.1666 171.771 30.1357C171.803 30.1048 171.847 30.088 171.891 30.0889C171.936 30.0898 171.978 30.1084 172.009 30.1406C172.04 30.1728 172.057 30.2159 172.056 30.2605L172.062 30.2655Z" fill="url(#paint2_linear_127_553)"/>
<path d="M76.1731 137.259L72.8547 167.024H111.357L106.342 137.259H76.1731Z" fill="#0D5DD6"/>
<path d="M9.17554 61.8011V131.942C9.17539 134.717 10.2591 137.382 12.1956 139.369C14.1321 141.356 16.7682 142.508 19.542 142.58C45.1589 143.24 134.769 144.843 159.156 144.482C161.174 144.452 163.102 143.645 164.538 142.228C165.974 140.81 166.808 138.893 166.865 136.877C167.336 120.581 168.099 81.3956 165.273 63.2036C164.985 61.347 164.058 59.6492 162.651 58.404C161.244 57.1587 159.447 56.4441 157.569 56.3839C136.106 55.6975 41.1136 53.5156 16.736 54.0646C14.7146 54.1098 12.7912 54.9449 11.3781 56.391C9.96489 57.8371 9.17426 59.7792 9.17554 61.8011Z" fill="url(#paint3_linear_127_553)"/>
<path d="M13.5759 61.4598V128.101C13.576 129.721 14.2131 131.275 15.3496 132.428C16.4861 133.582 18.0308 134.241 19.6498 134.265L155.647 135.947C156.441 135.959 157.229 135.813 157.966 135.519C158.702 135.224 159.374 134.786 159.94 134.23C160.506 133.674 160.957 133.011 161.265 132.28C161.574 131.549 161.734 130.763 161.737 129.97L161.964 63.9236C161.968 62.7754 161.523 61.6713 160.722 60.8481C159.922 60.0249 158.83 59.5482 157.683 59.5203L18.4471 56.7064C17.8131 56.6909 17.1824 56.8025 16.5922 57.0344C16.0019 57.2663 15.464 57.614 15.0101 58.0569C14.5563 58.4998 14.1955 59.0291 13.9492 59.6135C13.7029 60.1979 13.576 60.8257 13.5759 61.4598Z" fill="url(#paint4_linear_127_553)"/>
<path d="M162.761 138.707L13.5728 136.165C13.5148 136.164 13.4596 136.141 13.4193 136.099C13.3789 136.057 13.3568 136.001 13.3577 135.943C13.3586 135.885 13.3825 135.83 13.4242 135.79C13.4658 135.749 13.5218 135.727 13.5797 135.728L162.765 138.272C162.823 138.272 162.879 138.295 162.92 138.336C162.961 138.377 162.984 138.433 162.984 138.491C162.984 138.549 162.961 138.604 162.92 138.645C162.879 138.686 162.823 138.709 162.765 138.709L162.761 138.707Z" fill="#0D5DD6"/>
<path d="M119.651 173.113H63.3004C61.7693 173.113 60.62 172.025 60.9157 170.852L61.6388 167.993C61.8563 167.133 62.8019 166.501 63.9265 166.467L118.251 164.771C119.425 164.735 120.465 165.358 120.724 166.255L122.027 170.805C122.362 171.99 121.207 173.113 119.651 173.113Z" fill="url(#paint5_linear_127_553)"/>
<path d="M149.384 86.163C151.399 84.1475 151.399 80.8798 149.384 78.8643C147.368 76.8488 144.101 76.8488 142.085 78.8643C140.07 80.8798 140.07 84.1475 142.085 86.163C144.101 88.1785 147.368 88.1785 149.384 86.163Z" fill="#FFDB21"/>
<path d="M149.17 66.7907C151.186 64.7752 151.186 61.5075 149.17 59.492C147.155 57.4765 143.887 57.4765 141.872 59.492C139.856 61.5075 139.856 64.7752 141.872 66.7907C143.887 68.8062 147.155 68.8062 149.17 66.7907Z" fill="#FFDB21"/>
<path d="M37.8282 104.087C39.0875 101.53 38.0355 98.4358 35.4785 97.1765C32.9214 95.9172 29.8276 96.9692 28.5683 99.5262C27.309 102.083 28.361 105.177 30.918 106.436C33.4751 107.696 36.5688 106.644 37.8282 104.087Z" fill="#FFDB21"/>
<path d="M38.1433 82.5964C38.2358 79.747 36.0009 77.3621 33.1516 77.2696C30.3022 77.1771 27.9173 79.4119 27.8248 82.2613C27.7322 85.1107 29.9671 87.4955 32.8165 87.5881C35.6658 87.6806 38.0507 85.4457 38.1433 82.5964Z" fill="#FFDB21"/>
<path d="M35.4442 67.4742C37.8835 65.9998 38.6658 62.827 37.1913 60.3877C35.7169 57.9483 32.5442 57.1661 30.1048 58.6405C27.6655 60.1149 26.8832 63.2877 28.3577 65.727C29.8321 68.1664 33.0048 68.9486 35.4442 67.4742Z" fill="#FFDB21"/>
<path d="M112.742 128.214C113.65 125.512 112.196 122.586 109.494 121.678C106.793 120.769 103.866 122.223 102.958 124.925C102.05 127.627 103.504 130.553 106.205 131.462C108.907 132.37 111.834 130.916 112.742 128.214Z" fill="#FFDB21"/>
<path d="M93.478 128.04C94.1767 125.277 92.503 122.471 89.7396 121.772C86.9763 121.073 84.1697 122.747 83.471 125.51C82.7722 128.274 84.446 131.08 87.2093 131.779C89.9727 132.478 92.7792 130.804 93.478 128.04Z" fill="#FFDB21"/>
<path d="M69.8598 132.091C72.6804 131.676 74.6309 129.054 74.2164 126.233C73.8019 123.412 71.1794 121.462 68.3588 121.876C65.5382 122.291 63.5877 124.913 64.0022 127.734C64.4167 130.555 67.0393 132.505 69.8598 132.091Z" fill="#FFDB21"/>
<path d="M115.156 20.836C115.782 18.055 114.034 15.2939 111.253 14.6687C108.472 14.0435 105.711 15.7911 105.086 18.572C104.461 21.3529 106.208 24.1141 108.989 24.7393C111.77 25.3645 114.531 23.6169 115.156 20.836Z" fill="#FFDB21"/>
<path d="M91.9457 24.9253C94.7174 24.2604 96.4253 21.4745 95.7604 18.7028C95.0955 15.9311 92.3096 14.2232 89.5379 14.8881C86.7662 15.553 85.0583 18.3389 85.7232 21.1106C86.3881 23.8823 89.174 25.5902 91.9457 24.9253Z" fill="#FFDB21"/>
<path d="M75.7163 22.9141C77.2544 20.5145 76.5561 17.3222 74.1564 15.7841C71.7568 14.2459 68.5645 14.9442 67.0263 17.3439C65.4882 19.7435 66.1865 22.9358 68.5862 24.474C70.9858 26.0122 74.1781 25.3138 75.7163 22.9141Z" fill="#FFDB21"/>
<path d="M100.967 95.475C101.23 95.4726 101.489 95.5458 101.712 95.6861C101.935 95.8263 102.114 96.0277 102.226 96.2663L109.143 110.791C109.229 110.971 109.275 111.168 109.277 111.368L109.444 126.553C109.45 126.736 109.42 126.919 109.355 127.091C109.289 127.263 109.19 127.42 109.063 127.553C108.936 127.686 108.784 127.792 108.616 127.865C108.447 127.938 108.266 127.977 108.082 127.979C107.898 127.981 107.716 127.946 107.546 127.877C107.375 127.807 107.221 127.704 107.091 127.574C106.961 127.444 106.859 127.289 106.79 127.119C106.721 126.948 106.687 126.766 106.689 126.582L106.523 111.697L99.7381 97.4453C99.6389 97.2364 99.5938 97.006 99.607 96.7751C99.6202 96.5443 99.6912 96.3204 99.8135 96.1242C99.9359 95.928 100.106 95.7657 100.307 95.6523C100.509 95.5388 100.735 95.4779 100.967 95.475Z" fill="#0D5DD6"/>
<path d="M81.6814 95.6877C81.8623 95.6857 82.0419 95.7194 82.2098 95.7869C82.3777 95.8543 82.5307 95.9542 82.66 96.0807C82.7893 96.2073 82.8924 96.3581 82.9635 96.5245C83.0345 96.6909 83.0721 96.8697 83.074 97.0506L83.1581 104.701L89.4931 110.899C89.7538 111.155 89.9028 111.503 89.9075 111.869L90.0707 126.76C90.0659 127.12 89.9208 127.463 89.6662 127.717C89.4117 127.971 89.0679 128.116 88.7084 128.12C88.3488 128.124 88.0019 127.987 87.7418 127.739C87.4816 127.491 87.3289 127.15 87.3161 126.791L87.1589 112.469L80.8229 106.272C80.6936 106.145 80.5906 105.995 80.5197 105.828C80.4487 105.662 80.4113 105.483 80.4094 105.302L80.3184 97.0803C80.3165 96.8994 80.3502 96.7198 80.4176 96.5519C80.4851 96.384 80.5849 96.231 80.7115 96.1017C80.838 95.9724 80.9888 95.8693 81.1552 95.7982C81.3217 95.7272 81.5004 95.6896 81.6814 95.6877Z" fill="#0D5DD6"/>
<path d="M73.323 95.7797C73.6882 95.7758 74.0401 95.917 74.3013 96.1724C74.5624 96.4278 74.7114 96.7765 74.7156 97.1417L74.86 110.277C74.8631 110.642 74.7207 110.994 74.4644 111.255L70.5665 115.24L70.696 126.973C70.698 127.154 70.6644 127.334 70.597 127.501C70.5296 127.669 70.4298 127.822 70.3033 127.952C70.1768 128.081 70.0261 128.184 69.8597 128.255C69.6933 128.327 69.5145 128.364 69.3336 128.366C69.1526 128.368 68.9731 128.335 68.8052 128.267C68.6372 128.2 68.4842 128.1 68.3549 127.973C68.2255 127.847 68.1223 127.696 68.0512 127.53C67.9801 127.363 67.9425 127.185 67.9405 127.004L67.805 114.7C67.8023 114.334 67.9445 113.982 68.2006 113.721L72.1035 109.737L71.966 97.1753C71.9612 96.8104 72.1014 96.4585 72.3559 96.1969C72.6103 95.9352 72.9581 95.7852 73.323 95.7797Z" fill="#0D5DD6"/>
<path d="M116.877 89.5328C117.202 89.5302 117.517 89.643 117.767 89.8512L131.572 101.324L145.928 101.166C146.293 101.162 146.645 101.304 146.906 101.559C147.167 101.815 147.316 102.164 147.32 102.529C147.324 102.895 147.183 103.247 146.927 103.508C146.672 103.769 146.323 103.918 145.957 103.922L131.097 104.085C130.771 104.088 130.456 103.975 130.206 103.766L116.011 91.9698C115.794 91.7896 115.638 91.5471 115.564 91.2752C115.489 91.0033 115.499 90.7151 115.594 90.4494C115.688 90.1837 115.862 89.9533 116.091 89.7894C116.321 89.6255 116.595 89.5359 116.877 89.5328Z" fill="#0D5DD6"/>
<path d="M117.469 74.5551C117.65 74.5532 117.83 74.5872 117.998 74.6551C118.166 74.723 118.319 74.8235 118.448 74.9508L125.668 82.0157L145.717 81.7961C146.077 81.8009 146.42 81.946 146.674 82.2006C146.928 82.4551 147.072 82.7989 147.076 83.1584C147.08 83.518 146.944 83.8649 146.695 84.125C146.447 84.3852 146.107 84.5379 145.748 84.5507L125.128 84.7772C124.763 84.7798 124.411 84.6376 124.149 84.3816L116.52 76.917C116.325 76.7265 116.191 76.4826 116.135 76.2161C116.079 75.9496 116.104 75.6725 116.205 75.4198C116.306 75.1671 116.48 74.9501 116.705 74.7962C116.93 74.6423 117.195 74.5584 117.467 74.5551H117.469Z" fill="#0D5DD6"/>
<path d="M114.732 55.7638L126.455 55.6352C126.636 55.6333 126.815 55.6672 126.983 55.7351C127.151 55.803 127.304 55.9035 127.433 56.0308L134.096 62.5488L145.507 62.4232C145.691 62.4167 145.874 62.447 146.046 62.5124C146.217 62.5777 146.374 62.6768 146.507 62.8037C146.64 62.9306 146.746 63.0829 146.82 63.2514C146.893 63.42 146.932 63.6015 146.933 63.7853C146.935 63.969 146.901 64.1514 146.831 64.3215C146.762 64.4916 146.659 64.6461 146.529 64.7758C146.398 64.9056 146.244 65.008 146.073 65.077C145.903 65.146 145.721 65.1803 145.537 65.1778L133.556 65.3103C133.19 65.313 132.838 65.1707 132.577 64.9147L125.915 58.3957L114.763 58.5184C114.579 58.5249 114.396 58.4946 114.224 58.4293C114.053 58.364 113.896 58.265 113.763 58.1381C113.63 58.0113 113.524 57.8591 113.45 57.6905C113.377 57.522 113.338 57.3405 113.336 57.1568C113.334 56.973 113.369 56.7907 113.438 56.6206C113.508 56.4505 113.611 56.296 113.741 56.1662C113.871 56.0364 114.026 55.9339 114.196 55.8648C114.366 55.7957 114.548 55.7614 114.732 55.7638Z" fill="#0D5DD6"/>
<path d="M110.974 17.6668C111.339 17.6629 111.691 17.8041 111.952 18.0595C112.213 18.3149 112.362 18.6635 112.366 19.0288L112.498 31.0163C112.501 31.3822 112.358 31.7342 112.102 31.9955L107.139 37.0694L107.255 47.6723C107.261 47.8559 107.231 48.039 107.166 48.2108C107.101 48.3825 107.002 48.5395 106.875 48.6724C106.748 48.8054 106.596 48.9116 106.427 48.9848C106.259 49.058 106.077 49.0968 105.893 49.0989C105.71 49.1009 105.527 49.0662 105.357 48.9967C105.187 48.9273 105.033 48.8245 104.903 48.6944C104.773 48.5643 104.671 48.4096 104.601 48.2393C104.532 48.0691 104.498 47.8867 104.5 47.7029L104.378 36.5264C104.375 36.1608 104.517 35.809 104.773 35.5482L109.737 30.4743L109.611 19.0575C109.608 18.6925 109.749 18.3411 110.005 18.0804C110.26 17.8197 110.609 17.671 110.974 17.6668Z" fill="#0D5DD6"/>
<path d="M91.6019 17.8795C91.8742 17.877 92.1411 17.9551 92.369 18.1041C92.5969 18.2531 92.7756 18.4662 92.8826 18.7166C92.9895 18.967 93.0199 19.2434 92.97 19.5111C92.92 19.7787 92.7919 20.0256 92.6019 20.2206L85.9445 27.0254L86.1739 47.9037C86.1804 48.0873 86.1502 48.2704 86.0849 48.4422C86.0196 48.614 85.9206 48.7709 85.7937 48.9039C85.6668 49.0368 85.5146 49.143 85.3461 49.2162C85.1776 49.2895 84.9961 49.3282 84.8123 49.3303C84.6286 49.3323 84.4463 49.2976 84.2762 49.2281C84.1061 49.1587 83.9515 49.0559 83.8217 48.9258C83.6919 48.7957 83.5895 48.641 83.5204 48.4707C83.4513 48.3005 83.4169 48.1181 83.4194 47.9344L83.181 26.4854C83.179 26.3043 83.213 26.1246 83.2809 25.9567C83.3488 25.7888 83.4493 25.636 83.5766 25.5072L90.6326 18.2978C90.7586 18.1676 90.9091 18.0636 91.0755 17.9918C91.2419 17.92 91.4208 17.8818 91.6019 17.8795Z" fill="#0D5DD6"/>
<path d="M72.2288 18.093C72.5013 18.09 72.7685 18.1679 72.9967 18.3168C73.2249 18.4657 73.4039 18.6789 73.5109 18.9295C73.6179 19.1801 73.6483 19.4568 73.598 19.7246C73.5478 19.9924 73.4193 20.2393 73.2288 20.4341L65.7198 28.1103L65.7761 33.2643L76.9417 44.1866C77.1946 44.4439 77.3364 44.7901 77.3368 45.1508C77.3372 45.5115 77.1961 45.858 76.9438 46.1158C76.6915 46.3737 76.3482 46.5223 75.9876 46.5298C75.627 46.5373 75.2778 46.403 75.015 46.1559L63.4429 34.835C63.182 34.5791 63.0333 34.2301 63.0295 33.8647L62.9602 27.5703C62.9576 27.2044 63.0998 26.8524 63.3559 26.5911L71.2684 18.5074C71.5214 18.248 71.8666 18.0991 72.2288 18.093Z" fill="#0D5DD6"/>
<path d="M52.6858 93.7174L64.9503 93.5819C65.1312 93.5799 65.3107 93.6136 65.4786 93.6811C65.6465 93.7485 65.7995 93.8484 65.9288 93.9749C66.0582 94.1015 66.1613 94.2523 66.2323 94.4187C66.3034 94.5851 66.3409 94.7639 66.3429 94.9448C66.3448 95.1257 66.3111 95.3053 66.2437 95.4732C66.1762 95.6411 66.0764 95.7941 65.9498 95.9234C65.8233 96.0527 65.6725 96.1558 65.5061 96.2269C65.3396 96.2979 65.1609 96.3355 64.9799 96.3374L53.2911 96.466L46.1836 103.731C46.0572 103.86 45.9065 103.963 45.7401 104.034C45.5738 104.105 45.3951 104.142 45.2143 104.144L33.2179 104.277C32.8525 104.281 32.5004 104.139 32.2392 103.884C31.9779 103.628 31.8289 103.28 31.8248 102.914C31.8207 102.549 31.962 102.197 32.2175 101.936C32.473 101.674 32.8218 101.525 33.1872 101.521L44.6071 101.396L51.7145 94.1308C51.8412 94.0013 51.9922 93.8982 52.1589 93.8272C52.3256 93.7563 52.5046 93.719 52.6858 93.7174Z" fill="#0D5DD6"/>
<path d="M62.7378 70.1171C63.0103 70.1142 63.2775 70.1921 63.5057 70.341C63.7339 70.4899 63.9128 70.7031 64.0199 70.9537C64.1269 71.2042 64.1572 71.4809 64.107 71.7488C64.0568 72.0166 63.9283 72.2635 63.7377 72.4583L52.1656 84.2895C52.0392 84.419 51.8886 84.5222 51.7222 84.5933C51.5559 84.6644 51.3772 84.702 51.1963 84.704L33.0033 84.9018C32.8197 84.9083 32.6366 84.878 32.4648 84.8127C32.2931 84.7474 32.1361 84.6484 32.0032 84.5216C31.8702 84.3947 31.764 84.2425 31.6908 84.074C31.6176 83.9054 31.5788 83.724 31.5767 83.5402C31.5747 83.3565 31.6094 83.1742 31.6789 83.004C31.7484 82.8339 31.8512 82.6794 31.9812 82.5496C32.1113 82.4198 32.266 82.3173 32.4363 82.2482C32.6066 82.1791 32.7889 82.1448 32.9727 82.1472L50.5959 81.9494L61.7724 70.5256C62.0276 70.2672 62.3747 70.1204 62.7378 70.1171Z" fill="#0D5DD6"/>
<path d="M54.9323 56.2109L64.5342 56.1051C64.8996 56.101 65.2517 56.2423 65.5129 56.4978C65.7742 56.7533 65.9232 57.1021 65.9273 57.4675C65.9314 57.8329 65.7901 58.185 65.5346 58.4462C65.2791 58.7075 64.9303 58.8566 64.5649 58.8606L55.5327 58.9595L49.6813 64.9424C49.4255 65.2034 49.0765 65.3521 48.711 65.3559L32.787 65.5309C32.6033 65.5374 32.4202 65.5071 32.2485 65.4417C32.0767 65.3764 31.9197 65.2773 31.7868 65.1504C31.6539 65.0235 31.5478 64.8713 31.4746 64.7027C31.4014 64.5341 31.3627 64.3526 31.3607 64.1688C31.3587 63.9851 31.3935 63.8028 31.463 63.6327C31.5326 63.4625 31.6355 63.3081 31.7656 63.1783C31.8957 63.0486 32.0505 62.9461 32.2208 62.8771C32.3912 62.8081 32.5736 62.7738 32.7573 62.7764L48.1107 62.6082L53.962 56.6263C54.2179 56.3652 54.5667 56.2158 54.9323 56.2109Z" fill="#0D5DD6"/>
<path d="M110.498 95.8584C123.664 82.6917 123.664 61.3442 110.498 48.1775C97.3309 35.0108 75.9834 35.0108 62.8167 48.1775C49.65 61.3442 49.65 82.6917 62.8167 95.8584C75.9834 109.025 97.3309 109.025 110.498 95.8584Z" fill="#E5B731"/>
<path d="M109.705 95.0653C122.433 82.3366 122.433 61.6993 109.705 48.9706C96.976 36.2419 76.3388 36.2419 63.6101 48.9706C50.8814 61.6993 50.8814 82.3366 63.6101 95.0653C76.3388 107.794 96.976 107.794 109.705 95.0653Z" fill="#FFDB21"/>
<path opacity="0.7" d="M59.7795 58.6974C59.7419 58.6976 59.705 58.6882 59.6722 58.6701C59.6393 58.652 59.6116 58.6258 59.5918 58.5939C59.572 58.5621 59.5606 58.5257 59.5588 58.4882C59.5571 58.4508 59.5649 58.4135 59.5816 58.3799C62.5344 52.5338 67.2989 47.7996 73.1637 44.8842C79.0285 41.9687 85.6789 41.0284 92.1221 42.2036C92.1791 42.2141 92.2297 42.2469 92.2626 42.2946C92.2955 42.3424 92.3081 42.4013 92.2976 42.4583C92.2871 42.5154 92.2544 42.5659 92.2067 42.5989C92.1589 42.6318 92.1 42.6444 92.0429 42.6339C90.265 42.3107 88.4616 42.1485 86.6545 42.1492C75.3118 42.1492 65.0927 48.4437 59.9733 58.5767C59.9552 58.6127 59.9275 58.643 59.8933 58.6642C59.8591 58.6855 59.8197 58.697 59.7795 58.6974Z" fill="#0D5DD6"/>
<path d="M106.874 92.2352C117.647 81.4618 117.647 63.9945 106.874 53.2211C96.1005 42.4476 78.6333 42.4476 67.8599 53.2211C57.0864 63.9945 57.0864 81.4618 67.8599 92.2352C78.6333 103.009 96.1005 103.009 106.874 92.2352Z" fill="#0D5DD6"/>
<g opacity="0.3">
<path d="M40.2077 163.718C40.278 163.861 40.2928 164.025 40.2491 164.179C40.2055 164.332 40.1065 164.464 39.9713 164.549C39.3531 164.937 38.7092 165.303 38.0574 165.637C37.9821 165.676 37.8997 165.699 37.8152 165.706C37.7307 165.713 37.6456 165.704 37.5649 165.678C37.4841 165.652 37.4093 165.61 37.3446 165.555C37.2799 165.5 37.2267 165.433 37.188 165.358L37.1821 165.346C37.1078 165.194 37.096 165.019 37.1492 164.859C37.2025 164.699 37.3166 164.566 37.467 164.488C38.0861 164.17 38.6984 163.821 39.2849 163.453C39.4299 163.362 39.6052 163.332 39.7721 163.37C39.9391 163.409 40.084 163.512 40.175 163.657C40.1869 163.68 40.1978 163.7 40.2077 163.718ZM35.1397 166.158C35.1508 166.181 35.1607 166.205 35.1693 166.229C35.2259 166.391 35.2161 166.568 35.1419 166.723C35.0677 166.877 34.9353 166.995 34.7737 167.052C34.0814 167.295 33.3742 167.511 32.668 167.694C32.5851 167.718 32.4984 167.724 32.4129 167.714C32.3274 167.704 32.2448 167.676 32.1701 167.633C32.0953 167.591 32.0299 167.533 31.9776 167.465C31.9254 167.396 31.8873 167.318 31.8658 167.235C31.8442 167.151 31.8395 167.064 31.852 166.979C31.8645 166.894 31.8939 166.812 31.9386 166.738C31.9832 166.665 32.0421 166.601 32.1118 166.55C32.1815 166.5 32.2607 166.463 32.3446 166.444C33.0152 166.27 33.6877 166.065 34.3445 165.834C34.4937 165.781 34.6571 165.785 34.8037 165.845C34.9502 165.905 35.0698 166.016 35.1397 166.158ZM29.6592 167.421C29.6918 167.488 29.7129 167.559 29.7215 167.633C29.7407 167.803 29.6917 167.974 29.585 168.108C29.4784 168.242 29.323 168.328 29.1528 168.348C28.4269 168.431 27.688 168.483 26.9561 168.503C26.7879 168.503 26.6264 168.437 26.5058 168.32C26.3853 168.203 26.3152 168.043 26.3106 167.875C26.306 167.707 26.3671 167.544 26.481 167.42C26.5949 167.296 26.7526 167.222 26.9205 167.212C27.6128 167.193 28.3161 167.143 29.0064 167.064C29.1388 167.049 29.2726 167.075 29.3895 167.139C29.5064 167.203 29.6006 167.301 29.6592 167.421ZM24.0334 167.427C24.0877 167.537 24.109 167.661 24.0947 167.783C24.0854 167.867 24.0595 167.949 24.0186 168.023C23.9777 168.097 23.9225 168.163 23.8563 168.216C23.7901 168.269 23.714 168.308 23.6326 168.332C23.5511 168.355 23.4658 168.362 23.3816 168.353C22.6546 168.272 21.9227 168.155 21.2056 168.014C21.1225 167.998 21.0434 167.965 20.973 167.917C20.9026 167.87 20.8422 167.809 20.7954 167.738C20.7485 167.667 20.716 167.588 20.6997 167.505C20.6835 167.421 20.6838 167.336 20.7007 167.252C20.7176 167.169 20.7507 167.09 20.7982 167.02C20.8456 166.949 20.9064 166.889 20.9772 166.842C21.048 166.795 21.1273 166.763 21.2106 166.747C21.2939 166.73 21.3796 166.731 21.4628 166.747C22.1433 166.884 22.8386 166.992 23.529 167.07C23.6365 167.082 23.7391 167.121 23.8275 167.184C23.9158 167.246 23.987 167.33 24.0344 167.427H24.0334ZM18.547 166.179C18.6025 166.293 18.6227 166.422 18.6052 166.548C18.5876 166.674 18.5331 166.793 18.4484 166.888C18.3638 166.983 18.2528 167.051 18.1295 167.083C18.0062 167.116 17.8762 167.111 17.7558 167.069C17.0634 166.829 16.379 166.556 15.7104 166.257C15.6302 166.224 15.5575 166.176 15.4965 166.114C15.4355 166.053 15.3874 165.98 15.3552 165.9C15.3229 165.819 15.3072 165.733 15.3088 165.647C15.3105 165.56 15.3295 165.475 15.3648 165.396C15.4001 165.317 15.4509 165.246 15.5142 165.187C15.5775 165.128 15.652 165.082 15.7334 165.052C15.8147 165.023 15.9011 165.01 15.9876 165.014C16.074 165.018 16.1587 165.04 16.2366 165.078C16.8725 165.362 17.5223 165.621 18.1811 165.849C18.2607 165.878 18.334 165.921 18.3968 165.978C18.4596 166.034 18.5107 166.103 18.547 166.179ZM13.4751 163.748C13.5371 163.874 13.5563 164.016 13.5298 164.154C13.5034 164.292 13.4327 164.418 13.3285 164.512C13.2243 164.606 13.0922 164.664 12.9523 164.676C12.8125 164.688 12.6723 164.655 12.5533 164.58C11.9331 164.194 11.3219 163.774 10.7373 163.336C10.6678 163.286 10.609 163.222 10.5643 163.149C10.5196 163.076 10.4899 162.995 10.477 162.91C10.4641 162.825 10.4682 162.739 10.4891 162.655C10.51 162.572 10.5472 162.494 10.5986 162.425C10.6501 162.357 10.7146 162.299 10.7886 162.256C10.8626 162.212 10.9445 162.184 11.0295 162.173C11.1145 162.161 11.2009 162.167 11.2837 162.189C11.3665 162.211 11.444 162.25 11.5118 162.303C12.0676 162.719 12.6482 163.118 13.2377 163.489C13.339 163.552 13.4212 163.641 13.4751 163.748ZM1.67446 143.181C1.71438 143.264 1.73661 143.354 1.73974 143.446C1.75952 144.138 1.81095 144.842 1.89107 145.533C1.91074 145.703 1.86187 145.875 1.75522 146.009C1.64857 146.144 1.49286 146.23 1.32235 146.25C1.15184 146.27 0.980506 146.221 0.846028 146.114C0.71155 146.007 0.624948 145.852 0.605274 145.681C0.521203 144.954 0.466804 144.214 0.445045 143.485C0.441197 143.337 0.487793 143.193 0.577118 143.076C0.666442 142.958 0.793137 142.875 0.936222 142.84C1.07931 142.804 1.2302 142.819 1.36392 142.881C1.49763 142.943 1.60615 143.049 1.67149 143.181H1.67446ZM9.06974 160.255C9.13744 160.392 9.15422 160.549 9.11709 160.698C9.07995 160.846 8.99132 160.977 8.86697 161.066C8.74263 161.155 8.59066 161.197 8.43815 161.185C8.28563 161.172 8.14247 161.106 8.03419 160.998C7.51591 160.483 7.01347 159.938 6.54168 159.38C6.48693 159.315 6.44551 159.24 6.41978 159.159C6.39406 159.078 6.38453 158.993 6.39174 158.908C6.39895 158.823 6.42275 158.741 6.4618 158.666C6.50085 158.59 6.55438 158.523 6.61932 158.468C6.68426 158.414 6.75935 158.372 6.8403 158.347C6.92126 158.321 7.00648 158.311 7.09111 158.319C7.17575 158.326 7.25813 158.35 7.33357 158.389C7.409 158.428 7.476 158.481 7.53075 158.546C7.9788 159.076 8.45553 159.593 8.94809 160.082C8.99781 160.133 9.0389 160.191 9.06974 160.255ZM2.47264 148.749C2.49189 148.788 2.50713 148.829 2.51814 148.871C2.6932 149.543 2.89992 150.216 3.13235 150.872C3.18454 151.032 3.17203 151.206 3.0975 151.358C3.02297 151.509 2.89232 151.625 2.73343 151.681C2.57454 151.737 2.4 151.729 2.24705 151.658C2.09411 151.587 1.97488 151.46 1.9148 151.302C1.6705 150.61 1.45291 149.905 1.26894 149.197C1.22956 149.043 1.24868 148.879 1.32262 148.738C1.39656 148.597 1.5201 148.488 1.66948 148.433C1.81885 148.377 1.98351 148.379 2.13178 148.437C2.28004 148.496 2.40145 148.607 2.47264 148.749ZM5.55459 155.871C5.62489 156.019 5.63624 156.188 5.58633 156.344C5.53643 156.5 5.429 156.632 5.28583 156.712C5.14267 156.792 4.97448 156.814 4.81537 156.774C4.65626 156.735 4.51815 156.636 4.42902 156.499C4.03933 155.881 3.67139 155.238 3.33511 154.588L3.32918 154.576C3.25815 154.424 3.24921 154.25 3.30425 154.091C3.3593 153.933 3.474 153.802 3.62403 153.726C3.77405 153.65 3.9476 153.636 4.10786 153.687C4.26811 153.737 4.40247 153.848 4.48243 153.995C4.8019 154.613 5.15104 155.223 5.52096 155.81C5.53335 155.828 5.54458 155.847 5.55459 155.867V155.871Z" fill="#0D5DD6"/>
<path d="M1.95062 138.656C2.00891 138.774 2.02929 138.907 2.00897 139.037C1.95853 139.366 1.91501 139.701 1.87743 140.035C1.86801 140.119 1.84206 140.201 1.80105 140.275C1.76004 140.35 1.70478 140.415 1.63842 140.468C1.57206 140.521 1.49591 140.561 1.41431 140.584C1.3327 140.608 1.24725 140.615 1.16282 140.606C1.0784 140.596 0.996651 140.571 0.922254 140.53C0.847858 140.489 0.782268 140.433 0.729228 140.367C0.676188 140.301 0.636738 140.224 0.613129 140.143C0.589521 140.061 0.582216 139.976 0.591633 139.891C0.630207 139.541 0.676693 139.188 0.729114 138.842C0.749969 138.706 0.813689 138.58 0.910993 138.483C1.0083 138.386 1.1341 138.322 1.27008 138.301C1.40606 138.281 1.54512 138.304 1.66699 138.368C1.78887 138.431 1.88719 138.532 1.94765 138.656H1.95062Z" fill="#0D5DD6"/>
</g>
<g opacity="0.3">
<path d="M12.2873 121.901C12.3548 122.039 12.371 122.196 12.3331 122.345C12.2953 122.493 12.2058 122.623 12.0806 122.712C11.8086 122.904 11.5356 123.108 11.2706 123.306C11.2034 123.358 11.1266 123.396 11.0446 123.418C10.9626 123.44 10.877 123.446 10.7928 123.435C10.7085 123.425 10.6272 123.397 10.5535 123.355C10.4797 123.313 10.4151 123.257 10.3631 123.189C10.3111 123.122 10.2729 123.045 10.2507 122.963C10.2284 122.881 10.2225 122.796 10.2333 122.712C10.2441 122.627 10.2713 122.546 10.3136 122.472C10.3558 122.399 10.4121 122.334 10.4793 122.282C10.7592 122.067 11.0461 121.856 11.3319 121.653C11.4718 121.554 11.6453 121.515 11.8141 121.544C11.9829 121.573 12.1332 121.668 12.232 121.808C12.2533 121.837 12.2718 121.868 12.2873 121.901Z" fill="#0D5DD6"/>
<path d="M49.3792 131.334C49.5111 131.601 49.638 131.871 49.76 132.144C49.7948 132.221 49.8141 132.305 49.8166 132.39C49.8191 132.474 49.8049 132.559 49.7748 132.638C49.7447 132.718 49.6992 132.79 49.641 132.852C49.5828 132.914 49.513 132.964 49.4356 132.998C49.3582 133.033 49.2747 133.052 49.1898 133.055C49.105 133.057 49.0205 133.043 48.9411 133.013C48.8618 132.983 48.7891 132.938 48.7274 132.879C48.6656 132.821 48.6159 132.751 48.5811 132.674C48.2982 132.043 47.9876 131.426 47.6612 130.831C47.6177 130.757 47.5896 130.675 47.5784 130.589C47.5672 130.504 47.5733 130.417 47.5961 130.334C47.619 130.251 47.6583 130.173 47.7116 130.106C47.7649 130.038 47.8312 129.982 47.9067 129.94C47.9821 129.898 48.0651 129.872 48.1507 129.863C48.2364 129.854 48.323 129.862 48.4055 129.887C48.488 129.912 48.5646 129.953 48.631 130.008C48.6973 130.063 48.752 130.131 48.7917 130.207C48.9945 130.574 49.1923 130.953 49.3792 131.334ZM50.937 135.341C50.953 135.373 50.9665 135.406 50.9776 135.44C51.1813 136.133 51.3574 136.839 51.5028 137.543C51.5298 137.629 51.5386 137.72 51.5285 137.809C51.5184 137.899 51.4897 137.985 51.4442 138.063C51.3986 138.141 51.3373 138.209 51.2641 138.261C51.191 138.314 51.1076 138.351 51.0194 138.369C50.9312 138.388 50.84 138.388 50.7519 138.369C50.6637 138.35 50.5805 138.313 50.5075 138.26C50.4345 138.207 50.3734 138.139 50.3282 138.061C50.2829 137.983 50.2545 137.897 50.2447 137.807C50.1072 137.139 49.939 136.466 49.7452 135.809C49.6998 135.654 49.7142 135.488 49.7854 135.343C49.8567 135.198 49.9797 135.085 50.1302 135.026C50.2807 134.967 50.4478 134.967 50.5984 135.026C50.749 135.084 50.8723 135.197 50.9439 135.341H50.937ZM46.9412 127.354C47.0112 127.498 47.0249 127.663 46.9798 127.817C46.9346 127.971 46.8338 128.103 46.6969 128.187C46.56 128.27 46.3969 128.3 46.2393 128.27C46.0817 128.24 45.9409 128.152 45.8443 128.024C45.4358 127.478 44.9977 126.942 44.5427 126.431C44.4288 126.303 44.3705 126.135 44.3805 125.964C44.3905 125.793 44.4681 125.633 44.5961 125.519C44.7241 125.405 44.8921 125.347 45.0631 125.357C45.2341 125.367 45.3942 125.444 45.508 125.572C45.9867 126.111 46.4476 126.676 46.8779 127.254C46.9029 127.285 46.9254 127.319 46.9451 127.354H46.9412ZM51.9093 140.793C51.9461 140.869 51.9679 140.951 51.9736 141.036C52.0201 141.754 52.0369 142.483 52.023 143.202C52.0049 143.361 51.9277 143.509 51.8068 143.615C51.6858 143.721 51.5296 143.778 51.3689 143.774C51.2081 143.771 51.0543 143.708 50.9374 143.598C50.8206 143.487 50.7492 143.337 50.7372 143.177C50.7501 142.493 50.7372 141.802 50.6898 141.12C50.68 140.97 50.7223 140.822 50.8095 140.701C50.8967 140.579 51.0234 140.492 51.1679 140.453C51.3124 140.415 51.4658 140.428 51.6019 140.49C51.738 140.552 51.8484 140.659 51.9142 140.793H51.9093ZM43.158 123.318C43.2237 123.452 43.2413 123.604 43.2078 123.749C43.1743 123.894 43.0918 124.023 42.9743 124.114C42.8567 124.205 42.7113 124.253 42.5626 124.249C42.4138 124.245 42.2709 124.191 42.158 124.094C41.6398 123.651 41.0948 123.224 40.5389 122.825C40.3998 122.725 40.306 122.574 40.2783 122.405C40.2505 122.236 40.2911 122.062 40.3911 121.923C40.491 121.784 40.6421 121.69 40.8112 121.663C40.9803 121.635 41.1534 121.675 41.2926 121.775C41.8771 122.196 42.4508 122.645 42.9968 123.112C43.0652 123.169 43.1214 123.239 43.1619 123.318H43.158ZM38.5796 120.21C38.6396 120.332 38.6593 120.47 38.6359 120.605C38.6126 120.739 38.5473 120.862 38.4495 120.957C38.3517 121.052 38.2264 121.114 38.0914 121.133C37.9565 121.153 37.8189 121.129 37.6983 121.065C37.094 120.746 36.4689 120.447 35.8408 120.175C35.7591 120.144 35.6844 120.098 35.6213 120.037C35.5581 119.977 35.5078 119.905 35.4735 119.824C35.4391 119.744 35.4214 119.658 35.4213 119.571C35.4212 119.483 35.4389 119.397 35.4731 119.317C35.5074 119.236 35.5575 119.164 35.6206 119.104C35.6836 119.043 35.7582 118.996 35.8399 118.966C35.9216 118.935 36.0087 118.921 36.0959 118.925C36.1831 118.929 36.2686 118.95 36.3472 118.988C37.0079 119.27 37.6657 119.582 38.3026 119.921C38.425 119.984 38.5235 120.086 38.5835 120.21H38.5796ZM33.4364 118.173C33.4911 118.285 33.5124 118.41 33.4977 118.533C33.4831 118.657 33.4332 118.773 33.3539 118.869C33.2746 118.965 33.1694 119.036 33.0509 119.073C32.9324 119.111 32.8056 119.113 32.6857 119.08C32.026 118.899 31.3504 118.745 30.6799 118.62C30.5134 118.587 30.3668 118.49 30.2716 118.349C30.1765 118.208 30.1405 118.036 30.1714 117.869C30.2024 117.702 30.2977 117.554 30.4369 117.457C30.5761 117.36 30.748 117.322 30.9153 117.35C31.6215 117.481 32.3316 117.647 33.0269 117.834C33.1155 117.858 33.198 117.901 33.2687 117.959C33.3395 118.018 33.397 118.091 33.4374 118.173H33.4364ZM27.9698 117.304C28.0187 117.405 28.0406 117.516 28.0334 117.628C28.0262 117.74 27.99 117.848 27.9285 117.941C27.867 118.035 27.7822 118.111 27.6825 118.162C27.5827 118.213 27.4715 118.237 27.3595 118.233C26.6761 118.2 25.9837 118.197 25.3013 118.224C25.14 118.216 24.9876 118.148 24.874 118.033C24.7604 117.918 24.694 117.765 24.6878 117.603C24.6816 117.442 24.7361 117.284 24.8405 117.161C24.9449 117.038 25.0916 116.958 25.2518 116.938C25.9709 116.91 26.6998 116.913 27.4199 116.947C27.535 116.952 27.6467 116.988 27.7433 117.051C27.84 117.113 27.9182 117.201 27.9698 117.304ZM22.4429 117.66C22.4696 117.714 22.4882 117.772 22.4983 117.831C22.5132 117.914 22.5116 118 22.4934 118.083C22.4752 118.166 22.4409 118.244 22.3924 118.314C22.3439 118.383 22.2822 118.442 22.2107 118.488C22.1393 118.534 22.0595 118.565 21.976 118.58C21.3035 118.699 20.6279 118.849 19.9672 119.025C19.8846 119.049 19.7981 119.056 19.7127 119.046C19.6273 119.036 19.5448 119.009 19.47 118.966C19.3952 118.924 19.3296 118.867 19.2771 118.799C19.2246 118.731 19.1861 118.653 19.1641 118.57C19.142 118.487 19.1368 118.4 19.1486 118.315C19.1605 118.23 19.1893 118.148 19.2332 118.074C19.2772 118 19.3354 117.936 19.4046 117.885C19.4737 117.834 19.5523 117.797 19.6359 117.777C20.3282 117.592 21.0423 117.433 21.7505 117.309C21.8888 117.285 22.0312 117.306 22.1562 117.37C22.2811 117.434 22.3817 117.537 22.4429 117.664V117.66ZM17.1335 119.22L17.1494 119.256C17.2153 119.414 17.2158 119.592 17.1507 119.75C17.0856 119.909 16.9602 120.035 16.8022 120.101C16.3373 120.299 15.8735 120.504 15.4224 120.726C15.2589 120.806 15.097 120.888 14.9368 120.971C14.8615 121.01 14.7792 121.034 14.6947 121.041C14.6101 121.049 14.525 121.039 14.4441 121.013C14.3633 120.988 14.2883 120.946 14.2235 120.892C14.1587 120.837 14.1053 120.77 14.0664 120.694C14.0264 120.619 14.0017 120.537 13.9939 120.452C13.9861 120.368 13.9953 120.282 14.021 120.201C14.0468 120.12 14.0884 120.045 14.1436 119.98C14.1988 119.915 14.2664 119.862 14.3424 119.824C14.5112 119.737 14.6816 119.651 14.8537 119.567C15.3285 119.333 15.8161 119.113 16.3047 118.909C16.4569 118.846 16.6275 118.843 16.7816 118.902C16.9357 118.96 17.0616 119.075 17.1335 119.224V119.22Z" fill="#0D5DD6"/>
<path d="M51.6581 146.34C51.7165 146.459 51.7365 146.593 51.7155 146.724C51.6611 147.07 51.5978 147.416 51.5285 147.766C51.4905 147.93 51.3903 148.072 51.2493 148.163C51.1082 148.253 50.9374 148.286 50.7729 148.253C50.6084 148.22 50.4631 148.124 50.3679 147.986C50.2726 147.848 50.2348 147.678 50.2625 147.513C50.3288 147.184 50.3881 146.85 50.4396 146.524C50.4609 146.388 50.5249 146.263 50.6225 146.166C50.72 146.069 50.8458 146.006 50.9817 145.985C51.1176 145.965 51.2565 145.988 51.3781 146.052C51.4998 146.116 51.5979 146.217 51.6581 146.341V146.34Z" fill="#0D5DD6"/>
</g>
<path d="M44.5497 148.855C44.5766 148.798 44.5847 148.734 44.5728 148.672C44.5609 148.61 44.5296 148.554 44.4834 148.511L41.8278 145.974C42.1746 144.269 42.2414 142.52 42.0256 140.793L44.8622 138.47C44.9105 138.43 44.9451 138.376 44.9614 138.315C44.9777 138.255 44.9749 138.191 44.9532 138.132L43.4202 133.996C43.3992 133.937 43.3598 133.886 43.3076 133.85C43.2555 133.815 43.1934 133.796 43.1304 133.799L39.4609 133.884C38.4996 132.434 37.3083 131.15 35.9339 130.084L36.2949 126.424C36.3018 126.361 36.2885 126.298 36.257 126.244C36.2255 126.189 36.1775 126.146 36.1198 126.12L32.1161 124.283C32.0592 124.256 31.9952 124.247 31.9333 124.259C31.8714 124.271 31.8149 124.302 31.7719 124.348L29.2349 127.005C27.5305 126.658 25.781 126.591 24.0552 126.807L21.7259 123.969C21.6866 123.92 21.6326 123.884 21.5718 123.868C21.511 123.851 21.4465 123.855 21.3876 123.877L17.2583 125.414C17.1988 125.435 17.1475 125.475 17.1119 125.527C17.0764 125.579 17.0583 125.641 17.0604 125.704L17.1445 129.375C15.6946 130.335 14.411 131.526 13.3445 132.901L9.68494 132.541C9.62253 132.535 9.5598 132.548 9.5054 132.579C9.45101 132.61 9.40764 132.658 9.38129 132.715L7.5436 136.719C7.51666 136.776 7.50856 136.84 7.52048 136.902C7.53239 136.964 7.5637 137.021 7.60987 137.064L10.2655 139.6C9.91868 141.304 9.85186 143.054 10.0677 144.78L7.23006 147.109C7.18097 147.148 7.14569 147.202 7.12933 147.263C7.11297 147.324 7.11638 147.388 7.13907 147.447L8.67015 151.578C8.69198 151.637 8.73173 151.688 8.78387 151.724C8.836 151.759 8.8979 151.777 8.96094 151.776L12.6304 151.692C13.5919 153.141 14.7828 154.424 16.1564 155.491L15.7964 159.15C15.7896 159.213 15.8028 159.276 15.8343 159.331C15.8658 159.386 15.9138 159.429 15.9715 159.454L19.9792 161.289C20.0363 161.315 20.1002 161.322 20.1619 161.311C20.2235 161.299 20.28 161.268 20.3234 161.223L22.8604 158.566C24.5647 158.913 26.3143 158.98 28.0401 158.764L30.3694 161.601C30.4087 161.651 30.4627 161.686 30.5235 161.703C30.5843 161.719 30.6488 161.716 30.7076 161.693L34.838 160.161C34.8975 160.14 34.9488 160.101 34.9843 160.049C35.0199 159.997 35.0379 159.935 35.0358 159.872L34.9517 156.202C36.4017 155.241 37.6852 154.049 38.7518 152.675L42.4064 153.035C42.4689 153.041 42.5319 153.028 42.5865 152.997C42.6411 152.965 42.6846 152.918 42.711 152.861L44.5497 148.855Z" fill="#0D5DD6"/>
<path d="M30.0272 140.844C30.5328 141.874 30.6193 143.059 30.2685 144.152C29.9178 145.244 29.1571 146.158 28.1464 146.701C27.1357 147.244 25.9539 147.374 24.8494 147.063C23.7449 146.753 22.8038 146.026 22.2241 145.036C21.6444 144.046 21.4712 142.87 21.7409 141.755C22.0107 140.64 22.7024 139.672 23.6705 139.057C24.6386 138.441 25.8078 138.225 26.932 138.454C28.0563 138.682 29.0481 139.338 29.6989 140.283C29.8216 140.462 29.9314 140.649 30.0272 140.844ZM22.9969 144.281C23.0709 144.432 23.1559 144.577 23.2511 144.716C23.7487 145.438 24.5071 145.94 25.3668 146.115C26.2266 146.29 27.1207 146.125 27.8614 145.655C28.602 145.185 29.1315 144.445 29.3385 143.593C29.5455 142.74 29.4139 141.841 28.9713 141.083C28.5288 140.325 27.8098 139.769 26.9655 139.53C26.1211 139.292 25.2172 139.39 24.4436 139.804C23.6701 140.218 23.0872 140.916 22.8174 141.75C22.5476 142.585 22.6119 143.492 22.9969 144.281Z" fill="#979AA0"/>
<path d="M35.7304 137.942C35.8947 138.277 36.0419 138.62 36.1715 138.969C36.2131 139.081 36.2516 139.192 36.2902 139.305C36.4747 139.857 36.6153 140.423 36.7106 140.997V141.021C36.7106 141.043 36.7185 141.065 36.7214 141.087C36.7284 141.131 36.7343 141.173 36.7412 141.217C36.7488 141.271 36.739 141.326 36.7135 141.374C36.6879 141.422 36.6478 141.461 36.5988 141.486C36.5744 141.497 36.5484 141.505 36.5217 141.509C36.4881 141.514 36.4539 141.512 36.4211 141.504C36.3882 141.495 36.3574 141.48 36.3303 141.46C36.3032 141.44 36.2804 141.414 36.2631 141.385C36.2459 141.356 36.2346 141.323 36.2299 141.29C35.9274 139.189 34.9888 137.232 33.5404 135.681C32.092 134.131 30.2032 133.061 28.1284 132.616C26.2033 132.199 24.1991 132.343 22.3532 133.03C22.0192 133.154 21.6917 133.294 21.3721 133.451C18.9865 134.627 17.1434 136.673 16.2234 139.168C15.3034 141.663 15.3768 144.416 16.4284 146.859C17.4801 149.302 19.4296 151.247 21.8743 152.293C24.3191 153.34 27.0724 153.407 29.5655 152.482C29.8951 152.36 30.2182 152.221 30.5338 152.066C31.8989 151.397 33.0997 150.436 34.051 149.251C34.0744 149.221 34.1041 149.197 34.138 149.181C34.191 149.153 34.2518 149.145 34.31 149.158C34.3683 149.171 34.4204 149.203 34.4575 149.249C34.4947 149.296 34.5146 149.354 34.5138 149.414C34.5131 149.473 34.4918 149.531 34.4535 149.576C33.4542 150.82 32.1933 151.828 30.7603 152.53C30.4293 152.692 30.0902 152.838 29.7445 152.967C27.1267 153.941 24.2348 153.871 21.6665 152.773C19.0982 151.675 17.05 149.633 15.9452 147.067C14.8403 144.502 14.7633 141.61 15.7301 138.99C16.6968 136.37 18.6334 134.221 21.1396 132.988C21.4752 132.823 21.8188 132.675 22.1692 132.545C24.696 131.609 27.4802 131.642 29.9838 132.639C32.4874 133.636 34.5327 135.525 35.7245 137.942H35.7304Z" fill="#979AA0"/>
<g opacity="0.3">
<path d="M65.1899 176.008C65.2282 176.085 65.2403 176.173 65.2244 176.257C65.2086 176.342 65.1655 176.419 65.1018 176.477C64.8516 176.707 64.5915 176.93 64.3284 177.144C64.2877 177.177 64.241 177.201 64.1908 177.216C64.1406 177.231 64.088 177.236 64.0359 177.231C63.9838 177.225 63.9333 177.21 63.8873 177.185C63.8412 177.16 63.8006 177.126 63.7676 177.085C63.7346 177.045 63.7099 176.998 63.695 176.948C63.6801 176.898 63.6752 176.845 63.6806 176.793C63.686 176.741 63.7016 176.69 63.7266 176.644C63.7515 176.598 63.7853 176.558 63.8259 176.525C64.0772 176.321 64.3205 176.107 64.5628 175.89C64.6012 175.854 64.6464 175.826 64.6957 175.808C64.745 175.79 64.7974 175.781 64.8499 175.784C64.9023 175.786 64.9538 175.799 65.0013 175.821C65.0488 175.844 65.0914 175.875 65.1266 175.914C65.1521 175.942 65.1734 175.974 65.1899 176.008Z" fill="#0D5DD6"/>
<path d="M62.7467 177.864C62.7908 177.952 62.8002 178.054 62.7731 178.149C62.746 178.244 62.6844 178.325 62.6003 178.377C62.1038 178.687 61.5918 178.971 61.0662 179.229C60.9555 179.283 60.8447 179.335 60.7329 179.388C60.636 179.429 60.5271 179.431 60.4286 179.394C60.33 179.357 60.2493 179.284 60.2028 179.19C60.1803 179.142 60.1677 179.091 60.1655 179.038C60.1633 178.985 60.1717 178.933 60.1901 178.883C60.2085 178.834 60.2367 178.789 60.2728 178.75C60.309 178.712 60.3524 178.681 60.4006 178.66C60.5074 178.61 60.6133 178.561 60.7191 178.507C61.22 178.262 61.7083 177.991 62.1819 177.695C62.2262 177.667 62.2757 177.648 62.3274 177.64C62.3791 177.631 62.432 177.633 62.4831 177.644C62.5342 177.656 62.5824 177.678 62.6249 177.709C62.6674 177.74 62.7035 177.778 62.7308 177.823C62.737 177.836 62.7423 177.85 62.7467 177.864ZM58.9882 179.608C58.9969 179.625 59.0042 179.643 59.01 179.661C59.0267 179.711 59.0334 179.763 59.0295 179.816C59.0257 179.868 59.0114 179.919 58.9876 179.966C58.9637 180.013 58.9308 180.055 58.8906 180.089C58.8505 180.123 58.804 180.148 58.7538 180.164C58.0799 180.382 57.3932 180.559 56.6975 180.692C56.6461 180.702 56.5932 180.702 56.5419 180.691C56.4906 180.681 56.4419 180.66 56.3986 180.631C56.3552 180.601 56.3181 180.564 56.2893 180.52C56.2605 180.476 56.2405 180.427 56.2307 180.376C56.2208 180.324 56.2212 180.272 56.2317 180.22C56.2423 180.169 56.2629 180.12 56.2922 180.077C56.3216 180.034 56.3593 179.996 56.403 179.968C56.4468 179.939 56.4957 179.919 56.5472 179.909C57.2104 179.781 57.8651 179.613 58.5075 179.405C58.5991 179.374 58.6989 179.377 58.788 179.415C58.8771 179.452 58.9494 179.521 58.9912 179.608H58.9882ZM54.9221 180.39C54.9445 180.437 54.9579 180.487 54.9617 180.539C54.9656 180.591 54.959 180.644 54.9424 180.694C54.9257 180.744 54.8993 180.79 54.8647 180.829C54.8301 180.869 54.7879 180.901 54.7407 180.924C54.6935 180.947 54.6422 180.96 54.5898 180.963C53.8825 181.01 53.1729 181.012 52.4653 180.97C52.4133 180.967 52.3625 180.954 52.3157 180.931C52.2689 180.908 52.227 180.877 52.1925 180.838C52.158 180.799 52.1314 180.753 52.1144 180.704C52.0974 180.655 52.0903 180.603 52.0934 180.551C52.0965 180.499 52.1098 180.448 52.1326 180.401C52.1554 180.354 52.1871 180.313 52.2261 180.278C52.265 180.244 52.3104 180.217 52.3595 180.2C52.4087 180.183 52.4608 180.176 52.5128 180.179C53.1871 180.219 53.8633 180.216 54.5374 180.172C54.6164 180.165 54.6956 180.182 54.7647 180.221C54.8338 180.26 54.8897 180.319 54.9251 180.39H54.9221ZM50.7878 180.148C50.8213 180.215 50.8356 180.289 50.8289 180.363C50.8222 180.437 50.7948 180.507 50.75 180.566C50.7051 180.625 50.6445 180.671 50.5751 180.697C50.5057 180.723 50.4304 180.73 50.3576 180.715C49.6605 180.587 48.9721 180.416 48.2963 180.203C48.2464 180.187 48.2001 180.161 48.16 180.128C48.1199 180.094 48.0868 180.053 48.0626 180.006C48.0385 179.96 48.0237 179.909 48.0192 179.857C48.0146 179.805 48.0204 179.752 48.0362 179.702C48.052 179.652 48.0775 179.606 48.1112 179.566C48.1448 179.526 48.1861 179.493 48.2326 179.469C48.2791 179.444 48.3298 179.43 48.382 179.425C48.4342 179.421 48.4868 179.426 48.5367 179.442C49.181 179.646 49.8374 179.809 50.502 179.931C50.5639 179.941 50.6225 179.967 50.6727 180.005C50.7229 180.042 50.7634 180.092 50.7908 180.148H50.7878ZM46.8375 178.904C46.8756 178.978 46.8895 179.062 46.8774 179.144C46.8652 179.226 46.8275 179.302 46.7696 179.362C46.7118 179.421 46.6367 179.461 46.5549 179.475C46.4732 179.49 46.389 179.478 46.3143 179.442C45.67 179.148 45.0444 178.815 44.4409 178.445C44.3963 178.418 44.3575 178.382 44.3268 178.34C44.296 178.297 44.2739 178.249 44.2617 178.198C44.2495 178.148 44.2474 178.095 44.2556 178.043C44.2638 177.991 44.2821 177.942 44.3094 177.897C44.3367 177.853 44.3726 177.814 44.4149 177.783C44.4573 177.752 44.5053 177.73 44.5561 177.718C44.607 177.706 44.6598 177.704 44.7115 177.712C44.7632 177.72 44.8127 177.738 44.8573 177.766C45.4336 178.119 46.0307 178.436 46.6456 178.716C46.7306 178.754 46.7996 178.82 46.8404 178.904H46.8375ZM43.3104 176.739C43.3549 176.821 43.3692 176.915 43.351 177.006C43.3328 177.097 43.2831 177.179 43.2108 177.237C43.1384 177.295 43.0479 177.326 42.9551 177.324C42.8623 177.322 42.7731 177.288 42.7032 177.227C42.15 176.784 41.6245 176.309 41.1295 175.802C41.093 175.765 41.0642 175.72 41.0447 175.672C41.0253 175.623 41.0157 175.571 41.0164 175.519C41.0171 175.466 41.0281 175.415 41.0488 175.366C41.0695 175.318 41.0994 175.275 41.137 175.238C41.1745 175.202 41.2189 175.173 41.2675 175.153C41.3162 175.134 41.3682 175.124 41.4206 175.125C41.473 175.126 41.5248 175.137 41.5729 175.157C41.6211 175.178 41.6647 175.208 41.7012 175.246C42.1724 175.729 42.6732 176.182 43.2007 176.603C43.2477 176.639 43.2861 176.686 43.3134 176.739H43.3104ZM40.4224 173.78C40.4776 173.869 40.4949 173.977 40.4706 174.08C40.4463 174.182 40.3824 174.27 40.2928 174.326C40.2032 174.381 40.0954 174.398 39.993 174.374C39.8906 174.35 39.802 174.286 39.7468 174.196C39.319 173.631 38.9259 173.041 38.5698 172.429C38.5438 172.383 38.5271 172.333 38.5205 172.281C38.5139 172.229 38.5176 172.176 38.5313 172.126C38.5451 172.075 38.5687 172.028 38.6008 171.987C38.6328 171.945 38.6727 171.911 38.7182 171.885C38.7636 171.859 38.8138 171.842 38.8657 171.835C38.9177 171.829 38.9704 171.832 39.0209 171.846C39.0714 171.86 39.1187 171.884 39.1601 171.916C39.2015 171.948 39.2362 171.988 39.2622 172.033C39.6009 172.616 39.9755 173.178 40.3838 173.714C40.3986 173.735 40.4115 173.757 40.4224 173.78ZM37.653 168.241C37.6631 168.262 37.6717 168.284 37.6787 168.306C37.8411 168.871 38.0339 169.426 38.2563 169.97C38.2889 170.053 38.3226 170.134 38.3552 170.214C38.3968 170.311 38.398 170.421 38.3587 170.519C38.3194 170.617 38.2427 170.696 38.1455 170.737C38.0974 170.758 38.0457 170.769 37.9933 170.769C37.941 170.77 37.8891 170.76 37.8405 170.741C37.7424 170.702 37.6639 170.625 37.6223 170.528C37.5857 170.443 37.5491 170.357 37.5145 170.27C37.2819 169.7 37.0802 169.118 36.9102 168.527C36.8914 168.478 36.8824 168.426 36.8837 168.374C36.8849 168.322 36.8965 168.271 36.9176 168.223C36.9387 168.175 36.969 168.132 37.0068 168.096C37.0445 168.06 37.089 168.032 37.1377 168.013C37.1863 167.995 37.2382 167.986 37.2903 167.987C37.3424 167.988 37.3938 168 37.4414 168.021C37.4891 168.042 37.5321 168.072 37.5681 168.11C37.604 168.148 37.6322 168.192 37.651 168.241H37.653Z" fill="#0D5DD6"/>
</g>
<g opacity="0.3">
<path d="M68.8256 155.977C68.8728 156.071 68.8805 156.181 68.847 156.281C68.8135 156.381 68.7416 156.464 68.647 156.511C68.5525 156.558 68.443 156.566 68.3428 156.533C68.2425 156.499 68.1597 156.427 68.1124 156.333C67.8123 155.74 67.4764 155.166 67.1065 154.615C67.0774 154.571 67.0571 154.522 67.0468 154.471C67.0365 154.42 67.0364 154.367 67.0466 154.315C67.0567 154.264 67.0769 154.215 67.1059 154.171C67.135 154.128 67.1723 154.09 67.2158 154.061C67.2594 154.032 67.3082 154.012 67.3595 154.001C67.4109 153.991 67.4638 153.991 67.5152 154.001C67.5666 154.011 67.6154 154.032 67.659 154.061C67.7026 154.09 67.7401 154.127 67.7692 154.171C68.1564 154.749 68.5084 155.351 68.8236 155.972L68.8256 155.977ZM69.6376 157.849C69.6435 157.862 69.6494 157.876 69.6544 157.889C69.8916 158.544 70.0898 159.212 70.2478 159.89C70.2598 159.941 70.2616 159.994 70.2531 160.046C70.2446 160.098 70.226 160.147 70.1983 160.192C70.1707 160.236 70.1345 160.275 70.092 160.306C70.0494 160.336 70.0012 160.358 69.9501 160.37C69.8991 160.382 69.8462 160.384 69.7944 160.375C69.7427 160.367 69.6932 160.348 69.6486 160.321C69.6041 160.293 69.5654 160.257 69.5348 160.214C69.5043 160.172 69.4824 160.123 69.4704 160.072C69.3193 159.425 69.1297 158.787 68.9027 158.161C68.8613 158.064 68.8601 157.955 68.8995 157.857C68.9389 157.759 69.0157 157.68 69.1129 157.639C69.2101 157.597 69.3197 157.596 69.4178 157.636C69.5158 157.675 69.5942 157.752 69.6356 157.849H69.6376ZM66.5645 152.592C66.6185 152.679 66.6363 152.784 66.6142 152.885C66.5921 152.985 66.5318 153.073 66.446 153.13C66.3603 153.186 66.2559 153.207 66.1549 153.189C66.0538 153.17 65.9642 153.112 65.9048 153.028C65.4698 152.526 65.0047 152.05 64.5122 151.604C64.4732 151.569 64.4416 151.526 64.4191 151.479C64.3965 151.431 64.3836 151.38 64.3809 151.327C64.3782 151.275 64.3859 151.223 64.4035 151.173C64.4212 151.124 64.4483 151.078 64.4835 151.039C64.5187 151 64.5613 150.968 64.6087 150.946C64.6561 150.923 64.7075 150.91 64.76 150.908C64.8124 150.905 64.8649 150.913 64.9143 150.93C64.9638 150.948 65.0093 150.975 65.0483 151.01C65.5642 151.479 66.0513 151.978 66.5072 152.505C66.5301 152.531 66.5494 152.561 66.5645 152.592ZM70.5594 161.812C70.5799 161.854 70.593 161.899 70.598 161.946C70.6739 162.639 70.707 163.336 70.6969 164.033C70.696 164.085 70.6849 164.137 70.6641 164.185C70.6433 164.233 70.6132 164.276 70.5756 164.313C70.538 164.349 70.4936 164.378 70.4449 164.397C70.3962 164.416 70.3442 164.426 70.2918 164.425C70.2395 164.424 70.1878 164.413 70.1398 164.392C70.0918 164.371 70.0483 164.341 70.0119 164.303C69.9383 164.227 69.898 164.125 69.8997 164.02C69.9102 163.355 69.8802 162.691 69.8097 162.03C69.7944 161.934 69.8145 161.837 69.8663 161.755C69.918 161.673 69.9979 161.614 70.0907 161.587C70.1835 161.56 70.2829 161.568 70.3702 161.61C70.4574 161.651 70.5265 161.723 70.5643 161.812H70.5594ZM63.5419 149.853C63.5846 149.933 63.5988 150.025 63.5822 150.113C63.5656 150.202 63.5191 150.282 63.4505 150.341C63.3819 150.4 63.2953 150.433 63.205 150.436C63.1148 150.438 63.0264 150.41 62.9544 150.356C62.4115 149.973 61.8461 149.622 61.2611 149.307C61.168 149.257 61.0986 149.172 61.0682 149.071C61.0378 148.97 61.0488 148.86 61.0989 148.767C61.149 148.674 61.2341 148.605 61.3354 148.574C61.4366 148.544 61.5458 148.555 61.639 148.605C62.2525 148.935 62.8454 149.302 63.4143 149.704C63.4693 149.743 63.5132 149.796 63.5419 149.857V149.853ZM59.9566 147.923C59.9936 147.995 60.0077 148.076 59.9969 148.156C59.9862 148.237 59.951 148.312 59.8962 148.371C59.8414 148.431 59.7696 148.472 59.6906 148.49C59.6115 148.507 59.529 148.5 59.4541 148.47C58.8348 148.228 58.2017 148.023 57.5581 147.856C57.4556 147.83 57.3678 147.764 57.3139 147.673C57.26 147.582 57.2445 147.474 57.2707 147.371C57.297 147.269 57.3628 147.181 57.4538 147.127C57.5448 147.073 57.6534 147.058 57.7559 147.084C58.4304 147.258 59.0939 147.473 59.7429 147.727C59.837 147.764 59.9135 147.835 59.9566 147.927V147.923ZM56.0121 146.906C56.0472 146.976 56.06 147.055 56.0487 147.133C56.0423 147.185 56.0255 147.236 55.9995 147.281C55.9735 147.327 55.9386 147.366 55.897 147.398C55.8554 147.43 55.8079 147.454 55.7572 147.467C55.7065 147.481 55.6536 147.484 55.6017 147.476C54.9428 147.389 54.2792 147.342 53.6146 147.336C53.5089 147.335 53.4079 147.292 53.3339 147.216C53.2599 147.141 53.2189 147.039 53.22 146.933C53.221 146.828 53.264 146.727 53.3395 146.653C53.415 146.579 53.5168 146.538 53.6225 146.539C54.3196 146.545 55.0155 146.594 55.7065 146.686C55.7721 146.695 55.8344 146.72 55.8878 146.759C55.9412 146.798 55.9839 146.85 56.0121 146.91V146.906Z" fill="#0D5DD6"/>
<path d="M70.493 165.908C70.5277 165.98 70.5404 166.06 70.5296 166.139C70.4822 166.476 70.4248 166.815 70.3585 167.144C70.3482 167.195 70.3279 167.244 70.2987 167.288C70.2695 167.331 70.232 167.369 70.1884 167.398C70.1447 167.427 70.0958 167.447 70.0444 167.457C69.993 167.467 69.9401 167.467 69.8887 167.457C69.8374 167.446 69.7885 167.426 69.745 167.397C69.7015 167.368 69.6642 167.33 69.6352 167.286C69.6061 167.243 69.586 167.194 69.5759 167.142C69.5658 167.091 69.5659 167.038 69.5762 166.987C69.6395 166.673 69.6939 166.351 69.7394 166.028C69.7487 165.942 69.7862 165.861 69.8459 165.798C69.9057 165.736 69.9845 165.694 70.0702 165.68C70.1558 165.667 70.2436 165.681 70.32 165.723C70.3964 165.764 70.4572 165.829 70.493 165.908Z" fill="#0D5DD6"/>
</g>
<path d="M65.7207 167.88C65.7391 167.841 65.7445 167.798 65.7361 167.756C65.7278 167.714 65.706 167.676 65.6742 167.647L63.8939 165.949C64.1254 164.81 64.1702 163.641 64.0264 162.488L65.9245 160.929C65.9573 160.903 65.981 160.867 65.992 160.826C66.003 160.785 66.0008 160.742 65.9858 160.703L64.9611 157.934C64.9468 157.893 64.9198 157.859 64.8842 157.835C64.8485 157.811 64.8061 157.8 64.7633 157.802L62.3074 157.859C61.6644 156.888 60.8672 156.029 59.9475 155.316L60.1888 152.87C60.1928 152.828 60.1837 152.786 60.1628 152.749C60.1419 152.713 60.1102 152.684 60.0721 152.666L57.3927 151.437C57.3547 151.418 57.3118 151.413 57.2704 151.421C57.2289 151.428 57.191 151.449 57.1623 151.48L55.465 153.26C54.3259 153.029 53.1567 152.984 52.0033 153.129L50.4495 151.229C50.4232 151.196 50.387 151.172 50.3463 151.161C50.3055 151.15 50.2623 151.152 50.223 151.168L47.4585 152.192C47.4181 152.207 47.3835 152.234 47.3597 152.269C47.336 152.305 47.3245 152.347 47.327 152.39L47.3833 154.846C46.413 155.489 45.5541 156.286 44.8404 157.206L42.3945 156.966C42.3527 156.961 42.3105 156.97 42.274 156.991C42.2375 157.012 42.2087 157.044 42.1917 157.082L40.9613 159.762C40.9439 159.8 40.9389 159.843 40.9468 159.884C40.9548 159.925 40.9754 159.963 41.0058 159.992L42.7861 161.689C42.5546 162.828 42.5102 163.998 42.6546 165.151L40.7496 166.711C40.7173 166.738 40.6941 166.774 40.6831 166.814C40.6721 166.855 40.674 166.898 40.6883 166.937L41.713 169.707C41.7273 169.747 41.7543 169.782 41.79 169.806C41.8256 169.829 41.868 169.841 41.9108 169.838L44.3667 169.782C45.01 170.752 45.8071 171.611 46.7266 172.325L46.4863 174.769C46.4827 174.81 46.492 174.851 46.513 174.886C46.5339 174.922 46.5653 174.95 46.603 174.967L49.2824 176.197C49.3205 176.215 49.3634 176.221 49.4049 176.213C49.4464 176.205 49.4842 176.184 49.5128 176.153L51.2111 174.372C52.3502 174.604 53.5194 174.648 54.6728 174.504L56.2316 176.403C56.2578 176.436 56.2938 176.459 56.3343 176.47C56.3749 176.481 56.4179 176.479 56.4571 176.464L59.2215 175.439C59.2619 175.425 59.2966 175.398 59.3203 175.362C59.344 175.327 59.3555 175.284 59.3531 175.242L59.2967 172.786C60.2668 172.142 61.1257 171.345 61.8396 170.426L64.2856 170.667C64.3274 170.671 64.3695 170.662 64.406 170.641C64.4424 170.62 64.4716 170.589 64.4893 170.55L65.7207 167.88Z" fill="#0D5DD6"/>
<path d="M56.0528 162.497C56.3948 163.198 56.4515 164.005 56.2111 164.747C55.9706 165.49 55.4517 166.11 54.7634 166.478C54.0751 166.846 53.271 166.932 52.5201 166.72C51.7693 166.507 51.1301 166.011 50.737 165.337C50.3439 164.663 50.2274 163.863 50.4121 163.104C50.5968 162.346 51.0682 161.689 51.7273 161.271C52.3864 160.853 53.1819 160.707 53.9464 160.864C54.711 161.02 55.3852 161.467 55.8273 162.11C55.9117 162.233 55.987 162.362 56.0528 162.497ZM51.3488 164.795C51.3962 164.893 51.4511 164.987 51.513 165.077C51.6781 165.317 51.889 165.523 52.1335 165.682C52.378 165.84 52.6515 165.949 52.9381 166.003C53.2248 166.056 53.5192 166.052 53.8044 165.991C54.0896 165.931 54.36 165.814 54.6003 165.649C54.8406 165.484 55.046 165.273 55.2048 165.029C55.3636 164.784 55.4727 164.511 55.5258 164.224C55.579 163.937 55.5751 163.643 55.5145 163.358C55.4539 163.073 55.3377 162.802 55.1725 162.562C54.8556 162.099 54.3751 161.773 53.8277 161.651C53.2804 161.528 52.7069 161.617 52.2226 161.9C51.7384 162.183 51.3793 162.639 51.2177 163.176C51.0561 163.713 51.104 164.292 51.3517 164.795H51.3488Z" fill="#979AA0"/>
<path d="M60.0246 160.484C60.3628 161.173 60.5942 161.909 60.7111 162.668L60.7209 162.736C60.736 162.841 60.7088 162.947 60.6453 163.032C60.5818 163.117 60.4871 163.173 60.3822 163.188C60.2773 163.203 60.1706 163.176 60.0858 163.113C60.0009 163.049 59.9448 162.954 59.9297 162.85C59.8611 162.377 59.7427 161.913 59.5766 161.465L59.5489 161.391C59.1552 160.35 58.5067 159.425 57.6627 158.7C57.2025 158.307 56.6915 157.977 56.1435 157.72L56.1297 157.714L56.0881 157.695C54.9452 157.171 53.6781 156.978 52.4312 157.139C51.1843 157.3 50.0076 157.808 49.0352 158.605C48.0628 159.402 47.3337 160.456 46.931 161.647C46.5282 162.838 46.4679 164.118 46.7571 165.342C47.0462 166.565 47.6731 167.683 48.5664 168.568C49.4597 169.453 50.5834 170.069 51.8097 170.346C53.036 170.624 54.3155 170.551 55.5026 170.137C56.6897 169.723 57.7366 168.984 58.5242 168.004C58.5605 167.958 58.6069 167.92 58.6597 167.895C58.7412 167.851 58.8354 167.837 58.9261 167.856C59.0168 167.874 59.0981 167.924 59.1559 167.996C59.2138 168.068 59.2445 168.158 59.2427 168.251C59.241 168.343 59.2069 168.432 59.1463 168.502C58.4578 169.36 57.5886 170.056 56.6005 170.541C56.3718 170.651 56.1378 170.75 55.8992 170.837C54.0975 171.488 52.1152 171.427 50.3573 170.665C48.5994 169.904 47.1986 168.5 46.4411 166.74C45.6835 164.98 45.6264 162.998 46.2813 161.198C46.9362 159.397 48.2537 157.915 49.9648 157.054C51.754 156.175 53.8187 156.042 55.7057 156.684C57.5928 157.326 59.1479 158.691 60.0296 160.479L60.0246 160.484Z" fill="#979AA0"/>
<path d="M91.0635 64.4855C90.7956 64.0978 90.6088 64.1379 90.3728 64.1887C90.2057 64.2246 90.0139 64.2659 89.751 64.1644C89.5162 64.073 89.3667 63.8796 89.2114 63.6789C89.1146 63.5536 89.0155 63.4255 88.8921 63.3175M91.0635 64.4855L91.0132 64.5091C91.0139 64.5105 91.0145 64.5119 91.0152 64.5133M91.0635 64.4855C91.0962 64.5553 91.1252 64.6239 91.1533 64.6902C91.2832 64.9975 91.3928 65.257 91.7659 65.3725L94.9818 68.4071C94.8094 68.3107 94.6904 68.2161 94.6076 68.116C94.5241 68.0151 94.4796 67.9112 94.4527 67.7998C94.4296 67.704 94.4192 67.6011 94.4082 67.4916C94.4066 67.476 94.405 67.4602 94.4033 67.4444C94.3906 67.3208 94.3744 67.1852 94.3375 67.0305C94.2181 66.943 94.0743 66.8874 93.9207 66.8391C93.8732 66.8242 93.8243 66.8099 93.7749 66.7954C93.6613 66.7621 93.5457 66.7283 93.4405 66.6851C93.2875 66.6224 93.1465 66.5365 93.0485 66.3939C92.9536 66.2559 92.9035 66.0714 92.9133 65.8182C92.7304 65.6596 92.6179 65.5717 92.5401 65.5243C92.4625 65.477 92.4255 65.4737 92.3902 65.4774C92.3751 65.479 92.361 65.4817 92.3429 65.4853C92.3341 65.487 92.3243 65.4889 92.313 65.491C92.2806 65.4969 92.2419 65.5025 92.1927 65.5034C92.0946 65.5054 91.9591 65.489 91.7498 65.4256L91.7494 65.4255C91.5082 65.3508 91.3685 65.2178 91.2666 65.053C91.2165 64.9719 91.1756 64.8834 91.1364 64.7923C91.1247 64.7652 91.1132 64.7381 91.1017 64.7108C91.0744 64.6462 91.0467 64.5806 91.0152 64.5133M91.0635 64.4855L91.0178 64.5171C91.0169 64.5158 91.0161 64.5145 91.0152 64.5133M91.0152 64.5133C90.9048 64.3544 90.8132 64.277 90.7321 64.2411C90.6517 64.2055 90.5742 64.2073 90.4829 64.2231C90.4525 64.2284 90.4207 64.2352 90.3873 64.2425C90.2195 64.2788 90.0105 64.3241 89.731 64.2162L89.7309 64.2161C89.5259 64.1363 89.3838 63.9849 89.2557 63.8254C89.2249 63.7871 89.195 63.7485 89.1653 63.7101C89.0731 63.5909 88.9824 63.4736 88.8703 63.3724M88.8703 63.3724C88.8769 63.3726 88.8836 63.3728 88.8903 63.373L88.8921 63.3175M88.8703 63.3724C88.8654 63.368 88.8605 63.3636 88.8555 63.3593L88.8921 63.3175M88.8703 63.3724C88.5647 63.3646 88.3655 63.3975 88.2205 63.4349C88.158 63.4511 88.1054 63.4681 88.0569 63.4837C88.0475 63.4868 88.0383 63.4897 88.0291 63.4927C87.9739 63.5103 87.9214 63.5261 87.8679 63.5327C87.7553 63.5465 87.648 63.519 87.4927 63.4215C87.342 63.3269 87.1397 63.1625 86.835 62.8944M88.8921 63.3175C88.4349 63.3033 88.2036 63.378 88.0395 63.431C87.7412 63.5274 87.665 63.552 86.8572 62.8399M86.8572 62.8399L86.8541 62.8953C86.8477 62.895 86.8413 62.8947 86.835 62.8944M86.8572 62.8399C86.4638 62.8184 86.3053 62.9201 86.1498 63.0198C86.015 63.1062 85.8824 63.1913 85.6009 63.1931C85.3226 63.195 85.1992 63.1105 85.0717 63.0232C84.9216 62.9205 84.7658 62.8139 84.3446 62.8399M86.8572 62.8399L86.8205 62.8815C86.8253 62.8858 86.8302 62.8901 86.835 62.8944M86.835 62.8944C86.6664 62.8868 86.546 62.9031 86.4519 62.9308C86.3545 62.9596 86.2824 63.0013 86.2106 63.0468C86.2006 63.0532 86.1905 63.0596 86.1804 63.0661C86.1182 63.106 86.0519 63.1486 85.9706 63.1819C85.8747 63.2213 85.7592 63.2476 85.6013 63.2486C85.4431 63.2497 85.3297 63.2239 85.2365 63.1838C85.1597 63.1508 85.0974 63.1082 85.0393 63.0684C85.0283 63.0608 85.0173 63.0533 85.0065 63.046C84.9379 62.9999 84.8676 62.9575 84.7687 62.9286C84.6727 62.9006 84.5468 62.8846 84.367 62.8942M84.3446 62.8399L84.3814 62.8815C84.3765 62.8858 84.3717 62.89 84.367 62.8942M84.3446 62.8399C83.542 63.5487 83.4652 63.5249 83.1586 63.4298C82.9929 63.3785 82.7602 63.3063 82.3097 63.3175M84.3446 62.8399L84.3481 62.8953C84.3544 62.8949 84.3607 62.8945 84.367 62.8942M84.367 62.8942C84.0662 63.1594 83.8657 63.3229 83.7153 63.4176C83.5606 63.515 83.4527 63.5436 83.3392 63.5312C83.2851 63.5254 83.2319 63.5104 83.1758 63.4932C83.1646 63.4898 83.1532 63.4863 83.1416 63.4827C83.0941 63.468 83.0427 63.452 82.9821 63.4367C82.8357 63.3997 82.6356 63.3665 82.3305 63.3726M82.3097 63.3175C82.1766 63.4277 82.0727 63.5617 81.9713 63.6926C81.8065 63.905 81.6484 64.109 81.3826 64.1885C81.1491 64.2579 80.9751 64.2213 80.8231 64.1893C80.5885 64.1399 80.4063 64.1015 80.1383 64.4815L82.3097 63.3175ZM82.3097 63.3175L82.3451 63.3603C82.3402 63.3644 82.3353 63.3685 82.3305 63.3726M82.3097 63.3175L82.3111 63.373C82.3176 63.3729 82.3241 63.3727 82.3305 63.3726M82.3097 63.3175L80.1665 64.537M82.3305 63.3726C82.2096 63.4759 82.1145 63.5985 82.0178 63.7232C81.9855 63.7649 81.953 63.8067 81.9193 63.8482C81.7832 64.0159 81.6298 64.1725 81.3985 64.2417L81.3984 64.2417C81.15 64.3155 80.9593 64.2751 80.8064 64.2427C80.7669 64.2343 80.7299 64.2265 80.6951 64.2213C80.61 64.2086 80.5364 64.2101 80.4592 64.2466C80.3804 64.2838 80.2913 64.3608 80.1837 64.5135L80.1671 64.537H80.1665M80.1665 64.537C80.1704 64.528 80.1744 64.5189 80.1784 64.5098C80.1793 64.508 80.1801 64.5061 80.1809 64.5043L80.1526 64.4915L80.1383 64.4851L80.1303 64.4815V64.537H80.1383H80.1665ZM80.1665 64.537C80.1373 64.6053 80.1135 64.6716 80.0905 64.7366C80.089 64.7408 80.0875 64.745 80.0861 64.7492C80.0612 64.8196 80.0366 64.8892 80.0068 64.9553C79.9427 65.0978 79.8539 65.2261 79.6817 65.3315L79.6816 65.3316C79.4693 65.4611 79.2798 65.484 79.0951 65.4932C79.0665 65.4946 79.0383 65.4957 79.0102 65.4968C78.8611 65.5027 78.7156 65.5084 78.5524 65.5598M80.1665 64.537L78.5629 65.5439C78.5594 65.5492 78.5559 65.5545 78.5524 65.5598M78.5524 65.5598C78.4273 65.7518 78.3809 65.9166 78.3372 66.0718C78.3319 66.0907 78.3267 66.1093 78.3213 66.1279C78.2701 66.3057 78.2099 66.4722 78.0185 66.6313C77.8353 66.7836 77.6521 66.8312 77.4653 66.8797C77.4589 66.8814 77.4525 66.883 77.4461 66.8847C77.2572 66.9338 77.0585 66.9886 76.8269 67.1523M78.5524 65.5598L76.8269 67.1523M76.8269 67.1523C76.7869 67.2946 76.7697 67.4177 76.7574 67.5292C76.7549 67.5522 76.7526 67.5749 76.7503 67.5974C76.7411 67.6869 76.7324 67.7723 76.7135 67.8522C76.6893 67.9547 76.648 68.0512 76.5674 68.147C76.4876 68.2419 76.3712 68.3338 76.2003 68.431L76.2002 68.431C76.0559 68.5128 75.932 68.5663 75.8296 68.6106C75.8231 68.6134 75.8167 68.6162 75.8104 68.6189C75.7026 68.6656 75.6253 68.7009 75.5675 68.7486C75.4603 68.8373 75.4075 68.9805 75.4256 69.3998L75.426 69.4089L75.4252 69.4088C75.4024 69.5988 75.3524 69.7456 75.2823 69.8656C75.2121 69.9855 75.1234 70.0761 75.0265 70.1555C74.9606 70.2096 74.8889 70.2601 74.8169 70.3106C74.785 70.3331 74.753 70.3556 74.7214 70.3784C74.6231 70.4497 74.525 70.5272 74.4321 70.6261C74.4766 71.1581 74.5569 71.6866 74.6724 72.2079C75.9384 72.93 78.1228 73.3276 80.3739 73.5437C82.6345 73.7607 84.9513 73.7938 86.4478 73.7938H86.4481C88.5461 73.8064 90.6415 73.6429 92.7122 73.3049L92.7127 73.3048C93.6377 73.1639 94.5469 72.9336 95.4274 72.6172C95.7348 72.5036 95.9723 72.4115 96.1567 72.3141C96.3403 72.2171 96.4672 72.1168 96.5556 71.989C96.6441 71.8612 96.6976 71.7008 96.7256 71.4777C96.7531 71.2578 96.7554 70.9807 96.7441 70.6192L76.8269 67.1523Z" fill="#FFDB21" stroke="#000233" stroke-width="0.110989"/>
<path fill-rule="evenodd" clip-rule="evenodd" d="M85.8576 81.9287C86.2871 81.5675 88.6672 80.5802 89.4097 80.2029C96.7506 76.3979 94.5672 73.6526 95.8315 73.1148C96.1556 73.0018 96.4721 72.8677 96.7787 72.7134C97.0276 72.573 97.3446 72.2679 97.5012 72.2037C98.3039 73.0265 97.0998 75.3143 96.5178 76.133C95.763 77.1951 94.822 78.1116 93.7404 78.8382C91.3625 80.415 88.6747 81.4647 85.8576 81.9167V81.9287ZM72.6969 71.8304C74.0672 73.7775 75.736 75.4964 77.6417 76.9237C81.563 79.5085 83.5779 79.2035 84.6856 79.7333C82.9277 80.2992 78.9582 78.9707 77.3969 78.1479C76.0168 77.3657 74.7692 76.37 73.7003 75.1979C73.3559 74.8031 72.983 74.4342 72.5845 74.0941L72.5604 75.2019C73.03 75.547 73.8247 76.3538 74.3264 76.8073C83.3531 84.7302 90.1803 78.4128 91.8139 78.5653C90.4853 79.653 87.15 80.9936 85.3639 81.5836C84.9626 81.72 83.1885 82.1013 83.0481 82.31C87.1942 82.5388 93.1745 80.4156 95.9439 77.1405C97.9266 74.8005 97.3125 74.648 98.0149 73.1268C98.332 73.3115 98.4163 73.5723 98.629 73.8372C98.6691 72.5408 98.8658 71.2926 97.9788 70.8872C97.3808 70.6103 97.1761 70.823 96.7346 70.3052C96.4255 69.944 96.1887 69.9641 95.8074 69.4222C95.9158 70.225 96.3854 70.1607 96.7948 70.6464C96.8429 72.1314 96.6703 72.2519 95.4422 72.7174C94.5626 73.026 93.6553 73.2491 92.733 73.3837C90.6593 73.7222 88.5608 73.886 86.4597 73.8734C83.4615 73.8734 77.1842 73.753 74.6355 72.2679C74.5148 71.7285 74.4316 71.1813 74.3867 70.6303C74.788 70.1728 75.2937 70.1487 75.382 69.4263C75.0569 69.8999 75.1653 69.7634 74.6957 70.0724C74.2261 70.3815 74.6435 70.4377 73.9371 70.6464C73.5357 70.7668 72.0828 71.2645 72.6969 71.8786V71.8304Z" fill="#0A0C33"/>
<path fill-rule="evenodd" clip-rule="evenodd" d="M72.5685 75.1858L72.7893 76.9317L73.8448 78.6215C74.2462 78.6215 74.2823 78.8181 74.5794 79.1272L76.4537 80.9133C79.48 83.2131 82.4742 85.248 86.6363 85.3283L86.5801 85.6574C86.3674 86.2313 85.1191 86.4401 84.5733 86.6247C83.8085 86.9103 83.0121 87.103 82.2012 87.1986C82.2012 87.2227 82.2494 87.2227 82.2615 87.2588C82.3056 87.4033 82.7631 87.4836 82.9237 87.5157C83.8062 87.7104 84.7095 87.7953 85.6128 87.7686C85.9179 87.4515 96.6303 80.7246 97.1721 80.544C97.5293 80.1065 98.1153 78.2402 98.2598 77.6221C98.5465 76.3697 98.6653 75.0848 98.613 73.8011C98.3842 73.5362 98.316 73.2753 97.9989 73.0907C97.2965 74.6279 97.9106 74.7804 95.9279 77.1043C93.1585 80.3795 87.1782 82.5027 83.0321 82.2739C83.1725 82.0652 84.9426 81.6839 85.3479 81.5474C87.134 80.9574 90.4693 79.6169 91.7978 78.5292C90.1643 78.3726 83.3371 84.6941 74.3104 76.7712C73.8087 76.3337 73.014 75.527 72.5444 75.1657L72.5685 75.1858Z" fill="#0401BB"/>
<path fill-rule="evenodd" clip-rule="evenodd" d="M80.1301 64.4815C80.5676 63.8554 80.7803 64.3651 81.3743 64.1885C81.8038 64.06 81.9523 63.6065 82.3015 63.3175C83.5859 63.2854 83.1042 63.9316 84.3364 62.8399C85.1151 62.7998 84.9585 63.1931 85.5927 63.1931C86.2268 63.1931 86.1145 62.7917 86.849 62.8399C88.1012 63.9437 87.5955 63.2774 88.8839 63.3175C89.205 63.5985 89.3615 64.0159 89.7428 64.1644C90.3769 64.4092 90.5977 63.8232 91.0552 64.4855C91.4566 64.0841 92.2593 63.9156 92.8373 63.7069C93.4442 63.4487 94.0677 63.2315 94.7036 63.0566L92.9577 65.7939C92.9015 66.8455 93.8527 66.6248 94.3745 66.998C94.6153 66.5967 93.9731 67.0422 94.6635 66.0027C94.9123 65.6334 95.1411 65.2641 95.3819 64.8869C95.8515 64.1484 96.3613 63.4098 96.8148 62.6633C97.3406 61.8004 97.3767 62.0091 99.1548 61.3428C99.6043 61.1742 100.058 61.0137 100.491 60.8451L101.8 60.2631L101.274 58.8624L98.6571 59.8497L99.9535 57.6703L98.7052 56.9158C98.3039 57.2529 97.4289 58.7701 97.0998 59.2999C96.273 60.6123 96.5098 60.6404 95.0528 61.2023C93.2668 61.8887 91.0151 62.8319 89.2331 63.3617C88.4303 62.4947 88.3902 63.466 87.467 63.0566C87.1781 62.9282 87.0416 62.6272 86.7887 62.5509C86.3472 62.4185 86.3111 62.7075 85.8937 62.8399C84.9746 63.1329 84.8542 62.1616 84.1839 62.6553C82.8754 63.6145 83.5016 62.9162 82.3216 63.0205C81.8158 63.3336 81.9724 63.8232 81.2459 63.8915C81.0372 63.9156 79.6886 63.7831 80.1181 64.4654L80.1301 64.4815Z" fill="#000233"/>
<path fill-rule="evenodd" clip-rule="evenodd" d="M85.629 87.7606C88.0733 87.865 90.8227 86.8937 92.7693 85.5772C94.3025 84.5377 96.5381 82.3382 97.1843 80.524C96.6424 80.7167 85.9461 87.4436 85.625 87.7486L85.629 87.7606Z" fill="#000233"/>
<path fill-rule="evenodd" clip-rule="evenodd" d="M85.8577 81.9287C88.6748 81.4767 91.3626 80.427 93.7405 78.8502C94.822 78.1236 95.763 77.2071 96.5179 76.1451C97.0798 75.3423 98.304 73.0385 97.5012 72.2157C97.3447 72.2799 97.0276 72.585 96.7788 72.7254C96.4721 72.8797 96.1557 73.0138 95.8316 73.1268C94.5673 73.6646 96.7507 76.41 89.4097 80.2149C88.6873 80.5922 86.2871 81.5795 85.8577 81.9407V81.9287Z" fill="#E9E301"/>
<path fill-rule="evenodd" clip-rule="evenodd" d="M72.5686 74.0781C72.967 74.4182 73.34 74.7871 73.6844 75.1819C74.7548 76.3529 76.0037 77.3472 77.3849 78.1279C78.9462 78.9507 82.9157 80.2792 84.6737 79.7133C83.5659 79.1995 81.5511 79.5046 77.6298 76.9037C75.724 75.4764 74.0553 73.7576 72.685 71.8104C72.3599 72.1757 72.5565 73.5764 72.5726 74.0581L72.5686 74.0781Z" fill="#E9E301"/>
<path fill-rule="evenodd" clip-rule="evenodd" d="M85.7734 85.7538L86.5761 85.6695L86.6323 85.3404C82.4501 85.2682 79.476 83.2332 76.4497 80.9254L74.5753 79.1273C74.2783 78.8182 74.2382 78.6216 73.8408 78.6216C74.7318 80.0464 73.901 79.2397 75.651 81.5194C76.4085 82.3763 77.2795 83.1257 78.2398 83.747C80.6921 85.4006 82.7511 85.822 85.7774 85.7337L85.7734 85.7538Z" fill="#0603FC"/>
<path fill-rule="evenodd" clip-rule="evenodd" d="M77.429 84.7342C78.7575 85.0714 79.6004 85.6895 81.2139 85.9584C82.2655 86.135 84.8703 86.2032 85.7734 85.7336C82.7471 85.8219 80.6881 85.4005 78.2358 83.7469C77.2755 83.1256 76.4045 82.3762 75.647 81.5193C73.897 79.2396 74.7278 80.0463 73.8368 78.6215L72.7812 76.9237C73.0341 79.2235 74.3185 81.4792 75.7634 83.2251C76.1469 83.7959 76.6511 84.2754 77.2404 84.6299L77.429 84.7262V84.7342Z" fill="#000233"/>
<path fill-rule="evenodd" clip-rule="evenodd" d="M82.2012 87.1988C83.0015 87.098 83.787 86.9027 84.5412 86.6168C85.095 86.4321 86.3433 86.2154 86.548 85.6495L85.7452 85.7338C84.8422 86.2034 82.2373 86.1351 81.1857 85.9585C79.5803 85.6896 78.7294 85.0715 77.4009 84.7344C77.4691 85.0715 77.8705 85.2802 78.3722 85.6094C79.2391 86.1753 81.3262 87.283 82.1891 87.2148L82.2012 87.1988Z" fill="#EAE305"/>
<path fill-rule="evenodd" clip-rule="evenodd" d="M104.088 57.9834L104.465 59.1875C104.866 59.4324 105.846 58.8624 106.311 58.6898C107.014 58.4289 107.917 58.3567 107.668 57.4175C107.347 56.3017 106.131 57.1004 104.533 57.6784C104.132 57.8309 104.18 57.7306 104.088 57.9995V57.9834Z" fill="#03315C"/>
<path fill-rule="evenodd" clip-rule="evenodd" d="M100.263 54.4033L101.511 55.1779C101.848 55.0334 102.426 53.9417 102.667 53.5724C103.024 53.0306 103.646 52.3683 102.912 51.8345C102.053 51.2405 101.756 52.0673 101.378 52.6654C101.001 53.2634 100.62 53.8975 100.263 54.3952V54.4033Z" fill="#03315C"/>
<path fill-rule="evenodd" clip-rule="evenodd" d="M99.1467 56.3781L100.327 57.0804C100.712 56.7419 100.979 56.2891 101.089 55.788L99.9856 55.0776C99.6765 55.2101 99.1025 56.0048 99.1467 56.3781Z" fill="#000233"/>
<path fill-rule="evenodd" clip-rule="evenodd" d="M101.98 58.6859L102.426 60.0746L103.859 59.5408L103.437 58.2283C103.036 58.1079 102.281 58.441 101.98 58.6859Z" fill="#000233"/>
<path fill-rule="evenodd" clip-rule="evenodd" d="M99.9856 55.0776L101.089 55.788C101.41 55.6556 101.435 55.5392 101.491 55.1779L100.263 54.4033C100.066 54.7164 99.9695 54.7324 99.9896 55.0776H99.9856Z" fill="#FDF866"/>
<path fill-rule="evenodd" clip-rule="evenodd" d="M101.274 58.8626L101.8 60.2473C101.912 60.2615 102.025 60.2521 102.133 60.2196C102.241 60.1871 102.341 60.1323 102.426 60.0586L101.981 58.6699L101.274 58.8626Z" fill="#BFBB4D"/>
<path fill-rule="evenodd" clip-rule="evenodd" d="M103.437 58.2283L103.859 59.5407C104.2 59.4765 104.401 59.4645 104.465 59.1715L104.087 57.9674C103.815 57.867 103.51 57.9353 103.437 58.2122V58.2283Z" fill="#FDF866"/>
<path fill-rule="evenodd" clip-rule="evenodd" d="M98.7214 56.9158L99.9697 57.6703L100.327 57.0803L99.1469 56.3779C98.878 56.4261 98.8017 56.6147 98.7214 56.9158Z" fill="#FDF866"/>
<path d="M80.6375 68.4498L81.1868 67.9005" stroke="#0A0C33" stroke-width="0.221977" stroke-linecap="round"/>
<path d="M81.5227 71.4993L82.0721 70.9499" stroke="#0A0C33" stroke-width="0.221977" stroke-linecap="round"/>
<path d="M85.0742 69.6124L85.6236 69.0631" stroke="#0A0C33" stroke-width="0.221977" stroke-linecap="round"/>
<path d="M86.6279 65.2838L87.1773 64.7344" stroke="#0A0C33" stroke-width="0.221977" stroke-linecap="round"/>
<path d="M91.8445 70.9443L92.3938 70.395" stroke="#0A0C33" stroke-width="0.221977" stroke-linecap="round"/>
<path d="M83.6316 66.6157C83.931 66.509 84.0488 66.3851 84.181 66.0664" stroke="#0A0C33" stroke-width="0.221977" stroke-linecap="round"/>
<path d="M76.7502 69.8344C77.0496 69.7276 77.1674 69.6037 77.2996 69.285" stroke="#0A0C33" stroke-width="0.221977" stroke-linecap="round"/>
<path d="M88.5149 67.8367C88.8143 67.7299 88.9321 67.6061 89.0643 67.2873" stroke="#0A0C33" stroke-width="0.221977" stroke-linecap="round"/>
<path d="M88.7371 72.3871C89.0365 72.2803 89.1542 72.1565 89.2864 71.8377" stroke="#0A0C33" stroke-width="0.221977" stroke-linecap="round"/>
</g>
<defs>
<linearGradient id="paint0_linear_127_553" x1="146.808" y1="6.26331" x2="146.808" y2="128.268" gradientUnits="userSpaceOnUse">
<stop stop-color="#0D5FDB"/>
<stop offset="1" stop-color="#14386D"/>
</linearGradient>
<linearGradient id="paint1_linear_127_553" x1="145.111" y1="19.127" x2="145.111" y2="117.221" gradientUnits="userSpaceOnUse">
<stop stop-color="#0A1A29"/>
<stop offset="1" stop-color="#000103"/>
</linearGradient>
<linearGradient id="paint2_linear_127_553" x1="157.11" y1="30.0889" x2="157.11" y2="128.232" gradientUnits="userSpaceOnUse">
<stop stop-color="#0A1A29"/>
<stop offset="1" stop-color="#000103"/>
</linearGradient>
<linearGradient id="paint3_linear_127_553" x1="88.2508" y1="53.9769" x2="88.2508" y2="144.535" gradientUnits="userSpaceOnUse">
<stop stop-color="#0D5FDB"/>
<stop offset="1" stop-color="#14386D"/>
</linearGradient>
<linearGradient id="paint4_linear_127_553" x1="87.7701" y1="56.705" x2="87.7701" y2="135.947" gradientUnits="userSpaceOnUse">
<stop stop-color="#03315C"/>
<stop offset="1" stop-color="#010F2D"/>
</linearGradient>
<linearGradient id="paint5_linear_127_553" x1="91.4773" y1="164.77" x2="91.4773" y2="173.113" gradientUnits="userSpaceOnUse">
<stop stop-color="#0D5FDB"/>
<stop offset="1" stop-color="#14386D"/>
</linearGradient>
<clipPath id="clip0_127_553">
<rect width="181.604" height="181" fill="white"/>
</clipPath>
</defs>
</svg>
