<svg width="15" height="16" viewBox="0 0 15 16" fill="none" xmlns="http://www.w3.org/2000/svg">
<path d="M1 7C0.447715 7 0 7.44772 0 8C0 8.55228 0.447715 9 1 9V7ZM14.2071 8.70711C14.5976 8.31658 14.5976 7.68342 14.2071 7.29289L7.84315 0.928932C7.45262 0.538408 6.81946 0.538408 6.42893 0.928932C6.03841 1.31946 6.03841 1.95262 6.42893 2.34315L12.0858 8L6.42893 13.6569C6.03841 14.0474 6.03841 14.6805 6.42893 15.0711C6.81946 15.4616 7.45262 15.4616 7.84315 15.0711L14.2071 8.70711ZM1 9H13.5V7H1V9Z" fill="#FFDB21"/>
</svg>
