<svg width="68" height="66" viewBox="0 0 68 66" fill="none" xmlns="http://www.w3.org/2000/svg">
<rect width="68" height="66" rx="5" fill="url(#paint0_linear_55_13)"/>
<g clip-path="url(#clip0_55_13)">
<path d="M46.1279 46.2421V32.2328H40.0079V46.2421H38.2501V35.6953H32.13V46.2421H30.3722V39.2109H24.2522V46.2421H20.7578V44.4843H22.5449V42.7265H20.7578V40.9687H22.5449V39.2109H20.7578V37.4531H22.5449V35.6953H20.7578V33.9375H22.5449V32.1796H20.7578V30.2861H19V47.9999H49V46.2421H46.1279ZM41.7657 33.9907H44.3701V46.1249H41.7657V33.9907ZM33.8879 37.4531H36.4923V46.1249H33.8879V37.4531ZM26.01 40.9687H28.6144V46.1249H26.01V40.9687Z" fill="#0D5DD6"/>
<path d="M25.4238 29.3123H27.1816V27.5666H28.6812V29.3123H30.439V27.4129C31.3567 27.0684 32.0117 26.1822 32.0117 25.1456C32.0117 24.5602 31.8028 24.0227 31.4556 23.6036C31.8028 23.1845 32.0117 22.647 32.0117 22.0615C32.0117 21.0249 31.3567 20.1387 30.439 19.7943V18H28.6812V19.6406H27.1816V18H25.4238V19.6406H24.252V27.5666H25.4238V29.3123ZM26.0098 21.3984H29.5907C29.9564 21.3984 30.2538 21.6959 30.2538 22.0615C30.2538 22.4272 29.9564 22.7247 29.5907 22.7247H26.0098V21.3984ZM29.5907 24.4825C29.9564 24.4825 30.2538 24.78 30.2538 25.1456C30.2538 25.5113 29.9564 25.8087 29.5907 25.8087H26.0098V24.4825L29.5907 24.4825Z" fill="#0D5DD6"/>
<path d="M43.0609 23.4898V24.6959H44.8187V20.4785H40.6013V22.2363H41.8285L37.0073 27.0575H34.4395V28.8154H37.7354L43.0609 23.4898Z" fill="#0D5DD6"/>
</g>
<defs>
<linearGradient id="paint0_linear_55_13" x1="34" y1="0" x2="34" y2="66" gradientUnits="userSpaceOnUse">
<stop stop-color="#0C2032"/>
<stop offset="1" stop-color="#001A32"/>
</linearGradient>
<clipPath id="clip0_55_13">
<rect width="30" height="30" fill="white" transform="translate(19 18)"/>
</clipPath>
</defs>
</svg>
