<svg width="110" height="25" viewBox="0 0 110 25" fill="none" xmlns="http://www.w3.org/2000/svg">
<path d="M86.4107 6.93523C85.9312 6.74687 85.5716 6.60988 85.3319 6.52425L85.075 6.42151C83.3284 6.52425 81.2221 7.77431 78.7562 10.1717L78.8333 10.3515C78.8504 10.3515 78.859 10.3686 78.859 10.4029C78.859 10.4714 78.8162 10.6084 78.7305 10.8138C78.662 11.0022 78.6192 11.1392 78.6021 11.2248C78.5165 11.7728 78.4737 12.1923 78.4737 12.4834C78.4737 13.0485 78.5079 13.4766 78.5764 13.7678C78.662 14.0417 78.9874 14.8466 79.5525 16.1823C80.0834 17.4494 80.3488 18.1087 80.3488 18.1601C80.3488 18.4854 80.169 18.7937 79.8094 19.0848C79.4669 19.3759 79.1244 19.5215 78.7819 19.5215C78.5593 19.5215 78.1226 19.393 77.4719 19.1362V24.0936C78.4822 24.4703 79.2614 24.6587 79.8094 24.6587C81.5389 24.6587 83.003 24.085 84.2017 22.9377C85.4175 21.8075 86.0254 20.3777 86.0254 18.6481C86.0254 17.7234 85.7086 16.6275 85.075 15.3603C84.4586 14.076 84.1503 13.2968 84.1503 13.0229C84.1503 12.766 84.2702 12.4663 84.5099 12.1238C84.7497 11.7642 84.9808 11.5844 85.2035 11.5844C85.6487 11.5844 86.0169 11.6187 86.308 11.6872L86.4107 11.5587V6.93523Z" fill="#FFDB21"/>
<path d="M101.628 19.3597C101.731 18.9316 101.783 18.7775 101.783 18.8973V6.72209H96.6454V18.1781C96.6454 18.4179 96.5255 18.649 96.2857 18.8716C96.046 19.0771 95.8148 19.1799 95.5922 19.1799C95.3696 19.1799 95.1213 19.0857 94.8473 18.8973C94.5905 18.6918 94.462 18.4864 94.462 18.2809V5.69464L94.2309 6.20836V6.54228C92.597 6.63746 90.662 7.71709 88.4258 9.78117L88.5833 10.0099C88.8253 9.83784 89.0296 9.70085 89.1964 9.59894L89.2477 18.512C89.2477 19.7963 89.7272 21.0122 90.6862 22.1595C91.6451 23.3068 92.7496 24.0089 93.9997 24.2657C94.6846 24.4027 94.9843 24.4712 94.8987 24.4712C95.1213 24.4712 95.4552 24.4541 95.9005 24.4199C96.3457 24.4027 96.6796 24.3942 96.9022 24.3942C96.9193 24.3942 97.2618 24.2743 97.9297 24.0346C98.8886 23.6921 99.7106 23.0756 100.396 22.1852C101.012 21.3632 101.423 20.4214 101.628 19.3597Z" fill="#FFDB21"/>
<path d="M109.948 6.627C109.948 6.5585 109.966 6.49001 110 6.42151H109.794C108.136 6.51814 106.166 7.62955 103.886 9.75574L104.037 9.97847C104.294 9.79808 104.51 9.65699 104.683 9.55522V23.7854H109.948V6.627Z" fill="#FFDB21"/>
<path d="M74.1121 16.5273C75.0196 15.4142 75.4734 14.1813 75.4734 12.8285C75.4734 11.2873 74.8484 9.90884 73.5983 8.69303C72.3996 7.52859 71.0212 6.88643 69.4629 6.76656L69.1546 6.66382C67.3908 6.76656 65.276 8.01662 62.8101 10.414L62.7845 10.7736C62.7845 10.962 62.716 11.2616 62.579 11.6726C62.4591 12.0665 62.3992 12.3661 62.3992 12.5716V24.3359H67.5878V12.623C67.5878 12.4518 67.6991 12.212 67.9217 11.9038C68.1443 11.5956 68.3327 11.4414 68.4868 11.4414C69.5142 11.4414 70.028 11.8353 70.028 12.623C70.028 13.1025 69.8396 13.4107 69.4629 13.5477C69.1033 13.6847 68.7437 13.8131 68.384 13.933V18.1969C68.384 18.351 68.444 18.4281 68.5638 18.4281C68.8036 18.4281 69.1546 18.4024 69.617 18.351C70.0965 18.2996 70.4475 18.274 70.6701 18.274C71.9887 18.274 73.136 17.6917 74.1121 16.5273Z" fill="#FFDB21"/>
<path d="M24.7358 16.3107C24.7358 16.4991 24.5988 17.0556 24.3248 17.9803C24.0679 18.905 23.8881 19.4701 23.7854 19.6756C23.0833 21.0969 22.1757 22.1928 21.0627 22.9634C20.0695 23.6484 18.7423 24.1792 17.0813 24.556C16.7046 24.6416 16.5419 24.6844 16.5933 24.6844H14.7439C14.6925 24.6844 14.6069 24.6587 14.487 24.6073C14.3671 24.556 14.2729 24.5303 14.2044 24.5303C12.5777 24.5303 10.9851 23.734 9.42682 22.1415C7.97127 20.6517 7.08938 19.0763 6.78115 17.4152C6.66128 16.7816 6.60134 15.8398 6.60134 14.5897C6.60134 14.1274 6.80683 13.4167 7.21781 12.4578C7.57742 11.5673 7.9199 10.9081 8.24526 10.48L8.03977 10.1974C7.68016 10.5741 7.3548 10.8567 7.06369 11.045C6.94382 11.1135 6.75546 11.2163 6.4986 11.3533C5.86501 11.6273 5.29135 11.7643 4.77763 11.7643C3.66456 11.7643 3.09946 11.2077 3.08234 10.0947L3.00528 9.81211C2.90254 9.89773 2.88541 9.96623 2.95391 10.0176C2.28607 10.2402 1.75522 10.3515 1.36137 10.3515C1.05313 10.3515 0.762023 10.283 0.488037 10.146C0.162679 9.95767 0 9.72649 0 9.45251V7.29487C0 7.00376 0.256862 6.58422 0.770585 6.03625C1.16444 5.64239 1.54973 5.30847 1.92646 5.03449C2.32032 4.7605 2.96247 4.46939 3.85292 4.16116C4.7605 3.8358 5.41978 3.67312 5.83076 3.67312C5.91638 3.67312 6.03625 3.69881 6.19036 3.75018C6.36161 3.80155 6.49004 3.82724 6.57566 3.82724H7.34624C7.46611 3.82724 7.65447 3.87005 7.91134 3.95567C8.18532 4.02416 8.37369 4.05841 8.47643 4.05841C8.69905 4.05841 8.95591 3.91286 9.24702 3.62175C9.53813 3.33064 9.70937 3.18508 9.76074 3.18508C9.86349 3.18508 10.009 3.21077 10.1974 3.26214C10.4029 3.31351 10.557 3.3392 10.6598 3.3392C10.7454 3.3392 11.045 3.05665 11.5588 2.49156C12.1924 1.77234 12.7403 1.23294 13.2027 0.87333C13.939 0.29111 14.6069 0 15.2062 0C15.8055 0 16.3278 0.188365 16.7731 0.565096C17.2354 0.941826 17.5608 1.41274 17.7491 1.97783C17.9033 2.38881 17.9803 2.57718 17.9803 2.54293C17.9803 2.86829 17.8262 3.2707 17.518 3.75018C17.2268 4.22965 16.8501 4.60638 16.3878 4.88037C15.9254 5.13723 15.4631 5.38553 15.0007 5.62527C14.9665 5.65952 14.9493 5.72801 14.9493 5.83076C14.9493 6.07049 14.9922 6.30167 15.0778 6.52428C15.2661 6.54141 15.6172 6.57566 16.1309 6.62703C16.5761 6.6784 16.9186 6.70409 17.1584 6.70409C18.1687 6.70409 19.3417 7.13219 20.6774 7.98839C21.6534 8.60486 22.5096 9.48675 23.246 10.6341C23.9823 11.7643 24.4532 12.9116 24.6587 14.076C21.251 14.2986 19.53 14.4099 19.4958 14.4099C19.4102 14.4099 19.3074 14.4014 19.1876 14.3842C18.7252 13.5452 18.2457 12.9373 17.7491 12.5605C17.1498 12.1324 16.422 11.9184 15.5658 11.9184C14.6069 11.9184 13.7678 12.3037 13.0486 13.0743C12.3465 13.8277 11.9954 14.6839 11.9954 15.6429C11.9954 16.3107 12.1752 16.9443 12.5348 17.5436C12.8945 18.143 13.3739 18.5882 13.9733 18.8793C14.5726 19.1704 14.9493 19.316 15.1035 19.316H15.797C16.7559 19.316 17.5693 18.9649 18.2372 18.2629C18.8194 17.6293 19.2047 16.8159 19.393 15.8227C19.393 15.8227 19.8554 15.8227 20.7801 15.8227C22.4754 15.8569 23.7511 15.8912 24.6073 15.9254L24.7358 15.8227V16.3107ZM17.6721 2.61999C17.6721 1.93502 17.4152 1.36993 16.9015 0.924702C16.3878 0.479475 15.7884 0.231175 15.1035 0.179804L15.0521 0.308234C14.9665 0.205489 14.9151 0.154116 14.898 0.154116C14.5726 0.154116 14.0246 0.522285 13.2541 1.25862C12.7232 1.75522 12.2009 2.26038 11.6872 2.77411C11.6872 2.87685 11.5845 3.01384 11.379 3.18508C11.1735 3.35632 11.0022 3.45051 10.8652 3.46763L10.9423 3.54469C10.9252 3.56181 10.8995 3.57894 10.8652 3.59606C10.7967 3.59606 10.7026 3.57894 10.5827 3.54469C10.48 3.51044 10.4029 3.49332 10.3515 3.49332C9.92342 3.49332 9.56381 3.63031 9.2727 3.9043C8.99872 4.16116 8.85316 4.28959 8.83604 4.28959C8.51068 4.28959 8.01408 4.23822 7.34624 4.13547C6.69553 4.03273 6.20749 3.98135 5.88213 3.98135C5.0773 3.98135 4.22965 4.16972 3.3392 4.54645C2.46587 4.92318 1.74666 5.40265 1.18156 5.98488C0.941826 6.19036 0.719212 6.39585 0.513723 6.60134C0.325358 6.80683 0.231175 7.08938 0.231175 7.44899C0.231175 7.68872 0.265424 7.87709 0.33392 8.01408C0.385292 7.94558 0.462351 7.86853 0.565095 7.78291C0.599344 7.81715 0.616468 7.8514 0.616468 7.88565C0.616468 7.90277 0.556533 8.07402 0.436665 8.39937C0.299672 8.70761 0.231175 8.92166 0.231175 9.04153C0.231175 8.99016 0.265424 9.17852 0.33392 9.60662C0.864767 10.0005 1.21581 10.1974 1.38705 10.1974C1.4213 10.1974 1.43842 10.1717 1.43842 10.1203C1.43842 10.069 1.6696 10.0433 2.13195 10.0433C2.21757 10.0433 2.56005 9.84636 3.1594 9.45251C3.1594 9.26414 3.18508 8.96447 3.23646 8.55349C3.32208 8.70761 3.45907 8.9131 3.64743 9.16996C3.57894 9.30695 3.48476 9.52956 3.36489 9.8378L3.49332 10.069C3.35632 10.1375 3.28783 10.2231 3.28783 10.3258L3.31351 10.4286C3.29639 10.3258 3.31351 10.2488 3.36489 10.1974C3.43338 11.0879 3.87861 11.5331 4.70057 11.5331C5.84788 11.5331 6.90101 11.0194 7.85996 9.99191C7.75722 9.90629 7.62879 9.68368 7.47467 9.32408C7.33768 8.96447 7.25206 8.69048 7.21781 8.50212L7.03801 8.39937C7.00376 8.39937 6.78115 8.49356 6.37017 8.68192C5.95919 8.87029 5.60814 8.96447 5.31703 8.96447C5.18004 8.96447 5.0088 8.92166 4.80331 8.83604C4.54645 8.76754 4.41802 8.67336 4.41802 8.55349C4.53789 8.55349 4.71769 8.58774 4.95743 8.65623C5.21429 8.70761 5.40266 8.73329 5.52252 8.73329C5.83076 8.73329 6.29311 8.56205 6.90958 8.21957C7.23493 8.04833 7.53461 7.74866 7.80859 7.32056C8.04833 6.96095 8.2795 6.60134 8.50212 6.24174L8.5278 6.37017C8.54493 6.64415 8.36513 7.02944 7.9884 7.52604C8.22813 7.47467 8.53637 7.32912 8.9131 7.08938C9.20421 6.88389 9.49532 6.68696 9.78643 6.4986C10.0775 6.39585 10.5056 6.22461 11.0707 5.98488C11.516 5.72801 11.7557 5.59958 11.7899 5.59958C11.9441 5.59958 12.1667 5.53965 12.4578 5.41978C12.766 5.28279 12.9972 5.21429 13.1513 5.21429C13.2027 5.21429 13.2369 5.1886 13.2541 5.13723C13.2883 5.08586 13.3311 5.06017 13.3825 5.06017C13.451 5.06017 13.5537 5.05161 13.6907 5.03449C13.8277 5.01736 13.9305 5.0088 13.999 5.0088C13.999 5.0088 14.0503 5.01736 14.1531 5.03449V5.08586C13.8448 5.23998 13.2112 5.45403 12.2523 5.72801C11.4303 5.96775 10.8139 6.22461 10.4029 6.4986C10.2488 6.56709 10.0176 6.66984 9.70937 6.80683C9.5895 6.90958 9.40113 7.05513 9.14427 7.2435C8.81891 7.44899 8.33944 7.72297 7.70585 8.06545C7.68872 8.0997 7.64591 8.18532 7.57742 8.32231C7.50892 8.44218 7.47467 8.53637 7.47467 8.60486C7.47467 8.87885 7.76578 9.43538 8.348 10.2745C10.8139 7.87709 12.9287 6.62703 14.6925 6.52428V6.19036C14.487 5.9335 14.3842 5.77939 14.3842 5.72801C14.3842 5.67664 14.6925 5.49684 15.3089 5.1886C15.9939 4.84612 16.3792 4.64063 16.4648 4.57214C17.2697 3.93854 17.6721 3.28783 17.6721 2.61999Z" fill="#FFDB21"/>
<path d="M35.169 24.3457H40.3833V7.08464H35.169V11.1583V11.4705V24.3457Z" fill="#FFDB21"/>
<path d="M32.9857 13.275V6.05719L32.7545 6.57091V6.90483C31.1072 7.00079 29.1537 8.09751 26.894 10.195L27.0522 10.4205C27.3256 10.2257 27.5482 10.0727 27.72 9.96149V24.3457H33.0114V17.7958H34.3727V15.6055V14.8419V13.275C33.8761 13.3435 33.4138 13.3435 32.9857 13.275Z" fill="#FFDB21"/>
<path fill-rule="evenodd" clip-rule="evenodd" d="M60.4562 15.3089C60.4562 16.1994 60.3706 16.97 60.1993 17.6207C60.0966 17.8775 59.951 18.2628 59.7627 18.7766C59.6771 18.9649 59.5486 19.256 59.3774 19.6499C59.0691 20.5575 58.2643 21.5507 56.9629 22.6295C55.6101 23.7768 54.4799 24.3505 53.5723 24.3505C53.4867 24.3505 53.3583 24.3761 53.187 24.4275C53.0158 24.4789 52.8788 24.5046 52.776 24.5046C52.5363 24.5046 52.1596 24.5303 51.6459 24.5816C51.1493 24.633 50.7811 24.6587 50.5413 24.6587C50.079 24.6587 49.2913 24.4703 48.1782 24.0936C46.9453 23.6655 45.7808 22.8007 44.6849 21.4993C43.589 20.215 42.8954 18.9221 42.6043 17.6207C42.416 16.7645 42.3218 15.9939 42.3218 15.3089C42.3218 13.5794 42.8355 11.9612 43.8629 10.4542L43.8373 10.1717C46.3031 7.77431 48.418 6.52425 50.1817 6.42151L50.4129 6.47288C50.4643 6.5585 50.5157 6.60131 50.567 6.60131C50.7554 6.60131 51.0294 6.59275 51.389 6.57563C51.7657 6.54138 52.0483 6.52425 52.2366 6.52425C52.3051 6.52425 52.4079 6.54994 52.5449 6.60131C52.6819 6.63556 52.7675 6.65268 52.8017 6.65268C54.9765 7.01229 56.7916 8.00549 58.2472 9.63228C59.7199 11.2591 60.4562 13.1513 60.4562 15.3089ZM51.405 19.3849C53.5329 19.3849 55.2579 17.6599 55.2579 15.5319C55.2579 13.404 53.5329 11.679 51.405 11.679C49.2771 11.679 47.5521 13.404 47.5521 15.5319C47.5521 17.6599 49.2771 19.3849 51.405 19.3849Z" fill="#FFDB21"/>
</svg>
