<svg width="14376" height="3323" viewBox="0 0 14376 3323" fill="none" xmlns="http://www.w3.org/2000/svg">
<mask id="mask0_12_606" style="mask-type:luminance" maskUnits="userSpaceOnUse" x="0" y="0" width="2153" height="1734">
<path d="M0 671.256L1782.53 0L2152.07 1061.93L369.536 1733.19L0 671.256Z" fill="white"/>
</mask>
<g mask="url(#mask0_12_606)">
<mask id="mask1_12_606" style="mask-type:luminance" maskUnits="userSpaceOnUse" x="0" y="0" width="2153" height="1734">
<path d="M0 671.256L1782.53 0L2152.07 1061.93L369.536 1733.19L0 671.256Z" fill="white"/>
</mask>
<g mask="url(#mask1_12_606)">
<path d="M1903.9 542.382C1951.25 617.532 1962.39 680.654 1879.43 780.561C1830.4 839.469 1789.56 874.674 1764.92 893.198C1758.67 861.856 1754.03 839.382 1751.25 831.48C1744.75 812.605 1679.6 785.916 1558.25 787.76C1602.98 745.532 1671.08 706.816 1671.92 706.289L1665 687.414C1654.62 689.96 1643.9 693.208 1633.02 697.334C1569.73 721.214 1512.09 765.636 1481.03 792.413C1438 796.803 1389.98 804.353 1337.07 816.117C1355.3 765.373 1379.68 687.853 1381.03 683.639L1392.34 647.732L1365.17 672.841C1321.62 712.961 1286.52 793.203 1271.08 832.358C1252.17 837.362 1232.68 842.981 1212.6 849.214C1187.79 856.764 1162.97 865.28 1139.09 874.235C1061.71 903.382 996.224 936.918 941.371 970.543C902.806 942.01 809.726 875.991 753.185 860.1L743.987 877.395C748.207 881.434 835.633 965.187 896.055 999.953C874.451 1014.7 855.042 1029.36 837.658 1043.41C808.882 1042.27 755.126 1043.94 698.839 1065.09C649.81 1083.53 609.472 1112.94 579.177 1152.45L593.017 1166.76C593.438 1166.41 632.173 1134.1 690.991 1111.98C721.709 1100.47 752.004 1093.89 781.709 1092.05C739.093 1132.61 717.996 1161.58 715.886 1164.47L699.346 1187.65L726.266 1180.45C727.7 1179.93 729.219 1179.49 730.738 1178.87C746.097 1173.17 763.481 1159.12 789.81 1137.79C850.57 1088.53 952.257 1006.1 1147.36 932.704C1156.98 929.017 1166.86 925.418 1176.9 921.906C1463.23 820.331 1676.39 861.242 1702.98 871.865C1704.92 879.327 1709.47 898.29 1714.62 919.536C1725.59 965.538 1742.13 1034.46 1758.76 1099.6C1686.35 1100.3 1484.66 1111.27 1233.44 1201.79C1224.92 1204.86 1216.56 1207.93 1208.12 1211.09C942.89 1311 776.308 1442.42 713.776 1521.08C692.679 1492.29 675.042 1471.92 663.143 1459.28C715.717 1400.2 724.915 1360.69 725.337 1358.58L732.088 1326.71L708.966 1348.93C603.228 1450.85 545.337 1496.94 502.299 1513.18C454.029 1531.36 423.396 1509.94 380.358 1461.39C297.573 1367.71 289.641 1341.46 295.379 1180.36C301.202 1014.26 313.185 845.439 388.375 766.69C410.147 743.952 439.345 725.428 475.126 711.908C513.86 697.334 552.257 691.628 576.73 689.433C538.417 776.259 527.194 838.591 526.434 842.981L545.168 848.512C546.265 845.79 649.557 578.377 805.591 454.678C838.333 428.604 871.92 409.026 905.422 396.472C972.426 371.188 1025.59 379.001 1053.86 387.254C1009.56 438.349 993.017 476.626 991.836 479.435L1008.21 490.321C1098 385.059 1221.88 297.267 1348.12 249.772C1454.03 209.914 1547.28 203.769 1597.49 233.355C1704.07 296.126 1750.65 475.046 1751.08 476.801L1759.77 511.304L1769.9 477.24C1773.61 464.862 1773.1 446.777 1769.39 425.619C1805.25 445.548 1868.63 486.371 1903.9 542.382Z" fill="white"/>
</g>
</g>
<path d="M5892.59 3317.91C6597.97 3317.91 7025.47 2625.21 6961.35 1978.69H4823.84C4759.71 2579.03 5187.21 3341 5892.59 3317.91Z" fill="#041227"/>
<path d="M7705.02 1427.83C7709.45 1436.29 7712.16 1445.53 7712.98 1455.03C7713.79 1464.52 7712.71 1474.08 7709.78 1483.16C7706.86 1492.24 7702.15 1500.67 7695.93 1507.95C7689.71 1515.23 7682.1 1521.23 7673.53 1525.61L7672.24 1526.27L7419.71 1649.2L7316.26 1699.6L7268.26 1722.88L7200.5 1755.9L6130.34 2277C6120.66 2281.63 6109.53 2282.35 6099.33 2279C6089.12 2275.65 6080.65 2268.49 6075.71 2259.05C6070.78 2249.62 6069.77 2238.65 6072.91 2228.49C6076.04 2218.33 6083.07 2209.78 6092.5 2204.67L7148.62 1640.76L7211.13 1607.4L7251.72 1585.74L7359.35 1528.27L7604.73 1397.22C7613.33 1392.63 7622.77 1389.79 7632.49 1388.85C7642.22 1387.91 7652.04 1388.89 7661.37 1391.74C7670.71 1394.59 7679.38 1399.25 7686.87 1405.45C7694.37 1411.64 7700.54 1419.25 7705.02 1427.83Z" fill="#FBBE25"/>
<path d="M6118.39 2283.43C6109.35 2284.68 6100.15 2283.15 6092.03 2279.04C6083.91 2274.93 6077.28 2268.44 6073.03 2260.47C6067.74 2250.34 6066.68 2238.58 6070.08 2227.69C6073.48 2216.8 6081.07 2207.67 6091.21 2202.25L7603.42 1394.78C7616.81 1387.65 7632.04 1384.64 7647.18 1386.12C7662.31 1387.6 7676.65 1393.51 7688.35 1403.1C7700.06 1412.68 7708.6 1425.51 7712.88 1439.92C7717.16 1454.33 7716.98 1469.68 7712.37 1483.99C7709.35 1493.41 7704.48 1502.15 7698.02 1509.69C7691.57 1517.24 7683.67 1523.45 7674.77 1527.96L7673.48 1528.62L6131.56 2279.44C6127.41 2281.45 6122.96 2282.8 6118.39 2283.43ZM7629.96 1391.84C7621.57 1393 7613.47 1395.63 7606.02 1399.61L6093.82 2207.08C6084.95 2211.82 6078.32 2219.8 6075.34 2229.32C6072.36 2238.83 6073.27 2249.12 6077.88 2257.98C6082.57 2266.78 6090.55 2273.43 6100.11 2276.52C6109.68 2279.62 6120.09 2278.91 6129.14 2274.56L7199.32 1753.53L7672.28 1523.26C7680.53 1519.05 7687.86 1513.27 7693.85 1506.26C7699.84 1499.25 7704.38 1491.14 7707.19 1482.4C7710.01 1473.65 7711.05 1464.45 7710.27 1455.31C7709.48 1446.17 7706.88 1437.27 7702.61 1429.12C7695.87 1416.25 7685.25 1405.76 7672.23 1399.09C7659.2 1392.43 7644.41 1389.91 7629.88 1391.89L7629.96 1391.84Z" fill="#041227"/>
<path d="M7253.99 1659.78C7263.51 1679.48 7268.39 1701.06 7268.28 1722.88L7200.52 1755.9C7210.08 1732.98 7209.83 1707.65 7199.12 1685.6C7189.09 1664.86 7171.39 1649.28 7148.63 1640.7L7211.15 1607.34C7229.37 1621.29 7244.04 1639.25 7253.99 1659.78Z" fill="#041227"/>
<path d="M7403.57 1584.12C7413.45 1604.48 7418.95 1626.64 7419.71 1649.2L7316.26 1699.6L7307.85 1694.1C7322.15 1672.8 7324.32 1648.13 7313.75 1626.46C7302.97 1604.11 7280.52 1589.41 7251.65 1585.72L7359.29 1528.25C7378 1543.46 7393.12 1562.53 7403.57 1584.12Z" fill="#041227"/>
<g opacity="0.55">
<path d="M7705.02 1427.82C7708.21 1433.9 7710.51 1440.4 7711.82 1447.12C7700.71 1435.52 7686.03 1427.85 7670.06 1425.32C7654.09 1422.79 7637.72 1425.53 7623.49 1433.11L7378.11 1564.11L7270.48 1621.58L7229.89 1643.24L7167.37 1676.61L6111.27 2240.53C6104.99 2243.9 6099.7 2248.81 6095.91 2254.8C6092.13 2260.78 6089.97 2267.63 6089.66 2274.68C6083.66 2270.83 6078.77 2265.51 6075.48 2259.23C6072.19 2252.95 6070.61 2245.93 6070.9 2238.87C6071.19 2231.8 6073.33 2224.93 6077.11 2218.93C6080.9 2212.94 6086.2 2208.01 6092.5 2204.65L7148.61 1640.74L7211.13 1607.37L7251.71 1585.71L7359.35 1528.24L7604.72 1397.21C7613.33 1392.63 7622.76 1389.79 7632.49 1388.85C7642.22 1387.91 7652.04 1388.89 7661.37 1391.74C7670.71 1394.59 7679.38 1399.25 7686.87 1405.44C7694.37 1411.64 7700.53 1419.25 7705.02 1427.82Z" fill="white"/>
</g>
<path d="M6120.78 2300.17C6106.59 2302.18 6092.14 2299.2 6079.95 2291.75C6067.76 2284.29 6058.62 2272.84 6054.12 2259.4C6049.62 2245.96 6050.05 2231.38 6055.34 2218.22C6060.63 2205.07 6070.43 2194.16 6083.03 2187.42L7595.26 1379.96C7611.71 1371.17 7630.46 1367.47 7649.07 1369.32C7667.68 1371.18 7685.3 1378.51 7699.65 1390.36C7713.99 1402.22 7724.4 1418.05 7729.54 1435.82C7734.67 1453.58 7734.28 1472.46 7728.43 1490.01C7724.58 1501.68 7718.4 1512.46 7710.25 1521.72C7702.1 1530.99 7692.15 1538.53 7680.99 1543.92L6139.1 2294.61C6133.33 2297.42 6127.14 2299.3 6120.78 2300.17ZM7632.28 1408.62C7625.94 1409.51 7619.8 1411.51 7614.16 1414.52L6101.95 2221.95C6096.92 2224.51 6093.13 2228.94 6091.42 2234.26C6089.7 2239.59 6090.19 2245.37 6092.79 2250.33C6095.38 2255.29 6099.87 2259.03 6105.26 2260.73C6110.65 2262.42 6116.5 2261.94 6121.52 2259.37L7663.42 1508.7C7674.89 1503.15 7683.97 1493.74 7689.05 1482.16C7694.12 1470.58 7694.84 1457.6 7691.09 1445.54C7687.34 1433.48 7679.36 1423.14 7668.58 1416.37C7657.8 1409.61 7644.93 1406.86 7632.28 1408.62Z" fill="#041227"/>
<path d="M7512.41 1154.9C7518.08 1162.62 7522.15 1171.36 7524.39 1180.62C7526.64 1189.89 7527.01 1199.51 7525.49 1208.92C7523.97 1218.33 7520.59 1227.35 7515.54 1235.47C7510.49 1243.59 7503.87 1250.64 7496.05 1256.23L7494.88 1257.08L7263.77 1415.87L7169.09 1480.97L7125.15 1511.06L7063.15 1553.7L6083.75 2226.78C6074.89 2232.79 6063.99 2235.14 6053.4 2233.33C6042.8 2231.52 6033.34 2225.69 6027.03 2217.09C6020.72 2208.49 6018.07 2197.79 6019.64 2187.28C6021.2 2176.77 6026.86 2167.29 6035.41 2160.84L6994.44 1447.51L7051.21 1405.3L7088.06 1377.89L7185.81 1305.2L7408.62 1139.42C7416.43 1133.63 7425.33 1129.42 7434.81 1127.06C7444.28 1124.69 7454.14 1124.22 7463.8 1125.66C7473.47 1127.1 7482.74 1130.43 7491.09 1135.45C7499.43 1140.47 7506.68 1147.08 7512.41 1154.9Z" fill="#FBBE25"/>
<path d="M6072.9 2234.89C6064.15 2237.47 6054.82 2237.31 6046.17 2234.44C6037.52 2231.57 6029.98 2226.14 6024.58 2218.88C6017.82 2209.65 6014.99 2198.17 6016.7 2186.9C6018.42 2175.64 6024.54 2165.49 6033.75 2158.63L7406.94 1137.21C7419.1 1128.18 7433.71 1122.95 7448.9 1122.19C7464.08 1121.42 7479.16 1125.15 7492.18 1132.9C7505.21 1140.66 7515.59 1152.07 7522 1165.69C7528.41 1179.31 7530.55 1194.52 7528.15 1209.35C7526.6 1219.11 7523.1 1228.46 7517.86 1236.88C7512.62 1245.29 7505.74 1252.6 7497.62 1258.37L7496.45 1259.21L6085.31 2229C6081.52 2231.61 6077.33 2233.6 6072.9 2234.89ZM7432.73 1130.38C7424.62 1132.77 7417 1136.57 7410.24 1141.6L6037.06 2163.02C6029.01 2169.02 6023.65 2177.89 6022.15 2187.74C6020.64 2197.59 6023.1 2207.63 6029 2215.71C6034.96 2223.71 6043.85 2229.11 6053.78 2230.76C6063.71 2232.41 6073.9 2230.18 6082.19 2224.54L7061.6 1551.52L7494.45 1254.09C7501.97 1248.71 7508.35 1241.91 7513.21 1234.1C7518.07 1226.28 7521.33 1217.59 7522.8 1208.53C7524.26 1199.47 7523.9 1190.22 7521.74 1181.3C7519.58 1172.37 7515.66 1163.96 7510.21 1156.53C7501.6 1144.8 7489.52 1135.99 7475.63 1131.32C7461.74 1126.65 7446.73 1126.35 7432.66 1130.45L7432.73 1130.38Z" fill="#041227"/>
<path d="M7101.49 1450.77C7113.87 1468.85 7121.97 1489.46 7125.16 1511.06L7063.15 1553.7C7069.14 1529.62 7065.06 1504.61 7051.13 1484.39C7038.08 1465.36 7018.22 1452.57 6994.43 1447.44L7051.19 1405.23C7071.32 1416.34 7088.54 1431.93 7101.49 1450.77Z" fill="#041227"/>
<path d="M7237.99 1353.91C7250.84 1372.57 7259.62 1393.68 7263.78 1415.87L7169.11 1480.96L7159.96 1476.77C7170.88 1453.6 7169.3 1428.89 7155.57 1409.01C7141.53 1388.5 7117.11 1377.28 7088.01 1377.89L7185.75 1305.19C7206.55 1317.47 7224.38 1334.1 7237.99 1353.91Z" fill="#041227"/>
<g opacity="0.55">
<path d="M7512.44 1154.9C7516.51 1160.44 7519.76 1166.53 7522.08 1172.98C7509.34 1163.14 7493.66 1157.73 7477.49 1157.58C7461.32 1157.43 7445.55 1162.55 7432.62 1172.15L7209.79 1337.87L7112.06 1410.57L7075.2 1437.97L7018.43 1480.18L6059.41 2193.54C6053.71 2197.79 6049.23 2203.43 6046.39 2209.9C6043.55 2216.38 6042.45 2223.47 6043.21 2230.49C6036.69 2227.57 6031.06 2223.02 6026.85 2217.3C6022.65 2211.57 6020.03 2204.87 6019.25 2197.84C6018.46 2190.81 6019.54 2183.71 6022.38 2177.22C6025.21 2170.73 6029.71 2165.07 6035.43 2160.82L6994.46 1447.48L7051.23 1405.27L7088.08 1377.87L7185.82 1305.17L7408.64 1139.42C7416.45 1133.62 7425.35 1129.42 7434.83 1127.06C7444.3 1124.69 7454.16 1124.22 7463.82 1125.66C7473.49 1127.1 7482.76 1130.43 7491.11 1135.45C7499.46 1140.47 7506.7 1147.08 7512.44 1154.9Z" fill="white"/>
</g>
<path d="M6077.8 2251.11C6064.08 2255.19 6049.34 2254.37 6036.16 2248.8C6022.98 2243.22 6012.21 2233.25 6005.73 2220.62C5999.25 2208 5997.47 2193.52 6000.71 2179.73C6003.95 2165.94 6011.99 2153.71 6023.44 2145.19L7396.64 1123.76C7411.58 1112.65 7429.56 1106.22 7448.24 1105.31C7466.93 1104.4 7485.46 1109.05 7501.43 1118.65C7517.41 1128.26 7530.1 1142.38 7537.86 1159.19C7545.62 1176 7548.09 1194.73 7544.96 1212.94C7542.92 1225.04 7538.44 1236.62 7531.78 1246.98C7525.12 1257.34 7516.43 1266.27 7506.2 1273.25L6095.08 2242.9C6089.8 2246.53 6083.97 2249.3 6077.8 2251.11ZM7437.59 1146.65C7431.44 1148.46 7425.68 1151.34 7420.56 1155.15L6047.36 2176.54C6042.78 2179.81 6039.7 2184.75 6038.81 2190.27C6037.91 2195.78 6039.28 2201.43 6042.59 2205.95C6045.91 2210.47 6050.91 2213.51 6056.5 2214.39C6062.08 2215.28 6067.79 2213.93 6072.37 2210.66L7483.5 1241.01C7494 1233.83 7501.57 1223.18 7504.83 1210.99C7508.1 1198.79 7506.85 1185.84 7501.32 1174.47C7495.79 1163.1 7486.33 1154.06 7474.65 1148.96C7462.97 1143.86 7449.83 1143.04 7437.59 1146.65Z" fill="#041227"/>
<path d="M5412.95 1491.05L5412.97 1491.04L5412.98 1491.03C5431.36 1479.93 5441.02 1466.07 5447.61 1451.6C5450.48 1445.31 5452.83 1438.76 5454.92 1432.91C5455.07 1432.5 5455.21 1432.09 5455.36 1431.69C5457.12 1426.77 5458.81 1422.12 5460.76 1417.47L5461.25 1416.78C5469.69 1404.97 5475.34 1400.96 5478.49 1399.49C5481.04 1398.3 5483.72 1397.9 5489.36 1398.73C5491.32 1399.02 5493.72 1399.53 5496.53 1400.14C5509.53 1402.94 5531.16 1407.59 5557.15 1399.97L5557.17 1399.96L5557.19 1399.96C5582.11 1392.6 5598.01 1375.97 5610.29 1361.05C5613.77 1356.82 5616.91 1352.83 5619.87 1349.06C5626.55 1340.57 5632.37 1333.17 5639.31 1326.58C5660.7 1326.6 5674.81 1329.05 5685.06 1331.6C5689.83 1332.79 5693.77 1334 5697.82 1335.24C5698.87 1335.56 5699.92 1335.88 5701 1336.2C5705.87 1337.67 5711.77 1339.37 5718.12 1340.06C5732.84 1341.64 5745.88 1337.44 5761.15 1327.96C5774.56 1319.62 5791.5 1306.05 5815.04 1285.69C5826.01 1285.51 5833.36 1286.68 5838.61 1288.19C5844.76 1289.96 5849.18 1292.51 5854.52 1296.05C5855.27 1296.55 5856.07 1297.1 5856.94 1297.69C5861.91 1301.06 5868.81 1305.74 5877.07 1309.25C5887.46 1313.65 5899.53 1316.19 5915.16 1316.08C5930.69 1315.98 5942.76 1313.41 5953.17 1309.19C5961.69 1305.74 5968.79 1301.23 5974.1 1297.85C5974.93 1297.33 5975.71 1296.83 5976.45 1296.37C5982.21 1292.76 5986.89 1290.17 5993.09 1288.36C5998.2 1286.88 6005.1 1285.72 6015.09 1285.77C6038.92 1306.33 6056 1319.98 6069.45 1328.31C6084.77 1337.8 6097.86 1341.94 6112.6 1340.15C6118.91 1339.38 6124.76 1337.59 6129.51 1336.09C6130.37 1335.82 6131.22 1335.55 6132.06 1335.29C6136.22 1333.96 6140.24 1332.68 6145.13 1331.43C6155.16 1328.88 6169.08 1326.45 6190.36 1326.53C6196.79 1332.95 6202.36 1340.05 6208.68 1348.09C6211.4 1351.56 6214.25 1355.2 6217.37 1359.03C6228.8 1373.07 6243.37 1388.91 6265.33 1397.36L6265.36 1397.37L6265.39 1397.38C6294.53 1408.48 6317.76 1403.39 6332.17 1400.22C6334.73 1399.66 6337 1399.16 6338.99 1398.82C6345.52 1397.71 6348.41 1398.06 6351.02 1399.2C6354 1400.5 6359.47 1404.17 6367.64 1415.51C6369.94 1420.46 6371.97 1425.19 6374.08 1430.12C6375.11 1432.51 6376.15 1434.95 6377.26 1437.48C6380.71 1445.39 6384.64 1453.87 6389.65 1461.88C6400.31 1478.89 6415.46 1493.03 6440.59 1500.71L6440.65 1500.73L6440.72 1500.76C6459.87 1506.47 6473.33 1508.28 6484.03 1508.07C6489.41 1507.97 6493.67 1507.35 6497.02 1506.75C6498.89 1506.42 6499.95 1506.2 6500.66 1506.06C6501.26 1505.95 6501.6 1505.88 6501.98 1505.83C6502.48 1506.04 6503.47 1506.5 6505.08 1507.47C6509.76 1510.28 6516.97 1515.66 6529.07 1525.82C6529.44 1546.17 6534.29 1563.04 6543.83 1576.74C6554.9 1592.63 6570.43 1601.54 6585.1 1607.48C6595.01 1611.49 6606.43 1614.79 6616.56 1617.72C6620.58 1618.89 6624.4 1619.99 6627.84 1621.06C6638.15 1624.25 6646.78 1627.52 6653.91 1631.67C6655.87 1641.18 6656.9 1649.87 6657.79 1658.31C6657.92 1659.59 6658.05 1660.89 6658.19 1662.21C6659.12 1671.4 6660.14 1681.44 6662.44 1690.83C6665.26 1702.34 6670.1 1713.64 6679.24 1724.54C6688.12 1735.15 6700.24 1744.38 6716.19 1753.2C6729.08 1760.4 6740.06 1765.2 6748.55 1768.91C6749.3 1769.24 6750.03 1769.56 6750.75 1769.87C6760.18 1774.01 6764.27 1776.11 6766.91 1778.34C6769.44 1780.46 6774.4 1785.08 6774.4 1820.87V1822.3L6774.59 1823.72C6777.21 1843.34 6782.24 1858.9 6789.7 1871.72C6797.23 1884.65 6806.53 1893.6 6815.91 1900.81C6821.04 1904.74 6827.6 1909.1 6833.42 1912.96C6836.68 1915.12 6839.71 1917.13 6842.12 1918.82C6848.32 1923.18 6854.21 1927.82 6859.82 1933.62C6860.57 1961.13 6860.22 1981.73 6858.17 1997.87C6855.96 2015.24 6851.96 2025.97 6846.42 2033.87C6840.89 2041.76 6832.46 2048.76 6817.97 2056.32C6803.2 2064.02 6783.74 2071.51 6757.12 2081.21C6682.18 2107.79 6604.81 2127.13 6526.09 2138.96L6525.97 2138.98L6525.86 2139C6348.13 2167.63 6168.28 2181.49 5988.21 2180.42L5988.14 2180.42H5988.08C5859.14 2180.42 5659.89 2177.6 5465.65 2159.2C5275.19 2141.15 5093.62 2108.42 4986.89 2051.11C4978.51 2012.42 4972.48 1973.27 4968.82 1933.88C4974.27 1928.84 4980.03 1924.42 4986.14 1920.05C4988.44 1918.41 4990.95 1916.66 4993.57 1914.85C4999.99 1910.38 5007.06 1905.48 5013.25 1900.47C5022.58 1892.91 5031.8 1883.75 5039.19 1871.29C5046.59 1858.8 5051.53 1844.01 5053.74 1825.87L5053.96 1824.1L5053.88 1822.33C5052.33 1786.86 5057.6 1782.57 5059.94 1780.66L5059.97 1780.64C5062.8 1778.33 5067.16 1776.18 5076.93 1772.01C5077.49 1771.77 5078.07 1771.52 5078.65 1771.27C5087.49 1767.51 5098.9 1762.64 5112.15 1755.23L5112.16 1755.22L5112.18 1755.21C5127.91 1746.38 5139.77 1737.41 5148.39 1727.29C5157.33 1716.81 5161.94 1706.09 5164.55 1695.2C5166.46 1687.2 5167.36 1678.49 5168.15 1670.8C5168.33 1669.02 5168.51 1667.3 5168.7 1665.65C5169.52 1658.25 5170.57 1650.6 5172.61 1642.16C5187.91 1632.52 5201.34 1628.83 5215.64 1625.16C5216.37 1624.97 5217.1 1624.78 5217.85 1624.6C5233.75 1620.53 5252.74 1615.68 5271.46 1600.32C5291.85 1583.58 5298.28 1565.5 5303.04 1549.19C5303.52 1547.54 5303.98 1545.93 5304.44 1544.33C5307.73 1532.83 5310.72 1522.41 5317.64 1510.55C5327.13 1508.31 5336.01 1507.95 5346.66 1507.52C5349.19 1507.42 5351.81 1507.32 5354.57 1507.18C5371.57 1506.34 5391.16 1504.17 5412.95 1491.05Z" fill="url(#paint0_linear_12_606)" stroke="#041227" stroke-width="43.0035"/>
<path fill-rule="evenodd" clip-rule="evenodd" d="M5928.62 2838.27C5964.34 2808.6 6162.3 2727.48 6224.06 2696.49C6834.65 2383.91 6653.04 2158.38 6758.2 2114.2C6785.16 2104.91 6811.48 2093.9 6836.98 2081.23C6857.68 2069.69 6884.05 2044.63 6897.07 2039.35C6963.84 2106.94 6863.69 2294.89 6815.28 2362.15C6752.5 2449.4 6674.23 2524.69 6584.27 2584.38C6386.49 2713.92 6162.93 2800.15 5928.62 2837.28V2838.27ZM4833.97 2008.69C4947.95 2168.64 5086.75 2309.85 5245.26 2427.11C5571.42 2639.45 5739 2614.39 5831.14 2657.91C5684.92 2704.4 5354.76 2595.26 5224.9 2527.67C5110.11 2463.41 5006.34 2381.62 4917.43 2285.32C4888.79 2252.89 4857.77 2222.59 4824.63 2194.65L4822.62 2285.65C4861.68 2314.01 4927.78 2380.28 4969.51 2417.54C5720.31 3068.42 6288.16 2549.43 6424.03 2561.96C6313.53 2651.32 6036.11 2761.44 5887.56 2809.91C5854.17 2821.12 5706.62 2852.45 5694.93 2869.59C6039.78 2888.39 6537.2 2713.97 6767.54 2444.91C6932.46 2252.68 6881.38 2240.15 6939.8 2115.19C6966.18 2130.35 6973.19 2151.79 6990.88 2173.55C6994.22 2067.05 7010.58 1964.5 6936.8 1931.2C6887.06 1908.45 6870.03 1925.93 6833.31 1883.39C6807.61 1853.72 6789.42 1886.89 6757.7 1842.38C6766.72 1908.32 6799.25 1877.14 6833.3 1917.04C6837.3 2039.04 6827.97 2043.31 6725.81 2081.56C6652.66 2106.9 6577.19 2125.23 6500.48 2136.29C6327.99 2164.1 6153.45 2177.55 5978.69 2176.52C5729.32 2176.52 5207.2 2166.62 4995.22 2044.63C4985.18 2000.31 4978.26 1955.36 4974.52 1910.1C5007.9 1872.51 5049.97 1870.53 5057.31 1811.18C5030.27 1850.09 5039.28 1838.88 5000.22 1864.27C4961.16 1889.66 4995.88 1894.27 4937.13 1911.42C4903.74 1921.31 4782.9 1962.2 4833.97 2012.64V2008.69Z" fill="#041227"/>
<path fill-rule="evenodd" clip-rule="evenodd" d="M4823.3 2284.33L4841.66 2427.76L4929.46 2566.58C4962.84 2566.58 4965.85 2582.73 4990.55 2608.12L5146.45 2754.85C5398.16 2943.78 5647.2 3110.95 5993.39 3117.55L5988.71 3144.58C5971.02 3191.73 5867.2 3208.88 5821.8 3224.05C5758.18 3247.51 5691.94 3263.34 5624.5 3271.2C5624.5 3273.17 5628.51 3273.17 5629.51 3276.14C5633.18 3288.01 5671.24 3294.61 5684.59 3297.24C5758 3313.24 5833.12 3320.21 5908.26 3318.02C5933.63 3291.97 6824.64 2739.35 6869.71 2724.51C6899.42 2688.57 6948.16 2535.25 6960.18 2484.48C6984.02 2381.59 6993.9 2276.04 6989.55 2170.58C6970.52 2148.82 6964.85 2127.39 6938.47 2112.22C6880.05 2238.5 6931.13 2251.03 6766.22 2441.94C6535.87 2711 6038.46 2885.42 5693.61 2866.63C5705.29 2849.48 5852.51 2818.16 5886.23 2806.95C6034.79 2758.48 6312.2 2648.35 6422.7 2558.99C6286.83 2546.13 5718.98 3065.45 4968.18 2414.57C4926.45 2378.64 4860.35 2312.36 4821.3 2282.69L4823.3 2284.33Z" fill="url(#paint1_linear_12_606)"/>
<path fill-rule="evenodd" clip-rule="evenodd" d="M5909.59 3317.36C6112.89 3325.93 6341.57 3246.14 6503.48 3137.99C6631 3052.59 6816.95 2871.9 6870.7 2722.87C6825.63 2738.69 5935.96 3291.31 5909.25 3316.37L5909.59 3317.36Z" fill="#041227"/>
<path fill-rule="evenodd" clip-rule="evenodd" d="M5928.6 2838.27C6162.92 2801.14 6386.48 2714.91 6584.26 2585.38C6674.22 2525.68 6752.48 2450.39 6815.27 2363.14C6862.01 2297.2 6963.83 2107.94 6897.06 2040.34C6884.04 2045.62 6857.67 2070.68 6836.97 2082.22C6811.46 2094.89 6785.14 2105.91 6758.18 2115.19C6653.03 2159.37 6834.63 2384.9 6224.05 2697.48C6163.96 2728.48 5964.32 2809.59 5928.6 2839.26V2838.27Z" fill="url(#paint2_linear_12_606)"/>
<path fill-rule="evenodd" clip-rule="evenodd" d="M4823.29 2193.34C4856.43 2221.27 4887.45 2251.58 4916.1 2284.01C5005.13 2380.21 5109.01 2461.89 5223.89 2526.03C5353.75 2593.62 5683.91 2702.76 5830.13 2656.27C5737.99 2614.06 5570.41 2639.12 5244.25 2425.46C5085.74 2308.21 4946.94 2167 4832.97 2007.04C4805.93 2037.05 4822.29 2152.12 4823.62 2191.69L4823.29 2193.34Z" fill="url(#paint3_linear_12_606)"/>
<path fill-rule="evenodd" clip-rule="evenodd" d="M5921.61 3152.5L5988.38 3145.58L5993.05 3118.54C5645.2 3112.61 5397.83 2945.44 5146.11 2755.85L4990.21 2608.13C4965.51 2582.74 4962.17 2566.59 4929.12 2566.59C5003.23 2683.64 4934.13 2617.36 5079.68 2804.65C5142.69 2875.04 5215.13 2936.61 5295.01 2987.64C5498.98 3123.49 5670.23 3158.11 5921.95 3150.86L5921.61 3152.5Z" fill="url(#paint4_linear_12_606)"/>
<path fill-rule="evenodd" clip-rule="evenodd" d="M5227.55 3068.75C5338.05 3096.44 5408.15 3147.22 5542.35 3169.31C5629.82 3183.82 5846.48 3189.42 5921.59 3150.85C5669.88 3158.1 5498.62 3123.48 5294.65 2987.63C5214.78 2936.6 5142.33 2875.03 5079.33 2804.64C4933.77 2617.35 5002.88 2683.63 4928.77 2566.58L4840.97 2427.1C4862 2616.04 4968.83 2801.34 5089.01 2944.77C5120.91 2991.66 5162.85 3031.05 5211.86 3060.17L5227.55 3068.09V3068.75Z" fill="#041227"/>
<path fill-rule="evenodd" clip-rule="evenodd" d="M5624.48 3271.2C5691.05 3262.93 5756.38 3246.88 5819.11 3223.39C5865.18 3208.22 5969 3190.42 5986.03 3143.93L5919.26 3150.85C5844.15 3189.43 5627.49 3183.82 5540.02 3169.32C5406.49 3147.22 5335.72 3096.45 5225.22 3068.75C5230.89 3096.45 5264.28 3113.59 5306.01 3140.63C5378.11 3187.12 5551.71 3278.13 5623.48 3272.52L5624.48 3271.2Z" fill="url(#paint5_linear_12_606)"/>
<path d="M5494.44 1730.97L5540.14 1685.84" stroke="#0A0C33" stroke-width="15.7551" stroke-linecap="round"/>
<path d="M5568.05 1981.48L5613.74 1936.35" stroke="#0A0C33" stroke-width="15.7551" stroke-linecap="round"/>
<path d="M5863.46 1826.48L5909.16 1781.35" stroke="#0A0C33" stroke-width="15.7551" stroke-linecap="round"/>
<path d="M5992.71 1470.88L6038.4 1425.75" stroke="#0A0C33" stroke-width="15.7551" stroke-linecap="round"/>
<path d="M6426.58 1935.89L6472.27 1890.76" stroke="#0A0C33" stroke-width="15.7551" stroke-linecap="round"/>
<path d="M5743.45 1580.3C5768.35 1571.53 5778.15 1561.36 5789.14 1535.17" stroke="#0A0C33" stroke-width="15.7551" stroke-linecap="round"/>
<path d="M5171.1 1844.71C5196 1835.94 5205.8 1825.76 5216.79 1799.58" stroke="#0A0C33" stroke-width="15.7551" stroke-linecap="round"/>
<path d="M6149.64 1680.6C6174.54 1671.83 6184.34 1661.65 6195.33 1635.46" stroke="#0A0C33" stroke-width="15.7551" stroke-linecap="round"/>
<path d="M6168.11 2054.42C6193.02 2045.65 6202.81 2035.48 6213.81 2009.29" stroke="#0A0C33" stroke-width="15.7551" stroke-linecap="round"/>
<path d="M6883.69 1991.71C6883.69 2129.16 6443.73 2240.58 5901 2240.58C5358.27 2240.58 4918.3 2129.16 4918.3 1991.71" stroke="#041227" stroke-width="86.0071" stroke-linecap="round"/>
<rect x="5875.81" y="2190.8" width="503.948" height="348.419" fill="#041227"/>
<path d="M2817.78 3199.57L2852.55 3256.72L2907.49 3289.91L2965.38 3286.84L3081.16 3292.89L3141.92 3286.84L3263.44 3289.91L3324.2 3253.74L3347.32 3196.59L3353.14 3139.35L3347.32 3073.15V2540.26L3373.39 2477.05L3434.15 2437.89L3775.59 2434.9L3836.35 2443.95H3888.5L3943.44 2477.05L3972.38 2534.29L3975.25 3199.57L4007.15 3247.77L4091.03 3286.84H4241.5L4299.39 3280.87L4418.04 3289.91L4472.97 3250.75L4507.74 3199.57L4501.92 2925.57L4510.61 2829.27L4501.92 2781.07L4504.87 1269.91L4478.8 1206.7L4420.91 1182.55L4088.16 1179.57L4004.2 1200.64L3975.25 1272.89L3972.38 1387.29L3978.2 1438.47L3972.38 1561.9L3981.07 1619.06L3978.2 1853.9L3946.31 1914.12L3888.5 1947.22L3833.48 1938.18L3720.65 1950.21L3659.89 1944.24L3607.74 1950.21L3437.02 1947.22L3382.09 1920.09L3353.14 1862.94L3350.27 1796.75V1733.45L3347.32 1679.28L3350.27 1444.53L3356.01 1378.24L3350.27 1266.83L3324.2 1209.68L3263.44 1176.58L3199.81 1182.55L2913.31 1176.58L2849.6 1206.7L2820.65 1266.83L2814.91 1333.12L2820.65 1567.87L2814.91 1628.1L2826.47 1751.53L2820.65 1865.93L2823.6 1938.18L2817.78 1998.4V2898.53L2826.47 2952.7L2817.78 3199.57Z" fill="#FBBE25"/>
<path d="M8128.47 3292.89L8270.24 3286.83L8322.31 3289.9L8388.89 3283.85L8449.65 3259.79L8475.73 3196.58L8472.77 3136.35L8475.73 3070.07L8469.9 2958.75L8475.73 2901.51L8472.77 2832.24L8498.85 2778.08L8565.43 2744.98L8629.06 2738.92L8689.82 2751.04L8987.88 2726.89L9262.82 2612.5L9306.19 2576.42L9346.7 2528.22L9384.34 2489.07L9421.97 2443.94L9482.73 2347.63L9531.93 2230.17L9540.62 2163.97L9557.92 2115.78L9563.75 1868.9L9552.18 1817.81L9543.49 1751.53L9508.72 1640.12L9453.79 1537.84L9384.34 1438.46L9254.12 1321.08L9158.6 1254.8L9042.9 1218.72L8993.7 1197.65H8935.81L8877.92 1176.58L8791.09 1173.51L8698.51 1176.58L8634.88 1185.62L8458.34 1182.55L8400.45 1173.51L8221.04 1185.62L8157.42 1182.55L8105.35 1173.51L8044.5 1185.62L7983.74 1218.72L7957.75 1266.83L7960.62 1631.16L7949.06 1751.53L7954.8 1808.77L7951.93 2588.45L7957.75 2645.6L7954.8 3202.55L7986.7 3259.79L8076.4 3289.9L8128.47 3292.89ZM8562.48 2263.35L8504.67 2227.18L8478.6 2176L8469.9 1932.2L8475.73 1868.9V1745.56L8504.67 1688.32L8565.43 1658.2L8866.36 1667.25L8924.25 1694.37L8970.5 1727.47L9008.13 1766.63L9037.08 1826.76L9045.77 1881.02L9051.59 1965.3L9045.77 2046.6L9025.52 2100.76L8999.44 2148.96L8961.89 2197.07L8915.56 2233.24L8869.23 2248.25L8779.53 2260.28L8631.93 2257.3L8562.48 2263.35Z" fill="#FBBE25"/>
<path d="M12208.2 3323L12295.1 3313.96L12350 3316.94L12575.8 3256.72L12679.9 3199.57L12775.4 3133.28L12856.4 3049L12923 2943.65L12940.3 2883.43L12969.3 2832.24L12995.3 2705.82L13009.8 2561.32V1748.54L13004 1691.3L13009.8 1625.11L13004 1576.91V1327.05L13012.7 1266.83L12975.1 1203.62L12911.4 1182.55L12729.1 1188.61L12607.6 1179.56L12546.8 1209.68L12515 1275.87L12520.7 2462.03L12500.5 2648.67L12483.1 2693.8L12451.3 2754.02L12402.1 2790.1L12300.8 2829.26H12127.2L12060.6 2814.25L12011.4 2784.13L11965.2 2747.96L11930.4 2699.85L11913.1 2642.61L11895.8 2468L11904.4 1498.69L11898.6 1453.47L11904.4 1357.17L11898.6 1269.9L11863.9 1203.62L11803.1 1176.58H11748.2L11690.3 1185.62L11565.8 1173.51L11505 1182.55L11444.3 1206.69L11406.6 1263.84L11412.5 1324.07V1396.32L11406.6 1444.52L11415.3 1865.92L11406.6 1926.14L11412.5 1983.39L11403.8 2468L11421.2 2708.9L11450.1 2832.24L11496.3 2934.61L11562.9 3043.03L11597.7 3085.17L11641.1 3124.33L11733.6 3187.54L11791.5 3214.58L11834.9 3241.71L11944.9 3292.89L12057.8 3316.94H12115.7L12208.2 3323Z" fill="#FBBE25"/>
<path d="M14178.7 3295.87L14294.5 3289.9L14346.6 3259.79L14375.5 3202.55V2904.5L14340.8 2847.34L14277.1 2814.25H14216.4L14146.9 2790.1L14112.2 2720.92L14120.8 2663.68L14118 2332.53L14123.8 2266.34L14112.2 2049.58L14123.8 1745.56L14144 1676.29L14207.7 1649.16L14265.6 1640.12L14326.3 1616.06L14355.3 1567.87L14358.1 1269.9L14323.4 1212.66L14271.4 1179.56H13921.2L13869.1 1173.51L13811.2 1185.62H13574L13519 1176.58H13452.4L13394.6 1206.69L13365.6 1278.94L13374.3 1501.67L13368.5 1558.91L13400.3 1619.05L13464 1652.23H13521.8L13576.9 1688.32L13602.8 1769.61L13611.5 2693.8L13579.7 2784.13L13388.8 2844.36L13356.9 2898.53L13348.2 3175.51L13377.2 3256.72L13435.1 3283.85H13490L13545 3277.79L13628.9 3289.9L13718.6 3286.83L13776.5 3280.86L13892.3 3292.89L13979.1 3280.86H14120.8L14178.7 3295.87Z" fill="#FBBE25"/>
<path d="M1405.77 3307.9L1550.5 3319.92L1753.03 3304.91L1923.75 3268.83L1975.82 3238.72L2036.58 3217.65L2085.78 3193.5L2227.63 3088.15L2308.64 3003.87L2375.14 2913.54L2435.9 2805.2L2511.18 2576.42L2493.79 2522.25L2435.9 2483.09L2273.88 2495.12L2215.99 2486.08L2158.18 2489.06L2100.29 2486.08L2033.71 2522.25L1987.38 2570.36L1958.52 2627.6L1891.94 2705.82L1845.61 2747.96L1802.23 2766.05L1700.96 2823.29L1547.55 2832.24L1463.66 2823.29L1359.45 2784.13L1258.18 2729.96L1174.3 2651.65L1110.58 2546.3L1090.33 2486.08L1070.08 2443.94L1055.65 2389.77L1046.96 2323.49V2139.91L1067.21 2019.46L1110.58 1911.13L1139.53 1853.89L1208.98 1769.61L1278.43 1712.37L1356.58 1667.24L1550.5 1640.12L1674.89 1646.17L1764.59 1673.3L1816.66 1694.37L1857.17 1727.47L1941.13 1814.73L1972.95 1859.95L2027.97 1917.1L2094.47 1950.2L2146.53 1944.23L2207.38 1947.21L2265.18 1944.23L2346.2 1953.27L2433.03 1944.23L2482.23 1920.08L2502.48 1859.95L2485.1 1793.66L2464.85 1739.5L2447.55 1676.29L2415.65 1628.09L2389.66 1579.98L2349.15 1528.8L2317.34 1471.56L2236.24 1384.29L2039.53 1254.8L1761.72 1158.49L1706.7 1155.51L1648.81 1146.46L1469.4 1143.48L1188.73 1200.63L974.635 1305.98L890.668 1372.26L766.28 1489.64L688.137 1592.01L633.2 1679.27L560.795 1847.83L531.849 1971.27L502.904 2230.16L520.288 2450L560.795 2621.54L685.267 2883.42L803.917 3015.9L934.128 3133.28L1058.52 3202.55L1188.73 3259.79L1240.88 3271.81L1298.69 3292.88L1350.84 3304.91L1405.77 3307.9Z" fill="#FBBE25"/>
<mask id="mask2_12_606" style="mask-type:luminance" maskUnits="userSpaceOnUse" x="0" y="0" width="2153" height="1734">
<path d="M0 671.256L1782.53 0L2152.07 1061.93L369.536 1733.19L0 671.256Z" fill="white"/>
</mask>
<g mask="url(#mask2_12_606)">
<mask id="mask3_12_606" style="mask-type:luminance" maskUnits="userSpaceOnUse" x="0" y="0" width="2153" height="1734">
<path d="M0 671.256L1782.53 0L2152.07 1061.93L369.536 1733.19L0 671.256Z" fill="white"/>
</mask>
<g mask="url(#mask3_12_606)">
<path d="M789.789 1137.78C763.46 1159.11 746.076 1173.16 730.717 1178.86C729.198 1179.48 727.679 1179.92 726.244 1180.44L699.325 1187.64L715.865 1164.46C717.974 1161.57 739.072 1132.6 781.688 1092.04C751.983 1093.88 721.688 1100.46 690.97 1111.97C632.236 1134.09 593.417 1166.4 592.995 1166.75L579.156 1152.44C609.451 1112.93 649.789 1083.52 698.818 1065.08C755.105 1043.93 808.861 1042.26 837.637 1043.4C855.021 1029.35 874.43 1014.69 896.034 999.943C835.612 965.177 748.185 881.424 743.966 877.385L753.164 860.091C809.704 875.981 902.785 942 941.35 970.533C996.203 936.908 1061.69 903.372 1139.07 874.225C1162.95 865.27 1187.76 856.755 1212.57 849.204C1232.66 842.971 1252.15 837.352 1271.06 832.348C1286.5 793.193 1321.6 712.952 1365.15 672.831L1392.32 647.722L1381.01 683.629C1379.66 687.843 1355.27 765.363 1337.05 816.107C1389.96 804.343 1437.98 796.793 1481.01 792.403C1512.07 765.627 1569.71 721.204 1633 697.325C1643.88 693.198 1654.6 689.95 1664.98 687.404L1671.9 706.279C1671.06 706.806 1602.95 745.522 1558.23 787.75C1679.58 785.906 1744.73 812.595 1751.22 831.47C1754.01 839.372 1758.65 861.846 1764.9 893.188C1789.54 874.664 1830.38 839.459 1879.41 780.551C1962.36 680.644 1951.22 617.522 1903.88 542.372C1868.61 486.361 1805.23 445.538 1769.37 425.609C1773.08 446.767 1773.59 464.852 1769.87 477.23L1759.75 511.294L1751.06 476.792C1750.63 475.036 1704.05 296.116 1597.47 233.345C1547.26 203.759 1454.01 209.904 1348.1 249.762C1221.86 297.257 1097.97 385.049 1008.19 490.311L991.814 479.425C992.996 476.616 1009.54 438.339 1053.84 387.244C1025.57 378.991 972.405 371.178 905.401 396.462C871.899 409.016 838.312 428.594 805.569 454.668C649.536 578.367 546.244 845.781 545.147 848.502L526.413 842.971C527.172 838.582 538.396 776.249 576.708 689.423C552.236 691.618 513.839 697.325 475.105 711.898C439.324 725.418 410.126 743.942 388.354 766.68C313.164 845.429 301.181 1014.25 295.358 1180.36C289.62 1341.45 297.552 1367.7 380.337 1461.38C423.375 1509.93 454.008 1531.35 502.278 1513.17C545.316 1496.93 603.206 1450.84 708.945 1348.92L732.067 1326.7L725.316 1358.57C724.894 1360.68 715.696 1400.19 663.122 1459.27C675.021 1471.91 692.658 1492.28 713.755 1521.07C776.287 1442.41 923.239 1299.38 1188.47 1199.48C1196.91 1196.31 1222.39 1188.4 1230.92 1185.33C1482.14 1094.81 1686.33 1100.29 1758.73 1099.59C1742.11 1034.45 1725.57 965.529 1714.6 919.526C1709.45 898.28 1704.9 879.317 1702.95 871.855C1676.37 861.232 1463.21 820.321 1176.88 921.896C1166.84 925.408 1156.96 929.007 1147.34 932.694C952.236 1006.09 850.548 1088.52 789.789 1137.78ZM1758.06 379.518C1910.3 444.221 1980.42 571.782 1993.17 612.518C2008.1 659.925 1983.97 719.097 1901.18 838.582C1851.56 910.22 1805.91 941.737 1777.13 955.608C1786.75 1004.24 1797.98 1059.11 1809.96 1109.42C1826.84 1180.62 1747.26 1155.6 1702.36 1155.33C1637.89 1155.16 1574.6 1159.99 1510.72 1170.35C1409.37 1186.85 1308.44 1213.1 1212.74 1251.29C1078.31 1304.93 932.911 1385.26 824.81 1484.64C813.671 1494.91 699.156 1592.45 699.24 1592.8C672.658 1552.86 645.822 1516.42 627.257 1495.79C623.291 1499.48 619.325 1503.17 615.021 1506.94C571.223 1545.74 534.767 1570.24 503.628 1581.91C472.236 1593.77 444.894 1592.89 419.915 1579.37C378.818 1556.98 259.155 1417.92 249.619 1366.12C240.252 1314.59 232.911 891.169 320.421 773.264C351.223 731.827 399.493 698.378 464.134 674.06C519.493 653.165 572.236 644.474 599.831 640.962C625.485 590.833 659.578 535.436 704.557 479.689C758.903 412.44 823.291 364.506 895.949 337.203C981.941 304.807 1062.11 309.285 1111.73 329.214C1143.71 301.12 1183.46 271.798 1232.32 243.792C1269.11 222.722 1306.67 204.9 1343.97 190.854C1474.09 141.866 1598.14 140.725 1652.66 188.132C1692.15 222.546 1735.95 307.705 1758.06 379.518Z" fill="url(#paint6_linear_12_606)"/>
</g>
</g>
<path fill-rule="evenodd" clip-rule="evenodd" d="M10006.6 2029.66C10170.1 2546.83 10798.6 2360.27 10886.8 2838.38C10942.1 3138.11 10417.2 3222.02 10120.4 3087.32C9976.32 3021.95 9899.31 2950.15 9825.72 2816.62C9752.3 2683.28 9731.85 2525.3 9790.55 2371.14C9812.71 2312.89 9960.79 2064.03 10006.6 2029.7L10006.6 2029.66ZM11047.1 2737.78C10984.5 2575.37 10929.2 2502.55 10803.6 2419.58C10582.6 2273.64 10185.2 2248.77 10175.4 1915.93C10170 1731.45 10254.3 1636.71 10325.5 1519.31C10357 1467.41 10406.1 1361.63 10476.8 1459.39L10802.8 1966.15C10945.1 2181.25 11184.9 2481.28 11047.1 2737.74V2737.78ZM10228.2 1322.23C10209.9 1388.99 9746.05 2081.36 9662.96 2220.76C9432.9 2606.6 9666.13 3032.17 9957.33 3194.05C10617.3 3560.92 11314.9 3054.99 11268.9 2526.24C11247.2 2276.51 11157.7 2196.65 11051.6 2023.34C10934.5 1835.19 10805.6 1633.46 10680.1 1443.27C10492.7 1159.1 10451.2 997.821 10277.7 1261.59C10253.7 1298.15 10259.6 1297.78 10228.3 1322.23H10228.2Z" fill="url(#paint7_linear_12_606)"/>
<defs>
<linearGradient id="paint0_linear_12_606" x1="5914.11" y1="1264.17" x2="5914.11" y2="2201.98" gradientUnits="userSpaceOnUse">
<stop stop-color="#F4C607"/>
<stop offset="1" stop-color="#FFA430"/>
</linearGradient>
<linearGradient id="paint1_linear_12_606" x1="5905.92" y1="2112.22" x2="5905.92" y2="3318.41" gradientUnits="userSpaceOnUse">
<stop stop-color="#07C9F4"/>
<stop offset="1" stop-color="#073DC7"/>
</linearGradient>
<linearGradient id="paint2_linear_12_606" x1="6423.85" y1="2040.34" x2="6423.85" y2="2839.26" gradientUnits="userSpaceOnUse">
<stop stop-color="#F4C607"/>
<stop offset="1" stop-color="#FFA430"/>
</linearGradient>
<linearGradient id="paint3_linear_12_606" x1="5323.82" y1="2007.04" x2="5323.82" y2="2667.46" gradientUnits="userSpaceOnUse">
<stop stop-color="#F4C607"/>
<stop offset="1" stop-color="#FFA430"/>
</linearGradient>
<linearGradient id="paint4_linear_12_606" x1="5461.09" y1="2566.59" x2="5461.09" y2="3152.5" gradientUnits="userSpaceOnUse">
<stop stop-color="#07C9F4"/>
<stop offset="1" stop-color="#073DC7"/>
</linearGradient>
<linearGradient id="paint5_linear_12_606" x1="5605.62" y1="3068.75" x2="5605.62" y2="3272.77" gradientUnits="userSpaceOnUse">
<stop stop-color="#F4C607"/>
<stop offset="1" stop-color="#FFA430"/>
</linearGradient>
<linearGradient id="paint6_linear_12_606" x1="1120.78" y1="153.33" x2="1120.78" y2="1592.8" gradientUnits="userSpaceOnUse">
<stop stop-color="#0A1122"/>
<stop offset="1" stop-color="#040B1A"/>
<stop offset="1" stop-color="#051029"/>
</linearGradient>
<linearGradient id="paint7_linear_12_606" x1="10420.4" y1="1127.86" x2="10420.4" y2="3319.14" gradientUnits="userSpaceOnUse">
<stop stop-color="#F4C607"/>
<stop offset="1" stop-color="#FFA430"/>
</linearGradient>
</defs>
</svg>
