<svg width="14" height="11" viewBox="0 0 14 11" fill="none" xmlns="http://www.w3.org/2000/svg">
<path d="M11.1916 0.942625C10.3502 0.556373 9.4622 0.280942 8.5499 0.123228C8.54161 0.121694 8.53304 0.122812 8.52542 0.126424C8.51781 0.130035 8.51152 0.135956 8.50746 0.143344C8.39338 0.346198 8.26697 0.610959 8.17852 0.819005C7.18093 0.669622 6.18853 0.669622 5.21144 0.819005C5.12293 0.606287 4.99197 0.346198 4.87737 0.143344C4.87313 0.136107 4.86681 0.130317 4.85923 0.126728C4.85164 0.12314 4.84316 0.12192 4.83487 0.123228C3.92249 0.280623 3.03446 0.556067 2.19316 0.942625C2.18596 0.945682 2.17989 0.950897 2.17577 0.95755C0.493241 3.47122 0.0323752 5.92312 0.25846 8.34465C0.25909 8.35058 0.260908 8.35633 0.263807 8.36155C0.266705 8.36677 0.270625 8.37135 0.275333 8.37502C1.38538 9.19026 2.46071 9.6852 3.51606 10.0132C3.52427 10.0157 3.53303 10.0156 3.54117 10.0129C3.54931 10.0102 3.55645 10.0051 3.56161 9.9983C3.81126 9.65736 4.03377 9.29792 4.22462 8.91992C4.22725 8.91474 4.22875 8.90907 4.22902 8.90327C4.2293 8.89747 4.22834 8.89167 4.22621 8.88627C4.22408 8.88087 4.22084 8.87598 4.21668 8.87193C4.21252 8.86787 4.20756 8.86474 4.2021 8.86275C3.84909 8.72881 3.51301 8.56561 3.18972 8.38021C3.18383 8.37674 3.17888 8.37188 3.17532 8.36604C3.17175 8.36022 3.16968 8.3536 3.16927 8.34677C3.16887 8.33995 3.17015 8.33314 3.173 8.32693C3.17585 8.32071 3.18019 8.3153 3.18563 8.31116C3.25383 8.26018 3.32086 8.20764 3.38666 8.1536C3.39243 8.14884 3.3994 8.14578 3.40681 8.14477C3.41422 8.14376 3.42176 8.14484 3.42859 8.14789C5.55264 9.11765 7.85211 9.11765 9.95105 8.14789C9.9579 8.14465 9.96553 8.14341 9.97306 8.14433C9.98058 8.14525 9.98769 8.14828 9.99356 8.15308C10.0594 8.20743 10.1266 8.26014 10.1951 8.31116C10.2006 8.31526 10.2049 8.32064 10.2078 8.32683C10.2107 8.33301 10.2121 8.33982 10.2117 8.34664C10.2114 8.35346 10.2093 8.36008 10.2058 8.36594C10.2023 8.37179 10.1974 8.37669 10.1915 8.38021C9.86807 8.56908 9.52923 8.73033 9.17864 8.86223C9.17319 8.86431 9.16825 8.86752 9.16413 8.87164C9.16001 8.87576 9.15681 8.88071 9.15473 8.88615C9.15266 8.8916 9.15175 8.89742 9.15208 8.90324C9.15241 8.90906 9.15396 8.91474 9.15664 8.91992C9.3508 9.29492 9.5722 9.65517 9.81906 9.99778C9.82409 10.0048 9.83119 10.0101 9.83936 10.0128C9.84753 10.0156 9.85636 10.0157 9.86462 10.0132C10.9251 9.6852 12.0004 9.19026 13.1105 8.37502C13.1153 8.37151 13.1193 8.36704 13.1222 8.3619C13.1251 8.35675 13.1269 8.35105 13.1274 8.34517C13.398 5.54564 12.6741 3.1138 11.2085 0.958069C11.2049 0.951065 11.1989 0.945584 11.1916 0.942625ZM4.54182 6.87023C3.9023 6.87023 3.37537 6.28314 3.37537 5.56212C3.37537 4.8411 3.89211 4.25402 4.54182 4.25402C5.19658 4.25402 5.71838 4.84629 5.70813 5.56212C5.70813 6.28314 5.19152 6.87023 4.54182 6.87023ZM8.85431 6.87023C8.21479 6.87023 7.68793 6.28314 7.68793 5.56212C7.68793 4.8411 8.2046 4.25402 8.85431 4.25402C9.50907 4.25402 10.0309 4.84629 10.0207 5.56212C10.0207 6.28314 9.50907 6.87023 8.85431 6.87023Z" fill="white"/>
</svg>
