<svg width="396" height="416" viewBox="0 0 396 416" fill="none" xmlns="http://www.w3.org/2000/svg">
<g opacity="0.1">
<path opacity="0.04" d="M314.729 351.311C332.243 351.311 346.441 343.357 346.441 333.545C346.441 323.733 332.243 315.779 314.729 315.779C297.215 315.779 283.017 323.733 283.017 333.545C283.017 343.357 297.215 351.311 314.729 351.311Z" fill="#190C00"/>
<path opacity="0.08" d="M314.729 350.964C331.9 350.964 345.819 343.165 345.819 333.545C345.819 323.925 331.9 316.126 314.729 316.126C297.559 316.126 283.639 323.925 283.639 333.545C283.639 343.165 297.559 350.964 314.729 350.964Z" fill="#190C00"/>
<path opacity="0.13" d="M314.729 350.614C331.556 350.614 345.197 342.972 345.197 333.545C345.197 324.118 331.556 316.476 314.729 316.476C297.902 316.476 284.261 324.118 284.261 333.545C284.261 342.972 297.902 350.614 314.729 350.614Z" fill="#190C00"/>
<path opacity="0.17" d="M314.729 350.267C331.213 350.267 344.575 342.78 344.575 333.545C344.575 324.31 331.213 316.823 314.729 316.823C298.246 316.823 284.883 324.31 284.883 333.545C284.883 342.78 298.246 350.267 314.729 350.267Z" fill="#190C00"/>
<path opacity="0.21" d="M314.729 349.917C330.869 349.917 343.953 342.587 343.953 333.545C343.953 324.503 330.869 317.173 314.729 317.173C298.589 317.173 285.505 324.503 285.505 333.545C285.505 342.587 298.589 349.917 314.729 349.917Z" fill="#190C00"/>
<path opacity="0.25" d="M314.729 349.57C330.526 349.57 343.331 342.395 343.331 333.545C343.331 324.695 330.526 317.52 314.729 317.52C298.933 317.52 286.127 324.695 286.127 333.545C286.127 342.395 298.933 349.57 314.729 349.57Z" fill="#190C00"/>
<path opacity="0.29" d="M314.729 349.22C330.182 349.22 342.709 342.202 342.709 333.545C342.709 324.888 330.182 317.869 314.729 317.869C299.276 317.869 286.749 324.888 286.749 333.545C286.749 342.202 299.276 349.22 314.729 349.22Z" fill="#190C00"/>
<path opacity="0.33" d="M314.729 348.873C329.839 348.873 342.087 342.011 342.087 333.545C342.087 325.08 329.839 318.217 314.729 318.217C299.62 318.217 287.371 325.08 287.371 333.545C287.371 342.011 299.62 348.873 314.729 348.873Z" fill="#190C00"/>
<path opacity="0.38" d="M314.729 348.524C329.495 348.524 341.465 341.818 341.465 333.545C341.465 325.273 329.495 318.566 314.729 318.566C299.963 318.566 287.993 325.273 287.993 333.545C287.993 341.818 299.963 348.524 314.729 348.524Z" fill="#190C00"/>
<path opacity="0.42" d="M314.729 348.176C329.152 348.176 340.844 341.626 340.844 333.545C340.844 325.464 329.152 318.914 314.729 318.914C300.307 318.914 288.615 325.464 288.615 333.545C288.615 341.626 300.307 348.176 314.729 348.176Z" fill="#190C00"/>
<path opacity="0.46" d="M314.729 347.827C328.808 347.827 340.222 341.433 340.222 333.545C340.222 325.657 328.808 319.263 314.729 319.263C300.65 319.263 289.237 325.657 289.237 333.545C289.237 341.433 300.65 347.827 314.729 347.827Z" fill="#190C00"/>
<path opacity="0.5" d="M314.729 347.478C328.465 347.478 339.6 341.24 339.6 333.545C339.6 325.85 328.465 319.613 314.729 319.613C300.994 319.613 289.859 325.85 289.859 333.545C289.859 341.24 300.994 347.478 314.729 347.478Z" fill="#190C00"/>
<path opacity="0.54" d="M314.729 347.13C328.121 347.13 338.978 341.048 338.978 333.545C338.978 326.042 328.121 319.96 314.729 319.96C301.337 319.96 290.481 326.042 290.481 333.545C290.481 341.048 301.337 347.13 314.729 347.13Z" fill="#190C00"/>
<path opacity="0.58" d="M314.729 346.781C327.778 346.781 338.356 340.855 338.356 333.545C338.356 326.235 327.778 320.309 314.729 320.309C301.681 320.309 291.103 326.235 291.103 333.545C291.103 340.855 301.681 346.781 314.729 346.781Z" fill="#190C00"/>
<path opacity="0.63" d="M314.729 346.433C327.434 346.433 337.734 340.663 337.734 333.545C337.734 326.427 327.434 320.657 314.729 320.657C302.024 320.657 291.725 326.427 291.725 333.545C291.725 340.663 302.024 346.433 314.729 346.433Z" fill="#190C00"/>
<path opacity="0.67" d="M314.729 346.084C327.091 346.084 337.112 340.47 337.112 333.545C337.112 326.62 327.091 321.006 314.729 321.006C302.368 321.006 292.347 326.62 292.347 333.545C292.347 340.47 302.368 346.084 314.729 346.084Z" fill="#190C00"/>
<path opacity="0.71" d="M314.729 345.737C326.747 345.737 336.49 340.278 336.49 333.545C336.49 326.812 326.747 321.354 314.729 321.354C302.711 321.354 292.969 326.812 292.969 333.545C292.969 340.278 302.711 345.737 314.729 345.737Z" fill="#190C00"/>
<path opacity="0.75" d="M314.729 345.387C326.404 345.387 335.868 340.085 335.868 333.545C335.868 327.005 326.404 321.703 314.729 321.703C303.055 321.703 293.59 327.005 293.59 333.545C293.59 340.085 303.055 345.387 314.729 345.387Z" fill="#190C00"/>
<path opacity="0.79" d="M314.729 345.04C326.06 345.04 335.246 339.893 335.246 333.545C335.246 327.197 326.06 322.051 314.729 322.051C303.398 322.051 294.212 327.197 294.212 333.545C294.212 339.893 303.398 345.04 314.729 345.04Z" fill="#190C00"/>
<path opacity="0.83" d="M314.729 344.69C325.717 344.69 334.624 339.7 334.624 333.545C334.624 327.39 325.717 322.4 314.729 322.4C303.742 322.4 294.834 327.39 294.834 333.545C294.834 339.7 303.742 344.69 314.729 344.69Z" fill="#190C00"/>
<path opacity="0.88" d="M314.729 344.343C325.373 344.343 334.002 339.509 334.002 333.545C334.002 327.582 325.373 322.747 314.729 322.747C304.085 322.747 295.456 327.582 295.456 333.545C295.456 339.509 304.085 344.343 314.729 344.343Z" fill="#190C00"/>
<path opacity="0.92" d="M314.729 343.994C325.03 343.994 333.38 339.316 333.38 333.545C333.38 327.775 325.03 323.097 314.729 323.097C304.429 323.097 296.078 327.775 296.078 333.545C296.078 339.316 304.429 343.994 314.729 343.994Z" fill="#190C00"/>
<path opacity="0.96" d="M314.729 343.646C324.686 343.646 332.758 339.124 332.758 333.545C332.758 327.966 324.686 323.444 314.729 323.444C304.772 323.444 296.7 327.966 296.7 333.545C296.7 339.124 304.772 343.646 314.729 343.646Z" fill="#190C00"/>
<path d="M314.729 343.297C324.343 343.297 332.136 338.931 332.136 333.545C332.136 328.159 324.343 323.793 314.729 323.793C305.116 323.793 297.322 328.159 297.322 333.545C297.322 338.931 305.116 343.297 314.729 343.297Z" fill="#190C00"/>
</g>
<g opacity="0.17">
<path opacity="0.04" d="M183.808 345.345C227.647 345.345 263.186 325.436 263.186 300.876C263.186 276.316 227.647 256.406 183.808 256.406C139.969 256.406 104.431 276.316 104.431 300.876C104.431 325.436 139.969 345.345 183.808 345.345Z" fill="#190C00"/>
<path opacity="0.08" d="M183.808 344.474C226.787 344.474 261.629 324.954 261.629 300.875C261.629 276.797 226.787 257.277 183.808 257.277C140.829 257.277 105.987 276.797 105.987 300.875C105.987 324.954 140.829 344.474 183.808 344.474Z" fill="#190C00"/>
<path opacity="0.13" d="M183.808 343.602C225.928 343.602 260.072 324.473 260.072 300.876C260.072 277.278 225.928 258.149 183.808 258.149C141.689 258.149 107.544 277.278 107.544 300.876C107.544 324.473 141.689 343.602 183.808 343.602Z" fill="#190C00"/>
<path opacity="0.17" d="M183.808 342.729C225.068 342.729 258.515 323.99 258.515 300.875C258.515 277.761 225.068 259.022 183.808 259.022C142.548 259.022 109.101 277.761 109.101 300.875C109.101 323.99 142.548 342.729 183.808 342.729Z" fill="#190C00"/>
<path opacity="0.21" d="M183.808 341.857C224.208 341.857 256.959 323.509 256.959 300.875C256.959 278.242 224.208 259.894 183.808 259.894C143.408 259.894 110.658 278.242 110.658 300.875C110.658 323.509 143.408 341.857 183.808 341.857Z" fill="#190C00"/>
<path opacity="0.25" d="M183.808 340.986C223.348 340.986 255.402 323.028 255.402 300.876C255.402 278.723 223.348 260.765 183.808 260.765C144.268 260.765 112.214 278.723 112.214 300.876C112.214 323.028 144.268 340.986 183.808 340.986Z" fill="#190C00"/>
<path opacity="0.29" d="M183.808 340.112C222.488 340.112 253.845 322.546 253.845 300.876C253.845 279.206 222.488 261.639 183.808 261.639C145.128 261.639 113.771 279.206 113.771 300.876C113.771 322.546 145.128 340.112 183.808 340.112Z" fill="#190C00"/>
<path opacity="0.33" d="M183.808 339.241C221.629 339.241 252.288 322.064 252.288 300.876C252.288 279.687 221.629 262.51 183.808 262.51C145.988 262.51 115.328 279.687 115.328 300.876C115.328 322.064 145.988 339.241 183.808 339.241Z" fill="#190C00"/>
<path opacity="0.38" d="M183.808 338.369C220.769 338.369 250.731 321.583 250.731 300.876C250.731 280.168 220.769 263.382 183.808 263.382C146.847 263.382 116.885 280.168 116.885 300.876C116.885 321.583 146.847 338.369 183.808 338.369Z" fill="#190C00"/>
<path opacity="0.42" d="M183.808 337.496C219.909 337.496 249.175 321.1 249.175 300.875C249.175 280.651 219.909 264.255 183.808 264.255C147.707 264.255 118.442 280.651 118.442 300.875C118.442 321.1 147.707 337.496 183.808 337.496Z" fill="#190C00"/>
<path opacity="0.46" d="M183.808 336.624C219.049 336.624 247.618 320.619 247.618 300.876C247.618 281.132 219.049 265.127 183.808 265.127C148.567 265.127 119.998 281.132 119.998 300.876C119.998 320.619 148.567 336.624 183.808 336.624Z" fill="#190C00"/>
<path opacity="0.5" d="M183.808 335.751C218.189 335.751 246.061 320.137 246.061 300.875C246.061 281.614 218.189 266 183.808 266C149.427 266 121.555 281.614 121.555 300.875C121.555 320.137 149.427 335.751 183.808 335.751Z" fill="#190C00"/>
<path opacity="0.54" d="M183.808 334.879C217.33 334.879 244.504 319.655 244.504 300.876C244.504 282.096 217.33 266.872 183.808 266.872C150.287 266.872 123.112 282.096 123.112 300.876C123.112 319.655 150.287 334.879 183.808 334.879Z" fill="#190C00"/>
<path opacity="0.58" d="M183.808 334.008C216.47 334.008 242.947 319.174 242.947 300.876C242.947 282.577 216.47 267.743 183.808 267.743C151.146 267.743 124.669 282.577 124.669 300.876C124.669 319.174 151.146 334.008 183.808 334.008Z" fill="#190C00"/>
<path opacity="0.63" d="M183.808 333.134C215.61 333.134 241.391 318.692 241.391 300.875C241.391 283.059 215.61 268.616 183.808 268.616C152.006 268.616 126.226 283.059 126.226 300.875C126.226 318.692 152.006 333.134 183.808 333.134Z" fill="#190C00"/>
<path opacity="0.67" d="M183.808 332.263C214.75 332.263 239.834 318.21 239.834 300.876C239.834 283.541 214.75 269.488 183.808 269.488C152.866 269.488 127.782 283.541 127.782 300.876C127.782 318.21 152.866 332.263 183.808 332.263Z" fill="#190C00"/>
<path opacity="0.71" d="M183.808 331.392C213.89 331.392 238.277 317.729 238.277 300.876C238.277 284.022 213.89 270.36 183.808 270.36C153.726 270.36 129.339 284.022 129.339 300.876C129.339 317.729 153.726 331.392 183.808 331.392Z" fill="#190C00"/>
<path opacity="0.75" d="M183.808 330.518C213.031 330.518 236.72 317.247 236.72 300.875C236.72 284.504 213.031 271.233 183.808 271.233C154.586 271.233 130.896 284.504 130.896 300.875C130.896 317.247 154.586 330.518 183.808 330.518Z" fill="#190C00"/>
<path opacity="0.79" d="M183.808 329.647C212.171 329.647 235.163 316.765 235.163 300.876C235.163 284.986 212.171 272.104 183.808 272.104C155.445 272.104 132.453 284.986 132.453 300.876C132.453 316.765 155.445 329.647 183.808 329.647Z" fill="#190C00"/>
<path opacity="0.83" d="M183.808 328.775C211.311 328.775 233.607 316.284 233.607 300.875C233.607 285.467 211.311 272.976 183.808 272.976C156.305 272.976 134.01 285.467 134.01 300.875C134.01 316.284 156.305 328.775 183.808 328.775Z" fill="#190C00"/>
<path opacity="0.88" d="M183.808 327.902C210.451 327.902 232.05 315.802 232.05 300.876C232.05 285.949 210.451 273.849 183.808 273.849C157.165 273.849 135.567 285.949 135.567 300.876C135.567 315.802 157.165 327.902 183.808 327.902Z" fill="#190C00"/>
<path opacity="0.92" d="M183.808 327.03C209.591 327.03 230.493 315.32 230.493 300.876C230.493 286.431 209.591 274.721 183.808 274.721C158.025 274.721 137.123 286.431 137.123 300.876C137.123 315.32 158.025 327.03 183.808 327.03Z" fill="#190C00"/>
<path opacity="0.96" d="M183.808 326.159C208.732 326.159 228.936 314.839 228.936 300.876C228.936 286.912 208.732 275.593 183.808 275.593C158.885 275.593 138.68 286.912 138.68 300.876C138.68 314.839 158.885 326.159 183.808 326.159Z" fill="#190C00"/>
<path d="M183.808 325.285C207.872 325.285 227.379 314.357 227.379 300.876C227.379 287.394 207.872 276.466 183.808 276.466C159.744 276.466 140.237 287.394 140.237 300.876C140.237 314.357 159.744 325.285 183.808 325.285Z" fill="#190C00"/>
</g>
<g opacity="0.1">
<path opacity="0.04" d="M363.506 254.025C381.02 254.025 395.218 246.071 395.218 236.259C395.218 226.448 381.02 218.493 363.506 218.493C345.992 218.493 331.795 226.448 331.795 236.259C331.795 246.071 345.992 254.025 363.506 254.025Z" fill="#190C00"/>
<path opacity="0.08" d="M363.506 253.678C380.677 253.678 394.596 245.88 394.596 236.26C394.596 226.64 380.677 218.841 363.506 218.841C346.336 218.841 332.416 226.64 332.416 236.26C332.416 245.88 346.336 253.678 363.506 253.678Z" fill="#190C00"/>
<path opacity="0.13" d="M363.506 253.328C380.333 253.328 393.974 245.686 393.974 236.259C393.974 226.832 380.333 219.19 363.506 219.19C346.679 219.19 333.038 226.832 333.038 236.259C333.038 245.686 346.679 253.328 363.506 253.328Z" fill="#190C00"/>
<path opacity="0.17" d="M363.506 252.981C379.99 252.981 393.352 245.495 393.352 236.26C393.352 227.024 379.99 219.538 363.506 219.538C347.023 219.538 333.66 227.024 333.66 236.26C333.66 245.495 347.023 252.981 363.506 252.981Z" fill="#190C00"/>
<path opacity="0.21" d="M363.506 252.632C379.646 252.632 392.731 245.302 392.731 236.26C392.731 227.217 379.646 219.887 363.506 219.887C347.366 219.887 334.282 227.217 334.282 236.26C334.282 245.302 347.366 252.632 363.506 252.632Z" fill="#190C00"/>
<path opacity="0.25" d="M363.506 252.284C379.303 252.284 392.108 245.11 392.108 236.259C392.108 227.409 379.303 220.235 363.506 220.235C347.71 220.235 334.904 227.409 334.904 236.259C334.904 245.11 347.71 252.284 363.506 252.284Z" fill="#190C00"/>
<path opacity="0.29" d="M363.506 251.935C378.959 251.935 391.487 244.917 391.487 236.26C391.487 227.602 378.959 220.584 363.506 220.584C348.053 220.584 335.526 227.602 335.526 236.26C335.526 244.917 348.053 251.935 363.506 251.935Z" fill="#190C00"/>
<path opacity="0.33" d="M363.506 251.588C378.616 251.588 390.865 244.725 390.865 236.259C390.865 227.794 378.616 220.931 363.506 220.931C348.397 220.931 336.148 227.794 336.148 236.259C336.148 244.725 348.397 251.588 363.506 251.588Z" fill="#190C00"/>
<path opacity="0.38" d="M363.506 251.238C378.272 251.238 390.243 244.532 390.243 236.259C390.243 227.987 378.272 221.281 363.506 221.281C348.74 221.281 336.77 227.987 336.77 236.259C336.77 244.532 348.74 251.238 363.506 251.238Z" fill="#190C00"/>
<path opacity="0.42" d="M363.506 250.891C377.929 250.891 389.621 244.34 389.621 236.259C389.621 228.179 377.929 221.628 363.506 221.628C349.084 221.628 337.392 228.179 337.392 236.259C337.392 244.34 349.084 250.891 363.506 250.891Z" fill="#190C00"/>
<path opacity="0.46" d="M363.506 250.542C377.585 250.542 388.999 244.147 388.999 236.26C388.999 228.372 377.585 221.978 363.506 221.978C349.427 221.978 338.014 228.372 338.014 236.26C338.014 244.147 349.427 250.542 363.506 250.542Z" fill="#190C00"/>
<path opacity="0.5" d="M363.506 250.192C377.242 250.192 388.377 243.954 388.377 236.259C388.377 228.565 377.242 222.327 363.506 222.327C349.771 222.327 338.636 228.565 338.636 236.259C338.636 243.954 349.771 250.192 363.506 250.192Z" fill="#190C00"/>
<path opacity="0.54" d="M363.506 249.845C376.898 249.845 387.755 243.762 387.755 236.26C387.755 228.757 376.898 222.675 363.506 222.675C350.114 222.675 339.258 228.757 339.258 236.26C339.258 243.762 350.114 249.845 363.506 249.845Z" fill="#190C00"/>
<path opacity="0.58" d="M363.506 249.495C376.555 249.495 387.133 243.569 387.133 236.259C387.133 228.95 376.555 223.024 363.506 223.024C350.458 223.024 339.88 228.95 339.88 236.259C339.88 243.569 350.458 249.495 363.506 249.495Z" fill="#190C00"/>
<path opacity="0.63" d="M363.506 249.148C376.211 249.148 386.511 243.378 386.511 236.26C386.511 229.142 376.211 223.371 363.506 223.371C350.801 223.371 340.502 229.142 340.502 236.26C340.502 243.378 350.801 249.148 363.506 249.148Z" fill="#190C00"/>
<path opacity="0.67" d="M363.506 248.798C375.868 248.798 385.889 243.184 385.889 236.259C385.889 229.334 375.868 223.72 363.506 223.72C351.145 223.72 341.124 229.334 341.124 236.259C341.124 243.184 351.145 248.798 363.506 248.798Z" fill="#190C00"/>
<path opacity="0.71" d="M363.506 248.451C375.524 248.451 385.267 242.993 385.267 236.26C385.267 229.526 375.524 224.068 363.506 224.068C351.488 224.068 341.746 229.526 341.746 236.26C341.746 242.993 351.488 248.451 363.506 248.451Z" fill="#190C00"/>
<path opacity="0.75" d="M363.506 248.102C375.181 248.102 384.645 242.8 384.645 236.26C384.645 229.719 375.181 224.417 363.506 224.417C351.832 224.417 342.368 229.719 342.368 236.26C342.368 242.8 351.832 248.102 363.506 248.102Z" fill="#190C00"/>
<path opacity="0.79" d="M363.506 247.754C374.837 247.754 384.023 242.608 384.023 236.26C384.023 229.911 374.837 224.765 363.506 224.765C352.175 224.765 342.99 229.911 342.99 236.26C342.99 242.608 352.175 247.754 363.506 247.754Z" fill="#190C00"/>
<path opacity="0.83" d="M363.506 247.405C374.494 247.405 383.401 242.415 383.401 236.26C383.401 230.104 374.494 225.114 363.506 225.114C352.519 225.114 343.612 230.104 343.612 236.26C343.612 242.415 352.519 247.405 363.506 247.405Z" fill="#190C00"/>
<path opacity="0.88" d="M363.506 247.057C374.15 247.057 382.779 242.223 382.779 236.259C382.779 230.296 374.15 225.462 363.506 225.462C352.862 225.462 344.234 230.296 344.234 236.259C344.234 242.223 352.862 247.057 363.506 247.057Z" fill="#190C00"/>
<path opacity="0.92" d="M363.506 246.708C373.807 246.708 382.157 242.03 382.157 236.259C382.157 230.489 373.807 225.811 363.506 225.811C353.206 225.811 344.855 230.489 344.855 236.259C344.855 242.03 353.206 246.708 363.506 246.708Z" fill="#190C00"/>
<path opacity="0.96" d="M363.506 246.36C373.463 246.36 381.535 241.838 381.535 236.259C381.535 230.681 373.463 226.158 363.506 226.158C353.549 226.158 345.477 230.681 345.477 236.259C345.477 241.838 353.549 246.36 363.506 246.36Z" fill="#190C00"/>
<path d="M363.506 246.011C373.12 246.011 380.913 241.645 380.913 236.259C380.913 230.874 373.12 226.508 363.506 226.508C353.893 226.508 346.099 230.874 346.099 236.259C346.099 241.645 353.893 246.011 363.506 246.011Z" fill="#190C00"/>
</g>
<g opacity="0.1">
<path opacity="0.04" d="M190.65 72.4287C208.164 72.4287 222.362 64.4746 222.362 54.6627C222.362 44.8508 208.164 36.8967 190.65 36.8967C173.136 36.8967 158.938 44.8508 158.938 54.6627C158.938 64.4746 173.136 72.4287 190.65 72.4287Z" fill="#190C00"/>
<path opacity="0.08" d="M190.65 72.0809C207.82 72.0809 221.74 64.2824 221.74 54.6624C221.74 45.0424 207.82 37.2439 190.65 37.2439C173.479 37.2439 159.56 45.0424 159.56 54.6624C159.56 64.2824 173.479 72.0809 190.65 72.0809Z" fill="#190C00"/>
<path opacity="0.13" d="M190.65 71.7318C207.477 71.7318 221.118 64.0897 221.118 54.6627C221.118 45.2356 207.477 37.5935 190.65 37.5935C173.823 37.5935 160.182 45.2356 160.182 54.6627C160.182 64.0897 173.823 71.7318 190.65 71.7318Z" fill="#190C00"/>
<path opacity="0.17" d="M190.65 71.3843C207.133 71.3843 220.496 63.8978 220.496 54.6626C220.496 45.4275 207.133 37.9409 190.65 37.9409C174.166 37.9409 160.804 45.4275 160.804 54.6626C160.804 63.8978 174.166 71.3843 190.65 71.3843Z" fill="#190C00"/>
<path opacity="0.21" d="M190.65 71.0349C206.79 71.0349 219.874 63.7048 219.874 54.6626C219.874 45.6204 206.79 38.2903 190.65 38.2903C174.51 38.2903 161.426 45.6204 161.426 54.6626C161.426 63.7048 174.51 71.0349 190.65 71.0349Z" fill="#190C00"/>
<path opacity="0.25" d="M190.65 70.6875C206.446 70.6875 219.252 63.5129 219.252 54.6626C219.252 45.8123 206.446 38.6377 190.65 38.6377C174.853 38.6377 162.047 45.8123 162.047 54.6626C162.047 63.5129 174.853 70.6875 190.65 70.6875Z" fill="#190C00"/>
<path opacity="0.29" d="M190.65 70.3381C206.103 70.3381 218.63 63.3199 218.63 54.6626C218.63 46.0052 206.103 38.9871 190.65 38.9871C175.197 38.9871 162.669 46.0052 162.669 54.6626C162.669 63.3199 175.197 70.3381 190.65 70.3381Z" fill="#190C00"/>
<path opacity="0.33" d="M190.65 69.9906C205.759 69.9906 218.008 63.128 218.008 54.6625C218.008 46.1971 205.759 39.3345 190.65 39.3345C175.54 39.3345 163.291 46.1971 163.291 54.6625C163.291 63.128 175.54 69.9906 190.65 69.9906Z" fill="#190C00"/>
<path opacity="0.38" d="M190.65 69.6412C205.416 69.6412 217.386 62.935 217.386 54.6625C217.386 46.39 205.416 39.6838 190.65 39.6838C175.884 39.6838 163.913 46.39 163.913 54.6625C163.913 62.935 175.884 69.6412 190.65 69.6412Z" fill="#190C00"/>
<path opacity="0.42" d="M190.65 69.294C205.072 69.294 216.764 62.7434 216.764 54.6627C216.764 46.5821 205.072 40.0315 190.65 40.0315C176.227 40.0315 164.535 46.5821 164.535 54.6627C164.535 62.7434 176.227 69.294 190.65 69.294Z" fill="#190C00"/>
<path opacity="0.46" d="M190.65 68.9444C204.729 68.9444 216.142 62.5502 216.142 54.6625C216.142 46.7748 204.729 40.3806 190.65 40.3806C176.571 40.3806 165.157 46.7748 165.157 54.6625C165.157 62.5502 176.571 68.9444 190.65 68.9444Z" fill="#190C00"/>
<path opacity="0.5" d="M190.65 68.5952C204.385 68.5952 215.52 62.3574 215.52 54.6627C215.52 46.968 204.385 40.7302 190.65 40.7302C176.914 40.7302 165.779 46.968 165.779 54.6627C165.779 62.3574 176.914 68.5952 190.65 68.5952Z" fill="#190C00"/>
<path opacity="0.54" d="M190.65 68.2475C204.042 68.2475 214.898 62.1653 214.898 54.6625C214.898 47.1596 204.042 41.0774 190.65 41.0774C177.258 41.0774 166.401 47.1596 166.401 54.6625C166.401 62.1653 177.258 68.2475 190.65 68.2475Z" fill="#190C00"/>
<path opacity="0.58" d="M190.65 67.8984C203.698 67.8984 214.276 61.9726 214.276 54.6627C214.276 47.3528 203.698 41.427 190.65 41.427C177.601 41.427 167.023 47.3528 167.023 54.6627C167.023 61.9726 177.601 67.8984 190.65 67.8984Z" fill="#190C00"/>
<path opacity="0.63" d="M190.65 67.5509C203.355 67.5509 213.654 61.7806 213.654 54.6627C213.654 47.5447 203.355 41.7744 190.65 41.7744C177.945 41.7744 167.645 47.5447 167.645 54.6627C167.645 61.7806 177.945 67.5509 190.65 67.5509Z" fill="#190C00"/>
<path opacity="0.67" d="M190.65 67.2015C203.011 67.2015 213.032 61.5877 213.032 54.6627C213.032 47.7376 203.011 42.1238 190.65 42.1238C178.288 42.1238 168.267 47.7376 168.267 54.6627C168.267 61.5877 178.288 67.2015 190.65 67.2015Z" fill="#190C00"/>
<path opacity="0.71" d="M190.65 66.854C202.668 66.854 212.41 61.3958 212.41 54.6626C212.41 47.9295 202.668 42.4712 190.65 42.4712C178.632 42.4712 168.889 47.9295 168.889 54.6626C168.889 61.3958 178.632 66.854 190.65 66.854Z" fill="#190C00"/>
<path opacity="0.75" d="M190.65 66.5047C202.324 66.5047 211.788 61.2028 211.788 54.6626C211.788 48.1224 202.324 42.8206 190.65 42.8206C178.975 42.8206 169.511 48.1224 169.511 54.6626C169.511 61.2028 178.975 66.5047 190.65 66.5047Z" fill="#190C00"/>
<path opacity="0.79" d="M190.65 66.1572C201.981 66.1572 211.166 61.0109 211.166 54.6626C211.166 48.3143 201.981 43.168 190.65 43.168C179.319 43.168 170.133 48.3143 170.133 54.6626C170.133 61.0109 179.319 66.1572 190.65 66.1572Z" fill="#190C00"/>
<path opacity="0.83" d="M190.65 65.8078C201.637 65.8078 210.544 60.8179 210.544 54.6626C210.544 48.5072 201.637 43.5173 190.65 43.5173C179.662 43.5173 170.755 48.5072 170.755 54.6626C170.755 60.8179 179.662 65.8078 190.65 65.8078Z" fill="#190C00"/>
<path opacity="0.88" d="M190.65 65.4606C201.294 65.4606 209.923 60.6262 209.923 54.6628C209.923 48.6993 201.294 43.865 190.65 43.865C180.006 43.865 171.377 48.6993 171.377 54.6628C171.377 60.6262 180.006 65.4606 190.65 65.4606Z" fill="#190C00"/>
<path opacity="0.92" d="M190.65 65.111C200.95 65.111 209.3 60.433 209.3 54.6625C209.3 48.892 200.95 44.2141 190.65 44.2141C180.349 44.2141 171.999 48.892 171.999 54.6625C171.999 60.433 180.349 65.111 190.65 65.111Z" fill="#190C00"/>
<path opacity="0.96" d="M190.65 64.7637C200.607 64.7637 208.679 60.2414 208.679 54.6627C208.679 49.0841 200.607 44.5618 190.65 44.5618C180.693 44.5618 172.621 49.0841 172.621 54.6627C172.621 60.2414 180.693 64.7637 190.65 64.7637Z" fill="#190C00"/>
<path d="M190.65 64.4141C200.263 64.4141 208.057 60.0482 208.057 54.6625C208.057 49.2768 200.263 44.9109 190.65 44.9109C181.036 44.9109 173.243 49.2768 173.243 54.6625C173.243 60.0482 181.036 64.4141 190.65 64.4141Z" fill="#190C00"/>
</g>
<g opacity="0.1">
<path opacity="0.04" d="M76.7881 114.697C94.3021 114.697 108.5 106.743 108.5 96.9308C108.5 87.1189 94.3021 79.1648 76.7881 79.1648C59.2741 79.1648 45.0762 87.1189 45.0762 96.9308C45.0762 106.743 59.2741 114.697 76.7881 114.697Z" fill="#190C00"/>
<path opacity="0.08" d="M76.7881 114.349C93.9586 114.349 107.878 106.551 107.878 96.9307C107.878 87.3107 93.9586 79.5122 76.7881 79.5122C59.6176 79.5122 45.6981 87.3107 45.6981 96.9307C45.6981 106.551 59.6176 114.349 76.7881 114.349Z" fill="#190C00"/>
<path opacity="0.13" d="M76.7881 114C93.6151 114 107.256 106.358 107.256 96.9307C107.256 87.5037 93.6151 79.8616 76.7881 79.8616C59.9611 79.8616 46.3201 87.5037 46.3201 96.9307C46.3201 106.358 59.9611 114 76.7881 114Z" fill="#190C00"/>
<path opacity="0.17" d="M76.7881 113.652C93.2716 113.652 106.634 106.166 106.634 96.9307C106.634 87.6955 93.2716 80.209 76.7881 80.209C60.3045 80.209 46.942 87.6955 46.942 96.9307C46.942 106.166 60.3045 113.652 76.7881 113.652Z" fill="#190C00"/>
<path opacity="0.21" d="M76.7882 113.303C92.9282 113.303 106.012 105.973 106.012 96.9307C106.012 87.8885 92.9282 80.5583 76.7882 80.5583C60.6482 80.5583 47.5641 87.8885 47.5641 96.9307C47.5641 105.973 60.6482 113.303 76.7882 113.303Z" fill="#190C00"/>
<path opacity="0.25" d="M76.7881 112.956C92.5846 112.956 105.39 105.781 105.39 96.9309C105.39 88.0806 92.5846 80.906 76.7881 80.906C60.9915 80.906 48.1859 88.0806 48.1859 96.9309C48.1859 105.781 60.9915 112.956 76.7881 112.956Z" fill="#190C00"/>
<path opacity="0.29" d="M76.7882 112.606C92.2412 112.606 104.768 105.588 104.768 96.9306C104.768 88.2733 92.2412 81.2551 76.7882 81.2551C61.3351 81.2551 48.808 88.2733 48.808 96.9306C48.808 105.588 61.3351 112.606 76.7882 112.606Z" fill="#190C00"/>
<path opacity="0.33" d="M76.788 112.259C91.8976 112.259 104.146 105.396 104.146 96.9308C104.146 88.4654 91.8976 81.6028 76.788 81.6028C61.6785 81.6028 49.4298 88.4654 49.4298 96.9308C49.4298 105.396 61.6785 112.259 76.788 112.259Z" fill="#190C00"/>
<path opacity="0.38" d="M76.7882 111.909C91.5542 111.909 103.524 105.203 103.524 96.9306C103.524 88.6581 91.5542 81.9519 76.7882 81.9519C62.0221 81.9519 50.0519 88.6581 50.0519 96.9306C50.0519 105.203 62.0221 111.909 76.7882 111.909Z" fill="#190C00"/>
<path opacity="0.42" d="M76.788 111.562C91.2106 111.562 102.902 105.011 102.902 96.9308C102.902 88.8502 91.2106 82.2996 76.788 82.2996C62.3655 82.2996 50.6737 88.8502 50.6737 96.9308C50.6737 105.011 62.3655 111.562 76.788 111.562Z" fill="#190C00"/>
<path opacity="0.46" d="M76.7882 111.213C90.8672 111.213 102.281 104.818 102.281 96.9308C102.281 89.0431 90.8672 82.6489 76.7882 82.6489C62.7091 82.6489 51.2958 89.0431 51.2958 96.9308C51.2958 104.818 62.7091 111.213 76.7882 111.213Z" fill="#190C00"/>
<path opacity="0.5" d="M76.7882 110.863C90.5237 110.863 101.659 104.626 101.659 96.9308C101.659 89.2361 90.5237 82.9983 76.7882 82.9983C63.0526 82.9983 51.9177 89.2361 51.9177 96.9308C51.9177 104.626 63.0526 110.863 76.7882 110.863Z" fill="#190C00"/>
<path opacity="0.54" d="M76.7881 110.516C90.1802 110.516 101.037 104.434 101.037 96.9308C101.037 89.4279 90.1802 83.3457 76.7881 83.3457C63.3961 83.3457 52.5397 89.4279 52.5397 96.9308C52.5397 104.434 63.3961 110.516 76.7881 110.516Z" fill="#190C00"/>
<path opacity="0.58" d="M76.7881 110.166C89.8367 110.166 100.415 104.241 100.415 96.9308C100.415 89.6209 89.8367 83.6951 76.7881 83.6951C63.7396 83.6951 53.1616 89.6209 53.1616 96.9308C53.1616 104.241 63.7396 110.166 76.7881 110.166Z" fill="#190C00"/>
<path opacity="0.63" d="M76.7881 109.819C89.4932 109.819 99.7927 104.049 99.7927 96.9307C99.7927 89.8127 89.4932 84.0425 76.7881 84.0425C64.0831 84.0425 53.7836 89.8127 53.7836 96.9307C53.7836 104.049 64.0831 109.819 76.7881 109.819Z" fill="#190C00"/>
<path opacity="0.67" d="M76.7881 109.47C89.1497 109.47 99.1707 103.856 99.1707 96.9307C99.1707 90.0057 89.1497 84.3918 76.7881 84.3918C64.4266 84.3918 54.4055 90.0057 54.4055 96.9307C54.4055 103.856 64.4266 109.47 76.7881 109.47Z" fill="#190C00"/>
<path opacity="0.71" d="M76.7881 109.122C88.8062 109.122 98.5488 103.664 98.5488 96.9307C98.5488 90.1975 88.8062 84.7393 76.7881 84.7393C64.77 84.7393 55.0275 90.1975 55.0275 96.9307C55.0275 103.664 64.77 109.122 76.7881 109.122Z" fill="#190C00"/>
<path opacity="0.75" d="M76.7881 108.773C88.4627 108.773 97.9268 103.471 97.9268 96.9307C97.9268 90.3905 88.4627 85.0886 76.7881 85.0886C65.1135 85.0886 55.6494 90.3905 55.6494 96.9307C55.6494 103.471 65.1135 108.773 76.7881 108.773Z" fill="#190C00"/>
<path opacity="0.79" d="M76.7881 108.425C88.1192 108.425 97.3049 103.279 97.3049 96.9309C97.3049 90.5826 88.1192 85.4363 76.7881 85.4363C65.457 85.4363 56.2714 90.5826 56.2714 96.9309C56.2714 103.279 65.457 108.425 76.7881 108.425Z" fill="#190C00"/>
<path opacity="0.83" d="M76.7881 108.076C87.7757 108.076 96.6829 103.086 96.6829 96.9306C96.6829 90.7753 87.7757 85.7854 76.7881 85.7854C65.8005 85.7854 56.8933 90.7753 56.8933 96.9306C56.8933 103.086 65.8005 108.076 76.7881 108.076Z" fill="#190C00"/>
<path opacity="0.88" d="M76.7881 107.729C87.4322 107.729 96.061 102.894 96.061 96.9308C96.061 90.9674 87.4322 86.1331 76.7881 86.1331C66.144 86.1331 57.5153 90.9674 57.5153 96.9308C57.5153 102.894 66.144 107.729 76.7881 107.729Z" fill="#190C00"/>
<path opacity="0.92" d="M76.7881 107.379C87.0887 107.379 95.439 102.701 95.439 96.9306C95.439 91.1601 87.0887 86.4822 76.7881 86.4822C66.4875 86.4822 58.1372 91.1601 58.1372 96.9306C58.1372 102.701 66.4875 107.379 76.7881 107.379Z" fill="#190C00"/>
<path opacity="0.96" d="M76.7881 107.032C86.7452 107.032 94.8171 102.509 94.8171 96.9308C94.8171 91.3522 86.7452 86.8298 76.7881 86.8298C66.831 86.8298 58.7592 91.3522 58.7592 96.9308C58.7592 102.509 66.831 107.032 76.7881 107.032Z" fill="#190C00"/>
<path d="M76.7881 106.682C86.4017 106.682 94.1951 102.316 94.1951 96.9306C94.1951 91.5449 86.4017 87.179 76.7881 87.179C67.1745 87.179 59.3811 91.5449 59.3811 96.9306C59.3811 102.316 67.1745 106.682 76.7881 106.682Z" fill="#190C00"/>
</g>
<g opacity="0.1">
<path opacity="0.04" d="M32.3339 254.025C49.8479 254.025 64.0458 246.071 64.0458 236.259C64.0458 226.448 49.8479 218.493 32.3339 218.493C14.8199 218.493 0.621948 226.448 0.621948 236.259C0.621948 246.071 14.8199 254.025 32.3339 254.025Z" fill="#190C00"/>
<path opacity="0.08" d="M32.3339 253.678C49.5044 253.678 63.4238 245.88 63.4238 236.26C63.4238 226.64 49.5044 218.841 32.3339 218.841C15.1633 218.841 1.2439 226.64 1.2439 236.26C1.2439 245.88 15.1633 253.678 32.3339 253.678Z" fill="#190C00"/>
<path opacity="0.13" d="M32.3338 253.328C49.1609 253.328 62.8019 245.686 62.8019 236.259C62.8019 226.832 49.1609 219.19 32.3338 219.19C15.5068 219.19 1.86584 226.832 1.86584 236.259C1.86584 245.686 15.5068 253.328 32.3338 253.328Z" fill="#190C00"/>
<path opacity="0.17" d="M32.3338 252.981C48.8174 252.981 62.1799 245.495 62.1799 236.26C62.1799 227.024 48.8174 219.538 32.3338 219.538C15.8503 219.538 2.48779 227.024 2.48779 236.26C2.48779 245.495 15.8503 252.981 32.3338 252.981Z" fill="#190C00"/>
<path opacity="0.21" d="M32.3338 252.632C48.4739 252.632 61.5579 245.302 61.5579 236.26C61.5579 227.217 48.4739 219.887 32.3338 219.887C16.1938 219.887 3.10974 227.217 3.10974 236.26C3.10974 245.302 16.1938 252.632 32.3338 252.632Z" fill="#190C00"/>
<path opacity="0.25" d="M32.3338 252.284C48.1304 252.284 60.936 245.11 60.936 236.259C60.936 227.409 48.1304 220.235 32.3338 220.235C16.5373 220.235 3.73169 227.409 3.73169 236.259C3.73169 245.11 16.5373 252.284 32.3338 252.284Z" fill="#190C00"/>
<path opacity="0.29" d="M32.3338 251.935C47.7869 251.935 60.314 244.917 60.314 236.26C60.314 227.602 47.7869 220.584 32.3338 220.584C16.8808 220.584 4.35364 227.602 4.35364 236.26C4.35364 244.917 16.8808 251.935 32.3338 251.935Z" fill="#190C00"/>
<path opacity="0.33" d="M32.3339 251.588C47.4435 251.588 59.6922 244.725 59.6922 236.259C59.6922 227.794 47.4435 220.931 32.3339 220.931C17.2244 220.931 4.97571 227.794 4.97571 236.259C4.97571 244.725 17.2244 251.588 32.3339 251.588Z" fill="#190C00"/>
<path opacity="0.38" d="M32.3338 251.238C47.0999 251.238 59.0701 244.532 59.0701 236.259C59.0701 227.987 47.0999 221.281 32.3338 221.281C17.5678 221.281 5.59753 227.987 5.59753 236.259C5.59753 244.532 17.5678 251.238 32.3338 251.238Z" fill="#190C00"/>
<path opacity="0.42" d="M32.3339 250.891C46.7565 250.891 58.4483 244.34 58.4483 236.259C58.4483 228.179 46.7565 221.628 32.3339 221.628C17.9114 221.628 6.2196 228.179 6.2196 236.259C6.2196 244.34 17.9114 250.891 32.3339 250.891Z" fill="#190C00"/>
<path opacity="0.46" d="M32.3338 250.542C46.4129 250.542 57.8262 244.147 57.8262 236.26C57.8262 228.372 46.4129 221.978 32.3338 221.978C18.2548 221.978 6.84143 228.372 6.84143 236.26C6.84143 244.147 18.2548 250.542 32.3338 250.542Z" fill="#190C00"/>
<path opacity="0.5" d="M32.3339 250.192C46.0695 250.192 57.2044 243.954 57.2044 236.259C57.2044 228.565 46.0695 222.327 32.3339 222.327C18.5984 222.327 7.4635 228.565 7.4635 236.259C7.4635 243.954 18.5984 250.192 32.3339 250.192Z" fill="#190C00"/>
<path opacity="0.54" d="M32.3338 249.845C45.7259 249.845 56.5823 243.762 56.5823 236.26C56.5823 228.757 45.7259 222.675 32.3338 222.675C18.9417 222.675 8.08533 228.757 8.08533 236.26C8.08533 243.762 18.9417 249.845 32.3338 249.845Z" fill="#190C00"/>
<path opacity="0.58" d="M32.3339 249.495C45.3825 249.495 55.9604 243.569 55.9604 236.259C55.9604 228.95 45.3825 223.024 32.3339 223.024C19.2854 223.024 8.7074 228.95 8.7074 236.259C8.7074 243.569 19.2854 249.495 32.3339 249.495Z" fill="#190C00"/>
<path opacity="0.63" d="M32.3338 249.148C45.0389 249.148 55.3384 243.378 55.3384 236.26C55.3384 229.142 45.0389 223.371 32.3338 223.371C19.6287 223.371 9.32922 229.142 9.32922 236.26C9.32922 243.378 19.6287 249.148 32.3338 249.148Z" fill="#190C00"/>
<path opacity="0.67" d="M32.3339 248.798C44.6955 248.798 54.7165 243.184 54.7165 236.259C54.7165 229.334 44.6955 223.72 32.3339 223.72C19.9723 223.72 9.95129 229.334 9.95129 236.259C9.95129 243.184 19.9723 248.798 32.3339 248.798Z" fill="#190C00"/>
<path opacity="0.71" d="M32.3338 248.451C44.3519 248.451 54.0945 242.993 54.0945 236.26C54.0945 229.526 44.3519 224.068 32.3338 224.068C20.3157 224.068 10.5731 229.526 10.5731 236.26C10.5731 242.993 20.3157 248.451 32.3338 248.451Z" fill="#190C00"/>
<path opacity="0.75" d="M32.3339 248.102C44.0085 248.102 53.4726 242.8 53.4726 236.26C53.4726 229.719 44.0085 224.417 32.3339 224.417C20.6593 224.417 11.1952 229.719 11.1952 236.26C11.1952 242.8 20.6593 248.102 32.3339 248.102Z" fill="#190C00"/>
<path opacity="0.79" d="M32.3339 247.754C43.665 247.754 52.8507 242.608 52.8507 236.26C52.8507 229.911 43.665 224.765 32.3339 224.765C21.0028 224.765 11.8171 229.911 11.8171 236.26C11.8171 242.608 21.0028 247.754 32.3339 247.754Z" fill="#190C00"/>
<path opacity="0.83" d="M32.3339 247.405C43.3215 247.405 52.2287 242.415 52.2287 236.26C52.2287 230.104 43.3215 225.114 32.3339 225.114C21.3463 225.114 12.4391 230.104 12.4391 236.26C12.4391 242.415 21.3463 247.405 32.3339 247.405Z" fill="#190C00"/>
<path opacity="0.88" d="M32.3339 247.057C42.978 247.057 51.6067 242.223 51.6067 236.259C51.6067 230.296 42.978 225.462 32.3339 225.462C21.6898 225.462 13.061 230.296 13.061 236.259C13.061 242.223 21.6898 247.057 32.3339 247.057Z" fill="#190C00"/>
<path opacity="0.92" d="M32.3339 246.708C42.6345 246.708 50.9848 242.03 50.9848 236.259C50.9848 230.489 42.6345 225.811 32.3339 225.811C22.0333 225.811 13.683 230.489 13.683 236.259C13.683 242.03 22.0333 246.708 32.3339 246.708Z" fill="#190C00"/>
<path opacity="0.96" d="M32.3339 246.36C42.291 246.36 50.3628 241.838 50.3628 236.259C50.3628 230.681 42.291 226.158 32.3339 226.158C22.3768 226.158 14.3049 230.681 14.3049 236.259C14.3049 241.838 22.3768 246.36 32.3339 246.36Z" fill="#190C00"/>
<path d="M32.3339 246.011C41.9475 246.011 49.7409 241.645 49.7409 236.259C49.7409 230.874 41.9475 226.508 32.3339 226.508C22.7203 226.508 14.9269 230.874 14.9269 236.259C14.9269 241.645 22.7203 246.011 32.3339 246.011Z" fill="#190C00"/>
</g>
<g opacity="0.1">
<path opacity="0.04" d="M84.5548 369.426C102.069 369.426 116.267 361.472 116.267 351.66C116.267 341.848 102.069 333.894 84.5548 333.894C67.0408 333.894 52.8429 341.848 52.8429 351.66C52.8429 361.472 67.0408 369.426 84.5548 369.426Z" fill="#190C00"/>
<path opacity="0.08" d="M84.5549 369.079C101.725 369.079 115.645 361.28 115.645 351.66C115.645 342.04 101.725 334.242 84.5549 334.242C67.3844 334.242 53.465 342.04 53.465 351.66C53.465 361.28 67.3844 369.079 84.5549 369.079Z" fill="#190C00"/>
<path opacity="0.13" d="M84.5548 368.729C101.382 368.729 115.023 361.087 115.023 351.66C115.023 342.233 101.382 334.591 84.5548 334.591C67.7278 334.591 54.0868 342.233 54.0868 351.66C54.0868 361.087 67.7278 368.729 84.5548 368.729Z" fill="#190C00"/>
<path opacity="0.17" d="M84.5549 368.382C101.038 368.382 114.401 360.896 114.401 351.66C114.401 342.425 101.038 334.939 84.5549 334.939C68.0714 334.939 54.7089 342.425 54.7089 351.66C54.7089 360.896 68.0714 368.382 84.5549 368.382Z" fill="#190C00"/>
<path opacity="0.21" d="M84.5548 368.032C100.695 368.032 113.779 360.702 113.779 351.66C113.779 342.618 100.695 335.288 84.5548 335.288C68.4148 335.288 55.3307 342.618 55.3307 351.66C55.3307 360.702 68.4148 368.032 84.5548 368.032Z" fill="#190C00"/>
<path opacity="0.25" d="M84.5549 367.685C100.351 367.685 113.157 360.511 113.157 351.66C113.157 342.81 100.351 335.635 84.5549 335.635C68.7584 335.635 55.9528 342.81 55.9528 351.66C55.9528 360.511 68.7584 367.685 84.5549 367.685Z" fill="#190C00"/>
<path opacity="0.29" d="M84.5548 367.336C100.008 367.336 112.535 360.318 112.535 351.66C112.535 343.003 100.008 335.985 84.5548 335.985C69.1017 335.985 56.5746 343.003 56.5746 351.66C56.5746 360.318 69.1017 367.336 84.5548 367.336Z" fill="#190C00"/>
<path opacity="0.33" d="M84.5549 366.988C99.6644 366.988 111.913 360.126 111.913 351.66C111.913 343.195 99.6644 336.332 84.5549 336.332C69.4454 336.332 57.1967 343.195 57.1967 351.66C57.1967 360.126 69.4454 366.988 84.5549 366.988Z" fill="#190C00"/>
<path opacity="0.38" d="M84.5549 366.639C99.3209 366.639 111.291 359.933 111.291 351.66C111.291 343.388 99.3209 336.682 84.5549 336.682C69.7888 336.682 57.8186 343.388 57.8186 351.66C57.8186 359.933 69.7888 366.639 84.5549 366.639Z" fill="#190C00"/>
<path opacity="0.42" d="M84.5549 366.292C98.9774 366.292 110.669 359.741 110.669 351.66C110.669 343.58 98.9774 337.029 84.5549 337.029C70.1323 337.029 58.4406 343.58 58.4406 351.66C58.4406 359.741 70.1323 366.292 84.5549 366.292Z" fill="#190C00"/>
<path opacity="0.46" d="M84.5549 365.942C98.6339 365.942 110.047 359.548 110.047 351.66C110.047 343.773 98.6339 337.378 84.5549 337.378C70.4758 337.378 59.0625 343.773 59.0625 351.66C59.0625 359.548 70.4758 365.942 84.5549 365.942Z" fill="#190C00"/>
<path opacity="0.5" d="M84.5549 365.593C98.2904 365.593 109.425 359.355 109.425 351.66C109.425 343.966 98.2904 337.728 84.5549 337.728C70.8193 337.728 59.6844 343.966 59.6844 351.66C59.6844 359.355 70.8193 365.593 84.5549 365.593Z" fill="#190C00"/>
<path opacity="0.54" d="M84.5549 365.245C97.9469 365.245 108.803 359.163 108.803 351.66C108.803 344.157 97.9469 338.075 84.5549 338.075C71.1628 338.075 60.3064 344.157 60.3064 351.66C60.3064 359.163 71.1628 365.245 84.5549 365.245Z" fill="#190C00"/>
<path opacity="0.58" d="M84.5549 364.896C97.6034 364.896 108.181 358.97 108.181 351.66C108.181 344.35 97.6034 338.425 84.5549 338.425C71.5063 338.425 60.9283 344.35 60.9283 351.66C60.9283 358.97 71.5063 364.896 84.5549 364.896Z" fill="#190C00"/>
<path opacity="0.63" d="M84.5549 364.549C97.2599 364.549 107.559 358.778 107.559 351.66C107.559 344.542 97.2599 338.772 84.5549 338.772C71.8498 338.772 61.5503 344.542 61.5503 351.66C61.5503 358.778 71.8498 364.549 84.5549 364.549Z" fill="#190C00"/>
<path opacity="0.67" d="M84.5549 364.199C96.9164 364.199 106.937 358.585 106.937 351.66C106.937 344.735 96.9164 339.121 84.5549 339.121C72.1933 339.121 62.1722 344.735 62.1722 351.66C62.1722 358.585 72.1933 364.199 84.5549 364.199Z" fill="#190C00"/>
<path opacity="0.71" d="M84.5549 363.852C96.5729 363.852 106.316 358.394 106.316 351.66C106.316 344.927 96.5729 339.469 84.5549 339.469C72.5368 339.469 62.7942 344.927 62.7942 351.66C62.7942 358.394 72.5368 363.852 84.5549 363.852Z" fill="#190C00"/>
<path opacity="0.75" d="M84.5549 363.502C96.2294 363.502 105.694 358.201 105.694 351.66C105.694 345.12 96.2294 339.818 84.5549 339.818C72.8803 339.818 63.4161 345.12 63.4161 351.66C63.4161 358.201 72.8803 363.502 84.5549 363.502Z" fill="#190C00"/>
<path opacity="0.79" d="M84.5548 363.155C95.8859 363.155 105.072 358.009 105.072 351.66C105.072 345.312 95.8859 340.166 84.5548 340.166C73.2238 340.166 64.0381 345.312 64.0381 351.66C64.0381 358.009 73.2238 363.155 84.5548 363.155Z" fill="#190C00"/>
<path opacity="0.83" d="M84.5548 362.806C95.5424 362.806 104.45 357.816 104.45 351.66C104.45 345.505 95.5424 340.515 84.5548 340.515C73.5672 340.515 64.66 345.505 64.66 351.66C64.66 357.816 73.5672 362.806 84.5548 362.806Z" fill="#190C00"/>
<path opacity="0.88" d="M84.5548 362.458C95.1989 362.458 103.828 357.624 103.828 351.66C103.828 345.697 95.1989 340.863 84.5548 340.863C73.9107 340.863 65.282 345.697 65.282 351.66C65.282 357.624 73.9107 362.458 84.5548 362.458Z" fill="#190C00"/>
<path opacity="0.92" d="M84.5548 362.109C94.8554 362.109 103.206 357.431 103.206 351.66C103.206 345.89 94.8554 341.212 84.5548 341.212C74.2542 341.212 65.9039 345.89 65.9039 351.66C65.9039 357.431 74.2542 362.109 84.5548 362.109Z" fill="#190C00"/>
<path opacity="0.96" d="M84.5548 361.761C94.5119 361.761 102.584 357.239 102.584 351.66C102.584 346.082 94.5119 341.559 84.5548 341.559C74.5977 341.559 66.5259 346.082 66.5259 351.66C66.5259 357.239 74.5977 361.761 84.5548 361.761Z" fill="#190C00"/>
<path d="M84.5548 361.412C94.1684 361.412 101.962 357.046 101.962 351.66C101.962 346.275 94.1684 341.909 84.5548 341.909C74.9412 341.909 67.1478 346.275 67.1478 351.66C67.1478 357.046 74.9412 361.412 84.5548 361.412Z" fill="#190C00"/>
</g>
<g opacity="0.1">
<path opacity="0.04" d="M190.65 415.651C208.164 415.651 222.362 407.697 222.362 397.885C222.362 388.073 208.164 380.119 190.65 380.119C173.136 380.119 158.938 388.073 158.938 397.885C158.938 407.697 173.136 415.651 190.65 415.651Z" fill="#190C00"/>
<path opacity="0.08" d="M190.65 415.303C207.82 415.303 221.74 407.505 221.74 397.885C221.74 388.265 207.82 380.466 190.65 380.466C173.479 380.466 159.56 388.265 159.56 397.885C159.56 407.505 173.479 415.303 190.65 415.303Z" fill="#190C00"/>
<path opacity="0.13" d="M190.65 414.954C207.477 414.954 221.118 407.312 221.118 397.885C221.118 388.458 207.477 380.816 190.65 380.816C173.823 380.816 160.182 388.458 160.182 397.885C160.182 407.312 173.823 414.954 190.65 414.954Z" fill="#190C00"/>
<path opacity="0.17" d="M190.65 414.606C207.133 414.606 220.496 407.12 220.496 397.885C220.496 388.65 207.133 381.163 190.65 381.163C174.166 381.163 160.804 388.65 160.804 397.885C160.804 407.12 174.166 414.606 190.65 414.606Z" fill="#190C00"/>
<path opacity="0.21" d="M190.65 414.257C206.79 414.257 219.874 406.927 219.874 397.885C219.874 388.843 206.79 381.512 190.65 381.512C174.51 381.512 161.426 388.843 161.426 397.885C161.426 406.927 174.51 414.257 190.65 414.257Z" fill="#190C00"/>
<path opacity="0.25" d="M190.65 413.91C206.446 413.91 219.252 406.735 219.252 397.885C219.252 389.035 206.446 381.86 190.65 381.86C174.853 381.86 162.047 389.035 162.047 397.885C162.047 406.735 174.853 413.91 190.65 413.91Z" fill="#190C00"/>
<path opacity="0.29" d="M190.65 413.56C206.103 413.56 218.63 406.542 218.63 397.885C218.63 389.227 206.103 382.209 190.65 382.209C175.197 382.209 162.669 389.227 162.669 397.885C162.669 406.542 175.197 413.56 190.65 413.56Z" fill="#190C00"/>
<path opacity="0.33" d="M190.65 413.213C205.759 413.213 218.008 406.35 218.008 397.885C218.008 389.419 205.759 382.557 190.65 382.557C175.54 382.557 163.291 389.419 163.291 397.885C163.291 406.35 175.54 413.213 190.65 413.213Z" fill="#190C00"/>
<path opacity="0.38" d="M190.65 412.863C205.416 412.863 217.386 406.157 217.386 397.885C217.386 389.612 205.416 382.906 190.65 382.906C175.884 382.906 163.913 389.612 163.913 397.885C163.913 406.157 175.884 412.863 190.65 412.863Z" fill="#190C00"/>
<path opacity="0.42" d="M190.65 412.516C205.072 412.516 216.764 405.966 216.764 397.885C216.764 389.804 205.072 383.254 190.65 383.254C176.227 383.254 164.535 389.804 164.535 397.885C164.535 405.966 176.227 412.516 190.65 412.516Z" fill="#190C00"/>
<path opacity="0.46" d="M190.65 412.167C204.729 412.167 216.142 405.772 216.142 397.885C216.142 389.997 204.729 383.603 190.65 383.603C176.571 383.603 165.157 389.997 165.157 397.885C165.157 405.772 176.571 412.167 190.65 412.167Z" fill="#190C00"/>
<path opacity="0.5" d="M190.65 411.817C204.385 411.817 215.52 405.58 215.52 397.885C215.52 390.19 204.385 383.952 190.65 383.952C176.914 383.952 165.779 390.19 165.779 397.885C165.779 405.58 176.914 411.817 190.65 411.817Z" fill="#190C00"/>
<path opacity="0.54" d="M190.65 411.47C204.042 411.47 214.898 405.388 214.898 397.885C214.898 390.382 204.042 384.3 190.65 384.3C177.258 384.3 166.401 390.382 166.401 397.885C166.401 405.388 177.258 411.47 190.65 411.47Z" fill="#190C00"/>
<path opacity="0.58" d="M190.65 411.121C203.698 411.121 214.276 405.195 214.276 397.885C214.276 390.575 203.698 384.649 190.65 384.649C177.601 384.649 167.023 390.575 167.023 397.885C167.023 405.195 177.601 411.121 190.65 411.121Z" fill="#190C00"/>
<path opacity="0.63" d="M190.65 410.773C203.355 410.773 213.654 405.003 213.654 397.885C213.654 390.767 203.355 384.997 190.65 384.997C177.945 384.997 167.645 390.767 167.645 397.885C167.645 405.003 177.945 410.773 190.65 410.773Z" fill="#190C00"/>
<path opacity="0.67" d="M190.65 410.424C203.011 410.424 213.032 404.81 213.032 397.885C213.032 390.96 203.011 385.346 190.65 385.346C178.288 385.346 168.267 390.96 168.267 397.885C168.267 404.81 178.288 410.424 190.65 410.424Z" fill="#190C00"/>
<path opacity="0.71" d="M190.65 410.076C202.668 410.076 212.41 404.618 212.41 397.885C212.41 391.152 202.668 385.693 190.65 385.693C178.632 385.693 168.889 391.152 168.889 397.885C168.889 404.618 178.632 410.076 190.65 410.076Z" fill="#190C00"/>
<path opacity="0.75" d="M190.65 409.727C202.324 409.727 211.788 404.425 211.788 397.885C211.788 391.345 202.324 386.043 190.65 386.043C178.975 386.043 169.511 391.345 169.511 397.885C169.511 404.425 178.975 409.727 190.65 409.727Z" fill="#190C00"/>
<path opacity="0.79" d="M190.65 409.38C201.981 409.38 211.166 404.233 211.166 397.885C211.166 391.537 201.981 386.39 190.65 386.39C179.319 386.39 170.133 391.537 170.133 397.885C170.133 404.233 179.319 409.38 190.65 409.38Z" fill="#190C00"/>
<path opacity="0.83" d="M190.65 409.03C201.637 409.03 210.544 404.04 210.544 397.885C210.544 391.729 201.637 386.74 190.65 386.74C179.662 386.74 170.755 391.729 170.755 397.885C170.755 404.04 179.662 409.03 190.65 409.03Z" fill="#190C00"/>
<path opacity="0.88" d="M190.65 408.683C201.294 408.683 209.923 403.848 209.923 397.885C209.923 391.921 201.294 387.087 190.65 387.087C180.006 387.087 171.377 391.921 171.377 397.885C171.377 403.848 180.006 408.683 190.65 408.683Z" fill="#190C00"/>
<path opacity="0.92" d="M190.65 408.333C200.95 408.333 209.3 403.655 209.3 397.885C209.3 392.114 200.95 387.436 190.65 387.436C180.349 387.436 171.999 392.114 171.999 397.885C171.999 403.655 180.349 408.333 190.65 408.333Z" fill="#190C00"/>
<path opacity="0.96" d="M190.65 407.986C200.607 407.986 208.679 403.464 208.679 397.885C208.679 392.306 200.607 387.784 190.65 387.784C180.693 387.784 172.621 392.306 172.621 397.885C172.621 403.464 180.693 407.986 190.65 407.986Z" fill="#190C00"/>
<path d="M190.65 407.636C200.263 407.636 208.057 403.27 208.057 397.885C208.057 392.499 200.263 388.133 190.65 388.133C181.036 388.133 173.243 392.499 173.243 397.885C173.243 403.27 181.036 407.636 190.65 407.636Z" fill="#190C00"/>
</g>
<g opacity="0.1">
<path opacity="0.04" d="M309.669 125.923C327.183 125.923 341.381 117.968 341.381 108.157C341.381 98.3447 327.183 90.3906 309.669 90.3906C292.155 90.3906 277.957 98.3447 277.957 108.157C277.957 117.968 292.155 125.923 309.669 125.923Z" fill="#190C00"/>
<path opacity="0.08" d="M309.669 125.575C326.84 125.575 340.759 117.777 340.759 108.157C340.759 98.5366 326.84 90.738 309.669 90.738C292.499 90.738 278.579 98.5366 278.579 108.157C278.579 117.777 292.499 125.575 309.669 125.575Z" fill="#190C00"/>
<path opacity="0.13" d="M309.669 125.226C326.496 125.226 340.137 117.584 340.137 108.157C340.137 98.7298 326.496 91.0876 309.669 91.0876C292.842 91.0876 279.201 98.7298 279.201 108.157C279.201 117.584 292.842 125.226 309.669 125.226Z" fill="#190C00"/>
<path opacity="0.17" d="M309.669 124.878C326.153 124.878 339.515 117.392 339.515 108.157C339.515 98.9214 326.153 91.4348 309.669 91.4348C293.186 91.4348 279.823 98.9214 279.823 108.157C279.823 117.392 293.186 124.878 309.669 124.878Z" fill="#190C00"/>
<path opacity="0.21" d="M309.669 124.529C325.809 124.529 338.893 117.199 338.893 108.157C338.893 99.1146 325.809 91.7844 309.669 91.7844C293.529 91.7844 280.445 99.1146 280.445 108.157C280.445 117.199 293.529 124.529 309.669 124.529Z" fill="#190C00"/>
<path opacity="0.25" d="M309.669 124.181C325.466 124.181 338.271 117.007 338.271 108.156C338.271 99.3062 325.466 92.1316 309.669 92.1316C293.873 92.1316 281.067 99.3062 281.067 108.156C281.067 117.007 293.873 124.181 309.669 124.181Z" fill="#190C00"/>
<path opacity="0.29" d="M309.669 123.832C325.122 123.832 337.649 116.814 337.649 108.157C337.649 99.4994 325.122 92.4812 309.669 92.4812C294.216 92.4812 281.689 99.4994 281.689 108.157C281.689 116.814 294.216 123.832 309.669 123.832Z" fill="#190C00"/>
<path opacity="0.33" d="M309.669 123.485C324.779 123.485 337.027 116.622 337.027 108.157C337.027 99.6912 324.779 92.8286 309.669 92.8286C294.56 92.8286 282.311 99.6912 282.311 108.157C282.311 116.622 294.56 123.485 309.669 123.485Z" fill="#190C00"/>
<path opacity="0.38" d="M309.669 123.135C324.435 123.135 336.405 116.429 336.405 108.157C336.405 99.8842 324.435 93.178 309.669 93.178C294.903 93.178 282.933 99.8842 282.933 108.157C282.933 116.429 294.903 123.135 309.669 123.135Z" fill="#190C00"/>
<path opacity="0.42" d="M309.669 122.788C324.092 122.788 335.783 116.237 335.783 108.157C335.783 100.076 324.092 93.5254 309.669 93.5254C295.247 93.5254 283.555 100.076 283.555 108.157C283.555 116.237 295.247 122.788 309.669 122.788Z" fill="#190C00"/>
<path opacity="0.46" d="M309.669 122.439C323.748 122.439 335.162 116.044 335.162 108.157C335.162 100.269 323.748 93.8748 309.669 93.8748C295.59 93.8748 284.177 100.269 284.177 108.157C284.177 116.044 295.59 122.439 309.669 122.439Z" fill="#190C00"/>
<path opacity="0.5" d="M309.669 122.089C323.405 122.089 334.54 115.851 334.54 108.157C334.54 100.462 323.405 94.2241 309.669 94.2241C295.934 94.2241 284.799 100.462 284.799 108.157C284.799 115.851 295.934 122.089 309.669 122.089Z" fill="#190C00"/>
<path opacity="0.54" d="M309.669 121.742C323.061 121.742 333.918 115.659 333.918 108.157C333.918 100.654 323.061 94.5715 309.669 94.5715C296.277 94.5715 285.421 100.654 285.421 108.157C285.421 115.659 296.277 121.742 309.669 121.742Z" fill="#190C00"/>
<path opacity="0.58" d="M309.669 121.392C322.718 121.392 333.296 115.466 333.296 108.157C333.296 100.847 322.718 94.9209 309.669 94.9209C296.621 94.9209 286.043 100.847 286.043 108.157C286.043 115.466 296.621 121.392 309.669 121.392Z" fill="#190C00"/>
<path opacity="0.63" d="M309.669 121.045C322.374 121.045 332.674 115.275 332.674 108.157C332.674 101.039 322.374 95.2683 309.669 95.2683C296.964 95.2683 286.665 101.039 286.665 108.157C286.665 115.275 296.964 121.045 309.669 121.045Z" fill="#190C00"/>
<path opacity="0.67" d="M309.669 120.695C322.031 120.695 332.052 115.082 332.052 108.157C332.052 101.232 322.031 95.6177 309.669 95.6177C297.308 95.6177 287.286 101.232 287.286 108.157C287.286 115.082 297.308 120.695 309.669 120.695Z" fill="#190C00"/>
<path opacity="0.71" d="M309.669 120.348C321.687 120.348 331.43 114.89 331.43 108.157C331.43 101.423 321.687 95.9651 309.669 95.9651C297.651 95.9651 287.908 101.423 287.908 108.157C287.908 114.89 297.651 120.348 309.669 120.348Z" fill="#190C00"/>
<path opacity="0.75" d="M309.669 119.999C321.344 119.999 330.808 114.697 330.808 108.157C330.808 101.617 321.344 96.3147 309.669 96.3147C297.995 96.3147 288.53 101.617 288.53 108.157C288.53 114.697 297.995 119.999 309.669 119.999Z" fill="#190C00"/>
<path opacity="0.79" d="M309.669 119.651C321 119.651 330.186 114.505 330.186 108.156C330.186 101.808 321 96.6619 309.669 96.6619C298.338 96.6619 289.152 101.808 289.152 108.156C289.152 114.505 298.338 119.651 309.669 119.651Z" fill="#190C00"/>
<path opacity="0.83" d="M309.669 119.302C320.657 119.302 329.564 114.312 329.564 108.157C329.564 102.001 320.657 97.0115 309.669 97.0115C298.681 97.0115 289.774 102.001 289.774 108.157C289.774 114.312 298.681 119.302 309.669 119.302Z" fill="#190C00"/>
<path opacity="0.88" d="M309.669 118.954C320.313 118.954 328.942 114.12 328.942 108.157C328.942 102.193 320.313 97.3589 309.669 97.3589C299.025 97.3589 290.396 102.193 290.396 108.157C290.396 114.12 299.025 118.954 309.669 118.954Z" fill="#190C00"/>
<path opacity="0.92" d="M309.669 118.605C319.97 118.605 328.32 113.927 328.32 108.157C328.32 102.386 319.97 97.7083 309.669 97.7083C299.368 97.7083 291.018 102.386 291.018 108.157C291.018 113.927 299.368 118.605 309.669 118.605Z" fill="#190C00"/>
<path opacity="0.96" d="M309.669 118.258C319.626 118.258 327.698 113.735 327.698 108.157C327.698 102.578 319.626 98.0557 309.669 98.0557C299.712 98.0557 291.64 102.578 291.64 108.157C291.64 113.735 299.712 118.258 309.669 118.258Z" fill="#190C00"/>
<path d="M309.669 117.908C319.283 117.908 327.076 113.542 327.076 108.157C327.076 102.771 319.283 98.405 309.669 98.405C300.055 98.405 292.262 102.771 292.262 108.157C292.262 113.542 300.055 117.908 309.669 117.908Z" fill="#190C00"/>
</g>
<path d="M292.208 206.285C292.208 259.786 251.05 303.67 198.658 307.98C195.854 308.233 193.018 308.345 190.151 308.345C183.672 308.346 177.207 307.731 170.845 306.508C123.698 297.485 88.0831 256.047 88.0831 206.285C88.0831 173.127 103.893 143.66 128.395 125.013C128.403 125.004 128.414 124.998 128.426 124.997C134.456 120.393 140.989 116.487 147.898 113.353L147.913 113.336C170.024 103.309 194.982 101.478 218.319 108.172C224.687 109.99 230.86 112.433 236.747 115.466H236.78C269.705 132.395 292.208 166.71 292.208 206.285Z" fill="#FBBE25" stroke="url(#paint0_linear_347_24)" stroke-width="2.30353" stroke-miterlimit="10"/>
<path d="M190.143 132.789C201.355 132.789 210.445 127.749 210.445 121.532C210.445 115.315 201.355 110.276 190.143 110.276C178.93 110.276 169.841 115.315 169.841 121.532C169.841 127.749 178.93 132.789 190.143 132.789Z" stroke="url(#paint1_linear_347_24)" stroke-width="2.30353" stroke-miterlimit="10"/>
<path d="M287.459 231.827C287.459 261.627 243.884 285.783 190.135 285.783C136.386 285.783 92.8112 261.627 92.8112 231.827" stroke="url(#paint2_linear_347_24)" stroke-width="2.30353" stroke-miterlimit="10"/>
<path d="M291.27 189.448C291.27 223.358 245.994 250.847 190.143 250.847C134.292 250.847 89.014 223.358 89.014 189.448" stroke="url(#paint3_linear_347_24)" stroke-width="2.30353" stroke-miterlimit="10"/>
<path d="M190.143 132.789V308.352" stroke="url(#paint4_linear_347_24)" stroke-width="2.30353" stroke-miterlimit="10"/>
<path d="M169.841 121.532C169.841 121.532 111.832 134.799 109.018 200.324C106.298 263.631 167.787 305.903 167.787 305.903" stroke="url(#paint5_linear_347_24)" stroke-width="2.30353" stroke-miterlimit="10"/>
<path d="M176.754 129.979C176.754 129.979 147.167 146.385 144.136 206.283C141.105 266.18 180.516 307.905 180.516 307.905" stroke="url(#paint6_linear_347_24)" stroke-width="2.30353" stroke-miterlimit="10"/>
<path d="M175.21 113.927C175.21 113.927 160.399 109.034 136.718 119.302" stroke="url(#paint7_linear_347_24)" stroke-width="2.30353" stroke-miterlimit="10"/>
<path d="M208.575 121.532C208.575 121.532 266.585 134.799 269.4 200.324C272.118 263.631 210.629 305.903 210.629 305.903" stroke="url(#paint8_linear_347_24)" stroke-width="2.30353" stroke-miterlimit="10"/>
<path d="M201.662 129.979C201.662 129.979 231.249 146.385 234.282 206.283C237.315 266.18 197.9 307.905 197.9 307.905" stroke="url(#paint9_linear_347_24)" stroke-width="2.30353" stroke-miterlimit="10"/>
<path d="M203.206 113.927C203.206 113.927 218.018 109.034 241.698 119.302" stroke="url(#paint10_linear_347_24)" stroke-width="2.30353" stroke-miterlimit="10"/>
<path d="M190.143 110.278V104.216" stroke="url(#paint11_linear_347_24)" stroke-width="2.30353" stroke-miterlimit="10"/>
<path d="M246.886 121.254C248.371 124.335 249.15 127.71 249.165 131.13C249.165 150.902 222.74 166.918 190.145 166.918C157.55 166.918 131.123 150.895 131.123 131.13C131.133 127.884 131.835 124.678 133.182 121.724" stroke="url(#paint12_linear_347_24)" stroke-width="2.30353" stroke-miterlimit="10"/>
<path d="M282.758 162.316C273.943 190.325 235.829 211.395 190.149 211.395C143.886 211.395 105.398 189.793 97.2203 161.257" stroke="url(#paint13_linear_347_24)" stroke-width="2.30353" stroke-miterlimit="10"/>
<path opacity="0.69" d="M292.208 206.285C292.208 259.786 251.05 303.67 198.658 307.98L198.768 306.936L204.851 295.654L206.436 291.815L208.575 287.521L210.333 285.793L213.66 283.019L215.246 274.861H225.623L229.27 273.959L231.297 270.805L232.883 267.177H243.955L250.927 265.833L253.446 261.318H267.689L276.276 258.823L274.913 252.722L278.303 243.913L282.754 234.424C282.754 234.424 283.96 229.909 282.754 229.909C281.549 229.909 275.151 234.424 275.151 234.424L269.496 238.939L260.005 241.648L253.67 251.822L244.863 248.668L241.25 241.206L241.473 234.647L238.081 226.283L241.679 222.866L243.944 213.71L244.848 205.012L251.407 199.816L246.669 186.325L250.28 175.867L254.348 170.45L255.252 167.28V162.307L254.127 161.26L253.225 157.331V155.081L249.165 152.357L247.564 148.962L243.725 147.837L241.696 138.567L235.597 129.98L234.445 124.325L236.749 115.453H236.782C269.705 132.395 292.208 166.71 292.208 206.285Z" fill="url(#paint14_linear_347_24)"/>
<path opacity="0.69" d="M169.839 236.181L172.719 240.364V243.85H168.177L162.226 248.476L158.408 252.578L155.968 255.715L153.281 258.805V262.115L150.762 270.718V276.285L159.285 283.004L172.722 285.778L169.843 294.015V299.672C169.843 299.672 170.177 303.319 170.841 306.5C123.694 297.478 88.0792 256.039 88.0792 206.277C88.0792 173.12 103.889 143.652 128.391 125.005C128.399 124.996 128.41 124.991 128.422 124.99H138.688L136.728 132.76C136.855 132.633 137.505 132.127 138.676 134.296C139.991 136.736 145.854 140.934 145.854 140.934L143.971 147.556H138.74C138.74 147.556 135.033 149.996 135.033 151.042C135.033 152.089 131.119 155.937 131.119 155.937H122.39L123.579 163.604V176.518L126.32 180.7C127.781 181.943 129.394 182.997 131.119 183.837C133.987 185.231 134.24 182.537 134.113 186.332C133.987 190.128 132.244 189.452 132.244 189.452L125.542 194.785L114.792 201.279L108.924 204.438L105.027 213.721L100.196 217.561L99.1016 223.978V231.773C99.1016 231.773 100.845 230.284 102.941 231.837C105.037 233.39 108.93 231.837 108.93 231.837L113.397 226.068L118.705 218.966L124.028 220.169L128.059 217.349L133.111 215.606H138.678L141.941 218.966C141.941 218.966 141.308 220.344 144.437 220.597C147.566 220.851 153.279 220.169 153.279 220.169L156.669 220.597L159.811 225.362C159.811 225.362 162.33 223.271 164.739 225.362C166.224 226.64 167.962 227.591 169.839 228.151L172.719 231.827L169.839 236.181Z" fill="url(#paint15_linear_347_24)"/>
<path d="M282.034 164.387C324.197 171.557 351.816 183.524 351.816 197.076C351.816 219.018 279.431 236.803 190.143 236.803C100.854 236.803 28.4678 219.027 28.4678 197.076C28.4678 183.664 55.5208 171.805 96.9402 164.61" stroke="#FBBE25" stroke-width="1.53569" stroke-miterlimit="10" stroke-dasharray="2.88 2.88"/>
<path d="M219.958 303.914C212.679 337.538 202.02 358.75 190.143 358.75C168.202 358.75 150.417 286.367 150.417 197.076C150.417 107.786 168.202 35.4033 190.141 35.4033C203.855 35.4033 215.944 63.6772 223.083 106.684" stroke="#FBBE25" stroke-width="1.53569" stroke-miterlimit="10" stroke-dasharray="2.88 2.88"/>
<path d="M229.867 110.512C265.741 84.6988 294.685 72.9777 304.463 82.7562C319.976 98.2704 281.37 162.036 218.233 225.168C155.095 288.3 91.335 326.909 75.8245 311.397C67.1095 302.68 75.4771 278.733 95.6829 248.222" stroke="#FBBE25" stroke-width="1.53569" stroke-miterlimit="10" stroke-dasharray="2.88 2.88"/>
<path d="M150.419 110.512C114.543 84.6988 85.5991 72.9777 75.8245 82.7562C60.3121 98.2704 98.9174 162.036 162.055 225.168C225.193 288.3 288.953 326.907 304.467 311.397C313.297 302.567 304.584 278.078 283.776 246.973" stroke="#FBBE25" stroke-width="1.53569" stroke-miterlimit="10" stroke-dasharray="2.88 2.88"/>
<path d="M322.068 88.3073C328.916 81.4592 328.916 70.3562 322.068 63.5082C315.22 56.6601 304.117 56.6601 297.269 63.5082C290.421 70.3563 290.421 81.4592 297.269 88.3073C304.117 95.1553 315.22 95.1554 322.068 88.3073Z" fill="url(#paint16_linear_347_24)"/>
<g opacity="0.6">
<path d="M311.605 72.9576C314.187 71.8881 315.413 68.9281 314.343 66.3463C313.274 63.7644 310.314 62.5383 307.732 63.6078C305.15 64.6772 303.924 67.6372 304.994 70.2191C306.063 72.801 309.023 74.027 311.605 72.9576Z" fill="white"/>
<path d="M319.213 83.2764C319.213 83.6994 319.186 84.122 319.131 84.5414C319.062 85.0227 318.897 85.4852 318.645 85.9009C318.393 86.3166 318.059 86.6769 317.664 86.9601C315.342 88.6517 312.543 89.5631 309.67 89.5631C306.797 89.5631 303.998 88.6517 301.676 86.9601C301.281 86.6765 300.947 86.3158 300.695 85.8998C300.443 85.4838 300.278 85.0211 300.209 84.5395C300.036 83.244 300.13 81.9268 300.487 80.6693C300.843 79.4118 301.454 78.241 302.282 77.2294C303.109 76.2177 304.136 75.3868 305.298 74.7882C306.46 74.1896 307.732 73.836 309.036 73.7493C310.34 73.6626 311.648 73.8447 312.879 74.2843C314.11 74.7239 315.238 75.4116 316.192 76.3048C317.146 77.1981 317.906 78.2777 318.426 79.477C318.946 80.6762 319.214 81.9694 319.213 83.2764Z" fill="white"/>
</g>
<path d="M89.1873 88.3056C96.0354 81.4575 96.0354 70.3545 89.1873 63.5065C82.3392 56.6584 71.2363 56.6584 64.3882 63.5065C57.5401 70.3545 57.5401 81.4575 64.3882 88.3056C71.2363 95.1536 82.3392 95.1536 89.1873 88.3056Z" fill="url(#paint17_linear_347_24)"/>
<g opacity="0.6">
<path d="M78.7578 72.9373C81.3323 71.8503 82.5382 68.8821 81.4512 66.3075C80.3642 63.733 77.3959 62.5271 74.8214 63.6141C72.2469 64.7011 71.041 67.6694 72.128 70.2439C73.215 72.8184 76.1832 74.0243 78.7578 72.9373Z" fill="white"/>
<path d="M86.3305 83.2764C86.3312 83.6994 86.3036 84.122 86.248 84.5414C86.1794 85.0225 86.0144 85.4847 85.7627 85.9004C85.511 86.316 85.1779 86.6765 84.7833 86.9601C82.4608 88.6519 79.6615 89.5633 76.7881 89.5633C73.9148 89.5633 71.1155 88.6519 68.793 86.9601C68.3981 86.6762 68.0647 86.3154 67.8126 85.8995C67.5606 85.4835 67.3952 85.0209 67.3264 84.5395C67.1529 83.244 67.2473 81.9268 67.6038 80.6693C67.9603 79.4118 68.5713 78.241 69.3989 77.2294C70.2264 76.2177 71.253 75.3868 72.4148 74.7882C73.5767 74.1896 74.8491 73.836 76.1533 73.7493C77.4574 73.6626 78.7655 73.8447 79.9963 74.2843C81.2272 74.7239 82.3547 75.4116 83.3088 76.3048C84.263 77.1981 85.0236 78.2777 85.5433 79.477C86.0631 80.6762 86.331 81.9694 86.3305 83.2764Z" fill="white"/>
</g>
<path d="M363.506 221.164C378.373 221.164 390.425 209.112 390.425 194.245C390.425 179.378 378.373 167.326 363.506 167.326C348.64 167.326 336.588 179.378 336.588 194.245C336.588 209.112 348.64 221.164 363.506 221.164Z" fill="url(#paint18_linear_347_24)"/>
<g opacity="0.6">
<path d="M363.506 190.306C367.796 190.306 371.273 186.829 371.273 182.539C371.273 178.25 367.796 174.773 363.506 174.773C359.217 174.773 355.74 178.25 355.74 182.539C355.74 186.829 359.217 190.306 363.506 190.306Z" fill="white"/>
<path d="M378.163 205.555C378.163 206.205 378.12 206.854 378.034 207.498C377.929 208.237 377.676 208.947 377.289 209.585C376.902 210.223 376.39 210.776 375.784 211.211C372.22 213.809 367.923 215.209 363.512 215.209C359.101 215.209 354.804 213.809 351.24 211.211C350.633 210.776 350.121 210.222 349.734 209.584C349.347 208.945 349.093 208.235 348.988 207.496C348.725 205.509 348.873 203.489 349.422 201.561C349.971 199.633 350.91 197.838 352.18 196.288C353.45 194.737 355.025 193.463 356.808 192.546C358.59 191.629 360.541 191.086 362.542 190.953C364.542 190.82 366.548 191.099 368.436 191.773C370.324 192.446 372.054 193.5 373.519 194.868C374.983 196.237 376.151 197.892 376.951 199.73C377.75 201.568 378.164 203.551 378.166 205.555H378.163Z" fill="white"/>
</g>
<path d="M48.9935 214.99C58.194 205.789 58.194 190.872 48.9935 181.672C39.793 172.471 24.8761 172.471 15.6756 181.672C6.47508 190.872 6.47508 205.789 15.6756 214.99C24.8761 224.19 39.793 224.19 48.9935 214.99Z" fill="url(#paint19_linear_347_24)"/>
<g opacity="0.6">
<path d="M32.334 194.882C36.088 194.882 39.1313 191.839 39.1313 188.085C39.1313 184.331 36.088 181.288 32.334 181.288C28.5799 181.288 25.5366 184.331 25.5366 188.085C25.5366 191.839 28.5799 194.882 32.334 194.882Z" fill="white"/>
<path d="M45.1569 208.229C45.1568 208.798 45.1196 209.366 45.0456 209.93C44.9534 210.577 44.7314 211.198 44.3929 211.756C44.0544 212.315 43.6065 212.799 43.0761 213.18C39.9563 215.454 36.1954 216.679 32.3349 216.679C28.4744 216.679 24.7135 215.454 21.5938 213.18C21.063 212.799 20.6148 212.315 20.276 211.757C19.9372 211.198 19.7149 210.577 19.6223 209.93C19.5483 209.367 19.5111 208.8 19.511 208.231C19.511 204.831 20.862 201.569 23.2667 199.164C25.6715 196.759 28.9331 195.408 32.334 195.408C35.7348 195.408 38.9964 196.759 41.4012 199.164C43.8059 201.569 45.1569 204.831 45.1569 208.231V208.229Z" fill="white"/>
</g>
<path d="M330.112 325.259C337.114 318.258 337.114 306.907 330.112 299.906C323.111 292.905 311.761 292.905 304.76 299.906C297.759 306.907 297.759 318.258 304.76 325.259C311.761 332.26 323.111 332.26 330.112 325.259Z" fill="url(#paint20_linear_347_24)"/>
<g opacity="0.6">
<path d="M322.483 305.973C323.132 303.191 321.402 300.409 318.62 299.76C315.838 299.111 313.056 300.841 312.407 303.623C311.758 306.405 313.487 309.187 316.27 309.836C319.052 310.485 321.834 308.756 322.483 305.973Z" fill="white"/>
<path d="M327.193 320.114C327.193 320.546 327.165 320.979 327.109 321.408C327.039 321.899 326.87 322.372 326.612 322.797C326.354 323.222 326.013 323.59 325.609 323.88C323.236 325.61 320.374 326.542 317.437 326.542C314.499 326.542 311.638 325.61 309.264 323.88C308.86 323.59 308.519 323.222 308.261 322.797C308.004 322.372 307.835 321.9 307.765 321.408C307.708 320.979 307.679 320.546 307.68 320.114C307.662 318.821 307.901 317.537 308.383 316.338C308.865 315.138 309.581 314.046 310.489 313.126C311.397 312.205 312.478 311.474 313.671 310.975C314.864 310.476 316.144 310.219 317.437 310.219C318.73 310.219 320.01 310.476 321.202 310.975C322.395 311.474 323.477 312.205 324.384 313.126C325.292 314.046 326.008 315.138 326.49 316.338C326.972 317.537 327.211 318.821 327.193 320.114Z" fill="white"/>
</g>
<path d="M282.163 170.343C289.164 163.342 289.164 151.991 282.163 144.99C275.162 137.989 263.811 137.989 256.81 144.99C249.809 151.991 249.809 163.342 256.81 170.343C263.811 177.344 275.162 177.344 282.163 170.343Z" fill="url(#paint21_linear_347_24)"/>
<g opacity="0.6">
<path d="M271.502 154.61C274.134 153.499 275.366 150.464 274.255 147.832C273.143 145.2 270.108 143.967 267.476 145.079C264.844 146.191 263.612 149.226 264.723 151.858C265.835 154.49 268.87 155.722 271.502 154.61Z" fill="white"/>
<path d="M279.243 165.198C279.243 165.63 279.215 166.062 279.159 166.491C279.088 166.983 278.919 167.456 278.662 167.881C278.404 168.306 278.063 168.674 277.66 168.964C275.286 170.694 272.424 171.626 269.487 171.626C266.55 171.626 263.688 170.694 261.314 168.964C260.91 168.674 260.569 168.305 260.311 167.88C260.054 167.455 259.885 166.982 259.815 166.489C259.757 166.061 259.728 165.63 259.729 165.198C259.729 162.61 260.757 160.128 262.586 158.298C264.416 156.468 266.898 155.44 269.486 155.44C272.074 155.44 274.556 156.468 276.385 158.298C278.215 160.128 279.243 162.61 279.243 165.198Z" fill="white"/>
</g>
<path d="M129.808 183.579C136.809 176.578 136.809 165.227 129.808 158.226C122.807 151.225 111.456 151.225 104.455 158.226C97.4544 165.227 97.4544 176.578 104.455 183.579C111.456 190.58 122.807 190.58 129.808 183.579Z" fill="url(#paint22_linear_347_24)"/>
<g opacity="0.6">
<path d="M120.791 166.764C122.811 164.744 122.811 161.468 120.791 159.448C118.771 157.427 115.495 157.427 113.475 159.448C111.454 161.468 111.454 164.744 113.475 166.764C115.495 168.784 118.771 168.784 120.791 166.764Z" fill="white"/>
<path d="M126.886 178.435C126.886 178.868 126.858 179.3 126.801 179.729C126.731 180.221 126.562 180.693 126.304 181.118C126.047 181.543 125.706 181.912 125.302 182.201C122.929 183.932 120.067 184.864 117.13 184.864C114.192 184.864 111.331 183.932 108.957 182.201C108.553 181.912 108.212 181.543 107.954 181.118C107.696 180.693 107.527 180.219 107.458 179.727C107.401 179.299 107.373 178.867 107.373 178.435C107.355 177.142 107.594 175.859 108.076 174.659C108.558 173.46 109.274 172.368 110.182 171.447C111.09 170.527 112.171 169.796 113.364 169.297C114.557 168.798 115.837 168.541 117.13 168.541C118.422 168.541 119.702 168.798 120.895 169.297C122.088 169.796 123.17 170.527 124.077 171.447C124.985 172.368 125.701 173.46 126.183 174.659C126.665 175.859 126.904 177.142 126.886 178.435Z" fill="white"/>
</g>
<path d="M289.118 252.056C299.019 252.056 307.045 244.03 307.045 234.129C307.045 224.228 299.019 216.201 289.118 216.201C279.217 216.201 271.191 224.228 271.191 234.129C271.191 244.03 279.217 252.056 289.118 252.056Z" fill="url(#paint23_linear_347_24)"/>
<g opacity="0.6">
<path d="M294.065 227.927C294.931 225.204 293.426 222.295 290.703 221.429C287.981 220.562 285.071 222.067 284.205 224.79C283.339 227.513 284.844 230.422 287.566 231.288C290.289 232.155 293.198 230.65 294.065 227.927Z" fill="white"/>
<path d="M298.883 241.661C298.883 242.094 298.854 242.526 298.796 242.955C298.727 243.447 298.558 243.919 298.301 244.344C298.043 244.769 297.703 245.138 297.299 245.427C294.925 247.158 292.063 248.09 289.125 248.09C286.188 248.09 283.326 247.158 280.952 245.427C280.548 245.138 280.207 244.769 279.95 244.344C279.692 243.919 279.523 243.447 279.453 242.955C279.396 242.526 279.368 242.094 279.368 241.661C279.368 239.073 280.396 236.592 282.226 234.762C284.056 232.932 286.538 231.904 289.125 231.904C291.713 231.904 294.195 232.932 296.025 234.762C297.855 236.592 298.883 239.073 298.883 241.661Z" fill="white"/>
</g>
<path d="M206.241 258.432C213.242 251.431 213.242 240.08 206.241 233.079C199.24 226.078 187.889 226.078 180.888 233.079C173.887 240.08 173.887 251.431 180.888 258.432C187.889 265.433 199.24 265.433 206.241 258.432Z" fill="url(#paint24_linear_347_24)"/>
<g opacity="0.6">
<path d="M198.595 239.161C199.26 236.382 197.545 233.591 194.766 232.926C191.987 232.262 189.196 233.977 188.532 236.756C187.868 239.535 189.582 242.326 192.361 242.99C195.14 243.654 197.931 241.939 198.595 239.161Z" fill="white"/>
<path d="M203.323 253.288C203.323 253.721 203.294 254.153 203.237 254.582C203.167 255.074 202.998 255.547 202.741 255.972C202.484 256.396 202.143 256.765 201.739 257.055C199.365 258.785 196.503 259.717 193.566 259.717C190.628 259.717 187.766 258.785 185.392 257.055C184.988 256.765 184.647 256.397 184.389 255.972C184.132 255.547 183.963 255.074 183.893 254.582C183.836 254.153 183.808 253.721 183.808 253.288C183.808 250.701 184.836 248.219 186.666 246.389C188.496 244.559 190.978 243.531 193.566 243.531C196.153 243.531 198.635 244.559 200.465 246.389C202.295 248.219 203.323 250.701 203.323 253.288Z" fill="white"/>
</g>
<path d="M172.723 131.384C182.623 131.384 190.65 123.357 190.65 113.457C190.65 103.556 182.623 95.5293 172.723 95.5293C162.822 95.5293 154.795 103.556 154.795 113.457C154.795 123.357 162.822 131.384 172.723 131.384Z" fill="url(#paint25_linear_347_24)"/>
<g opacity="0.6">
<path d="M172.722 110.834C175.58 110.834 177.896 108.518 177.896 105.661C177.896 102.804 175.58 100.488 172.722 100.488C169.865 100.488 167.549 102.804 167.549 105.661C167.549 108.518 169.865 110.834 172.722 110.834Z" fill="white"/>
<path d="M182.48 120.989C182.48 121.422 182.452 121.854 182.395 122.283C182.325 122.775 182.156 123.247 181.898 123.672C181.64 124.097 181.3 124.465 180.896 124.755C178.522 126.485 175.661 127.418 172.723 127.418C169.786 127.418 166.924 126.485 164.551 124.755C164.146 124.465 163.805 124.096 163.547 123.671C163.29 123.245 163.121 122.772 163.051 122.279C162.993 121.851 162.965 121.419 162.965 120.987C162.965 119.706 163.217 118.437 163.708 117.253C164.198 116.069 164.917 114.994 165.823 114.088C166.729 113.182 167.805 112.463 168.988 111.972C170.172 111.482 171.441 111.23 172.722 111.23C174.004 111.23 175.272 111.482 176.456 111.972C177.64 112.463 178.716 113.182 179.622 114.088C180.528 114.994 181.247 116.069 181.737 117.253C182.227 118.437 182.48 119.706 182.48 120.987V120.989Z" fill="white"/>
</g>
<path d="M103.589 331.615C114.102 321.103 114.102 304.059 103.589 293.546C93.077 283.034 76.0331 283.034 65.5207 293.546C55.0083 304.059 55.0083 321.103 65.5207 331.615C76.0331 342.128 93.077 342.128 103.589 331.615Z" fill="url(#paint26_linear_347_24)"/>
<g opacity="0.6">
<path d="M84.5549 308.642C88.8444 308.642 92.3217 305.165 92.3217 300.875C92.3217 296.586 88.8444 293.109 84.5549 293.109C80.2655 293.109 76.7882 296.586 76.7882 300.875C76.7882 305.165 80.2655 308.642 84.5549 308.642Z" fill="white"/>
<path d="M99.2053 323.892C99.2049 324.541 99.1626 325.19 99.0786 325.834C98.9737 326.573 98.7201 327.283 98.333 327.921C97.946 328.559 97.4337 329.112 96.8269 329.547C93.2627 332.145 88.9657 333.545 84.5548 333.545C80.144 333.545 75.847 332.145 72.2828 329.547C71.6762 329.112 71.1639 328.559 70.7769 327.921C70.3899 327.283 70.1362 326.573 70.0311 325.834C69.7681 323.847 69.9156 321.827 70.4645 319.899C71.0134 317.971 71.9521 316.177 73.2223 314.626C74.4926 313.075 76.0676 311.802 77.8497 310.884C79.6319 309.967 81.5833 309.425 83.5834 309.292C85.5835 309.158 87.5896 309.437 89.4776 310.11C91.3657 310.783 93.0955 311.837 94.5602 313.205C96.0248 314.574 97.1931 316.228 97.9927 318.066C98.7924 319.904 99.2064 321.887 99.2091 323.892H99.2053Z" fill="white"/>
</g>
<path d="M190.143 53.8373C205.01 53.8373 217.062 41.7854 217.062 26.9186C217.062 12.0519 205.01 0 190.143 0C175.276 0 163.224 12.0519 163.224 26.9186C163.224 41.7854 175.276 53.8373 190.143 53.8373Z" fill="url(#paint27_linear_347_24)"/>
<g opacity="0.6">
<path d="M190.143 22.9795C194.432 22.9795 197.91 19.5022 197.91 15.2128C197.91 10.9233 194.432 7.44604 190.143 7.44604C185.853 7.44604 182.376 10.9233 182.376 15.2128C182.376 19.5022 185.853 22.9795 190.143 22.9795Z" fill="white"/>
<path d="M204.793 38.2287C204.793 38.8783 204.751 39.5272 204.667 40.1714C204.561 40.91 204.307 41.6197 203.92 42.2577C203.533 42.8958 203.021 43.4489 202.415 43.8839C198.851 46.4823 194.554 47.8824 190.143 47.8824C185.732 47.8824 181.435 46.4823 177.871 43.8839C177.264 43.4488 176.752 42.8954 176.365 42.2571C175.978 41.6187 175.724 40.9085 175.619 40.1694C175.356 38.1822 175.504 36.1621 176.053 34.2342C176.602 32.3063 177.54 30.5115 178.811 28.9609C180.081 27.4103 181.656 26.1368 183.438 25.2193C185.221 24.3019 187.172 23.7598 189.172 23.6268C191.173 23.4938 193.179 23.7725 195.067 24.4459C196.955 25.1193 198.685 26.1729 200.149 27.5416C201.614 28.9103 202.782 30.5649 203.581 32.4032C204.381 34.2414 204.795 36.2241 204.797 38.2287H204.793Z" fill="white"/>
</g>
<path d="M209.177 390C219.69 379.488 219.69 362.444 209.177 351.932C198.665 341.419 181.621 341.419 171.109 351.932C160.596 362.444 160.596 379.488 171.109 390C181.621 400.513 198.665 400.513 209.177 390Z" fill="url(#paint28_linear_347_24)"/>
<g opacity="0.6">
<path d="M192.811 366.537C196.844 365.076 198.93 360.623 197.469 356.59C196.008 352.557 191.554 350.471 187.521 351.932C183.488 353.393 181.403 357.846 182.864 361.879C184.325 365.912 188.778 367.998 192.811 366.537Z" fill="white"/>
<path d="M204.793 382.276C204.793 382.926 204.751 383.576 204.667 384.221C204.561 384.959 204.307 385.669 203.92 386.307C203.533 386.945 203.021 387.498 202.415 387.933C198.85 390.531 194.554 391.931 190.143 391.931C185.732 391.931 181.435 390.531 177.871 387.933C177.264 387.499 176.752 386.945 176.365 386.307C175.978 385.669 175.724 384.96 175.619 384.221C175.356 382.234 175.504 380.214 176.053 378.286C176.601 376.358 177.54 374.563 178.81 373.013C180.081 371.462 181.656 370.188 183.438 369.271C185.22 368.353 187.171 367.811 189.171 367.678C191.171 367.545 193.178 367.824 195.066 368.497C196.954 369.17 198.684 370.223 200.148 371.592C201.613 372.96 202.781 374.615 203.581 376.453C204.38 378.291 204.794 380.274 204.797 382.278L204.793 382.276Z" fill="white"/>
</g>
<defs>
<linearGradient id="paint0_linear_347_24" x1="190.146" y1="104.21" x2="190.146" y2="308.345" gradientUnits="userSpaceOnUse">
<stop stop-color="#F4C607"/>
<stop offset="1" stop-color="#C77207"/>
</linearGradient>
<linearGradient id="paint1_linear_347_24" x1="190.143" y1="110.276" x2="190.143" y2="132.789" gradientUnits="userSpaceOnUse">
<stop stop-color="#F4C607"/>
<stop offset="1" stop-color="#C77207"/>
</linearGradient>
<linearGradient id="paint2_linear_347_24" x1="190.135" y1="231.827" x2="190.135" y2="285.783" gradientUnits="userSpaceOnUse">
<stop stop-color="#F4C607"/>
<stop offset="1" stop-color="#C77207"/>
</linearGradient>
<linearGradient id="paint3_linear_347_24" x1="190.142" y1="189.448" x2="190.142" y2="250.847" gradientUnits="userSpaceOnUse">
<stop stop-color="#F4C607"/>
<stop offset="1" stop-color="#C77207"/>
</linearGradient>
<linearGradient id="paint4_linear_347_24" x1="190.643" y1="132.789" x2="190.643" y2="308.352" gradientUnits="userSpaceOnUse">
<stop stop-color="#F4C607"/>
<stop offset="1" stop-color="#C77207"/>
</linearGradient>
<linearGradient id="paint5_linear_347_24" x1="139.386" y1="121.532" x2="139.386" y2="305.903" gradientUnits="userSpaceOnUse">
<stop stop-color="#F4C607"/>
<stop offset="1" stop-color="#C77207"/>
</linearGradient>
<linearGradient id="paint6_linear_347_24" x1="162.243" y1="129.979" x2="162.243" y2="307.905" gradientUnits="userSpaceOnUse">
<stop stop-color="#F4C607"/>
<stop offset="1" stop-color="#C77207"/>
</linearGradient>
<linearGradient id="paint7_linear_347_24" x1="155.964" y1="112.761" x2="155.964" y2="119.302" gradientUnits="userSpaceOnUse">
<stop stop-color="#F4C607"/>
<stop offset="1" stop-color="#C77207"/>
</linearGradient>
<linearGradient id="paint8_linear_347_24" x1="239.031" y1="121.532" x2="239.031" y2="305.903" gradientUnits="userSpaceOnUse">
<stop stop-color="#F4C607"/>
<stop offset="1" stop-color="#C77207"/>
</linearGradient>
<linearGradient id="paint9_linear_347_24" x1="216.174" y1="129.979" x2="216.174" y2="307.905" gradientUnits="userSpaceOnUse">
<stop stop-color="#F4C607"/>
<stop offset="1" stop-color="#C77207"/>
</linearGradient>
<linearGradient id="paint10_linear_347_24" x1="222.452" y1="112.761" x2="222.452" y2="119.302" gradientUnits="userSpaceOnUse">
<stop stop-color="#F4C607"/>
<stop offset="1" stop-color="#C77207"/>
</linearGradient>
<linearGradient id="paint11_linear_347_24" x1="190.643" y1="104.216" x2="190.643" y2="110.278" gradientUnits="userSpaceOnUse">
<stop stop-color="#F4C607"/>
<stop offset="1" stop-color="#C77207"/>
</linearGradient>
<linearGradient id="paint12_linear_347_24" x1="190.144" y1="121.254" x2="190.144" y2="166.918" gradientUnits="userSpaceOnUse">
<stop stop-color="#F4C607"/>
<stop offset="1" stop-color="#C77207"/>
</linearGradient>
<linearGradient id="paint13_linear_347_24" x1="189.989" y1="161.257" x2="189.989" y2="211.395" gradientUnits="userSpaceOnUse">
<stop stop-color="#F4C607"/>
<stop offset="1" stop-color="#C77207"/>
</linearGradient>
<linearGradient id="paint14_linear_347_24" x1="313.677" y1="211.719" x2="102.388" y2="211.719" gradientUnits="userSpaceOnUse">
<stop stop-color="#4C6FBF"/>
<stop offset="1" stop-color="#30367A"/>
</linearGradient>
<linearGradient id="paint15_linear_347_24" x1="313.677" y1="215.752" x2="102.39" y2="215.752" gradientUnits="userSpaceOnUse">
<stop stop-color="#4C6FBF"/>
<stop offset="1" stop-color="#30367A"/>
</linearGradient>
<linearGradient id="paint16_linear_347_24" x1="292.136" y1="75.9067" x2="327.205" y2="75.9067" gradientUnits="userSpaceOnUse">
<stop stop-color="#4C6FBF"/>
<stop offset="1" stop-color="#8CA3D8"/>
</linearGradient>
<linearGradient id="paint17_linear_347_24" x1="59.254" y1="75.9063" x2="94.3233" y2="75.9063" gradientUnits="userSpaceOnUse">
<stop stop-color="#4C6FBF"/>
<stop offset="1" stop-color="#8CA3D8"/>
</linearGradient>
<linearGradient id="paint18_linear_347_24" x1="336.588" y1="194.245" x2="390.425" y2="194.245" gradientUnits="userSpaceOnUse">
<stop stop-color="#FFAC06"/>
<stop offset="1" stop-color="#FF8409"/>
</linearGradient>
<linearGradient id="paint19_linear_347_24" x1="8.77714" y1="198.329" x2="55.8939" y2="198.329" gradientUnits="userSpaceOnUse">
<stop stop-color="#FFAC06"/>
<stop offset="1" stop-color="#FF8409"/>
</linearGradient>
<linearGradient id="paint20_linear_347_24" x1="299.511" y1="312.582" x2="335.364" y2="312.582" gradientUnits="userSpaceOnUse">
<stop stop-color="#4C6FBF"/>
<stop offset="1" stop-color="#8CA3D8"/>
</linearGradient>
<linearGradient id="paint21_linear_347_24" x1="251.561" y1="157.665" x2="287.414" y2="157.665" gradientUnits="userSpaceOnUse">
<stop stop-color="#4C6FBF"/>
<stop offset="1" stop-color="#8CA3D8"/>
</linearGradient>
<linearGradient id="paint22_linear_347_24" x1="99.2045" y1="170.904" x2="135.057" y2="170.904" gradientUnits="userSpaceOnUse">
<stop stop-color="#4C6FBF"/>
<stop offset="1" stop-color="#8CA3D8"/>
</linearGradient>
<linearGradient id="paint23_linear_347_24" x1="271.191" y1="234.129" x2="307.045" y2="234.129" gradientUnits="userSpaceOnUse">
<stop stop-color="#4C6FBF"/>
<stop offset="1" stop-color="#8CA3D8"/>
</linearGradient>
<linearGradient id="paint24_linear_347_24" x1="175.638" y1="245.756" x2="211.491" y2="245.756" gradientUnits="userSpaceOnUse">
<stop stop-color="#FFAC06"/>
<stop offset="1" stop-color="#FF8409"/>
</linearGradient>
<linearGradient id="paint25_linear_347_24" x1="154.797" y1="113.457" x2="190.65" y2="113.457" gradientUnits="userSpaceOnUse">
<stop stop-color="#FFAC06"/>
<stop offset="1" stop-color="#FF8409"/>
</linearGradient>
<linearGradient id="paint26_linear_347_24" x1="57.6368" y1="312.581" x2="111.474" y2="312.581" gradientUnits="userSpaceOnUse">
<stop stop-color="#4C6FBF"/>
<stop offset="1" stop-color="#8CA3D8"/>
</linearGradient>
<linearGradient id="paint27_linear_347_24" x1="163.224" y1="26.9186" x2="217.062" y2="26.9186" gradientUnits="userSpaceOnUse">
<stop stop-color="#FFAC06"/>
<stop offset="1" stop-color="#FF8409"/>
</linearGradient>
<linearGradient id="paint28_linear_347_24" x1="163.225" y1="370.966" x2="217.062" y2="370.966" gradientUnits="userSpaceOnUse">
<stop stop-color="#FFAC06"/>
<stop offset="1" stop-color="#FF8409"/>
</linearGradient>
</defs>
</svg>
