<svg width="28" height="20" viewBox="0 0 28 20" fill="none" xmlns="http://www.w3.org/2000/svg">
<path d="M8.77 0.445361C8.38573 0.0610906 7.76271 0.0610906 7.37844 0.445361L1.11639 6.70741C0.732119 7.09168 0.732119 7.7147 1.11639 8.09897C1.50066 8.48324 2.12369 8.48324 2.50796 8.09897L8.07422 2.53271L13.6405 8.09897C14.0248 8.48324 14.6478 8.48324 15.032 8.09897C15.4163 7.7147 15.4163 7.09168 15.032 6.70741L8.77 0.445361ZM7.09023 12.293C7.09023 12.8364 7.53078 13.277 8.07422 13.277C8.61766 13.277 9.0582 12.8364 9.0582 12.293L7.09023 12.293ZM7.09023 1.14114L7.09023 12.293L9.0582 12.293L9.0582 1.14114L7.09023 1.14114Z" fill="#FFDB21"/>
<path d="M19.1861 18.8927C19.5703 19.277 20.1933 19.277 20.5776 18.8927L26.8397 12.6306C27.2239 12.2464 27.2239 11.6233 26.8397 11.2391C26.4554 10.8548 25.8324 10.8548 25.4481 11.2391L19.8818 16.8053L14.3156 11.2391C13.9313 10.8548 13.3083 10.8548 12.924 11.2391C12.5397 11.6233 12.5397 12.2464 12.924 12.6306L19.1861 18.8927ZM20.8658 7.04506C20.8658 6.50162 20.4253 6.06108 19.8818 6.06108C19.3384 6.06108 18.8978 6.50162 18.8978 7.04506L20.8658 7.04506ZM20.8658 18.1969L20.8658 7.04506L18.8978 7.04506L18.8979 18.1969L20.8658 18.1969Z" fill="#FFDB21"/>
</svg>
