<svg width="68" height="66" viewBox="0 0 68 66" fill="none" xmlns="http://www.w3.org/2000/svg">
<rect width="68" height="66" rx="5" fill="url(#paint0_linear_55_14)"/>
<g clip-path="url(#clip0_55_14)">
<path d="M40.8373 33.6029V31.8115H39.0824V33.4494H37.5855V31.8115H35.8306V33.4494H34.6606V41.3622H35.8306V43.1051H37.5855V41.3622H39.0824V43.1051H40.8373V41.2087C41.7535 40.8648 42.4074 39.9801 42.4074 38.9453C42.4074 38.3608 42.1988 37.8242 41.8522 37.4058C42.1988 36.9873 42.4074 36.4507 42.4074 35.8663C42.4074 34.8315 41.7535 33.9469 40.8373 33.6029ZM36.4155 35.2043H39.9905C40.3555 35.2043 40.6526 35.5013 40.6526 35.8664C40.6526 36.2314 40.3555 36.5284 39.9905 36.5284H36.4155V35.2043ZM39.9905 38.2833C40.3555 38.2833 40.6526 38.5803 40.6526 38.9453C40.6526 39.3103 40.3555 39.6074 39.9905 39.6074H36.4155V38.2833H39.9905Z" fill="#0D5DD6"/>
<path d="M38.7906 28.1637C38.6542 23.1548 34.5373 19.1221 29.496 19.1221C24.3689 19.1221 20.1978 23.2932 20.1978 28.4203C20.1978 33.4615 24.2305 37.5785 29.2394 37.7149C29.3758 42.7238 33.4927 46.7566 38.534 46.7566C43.661 46.7566 47.8322 42.5854 47.8322 37.4583C47.8323 32.417 43.7996 28.3001 38.7906 28.1637ZM21.9528 28.4203C21.9528 24.2609 25.3367 20.877 29.4961 20.877C33.6089 20.877 36.9631 24.1857 37.0377 28.2811C36.2139 28.4149 35.426 28.657 34.6894 28.9928C34.7104 28.8025 34.7216 28.6093 34.7216 28.4135C34.7216 25.5283 32.3744 23.181 29.4892 23.181C26.6041 23.181 24.2568 25.5283 24.2568 28.4135C24.2568 31.2986 26.6041 33.6459 29.4892 33.6459C29.685 33.6459 29.8783 33.6347 30.0686 33.6136C29.7327 34.3502 29.4907 35.1381 29.3568 35.9619C25.2615 35.8873 21.9528 32.5332 21.9528 28.4203ZM29.4892 31.891C27.5717 31.891 26.0117 30.3309 26.0117 28.4135C26.0117 26.496 27.5717 24.9359 29.4892 24.9359C31.4067 24.9359 32.9667 26.496 32.9667 28.4135C32.9667 30.3309 31.4067 31.891 29.4892 31.891ZM38.5341 45.0016C34.3747 45.0016 30.9907 41.6177 30.9907 37.4583C30.9907 33.2988 34.3747 29.9149 38.5341 29.9149C42.6935 29.9149 46.0774 33.2988 46.0774 37.4583C46.0774 41.6177 42.6935 45.0016 38.5341 45.0016Z" fill="#0D5DD6"/>
<path d="M22.8546 42.2997L23.7135 43.1585L24.9544 41.9177L21.9771 38.9404L19 41.9177L20.241 43.1585L21.0997 42.2997V48.0001H29.4597V46.2453H22.8546V42.2997Z" fill="#0D5DD6"/>
<path d="M45.1456 23.7005L44.2868 22.8417L43.0459 24.0825L46.023 27.0597L49.0002 24.0825L47.7593 22.8417L46.9004 23.7005V18H38.5405V19.7549H45.1456V23.7005Z" fill="#0D5DD6"/>
</g>
<defs>
<linearGradient id="paint0_linear_55_14" x1="34" y1="0" x2="34" y2="66" gradientUnits="userSpaceOnUse">
<stop stop-color="#0C2032"/>
<stop offset="1" stop-color="#001A32"/>
</linearGradient>
<clipPath id="clip0_55_14">
<rect width="30" height="30" fill="white" transform="translate(19 18)"/>
</clipPath>
</defs>
</svg>
