<svg width="68" height="66" viewBox="0 0 68 66" fill="none" xmlns="http://www.w3.org/2000/svg">
<rect width="68" height="66" rx="5" fill="url(#paint0_linear_55_15)"/>
<g clip-path="url(#clip0_55_15)">
<mask id="mask0_55_15" style="mask-type:luminance" maskUnits="userSpaceOnUse" x="19" y="18" width="30" height="30">
<path d="M49 18H19V48H49V18Z" fill="white"/>
</mask>
<g mask="url(#mask0_55_15)">
<path d="M26.0312 31.2422C22.1542 31.2422 19 34.3964 19 38.2734C19 42.1505 22.1542 45.3047 26.0312 45.3047C29.9083 45.3047 33.0625 42.1505 33.0625 38.2734C33.0625 34.3964 29.9083 31.2422 26.0312 31.2422ZM26.0312 43.5469C23.1235 43.5469 20.7578 41.1812 20.7578 38.2734C20.7578 35.3657 23.1235 33 26.0312 33C28.939 33 31.3047 35.3657 31.3047 38.2734C31.3047 41.1812 28.939 43.5469 26.0312 43.5469Z" fill="#0D5DD6"/>
<path d="M26.0313 35.6367C24.5774 35.6367 23.3945 36.8196 23.3945 38.2734C23.3945 39.7273 24.5774 40.9102 26.0313 40.9102C27.4851 40.9102 28.668 39.7273 28.668 38.2734C28.668 36.8196 27.4851 35.6367 26.0313 35.6367ZM26.0313 39.1523C25.5467 39.1523 25.1523 38.758 25.1523 38.2734C25.1523 37.7889 25.5467 37.3945 26.0313 37.3945C26.5158 37.3945 26.9102 37.7889 26.9102 38.2734C26.9102 38.758 26.5158 39.1523 26.0313 39.1523Z" fill="#0D5DD6"/>
<path d="M47.2422 36.1043V33C47.2422 31.0614 45.6652 29.4844 43.7266 29.4844H41.9688V25.0898C41.9688 24.6053 42.3632 24.2109 42.8477 24.2109V22.4531C41.3938 22.4531 40.211 23.636 40.211 25.0898V29.4844H36.3532L34.2438 22.4531H35.6993V20.6953H21.6368V22.4531H23.3946V28.0628C21.9094 28.4469 20.5134 29.1514 19.3193 30.1376L20.4386 31.493C22.0071 30.1978 23.9933 29.4844 26.0313 29.4844C30.8776 29.4844 34.8204 33.4271 34.8204 38.2734V40.9102H38.5269C38.9466 43.4011 41.1183 45.3047 43.7266 45.3047C46.6343 45.3047 49 42.939 49 40.0312C49 38.473 48.3205 37.0707 47.2422 36.1043ZM25.1524 27.7639V22.4531H32.4086L34.518 29.4844H31.8545C30.1846 28.3743 28.1823 27.7266 26.0313 27.7266C25.7372 27.7266 25.444 27.7394 25.1524 27.7639ZM33.8851 31.2422H43.7266C44.6959 31.2422 45.4844 32.0307 45.4844 33V35.0595C44.9344 34.8645 44.3428 34.7578 43.7266 34.7578H35.9748C35.5104 33.4484 34.7947 32.257 33.8851 31.2422ZM36.4308 36.5156H39.7997C39.1485 37.2421 38.6958 38.1496 38.5269 39.1523H36.5782V38.2734C36.5782 37.6747 36.5274 37.0876 36.4308 36.5156ZM43.7266 43.5469C41.788 43.5469 40.211 41.9699 40.211 40.0312C40.211 38.0926 41.788 36.5156 43.7266 36.5156C45.6652 36.5156 47.2422 38.0926 47.2422 40.0312C47.2422 41.9699 45.6652 43.5469 43.7266 43.5469Z" fill="#0D5DD6"/>
<path d="M44.6055 40.0312C44.6055 40.5167 44.212 40.9102 43.7266 40.9102C43.2411 40.9102 42.8477 40.5167 42.8477 40.0312C42.8477 39.5458 43.2411 39.1523 43.7266 39.1523C44.212 39.1523 44.6055 39.5458 44.6055 40.0312Z" fill="#0D5DD6"/>
</g>
</g>
<defs>
<linearGradient id="paint0_linear_55_15" x1="34" y1="0" x2="34" y2="66" gradientUnits="userSpaceOnUse">
<stop stop-color="#0C2032"/>
<stop offset="1" stop-color="#001A32"/>
</linearGradient>
<clipPath id="clip0_55_15">
<rect width="30" height="30" fill="white" transform="translate(19 18)"/>
</clipPath>
</defs>
</svg>
