<svg width="494" height="482" viewBox="0 0 494 482" fill="none" xmlns="http://www.w3.org/2000/svg">
<mask id="mask0_456_207" style="mask-type:alpha" maskUnits="userSpaceOnUse" x="0" y="0" width="494" height="482">
<rect width="494" height="482" rx="20" fill="#0C2032"/>
</mask>
<g mask="url(#mask0_456_207)">
<rect width="494" height="482" rx="20" fill="#0C2032"/>
<path d="M586.6 -30.6513C588.814 -32.0035 590.914 -33.4219 590.47 -36.5532C590.41 -36.9799 590.812 -37.5088 591.07 -37.9415C592.905 -40.8324 591.747 -43.4047 589.99 -45.6825C588.382 -47.762 585.946 -49.1984 585.238 -52.2936C584.098 -47.9603 581.038 -47.9303 577.769 -48.2728C578.057 -49.0001 578.801 -48.97 579.353 -49.2585C579.905 -49.547 580.115 -49.9917 579.779 -50.4605C579.629 -50.6709 579.083 -50.6949 578.741 -50.6468C578.38 -50.5294 578.031 -50.3806 577.697 -50.2021C574.413 -49.1118 570.986 -48.5163 567.528 -48.4351C570.749 -49.1623 573.161 -51.2538 575.795 -53.0448C572.798 -52.4296 569.846 -51.6144 566.958 -50.6048C561.75 -48.8017 556.645 -46.6261 551.227 -45.6524C547.43 -44.9733 543.71 -44.0357 540.014 -43.008C540.014 -43.0861 540.068 -43.1643 540.098 -43.2364C540.89 -45.412 540.482 -47.6598 540.662 -49.6972C542.12 -49.6972 543.398 -49.9797 544.478 -49.6371C546.824 -48.8919 547.922 -50.755 548.455 -51.9931C549.305 -54.2308 549.774 -56.5956 549.841 -58.9888C549.991 -61.483 548.917 -63.7969 547.982 -66.1048C547.22 -67.9559 545.384 -67.6974 543.926 -68.1362C541.892 -68.7372 541.364 -70.1435 541.226 -72.1449C541.1 -73.9179 542.066 -76.0815 540.026 -77.4638C538.628 -76.5743 539.3 -75.1139 538.826 -74.014C538.655 -73.504 538.3 -73.0764 537.831 -72.8151C537.361 -72.5539 536.811 -72.4777 536.289 -72.6017C534.717 -72.83 534.753 -73.9058 535.203 -74.9456C536.337 -77.554 535.407 -77.6561 533.079 -77.1633C531.333 -76.7907 529.713 -77.3616 530.949 -79.8438C531.549 -81.0939 530.589 -81.4365 529.713 -81.5507C527.587 -81.8235 525.426 -81.5205 523.456 -80.6732C518.122 -78.3293 512.477 -76.6284 507.599 -73.3409C502.17 -69.6868 495.816 -68.1782 489.691 -64.9268C490.519 -67.7215 492.127 -69.0737 493.699 -70.444C494.689 -71.1726 495.509 -72.1102 496.098 -73.1906C498.228 -77.6682 501.12 -81.6769 502.578 -86.6172C504.132 -91.864 502.542 -99.2383 497.778 -101.943C496.53 -102.652 495.216 -102.742 495.558 -104.714C496.02 -107.37 494.388 -109.245 492.379 -110.381C489.157 -112.184 487.027 -114.66 486.241 -118.254C485.857 -120.009 484.183 -121.103 483.212 -120.226C480.452 -117.737 477.326 -120.226 474.734 -118.741C474.134 -120.099 474.956 -120.616 475.49 -121.283C476.024 -121.95 476.69 -122.624 475.91 -123.621C473.51 -124.174 471.681 -123.381 469.653 -121.89C465.993 -119.198 462.183 -116.481 458.038 -114.738C452.854 -112.551 450.521 -108.368 448.229 -103.602C446.843 -106.967 445.829 -110.585 442.619 -112.4C440.22 -113.759 438.846 -115.111 439.02 -118.038C439.116 -119.594 438.006 -121.428 436.23 -120.887C434.028 -120.214 431.766 -121.488 429.84 -119.823C428.287 -125.37 427.183 -126.019 422.365 -123.838C414.242 -120.153 407.559 -114.48 401.499 -108.031C397.419 -103.692 393.208 -99.4968 388.3 -96.047C387.916 -97.5735 389.2 -98.9318 388.9 -100.458C387.598 -100.314 386.812 -99.3225 385.901 -98.5472C380.711 -94.0396 376.721 -88.4743 372.474 -83.1433C370.986 -81.2742 369.732 -79.2548 367.32 -78.4975C368.328 -81.4414 368.902 -84.5169 369.024 -87.6269C369.288 -92.0683 367.896 -96.642 363.625 -98.2166C360.763 -99.2744 360.163 -100.621 359.833 -102.989C359.719 -103.812 359.539 -104.792 358.033 -104.72C357.721 -104.293 357.289 -103.758 356.917 -103.181C355.045 -100.266 354.181 -100.086 351.776 -102.201C350.689 -103.103 349.971 -104.374 349.76 -105.771C349.268 -108.68 348.338 -109.089 346.094 -107.262C341.415 -103.445 337.245 -99.1181 334.221 -93.7992C332.193 -90.2412 330.022 -86.7674 326.878 -84.0809C325.078 -82.5183 323.83 -80.8415 323.416 -78.3533C323.107 -75.8691 322.007 -73.5508 320.279 -71.7422C317.237 -68.7792 315.479 -64.8547 312.821 -61.5792C310.529 -58.7845 307.488 -56.2001 306.084 -52.9247C303.294 -46.5119 298.591 -41.4995 294.805 -35.838C292.441 -32.292 290.719 -28.1571 287.93 -25.14C283.85 -20.7166 280.652 -15.6741 276.693 -11.2147C275.817 -10.223 274.893 -9.23734 275.655 -7.96922C276.915 -5.84164 276.459 -5.42696 274.323 -3.68404C269.667 0.126358 269.727 6.68336 268.023 12.1706C267.897 12.5732 268.311 13.1622 268.509 13.649C269.541 16.1913 271.035 18.2588 273.699 19.3887C276.363 20.5186 278.013 19.7913 280.244 17.9943C283.046 15.7466 284.912 17.0988 285.086 21.0955C285.182 23.2772 286.1 24.3951 288.188 24.6295C289.23 24.838 290.295 24.9047 291.355 24.8278C298.135 23.7159 304.68 21.7025 310.194 17.5496C312.083 16.1252 315.341 15.8908 315.659 12.6273C319.343 14.1238 320.159 9.86269 322.72 8.82895L323.002 8.71478L322.876 8.87102C320.585 11.6657 317.549 14.2801 316.145 17.5255C313.379 23.9623 308.676 28.9447 304.89 34.6302C302.76 37.8216 301.146 41.4877 298.831 44.3906C298.684 43.9692 298.396 43.6121 298.015 43.3809C296.677 44.2944 296.641 45.5445 296.737 46.7946C294.937 48.8922 293.281 51.0858 291.619 53.2675C291.267 53.3799 290.945 53.5708 290.677 53.8258C290.409 54.0808 290.202 54.3934 290.071 54.74L289.597 55.8819C288.692 57.0298 287.768 58.1597 286.802 59.2536C285.92 60.2452 285.002 61.2249 285.764 62.499C287.024 64.6266 286.568 65.0352 284.432 66.7842C279.776 70.5946 279.836 77.1456 278.126 82.6388C278.007 83.0415 278.42 83.6244 278.618 84.1113C279.65 86.6535 281.144 88.721 283.802 89.8509C286.46 90.9808 288.122 90.2596 290.353 88.4625C293.149 86.2148 295.021 87.567 295.195 91.5638C295.285 93.7394 296.209 94.8633 298.291 95.0977C299.335 95.306 300.402 95.3728 301.464 95.296C302.664 95.0977 303.9 94.8633 305.1 94.5988C305.22 95.0496 305.346 95.5004 305.49 95.9391C305.718 96.6302 306.138 97.4416 305.646 97.9044C301.854 101.45 305.292 104.515 306.558 107.869C305.748 105.555 308.514 105.411 309.156 104.101C309.583 104.865 310.13 105.555 310.775 106.144C310.936 106.325 311.137 106.465 311.363 106.551C311.588 106.638 311.831 106.67 312.071 106.643C312.024 106.81 311.968 106.975 311.903 107.136C311.681 107.671 311.525 107.995 312.137 108.428C313.721 109.552 315.629 109.51 317.375 109.786C317.494 109.804 317.616 109.804 317.735 109.786C317.135 110.928 316.739 112.19 316.193 113.326C315.101 115.634 315.227 116.806 316.877 118.495C318.311 119.949 319.877 120.935 321.91 119.445C322.432 119.06 323.11 118.946 323.65 119.883C321.778 120.743 321.083 122.714 319.787 124.18C319.383 124.668 319.081 125.231 318.897 125.838C318.713 126.444 318.652 127.08 318.717 127.71C318.782 128.341 318.971 128.951 319.274 129.507C319.578 130.063 319.988 130.553 320.483 130.948C321.203 131.471 322.138 131.958 322.816 130.87C324.442 128.249 327.328 128.466 329.626 127.552C330.484 128.327 329.314 129.169 329.968 129.794C330.622 130.419 331.096 130.768 330.472 131.705C329.47 133.214 328.522 134.854 326.872 135.618C324.019 136.933 321.703 139.188 320.309 142.006C319.157 144.164 319.421 145.847 320.633 147.62C321.598 149.026 322.552 149.501 324.424 148.419C328.786 145.907 329.398 146.568 330.808 150.571C331.408 152.224 332.223 152.019 333.333 151.959C334.887 151.881 336.189 150.348 337.419 150.457C339.513 150.643 341.109 149.164 343.136 149.429C345.326 149.717 347.39 148.696 349.34 147.992C350.9 147.427 353.066 147.572 353.977 145.588C355.645 146.4 356.143 145.09 357.211 144.242C357.991 143.641 359.653 143.749 360.877 143.004C366.24 139.741 371.616 136.489 377.123 133.484C379.199 132.354 380.855 130.683 383.057 129.68C385.169 128.712 387.634 127.732 389.092 126.074C389.378 125.76 389.71 125.493 390.076 125.28C394.141 127.107 398.372 128.535 402.711 129.547C408.902 130.876 411.398 130.064 414.836 124.739C416.036 122.936 417.278 122.786 418.7 124.102C422.221 127.354 425.443 125.443 428.737 123.718C429.66 123.237 430.908 121.65 430.962 121.879C431.43 123.892 434.19 123.309 434.37 124.499C434.97 128.4 438.69 129.704 440.801 132.018C442.913 134.331 446.507 135.395 448.493 138.334C448.57 138.442 448.672 138.53 448.79 138.591C448.907 138.651 449.038 138.683 449.171 138.683C449.303 138.683 449.434 138.651 449.552 138.591C449.67 138.53 449.771 138.442 449.849 138.334C451.049 136.603 451.6 137.889 452.68 138.569C454.26 139.477 455.992 140.088 457.792 140.372C459.718 140.732 461.878 140.973 461.704 137.751C461.668 137.012 462.303 136.213 462.723 135.479C463.863 133.43 464.913 132.336 467.523 134.175C472.323 137.589 478.232 138.527 483.853 139.837C487.795 140.75 489.091 139.584 490.789 135.029C491.737 132.492 493.069 131.885 495.762 132.829C496.254 133.003 496.692 133.34 497.178 133.55C503.568 136.297 506.387 134.926 508.385 128.087C508.583 127.408 508.631 126.687 508.805 126.002C508.925 125.521 509.141 125.064 509.771 123.369C510.137 127.75 513.311 128.862 515.339 129.686C517.894 130.719 518.71 134.981 522.394 133.49C522.712 136.748 525.994 136.982 527.865 138.406C533.379 142.565 539.918 144.573 546.698 145.691C547.76 145.762 548.827 145.694 549.871 145.486C551.953 145.252 552.871 144.134 552.967 141.952C553.141 137.956 555.007 136.603 557.809 138.857C560.04 140.66 561.762 141.345 564.354 140.245C566.946 139.146 568.512 137.048 569.544 134.506C569.742 134.019 570.143 133.43 570.03 133.027C568.326 127.54 568.386 121.007 563.73 117.173C561.594 115.43 561.138 115.015 562.398 112.887C563.148 111.619 562.242 110.634 561.36 109.648C557.407 105.183 554.203 100.14 550.123 95.7167C547.34 92.7117 545.618 88.5647 543.248 85.0188C539.462 79.3573 534.759 74.3569 531.999 67.9201C530.595 64.6446 527.553 62.0603 525.268 59.2656C524.668 58.5684 524.17 57.8352 523.66 57.0899C525.166 56.2185 526.858 55.6595 528.243 54.6859C528.573 55.341 528.885 56.0381 529.221 56.7413C529.623 57.5827 529.275 59.6142 530.769 59.3798C532.515 59.1093 534.423 59.1454 536.007 58.0215C536.607 57.5888 536.463 57.2702 536.241 56.7293C535.317 54.5116 536.361 51.9633 536.097 49.6254C536.578 49.0824 536.881 48.405 536.967 47.6841C537.003 47.4558 537.387 47.5279 537.566 47.8103C538.232 48.8321 539.018 48.3392 539.366 47.6962C539.642 47.1959 539.997 46.7434 540.416 46.3559C539.978 48.5015 539.414 50.6231 538.91 52.7567C538.358 55.0705 542.576 54.7099 541.592 57.4866C542.864 54.127 546.302 51.0738 542.51 47.5219C542.018 47.0651 542.438 46.2538 542.666 45.5626C542.756 45.2921 542.834 45.0156 542.912 44.7392C543.55 44.4209 544.17 44.0699 544.772 43.6874C546.308 42.6477 548.372 42.4073 548.642 40.0814C548.689 39.6967 549.163 39.27 549.439 39.4804C550.861 40.6042 550.897 39.7148 550.771 38.6149C550.645 37.5151 551.275 36.9081 551.941 36.0666C552.958 34.9247 554.048 33.8506 555.205 32.8512C556.543 31.5591 559.117 31.0903 557.275 28.3557C557.239 28.2654 557.225 28.1678 557.235 28.0711C557.245 27.9744 557.279 27.8817 557.332 27.8007C557.386 27.7197 557.458 27.653 557.543 27.6063C557.629 27.5596 557.724 27.5342 557.821 27.5323C558.751 27.5684 558.715 27.1898 559.021 26.3303C559.909 23.931 560.66 21.4829 561.27 18.998C561.57 17.8501 562.224 16.1733 563.118 16.3596C566.718 17.0988 567.666 14.0938 568.584 12.1525C569.682 9.83263 569.988 7.34447 573.179 6.97183C573.521 6.92976 573.779 6.19653 574.091 5.81189C575.291 4.33942 576.797 3.19148 578.141 1.89932C580.709 -0.576836 584.932 -1.52041 585.64 -5.81762C585.707 -5.99897 585.81 -6.16514 585.942 -6.30649C586.073 -6.44783 586.232 -6.56154 586.408 -6.641C589.762 -8.28175 590.344 -11.6594 590.83 -14.6885C591.328 -17.8378 592.665 -21.1073 591.058 -24.3888C589.918 -26.6786 588.202 -28.5838 586.6 -30.6513ZM318.083 90.2475C318.179 89.4722 318.683 89.358 319.187 89.4001C319.461 89.4014 319.731 89.4761 319.967 89.6165C319.793 89.7307 319.607 89.8389 319.421 89.947C319.025 90.1754 318.623 90.3858 318.221 90.6082C318.139 90.5052 318.09 90.3791 318.083 90.2475ZM516.892 -68.3405C518.614 -70.2397 520.408 -71.9466 524.272 -71.2614C521.902 -68.611 519.454 -68.3465 516.892 -68.3405ZM509.369 -62.9975C509.216 -62.6973 508.979 -62.448 508.687 -62.2795C508.396 -62.111 508.062 -62.0306 507.725 -62.048C507.593 -62.048 507.347 -62.2523 507.359 -62.3304C507.503 -63.1538 508.349 -63.0576 508.871 -63.4002C509.225 -63.6346 509.441 -63.4243 509.369 -62.9975ZM356.185 -54.6676C357.307 -56.3985 358.327 -57.1618 360.205 -57.33C359.677 -55.3467 358.597 -54.6796 356.185 -54.6676ZM547.01 -40.8444C546.098 -39.7265 545.21 -39.8467 544.226 -40.8083C545.072 -41.1028 545.96 -41.8541 547.01 -40.8684V-40.8444ZM543.476 -60.4132C543.782 -56.6569 542.756 -54.2288 541.628 -51.7166C538.598 -54.926 538.598 -54.926 543.476 -60.4373V-60.4132ZM540.008 -64.7946C540.854 -64.9148 540.884 -63.875 541.16 -63.3882C541.358 -62.1441 540.686 -61.6753 539.744 -61.507C539.577 -61.4522 539.4 -61.4383 539.227 -61.4664C539.053 -61.4945 538.889 -61.5639 538.748 -61.6687C538.607 -61.7735 538.493 -61.9107 538.416 -62.0687C538.339 -62.2267 538.301 -62.401 538.304 -62.5768C538.24 -63.0968 538.382 -63.6213 538.701 -64.0366C539.02 -64.4518 539.49 -64.7242 540.008 -64.7946ZM536.493 -45.1115C536.619 -45.1476 537.057 -44.7269 537.057 -44.5105C537.057 -43.2003 535.989 -43.1402 535.113 -42.8578C535.347 -43.7653 535.371 -44.787 536.511 -45.1115H536.493ZM532.353 -43.9095C533.379 -44.4685 534.087 -43.1943 534.963 -42.7075C535.113 -42.3709 535.257 -42.0284 535.383 -41.6798L534.831 -41.5175C533.631 -41.1689 532.509 -40.5439 531.381 -40.7061C531.345 -40.8444 531.321 -40.9766 531.279 -41.1088C531.126 -41.6327 531.15 -42.1924 531.348 -42.7011C531.545 -43.2097 531.905 -43.6388 532.371 -43.9215L532.353 -43.9095ZM527.085 -79.0986C527.241 -76.965 526.126 -76.2257 525.046 -75.7269C517.942 -72.4634 510.803 -69.2841 503.676 -66.0807L503.214 -67.1084C510.971 -71.3816 517.582 -77.9326 527.103 -79.1106L527.085 -79.0986ZM490.597 -59.674C488.869 -57.7748 487.459 -55.3167 483.733 -55.7915C485.815 -58.1835 488.185 -59.0068 490.597 -59.674ZM423.253 -120.436C422.317 -118.116 420.919 -117.467 419.053 -116.391C419.419 -119.024 420.457 -120.081 423.253 -120.436ZM388.222 -95.7946C387.484 -92.5491 384.557 -91.5394 381.959 -89.502C383.777 -94.0637 385.007 -95.2657 388.222 -95.7946ZM371.262 -71.2614C369.996 -68.8574 368.784 -67.7395 366.918 -67.4029C367.224 -69.4584 368.526 -70.4621 371.232 -71.2854L371.262 -71.2614ZM367.338 -78.2752C368.148 -77.4939 369.138 -76.8267 369.402 -75.4805C367.134 -75.4204 366.696 -76.4661 367.308 -78.2992L367.338 -78.2752ZM366.624 -67.2226C364.357 -63.1298 361.177 -60.2089 355.957 -59.2232C358.549 -63.6707 361.867 -66.4173 366.624 -67.2226ZM344.618 -94.5925C343.826 -92.3989 343.826 -92.3989 340.707 -92.1344C341.427 -94.5445 343.148 -94.2379 344.618 -94.5925ZM310.829 96.7444C309.72 97.966 308.994 99.4877 308.742 101.12C308.364 99.5812 307.986 98.0426 307.674 96.486C307.512 95.6867 307.386 94.8753 307.278 94.082C308.875 93.6606 310.449 93.1551 311.993 92.5674C312.046 93.5251 312.368 94.4484 312.923 95.2299C312.153 95.6259 311.447 96.1365 310.829 96.7444ZM314.705 107.01C314.431 106.986 314.173 106.874 313.967 106.691C313.762 106.508 313.621 106.264 313.565 105.994C313.759 105.885 313.959 105.789 314.165 105.705C314.429 105.609 314.693 105.501 314.957 105.393C315.117 105.601 315.245 105.832 315.335 106.078C315.527 106.559 315.329 107.112 314.699 107.01H314.705ZM319.319 107.665C319.082 107.881 318.861 108.114 318.659 108.362C318.695 107.937 318.786 107.519 318.929 107.118C319.145 106.673 319.349 106.228 319.529 105.796C319.883 106.505 319.907 107.142 319.313 107.665H319.319ZM322.828 112.942C322.666 112.791 322.372 112.635 322.372 112.485C322.372 112.004 322.75 111.92 323.104 112.052C323.195 112.109 323.269 112.189 323.319 112.284C323.369 112.379 323.392 112.486 323.386 112.593C323.302 112.755 323.008 112.833 322.828 112.942ZM325.348 125.214C326.818 123.411 328.402 124.325 329.878 124.367C328.564 125.701 327.268 127.023 325.33 125.214H325.348ZM533.409 56.6271C532.779 56.7293 532.581 56.1764 532.761 55.6896C532.914 55.2315 533.211 54.8352 533.607 54.5597C534.207 54.2111 534.471 54.6979 534.591 55.1607C534.612 55.3351 534.597 55.5119 534.549 55.6807C534.5 55.8495 534.419 56.0068 534.308 56.1435C534.198 56.2802 534.062 56.3934 533.907 56.4764C533.753 56.5595 533.583 56.6107 533.409 56.6271ZM545.594 36.5535C545.66 33.4763 549.139 33.3862 549.457 30.0866C550.687 35.7241 549.937 36.0726 545.618 36.5535H545.594ZM553.549 30.8138C553.549 30.898 553.285 31.0302 553.261 31.0122C552.703 30.5193 551.863 30.3571 551.581 29.5577C551.539 29.4556 551.581 29.3113 551.611 29.1911C552.061 28.7343 552.211 29.2572 552.475 29.4435C552.991 29.8162 553.699 29.9905 553.573 30.8138H553.549Z" fill="url(#paint0_linear_456_207)"/>
<path d="M233.6 407.349C235.814 405.996 237.914 404.578 237.47 401.447C237.41 401.02 237.812 400.491 238.07 400.059C239.905 397.168 238.747 394.595 236.99 392.318C235.382 390.238 232.946 388.802 232.238 385.706C231.098 390.04 228.038 390.07 224.769 389.727C225.057 389 225.801 389.03 226.353 388.742C226.905 388.453 227.115 388.008 226.779 387.539C226.629 387.329 226.083 387.305 225.741 387.353C225.38 387.471 225.031 387.619 224.697 387.798C221.413 388.888 217.986 389.484 214.528 389.565C217.749 388.838 220.161 386.746 222.795 384.955C219.798 385.57 216.846 386.386 213.958 387.395C208.75 389.198 203.645 391.374 198.227 392.348C194.43 393.027 190.71 393.964 187.014 394.992C187.014 394.914 187.068 394.836 187.098 394.764C187.89 392.588 187.482 390.34 187.662 388.303C189.12 388.303 190.398 388.02 191.478 388.363C193.824 389.108 194.922 387.245 195.455 386.007C196.305 383.769 196.774 381.404 196.841 379.011C196.991 376.517 195.917 374.203 194.982 371.895C194.22 370.044 192.384 370.303 190.926 369.864C188.892 369.263 188.364 367.856 188.226 365.855C188.1 364.082 189.066 361.919 187.026 360.536C185.628 361.426 186.3 362.886 185.826 363.986C185.655 364.496 185.3 364.924 184.831 365.185C184.361 365.446 183.811 365.522 183.289 365.398C181.717 365.17 181.753 364.094 182.203 363.054C183.337 360.446 182.407 360.344 180.079 360.837C178.333 361.209 176.713 360.638 177.949 358.156C178.549 356.906 177.589 356.564 176.713 356.449C174.587 356.177 172.426 356.48 170.456 357.327C165.122 359.671 159.477 361.372 154.599 364.659C149.17 368.313 142.816 369.822 136.691 373.073C137.519 370.279 139.127 368.926 140.699 367.556C141.689 366.827 142.509 365.89 143.098 364.809C145.228 360.332 148.12 356.323 149.578 351.383C151.132 346.136 149.542 338.762 144.778 336.057C143.53 335.348 142.216 335.258 142.558 333.286C143.02 330.63 141.388 328.755 139.379 327.619C136.157 325.816 134.027 323.34 133.241 319.746C132.857 317.991 131.183 316.897 130.212 317.774C127.452 320.263 124.326 317.774 121.734 319.259C121.134 317.901 121.956 317.384 122.49 316.717C123.024 316.05 123.69 315.376 122.91 314.379C120.51 313.826 118.681 314.619 116.653 316.11C112.993 318.802 109.183 321.519 105.038 323.262C99.8543 325.449 97.5206 329.632 95.2288 334.398C93.8429 331.033 92.829 327.415 89.6193 325.6C87.2195 324.241 85.8456 322.889 86.0196 319.962C86.1156 318.406 85.0057 316.572 83.2299 317.113C81.0281 317.786 78.7663 316.512 76.8405 318.177C75.2866 312.63 74.1827 311.981 69.3652 314.162C61.2419 317.847 54.5585 323.52 48.4991 329.969C44.4195 334.308 40.2079 338.503 35.3003 341.953C34.9164 340.426 36.2002 339.068 35.9003 337.542C34.5984 337.686 33.8124 338.678 32.9005 339.453C27.711 343.96 23.7214 349.526 19.4738 354.857C17.9859 356.726 16.732 358.745 14.3202 359.502C15.3285 356.559 15.9025 353.483 16.0241 350.373C16.2881 345.932 14.8962 341.358 10.6246 339.783C7.76285 338.726 7.16291 337.379 6.83294 335.011C6.71895 334.188 6.53896 333.208 5.0331 333.28C4.72114 333.707 4.28917 334.242 3.91721 334.819C2.04538 337.734 1.18146 337.914 -1.22432 335.799C-2.31137 334.897 -3.02897 333.626 -3.24014 332.229C-3.73209 329.32 -4.662 328.911 -6.9058 330.738C-11.5854 334.555 -15.755 338.882 -18.7787 344.201C-20.8065 347.759 -22.9783 351.233 -26.122 353.919C-27.9218 355.482 -29.1697 357.159 -29.5837 359.647C-29.8932 362.131 -30.9934 364.449 -32.7214 366.258C-35.7631 369.221 -37.521 373.145 -40.1787 376.421C-42.4705 379.216 -45.5122 381.8 -46.9161 385.075C-49.7058 391.488 -54.4094 396.501 -58.1951 402.162C-60.5588 405.708 -62.2807 409.843 -65.0704 412.86C-69.15 417.283 -72.3477 422.326 -76.3074 426.785C-77.1833 427.777 -78.1072 428.763 -77.3453 430.031C-76.0854 432.158 -76.5414 432.573 -78.6772 434.316C-83.3327 438.126 -83.2727 444.683 -84.9766 450.171C-85.1026 450.573 -84.6886 451.162 -84.4906 451.649C-83.4587 454.191 -81.9649 456.259 -79.3011 457.389C-76.6373 458.519 -74.9875 457.791 -72.7557 455.994C-69.954 453.747 -68.0881 455.099 -67.9142 459.096C-67.8182 461.277 -66.9002 462.395 -64.8124 462.629C-63.7703 462.838 -62.7047 462.905 -61.6447 462.828C-54.8654 461.716 -48.32 459.703 -42.8065 455.55C-40.9166 454.125 -37.659 453.891 -37.341 450.627C-33.6573 452.124 -32.8414 447.863 -30.2796 446.829L-29.9977 446.715L-30.1236 446.871C-32.4154 449.666 -35.4512 452.28 -36.855 455.526C-39.6208 461.962 -44.3243 466.945 -48.11 472.63C-50.2398 475.822 -51.8536 479.488 -54.1694 482.391C-54.3158 481.969 -54.6044 481.612 -54.9853 481.381C-56.3232 482.294 -56.3592 483.545 -56.2632 484.795C-58.0631 486.892 -59.7189 489.086 -61.3808 491.268C-61.733 491.38 -62.0553 491.571 -62.3233 491.826C-62.5914 492.081 -62.7984 492.393 -62.9286 492.74L-63.4026 493.882C-64.3085 495.03 -65.2324 496.16 -66.1983 497.254C-67.0802 498.245 -67.9981 499.225 -67.2362 500.499C-65.9763 502.627 -66.4323 503.035 -68.5681 504.784C-73.2237 508.595 -73.1637 515.146 -74.8735 520.639C-74.9935 521.041 -74.5795 521.624 -74.3816 522.111C-73.3497 524.654 -71.8558 526.721 -69.198 527.851C-66.5403 528.981 -64.8784 528.26 -62.6466 526.463C-59.8509 524.215 -57.9791 525.567 -57.8051 529.564C-57.7151 531.739 -56.7912 532.863 -54.7094 533.098C-53.6651 533.306 -52.5977 533.373 -51.5357 533.296C-50.3358 533.098 -49.0999 532.863 -47.9 532.599C-47.78 533.05 -47.654 533.5 -47.51 533.939C-47.2821 534.63 -46.8621 535.442 -47.3541 535.904C-51.1457 539.45 -47.708 542.515 -46.4421 545.869C-47.2521 543.555 -44.4863 543.411 -43.8444 542.101C-43.4174 542.865 -42.8705 543.555 -42.2245 544.144C-42.064 544.325 -41.8626 544.465 -41.6371 544.551C-41.4117 544.638 -41.1687 544.67 -40.9286 544.643C-40.9756 544.81 -41.0317 544.975 -41.0966 545.136C-41.3186 545.671 -41.4746 545.995 -40.8627 546.428C-39.2788 547.552 -37.371 547.51 -35.6251 547.786C-35.5058 547.804 -35.3845 547.804 -35.2652 547.786C-35.8651 548.928 -36.2611 550.19 -36.807 551.326C-37.8989 553.634 -37.7729 554.806 -36.1231 556.495C-34.6892 557.949 -33.1234 558.935 -31.0896 557.445C-30.5676 557.06 -29.8897 556.946 -29.3497 557.883C-31.2215 558.743 -31.9175 560.714 -33.2134 562.18C-33.6169 562.668 -33.9193 563.231 -34.103 563.838C-34.2867 564.444 -34.3479 565.08 -34.2831 565.71C-34.2183 566.341 -34.0288 566.951 -33.7256 567.507C-33.4225 568.063 -33.0117 568.553 -32.5174 568.948C-31.7975 569.471 -30.8616 569.958 -30.1836 568.87C-28.5578 566.249 -25.6721 566.466 -23.3743 565.552C-22.5163 566.327 -23.6862 567.169 -23.0323 567.794C-22.3784 568.419 -21.9044 568.768 -22.5283 569.705C-23.5303 571.214 -24.4782 572.854 -26.128 573.618C-28.9806 574.933 -31.2971 577.188 -32.6914 580.006C-33.8433 582.164 -33.5793 583.847 -32.3674 585.62C-31.4015 587.026 -30.4476 587.501 -28.5758 586.419C-24.2142 583.907 -23.6022 584.568 -22.1924 588.571C-21.5924 590.224 -20.7765 590.019 -19.6666 589.959C-18.1128 589.881 -16.8109 588.348 -15.581 588.457C-13.4872 588.643 -11.8913 587.164 -9.86352 587.429C-7.67372 587.717 -5.60992 586.696 -3.6601 585.992C-2.10024 585.427 0.0655594 585.572 0.97747 583.588C2.64532 584.4 3.14328 583.09 4.21118 582.242C4.9911 581.641 6.65295 581.749 7.87684 581.004C13.2403 577.741 18.6158 574.489 24.1233 571.484C26.1991 570.354 27.855 568.683 30.0568 567.68C32.1686 566.712 34.6344 565.732 36.0922 564.074C36.3778 563.76 36.7096 563.493 37.0761 563.28C41.1409 565.107 45.3721 566.535 49.711 567.547C55.9024 568.876 58.3982 568.064 61.8358 562.739C63.0357 560.936 64.2776 560.786 65.6995 562.102C69.2212 565.354 72.4429 563.443 75.7366 561.718C76.6605 561.237 77.9084 559.65 77.9624 559.879C78.4303 561.892 81.1901 561.309 81.3701 562.499C81.97 566.4 85.6897 567.704 87.8015 570.018C89.9133 572.331 93.5069 573.395 95.4928 576.334C95.5699 576.442 95.6717 576.53 95.7896 576.591C95.9075 576.651 96.0381 576.683 96.1707 576.683C96.3032 576.683 96.4339 576.651 96.5518 576.591C96.6697 576.53 96.7714 576.442 96.8486 576.334C98.0485 574.603 98.6004 575.889 99.6804 576.569C101.26 577.477 102.992 578.088 104.792 578.372C106.718 578.732 108.878 578.973 108.704 575.751C108.668 575.012 109.303 574.213 109.723 573.479C110.863 571.43 111.913 570.336 114.523 572.175C119.323 575.589 125.232 576.527 130.853 577.837C134.795 578.75 136.091 577.584 137.789 573.029C138.737 570.492 140.069 569.885 142.762 570.829C143.254 571.003 143.692 571.34 144.178 571.55C150.568 574.297 153.387 572.926 155.385 566.087C155.583 565.408 155.631 564.687 155.805 564.002C155.925 563.521 156.141 563.064 156.771 561.369C157.137 565.75 160.311 566.862 162.339 567.686C164.894 568.719 165.71 572.981 169.394 571.49C169.712 574.748 172.994 574.982 174.865 576.406C180.379 580.565 186.918 582.573 193.698 583.691C194.76 583.762 195.827 583.694 196.871 583.486C198.953 583.252 199.871 582.134 199.967 579.952C200.141 575.956 202.007 574.603 204.809 576.857C207.04 578.66 208.762 579.345 211.354 578.245C213.946 577.146 215.512 575.048 216.544 572.506C216.742 572.019 217.143 571.43 217.03 571.027C215.326 565.54 215.386 559.007 210.73 555.173C208.594 553.43 208.138 553.015 209.398 550.887C210.148 549.619 209.242 548.634 208.36 547.648C204.407 543.183 201.203 538.14 197.123 533.717C194.34 530.712 192.618 526.565 190.248 523.019C186.462 517.357 181.759 512.357 178.999 505.92C177.595 502.645 174.553 500.06 172.268 497.266C171.668 496.568 171.17 495.835 170.66 495.09C172.166 494.218 173.858 493.66 175.243 492.686C175.573 493.341 175.885 494.038 176.221 494.741C176.623 495.583 176.275 497.614 177.769 497.38C179.515 497.109 181.423 497.145 183.007 496.021C183.607 495.589 183.463 495.27 183.241 494.729C182.317 492.512 183.361 489.963 183.097 487.625C183.578 487.082 183.881 486.405 183.967 485.684C184.003 485.456 184.387 485.528 184.566 485.81C185.232 486.832 186.018 486.339 186.366 485.696C186.642 485.196 186.997 484.743 187.416 484.356C186.978 486.501 186.414 488.623 185.91 490.757C185.358 493.071 189.576 492.71 188.592 495.487C189.864 492.127 193.302 489.074 189.51 485.522C189.018 485.065 189.438 484.254 189.666 483.563C189.756 483.292 189.834 483.016 189.912 482.739C190.55 482.421 191.17 482.07 191.772 481.687C193.308 480.648 195.372 480.407 195.642 478.081C195.689 477.697 196.163 477.27 196.439 477.48C197.861 478.604 197.897 477.715 197.771 476.615C197.645 475.515 198.275 474.908 198.941 474.067C199.958 472.925 201.048 471.851 202.205 470.851C203.543 469.559 206.117 469.09 204.275 466.356C204.239 466.265 204.225 466.168 204.235 466.071C204.245 465.974 204.279 465.882 204.332 465.801C204.386 465.72 204.458 465.653 204.543 465.606C204.629 465.56 204.724 465.534 204.821 465.532C205.751 465.568 205.715 465.19 206.021 464.33C206.909 461.931 207.66 459.483 208.27 456.998C208.57 455.85 209.224 454.173 210.118 454.36C213.718 455.099 214.666 452.094 215.584 450.153C216.682 447.833 216.988 445.344 220.179 444.972C220.521 444.93 220.779 444.197 221.091 443.812C222.291 442.339 223.797 441.191 225.141 439.899C227.709 437.423 231.932 436.48 232.64 432.182C232.707 432.001 232.81 431.835 232.942 431.694C233.073 431.552 233.232 431.438 233.408 431.359C236.762 429.718 237.344 426.341 237.83 423.312C238.328 420.162 239.665 416.893 238.058 413.611C236.918 411.321 235.202 409.416 233.6 407.349ZM-34.9172 528.248C-34.8212 527.472 -34.3173 527.358 -33.8133 527.4C-33.5387 527.401 -33.2695 527.476 -33.0334 527.616C-33.2074 527.731 -33.3933 527.839 -33.5793 527.947C-33.9753 528.175 -34.3773 528.386 -34.7792 528.608C-34.8613 528.505 -34.9096 528.379 -34.9172 528.248ZM163.892 369.659C165.614 367.76 167.408 366.053 171.272 366.739C168.902 369.389 166.454 369.653 163.892 369.659ZM156.369 375.002C156.216 375.303 155.979 375.552 155.687 375.721C155.396 375.889 155.062 375.969 154.725 375.952C154.593 375.952 154.347 375.748 154.359 375.67C154.503 374.846 155.349 374.942 155.871 374.6C156.225 374.365 156.441 374.576 156.369 375.002ZM3.18527 383.332C4.30717 381.602 5.32707 380.838 7.2049 380.67C6.67695 382.653 5.59705 383.32 3.18527 383.332ZM194.01 397.156C193.098 398.273 192.21 398.153 191.226 397.192C192.072 396.897 192.96 396.146 194.01 397.132V397.156ZM190.476 377.587C190.782 381.343 189.756 383.771 188.628 386.283C185.598 383.074 185.598 383.074 190.476 377.563V377.587ZM187.008 373.205C187.854 373.085 187.884 374.125 188.16 374.612C188.358 375.856 187.686 376.325 186.744 376.493C186.577 376.548 186.4 376.562 186.227 376.534C186.053 376.505 185.889 376.436 185.748 376.331C185.607 376.227 185.493 376.089 185.416 375.931C185.339 375.773 185.301 375.599 185.304 375.423C185.24 374.903 185.382 374.379 185.701 373.963C186.02 373.548 186.49 373.276 187.008 373.205ZM183.493 392.888C183.619 392.852 184.057 393.273 184.057 393.489C184.057 394.8 182.989 394.86 182.113 395.142C182.347 394.235 182.371 393.213 183.511 392.888H183.493ZM179.353 394.09C180.379 393.532 181.087 394.806 181.963 395.292C182.113 395.629 182.257 395.972 182.383 396.32L181.831 396.482C180.631 396.831 179.509 397.456 178.381 397.294C178.345 397.156 178.321 397.023 178.279 396.891C178.126 396.367 178.15 395.808 178.348 395.299C178.545 394.79 178.905 394.361 179.371 394.078L179.353 394.09ZM174.085 358.901C174.241 361.035 173.126 361.774 172.046 362.273C164.942 365.537 157.803 368.716 150.676 371.919L150.214 370.892C157.971 366.618 164.582 360.067 174.103 358.889L174.085 358.901ZM137.597 378.326C135.869 380.225 134.459 382.683 130.733 382.209C132.815 379.817 135.185 378.993 137.597 378.326ZM70.2531 317.564C69.3172 319.884 67.9193 320.533 66.0535 321.609C66.4194 318.976 67.4574 317.919 70.2531 317.564ZM35.2223 342.205C34.4844 345.451 31.5566 346.461 28.9589 348.498C30.7767 343.936 32.0066 342.734 35.2223 342.205ZM18.2619 366.739C16.996 369.143 15.7841 370.26 13.9183 370.597C14.2243 368.542 15.5261 367.538 18.2319 366.715L18.2619 366.739ZM14.3382 359.725C15.1482 360.506 16.1381 361.173 16.4021 362.52C14.1343 362.58 13.6963 361.534 14.3082 359.701L14.3382 359.725ZM13.6243 370.777C11.3565 374.87 8.17681 377.791 2.95729 378.777C5.54905 374.329 8.86674 371.583 13.6243 370.777ZM-8.38165 343.407C-9.17358 345.601 -9.17358 345.601 -12.2933 345.866C-11.5734 343.456 -9.85152 343.762 -8.38165 343.407ZM-42.1705 534.744C-43.28 535.966 -44.0061 537.488 -44.2583 539.12C-44.6363 537.581 -45.0143 536.043 -45.3262 534.486C-45.4882 533.687 -45.6142 532.875 -45.7222 532.082C-44.1248 531.661 -42.5508 531.155 -41.0066 530.567C-40.9542 531.525 -40.6317 532.448 -40.0767 533.23C-40.847 533.626 -41.553 534.136 -42.1705 534.744ZM-38.2949 545.01C-38.5687 544.986 -38.8274 544.874 -39.0327 544.691C-39.2381 544.508 -39.3791 544.264 -39.4348 543.994C-39.2411 543.885 -39.0407 543.789 -38.8348 543.705C-38.5709 543.609 -38.3069 543.501 -38.0429 543.393C-37.8827 543.601 -37.7552 543.832 -37.665 544.078C-37.473 544.559 -37.6709 545.112 -38.3009 545.01H-38.2949ZM-33.6813 545.665C-33.918 545.881 -34.1386 546.114 -34.3413 546.362C-34.3047 545.937 -34.214 545.519 -34.0713 545.118C-33.8553 544.673 -33.6513 544.228 -33.4713 543.796C-33.1174 544.505 -33.0934 545.142 -33.6873 545.665H-33.6813ZM-30.1716 550.942C-30.3336 550.791 -30.6276 550.635 -30.6276 550.485C-30.6276 550.004 -30.2496 549.92 -29.8957 550.052C-29.8047 550.109 -29.7306 550.189 -29.6811 550.284C-29.6315 550.379 -29.6082 550.486 -29.6137 550.593C-29.6977 550.755 -29.9917 550.833 -30.1716 550.942ZM-27.6519 563.214C-26.182 561.411 -24.5982 562.325 -23.1223 562.367C-24.4362 563.701 -25.7321 565.023 -27.6699 563.214H-27.6519ZM180.409 494.627C179.779 494.729 179.581 494.176 179.761 493.69C179.914 493.231 180.211 492.835 180.607 492.56C181.207 492.211 181.471 492.698 181.591 493.161C181.612 493.335 181.597 493.512 181.549 493.681C181.5 493.849 181.419 494.007 181.308 494.144C181.198 494.28 181.062 494.393 180.907 494.476C180.753 494.559 180.583 494.611 180.409 494.627ZM192.594 474.553C192.66 471.476 196.139 471.386 196.457 468.087C197.687 473.724 196.937 474.073 192.618 474.553H192.594ZM200.549 468.814C200.549 468.898 200.285 469.03 200.261 469.012C199.703 468.519 198.863 468.357 198.581 467.558C198.539 467.456 198.581 467.311 198.611 467.191C199.061 466.734 199.211 467.257 199.475 467.444C199.991 467.816 200.699 467.99 200.573 468.814H200.549Z" fill="url(#paint1_linear_456_207)"/>
<path d="M459.549 409.432V409.432L459.561 409.432C472.65 408.805 483.534 409.846 491.137 411.831C494.94 412.825 497.908 414.051 499.919 415.413C501.937 416.78 502.943 418.247 502.943 419.717C502.943 421.18 501.895 422.625 499.812 423.979C497.738 425.327 494.694 426.546 490.839 427.571C483.133 429.62 472.245 430.879 459.549 430.879C446.853 430.879 435.368 429.589 427.063 427.508C422.909 426.466 419.565 425.23 417.266 423.867C414.95 422.495 413.771 421.042 413.771 419.591C413.771 418.146 414.944 416.763 417.259 415.496C419.557 414.238 422.9 413.142 427.056 412.241C435.361 410.441 446.849 409.432 459.549 409.432Z" stroke="#020509" stroke-width="0.5"/>
<path d="M458.804 462.191V461.654V461.608V461.394L459.014 461.361C459.017 461.36 459.02 461.36 459.024 461.359C459.504 460.996 460.36 460.521 461.403 459.994C462.557 459.41 463.967 458.749 465.413 458.088C466.368 457.651 467.338 457.214 468.26 456.799C470.135 455.954 471.815 455.198 472.78 454.707C487.053 447.309 492.023 440.964 494.056 436.247C494.889 434.313 495.233 432.649 495.519 431.262C495.584 430.95 495.645 430.653 495.708 430.37C496.051 428.839 496.463 427.657 497.82 427.08L497.828 427.077L497.836 427.074C499.087 426.638 500.308 426.12 501.491 425.525C501.95 425.266 502.476 424.853 502.981 424.457L502.997 424.445C503.249 424.247 503.496 424.054 503.718 423.895C503.936 423.739 504.148 423.603 504.329 423.528L504.485 423.464L504.603 423.585C505.451 424.454 505.75 425.691 505.714 427.063C505.698 427.673 505.615 428.318 505.481 428.979C505.675 428.452 505.908 427.882 506.199 427.252L506.314 427.003L506.552 427.141C507.21 427.524 507.625 427.987 507.978 428.478C508.112 428.664 508.239 428.858 508.365 429.05C508.403 429.107 508.44 429.164 508.477 429.22C508.516 429.279 508.555 429.337 508.595 429.396C508.612 428.963 508.633 428.534 508.652 428.111C508.738 426.297 508.819 424.586 508.658 423.102C508.441 421.092 507.79 419.593 506.181 418.857L506.18 418.857C505.336 418.466 504.715 418.337 504.148 418.219C503.952 418.178 503.762 418.139 503.571 418.09C503.201 417.996 502.841 417.868 502.459 417.627C502.079 417.388 501.688 417.042 501.247 416.525M458.804 462.191L501.437 416.362M458.804 462.191L459.215 461.846C459.22 461.841 459.225 461.837 459.231 461.832C470.193 460.053 480.651 455.958 489.908 449.82L489.909 449.819C494.149 446.971 497.837 443.379 500.796 439.216C501.873 437.701 503.486 434.917 504.568 432.052C504.408 432.668 504.249 433.261 504.026 433.898C503.331 435.886 502.019 438.286 498.165 442.835L498.165 442.835C492.805 449.173 484.323 454.412 475.152 457.955C466.287 461.38 456.806 463.21 448.925 462.927M458.804 462.191L448.925 462.927M501.247 416.525C501.247 416.524 501.247 416.524 501.247 416.524L501.437 416.362M501.247 416.525C501.247 416.525 501.247 416.525 501.247 416.525L501.437 416.362M501.247 416.525C500.764 415.96 500.334 415.649 499.869 415.312C499.777 415.245 499.683 415.178 499.587 415.107C499.189 414.812 498.773 414.473 498.307 413.944M501.437 416.362C500.933 415.773 500.479 415.444 500.011 415.107C499.447 414.698 498.864 414.276 498.153 413.366C498.197 413.578 498.249 413.769 498.307 413.944M498.307 413.944C498.182 413.802 498.053 413.646 497.92 413.474C497.883 413.302 497.851 413.119 497.824 412.922L501.671 417.692C501.859 423.478 501.187 423.947 496.401 425.762C492.974 426.964 489.438 427.833 485.844 428.358M498.307 413.944C498.391 414.194 498.488 414.408 498.596 414.596C498.832 415.007 499.125 415.305 499.464 415.574C499.677 415.744 499.894 415.893 500.126 416.052C500.278 416.156 500.436 416.264 500.603 416.385C501.015 416.684 501.446 417.036 501.863 417.53L501.919 417.597L501.921 417.683C501.968 419.132 501.962 420.263 501.848 421.17C501.734 422.08 501.509 422.781 501.106 423.359C500.704 423.937 500.14 424.37 499.387 424.77C498.638 425.168 497.683 425.543 496.49 425.995L496.484 425.998L496.484 425.998C493.042 427.205 489.492 428.078 485.882 428.605M485.882 428.605C485.883 428.605 485.884 428.605 485.885 428.605L485.844 428.358M485.882 428.605C477.789 429.926 469.599 430.565 461.399 430.516M485.882 428.605C485.882 428.605 485.881 428.605 485.88 428.605L485.844 428.358M485.844 428.358L448.925 462.927M506.426 427.357C506.5 427.4 506.572 427.445 506.64 427.49C506.644 427.481 506.649 427.471 506.653 427.462L506.426 427.357ZM506.426 427.357L506.3 427.573C506.307 427.577 506.315 427.581 506.322 427.586C506.356 427.51 506.39 427.434 506.426 427.357ZM481.963 448.788C476.6 452.982 463.959 458.054 457.13 460.309C456.654 460.471 455.681 460.722 454.543 461.015C452.282 461.597 449.369 462.348 448.4 462.905L481.963 448.788ZM481.963 448.788C482.06 448.786 482.152 448.789 482.24 448.797L482.263 448.548L482.104 448.355C482.029 448.417 481.951 448.479 481.872 448.542C480.483 448.609 478.337 449.572 475.519 450.836C464.131 455.944 441.775 465.971 414.121 441.698C413.48 441.119 412.716 440.391 411.914 439.628C410.271 438.063 408.469 436.346 407.24 435.443L407.326 431.449L481.963 448.788ZM448.925 462.927C449.119 462.844 449.35 462.756 449.609 462.666C450.35 462.407 451.307 462.13 452.302 461.861C453.068 461.653 453.859 461.449 454.587 461.262C455.734 460.966 456.725 460.711 457.209 460.546C460.697 459.394 465.693 457.511 470.467 455.385C475.234 453.261 479.805 450.884 482.421 448.742L482.892 448.356L482.286 448.3C481.423 448.219 480.259 448.563 478.858 449.117C477.854 449.514 476.7 450.032 475.411 450.61C474.888 450.845 474.342 451.09 473.775 451.34C469.842 453.08 464.842 455.127 458.949 456.232C447.181 458.439 431.815 456.895 414.287 441.512C413.649 440.934 412.89 440.211 412.09 439.45C411.669 439.049 411.237 438.637 410.805 438.23C409.605 437.1 408.409 436.008 407.492 435.319L407.572 431.663C408.965 432.883 410.275 434.195 411.493 435.591L411.493 435.591L411.497 435.595C415.679 440.182 420.562 444.078 425.962 447.139L425.962 447.14L425.969 447.143C429.031 448.757 434.438 450.859 439.936 452.282C442.686 452.994 445.466 453.538 447.992 453.765C450.514 453.991 452.804 453.904 454.563 453.338L455.161 453.145L454.595 452.874C453.485 452.343 452.157 452.026 450.578 451.69C450.315 451.634 450.045 451.578 449.767 451.52C448.368 451.227 446.774 450.894 444.941 450.388C440.555 449.175 434.798 446.966 427.183 441.947C419.781 436.402 413.299 429.725 407.976 422.161L407.521 421.516V421.712C407.5 421.66 407.483 421.608 407.47 421.558C407.414 421.333 407.437 421.114 407.528 420.895C407.716 420.443 408.193 419.996 408.839 419.581C410.119 418.759 411.896 418.165 412.675 417.931C413.368 417.726 413.806 417.554 414.096 417.384C414.399 417.207 414.543 417.033 414.648 416.839C414.686 416.769 414.713 416.71 414.739 416.655C414.786 416.554 414.827 416.467 414.915 416.346C415.04 416.174 415.257 415.954 415.697 415.664C416.066 415.422 416.341 415.251 416.56 415.115C416.611 415.083 416.659 415.053 416.704 415.025C416.941 414.877 417.116 414.763 417.274 414.624C417.386 414.525 417.488 414.414 417.602 414.27C417.566 414.343 417.528 414.412 417.488 414.479C417.25 414.879 416.946 415.189 416.594 415.477C416.363 415.666 416.122 415.838 415.866 416.02C415.724 416.121 415.577 416.226 415.424 416.339C415.008 416.647 414.575 416.999 414.168 417.464L414.098 417.544L414.107 417.649C414.283 419.808 414.609 421.951 415.081 424.065L415.105 424.171L415.2 424.226C417.715 425.692 421.135 426.813 425.017 427.673C428.903 428.533 433.267 429.136 437.682 429.557C446.51 430.398 455.555 430.516 461.399 430.516M461.399 430.516C461.398 430.516 461.398 430.516 461.398 430.516L461.4 430.266V430.516C461.399 430.516 461.399 430.516 461.399 430.516ZM408.021 422.659C413.313 430.101 419.729 436.677 427.039 442.152C437.868 449.29 444.965 450.772 449.718 451.765C451.496 452.136 452.945 452.439 454.14 452.944C454.231 452.917 454.322 452.89 454.41 452.862L454.487 453.1L454.379 453.325C454.295 453.285 454.209 453.246 454.122 453.208C447.102 455.125 432.063 450.072 426.085 446.922C420.708 443.874 415.846 439.994 411.681 435.427C410.41 433.97 409.04 432.603 407.579 431.337L408.021 422.659ZM408.021 422.659V422.493V422.305H407.937L408.021 422.659ZM415.325 424.01C414.855 421.908 414.531 419.776 414.356 417.629C414.884 417.027 415.459 416.617 416.001 416.231C416.943 415.559 417.789 414.957 418.128 413.534L415.325 424.01ZM417.896 413.431C417.512 413.991 417.332 414.239 417.108 414.437C416.827 414.685 416.475 414.853 415.56 415.455C414.788 415.963 414.631 416.296 414.501 416.572C414.323 416.95 414.195 417.221 412.604 417.692C411.103 418.142 405.826 419.947 407.521 422.207L417.896 413.431Z" stroke="#020509" stroke-width="0.5"/>
<path d="M481.435 448.689C478.805 450.661 474.61 452.823 470.201 454.787C465.442 456.907 460.461 458.784 456.989 459.931L456.988 459.932C456.519 460.089 455.578 460.332 454.466 460.618C453.724 460.809 452.907 461.019 452.103 461.237C451.107 461.507 450.137 461.788 449.379 462.053C449.001 462.185 448.67 462.316 448.413 462.442C448.285 462.505 448.17 462.568 448.076 462.634C447.984 462.696 447.896 462.771 447.836 462.86L447.59 463.225L448.029 463.249C456.151 463.697 466.051 461.842 475.27 458.281C484.487 454.72 493.052 449.441 498.484 443.017C502.355 438.48 503.711 436.04 504.435 433.969C504.694 433.229 504.872 432.534 505.056 431.819C505.127 431.543 505.198 431.264 505.275 430.979C505.538 430.01 505.871 428.938 506.473 427.581C506.913 427.885 507.21 428.236 507.484 428.627C507.579 428.761 507.673 428.904 507.771 429.053C507.985 429.379 508.218 429.733 508.51 430.081C508.704 435.032 508.242 439.987 507.136 444.817C506.857 446.01 506.149 448.421 505.335 450.747C504.929 451.91 504.498 453.048 504.083 453.999C503.682 454.918 503.305 455.641 502.989 456.049C502.818 456.119 502.539 456.262 502.181 456.458C501.756 456.691 501.196 457.01 500.522 457.404C499.175 458.192 497.365 459.279 495.25 460.567C491.02 463.143 485.566 466.525 480.142 469.923C474.717 473.321 469.321 476.736 465.207 479.379C463.15 480.7 461.412 481.829 460.151 482.666C459.521 483.085 459.009 483.431 458.635 483.693C458.448 483.824 458.294 483.935 458.177 484.023C458.109 484.074 458.049 484.121 458 484.163C454.531 484.258 451.064 483.928 447.675 483.181L447.675 483.181L447.67 483.18C447.628 483.171 447.582 483.162 447.532 483.153C447.199 483.087 446.695 482.988 446.233 482.849C445.967 482.769 445.727 482.679 445.549 482.581C445.395 482.497 445.323 482.426 445.294 482.381C448.314 481.989 451.279 481.254 454.133 480.188C454.563 480.043 455.108 479.894 455.718 479.726C455.848 479.69 455.982 479.653 456.118 479.616C456.887 479.403 457.728 479.162 458.53 478.872C459.332 478.583 460.105 478.241 460.734 477.823C461.362 477.407 461.87 476.9 462.103 476.271L462.111 476.249L462.115 476.226L462.334 474.943L462.383 474.657L462.092 474.651C445.967 474.34 434.358 466.463 422.572 457.507L415.283 450.561C415.012 450.279 414.799 450.022 414.605 449.788L414.583 449.762C414.385 449.524 414.199 449.301 413.996 449.116C413.789 448.928 413.561 448.775 413.273 448.671C413.021 448.58 412.732 448.53 412.384 448.52L408.372 442.097L407.596 435.961C408.413 436.644 409.397 437.556 410.399 438.5C410.647 438.733 410.895 438.968 411.142 439.202C412.137 440.142 413.107 441.06 413.894 441.746C431.539 457.233 447.061 458.814 458.978 456.577C464.929 455.46 469.971 453.394 473.915 451.65C474.484 451.399 475.028 451.155 475.549 450.921C476.839 450.343 477.982 449.831 478.979 449.437C479.968 449.047 480.785 448.785 481.435 448.689Z" stroke="#020509" stroke-width="0.5"/>
<path d="M495.699 466.989C492.471 470.508 488.814 473.65 485.845 475.664C478.463 480.656 468.109 484.364 458.81 484.15C458.862 484.114 458.917 484.075 458.977 484.034C459.35 483.778 459.861 483.436 460.492 483.021C461.754 482.189 463.492 481.066 465.55 479.748C469.666 477.112 475.058 473.701 480.478 470.304C485.898 466.906 491.344 463.523 495.566 460.942C497.678 459.652 499.483 458.562 500.825 457.772C501.497 457.377 502.051 457.058 502.47 456.826C502.565 456.773 502.652 456.726 502.731 456.683C501.4 460.016 498.75 463.661 495.699 466.989Z" stroke="#020509" stroke-width="0.5"/>
<path d="M489.631 449.451C480.76 455.333 470.778 459.327 460.308 461.189C460.687 460.976 461.135 460.74 461.639 460.487C462.79 459.908 464.201 459.25 465.65 458.59C466.471 458.216 467.305 457.84 468.111 457.477C470.143 456.562 471.997 455.727 473.01 455.198C487.342 447.77 492.42 441.353 494.515 436.492C495.371 434.507 495.726 432.786 496.012 431.396C496.075 431.09 496.135 430.8 496.196 430.526C496.537 429.002 496.908 428.062 498.009 427.59C499.279 427.147 500.519 426.621 501.721 426.016L501.722 426.017L501.732 426.011C502.225 425.732 502.778 425.299 503.271 424.913L503.306 424.885C503.56 424.686 503.797 424.5 504.009 424.349C504.146 424.25 504.266 424.172 504.367 424.114C504.993 424.843 505.241 425.874 505.203 427.104C505.163 428.409 504.8 429.902 504.267 431.408C503.2 434.419 501.472 437.424 500.388 438.974C497.464 443.087 493.82 446.637 489.631 449.451Z" stroke="#020509" stroke-width="0.5"/>
<path d="M426.843 442.274L426.848 442.278L426.854 442.282C434.516 447.364 440.323 449.611 444.761 450.838C446.663 451.364 448.313 451.702 449.74 451.995C449.976 452.043 450.205 452.09 450.428 452.136C451.692 452.399 452.758 452.64 453.67 452.974C452.104 453.339 450.153 453.383 447.99 453.188C445.499 452.965 442.748 452.427 440.014 451.72C434.548 450.305 429.18 448.216 426.158 446.624C420.801 443.596 415.957 439.74 411.805 435.198C410.486 433.685 409.059 432.269 407.536 430.961C407.523 430.585 407.483 430.071 407.437 429.485C407.425 429.33 407.412 429.17 407.4 429.006C407.339 428.209 407.277 427.312 407.257 426.43C407.237 425.547 407.258 424.689 407.36 423.967C407.438 423.419 407.56 422.976 407.727 422.664C413.042 430.152 419.491 436.768 426.843 442.274Z" stroke="#020509" stroke-width="0.5"/>
<path d="M422.243 457.943C433.968 466.885 445.545 474.82 461.777 475.192L461.639 476.002L459.037 476.275L459.047 476.222L458.734 476.231C446.98 476.574 439.012 474.939 429.51 468.532L429.51 468.532L429.506 468.529C425.785 466.122 422.411 463.219 419.475 459.9C416.068 455.461 415.19 454.048 414.727 453.058C414.616 452.821 414.527 452.604 414.433 452.375C414.151 451.687 413.821 450.882 412.696 449.048C412.843 449.069 412.969 449.101 413.081 449.141C413.295 449.219 413.469 449.333 413.638 449.486C413.812 449.644 413.978 449.839 414.181 450.082C414.191 450.094 414.201 450.106 414.211 450.118C414.405 450.35 414.629 450.618 414.911 450.911L414.91 450.911L414.918 450.918L422.221 457.925L422.232 457.935L422.243 457.943Z" stroke="#020509" stroke-width="0.5"/>
<path d="M408.495 443.261L412.001 448.9L412.001 448.9C413.309 450.992 413.652 451.827 413.953 452.561C414.049 452.796 414.141 453.019 414.258 453.27C414.749 454.317 415.661 455.773 419.068 460.212L419.074 460.218L419.079 460.225C422.046 463.58 425.456 466.515 429.216 468.948C438.431 475.161 446.238 476.933 457.298 476.763C456.633 476.956 455.858 477.114 455.005 477.239C453.508 477.459 451.792 477.575 450.054 477.613C446.575 477.689 443.029 477.451 441 477.11L441 477.11C437.882 476.59 435.508 475.734 433.261 474.839C432.9 474.695 432.542 474.55 432.184 474.406C430.36 473.668 428.547 472.934 426.423 472.383L426.324 472.333L425.597 471.961C423.336 470.599 421.4 468.758 419.928 466.567L419.921 466.556L419.913 466.547C414.538 460.052 409.751 451.76 408.495 443.261Z" stroke="#020509" stroke-width="0.5"/>
<path d="M444.775 481.941L444.67 481.954L444.628 482.009C443.847 482.046 442.788 481.839 441.566 481.458C440.292 481.06 438.865 480.482 437.433 479.823C434.568 478.507 431.701 476.882 430.023 475.787C429.74 475.601 429.467 475.427 429.207 475.26C428.557 474.844 427.984 474.477 427.515 474.107C427.023 473.718 426.675 473.347 426.483 472.945C428.451 473.479 430.156 474.167 431.9 474.871C432.257 475.015 432.615 475.159 432.978 475.304C435.243 476.203 437.654 477.075 440.808 477.603C442.876 477.951 446.455 478.189 449.955 478.113C451.706 478.075 453.444 477.957 454.968 477.734C456.463 477.514 457.773 477.19 458.688 476.725L461.316 476.449C461.102 476.778 460.773 477.081 460.35 477.362C459.772 477.747 459.043 478.074 458.259 478.359C457.476 478.644 456.648 478.884 455.877 479.098C455.725 479.141 455.575 479.182 455.428 479.223C454.833 479.387 454.284 479.538 453.845 479.684L453.845 479.684L453.835 479.688C450.915 480.795 447.874 481.551 444.775 481.941Z" stroke="#020509" stroke-width="0.5"/>
<path d="M461.663 411.814L461.767 412.041L461.663 411.814ZM461.663 412.175L461.767 411.948L461.663 412.175ZM463.803 410.83L463.699 410.603V410.603L463.803 410.83ZM464.589 410.83L464.485 411.058L464.589 410.83ZM464.589 411.191L464.485 410.964V410.964L464.589 411.191ZM462.449 412.175L462.553 412.402L462.449 412.175ZM438.32 417.48L438.424 417.708V417.708L438.32 417.48ZM438.32 417.841L438.424 417.614L438.424 417.614L438.32 417.841ZM440.46 416.497L440.565 416.724L440.46 416.497ZM441.246 416.497L441.351 416.27V416.27L441.246 416.497ZM441.246 416.858L441.142 416.631L441.246 416.858ZM439.106 417.841L439.001 417.614L439.001 417.614L439.106 417.841ZM441.769 422.939L441.664 422.711L441.769 422.939ZM441.769 423.3L441.664 423.527V423.527L441.769 423.3ZM443.909 421.955L443.805 421.728L443.909 421.955ZM444.695 421.955L444.591 422.182V422.182L444.695 421.955ZM444.695 422.316L444.591 422.089L444.695 422.316ZM442.555 423.3L442.659 423.527L442.555 423.3ZM455.608 419.561L455.712 419.789L455.608 419.561ZM456.394 419.922L456.498 420.15L456.394 419.922ZM458.535 418.939L458.43 418.712L458.535 418.939ZM458.535 418.578L458.639 418.351V418.351L458.535 418.578ZM457.749 418.578L457.644 418.351L457.749 418.578ZM481.989 421.945L482.094 422.172L481.989 421.945ZM482.775 422.306L482.88 422.533L482.775 422.306ZM484.916 421.323L484.812 421.096L484.916 421.323ZM484.13 420.962L484.026 420.735L484.13 420.962ZM453.033 413.493L453.218 413.66V413.66L453.033 413.493ZM452.732 413.159L452.686 413.405L452.732 413.159ZM452.088 414.208L451.983 413.982L452.088 414.208ZM450.565 414.619L450.606 414.865V414.865L450.565 414.619ZM449.855 414.464L449.658 414.617L449.658 414.617L449.855 414.464ZM450.192 414.138L450.233 414.384L450.192 414.138ZM451.299 413.849L451.194 413.622L451.194 413.622L451.299 413.849ZM452.006 413.297L451.821 413.13V413.13L452.006 413.297ZM426.219 419.254L426.034 419.086H426.034L426.219 419.254ZM425.192 419.058L425.007 418.891H425.007L425.192 419.058ZM424.485 419.61L424.38 419.383H424.38L424.485 419.61ZM423.379 419.899L423.338 419.652H423.338L423.379 419.899ZM423.042 420.225L422.844 420.378L422.844 420.378L423.042 420.225ZM423.752 420.38L423.711 420.133H423.711L423.752 420.38ZM425.275 419.97L425.169 419.743H425.169L425.275 419.97ZM472.062 415.678L471.876 415.51L471.876 415.51L472.062 415.678ZM471.761 415.344L471.808 415.099L471.761 415.344ZM471.117 416.394L471.012 416.167V416.167L471.117 416.394ZM469.595 416.804L469.635 417.051V417.051L469.595 416.804ZM468.884 416.649L469.082 416.496V416.496L468.884 416.649ZM469.221 416.323L469.181 416.076L469.221 416.323ZM470.328 416.034L470.433 416.261L470.433 416.261L470.328 416.034ZM471.035 415.482L471.221 415.65L471.221 415.65L471.035 415.482ZM472.626 423.489L472.673 423.244L472.626 423.489ZM472.927 423.823L472.741 423.655L472.741 423.655L472.927 423.823ZM471.9 423.627L472.086 423.795L472.086 423.795L471.9 423.627ZM471.193 424.179L471.298 424.406L471.298 424.406L471.193 424.179ZM470.086 424.468L470.046 424.221L470.086 424.468ZM469.749 424.794L469.947 424.641V424.641L469.749 424.794ZM470.46 424.949L470.419 424.702L470.46 424.949ZM471.982 424.539L471.877 424.312L471.982 424.539ZM461.558 411.587C461.422 411.649 461.25 411.778 461.25 411.994C461.25 412.21 461.422 412.34 461.558 412.402L461.767 411.948C461.734 411.932 461.726 411.922 461.728 411.925C461.732 411.929 461.75 411.953 461.75 411.994C461.75 412.035 461.732 412.059 461.728 412.064C461.726 412.066 461.734 412.056 461.767 412.041L461.558 411.587ZM463.699 410.603L461.558 411.587L461.767 412.041L463.908 411.058L463.699 410.603ZM464.694 410.603C464.543 410.534 464.363 410.506 464.196 410.506C464.029 410.506 463.849 410.534 463.699 410.603L463.908 411.058C463.975 411.027 464.079 411.006 464.196 411.006C464.314 411.006 464.418 411.027 464.485 411.058L464.694 410.603ZM464.694 411.419C464.83 411.356 465.002 411.227 465.002 411.011C465.002 410.795 464.83 410.666 464.694 410.603L464.485 411.058C464.518 411.073 464.526 411.083 464.524 411.08C464.52 411.076 464.502 411.052 464.502 411.011C464.502 410.97 464.52 410.946 464.524 410.942C464.526 410.939 464.518 410.949 464.485 410.964L464.694 411.419ZM462.553 412.402L464.694 411.419L464.485 410.964L462.344 411.948L462.553 412.402ZM461.558 412.402C461.709 412.471 461.889 412.5 462.056 412.5C462.223 412.5 462.403 412.471 462.553 412.402L462.344 411.948C462.277 411.978 462.173 412 462.056 412C461.938 412 461.834 411.978 461.767 411.948L461.558 412.402ZM438.215 417.253C438.08 417.316 437.907 417.445 437.907 417.661C437.907 417.877 438.08 418.006 438.215 418.069L438.424 417.614C438.391 417.599 438.383 417.589 438.385 417.592C438.389 417.596 438.407 417.62 438.407 417.661C438.407 417.702 438.389 417.726 438.385 417.73C438.383 417.733 438.391 417.723 438.424 417.708L438.215 417.253ZM440.356 416.27L438.215 417.253L438.424 417.708L440.565 416.724L440.356 416.27ZM441.351 416.27C441.201 416.201 441.02 416.172 440.853 416.172C440.687 416.172 440.506 416.201 440.356 416.27L440.565 416.724C440.632 416.694 440.736 416.672 440.853 416.672C440.971 416.672 441.075 416.694 441.142 416.724L441.351 416.27ZM441.351 417.085C441.487 417.023 441.659 416.894 441.659 416.678C441.659 416.461 441.487 416.332 441.351 416.27L441.142 416.724C441.175 416.739 441.184 416.75 441.181 416.747C441.177 416.743 441.159 416.719 441.159 416.678C441.159 416.637 441.177 416.613 441.181 416.608C441.184 416.605 441.175 416.616 441.142 416.631L441.351 417.085ZM439.21 418.069L441.351 417.085L441.142 416.631L439.001 417.614L439.21 418.069ZM438.215 418.069C438.366 418.138 438.546 418.166 438.713 418.166C438.88 418.166 439.06 418.138 439.21 418.069L439.001 417.614C438.935 417.645 438.83 417.666 438.713 417.666C438.595 417.666 438.491 417.645 438.424 417.614L438.215 418.069ZM441.664 422.711C441.529 422.774 441.356 422.903 441.356 423.119C441.356 423.335 441.529 423.464 441.664 423.527L441.873 423.072C441.84 423.057 441.832 423.047 441.834 423.05C441.838 423.054 441.856 423.078 441.856 423.119C441.856 423.16 441.838 423.184 441.834 423.188C441.832 423.191 441.84 423.181 441.873 423.166L441.664 422.711ZM443.805 421.728L441.664 422.711L441.873 423.166L444.014 422.182L443.805 421.728ZM444.8 421.728C444.65 421.659 444.469 421.63 444.302 421.63C444.136 421.63 443.955 421.659 443.805 421.728L444.014 422.182C444.081 422.152 444.185 422.13 444.302 422.13C444.42 422.13 444.524 422.152 444.591 422.182L444.8 421.728ZM444.8 422.543C444.936 422.481 445.108 422.352 445.108 422.136C445.108 421.92 444.936 421.79 444.8 421.728L444.591 422.182C444.624 422.198 444.633 422.208 444.63 422.205C444.626 422.201 444.608 422.177 444.608 422.136C444.608 422.095 444.626 422.071 444.63 422.066C444.633 422.064 444.624 422.074 444.591 422.089L444.8 422.543ZM442.659 423.527L444.8 422.543L444.591 422.089L442.45 423.072L442.659 423.527ZM441.664 423.527C441.815 423.596 441.995 423.624 442.162 423.624C442.329 423.624 442.509 423.596 442.659 423.527L442.45 423.072C442.384 423.103 442.279 423.124 442.162 423.124C442.044 423.124 441.94 423.103 441.873 423.072L441.664 423.527ZM455.712 419.695C455.68 419.68 455.671 419.67 455.673 419.672C455.677 419.677 455.695 419.701 455.695 419.742C455.695 419.783 455.677 419.807 455.673 419.811C455.671 419.814 455.68 419.804 455.712 419.789L455.504 419.334C455.368 419.397 455.195 419.526 455.195 419.742C455.195 419.958 455.368 420.087 455.504 420.15L455.712 419.695ZM456.29 419.695C456.223 419.726 456.119 419.747 456.001 419.747C455.884 419.747 455.779 419.726 455.712 419.695L455.504 420.15C455.654 420.219 455.834 420.247 456.001 420.247C456.168 420.247 456.348 420.219 456.498 420.15L456.29 419.695ZM458.43 418.712L456.29 419.695L456.498 420.15L458.639 419.166L458.43 418.712ZM458.43 418.805C458.463 418.82 458.472 418.831 458.469 418.828C458.465 418.823 458.448 418.799 458.448 418.759C458.448 418.718 458.465 418.694 458.469 418.689C458.472 418.686 458.463 418.697 458.43 418.712L458.639 419.166C458.775 419.104 458.948 418.975 458.948 418.759C458.948 418.542 458.775 418.413 458.639 418.351L458.43 418.805ZM457.853 418.805C457.92 418.775 458.024 418.753 458.142 418.753C458.259 418.753 458.364 418.775 458.43 418.805L458.639 418.351C458.489 418.282 458.309 418.253 458.142 418.253C457.975 418.253 457.795 418.282 457.644 418.351L457.853 418.805ZM455.712 419.789L457.853 418.805L457.644 418.351L455.504 419.334L455.712 419.789ZM482.094 422.079C482.061 422.064 482.052 422.054 482.055 422.056C482.059 422.061 482.077 422.085 482.077 422.126C482.077 422.167 482.059 422.191 482.055 422.195C482.052 422.198 482.061 422.188 482.094 422.172L481.885 421.718C481.749 421.78 481.577 421.91 481.577 422.126C481.577 422.342 481.749 422.471 481.885 422.533L482.094 422.079ZM482.671 422.079C482.604 422.11 482.5 422.131 482.382 422.131C482.265 422.131 482.161 422.11 482.094 422.079L481.885 422.533C482.035 422.602 482.216 422.631 482.382 422.631C482.549 422.631 482.73 422.602 482.88 422.533L482.671 422.079ZM484.812 421.096L482.671 422.079L482.88 422.533L485.02 421.55L484.812 421.096ZM484.812 421.189C484.845 421.204 484.853 421.215 484.851 421.212C484.847 421.207 484.829 421.183 484.829 421.142C484.829 421.102 484.847 421.078 484.851 421.073C484.853 421.07 484.845 421.081 484.812 421.096L485.02 421.55C485.156 421.488 485.329 421.359 485.329 421.142C485.329 420.926 485.156 420.797 485.02 420.735L484.812 421.189ZM484.234 421.189C484.301 421.158 484.405 421.137 484.523 421.137C484.641 421.137 484.745 421.158 484.812 421.189L485.02 420.735C484.87 420.666 484.69 420.637 484.523 420.637C484.356 420.637 484.176 420.666 484.026 420.735L484.234 421.189ZM482.094 422.172L484.234 421.189L484.026 420.735L481.885 421.718L482.094 422.172ZM453.218 413.66C453.28 413.592 453.327 413.499 453.325 413.389C453.324 413.281 453.276 413.193 453.219 413.13C453.112 413.011 452.945 412.945 452.779 412.913L452.686 413.405C452.74 413.415 452.781 413.429 452.81 413.442C452.84 413.456 452.849 413.466 452.847 413.465C452.845 413.462 452.826 413.439 452.825 413.397C452.825 413.354 452.844 413.328 452.847 413.325L453.218 413.66ZM452.193 414.435C452.632 414.232 452.935 413.975 453.218 413.66L452.847 413.325C452.596 413.603 452.345 413.814 451.983 413.982L452.193 414.435ZM450.606 414.865C451.238 414.762 451.756 414.638 452.193 414.435L451.983 413.982C451.609 414.155 451.144 414.271 450.525 414.372L450.606 414.865ZM449.658 414.617C449.764 414.754 449.94 414.821 450.087 414.853C450.247 414.888 450.43 414.894 450.606 414.865L450.525 414.372C450.412 414.39 450.292 414.386 450.194 414.365C450.084 414.341 450.05 414.307 450.053 414.311L449.658 414.617ZM450.152 413.891C449.982 413.919 449.815 413.98 449.703 414.089C449.644 414.146 449.589 414.227 449.576 414.332C449.562 414.442 449.599 414.541 449.658 414.617L450.053 414.311C450.06 414.32 450.077 414.351 450.072 414.395C450.067 414.433 450.048 414.451 450.051 414.448C450.053 414.446 450.067 414.434 450.1 414.42C450.132 414.407 450.176 414.394 450.233 414.384L450.152 413.891ZM451.194 413.622C450.981 413.721 450.686 413.803 450.152 413.891L450.233 414.384C450.781 414.295 451.128 414.204 451.404 414.076L451.194 413.622ZM451.821 413.13C451.589 413.386 451.405 413.524 451.194 413.622L451.404 414.076C451.692 413.943 451.928 413.757 452.192 413.465L451.821 413.13ZM452.779 412.913C452.605 412.88 452.421 412.883 452.26 412.913C452.109 412.942 451.934 413.004 451.821 413.13L452.192 413.465C452.191 413.466 452.201 413.455 452.232 413.441C452.262 413.427 452.303 413.414 452.354 413.405C452.455 413.385 452.576 413.384 452.686 413.405L452.779 412.913ZM425.872 419.166C425.926 419.176 425.967 419.19 425.996 419.203C426.026 419.217 426.035 419.227 426.034 419.226C426.031 419.223 426.012 419.2 426.012 419.158C426.011 419.115 426.031 419.09 426.034 419.086L426.405 419.421C426.467 419.353 426.513 419.26 426.512 419.15C426.51 419.042 426.462 418.954 426.405 418.891C426.298 418.772 426.132 418.706 425.966 418.675L425.872 419.166ZM425.378 419.226C425.377 419.227 425.387 419.216 425.419 419.202C425.449 419.188 425.49 419.175 425.54 419.166C425.642 419.146 425.762 419.145 425.872 419.166L425.966 418.675C425.792 418.641 425.608 418.644 425.447 418.674C425.296 418.703 425.12 418.765 425.007 418.891L425.378 419.226ZM424.59 419.837C424.878 419.704 425.114 419.518 425.378 419.226L425.007 418.891C424.776 419.147 424.591 419.285 424.38 419.383L424.59 419.837ZM423.419 420.145C423.967 420.056 424.315 419.965 424.59 419.837L424.38 419.383C424.167 419.482 423.873 419.564 423.338 419.652L423.419 420.145ZM423.239 420.072C423.247 420.082 423.264 420.112 423.258 420.156C423.253 420.195 423.235 420.212 423.237 420.209C423.239 420.207 423.253 420.195 423.287 420.181C423.319 420.168 423.363 420.155 423.419 420.145L423.338 419.652C423.169 419.68 423.002 419.741 422.889 419.85C422.83 419.907 422.775 419.988 422.762 420.093C422.748 420.203 422.785 420.302 422.844 420.378L423.239 420.072ZM423.711 420.133C423.598 420.152 423.478 420.147 423.38 420.126C423.27 420.102 423.236 420.068 423.239 420.072L422.844 420.378C422.95 420.515 423.127 420.582 423.274 420.614C423.433 420.649 423.616 420.655 423.792 420.626L423.711 420.133ZM425.169 419.743C424.795 419.916 424.33 420.032 423.711 420.133L423.792 420.626C424.424 420.523 424.943 420.399 425.38 420.196L425.169 419.743ZM426.034 419.086C425.782 419.364 425.532 419.575 425.169 419.743L425.38 420.196C425.818 419.993 426.121 419.736 426.405 419.421L426.034 419.086ZM472.247 415.845C472.309 415.777 472.356 415.684 472.354 415.575C472.353 415.466 472.305 415.378 472.248 415.315C472.141 415.197 471.974 415.13 471.808 415.099L471.715 415.59C471.769 415.6 471.81 415.614 471.839 415.627C471.869 415.641 471.878 415.651 471.876 415.65C471.874 415.647 471.855 415.624 471.854 415.582C471.854 415.539 471.873 415.514 471.876 415.51L472.247 415.845ZM471.222 416.621C471.661 416.417 471.964 416.16 472.247 415.845L471.876 415.51C471.625 415.789 471.374 415.999 471.012 416.167L471.222 416.621ZM469.635 417.051C470.267 416.947 470.785 416.823 471.222 416.621L471.012 416.167C470.638 416.341 470.173 416.456 469.554 416.557L469.635 417.051ZM468.687 416.802C468.793 416.939 468.969 417.006 469.116 417.038C469.276 417.073 469.459 417.079 469.635 417.051L469.554 416.557C469.441 416.576 469.321 416.571 469.223 416.55C469.113 416.526 469.079 416.492 469.082 416.496L468.687 416.802ZM469.181 416.076C469.011 416.104 468.844 416.165 468.732 416.274C468.673 416.331 468.618 416.413 468.605 416.518C468.591 416.627 468.628 416.726 468.687 416.802L469.082 416.496C469.089 416.506 469.106 416.536 469.101 416.58C469.096 416.619 469.077 416.636 469.08 416.634C469.082 416.631 469.096 416.62 469.129 416.606C469.161 416.592 469.206 416.579 469.262 416.57L469.181 416.076ZM470.223 415.807C470.01 415.906 469.716 415.989 469.181 416.076L469.262 416.57C469.81 416.48 470.158 416.389 470.433 416.261L470.223 415.807ZM470.85 415.315C470.618 415.571 470.434 415.709 470.223 415.807L470.433 416.261C470.721 416.128 470.957 415.942 471.221 415.65L470.85 415.315ZM471.808 415.099C471.634 415.066 471.451 415.068 471.289 415.099C471.138 415.127 470.963 415.189 470.85 415.315L471.221 415.65C471.22 415.651 471.23 415.64 471.261 415.626C471.291 415.612 471.332 415.599 471.383 415.59C471.484 415.57 471.605 415.569 471.715 415.59L471.808 415.099ZM472.58 423.735C472.634 423.745 472.675 423.759 472.704 423.772C472.734 423.786 472.743 423.796 472.741 423.795C472.739 423.792 472.72 423.769 472.72 423.727C472.719 423.684 472.738 423.659 472.741 423.655L473.113 423.99C473.174 423.922 473.221 423.829 473.219 423.72C473.218 423.611 473.17 423.523 473.113 423.46C473.006 423.342 472.839 423.275 472.673 423.244L472.58 423.735ZM472.086 423.795C472.085 423.796 472.095 423.785 472.126 423.771C472.156 423.757 472.197 423.744 472.248 423.735C472.35 423.715 472.47 423.714 472.58 423.735L472.673 423.244C472.5 423.211 472.316 423.213 472.154 423.244C472.004 423.272 471.828 423.334 471.715 423.46L472.086 423.795ZM471.298 424.406C471.586 424.273 471.822 424.087 472.086 423.795L471.715 423.46C471.483 423.716 471.299 423.854 471.088 423.952L471.298 424.406ZM470.127 424.715C470.675 424.625 471.023 424.534 471.298 424.406L471.088 423.952C470.875 424.051 470.581 424.134 470.046 424.221L470.127 424.715ZM469.947 424.641C469.955 424.651 469.971 424.681 469.966 424.725C469.961 424.764 469.942 424.781 469.945 424.779C469.947 424.776 469.961 424.765 469.994 424.751C470.026 424.737 470.071 424.724 470.127 424.715L470.046 424.221C469.876 424.249 469.709 424.31 469.597 424.419C469.538 424.476 469.483 424.558 469.47 424.663C469.456 424.772 469.493 424.871 469.552 424.947L469.947 424.641ZM470.419 424.702C470.306 424.721 470.186 424.716 470.088 424.695C469.978 424.671 469.944 424.637 469.947 424.641L469.552 424.947C469.658 425.084 469.835 425.151 469.982 425.183C470.141 425.218 470.324 425.224 470.5 425.196L470.419 424.702ZM471.877 424.312C471.503 424.485 471.038 424.601 470.419 424.702L470.5 425.196C471.132 425.092 471.65 424.968 472.088 424.765L471.877 424.312ZM472.741 423.655C472.49 423.934 472.24 424.144 471.877 424.312L472.088 424.765C472.526 424.562 472.829 424.305 473.113 423.99L472.741 423.655Z" fill="#020509"/>
</g>
<path d="M63.4091 429V417.364H64.8182V427.75H70.2273V429H63.4091ZM72.2273 429V420.273H73.5682V429H72.2273ZM72.9091 418.818C72.6477 418.818 72.4223 418.729 72.233 418.551C72.0473 418.373 71.9545 418.159 71.9545 417.909C71.9545 417.659 72.0473 417.445 72.233 417.267C72.4223 417.089 72.6477 417 72.9091 417C73.1705 417 73.3939 417.089 73.5795 417.267C73.7689 417.445 73.8636 417.659 73.8636 417.909C73.8636 418.159 73.7689 418.373 73.5795 418.551C73.3939 418.729 73.1705 418.818 72.9091 418.818ZM81.9787 432.273V427.659H81.8651C81.7666 427.818 81.6264 428.019 81.4446 428.261C81.2628 428.5 81.0033 428.714 80.6662 428.903C80.3291 429.089 79.8802 429.182 79.3196 429.182C78.5923 429.182 77.9503 428.998 77.3935 428.631C76.8366 428.259 76.401 427.737 76.0866 427.062C75.7723 426.384 75.6151 425.583 75.6151 424.659C75.6151 423.742 75.7723 422.947 76.0866 422.273C76.401 421.598 76.8385 421.078 77.3991 420.71C77.9598 420.343 78.6075 420.159 79.3423 420.159C79.9105 420.159 80.3594 420.254 80.6889 420.443C81.0223 420.629 81.276 420.841 81.4503 421.08C81.6283 421.314 81.7666 421.508 81.8651 421.659H82.0241V420.273H83.3196V432.273H81.9787ZM79.5014 427.977C80.0393 427.977 80.4938 427.837 80.8651 427.557C81.2363 427.273 81.5185 426.881 81.7116 426.381C81.9048 425.877 82.0014 425.295 82.0014 424.636C82.0014 423.985 81.9067 423.415 81.7173 422.926C81.5279 422.434 81.2476 422.051 80.8764 421.778C80.5052 421.502 80.0469 421.364 79.5014 421.364C78.9332 421.364 78.4598 421.509 78.081 421.801C77.706 422.089 77.4238 422.481 77.2344 422.977C77.0488 423.47 76.956 424.023 76.956 424.636C76.956 425.258 77.0507 425.822 77.2401 426.33C77.4332 426.833 77.7173 427.235 78.0923 427.534C78.4711 427.83 78.9408 427.977 79.5014 427.977ZM91.2741 425.432V420.273H92.6151V429H91.2741V427.523H91.1832C90.9787 427.966 90.6605 428.343 90.2287 428.653C89.7969 428.96 89.2514 429.114 88.5923 429.114C88.0469 429.114 87.562 428.994 87.1378 428.756C86.7135 428.513 86.3802 428.15 86.1378 427.665C85.8954 427.176 85.7741 426.561 85.7741 425.818V420.273H87.1151V425.727C87.1151 426.364 87.2931 426.871 87.6491 427.25C88.009 427.629 88.4673 427.818 89.0241 427.818C89.3575 427.818 89.6965 427.733 90.0412 427.562C90.3897 427.392 90.6813 427.131 90.9162 426.778C91.1548 426.426 91.2741 425.977 91.2741 425.432ZM95.071 429V420.273H96.4119V429H95.071ZM95.7528 418.818C95.4915 418.818 95.2661 418.729 95.0767 418.551C94.8911 418.373 94.7983 418.159 94.7983 417.909C94.7983 417.659 94.8911 417.445 95.0767 417.267C95.2661 417.089 95.4915 417 95.7528 417C96.0142 417 96.2377 417.089 96.4233 417.267C96.6127 417.445 96.7074 417.659 96.7074 417.909C96.7074 418.159 96.6127 418.373 96.4233 418.551C96.2377 418.729 96.0142 418.818 95.7528 418.818ZM102.163 429.182C101.436 429.182 100.794 428.998 100.237 428.631C99.6804 428.259 99.2448 427.737 98.9304 427.062C98.616 426.384 98.4588 425.583 98.4588 424.659C98.4588 423.742 98.616 422.947 98.9304 422.273C99.2448 421.598 99.6823 421.078 100.243 420.71C100.804 420.343 101.451 420.159 102.186 420.159C102.754 420.159 103.203 420.254 103.533 420.443C103.866 420.629 104.12 420.841 104.294 421.08C104.472 421.314 104.61 421.508 104.709 421.659H104.822V417.364H106.163V429H104.868V427.659H104.709C104.61 427.818 104.47 428.019 104.288 428.261C104.107 428.5 103.847 428.714 103.51 428.903C103.173 429.089 102.724 429.182 102.163 429.182ZM102.345 427.977C102.883 427.977 103.338 427.837 103.709 427.557C104.08 427.273 104.362 426.881 104.555 426.381C104.749 425.877 104.845 425.295 104.845 424.636C104.845 423.985 104.75 423.415 104.561 422.926C104.372 422.434 104.091 422.051 103.72 421.778C103.349 421.502 102.891 421.364 102.345 421.364C101.777 421.364 101.304 421.509 100.925 421.801C100.55 422.089 100.268 422.481 100.078 422.977C99.8925 423.47 99.7997 424.023 99.7997 424.636C99.7997 425.258 99.8944 425.822 100.084 426.33C100.277 426.833 100.561 427.235 100.936 427.534C101.315 427.83 101.785 427.977 102.345 427.977ZM108.805 429V420.273H110.146V429H108.805ZM109.487 418.818C109.226 418.818 109 418.729 108.811 418.551C108.625 418.373 108.533 418.159 108.533 417.909C108.533 417.659 108.625 417.445 108.811 417.267C109 417.089 109.226 417 109.487 417C109.749 417 109.972 417.089 110.158 417.267C110.347 417.445 110.442 417.659 110.442 417.909C110.442 418.159 110.347 418.373 110.158 418.551C109.972 418.729 109.749 418.818 109.487 418.818ZM116.398 420.273V421.409H111.875V420.273H116.398ZM113.193 418.182H114.534V426.5C114.534 426.879 114.589 427.163 114.699 427.352C114.813 427.538 114.956 427.663 115.131 427.727C115.309 427.788 115.496 427.818 115.693 427.818C115.841 427.818 115.962 427.811 116.057 427.795C116.152 427.777 116.227 427.761 116.284 427.75L116.557 428.955C116.466 428.989 116.339 429.023 116.176 429.057C116.013 429.095 115.807 429.114 115.557 429.114C115.178 429.114 114.807 429.032 114.443 428.869C114.083 428.706 113.784 428.458 113.545 428.125C113.311 427.792 113.193 427.371 113.193 426.864V418.182ZM119.278 432.273C119.051 432.273 118.848 432.254 118.67 432.216C118.492 432.182 118.369 432.148 118.301 432.114L118.642 430.932C118.968 431.015 119.256 431.045 119.506 431.023C119.756 431 119.977 430.888 120.17 430.688C120.367 430.491 120.547 430.17 120.71 429.727L120.96 429.045L117.733 420.273H119.188L121.597 427.227H121.688L124.097 420.273H125.551L121.847 430.273C121.68 430.723 121.473 431.097 121.227 431.392C120.981 431.691 120.695 431.913 120.369 432.057C120.047 432.201 119.684 432.273 119.278 432.273ZM63.4091 448V436.364H67.3409C68.2538 436.364 69 436.528 69.5795 436.858C70.1629 437.184 70.5947 437.625 70.875 438.182C71.1553 438.739 71.2955 439.36 71.2955 440.045C71.2955 440.731 71.1553 441.354 70.875 441.915C70.5985 442.475 70.1705 442.922 69.5909 443.256C69.0114 443.585 68.2689 443.75 67.3636 443.75H64.5455V442.5H67.3182C67.9432 442.5 68.4451 442.392 68.8239 442.176C69.2027 441.96 69.4773 441.669 69.6477 441.301C69.822 440.93 69.9091 440.511 69.9091 440.045C69.9091 439.58 69.822 439.163 69.6477 438.795C69.4773 438.428 69.2008 438.14 68.8182 437.932C68.4356 437.72 67.928 437.614 67.2955 437.614H64.8182V448H63.4091ZM73.3835 448V439.273H74.679V440.591H74.7699C74.929 440.159 75.2169 439.809 75.6335 439.54C76.0502 439.271 76.5199 439.136 77.0426 439.136C77.1411 439.136 77.2642 439.138 77.4119 439.142C77.5597 439.146 77.6714 439.152 77.7472 439.159V440.523C77.7017 440.511 77.5975 440.494 77.4347 440.472C77.2756 440.445 77.107 440.432 76.929 440.432C76.5047 440.432 76.1259 440.521 75.7926 440.699C75.4631 440.873 75.2017 441.116 75.0085 441.426C74.8191 441.733 74.7244 442.083 74.7244 442.477V448H73.3835ZM82.6165 448.182C81.8286 448.182 81.1373 447.994 80.5426 447.619C79.9517 447.244 79.4896 446.72 79.1562 446.045C78.8267 445.371 78.6619 444.583 78.6619 443.682C78.6619 442.773 78.8267 441.979 79.1562 441.301C79.4896 440.623 79.9517 440.097 80.5426 439.722C81.1373 439.347 81.8286 439.159 82.6165 439.159C83.4044 439.159 84.0938 439.347 84.6847 439.722C85.2794 440.097 85.7415 440.623 86.071 441.301C86.4044 441.979 86.571 442.773 86.571 443.682C86.571 444.583 86.4044 445.371 86.071 446.045C85.7415 446.72 85.2794 447.244 84.6847 447.619C84.0938 447.994 83.4044 448.182 82.6165 448.182ZM82.6165 446.977C83.215 446.977 83.7074 446.824 84.0938 446.517C84.4801 446.21 84.7661 445.807 84.9517 445.307C85.1373 444.807 85.2301 444.265 85.2301 443.682C85.2301 443.098 85.1373 442.555 84.9517 442.051C84.7661 441.547 84.4801 441.14 84.0938 440.83C83.7074 440.519 83.215 440.364 82.6165 440.364C82.018 440.364 81.5256 440.519 81.1392 440.83C80.7528 441.14 80.4669 441.547 80.2812 442.051C80.0956 442.555 80.0028 443.098 80.0028 443.682C80.0028 444.265 80.0956 444.807 80.2812 445.307C80.4669 445.807 80.7528 446.21 81.1392 446.517C81.5256 446.824 82.018 446.977 82.6165 446.977ZM95.4418 439.273L92.2145 448H90.8509L87.6236 439.273H89.0781L91.4872 446.227H91.5781L93.9872 439.273H95.4418ZM97.2116 448V439.273H98.5526V448H97.2116ZM97.8935 437.818C97.6321 437.818 97.4067 437.729 97.2173 437.551C97.0317 437.373 96.9389 437.159 96.9389 436.909C96.9389 436.659 97.0317 436.445 97.2173 436.267C97.4067 436.089 97.6321 436 97.8935 436C98.1548 436 98.3783 436.089 98.5639 436.267C98.7533 436.445 98.848 436.659 98.848 436.909C98.848 437.159 98.7533 437.373 98.5639 437.551C98.3783 437.729 98.1548 437.818 97.8935 437.818ZM107.19 441.227L105.986 441.568C105.91 441.367 105.798 441.172 105.651 440.983C105.507 440.79 105.31 440.631 105.06 440.506C104.81 440.381 104.49 440.318 104.099 440.318C103.565 440.318 103.12 440.441 102.764 440.688C102.412 440.93 102.236 441.239 102.236 441.614C102.236 441.947 102.357 442.21 102.599 442.403C102.842 442.597 103.221 442.758 103.736 442.886L105.031 443.205C105.812 443.394 106.393 443.684 106.776 444.074C107.158 444.46 107.349 444.958 107.349 445.568C107.349 446.068 107.205 446.515 106.918 446.909C106.634 447.303 106.236 447.614 105.724 447.841C105.213 448.068 104.618 448.182 103.94 448.182C103.05 448.182 102.313 447.989 101.73 447.602C101.147 447.216 100.777 446.652 100.622 445.909L101.895 445.591C102.016 446.061 102.245 446.413 102.582 446.648C102.923 446.883 103.368 447 103.918 447C104.543 447 105.039 446.867 105.406 446.602C105.777 446.333 105.963 446.011 105.963 445.636C105.963 445.333 105.857 445.08 105.645 444.875C105.433 444.667 105.107 444.511 104.668 444.409L103.213 444.068C102.414 443.879 101.827 443.585 101.452 443.188C101.08 442.786 100.895 442.284 100.895 441.682C100.895 441.189 101.033 440.754 101.31 440.375C101.59 439.996 101.971 439.699 102.452 439.483C102.937 439.267 103.486 439.159 104.099 439.159C104.963 439.159 105.641 439.348 106.134 439.727C106.63 440.106 106.982 440.606 107.19 441.227ZM109.368 448V439.273H110.709V448H109.368ZM110.05 437.818C109.788 437.818 109.563 437.729 109.374 437.551C109.188 437.373 109.095 437.159 109.095 436.909C109.095 436.659 109.188 436.445 109.374 436.267C109.563 436.089 109.788 436 110.05 436C110.311 436 110.535 436.089 110.72 436.267C110.91 436.445 111.004 436.659 111.004 436.909C111.004 437.159 110.91 437.373 110.72 437.551C110.535 437.729 110.311 437.818 110.05 437.818ZM116.71 448.182C115.922 448.182 115.231 447.994 114.636 447.619C114.045 447.244 113.583 446.72 113.25 446.045C112.92 445.371 112.756 444.583 112.756 443.682C112.756 442.773 112.92 441.979 113.25 441.301C113.583 440.623 114.045 440.097 114.636 439.722C115.231 439.347 115.922 439.159 116.71 439.159C117.498 439.159 118.188 439.347 118.778 439.722C119.373 440.097 119.835 440.623 120.165 441.301C120.498 441.979 120.665 442.773 120.665 443.682C120.665 444.583 120.498 445.371 120.165 446.045C119.835 446.72 119.373 447.244 118.778 447.619C118.188 447.994 117.498 448.182 116.71 448.182ZM116.71 446.977C117.309 446.977 117.801 446.824 118.188 446.517C118.574 446.21 118.86 445.807 119.045 445.307C119.231 444.807 119.324 444.265 119.324 443.682C119.324 443.098 119.231 442.555 119.045 442.051C118.86 441.547 118.574 441.14 118.188 440.83C117.801 440.519 117.309 440.364 116.71 440.364C116.112 440.364 115.619 440.519 115.233 440.83C114.847 441.14 114.561 441.547 114.375 442.051C114.189 442.555 114.097 443.098 114.097 443.682C114.097 444.265 114.189 444.807 114.375 445.307C114.561 445.807 114.847 446.21 115.233 446.517C115.619 446.824 116.112 446.977 116.71 446.977ZM124.053 442.75V448H122.712V439.273H124.007V440.636H124.121C124.325 440.193 124.636 439.837 125.053 439.568C125.469 439.295 126.007 439.159 126.666 439.159C127.257 439.159 127.774 439.28 128.217 439.523C128.661 439.761 129.005 440.125 129.251 440.614C129.498 441.098 129.621 441.712 129.621 442.455V448H128.28V442.545C128.28 441.86 128.102 441.326 127.746 440.943C127.39 440.557 126.901 440.364 126.28 440.364C125.852 440.364 125.469 440.456 125.132 440.642C124.799 440.828 124.536 441.098 124.342 441.455C124.149 441.811 124.053 442.242 124.053 442.75Z" fill="white"/>
<path d="M218.409 433V421.364H225.386V422.614H219.818V426.545H224.864V427.795H219.818V433H218.409ZM230.186 433.205C229.633 433.205 229.131 433.1 228.68 432.892C228.23 432.68 227.872 432.375 227.607 431.977C227.341 431.576 227.209 431.091 227.209 430.523C227.209 430.023 227.307 429.617 227.504 429.307C227.701 428.992 227.964 428.746 228.294 428.568C228.624 428.39 228.987 428.258 229.385 428.17C229.786 428.08 230.19 428.008 230.595 427.955C231.125 427.886 231.555 427.835 231.885 427.801C232.218 427.763 232.461 427.701 232.612 427.614C232.768 427.527 232.845 427.375 232.845 427.159V427.114C232.845 426.553 232.692 426.117 232.385 425.807C232.082 425.496 231.622 425.341 231.004 425.341C230.364 425.341 229.862 425.481 229.499 425.761C229.135 426.042 228.879 426.341 228.732 426.659L227.459 426.205C227.686 425.674 227.989 425.261 228.368 424.966C228.75 424.667 229.167 424.458 229.618 424.341C230.072 424.22 230.519 424.159 230.959 424.159C231.239 424.159 231.561 424.193 231.925 424.261C232.292 424.326 232.646 424.46 232.987 424.665C233.332 424.869 233.618 425.178 233.845 425.591C234.072 426.004 234.186 426.557 234.186 427.25V433H232.845V431.818H232.777C232.686 432.008 232.535 432.21 232.322 432.426C232.11 432.642 231.828 432.826 231.476 432.977C231.124 433.129 230.694 433.205 230.186 433.205ZM230.391 432C230.921 432 231.368 431.896 231.732 431.688C232.099 431.479 232.375 431.21 232.561 430.881C232.75 430.551 232.845 430.205 232.845 429.841V428.614C232.788 428.682 232.663 428.744 232.47 428.801C232.281 428.854 232.061 428.902 231.811 428.943C231.565 428.981 231.324 429.015 231.089 429.045C230.858 429.072 230.671 429.095 230.527 429.114C230.179 429.159 229.853 429.233 229.55 429.335C229.25 429.434 229.008 429.583 228.822 429.784C228.641 429.981 228.55 430.25 228.55 430.591C228.55 431.057 228.722 431.409 229.067 431.648C229.415 431.883 229.857 432 230.391 432ZM236.634 433V424.273H237.929V425.591H238.02C238.179 425.159 238.467 424.809 238.884 424.54C239.3 424.271 239.77 424.136 240.293 424.136C240.391 424.136 240.514 424.138 240.662 424.142C240.81 424.146 240.921 424.152 240.997 424.159V425.523C240.952 425.511 240.848 425.494 240.685 425.472C240.526 425.445 240.357 425.432 240.179 425.432C239.755 425.432 239.376 425.521 239.043 425.699C238.713 425.873 238.452 426.116 238.259 426.426C238.069 426.733 237.974 427.083 237.974 427.477V433H236.634ZM242.587 433V424.273H243.882V425.636H243.996C244.178 425.17 244.471 424.809 244.876 424.551C245.282 424.29 245.768 424.159 246.337 424.159C246.912 424.159 247.392 424.29 247.774 424.551C248.161 424.809 248.462 425.17 248.678 425.636H248.768C248.992 425.186 249.327 424.828 249.774 424.562C250.221 424.294 250.757 424.159 251.382 424.159C252.162 424.159 252.801 424.403 253.297 424.892C253.793 425.377 254.041 426.133 254.041 427.159V433H252.7V427.159C252.7 426.515 252.524 426.055 252.172 425.778C251.82 425.502 251.405 425.364 250.928 425.364C250.314 425.364 249.839 425.549 249.501 425.92C249.164 426.288 248.996 426.754 248.996 427.318V433H247.632V427.023C247.632 426.527 247.471 426.127 247.149 425.824C246.827 425.517 246.412 425.364 245.905 425.364C245.556 425.364 245.231 425.456 244.928 425.642C244.628 425.828 244.386 426.085 244.2 426.415C244.018 426.741 243.928 427.117 243.928 427.545V433H242.587ZM256.493 433V424.273H257.834V433H256.493ZM257.175 422.818C256.913 422.818 256.688 422.729 256.499 422.551C256.313 422.373 256.22 422.159 256.22 421.909C256.22 421.659 256.313 421.445 256.499 421.267C256.688 421.089 256.913 421 257.175 421C257.436 421 257.66 421.089 257.845 421.267C258.035 421.445 258.129 421.659 258.129 421.909C258.129 422.159 258.035 422.373 257.845 422.551C257.66 422.729 257.436 422.818 257.175 422.818ZM261.631 427.75V433H260.29V424.273H261.585V425.636H261.699C261.903 425.193 262.214 424.837 262.631 424.568C263.047 424.295 263.585 424.159 264.244 424.159C264.835 424.159 265.352 424.28 265.795 424.523C266.239 424.761 266.583 425.125 266.83 425.614C267.076 426.098 267.199 426.712 267.199 427.455V433H265.858V427.545C265.858 426.86 265.68 426.326 265.324 425.943C264.968 425.557 264.479 425.364 263.858 425.364C263.43 425.364 263.047 425.456 262.71 425.642C262.377 425.828 262.114 426.098 261.92 426.455C261.727 426.811 261.631 427.242 261.631 427.75ZM273.172 436.455C272.524 436.455 271.967 436.371 271.501 436.205C271.036 436.042 270.647 435.826 270.337 435.557C270.03 435.292 269.786 435.008 269.604 434.705L270.672 433.955C270.793 434.114 270.946 434.295 271.132 434.5C271.318 434.708 271.571 434.888 271.893 435.04C272.219 435.195 272.645 435.273 273.172 435.273C273.876 435.273 274.458 435.102 274.916 434.761C275.375 434.42 275.604 433.886 275.604 433.159V431.386H275.49C275.392 431.545 275.251 431.742 275.07 431.977C274.892 432.208 274.634 432.415 274.297 432.597C273.964 432.775 273.513 432.864 272.945 432.864C272.24 432.864 271.607 432.697 271.047 432.364C270.49 432.03 270.049 431.545 269.723 430.909C269.401 430.273 269.24 429.5 269.24 428.591C269.24 427.697 269.397 426.919 269.712 426.256C270.026 425.589 270.464 425.074 271.024 424.71C271.585 424.343 272.232 424.159 272.967 424.159C273.536 424.159 273.986 424.254 274.32 424.443C274.657 424.629 274.914 424.841 275.092 425.08C275.274 425.314 275.414 425.508 275.513 425.659H275.649V424.273H276.945V433.25C276.945 434 276.774 434.61 276.433 435.08C276.096 435.553 275.642 435.9 275.07 436.119C274.501 436.343 273.869 436.455 273.172 436.455ZM273.126 431.659C273.664 431.659 274.119 431.536 274.49 431.29C274.861 431.044 275.143 430.689 275.337 430.227C275.53 429.765 275.626 429.212 275.626 428.568C275.626 427.939 275.532 427.384 275.342 426.903C275.153 426.422 274.873 426.045 274.501 425.773C274.13 425.5 273.672 425.364 273.126 425.364C272.558 425.364 272.085 425.508 271.706 425.795C271.331 426.083 271.049 426.47 270.859 426.955C270.674 427.439 270.581 427.977 270.581 428.568C270.581 429.174 270.676 429.71 270.865 430.176C271.058 430.638 271.342 431.002 271.717 431.267C272.096 431.528 272.566 431.659 273.126 431.659Z" fill="white"/>
<path d="M377.773 428.273C377.705 427.697 377.428 427.25 376.943 426.932C376.458 426.614 375.864 426.455 375.159 426.455C374.644 426.455 374.193 426.538 373.807 426.705C373.424 426.871 373.125 427.1 372.909 427.392C372.697 427.684 372.591 428.015 372.591 428.386C372.591 428.697 372.665 428.964 372.812 429.188C372.964 429.407 373.157 429.591 373.392 429.739C373.627 429.883 373.873 430.002 374.131 430.097C374.388 430.187 374.625 430.261 374.841 430.318L376.023 430.636C376.326 430.716 376.663 430.826 377.034 430.966C377.409 431.106 377.767 431.297 378.108 431.54C378.453 431.778 378.737 432.085 378.96 432.46C379.184 432.835 379.295 433.295 379.295 433.841C379.295 434.47 379.131 435.038 378.801 435.545C378.475 436.053 377.998 436.456 377.369 436.756C376.744 437.055 375.985 437.205 375.091 437.205C374.258 437.205 373.536 437.07 372.926 436.801C372.32 436.532 371.843 436.157 371.494 435.676C371.15 435.195 370.955 434.636 370.909 434H372.364C372.402 434.439 372.549 434.803 372.807 435.091C373.068 435.375 373.398 435.587 373.795 435.727C374.197 435.864 374.629 435.932 375.091 435.932C375.629 435.932 376.112 435.845 376.54 435.67C376.968 435.492 377.307 435.246 377.557 434.932C377.807 434.614 377.932 434.242 377.932 433.818C377.932 433.432 377.824 433.117 377.608 432.875C377.392 432.633 377.108 432.436 376.756 432.284C376.403 432.133 376.023 432 375.614 431.886L374.182 431.477C373.273 431.216 372.553 430.843 372.023 430.358C371.492 429.873 371.227 429.239 371.227 428.455C371.227 427.803 371.403 427.235 371.756 426.75C372.112 426.261 372.589 425.883 373.188 425.614C373.79 425.341 374.462 425.205 375.205 425.205C375.955 425.205 376.621 425.339 377.205 425.608C377.788 425.873 378.25 426.237 378.591 426.699C378.936 427.161 379.117 427.686 379.136 428.273H377.773ZM385.226 428.273V429.409H380.703V428.273H385.226ZM382.021 426.182H383.362V434.5C383.362 434.879 383.417 435.163 383.527 435.352C383.641 435.538 383.785 435.663 383.959 435.727C384.137 435.788 384.324 435.818 384.521 435.818C384.669 435.818 384.79 435.811 384.885 435.795C384.98 435.777 385.055 435.761 385.112 435.75L385.385 436.955C385.294 436.989 385.167 437.023 385.004 437.057C384.841 437.095 384.635 437.114 384.385 437.114C384.006 437.114 383.635 437.032 383.271 436.869C382.911 436.706 382.612 436.458 382.374 436.125C382.139 435.792 382.021 435.371 382.021 434.864V426.182ZM389.811 437.205C389.258 437.205 388.756 437.1 388.305 436.892C387.855 436.68 387.497 436.375 387.232 435.977C386.966 435.576 386.834 435.091 386.834 434.523C386.834 434.023 386.932 433.617 387.129 433.307C387.326 432.992 387.589 432.746 387.919 432.568C388.249 432.39 388.612 432.258 389.01 432.17C389.411 432.08 389.815 432.008 390.22 431.955C390.75 431.886 391.18 431.835 391.51 431.801C391.843 431.763 392.086 431.701 392.237 431.614C392.393 431.527 392.47 431.375 392.47 431.159V431.114C392.47 430.553 392.317 430.117 392.01 429.807C391.707 429.496 391.247 429.341 390.629 429.341C389.989 429.341 389.487 429.481 389.124 429.761C388.76 430.042 388.504 430.341 388.357 430.659L387.084 430.205C387.311 429.674 387.614 429.261 387.993 428.966C388.375 428.667 388.792 428.458 389.243 428.341C389.697 428.22 390.144 428.159 390.584 428.159C390.864 428.159 391.186 428.193 391.55 428.261C391.917 428.326 392.271 428.46 392.612 428.665C392.957 428.869 393.243 429.178 393.47 429.591C393.697 430.004 393.811 430.557 393.811 431.25V437H392.47V435.818H392.402C392.311 436.008 392.16 436.21 391.947 436.426C391.735 436.642 391.453 436.826 391.101 436.977C390.749 437.129 390.319 437.205 389.811 437.205ZM390.016 436C390.546 436 390.993 435.896 391.357 435.688C391.724 435.479 392 435.21 392.186 434.881C392.375 434.551 392.47 434.205 392.47 433.841V432.614C392.413 432.682 392.288 432.744 392.095 432.801C391.906 432.854 391.686 432.902 391.436 432.943C391.19 432.981 390.949 433.015 390.714 433.045C390.483 433.072 390.296 433.095 390.152 433.114C389.804 433.159 389.478 433.233 389.175 433.335C388.875 433.434 388.633 433.583 388.447 433.784C388.266 433.981 388.175 434.25 388.175 434.591C388.175 435.057 388.347 435.409 388.692 435.648C389.04 435.883 389.482 436 390.016 436ZM397.509 433.818L397.486 432.159H397.759L401.577 428.273H403.236L399.168 432.386H399.054L397.509 433.818ZM396.259 437V425.364H397.599V437H396.259ZM401.804 437L398.395 432.682L399.349 431.75L403.509 437H401.804ZM404.962 437V428.273H406.303V437H404.962ZM405.643 426.818C405.382 426.818 405.157 426.729 404.967 426.551C404.782 426.373 404.689 426.159 404.689 425.909C404.689 425.659 404.782 425.445 404.967 425.267C405.157 425.089 405.382 425 405.643 425C405.905 425 406.128 425.089 406.314 425.267C406.503 425.445 406.598 425.659 406.598 425.909C406.598 426.159 406.503 426.373 406.314 426.551C406.128 426.729 405.905 426.818 405.643 426.818ZM410.099 431.75V437H408.759V428.273H410.054V429.636H410.168C410.372 429.193 410.683 428.837 411.099 428.568C411.516 428.295 412.054 428.159 412.713 428.159C413.304 428.159 413.821 428.28 414.264 428.523C414.707 428.761 415.052 429.125 415.298 429.614C415.545 430.098 415.668 430.712 415.668 431.455V437H414.327V431.545C414.327 430.86 414.149 430.326 413.793 429.943C413.437 429.557 412.948 429.364 412.327 429.364C411.899 429.364 411.516 429.456 411.179 429.642C410.846 429.828 410.582 430.098 410.389 430.455C410.196 430.811 410.099 431.242 410.099 431.75ZM421.641 440.455C420.993 440.455 420.436 440.371 419.97 440.205C419.504 440.042 419.116 439.826 418.805 439.557C418.499 439.292 418.254 439.008 418.072 438.705L419.141 437.955C419.262 438.114 419.415 438.295 419.601 438.5C419.786 438.708 420.04 438.888 420.362 439.04C420.688 439.195 421.114 439.273 421.641 439.273C422.345 439.273 422.927 439.102 423.385 438.761C423.843 438.42 424.072 437.886 424.072 437.159V435.386H423.959C423.86 435.545 423.72 435.742 423.538 435.977C423.36 436.208 423.103 436.415 422.766 436.597C422.432 436.775 421.982 436.864 421.413 436.864C420.709 436.864 420.076 436.697 419.516 436.364C418.959 436.03 418.518 435.545 418.192 434.909C417.87 434.273 417.709 433.5 417.709 432.591C417.709 431.697 417.866 430.919 418.18 430.256C418.495 429.589 418.932 429.074 419.493 428.71C420.054 428.343 420.701 428.159 421.436 428.159C422.004 428.159 422.455 428.254 422.788 428.443C423.125 428.629 423.383 428.841 423.561 429.08C423.743 429.314 423.883 429.508 423.982 429.659H424.118V428.273H425.413V437.25C425.413 438 425.243 438.61 424.902 439.08C424.565 439.553 424.11 439.9 423.538 440.119C422.97 440.343 422.338 440.455 421.641 440.455ZM421.595 435.659C422.133 435.659 422.588 435.536 422.959 435.29C423.33 435.044 423.612 434.689 423.805 434.227C423.999 433.765 424.095 433.212 424.095 432.568C424.095 431.939 424 431.384 423.811 430.903C423.622 430.422 423.341 430.045 422.97 429.773C422.599 429.5 422.141 429.364 421.595 429.364C421.027 429.364 420.554 429.508 420.175 429.795C419.8 430.083 419.518 430.47 419.328 430.955C419.143 431.439 419.05 431.977 419.05 432.568C419.05 433.174 419.144 433.71 419.334 434.176C419.527 434.638 419.811 435.002 420.186 435.267C420.565 435.528 421.035 435.659 421.595 435.659Z" fill="white"/>
<rect x="360" y="152" width="77" height="250" rx="20" fill="#020509"/>
<rect x="360" y="258" width="77" height="144" rx="20" fill="url(#paint2_linear_456_207)"/>
<path d="M381.358 377H379.511L384.852 362.455H386.67L392.011 377H390.165L385.818 364.756H385.705L381.358 377ZM382.04 371.318H389.483V372.881H382.04V371.318ZM394.277 377V362.455H399.192C400.333 362.455 401.266 362.661 401.99 363.072C402.719 363.48 403.259 364.031 403.609 364.727C403.96 365.423 404.135 366.2 404.135 367.057C404.135 367.914 403.96 368.693 403.609 369.393C403.264 370.094 402.729 370.653 402.004 371.07C401.28 371.482 400.352 371.688 399.22 371.688H395.697V370.125H399.163C399.945 370.125 400.572 369.99 401.045 369.72C401.519 369.45 401.862 369.086 402.075 368.626C402.293 368.162 402.402 367.639 402.402 367.057C402.402 366.474 402.293 365.954 402.075 365.494C401.862 365.035 401.517 364.675 401.038 364.415C400.56 364.15 399.926 364.017 399.135 364.017H396.038V377H394.277ZM405.722 362.455H407.739L411.773 369.244H411.944L415.978 362.455H417.995L412.739 371.006V377H410.978V371.006L405.722 362.455Z" fill="white"/>
<rect x="58" y="152" width="77" height="250" rx="20" fill="#020509"/>
<rect x="58" y="258" width="77" height="144" rx="20" fill="url(#paint3_linear_456_207)"/>
<path d="M79.358 377H77.5114L82.8523 362.455H84.6705L90.0114 377H88.1648L83.8182 364.756H83.7045L79.358 377ZM80.0398 371.318H87.483V372.881H80.0398V371.318ZM92.277 377V362.455H97.1918C98.3329 362.455 99.2656 362.661 99.9901 363.072C100.719 363.48 101.259 364.031 101.609 364.727C101.96 365.423 102.135 366.2 102.135 367.057C102.135 367.914 101.96 368.693 101.609 369.393C101.264 370.094 100.729 370.653 100.004 371.07C99.2798 371.482 98.3518 371.688 97.2202 371.688H93.6974V370.125H97.1634C97.9446 370.125 98.572 369.99 99.0455 369.72C99.5189 369.45 99.8622 369.086 100.075 368.626C100.293 368.162 100.402 367.639 100.402 367.057C100.402 366.474 100.293 365.954 100.075 365.494C99.8622 365.035 99.5166 364.675 99.0384 364.415C98.5601 364.15 97.9257 364.017 97.1349 364.017H94.0384V377H92.277ZM103.722 362.455H105.739L109.773 369.244H109.944L113.978 362.455H115.995L110.739 371.006V377H108.978V371.006L103.722 362.455Z" fill="white"/>
<rect x="209" y="47" width="77" height="355" rx="20" fill="#020509"/>
<rect x="209" y="165" width="77" height="237" rx="20" fill="url(#paint4_linear_456_207)"/>
<path d="M230.358 377H228.511L233.852 362.455H235.67L241.011 377H239.165L234.818 364.756H234.705L230.358 377ZM231.04 371.318H238.483V372.881H231.04V371.318ZM243.277 377V362.455H248.192C249.333 362.455 250.266 362.661 250.99 363.072C251.719 363.48 252.259 364.031 252.609 364.727C252.96 365.423 253.135 366.2 253.135 367.057C253.135 367.914 252.96 368.693 252.609 369.393C252.264 370.094 251.729 370.653 251.004 371.07C250.28 371.482 249.352 371.688 248.22 371.688H244.697V370.125H248.163C248.945 370.125 249.572 369.99 250.045 369.72C250.519 369.45 250.862 369.086 251.075 368.626C251.293 368.162 251.402 367.639 251.402 367.057C251.402 366.474 251.293 365.954 251.075 365.494C250.862 365.035 250.517 364.675 250.038 364.415C249.56 364.15 248.926 364.017 248.135 364.017H245.038V377H243.277ZM254.722 362.455H256.739L260.773 369.244H260.944L264.978 362.455H266.995L261.739 371.006V377H259.978V371.006L254.722 362.455Z" fill="white"/>
<defs>
<linearGradient id="paint0_linear_456_207" x1="430" y1="-125" x2="430" y2="152" gradientUnits="userSpaceOnUse">
<stop stop-color="#0A1A29"/>
<stop offset="1" stop-color="#000103"/>
</linearGradient>
<linearGradient id="paint1_linear_456_207" x1="77" y1="313" x2="77" y2="590" gradientUnits="userSpaceOnUse">
<stop stop-color="#0A1A29"/>
<stop offset="1" stop-color="#000103"/>
</linearGradient>
<linearGradient id="paint2_linear_456_207" x1="398.5" y1="258" x2="398.5" y2="402" gradientUnits="userSpaceOnUse">
<stop stop-color="#0D5FDB"/>
<stop offset="1" stop-color="#14386D"/>
</linearGradient>
<linearGradient id="paint3_linear_456_207" x1="96.5" y1="258" x2="96.5" y2="402" gradientUnits="userSpaceOnUse">
<stop stop-color="#0D5FDB"/>
<stop offset="1" stop-color="#14386D"/>
</linearGradient>
<linearGradient id="paint4_linear_456_207" x1="247.5" y1="165" x2="247.5" y2="402" gradientUnits="userSpaceOnUse">
<stop stop-color="#0D5FDB"/>
<stop offset="1" stop-color="#14386D"/>
</linearGradient>
</defs>
</svg>
