<svg width="573" height="516" viewBox="0 0 573 516" fill="none" xmlns="http://www.w3.org/2000/svg">
<g clip-path="url(#clip0_84_810)">
<path d="M534.926 263.041L282.301 10.4169L29.6765 263.041L282.301 515.666L534.926 263.041Z" fill="url(#paint0_linear_84_810)"/>
<g opacity="0.7">
<path d="M432.091 292.114C431.789 292.081 431.511 291.934 431.313 291.703C431.115 291.472 431.012 291.175 431.026 290.871C431.026 289.895 431.026 288.874 431.247 287.854C431.214 287.686 431.218 287.514 431.26 287.348C431.301 287.183 431.379 287.028 431.487 286.896C431.595 286.765 431.731 286.658 431.886 286.585C432.04 286.512 432.209 286.474 432.379 286.474C432.55 286.474 432.718 286.512 432.873 286.585C433.027 286.658 433.163 286.765 433.271 286.896C433.379 287.028 433.457 287.183 433.498 287.348C433.54 287.514 433.544 287.686 433.511 287.854C433.511 288.874 433.511 289.895 433.511 290.916C433.523 291.096 433.492 291.277 433.421 291.443C433.351 291.61 433.242 291.757 433.104 291.874C432.965 291.991 432.802 292.073 432.626 292.115C432.45 292.156 432.267 292.156 432.091 292.114Z" fill="url(#paint1_linear_84_810)"/>
<path d="M428.231 316.213H427.964C427.668 316.13 427.416 315.936 427.259 315.671C427.102 315.407 427.053 315.092 427.121 314.793C427.609 312.84 428.053 310.887 428.453 308.89C428.484 308.741 428.545 308.6 428.631 308.475C428.718 308.349 428.828 308.242 428.956 308.16C429.084 308.077 429.227 308.021 429.376 307.994C429.526 307.967 429.68 307.97 429.828 308.002C429.975 308.029 430.116 308.085 430.241 308.167C430.366 308.248 430.473 308.355 430.556 308.479C430.639 308.603 430.696 308.743 430.723 308.89C430.751 309.037 430.748 309.188 430.716 309.334C430.317 311.375 429.828 313.373 429.34 315.37C429.287 315.62 429.146 315.843 428.942 315.998C428.739 316.153 428.486 316.229 428.231 316.213ZM430.494 304.274C430.195 304.23 429.926 304.071 429.743 303.83C429.561 303.59 429.48 303.287 429.518 302.987C429.873 300.99 430.139 298.993 430.361 296.952C430.378 296.8 430.426 296.653 430.5 296.52C430.574 296.387 430.674 296.269 430.793 296.175C430.913 296.08 431.05 296.01 431.196 295.968C431.343 295.926 431.496 295.913 431.648 295.931C431.8 295.948 431.946 295.996 432.079 296.07C432.213 296.144 432.33 296.243 432.425 296.363C432.52 296.483 432.59 296.62 432.632 296.766C432.674 296.913 432.686 297.066 432.669 297.218C432.402 299.259 432.136 301.301 431.826 303.342C431.761 303.637 431.589 303.896 431.342 304.069C431.095 304.241 430.793 304.315 430.494 304.274Z" fill="url(#paint2_linear_84_810)"/>
<path d="M285.324 428.141C285.157 428.175 284.984 428.17 284.819 428.129C284.653 428.087 284.499 428.01 284.367 427.902C284.235 427.793 284.129 427.657 284.056 427.503C283.983 427.349 283.945 427.18 283.945 427.009C283.945 426.839 283.983 426.67 284.056 426.516C284.129 426.362 284.235 426.226 284.367 426.117C284.499 426.009 284.653 425.932 284.819 425.89C284.984 425.849 285.157 425.844 285.324 425.878C287.366 425.878 289.407 425.878 291.404 425.878C291.556 425.872 291.707 425.896 291.85 425.948C291.992 426.001 292.122 426.081 292.234 426.184C292.345 426.287 292.435 426.411 292.498 426.549C292.561 426.687 292.597 426.836 292.603 426.987C292.604 427.29 292.49 427.582 292.284 427.805C292.078 428.027 291.795 428.163 291.493 428.186L285.324 428.141ZM279.244 428.141C277.158 428.141 275.117 428.141 273.075 427.742C272.924 427.731 272.776 427.689 272.64 427.621C272.504 427.552 272.383 427.457 272.284 427.342C272.185 427.227 272.11 427.093 272.063 426.948C272.016 426.803 271.998 426.651 272.01 426.499C272.044 426.201 272.192 425.927 272.424 425.737C272.656 425.546 272.954 425.453 273.253 425.478L279.333 425.833C279.639 425.833 279.932 425.955 280.149 426.171C280.365 426.388 280.487 426.681 280.487 426.987C280.487 427.293 280.365 427.587 280.149 427.803C279.932 428.02 279.639 428.141 279.333 428.141H279.244ZM297.352 427.653C297.065 427.653 296.789 427.542 296.582 427.344C296.375 427.145 296.253 426.874 296.242 426.588C296.217 426.289 296.31 425.991 296.5 425.759C296.691 425.527 296.964 425.379 297.263 425.345C299.304 425.345 301.301 424.99 303.298 424.724C303.603 424.698 303.905 424.789 304.144 424.979C304.384 425.169 304.541 425.443 304.586 425.745C304.604 425.896 304.592 426.05 304.551 426.197C304.509 426.344 304.439 426.482 304.344 426.602C304.249 426.721 304.131 426.821 303.998 426.895C303.864 426.969 303.717 427.015 303.565 427.032L297.44 427.653H297.352ZM266.862 427.032C264.82 427.032 262.779 426.499 260.782 426.144C260.483 426.1 260.213 425.941 260.031 425.7C259.848 425.459 259.767 425.157 259.805 424.857C259.86 424.555 260.028 424.285 260.276 424.103C260.524 423.921 260.832 423.842 261.137 423.881C263.134 424.236 265.131 424.502 267.128 424.768C267.43 424.812 267.704 424.97 267.894 425.209C268.084 425.449 268.175 425.751 268.149 426.055C268.107 426.322 267.974 426.566 267.771 426.744C267.568 426.923 267.309 427.025 267.039 427.032H266.862ZM309.467 426.144C309.197 426.137 308.939 426.035 308.736 425.857C308.533 425.678 308.399 425.435 308.358 425.168C308.333 425.022 308.337 424.872 308.37 424.728C308.404 424.584 308.466 424.448 308.553 424.328C308.639 424.208 308.749 424.106 308.876 424.03C309.003 423.953 309.143 423.902 309.29 423.881C311.287 423.526 313.284 423.171 315.281 422.727C315.575 422.674 315.878 422.737 316.126 422.902C316.374 423.068 316.549 423.323 316.613 423.614C316.645 423.763 316.648 423.917 316.621 424.066C316.594 424.216 316.538 424.359 316.455 424.487C316.373 424.615 316.266 424.725 316.14 424.812C316.015 424.898 315.874 424.959 315.725 424.99L309.867 426.055L309.467 426.144ZM254.835 425.035H254.746L248.755 423.659C248.454 423.582 248.197 423.39 248.039 423.123C247.881 422.857 247.835 422.539 247.911 422.239C247.988 421.938 248.18 421.681 248.447 421.523C248.713 421.365 249.031 421.319 249.332 421.395C251.284 421.928 253.237 422.372 255.234 422.771C255.383 422.803 255.524 422.863 255.649 422.95C255.775 423.036 255.882 423.146 255.964 423.274C256.047 423.402 256.103 423.545 256.13 423.695C256.157 423.845 256.154 423.998 256.122 424.147C256.062 424.397 255.921 424.621 255.72 424.782C255.519 424.943 255.27 425.032 255.012 425.035H254.835ZM321.406 423.614C321.152 423.622 320.904 423.542 320.702 423.389C320.5 423.235 320.357 423.017 320.296 422.771C320.257 422.622 320.247 422.467 320.268 422.315C320.289 422.162 320.34 422.016 320.419 421.883C320.497 421.751 320.602 421.636 320.725 421.544C320.849 421.453 320.99 421.387 321.14 421.351C323.092 420.863 325.045 420.33 326.953 419.753C327.242 419.67 327.551 419.701 327.817 419.842C328.082 419.983 328.282 420.222 328.374 420.508C328.428 420.653 328.452 420.808 328.443 420.963C328.434 421.118 328.393 421.27 328.322 421.408C328.251 421.546 328.152 421.667 328.031 421.765C327.909 421.862 327.769 421.933 327.619 421.972L321.672 423.614H321.406ZM243.163 422.061H242.808C240.855 421.484 238.902 420.818 236.949 420.153C236.808 420.108 236.678 420.035 236.566 419.939C236.453 419.842 236.361 419.724 236.295 419.592C236.229 419.46 236.19 419.316 236.18 419.168C236.171 419.02 236.191 418.872 236.239 418.732C236.34 418.445 236.55 418.208 236.825 418.075C237.099 417.942 237.415 417.923 237.704 418.022L243.473 419.842C243.618 419.882 243.753 419.952 243.871 420.046C243.988 420.14 244.085 420.257 244.155 420.39C244.226 420.523 244.269 420.669 244.281 420.819C244.293 420.969 244.275 421.12 244.228 421.262C244.167 421.497 244.029 421.703 243.835 421.849C243.642 421.994 243.404 422.069 243.163 422.061ZM333.3 420.153C333.062 420.146 332.831 420.065 332.641 419.922C332.45 419.779 332.308 419.581 332.235 419.354C332.136 419.065 332.155 418.749 332.288 418.475C332.421 418.201 332.657 417.99 332.945 417.889C334.853 417.268 336.762 416.558 338.626 415.803C338.908 415.702 339.22 415.715 339.493 415.839C339.767 415.963 339.981 416.189 340.09 416.469C340.148 416.606 340.177 416.753 340.177 416.901C340.177 417.049 340.147 417.196 340.089 417.333C340.031 417.469 339.946 417.593 339.84 417.696C339.733 417.799 339.607 417.88 339.469 417.934C337.56 418.688 335.652 419.398 333.699 420.064L333.3 420.153ZM231.579 418.067C231.449 418.108 231.31 418.108 231.18 418.067C229.227 417.357 227.319 416.558 225.455 415.715C225.22 415.567 225.046 415.339 224.965 415.073C224.885 414.807 224.903 414.521 225.016 414.267C225.129 414.014 225.33 413.81 225.582 413.692C225.834 413.575 226.12 413.552 226.387 413.629C228.251 414.428 230.115 415.226 231.979 415.937C232.222 416.037 232.423 416.218 232.549 416.449C232.676 416.68 232.719 416.948 232.672 417.207C232.626 417.466 232.492 417.701 232.293 417.874C232.094 418.046 231.842 418.146 231.579 418.156V418.067ZM344.661 415.67C344.411 415.651 344.174 415.551 343.986 415.385C343.798 415.219 343.669 414.996 343.619 414.75C343.568 414.505 343.6 414.249 343.708 414.023C343.816 413.796 343.995 413.611 344.218 413.496C346.037 412.652 347.901 411.809 349.676 410.921C349.813 410.853 349.962 410.813 350.115 410.803C350.267 410.793 350.42 410.814 350.564 410.863C350.709 410.913 350.842 410.991 350.956 411.092C351.07 411.193 351.163 411.316 351.23 411.454C351.297 411.588 351.336 411.733 351.346 411.882C351.355 412.032 351.335 412.181 351.285 412.322C351.235 412.463 351.157 412.592 351.056 412.702C350.955 412.813 350.833 412.901 350.697 412.963C348.878 413.895 347.014 414.738 345.15 415.581C344.997 415.653 344.829 415.683 344.661 415.67ZM220.395 413.141H219.907C218.043 412.253 216.223 411.321 214.448 410.3C214.31 410.235 214.187 410.141 214.087 410.026C213.986 409.911 213.911 409.776 213.865 409.63C213.819 409.484 213.804 409.331 213.82 409.179C213.837 409.027 213.884 408.88 213.96 408.747C214.109 408.484 214.356 408.291 214.646 408.208C214.937 408.125 215.248 408.159 215.513 408.303C217.289 409.279 219.108 410.211 220.928 411.099C221.065 411.165 221.189 411.258 221.29 411.372C221.391 411.487 221.469 411.62 221.519 411.764C221.568 411.909 221.589 412.062 221.579 412.214C221.569 412.367 221.528 412.516 221.46 412.652C221.336 412.825 221.167 412.961 220.972 413.047C220.777 413.133 220.563 413.165 220.351 413.141H220.395ZM355.668 410.3C355.458 410.295 355.254 410.235 355.074 410.126C354.895 410.017 354.748 409.863 354.647 409.679C354.549 409.438 354.535 409.171 354.607 408.921C354.68 408.672 354.835 408.454 355.046 408.303C356.777 407.327 358.553 406.35 360.283 405.285C360.548 405.126 360.865 405.079 361.165 405.154C361.465 405.229 361.722 405.42 361.881 405.685C362.04 405.949 362.087 406.267 362.012 406.566C361.937 406.866 361.747 407.123 361.482 407.282C359.706 408.347 357.931 409.324 356.112 410.345C355.948 410.364 355.781 410.348 355.623 410.3H355.668ZM209.655 407.282C209.467 407.34 209.266 407.34 209.078 407.282C207.303 406.262 205.572 405.152 203.841 404.042C203.589 403.871 203.414 403.607 203.356 403.308C203.298 403.008 203.361 402.698 203.531 402.445C203.702 402.194 203.963 402.018 204.259 401.952C204.556 401.886 204.867 401.935 205.128 402.09C206.815 403.199 208.501 404.309 210.276 405.33C210.405 405.411 210.516 405.517 210.604 405.641C210.691 405.766 210.753 405.906 210.786 406.055C210.819 406.203 210.823 406.357 210.796 406.506C210.769 406.656 210.714 406.799 210.631 406.927C210.508 407.072 210.349 407.181 210.169 407.244C209.99 407.306 209.797 407.32 209.611 407.282H209.655ZM366.097 403.865C365.908 403.867 365.72 403.823 365.55 403.738C365.381 403.654 365.233 403.53 365.121 403.377C365.039 403.249 364.983 403.106 364.956 402.956C364.93 402.806 364.933 402.653 364.966 402.504C364.999 402.356 365.061 402.215 365.149 402.091C365.236 401.966 365.347 401.86 365.476 401.779C367.162 400.67 368.805 399.516 370.447 398.317C370.698 398.154 371.001 398.09 371.297 398.14C371.593 398.189 371.86 398.347 372.044 398.584C372.219 398.832 372.288 399.138 372.239 399.437C372.189 399.736 372.023 400.003 371.778 400.181C370.136 401.38 368.449 402.578 366.719 403.687C366.536 403.812 366.318 403.875 366.097 403.865ZM199.403 400.448C199.164 400.442 198.932 400.364 198.737 400.226C197.051 399.027 195.409 397.785 193.811 396.542C193.579 396.344 193.428 396.066 193.387 395.763C193.346 395.461 193.418 395.153 193.589 394.9C193.825 394.689 194.135 394.58 194.451 394.597C194.767 394.613 195.063 394.754 195.276 394.989L200.113 398.628C200.359 398.806 200.524 399.073 200.574 399.372C200.624 399.671 200.554 399.978 200.38 400.226C200.256 400.357 200.103 400.458 199.934 400.519C199.764 400.581 199.582 400.602 199.403 400.581V400.448ZM375.994 396.764C375.824 396.755 375.657 396.711 375.504 396.635C375.351 396.558 375.216 396.451 375.107 396.32C374.897 396.098 374.781 395.804 374.781 395.499C374.781 395.194 374.897 394.9 375.107 394.678C376.704 393.435 378.258 392.193 379.811 390.861C380.044 390.696 380.331 390.623 380.615 390.657C380.899 390.691 381.16 390.829 381.348 391.044C381.536 391.26 381.637 391.538 381.632 391.824C381.627 392.11 381.516 392.384 381.32 392.592C379.722 393.924 378.169 395.255 376.527 396.498C376.394 396.682 376.208 396.822 375.994 396.897V396.764ZM189.595 392.903C189.32 392.903 189.054 392.809 188.841 392.637C187.287 391.305 185.778 389.929 184.402 388.554C184.294 388.446 184.207 388.318 184.149 388.177C184.09 388.037 184.059 387.885 184.059 387.733C184.059 387.58 184.09 387.429 184.149 387.288C184.207 387.147 184.294 387.019 184.402 386.912C184.625 386.702 184.918 386.586 185.223 386.586C185.529 386.586 185.822 386.702 186.045 386.912C187.524 388.302 189.003 389.634 190.483 390.906C190.666 391.058 190.798 391.264 190.86 391.495C190.922 391.725 190.911 391.97 190.828 392.194C190.745 392.417 190.595 392.61 190.398 392.745C190.201 392.88 189.967 392.951 189.728 392.947L189.595 392.903ZM385.137 388.82C384.82 388.818 384.516 388.69 384.293 388.465C384.084 388.243 383.968 387.949 383.968 387.644C383.968 387.339 384.084 387.045 384.293 386.823C385.758 385.447 387.223 384.071 388.731 382.385C388.949 382.167 389.245 382.045 389.553 382.045C389.86 382.045 390.156 382.167 390.374 382.385C390.591 382.602 390.714 382.898 390.714 383.206C390.714 383.514 390.591 383.809 390.374 384.027C388.909 385.491 387.444 386.911 385.935 388.465C385.87 388.583 385.781 388.688 385.674 388.771C385.567 388.855 385.445 388.917 385.314 388.953L385.137 388.82ZM180.63 384.382C180.48 384.38 180.332 384.347 180.194 384.286C180.057 384.225 179.933 384.137 179.831 384.027C178.367 382.562 176.946 381.098 175.393 379.589C175.284 379.481 175.198 379.354 175.139 379.213C175.08 379.072 175.05 378.92 175.05 378.768C175.05 378.615 175.08 378.464 175.139 378.323C175.198 378.182 175.284 378.054 175.393 377.947C175.497 377.839 175.621 377.754 175.758 377.695C175.895 377.637 176.043 377.607 176.192 377.607C176.341 377.607 176.489 377.637 176.626 377.695C176.763 377.754 176.887 377.839 176.991 377.947L181.163 382.385C181.27 382.488 181.355 382.612 181.414 382.75C181.472 382.887 181.502 383.034 181.502 383.184C181.502 383.333 181.472 383.48 181.414 383.618C181.355 383.755 181.27 383.879 181.163 383.982C181.147 384.27 181.02 384.541 180.808 384.737L180.63 384.382ZM393.658 379.944C393.361 379.947 393.075 379.835 392.859 379.633C392.65 379.411 392.533 379.117 392.533 378.812C392.533 378.507 392.65 378.213 392.859 377.991C394.19 376.526 395.566 375.017 396.853 373.553C396.937 373.405 397.052 373.278 397.19 373.179C397.329 373.081 397.487 373.015 397.654 372.985C397.822 372.955 397.993 372.963 398.157 373.007C398.321 373.051 398.473 373.13 398.603 373.24C398.732 373.35 398.836 373.487 398.907 373.641C398.978 373.795 399.013 373.963 399.011 374.133C399.01 374.303 398.97 374.47 398.896 374.623C398.823 374.776 398.716 374.911 398.584 375.017C397.297 376.571 395.921 378.124 394.545 379.456C394.519 379.636 394.449 379.808 394.34 379.955C394.232 380.102 394.089 380.22 393.924 380.299L393.658 379.944ZM172.287 375.506C172.119 375.502 171.954 375.465 171.802 375.396C171.649 375.328 171.512 375.229 171.399 375.106L167.538 370.313C167.338 370.086 167.228 369.794 167.228 369.492C167.228 369.19 167.338 368.898 167.538 368.671C167.757 368.475 168.042 368.366 168.337 368.366C168.631 368.366 168.916 368.475 169.135 368.671C170.378 370.269 171.665 371.822 172.952 373.375C173.161 373.598 173.278 373.891 173.278 374.196C173.278 374.502 173.161 374.795 172.952 375.017C172.906 375.294 172.765 375.545 172.553 375.728L172.287 375.506ZM401.513 370.713C401.28 370.771 401.036 370.771 400.803 370.713C400.594 370.49 400.478 370.197 400.478 369.891C400.478 369.586 400.594 369.293 400.803 369.07C402.046 367.473 403.244 365.875 404.398 364.233C404.476 364.089 404.584 363.964 404.714 363.865C404.844 363.767 404.994 363.697 405.153 363.66C405.312 363.623 405.477 363.621 405.637 363.653C405.798 363.685 405.949 363.751 406.082 363.845C406.215 363.94 406.326 364.063 406.409 364.204C406.491 364.345 406.542 364.502 406.559 364.664C406.576 364.827 406.558 364.991 406.507 365.146C406.456 365.301 406.372 365.444 406.262 365.564C405.108 367.206 403.865 368.849 402.623 370.491C402.524 370.623 402.397 370.731 402.251 370.808C402.105 370.884 401.944 370.928 401.779 370.934L401.513 370.713ZM165.097 366.053C164.914 366.051 164.734 366.006 164.572 365.921C164.41 365.836 164.27 365.714 164.165 365.564C162.967 363.922 161.813 362.191 160.703 360.505C160.59 360.381 160.506 360.235 160.455 360.075C160.405 359.916 160.389 359.747 160.411 359.581C160.432 359.415 160.489 359.256 160.578 359.114C160.667 358.972 160.785 358.851 160.926 358.76C161.066 358.669 161.224 358.609 161.39 358.585C161.556 358.561 161.724 358.573 161.885 358.621C162.045 358.669 162.193 358.751 162.319 358.862C162.444 358.972 162.544 359.109 162.611 359.262C163.721 360.949 164.875 362.591 166.029 364.233C166.192 364.484 166.256 364.788 166.206 365.084C166.157 365.379 165.999 365.646 165.763 365.831C165.574 365.981 165.338 366.06 165.097 366.053ZM408.88 360.949C408.678 361.013 408.461 361.013 408.259 360.949C408.132 360.872 408.022 360.77 407.935 360.649C407.848 360.529 407.786 360.392 407.753 360.247C407.72 360.102 407.716 359.952 407.742 359.806C407.768 359.66 407.823 359.52 407.904 359.395C409.013 357.665 410.079 355.978 411.099 354.203C411.256 353.948 411.505 353.764 411.795 353.689C412.085 353.615 412.393 353.656 412.653 353.803C412.79 353.876 412.91 353.977 413.005 354.1C413.101 354.222 413.17 354.363 413.207 354.514C413.245 354.664 413.251 354.821 413.224 354.974C413.197 355.127 413.139 355.272 413.052 355.401C412.031 357.176 410.966 358.907 409.812 360.638C409.689 360.755 409.542 360.844 409.381 360.898C409.22 360.951 409.049 360.969 408.88 360.949ZM158.44 355.845C158.241 355.841 158.047 355.786 157.876 355.685C157.705 355.584 157.563 355.44 157.463 355.268C156.398 353.493 155.422 351.718 154.445 349.898C154.301 349.632 154.267 349.321 154.35 349.031C154.433 348.74 154.627 348.494 154.889 348.345C155.022 348.269 155.169 348.221 155.321 348.205C155.473 348.188 155.627 348.204 155.773 348.249C155.918 348.295 156.053 348.371 156.169 348.471C156.284 348.572 156.377 348.695 156.443 348.833L159.416 354.114C159.495 354.241 159.548 354.383 159.57 354.532C159.593 354.68 159.586 354.831 159.548 354.976C159.511 355.121 159.445 355.257 159.353 355.376C159.262 355.495 159.147 355.594 159.017 355.667C158.842 355.773 158.644 355.834 158.44 355.845ZM415.094 350.608C414.918 350.648 414.736 350.648 414.561 350.608C414.423 350.543 414.3 350.449 414.199 350.334C414.099 350.219 414.023 350.084 413.978 349.938C413.932 349.792 413.917 349.638 413.933 349.486C413.949 349.334 413.997 349.187 414.073 349.055C415.049 347.279 415.937 345.46 416.824 343.64C416.967 343.37 417.207 343.165 417.496 343.066C417.784 342.967 418.1 342.982 418.378 343.108C418.515 343.174 418.639 343.267 418.74 343.381C418.841 343.495 418.919 343.629 418.969 343.773C419.018 343.918 419.039 344.07 419.029 344.223C419.019 344.375 418.978 344.524 418.91 344.661C418.023 346.525 417.091 348.345 416.114 350.12C415.998 350.279 415.843 350.407 415.665 350.492C415.487 350.577 415.291 350.617 415.094 350.608ZM152.67 345.105C152.454 345.106 152.242 345.043 152.06 344.925C151.879 344.806 151.736 344.638 151.649 344.439C150.762 342.62 149.874 340.756 149.075 338.847C148.981 338.706 148.918 338.546 148.893 338.378C148.867 338.21 148.879 338.039 148.928 337.876C148.976 337.713 149.06 337.563 149.173 337.436C149.286 337.309 149.426 337.209 149.582 337.143C149.738 337.076 149.907 337.045 150.077 337.051C150.247 337.058 150.413 337.101 150.564 337.179C150.715 337.257 150.846 337.368 150.95 337.503C151.053 337.638 151.125 337.794 151.161 337.96C151.96 339.779 152.803 341.643 153.691 343.418C153.759 343.555 153.799 343.704 153.809 343.856C153.819 344.009 153.799 344.162 153.749 344.306C153.7 344.451 153.622 344.584 153.521 344.698C153.419 344.812 153.296 344.905 153.158 344.972C153.012 345.063 152.842 345.109 152.67 345.105ZM420.419 339.424H419.976C419.701 339.298 419.484 339.072 419.368 338.792C419.253 338.512 419.248 338.199 419.354 337.915C420.197 336.051 420.952 334.187 421.662 332.279C421.78 331.996 422.003 331.769 422.284 331.645C422.564 331.521 422.882 331.51 423.171 331.613C423.311 331.671 423.438 331.757 423.545 331.864C423.652 331.971 423.736 332.099 423.794 332.239C423.852 332.379 423.881 332.529 423.881 332.681C423.881 332.832 423.851 332.982 423.792 333.122C423.082 335.03 422.283 336.939 421.484 338.803C421.384 338.996 421.23 339.158 421.042 339.268C420.853 339.378 420.637 339.432 420.419 339.424ZM147.788 333.921C147.557 333.912 147.333 333.835 147.144 333.701C146.955 333.567 146.809 333.382 146.723 333.166C146.013 331.258 145.303 329.35 144.637 327.397C144.538 327.108 144.557 326.793 144.69 326.518C144.823 326.244 145.059 326.033 145.347 325.932C145.636 325.833 145.952 325.852 146.226 325.985C146.501 326.118 146.711 326.355 146.812 326.642C147.478 328.551 148.143 330.459 148.898 332.323C149.001 332.612 148.99 332.93 148.866 333.21C148.742 333.491 148.515 333.714 148.232 333.832L147.788 333.921ZM424.813 328.018H424.458C424.313 327.979 424.179 327.909 424.063 327.814C423.947 327.719 423.852 327.601 423.785 327.467C423.718 327.333 423.68 327.186 423.674 327.036C423.667 326.887 423.693 326.737 423.748 326.598C424.369 324.645 424.991 322.737 425.568 320.784C425.65 320.49 425.846 320.241 426.113 320.091C426.379 319.941 426.693 319.903 426.988 319.985C427.273 320.077 427.512 320.277 427.653 320.542C427.794 320.808 427.826 321.117 427.742 321.406C427.165 323.403 426.544 325.355 425.923 327.308C425.827 327.522 425.671 327.703 425.474 327.829C425.277 327.956 425.047 328.021 424.813 328.018ZM143.883 322.337C143.631 322.337 143.387 322.255 143.186 322.102C142.986 321.95 142.841 321.737 142.773 321.494C142.196 319.542 141.664 317.544 141.176 315.547C141.108 315.253 141.159 314.945 141.317 314.687C141.474 314.43 141.726 314.245 142.019 314.171C142.313 314.104 142.621 314.155 142.879 314.313C143.136 314.47 143.321 314.722 143.395 315.015C143.868 316.967 144.401 318.92 144.992 320.873C145.074 321.167 145.036 321.482 144.886 321.748C144.737 322.014 144.487 322.21 144.193 322.293L143.883 322.337ZM140.954 310.665C140.69 310.66 140.436 310.565 140.234 310.395C140.033 310.226 139.895 309.992 139.844 309.733C139.4 307.736 139.045 305.695 138.735 303.698C138.703 303.548 138.702 303.394 138.732 303.245C138.762 303.095 138.823 302.954 138.911 302.829C138.998 302.704 139.11 302.598 139.24 302.519C139.37 302.439 139.516 302.387 139.667 302.366C139.965 302.326 140.268 302.399 140.515 302.572C140.761 302.745 140.934 303.004 140.998 303.298C141.324 305.28 141.679 307.278 142.063 309.29C142.095 309.435 142.098 309.586 142.07 309.733C142.043 309.88 141.986 310.02 141.903 310.144C141.82 310.269 141.713 310.375 141.588 310.457C141.463 310.539 141.323 310.595 141.176 310.621L140.954 310.665ZM139.001 298.594C138.719 298.586 138.449 298.48 138.238 298.293C138.027 298.107 137.889 297.852 137.847 297.573C137.847 295.532 137.448 293.49 137.27 291.448C137.257 291.145 137.36 290.848 137.557 290.617C137.755 290.386 138.033 290.239 138.335 290.206C138.636 290.203 138.928 290.309 139.157 290.505C139.385 290.701 139.535 290.973 139.578 291.271C139.578 293.312 139.889 295.31 140.155 297.307C140.181 297.611 140.089 297.914 139.9 298.153C139.71 298.392 139.436 298.55 139.134 298.594H139.001ZM138.069 286.389C137.77 286.389 137.483 286.274 137.268 286.067C137.053 285.86 136.927 285.578 136.915 285.28C136.915 283.504 136.915 281.729 136.915 279.91V279.155C136.915 279.003 136.945 278.853 137.003 278.713C137.061 278.573 137.146 278.446 137.253 278.339C137.36 278.232 137.487 278.147 137.627 278.089C137.767 278.031 137.917 278.001 138.069 278.001C138.375 278.001 138.668 278.123 138.885 278.339C139.101 278.555 139.223 278.849 139.223 279.155V279.599C139.223 281.374 139.223 283.149 139.223 284.925C139.223 285.223 139.108 285.51 138.901 285.725C138.694 285.94 138.412 286.067 138.113 286.078L138.069 286.389ZM138.069 274.184C137.771 274.162 137.493 274.024 137.294 273.8C137.096 273.577 136.991 273.285 137.004 272.986C137.004 270.945 137.137 268.903 137.403 266.862C137.37 266.694 137.374 266.522 137.416 266.356C137.457 266.191 137.535 266.036 137.643 265.904C137.751 265.772 137.887 265.666 138.042 265.593C138.196 265.52 138.364 265.482 138.535 265.482C138.706 265.482 138.874 265.52 139.028 265.593C139.183 265.666 139.319 265.772 139.427 265.904C139.535 266.036 139.613 266.191 139.654 266.356C139.696 266.522 139.7 266.694 139.667 266.862C139.667 268.859 139.356 270.9 139.267 272.897C139.256 273.196 139.129 273.478 138.914 273.685C138.699 273.892 138.412 274.007 138.113 274.007L138.069 274.184ZM432.136 271.388C431.842 271.388 431.559 271.271 431.351 271.063C431.143 270.855 431.026 270.573 431.026 270.279C431.026 268.282 430.716 266.24 430.494 264.243C430.475 264.094 430.487 263.942 430.529 263.798C430.571 263.653 430.642 263.519 430.738 263.403C430.833 263.287 430.951 263.191 431.085 263.122C431.218 263.053 431.365 263.011 431.515 263C431.814 262.975 432.111 263.068 432.343 263.259C432.575 263.449 432.724 263.723 432.757 264.021C432.994 266.063 433.171 268.104 433.29 270.146C433.302 270.295 433.284 270.445 433.236 270.587C433.188 270.729 433.113 270.86 433.013 270.972C432.914 271.084 432.792 271.175 432.657 271.239C432.521 271.303 432.374 271.338 432.225 271.344L432.136 271.388ZM139.178 261.847C138.88 261.802 138.61 261.643 138.427 261.402C138.245 261.162 138.164 260.859 138.202 260.559C138.468 258.518 138.779 256.476 139.09 254.479C139.144 254.177 139.313 253.907 139.56 253.725C139.808 253.544 140.116 253.464 140.421 253.503C140.721 253.557 140.987 253.727 141.161 253.977C141.336 254.226 141.405 254.534 141.353 254.834C141.042 256.831 140.732 258.829 140.465 260.826C140.421 261.128 140.264 261.402 140.024 261.591C139.785 261.781 139.483 261.872 139.178 261.847ZM430.893 259.051C430.623 259.043 430.364 258.942 430.162 258.763C429.959 258.585 429.825 258.341 429.784 258.074C429.473 256.033 429.118 254.08 428.763 252.083C428.731 251.937 428.728 251.786 428.756 251.639C428.783 251.492 428.84 251.352 428.923 251.228C429.006 251.104 429.113 250.997 429.238 250.915C429.363 250.834 429.503 250.778 429.651 250.751C429.799 250.719 429.953 250.716 430.103 250.743C430.252 250.77 430.395 250.826 430.523 250.909C430.651 250.991 430.761 251.098 430.848 251.224C430.934 251.349 430.995 251.49 431.026 251.639C431.381 253.68 431.736 255.678 432.047 257.719C432.085 258.019 432.004 258.321 431.822 258.562C431.639 258.803 431.37 258.962 431.071 259.006L430.893 259.051ZM141.264 249.775C141.115 249.743 140.974 249.683 140.849 249.596C140.724 249.51 140.617 249.4 140.534 249.272C140.452 249.144 140.395 249.001 140.368 248.851C140.341 248.701 140.344 248.548 140.377 248.399C140.776 246.402 141.264 244.405 141.797 242.408C141.827 242.261 141.888 242.121 141.976 241.999C142.063 241.877 142.176 241.775 142.306 241.7C142.436 241.624 142.58 241.577 142.729 241.562C142.879 241.546 143.03 241.562 143.173 241.609C143.465 241.683 143.717 241.868 143.875 242.125C144.032 242.382 144.083 242.691 144.016 242.985C143.483 244.937 143.04 246.89 142.596 248.887C142.569 249.034 142.514 249.175 142.432 249.3C142.35 249.425 142.243 249.532 142.119 249.615C141.995 249.698 141.855 249.755 141.708 249.782C141.561 249.81 141.41 249.807 141.264 249.775ZM428.585 247.023C428.328 247.02 428.079 246.931 427.878 246.771C427.677 246.61 427.535 246.386 427.476 246.136C427.032 244.183 426.5 242.23 425.967 240.277C425.885 239.983 425.923 239.668 426.073 239.402C426.223 239.136 426.472 238.94 426.766 238.857C427.06 238.787 427.369 238.83 427.633 238.978C427.896 239.126 428.094 239.368 428.186 239.656C428.719 241.653 429.251 243.606 429.739 245.648C429.793 245.947 429.732 246.255 429.567 246.511C429.402 246.766 429.147 246.949 428.852 247.023H428.585ZM144.549 238.147H144.238C143.944 238.064 143.695 237.868 143.545 237.602C143.395 237.336 143.357 237.021 143.439 236.727C144.06 234.73 144.682 232.777 145.392 230.824C145.424 230.659 145.491 230.504 145.589 230.367C145.687 230.231 145.814 230.118 145.961 230.036C146.107 229.954 146.27 229.905 146.437 229.892C146.605 229.879 146.773 229.903 146.93 229.962C147.087 230.021 147.23 230.114 147.347 230.233C147.465 230.353 147.555 230.497 147.612 230.655C147.668 230.813 147.689 230.982 147.674 231.149C147.658 231.316 147.607 231.478 147.522 231.623C146.856 233.487 146.235 235.44 145.658 237.393C145.53 237.621 145.33 237.801 145.09 237.906C144.849 238.01 144.581 238.032 144.327 237.97L144.549 238.147ZM425.301 235.218C425.061 235.218 424.828 235.14 424.636 234.996C424.443 234.852 424.303 234.65 424.236 234.419C423.615 232.526 422.949 230.617 422.239 228.694C422.187 228.427 422.232 228.149 422.365 227.912C422.499 227.674 422.712 227.491 422.967 227.395C423.222 227.3 423.503 227.297 423.759 227.389C424.016 227.48 424.232 227.66 424.369 227.895C425.079 229.848 425.789 231.756 426.411 233.709C426.459 233.855 426.478 234.009 426.466 234.161C426.454 234.314 426.411 234.463 426.341 234.6C426.271 234.736 426.174 234.857 426.056 234.956C425.939 235.054 425.803 235.128 425.656 235.174L425.301 235.218ZM148.365 226.342H147.966C147.683 226.223 147.456 226.001 147.332 225.72C147.208 225.439 147.197 225.122 147.3 224.833C148.099 222.925 148.898 221.016 149.741 219.152C149.799 219.012 149.884 218.886 149.993 218.78C150.101 218.674 150.23 218.592 150.371 218.538C150.512 218.484 150.663 218.459 150.814 218.466C150.966 218.472 151.114 218.509 151.25 218.575C151.525 218.701 151.739 218.93 151.847 219.212C151.954 219.494 151.947 219.807 151.827 220.084C150.999 221.948 150.2 223.812 149.43 225.676C149.341 225.882 149.191 226.055 149.001 226.174C148.811 226.293 148.589 226.352 148.365 226.342ZM421.041 223.812C420.814 223.807 420.594 223.737 420.405 223.611C420.217 223.486 420.068 223.309 419.976 223.102C419.221 221.238 418.378 219.374 417.535 217.555C417.411 217.283 417.398 216.974 417.497 216.693C417.596 216.411 417.801 216.179 418.067 216.046C418.204 215.978 418.353 215.937 418.505 215.927C418.658 215.917 418.811 215.938 418.955 215.987C419.1 216.037 419.233 216.115 419.347 216.216C419.461 216.317 419.554 216.441 419.621 216.578C420.464 218.442 421.307 220.306 422.106 222.215C422.171 222.354 422.206 222.504 422.209 222.658C422.213 222.811 422.184 222.963 422.126 223.105C422.067 223.247 421.98 223.375 421.87 223.481C421.76 223.588 421.628 223.67 421.484 223.723L421.041 223.812ZM153.38 215.247C153.221 215.292 153.052 215.292 152.892 215.247C152.754 215.18 152.631 215.087 152.53 214.973C152.429 214.859 152.351 214.726 152.301 214.581C152.252 214.437 152.231 214.284 152.241 214.132C152.251 213.979 152.292 213.83 152.36 213.693C153.292 211.874 154.224 210.054 155.244 208.235C155.303 208.08 155.395 207.94 155.513 207.824C155.631 207.708 155.772 207.619 155.927 207.563C156.083 207.506 156.248 207.483 156.413 207.496C156.578 207.51 156.738 207.558 156.882 207.638C157.027 207.718 157.153 207.829 157.251 207.962C157.349 208.095 157.417 208.247 157.451 208.409C157.485 208.571 157.484 208.738 157.448 208.899C157.412 209.061 157.341 209.212 157.241 209.344C156.265 211.119 155.333 212.895 154.401 214.714C154.296 214.888 154.145 215.029 153.965 215.123C153.785 215.217 153.583 215.26 153.38 215.247ZM415.848 213.028C415.638 213.022 415.434 212.962 415.255 212.853C415.076 212.744 414.928 212.59 414.827 212.406C413.895 210.631 412.919 208.856 411.943 207.125C411.792 206.858 411.75 206.544 411.824 206.247C411.899 205.95 412.084 205.692 412.342 205.527C412.475 205.449 412.623 205.398 412.777 205.378C412.93 205.358 413.086 205.369 413.235 205.411C413.384 205.452 413.523 205.523 413.644 205.619C413.765 205.716 413.866 205.835 413.94 205.971C414.96 207.746 415.937 209.522 416.869 211.341C416.945 211.474 416.992 211.621 417.009 211.773C417.025 211.925 417.01 212.079 416.964 212.225C416.918 212.37 416.843 212.505 416.742 212.62C416.642 212.736 416.519 212.829 416.381 212.895C416.218 212.985 416.034 213.031 415.848 213.028ZM159.283 204.507C159.093 204.547 158.896 204.547 158.706 204.507C158.448 204.342 158.263 204.084 158.188 203.787C158.114 203.49 158.156 203.176 158.307 202.909C159.372 201.134 160.481 199.403 161.635 197.716C161.815 197.487 162.075 197.334 162.364 197.289C162.652 197.243 162.946 197.309 163.188 197.472C163.43 197.635 163.601 197.884 163.667 198.168C163.733 198.452 163.689 198.75 163.543 199.003C162.434 200.645 161.324 202.376 160.259 204.107C160.145 204.253 159.995 204.366 159.824 204.436C159.653 204.506 159.466 204.531 159.283 204.507ZM409.768 202.243C409.574 202.244 409.382 202.195 409.211 202.102C409.041 202.009 408.896 201.874 408.792 201.711C407.726 199.965 406.617 198.278 405.463 196.651C405.299 196.4 405.236 196.096 405.285 195.801C405.335 195.505 405.493 195.238 405.729 195.053C405.983 194.884 406.293 194.821 406.592 194.879C406.892 194.937 407.156 195.112 407.327 195.364C408.525 197.051 409.635 198.737 410.744 200.468C410.826 200.596 410.882 200.739 410.909 200.889C410.935 201.039 410.932 201.192 410.899 201.341C410.866 201.489 410.804 201.63 410.717 201.754C410.629 201.878 410.518 201.984 410.389 202.066C410.207 202.191 409.989 202.253 409.768 202.243ZM166.073 194.343C165.855 194.4 165.626 194.4 165.407 194.343C165.162 194.165 164.997 193.898 164.947 193.599C164.897 193.3 164.967 192.994 165.141 192.746C166.339 191.059 167.582 189.461 168.869 187.819C169.091 187.61 169.385 187.494 169.69 187.494C169.995 187.494 170.289 187.61 170.511 187.819C170.717 188.034 170.833 188.321 170.833 188.618C170.833 188.916 170.717 189.202 170.511 189.417C169.224 191.015 168.026 192.613 166.828 194.255C166.593 194.369 166.327 194.4 166.073 194.343ZM402.845 192.213C402.662 192.211 402.482 192.166 402.32 192.081C402.158 191.997 402.018 191.874 401.913 191.725C400.67 190.127 399.427 188.53 398.14 186.976C397.972 186.738 397.9 186.446 397.939 186.157C397.977 185.869 398.124 185.605 398.348 185.42C398.573 185.235 398.859 185.141 399.15 185.158C399.44 185.175 399.714 185.301 399.915 185.512C401.247 187.109 402.49 188.707 403.732 190.349C403.84 190.453 403.925 190.577 403.983 190.714C404.042 190.851 404.072 190.999 404.072 191.148C404.072 191.297 404.042 191.445 403.983 191.582C403.925 191.719 403.84 191.843 403.732 191.947C403.614 192.055 403.473 192.135 403.319 192.182C403.165 192.228 403.003 192.238 402.845 192.213ZM173.662 184.757C173.388 184.757 173.121 184.663 172.908 184.491C172.699 184.269 172.582 183.975 172.582 183.67C172.582 183.365 172.699 183.071 172.908 182.849C174.239 181.295 175.615 179.786 176.991 178.411C177.213 178.202 177.507 178.085 177.812 178.085C178.117 178.085 178.411 178.202 178.633 178.411C178.74 178.514 178.826 178.638 178.884 178.776C178.942 178.913 178.972 179.06 178.972 179.21C178.972 179.359 178.942 179.506 178.884 179.644C178.826 179.781 178.74 179.905 178.633 180.008L174.594 184.446C174.473 184.566 174.326 184.657 174.165 184.711C174.003 184.764 173.831 184.78 173.662 184.757ZM394.989 182.76C394.661 182.748 394.348 182.622 394.102 182.405C392.77 180.896 391.394 179.387 389.974 177.967C389.765 177.745 389.649 177.451 389.649 177.146C389.649 176.841 389.765 176.547 389.974 176.325C390.078 176.217 390.202 176.132 390.339 176.074C390.476 176.015 390.624 175.985 390.773 175.985C390.922 175.985 391.07 176.015 391.207 176.074C391.344 176.132 391.468 176.217 391.572 176.325C393.036 177.789 394.412 179.298 395.788 180.763C395.897 180.87 395.983 180.998 396.042 181.139C396.101 181.28 396.131 181.431 396.131 181.584C396.131 181.737 396.101 181.888 396.042 182.029C395.983 182.17 395.897 182.298 395.788 182.405C395.576 182.62 395.291 182.746 394.989 182.76ZM181.962 175.837C181.803 175.844 181.646 175.816 181.5 175.754C181.354 175.693 181.224 175.6 181.118 175.482C181.011 175.378 180.925 175.254 180.867 175.117C180.809 174.979 180.779 174.832 180.779 174.683C180.779 174.534 180.809 174.386 180.867 174.249C180.925 174.111 181.011 173.987 181.118 173.884C182.583 172.419 184.092 171.043 185.556 169.446C185.663 169.323 185.794 169.224 185.941 169.155C186.088 169.086 186.249 169.049 186.411 169.046C186.574 169.044 186.735 169.076 186.885 169.14C187.034 169.204 187.168 169.299 187.278 169.418C187.388 169.538 187.472 169.679 187.524 169.834C187.575 169.988 187.594 170.151 187.578 170.313C187.562 170.475 187.512 170.632 187.431 170.773C187.351 170.914 187.241 171.036 187.11 171.132C185.601 172.508 184.136 173.884 182.672 175.304C182.594 175.435 182.492 175.55 182.37 175.641C182.248 175.733 182.109 175.799 181.962 175.837ZM386.468 174.017C386.175 174.001 385.896 173.892 385.669 173.706C384.205 172.286 382.696 170.955 381.231 169.623C381.122 169.516 381.036 169.388 380.977 169.247C380.918 169.106 380.888 168.955 380.888 168.802C380.888 168.649 380.918 168.498 380.977 168.357C381.036 168.216 381.122 168.089 381.231 167.981C381.335 167.874 381.459 167.788 381.596 167.73C381.733 167.672 381.881 167.642 382.03 167.642C382.179 167.642 382.327 167.672 382.464 167.73C382.601 167.788 382.725 167.874 382.829 167.981C384.382 169.313 385.891 170.688 387.267 172.109C387.476 172.331 387.592 172.625 387.592 172.93C387.592 173.235 387.476 173.528 387.267 173.751C387.065 173.914 386.816 174.007 386.557 174.017H386.468ZM191.193 167.626C190.964 167.62 190.742 167.545 190.556 167.413C190.37 167.28 190.227 167.095 190.146 166.881C190.065 166.666 190.05 166.433 190.102 166.21C190.154 165.987 190.271 165.785 190.438 165.629C192.036 164.298 193.634 163.011 195.231 161.768C195.458 161.568 195.75 161.458 196.052 161.458C196.355 161.458 196.647 161.568 196.873 161.768C197.042 162.014 197.113 162.314 197.072 162.61C197.031 162.905 196.881 163.175 196.652 163.366C195.054 164.608 193.456 165.851 191.903 167.182C191.811 167.311 191.692 167.418 191.553 167.494C191.415 167.571 191.262 167.616 191.104 167.626H191.193ZM377.592 165.984C377.333 165.975 377.083 165.881 376.882 165.718C375.328 164.431 373.731 163.232 372.089 162.034C371.84 161.848 371.674 161.573 371.624 161.267C371.575 160.961 371.646 160.647 371.822 160.392C372.049 160.192 372.341 160.082 372.643 160.082C372.946 160.082 373.238 160.192 373.465 160.392C375.107 161.59 376.749 162.877 378.346 164.164C378.454 164.268 378.539 164.392 378.598 164.529C378.656 164.667 378.686 164.814 378.686 164.963C378.686 165.112 378.656 165.26 378.598 165.397C378.539 165.535 378.454 165.659 378.346 165.762C378.192 165.884 378.011 165.968 377.818 166.007C377.625 166.045 377.426 166.038 377.237 165.984H377.592ZM200.779 160.215C200.578 160.251 200.37 160.228 200.181 160.149C199.992 160.071 199.83 159.939 199.714 159.771C199.55 159.519 199.487 159.216 199.536 158.92C199.585 158.624 199.744 158.358 199.98 158.173L205.084 154.756C205.212 154.674 205.355 154.618 205.505 154.591C205.655 154.565 205.808 154.568 205.957 154.601C206.105 154.634 206.246 154.696 206.37 154.784C206.494 154.871 206.6 154.982 206.682 155.111C206.764 155.239 206.82 155.382 206.846 155.532C206.873 155.681 206.869 155.835 206.836 155.983C206.803 156.132 206.741 156.272 206.654 156.397C206.566 156.521 206.455 156.627 206.327 156.709C204.64 157.774 202.954 158.928 201.312 160.081C201.147 160.168 200.965 160.214 200.779 160.215ZM367.517 158.706C367.3 158.766 367.07 158.766 366.852 158.706C365.165 157.552 363.479 156.487 361.748 155.421C361.619 155.34 361.508 155.234 361.421 155.11C361.333 154.985 361.271 154.845 361.238 154.696C361.205 154.548 361.202 154.394 361.228 154.245C361.255 154.095 361.311 153.952 361.393 153.824C361.47 153.697 361.572 153.586 361.692 153.499C361.813 153.412 361.95 153.351 362.094 153.317C362.239 153.284 362.389 153.281 362.536 153.307C362.682 153.333 362.822 153.388 362.946 153.469C364.721 154.534 366.452 155.643 368.139 156.797C368.391 156.968 368.566 157.233 368.624 157.532C368.682 157.831 368.619 158.142 368.449 158.395C368.327 158.512 368.179 158.601 368.018 158.654C367.857 158.708 367.686 158.726 367.517 158.706ZM211.075 153.646C210.871 153.641 210.671 153.586 210.493 153.486C210.315 153.385 210.164 153.242 210.055 153.069C209.977 152.939 209.927 152.795 209.908 152.645C209.888 152.495 209.899 152.342 209.941 152.197C209.983 152.051 210.053 151.916 210.149 151.799C210.245 151.682 210.364 151.585 210.498 151.516C212.229 150.451 214.049 149.474 215.868 148.498C216.143 148.379 216.451 148.363 216.736 148.452C217.021 148.542 217.265 148.732 217.422 148.986C217.551 149.259 217.573 149.571 217.482 149.859C217.391 150.147 217.196 150.39 216.934 150.54C215.158 151.472 213.383 152.448 211.652 153.469C211.483 153.587 211.282 153.649 211.075 153.646ZM357.088 152.315C356.9 152.373 356.699 152.373 356.511 152.315C354.78 151.338 352.961 150.406 351.185 149.474C351.028 149.423 350.883 149.338 350.761 149.226C350.639 149.113 350.543 148.976 350.479 148.822C350.415 148.669 350.384 148.504 350.39 148.338C350.396 148.173 350.437 148.01 350.511 147.861C350.585 147.713 350.691 147.582 350.82 147.478C350.949 147.374 351.1 147.299 351.26 147.259C351.421 147.218 351.589 147.213 351.752 147.243C351.915 147.273 352.07 147.338 352.206 147.433L357.665 150.318C357.92 150.474 358.104 150.724 358.179 151.014C358.253 151.303 358.212 151.611 358.064 151.871C357.955 152.025 357.808 152.147 357.636 152.225C357.465 152.303 357.275 152.334 357.088 152.315ZM221.904 147.921C221.687 147.924 221.473 147.867 221.286 147.758C221.098 147.649 220.944 147.49 220.839 147.3C220.713 147.022 220.698 146.706 220.797 146.418C220.896 146.129 221.102 145.889 221.372 145.746C223.236 144.859 225.1 144.016 227.008 143.217C227.144 143.152 227.292 143.118 227.442 143.115C227.592 143.112 227.741 143.14 227.88 143.199C228.018 143.258 228.142 143.345 228.244 143.455C228.347 143.565 228.424 143.696 228.473 143.838C228.593 144.115 228.6 144.428 228.492 144.71C228.384 144.992 228.17 145.221 227.896 145.347C226.032 146.101 224.212 146.945 222.392 147.832L221.904 147.921ZM346.17 146.767H345.682C343.877 145.939 342.013 145.14 340.09 144.371C339.815 144.244 339.598 144.018 339.483 143.738C339.368 143.458 339.363 143.145 339.469 142.862C339.522 142.718 339.604 142.587 339.711 142.476C339.817 142.366 339.945 142.279 340.087 142.22C340.229 142.162 340.381 142.134 340.535 142.137C340.688 142.14 340.839 142.176 340.978 142.24C342.886 142.995 344.75 143.838 346.659 144.681C346.883 144.799 347.063 144.988 347.17 145.219C347.276 145.449 347.304 145.708 347.248 145.956C347.193 146.204 347.057 146.426 346.862 146.589C346.667 146.751 346.424 146.845 346.17 146.856V146.767ZM233.044 143.128C232.781 143.118 232.529 143.019 232.33 142.846C232.131 142.674 231.997 142.438 231.951 142.179C231.904 141.92 231.947 141.653 232.074 141.422C232.2 141.191 232.401 141.01 232.644 140.909C234.553 140.199 236.505 139.489 238.458 138.867C238.598 138.819 238.746 138.799 238.894 138.809C239.041 138.818 239.186 138.857 239.318 138.923C239.45 138.99 239.568 139.081 239.664 139.194C239.76 139.306 239.833 139.437 239.878 139.578C239.978 139.866 239.959 140.182 239.826 140.456C239.692 140.731 239.456 140.941 239.168 141.042C237.26 141.663 235.352 142.374 233.443 143.084L233.044 143.128ZM334.809 142.018H334.409C332.545 141.353 330.593 140.687 328.684 140.11C328.39 140.022 328.143 139.82 327.997 139.55C327.852 139.279 327.819 138.962 327.908 138.668C327.996 138.373 328.197 138.126 328.468 137.981C328.738 137.835 329.056 137.803 329.35 137.891L335.208 139.844C335.488 139.953 335.714 140.167 335.838 140.441C335.963 140.714 335.976 141.026 335.874 141.308C335.797 141.526 335.652 141.713 335.46 141.841C335.268 141.969 335.039 142.032 334.809 142.018ZM244.627 139.178C244.379 139.165 244.141 139.077 243.943 138.927C243.745 138.776 243.597 138.57 243.518 138.335C243.436 138.041 243.474 137.726 243.624 137.46C243.773 137.193 244.022 136.997 244.316 136.915C246.314 136.338 248.266 135.805 250.263 135.317C250.568 135.261 250.883 135.321 251.146 135.486C251.408 135.65 251.6 135.906 251.684 136.205C251.738 136.504 251.676 136.812 251.511 137.068C251.347 137.323 251.091 137.506 250.796 137.58C248.843 138.024 246.891 138.557 244.938 139.134L244.627 139.178ZM323.137 138.424H322.826C320.873 137.891 318.921 137.403 316.923 136.959C316.78 136.928 316.645 136.868 316.525 136.784C316.405 136.7 316.303 136.593 316.224 136.469C316.146 136.345 316.093 136.207 316.068 136.063C316.043 135.918 316.047 135.77 316.08 135.628C316.112 135.479 316.173 135.338 316.259 135.212C316.345 135.087 316.455 134.98 316.583 134.898C316.711 134.815 316.854 134.759 317.004 134.732C317.154 134.705 317.307 134.707 317.456 134.74C319.453 135.184 321.45 135.672 323.403 136.205C323.695 136.278 323.947 136.463 324.105 136.721C324.263 136.978 324.313 137.286 324.246 137.58C324.205 137.847 324.071 138.091 323.868 138.27C323.666 138.448 323.407 138.55 323.137 138.557V138.424ZM256.566 136.293C256.302 136.288 256.048 136.193 255.846 136.023C255.644 135.854 255.507 135.62 255.456 135.361C255.424 135.215 255.421 135.064 255.449 134.918C255.476 134.771 255.533 134.631 255.616 134.507C255.699 134.382 255.806 134.276 255.931 134.194C256.056 134.112 256.197 134.056 256.344 134.03C258.341 133.631 260.382 133.275 262.424 132.965C262.57 132.933 262.722 132.932 262.869 132.963C263.016 132.993 263.154 133.055 263.276 133.143C263.398 133.231 263.499 133.343 263.574 133.473C263.649 133.603 263.696 133.748 263.711 133.897C263.736 134.049 263.731 134.204 263.695 134.353C263.659 134.503 263.594 134.644 263.503 134.768C263.412 134.892 263.297 134.997 263.165 135.076C263.033 135.155 262.887 135.207 262.734 135.228L256.787 136.249L256.566 136.293ZM311.243 135.761H311.021C309.068 135.406 307.071 135.095 305.074 134.829C304.768 134.793 304.488 134.638 304.297 134.397C304.105 134.155 304.018 133.848 304.053 133.542C304.088 133.236 304.244 132.956 304.485 132.765C304.726 132.573 305.034 132.486 305.34 132.521L311.465 133.497C311.612 133.524 311.752 133.58 311.877 133.661C312.002 133.743 312.109 133.85 312.192 133.974C312.275 134.098 312.332 134.238 312.359 134.385C312.387 134.532 312.384 134.683 312.352 134.829C312.33 135.119 312.198 135.39 311.984 135.588C311.77 135.785 311.49 135.895 311.198 135.894L311.243 135.761ZM268.637 134.429C268.355 134.422 268.085 134.316 267.874 134.129C267.663 133.942 267.525 133.687 267.483 133.409C267.457 133.104 267.549 132.802 267.738 132.563C267.928 132.323 268.202 132.166 268.504 132.122C270.546 131.914 272.587 131.737 274.629 131.589C274.781 131.57 274.936 131.584 275.084 131.628C275.231 131.673 275.367 131.748 275.484 131.848C275.601 131.948 275.696 132.072 275.763 132.21C275.829 132.349 275.866 132.5 275.871 132.654C275.884 132.953 275.779 133.245 275.581 133.468C275.382 133.692 275.104 133.83 274.806 133.852C272.765 133.852 270.767 134.207 268.77 134.429H268.637ZM299.127 134.119L292.913 133.808C292.76 133.809 292.608 133.777 292.467 133.716C292.327 133.655 292.2 133.565 292.096 133.452C291.991 133.34 291.912 133.207 291.861 133.062C291.811 132.917 291.792 132.763 291.804 132.61C291.827 132.312 291.964 132.034 292.188 131.835C292.411 131.636 292.703 131.532 293.002 131.545C295.088 131.545 297.13 131.767 299.171 131.988C299.433 132.041 299.669 132.182 299.838 132.388C300.007 132.594 300.1 132.853 300.1 133.12C300.1 133.387 300.007 133.646 299.838 133.852C299.669 134.058 299.433 134.2 299.171 134.252L299.127 134.119ZM280.842 133.542C280.543 133.542 280.256 133.426 280.041 133.22C279.826 133.013 279.699 132.73 279.688 132.432C279.682 132.283 279.706 132.134 279.759 131.994C279.812 131.854 279.893 131.727 279.997 131.619C280.1 131.511 280.225 131.425 280.362 131.367C280.5 131.308 280.648 131.278 280.797 131.278H285.236H286.922C287.228 131.278 287.522 131.4 287.738 131.616C287.954 131.833 288.076 132.126 288.076 132.432C288.076 132.738 287.954 133.032 287.738 133.248C287.522 133.465 287.228 133.586 286.922 133.586H280.797L280.842 133.542Z" fill="url(#paint3_linear_84_810)"/>
<path d="M432.535 280.886C432.369 280.895 432.204 280.866 432.051 280.803C431.898 280.739 431.761 280.642 431.65 280.518C431.539 280.395 431.458 280.248 431.411 280.089C431.365 279.93 431.354 279.762 431.381 279.599C431.381 278.578 431.381 277.602 431.381 276.581C431.38 276.278 431.494 275.986 431.7 275.763C431.906 275.541 432.188 275.405 432.491 275.383C432.646 275.377 432.801 275.402 432.946 275.457C433.091 275.513 433.223 275.597 433.335 275.704C433.447 275.812 433.536 275.941 433.597 276.084C433.658 276.227 433.689 276.381 433.689 276.536V279.599C433.716 279.762 433.705 279.93 433.659 280.089C433.612 280.248 433.531 280.395 433.42 280.518C433.309 280.642 433.172 280.739 433.019 280.803C432.866 280.866 432.701 280.895 432.535 280.886Z" fill="url(#paint4_linear_84_810)"/>
<path d="M432.047 288.83C434.899 291.331 438.51 292.801 442.299 293.002C437.903 289.526 434.529 284.925 432.535 279.688C429.987 284.626 426.232 288.84 421.617 291.937C425.336 292.04 428.99 290.951 432.047 288.83Z" fill="#0D5DD6"/>
</g>
<path d="M326.854 392.18C380.772 369.846 406.376 308.032 384.043 254.115C361.709 200.197 299.895 174.592 245.977 196.926C192.06 219.259 166.455 281.073 188.789 334.991C211.122 388.909 272.936 414.513 326.854 392.18Z" fill="url(#paint5_linear_84_810)"/>
<path d="M288.83 387.178C339.984 387.178 381.452 345.709 381.452 294.555C381.452 243.401 339.984 201.932 288.83 201.932C237.676 201.932 196.207 243.401 196.207 294.555C196.207 345.709 237.676 387.178 288.83 387.178Z" fill="#F7941D"/>
<path d="M286.433 387.178C337.587 387.178 379.056 345.709 379.056 294.555C379.056 243.401 337.587 201.932 286.433 201.932C235.279 201.932 193.81 243.401 193.81 294.555C193.81 345.709 235.279 387.178 286.433 387.178Z" fill="#FFF200"/>
<path d="M286.434 201.932L193.767 294.555C193.767 294.555 195.498 209.255 286.434 201.932Z" fill="#FFDE17"/>
<path d="M286.832 201.622L379.455 294.244C379.455 294.244 377.724 208.945 286.832 201.622Z" fill="#FFDE17"/>
<path d="M286.744 387.311L194.077 294.644C194.077 294.644 195.808 379.988 286.744 387.311Z" fill="#FFDE17"/>
<path d="M287.099 387.577L379.766 294.955C379.766 294.955 378.035 380.299 287.099 387.577Z" fill="#FFDE17"/>
<g style="mix-blend-mode:multiply" opacity="0.35">
<path d="M337.737 202.199C335.429 275.826 297.35 342.264 242.185 390.551C256.08 397.036 271.232 400.385 286.566 400.359C310.003 400.373 332.779 392.595 351.313 378.249C369.846 363.902 383.084 343.802 388.944 321.109C394.803 298.416 392.953 274.419 383.683 252.893C374.413 231.367 358.25 213.534 337.737 202.199Z" fill="#FBB040"/>
</g>
<path d="M293.844 183.914H277.512V242.097H293.844V183.914Z" fill="#0D5DD6"/>
<path d="M285.768 193.189C388.11 82.5037 291.759 6.16881 285.768 1.5976C279.776 6.03567 183.426 82.5037 285.768 193.189Z" fill="#03315C"/>
<path d="M284.436 2.39642C272.764 11.7164 187.464 86.0098 284.436 192.08V2.39642Z" fill="#0D5DD6"/>
<path d="M290.738 226.342C368.76 252.527 376.526 184.402 376.926 180.23C373.198 178.233 312.263 146.856 290.694 226.342H290.738Z" fill="#03315C"/>
<path d="M376.216 179.742C368.804 175.97 311.819 149.829 290.872 225.41L376.216 179.742Z" fill="#0D5DD6"/>
<path d="M227.053 208.59C239.657 257.408 277.203 238.502 279.6 237.304C279.378 234.73 275.161 192.923 227.141 208.412L227.053 208.59Z" fill="#03315C"/>
<path d="M279.598 236.771C279.065 231.712 273.473 193.722 227.672 208.19L279.598 236.771Z" fill="#0D5DD6"/>
<path d="M460.673 445.538C494.057 445.538 521.12 418.476 521.12 385.092C521.12 351.708 494.057 324.645 460.673 324.645C427.289 324.645 400.226 351.708 400.226 385.092C400.226 418.476 427.289 445.538 460.673 445.538Z" fill="url(#paint6_linear_84_810)"/>
<path d="M462.048 438.083C491.314 438.083 515.038 414.358 515.038 385.092C515.038 355.826 491.314 332.101 462.048 332.101C432.782 332.101 409.057 355.826 409.057 385.092C409.057 414.358 432.782 438.083 462.048 438.083Z" fill="#F7941D"/>
<path d="M460.672 438.083C489.938 438.083 513.662 414.358 513.662 385.092C513.662 355.826 489.938 332.101 460.672 332.101C431.406 332.101 407.681 355.826 407.681 385.092C407.681 414.358 431.406 438.083 460.672 438.083Z" fill="#FFF200"/>
<path d="M460.895 331.924L513.885 384.914C513.885 384.914 512.909 336.095 460.895 331.924Z" fill="#FFDE17"/>
<g style="mix-blend-mode:multiply" opacity="0.35">
<path d="M490.008 332.279C488.677 374.352 466.975 412.164 435.375 439.902C449.551 446.358 465.673 447.088 480.374 441.94C495.075 436.791 507.219 426.162 514.27 412.273C521.321 398.383 522.733 382.307 518.212 367.401C513.691 352.495 503.587 339.912 490.008 332.279Z" fill="#FBB040"/>
</g>
<path d="M467.418 299.836H455.39V354.025H467.418V299.836Z" fill="#0D5DD6"/>
<path d="M461.56 306.671C537.007 225.144 465.998 169.091 461.56 165.585C457.122 168.957 386.113 225.144 461.56 306.671Z" fill="#03315C"/>
<path d="M460.539 166.162C451.663 173.041 389.131 227.762 460.539 305.828V166.162Z" fill="#0D5DD6"/>
<path d="M465.154 331.08C522.849 350.342 528.308 300.014 528.618 297.129C525.867 295.664 480.998 272.586 465.11 331.08H465.154Z" fill="#03315C"/>
<path d="M528.131 296.774C522.672 293.978 480.732 274.584 465.287 330.37L528.131 296.774Z" fill="#0D5DD6"/>
<path d="M418.245 317.899C427.521 353.848 455.17 340.09 456.857 339.158C456.857 337.294 453.572 306.538 418.245 317.899Z" fill="#03315C"/>
<path d="M456.856 338.758C456.501 335.03 452.418 307.07 418.644 317.722L456.856 338.758Z" fill="#0D5DD6"/>
<path d="M103.584 230.957C128.291 230.957 148.32 210.929 148.32 186.222C148.32 161.515 128.291 141.486 103.584 141.486C78.8768 141.486 58.8479 161.515 58.8479 186.222C58.8479 210.929 78.8768 230.957 103.584 230.957Z" fill="#FBB040"/>
<path d="M142.757 195.219C147.728 174.154 134.683 153.048 113.618 148.077C92.554 143.105 71.4477 156.151 66.476 177.215C61.5044 198.279 74.5501 219.386 95.6144 224.357C116.679 229.329 137.785 216.283 142.757 195.219Z" fill="#F7941D"/>
<path d="M141.766 195.236C146.738 174.172 133.692 153.065 112.628 148.094C91.5635 143.122 70.4572 156.168 65.4856 177.232C60.5139 198.296 73.5596 219.403 94.6239 224.374C115.688 229.346 136.795 216.3 141.766 195.236Z" fill="#FFF200"/>
<path d="M103.584 146.989L64.3955 186.399C64.3955 186.399 65.1056 150.096 103.584 146.989Z" fill="#FFDE17"/>
<path d="M103.762 146.856L142.994 186.089C142.994 186.089 142.24 149.963 103.762 146.856Z" fill="#FFDE17"/>
<path d="M103.718 225.454L64.5298 186.399C64.5298 186.399 65.2399 222.348 103.718 225.454Z" fill="#FFDE17"/>
<path d="M103.896 225.587L143.084 186.399C143.084 186.399 142.374 222.481 103.896 225.587Z" fill="#FFDE17"/>
<g style="mix-blend-mode:multiply" opacity="0.35">
<path d="M125.332 147.122C124.355 178.189 108.289 206.371 84.8564 227.008C90.1018 229.665 95.8192 231.264 101.682 231.712C107.545 232.16 113.439 231.449 119.028 229.619C124.616 227.789 129.789 224.876 134.252 221.047C138.714 217.218 142.379 212.548 145.037 207.303C147.694 202.057 149.293 196.34 149.741 190.477C150.189 184.614 149.478 178.72 147.648 173.131C145.818 167.543 142.906 162.37 139.077 157.907C135.248 153.445 130.577 149.78 125.332 147.122Z" fill="#FBB040"/>
</g>
<path d="M117.033 123.423H108.423V162.389H117.033V123.423Z" fill="#0D5DD6"/>
<path d="M112.772 128.305C166.961 69.7665 115.967 29.3356 112.772 26.9391V26.6284C109.576 29.025 58.5829 69.4559 112.772 127.994V128.305Z" fill="#03315C"/>
<path d="M112.106 27.3384C105.893 32.309 60.7579 71.7191 112.106 127.728V27.3384Z" fill="#0D5DD6"/>
<path d="M115.39 145.879C156.664 159.726 160.791 123.689 161.013 121.47C159.016 120.405 126.796 103.718 115.39 145.879Z" fill="#03315C"/>
<path d="M160.658 121.204C156.708 119.207 126.574 105.36 115.479 145.347L160.658 121.204Z" fill="#0D5DD6"/>
<path d="M81.7056 136.382C88.3627 162.212 108.334 152.315 109.488 151.693C109.488 150.362 107.136 128.26 81.7499 136.426L81.7056 136.382Z" fill="#03315C"/>
<path d="M109.488 151.383C109.178 148.72 106.249 128.615 81.9724 136.249L109.488 151.383Z" fill="#0D5DD6"/>
<path d="M178.25 390.498C202.957 390.498 222.986 370.469 222.986 345.762C222.986 321.055 202.957 301.026 178.25 301.026C153.543 301.026 133.514 321.055 133.514 345.762C133.514 370.469 153.543 390.498 178.25 390.498Z" fill="url(#paint7_linear_84_810)"/>
<path d="M217.289 354.983C222.261 333.919 209.215 312.812 188.151 307.841C167.087 302.869 145.98 315.915 141.009 336.979C136.037 358.044 149.083 379.15 170.147 384.121C191.211 389.093 212.318 376.047 217.289 354.983Z" fill="#F7941D"/>
<path d="M216.256 355C221.227 333.936 208.182 312.83 187.117 307.858C166.053 302.886 144.947 315.932 139.975 336.996C135.003 358.061 148.049 379.167 169.113 384.139C190.178 389.11 211.284 376.064 216.256 355Z" fill="#FFF200"/>
<path d="M178.099 306.76L138.911 346.17C138.911 346.17 139.621 309.866 178.099 306.76Z" fill="#FFDE17"/>
<path d="M178.277 306.626L217.465 345.859C217.465 345.859 216.755 309.733 178.277 306.626Z" fill="#FFDE17"/>
<path d="M178.233 385.225L139.045 346.17C139.045 346.17 139.755 382.118 178.233 385.225Z" fill="#FFDE17"/>
<path d="M178.411 385.358L217.466 346.17C217.466 346.17 216.889 382.251 178.411 385.358Z" fill="#FFDE17"/>
<g style="mix-blend-mode:multiply" opacity="0.35">
<path d="M199.713 306.893C198.737 337.96 182.671 366.141 159.238 386.556C169.762 391.584 181.835 392.297 192.879 388.545C203.922 384.793 213.061 376.872 218.344 366.473C223.628 356.075 224.636 344.023 221.155 332.891C217.674 321.759 209.979 312.429 199.713 306.893Z" fill="#FBB040"/>
</g>
<path d="M174.506 285.59H166.385V320.828H174.506V285.59Z" fill="#0D5DD6"/>
<path d="M170.511 290.206C221.549 235.04 173.485 197.006 170.511 194.654C167.538 196.962 119.473 235.04 170.511 290.206Z" fill="#03315C"/>
<path d="M169.888 195.275C164.03 199.713 121.513 236.993 169.888 289.895V195.275Z" fill="#0D5DD6"/>
<path d="M173.085 306.76C212.007 319.808 215.868 285.856 216.09 283.771C214.226 282.794 183.825 267.128 173.085 306.76Z" fill="#03315C"/>
<path d="M215.646 283.504C211.918 281.64 183.514 268.592 173.085 306.271L215.646 283.504Z" fill="#0D5DD6"/>
<path d="M192.967 21.5245H189.728V24.7643H192.967V21.5245Z" fill="#C2C3C4"/>
<path d="M192.967 48.8188H189.728V42.9605H192.967V48.8188ZM192.967 36.7028H189.728V31.0665H192.967V36.7028Z" fill="url(#paint8_linear_84_810)"/>
<path d="M192.967 121.647H189.728V115.39H192.967V121.647ZM192.967 109.532H189.728V103.451H192.967V109.532ZM192.967 97.4156H189.728V91.3798H192.967V97.4156ZM192.967 85.2996H189.728V79.2639H192.967V85.2996ZM192.967 73.2281H189.728V67.1479H192.967V73.2281ZM192.967 61.1121H189.728V55.0764H192.967V61.1121Z" fill="url(#paint9_linear_84_810)"/>
<path d="M192.967 127.683H189.728V130.923H192.967V127.683Z" fill="url(#paint10_linear_84_810)"/>
<path d="M191.325 1.90833C187.704 11.9531 182.489 21.3491 175.88 29.7351L191.325 24.0987L206.814 29.7351C200.175 21.3617 194.943 11.9631 191.325 1.90833Z" fill="url(#paint11_linear_84_810)"/>
<path d="M92.3565 443.586H89.1167V446.826H92.3565V443.586Z" fill="#C2C3C4"/>
<path d="M92.3565 437.55H89.1167V431.47H92.3565V437.55ZM92.3565 425.434H89.1167V419.354H92.3565V425.434Z" fill="url(#paint12_linear_84_810)"/>
<path d="M92.3565 413.318H89.1167V407.282H92.3565V413.318ZM92.3565 401.202H89.1167V394.989H92.3565V401.202ZM92.3565 389.13H89.1167V383.05H92.3565V389.13ZM92.3565 377.014H89.1167V370.934H92.3565V377.014ZM92.3565 364.899H89.1167V358.863H92.3565V364.899ZM92.3565 352.783H89.1167V346.747H92.3565V352.783Z" fill="url(#paint13_linear_84_810)"/>
<path d="M92.3565 337.427H89.1167V340.667H92.3565V337.427Z" fill="url(#paint14_linear_84_810)"/>
<path d="M90.7586 466.442C94.3691 456.406 99.5852 447.023 106.203 438.659L90.7586 444.251L75.4473 438.659C82.0162 447.033 87.1868 456.415 90.7586 466.442Z" fill="url(#paint15_linear_84_810)"/>
<path d="M414.694 76.69H412.652V78.7315H414.694V76.69Z" fill="#C2C3C4"/>
<path d="M414.694 94.0871H412.741V90.2703H414.782L414.694 94.0871ZM414.694 86.4092H412.741V82.5925H414.782L414.694 86.4092Z" fill="url(#paint16_linear_84_810)"/>
<path d="M414.694 140.066H412.741V136.249H414.782L414.694 140.066ZM414.694 132.388H412.741V128.704H414.782L414.694 132.388ZM414.694 124.754H412.741V120.893H414.782L414.694 124.754ZM414.694 117.076H412.741V113.26H414.782L414.694 117.076ZM414.694 109.398H412.741V105.582H414.782L414.694 109.398ZM414.694 101.765H412.741V97.9039H414.782L414.694 101.765Z" fill="url(#paint17_linear_84_810)"/>
<path d="M414.694 143.882H412.652V145.924H414.694V143.882Z" fill="url(#paint18_linear_84_810)"/>
<path d="M413.672 64.2632C411.406 70.673 408.108 76.6695 403.908 82.0155L413.672 78.465L423.48 82.0155C419.266 76.6712 415.954 70.6749 413.672 64.2632Z" fill="url(#paint19_linear_84_810)"/>
<g style="mix-blend-mode:multiply">
<path d="M60.2694 318.876C71.2993 318.876 80.2408 309.934 80.2408 298.904C80.2408 287.874 71.2993 278.933 60.2694 278.933C49.2396 278.933 40.2981 287.874 40.2981 298.904C40.2981 309.934 49.2396 318.876 60.2694 318.876Z" fill="#F4F3ED"/>
</g>
<g style="mix-blend-mode:multiply">
<path d="M245.691 502.701C256.721 502.701 265.663 493.76 265.663 482.73C265.663 471.7 256.721 462.758 245.691 462.758C234.661 462.758 225.72 471.7 225.72 482.73C225.72 493.76 234.661 502.701 245.691 502.701Z" fill="#F4F3ED"/>
</g>
<g style="mix-blend-mode:multiply">
<path d="M366.629 95.5074C377.659 95.5074 386.6 86.566 386.6 75.5361C386.6 64.5062 377.659 55.5648 366.629 55.5648C355.599 55.5648 346.657 64.5062 346.657 75.5361C346.657 86.566 355.599 95.5074 366.629 95.5074Z" fill="#F4F3ED"/>
</g>
<g style="mix-blend-mode:multiply">
<path d="M377.724 514.906C388.754 514.906 397.695 505.964 397.695 494.934C397.695 483.904 388.754 474.963 377.724 474.963C366.694 474.963 357.753 483.904 357.753 494.934C357.753 505.964 366.694 514.906 377.724 514.906Z" fill="#F4F3ED"/>
</g>
<g style="mix-blend-mode:multiply">
<path d="M541.933 291.892C559.09 291.892 572.999 277.983 572.999 260.826C572.999 243.668 559.09 229.759 541.933 229.759C524.775 229.759 510.866 243.668 510.866 260.826C510.866 277.983 524.775 291.892 541.933 291.892Z" fill="#F4F3ED"/>
</g>
<g style="mix-blend-mode:multiply">
<path d="M222.259 74.4264C222.259 75.5938 221.912 76.735 221.264 77.7057C220.615 78.6764 219.693 79.4329 218.615 79.8797C217.536 80.3265 216.349 80.4433 215.204 80.2156C214.059 79.9878 213.008 79.4257 212.182 78.6002C211.357 77.7747 210.795 76.7229 210.567 75.5779C210.339 74.4329 210.456 73.2461 210.903 72.1675C211.349 71.089 212.106 70.1671 213.077 69.5185C214.047 68.8699 215.189 68.5237 216.356 68.5237C217.133 68.5178 217.903 68.6665 218.622 68.961C219.341 69.2556 219.994 69.6901 220.543 70.2394C221.092 70.7887 221.527 71.4417 221.821 72.1606C222.116 72.8794 222.265 73.6496 222.259 74.4264Z" fill="#F4F3ED"/>
</g>
<g style="mix-blend-mode:multiply">
<path d="M128.703 334.054C128.703 335.232 128.353 336.383 127.698 337.362C127.043 338.341 126.111 339.103 125.022 339.552C123.933 340.001 122.735 340.116 121.58 339.883C120.425 339.65 119.365 339.079 118.535 338.243C117.706 337.407 117.143 336.343 116.918 335.187C116.694 334.03 116.818 332.833 117.275 331.747C117.732 330.661 118.501 329.735 119.485 329.087C120.469 328.439 121.623 328.098 122.801 328.107C124.37 328.118 125.872 328.75 126.977 329.864C128.083 330.978 128.703 332.484 128.703 334.054Z" fill="#F4F3ED"/>
</g>
<g style="mix-blend-mode:multiply">
<path d="M379.943 129.148C383.203 129.148 385.845 126.505 385.845 123.245C385.845 119.985 383.203 117.343 379.943 117.343C376.683 117.343 374.04 119.985 374.04 123.245C374.04 126.505 376.683 129.148 379.943 129.148Z" fill="#F4F3ED"/>
</g>
<path d="M55.698 111.041H45.668V170.777H55.698V111.041Z" fill="url(#paint20_linear_84_810)"/>
<path d="M39.4107 121.204H29.3806V170.821H39.4107V121.204Z" fill="url(#paint21_linear_84_810)"/>
<path d="M21.2573 133.764H11.2273V170.822H21.2573V133.764Z" fill="url(#paint22_linear_84_810)"/>
<path d="M51.1698 105.227L50.5929 104.738C50.33 104.473 50.1825 104.114 50.1825 103.74C50.1825 103.366 50.33 103.007 50.5929 102.741L55.6079 97.0162C55.7367 96.8884 55.839 96.7362 55.9087 96.5687C55.9785 96.4011 56.0144 96.2214 56.0144 96.0399C56.0144 95.8583 55.9785 95.6786 55.9087 95.5111C55.839 95.3435 55.7367 95.1914 55.6079 95.0635L49.8384 90.0485C49.7096 89.9206 49.6073 89.7685 49.5376 89.6009C49.4678 89.4333 49.4319 89.2536 49.4319 89.0721C49.4319 88.8906 49.4678 88.7109 49.5376 88.5433C49.6073 88.3757 49.7096 88.2236 49.8384 88.0957L50.371 87.4744C50.6421 87.2217 50.9989 87.0812 51.3695 87.0812C51.7402 87.0812 52.097 87.2217 52.3681 87.4744L60.8004 94.8416C60.9293 94.9695 61.0315 95.1216 61.1013 95.2891C61.171 95.4567 61.207 95.6364 61.207 95.818C61.207 95.9995 61.171 96.1792 61.1013 96.3468C61.0315 96.5143 60.9293 96.6665 60.8004 96.7943L53.2557 105.094C53.1322 105.246 52.9783 105.372 52.8038 105.462C52.6293 105.552 52.438 105.605 52.242 105.618C52.0459 105.63 51.8494 105.602 51.6649 105.535C51.4803 105.467 51.3118 105.362 51.1698 105.227Z" fill="#11489B"/>
<path d="M51.9699 94.7972L35.5046 94.9747C35.1044 94.9747 34.7206 95.1337 34.4376 95.4167C34.1546 95.6996 33.9957 96.0834 33.9957 96.4836V111.573H19.5275C19.2986 111.567 19.0708 111.608 18.858 111.692C18.6452 111.777 18.452 111.904 18.29 112.066C18.1281 112.228 18.0008 112.422 17.916 112.634C17.8312 112.847 17.7906 113.075 17.7967 113.304V122.846H1.73085C1.2718 122.846 0.831551 123.028 0.506954 123.353C0.182357 123.677 0 124.118 0 124.577L0 125.02C0 125.303 0.11222 125.574 0.311972 125.774C0.511724 125.973 0.782646 126.086 1.06514 126.086H21.7022V115.878C21.7022 115.596 21.8144 115.325 22.0142 115.125C22.2139 114.925 22.4848 114.813 22.7673 114.813H37.2798H37.9899V100.078C37.9899 99.6901 38.1442 99.3175 38.4189 99.0429C38.6936 98.7682 39.0661 98.6139 39.4545 98.6139H51.9699V94.7972Z" fill="url(#paint23_linear_84_810)"/>
<path d="M301.035 495.023H308.846V470.835C306.316 471.324 303.698 471.812 301.035 472.211V495.023Z" fill="url(#paint24_linear_84_810)"/>
<path d="M311.597 495.023H319.541V468.394C317.012 469.06 314.438 469.681 311.73 470.258L311.597 495.023Z" fill="url(#paint25_linear_84_810)"/>
<path d="M322.205 495.023H330.016V465.332C327.486 466.131 324.912 466.93 322.205 467.64V495.023Z" fill="url(#paint26_linear_84_810)"/>
<path d="M332.856 495.023H340.711V461.56C338.182 462.536 335.608 463.513 332.856 464.4V495.023Z" fill="url(#paint27_linear_84_810)"/>
<path d="M343.375 495.023H351.186V457.122C348.7 458.276 346.126 459.43 343.375 460.539V495.023Z" fill="url(#paint28_linear_84_810)"/>
<path d="M353.98 495.023H361.791V451.663C359.35 452.994 356.731 454.37 353.98 455.746V495.023Z" fill="url(#paint29_linear_84_810)"/>
<path d="M364.544 450.065V495.023H372.355V445.183C371.157 446.027 369.87 446.825 368.538 447.669C367.207 448.512 365.964 449.266 364.544 450.065Z" fill="url(#paint30_linear_84_810)"/>
<path d="M375.15 495.023H382.961V437.328C380.742 439.147 378.123 441.145 375.15 443.231V495.023Z" fill="url(#paint31_linear_84_810)"/>
<path d="M392.904 436.307L391.661 418.022L374.397 420.286L380.788 426.055C369.515 436.174 340.091 457.921 290.384 463.601L291.272 471.146C318.15 468.38 344.074 459.663 367.163 445.627C374.074 441.363 380.581 436.476 386.602 431.026L392.904 436.307Z" fill="url(#paint32_linear_84_810)"/>
<path d="M534.831 101.416C534.831 110.794 532.05 119.961 526.84 127.758C521.63 135.556 514.225 141.633 505.561 145.222C496.897 148.811 487.363 149.75 478.165 147.92C468.968 146.091 460.519 141.575 453.888 134.944C447.257 128.312 442.741 119.864 440.911 110.666C439.082 101.468 440.021 91.9345 443.609 83.2704C447.198 74.6064 453.275 67.2011 461.073 61.991C468.87 56.7809 478.038 54 487.416 54C499.991 54 512.051 58.9956 520.944 67.8877C529.836 76.7799 534.831 88.8402 534.831 101.416Z" fill="url(#paint33_linear_84_810)"/>
<path d="M488.191 142.779C511.137 142.779 529.739 124.178 529.739 101.232C529.739 78.2859 511.137 59.6846 488.191 59.6846C465.245 59.6846 446.644 78.2859 446.644 101.232C446.644 124.178 465.245 142.779 488.191 142.779Z" fill="#F7941D"/>
<path d="M487.094 142.779C510.04 142.779 528.642 124.178 528.642 101.232C528.642 78.2859 510.04 59.6846 487.094 59.6846C464.148 59.6846 445.547 78.2859 445.547 101.232C445.547 124.178 464.148 142.779 487.094 142.779Z" fill="#FFF200"/>
<path d="M487.094 59.6846L445.547 101.232C445.936 90.3367 450.438 79.9934 458.147 72.2844C465.856 64.5755 476.199 60.0734 487.094 59.6846Z" fill="#FFDE17"/>
<path d="M487.333 59.528L528.88 101.075C528.491 90.1801 523.989 79.8368 516.28 72.1278C508.571 64.4189 498.228 59.9167 487.333 59.528Z" fill="#FFDE17"/>
<path d="M487.251 142.858L445.704 101.31C446.093 112.205 450.595 122.549 458.304 130.258C466.013 137.967 476.356 142.469 487.251 142.858Z" fill="#FFDE17"/>
<path d="M487.409 143.014L529.035 101.388C528.646 112.304 524.136 122.668 516.412 130.391C508.688 138.115 498.325 142.625 487.409 143.014Z" fill="#FFDE17"/>
<g style="mix-blend-mode:multiply" opacity="0.35">
<path d="M510.179 59.7629C509.228 76.0397 504.929 91.9453 497.551 106.485C490.174 121.025 479.876 133.887 467.302 144.266C473.502 147.151 480.258 148.646 487.097 148.648C497.647 148.756 507.932 145.343 516.324 138.948C524.715 132.553 530.735 123.542 533.428 113.341C536.122 103.14 535.337 92.3324 531.197 82.6281C527.057 72.9238 519.798 64.8775 510.57 59.7629H510.179Z" fill="#FBB040"/>
</g>
<path d="M119.675 183.913C122.18 182.633 123.773 180.356 123.403 176.571C122.919 171.391 118.666 169.655 113.031 169.172V162H108.648V168.972C107.51 168.972 106.343 169.001 105.176 169.029V162H100.794V169.172C99.1823 169.22 97.3057 169.197 92 169.172V173.839C95.4602 173.778 97.2758 173.555 97.6917 175.774V195.41C97.4276 197.171 96.0188 196.917 92.8822 196.862L92.0001 202.07C99.991 202.07 100.794 202.098 100.794 202.098V208.24H105.176V202.184C106.372 202.212 107.538 202.212 108.648 202.212V208.24H113.031V202.098C120.373 201.7 125.282 199.85 125.936 192.934C126.448 187.385 123.83 184.909 119.675 183.913ZM105.262 174.152C107.738 174.152 115.478 173.383 115.478 178.534C115.478 183.458 107.738 182.889 105.262 182.889V174.152ZM105.262 196.89V187.271C108.222 187.271 117.285 186.446 117.285 192.081C117.285 197.516 108.222 196.89 105.262 196.89Z" fill="#0D5DD6"/>
<g clip-path="url(#clip1_84_810)">
<path d="M176.502 326L176.207 327.002V356.09L176.502 356.384L190.004 348.403L176.502 326Z" fill="url(#paint34_linear_84_810)"/>
<path d="M176.502 326L163 348.403L176.502 356.384V342.266V326Z" fill="url(#paint35_linear_84_810)"/>
<path d="M176.502 358.941L176.336 359.143V369.505L176.502 369.99L190.012 350.964L176.502 358.941Z" fill="url(#paint36_linear_84_810)"/>
<path d="M176.502 369.99V358.94L163 350.963L176.502 369.99Z" fill="#0D5DD6"/>
<path d="M176.502 356.384L190.004 348.403L176.502 342.266V356.384Z" fill="url(#paint37_linear_84_810)"/>
<path d="M163 348.403L176.502 356.384V342.266L163 348.403Z" fill="url(#paint38_linear_84_810)"/>
</g>
<g clip-path="url(#clip2_84_810)">
<path d="M476.047 379.803H471.358C470.816 379.803 470.296 379.571 469.932 379.162L468.03 377.017C467.742 376.696 467.344 376.508 466.913 376.508C466.482 376.508 466.083 376.696 465.796 377.017L464.159 378.863C463.629 379.46 462.855 379.814 462.058 379.814H436.393C435.663 381.882 435.188 384.082 435 386.371H459.228C459.659 386.371 460.057 386.195 460.356 385.885L462.611 383.53C462.888 383.231 463.286 383.065 463.684 383.065H463.772C464.204 383.065 464.602 383.253 464.889 383.574L466.791 385.719C467.156 386.128 467.676 386.36 468.218 386.36H487.989C487.801 384.082 487.325 381.871 486.596 379.792L476.047 379.803Z" fill="url(#paint39_linear_84_810)"/>
<path d="M449.662 400.172C450.094 400.172 450.492 399.995 450.79 399.685L453.046 397.33C453.334 397.031 453.721 396.865 454.13 396.865H454.218C454.65 396.865 455.059 397.053 455.335 397.363L457.237 399.508C457.602 399.917 458.122 400.149 458.664 400.149H485.468C486.474 398.071 487.204 395.848 487.646 393.515H461.915C461.373 393.515 460.853 393.283 460.488 392.873L458.586 390.75C458.299 390.43 457.901 390.253 457.469 390.253C457.038 390.253 456.629 390.441 456.352 390.75L454.716 392.597C454.185 393.205 453.411 393.548 452.604 393.548H435.365C435.807 395.881 436.537 398.104 437.543 400.183L449.662 400.172Z" fill="url(#paint40_linear_84_810)"/>
<path d="M468.671 372.627C469.102 372.627 469.5 372.45 469.799 372.14L472.055 369.785C472.331 369.486 472.729 369.32 473.138 369.32H473.227C473.658 369.32 474.056 369.508 474.344 369.829L476.246 371.985C476.611 372.394 477.13 372.627 477.672 372.627H482.77C477.915 366.169 470.197 362 461.506 362C452.814 362 445.085 366.169 440.23 372.627H468.671Z" fill="url(#paint41_linear_84_810)"/>
<path d="M458.443 406.751H451.476C450.934 406.751 450.415 406.519 450.05 406.11L448.148 403.964C447.86 403.644 447.462 403.467 447.031 403.467C446.6 403.467 446.191 403.655 445.914 403.964L444.278 405.811C443.747 406.419 442.973 406.762 442.166 406.762H442.055C446.909 411.959 453.82 415.221 461.506 415.221C469.191 415.221 476.091 411.959 480.956 406.762L458.443 406.751Z" fill="url(#paint42_linear_84_810)"/>
</g>
<path fill-rule="evenodd" clip-rule="evenodd" d="M478.73 96.3733C481.998 108.057 494.558 103.842 496.32 114.644C497.426 121.415 486.937 123.311 481.004 120.268C478.125 118.791 476.586 117.169 475.115 114.152C473.648 111.14 473.239 107.571 474.412 104.088C474.855 102.772 477.815 97.1497 478.73 96.3742L478.73 96.3733ZM499.525 112.371C498.274 108.702 497.168 107.057 494.659 105.182C490.242 101.885 482.3 101.323 482.104 93.8038C481.995 89.6362 483.68 87.4959 485.104 84.8435C485.734 83.6712 486.714 81.2812 488.128 83.4899L494.642 94.9385C497.487 99.7979 502.279 106.576 499.525 112.37V112.371ZM483.16 80.3911C482.794 81.8995 473.523 97.5413 471.863 100.691C467.265 109.407 471.926 119.022 477.745 122.679C490.934 130.967 504.876 119.537 503.957 107.592C503.523 101.95 501.735 100.146 499.615 96.2305C497.274 91.9799 494.697 87.4224 492.19 83.1256C488.444 76.7057 487.616 73.0623 484.149 79.0213C483.669 79.8473 483.787 79.8387 483.161 80.3911H483.16Z" fill="#0D5DD6"/>
<path fill-rule="evenodd" clip-rule="evenodd" d="M478.73 96.3733C477.816 97.1488 474.856 102.772 474.413 104.087C473.24 107.57 473.649 111.14 475.116 114.151C476.586 117.169 478.126 118.791 481.005 120.267C486.938 123.31 497.426 121.415 496.321 114.643C494.559 103.841 481.999 108.055 478.731 96.3724L478.73 96.3733Z" fill="#FFDB21"/>
<path fill-rule="evenodd" clip-rule="evenodd" d="M499.524 112.371C502.279 106.577 497.487 99.7989 494.641 94.9395L488.127 83.4909C486.713 81.2822 485.733 83.6721 485.103 84.8445C483.68 87.4969 481.994 89.638 482.103 93.8048C482.299 101.324 490.242 101.885 494.658 105.183C497.168 107.057 498.272 108.702 499.524 112.372V112.371Z" fill="#FFDB21"/>
</g>
<path d="M265.253 270.629L265.252 270.629C264.574 271.043 263.969 271.116 263.378 271.145C263.287 271.15 263.197 271.153 263.107 271.157C262.631 271.175 262.166 271.194 261.645 271.358C261.245 271.971 261.097 272.498 260.957 272.994C260.94 273.054 260.923 273.114 260.906 273.173C260.743 273.741 260.55 274.273 259.939 274.781C259.354 275.268 258.768 275.42 258.171 275.575C258.151 275.58 258.13 275.586 258.11 275.591C257.507 275.748 256.871 275.923 256.132 276.446C256.004 276.901 255.949 277.294 255.91 277.65C255.902 277.724 255.894 277.796 255.887 277.868C255.858 278.154 255.83 278.427 255.769 278.682C255.692 279.01 255.56 279.318 255.303 279.624C255.048 279.927 254.676 280.221 254.13 280.531L254.129 280.531C253.668 280.793 253.273 280.964 252.945 281.105C252.925 281.114 252.904 281.123 252.884 281.132C252.54 281.281 252.293 281.394 252.108 281.546C251.765 281.829 251.597 282.287 251.654 283.627L251.655 283.641L251.653 283.656C251.58 284.263 251.421 284.731 251.197 285.115C250.973 285.498 250.689 285.787 250.38 286.041C250.169 286.214 249.94 286.375 249.71 286.537C249.608 286.609 249.506 286.68 249.405 286.753C249.091 286.981 248.777 287.229 248.48 287.545C248.623 289.245 248.879 290.933 249.248 292.599C253.293 294.906 260.272 296.176 267.464 296.866C274.687 297.56 282.089 297.665 286.87 297.665H286.871C293.574 297.706 300.269 297.183 306.885 296.103L306.887 296.103C309.842 295.653 312.746 294.917 315.559 293.906C316.542 293.543 317.301 293.249 317.89 292.938C318.476 292.628 318.882 292.307 319.165 291.899C319.447 291.491 319.618 290.978 319.707 290.265C319.795 289.563 319.803 288.678 319.767 287.523C319.471 287.175 319.162 286.923 318.854 286.704C318.732 286.618 318.606 286.533 318.479 286.448C318.281 286.316 318.083 286.183 317.905 286.044C317.6 285.807 317.319 285.529 317.092 285.135C316.866 284.742 316.7 284.242 316.611 283.568L316.61 283.556V283.545C316.61 282.209 316.444 281.75 316.111 281.466C315.934 281.315 315.698 281.203 315.363 281.054C315.336 281.042 315.309 281.03 315.282 281.018C314.968 280.879 314.586 280.71 314.136 280.455C314.136 280.455 314.135 280.455 314.135 280.455L314.223 280.3C312.674 279.434 312.596 278.667 312.48 277.513C312.434 277.062 312.383 276.551 312.235 275.953L265.253 270.629ZM265.253 270.629C265.803 270.292 266.087 269.882 266.291 269.427C266.386 269.215 266.465 268.993 266.545 268.768C266.549 268.755 266.554 268.741 266.559 268.728C266.632 268.52 266.708 268.308 266.802 268.09H266.804L266.857 268.015C267.2 267.527 267.485 267.281 267.737 267.162C267.983 267.046 268.219 267.041 268.49 267.081C268.602 267.098 268.72 267.123 268.846 267.15C269.335 267.253 269.944 267.383 270.737 267.147L270.738 267.147C271.477 266.925 271.967 266.425 272.402 265.889C272.509 265.757 272.613 265.623 272.716 265.49C273.026 265.092 273.329 264.7 273.716 264.37C274.69 264.35 275.33 264.456 275.797 264.575C275.991 264.624 276.155 264.675 276.307 264.722C276.344 264.733 276.381 264.744 276.416 264.755C276.596 264.81 276.766 264.858 276.938 264.877C277.301 264.916 277.646 264.825 278.14 264.514C278.62 264.211 279.261 263.689 280.222 262.841C280.797 262.811 281.199 262.862 281.505 262.951C281.821 263.044 282.046 263.179 282.265 263.326C282.3 263.35 282.335 263.374 282.37 263.398C282.556 263.525 282.755 263.661 283 263.767C283.298 263.895 283.66 263.977 284.166 263.974C284.67 263.97 285.039 263.887 285.346 263.761C285.605 263.654 285.817 263.518 286.016 263.391C286.048 263.37 286.08 263.349 286.112 263.329C286.342 263.184 286.572 263.05 286.883 262.958C287.184 262.87 287.569 262.818 288.107 262.842C289.081 263.699 289.727 264.224 290.209 264.526C290.705 264.837 291.048 264.926 291.407 264.881C291.578 264.86 291.746 264.81 291.922 264.753C291.952 264.744 291.981 264.735 292.011 264.725C292.166 264.675 292.334 264.621 292.534 264.569C292.997 264.449 293.634 264.344 294.61 264.369C294.968 264.693 295.258 265.067 295.553 265.448C295.648 265.571 295.743 265.694 295.841 265.817C296.251 266.326 296.705 266.81 297.36 267.065L297.36 267.065C298.253 267.41 298.921 267.265 299.457 267.149C299.564 267.126 299.665 267.104 299.762 267.087C300.054 267.037 300.302 267.031 300.558 267.145C300.818 267.26 301.11 267.507 301.463 268.014C301.563 268.229 301.652 268.439 301.739 268.645C301.776 268.733 301.813 268.819 301.85 268.906C301.976 269.197 302.106 269.48 302.266 269.739C302.592 270.265 303.038 270.69 303.809 270.929L303.81 270.929C304.479 271.132 304.912 271.184 305.225 271.178C305.382 271.175 305.506 271.157 305.609 271.138C305.645 271.131 305.677 271.125 305.705 271.12C305.763 271.109 305.808 271.1 305.856 271.095C305.969 271.083 306.087 271.093 306.335 271.245C306.584 271.396 306.943 271.677 307.527 272.184C307.496 272.992 307.656 273.582 307.959 274.023C308.272 274.478 308.723 274.753 309.212 274.953C309.548 275.091 309.917 275.199 310.28 275.306C310.438 275.352 310.594 275.398 310.746 275.445C311.237 275.6 311.696 275.777 312.078 276.057L265.253 270.629Z" fill="#FFDB21" stroke="#000233" stroke-width="0.354606"/>
<path fill-rule="evenodd" clip-rule="evenodd" d="M284.985 323.657C286.357 322.502 293.961 319.348 296.334 318.142C319.788 305.986 312.812 297.215 316.851 295.496C317.887 295.135 318.898 294.707 319.878 294.214C320.673 293.765 321.686 292.79 322.186 292.585C324.75 295.214 320.903 302.523 319.044 305.139C316.632 308.533 313.626 311.461 310.17 313.782C302.573 318.82 293.986 322.174 284.985 323.618V323.657ZM242.937 291.393C247.315 297.614 252.646 303.105 258.735 307.666C271.264 315.924 277.701 314.949 281.24 316.642C275.624 318.45 262.941 314.206 257.953 311.577C253.544 309.078 249.558 305.897 246.143 302.152C245.042 300.89 243.851 299.712 242.578 298.625L242.501 302.164C244.001 303.267 246.54 305.845 248.143 307.294C276.983 332.607 298.796 312.423 304.015 312.91C299.77 316.386 289.114 320.669 283.408 322.554C282.125 322.99 276.457 324.208 276.008 324.875C289.255 325.606 308.362 318.822 317.21 308.358C323.545 300.882 321.583 300.395 323.827 295.535C324.84 296.125 325.11 296.958 325.789 297.804C325.917 293.662 326.546 289.674 323.712 288.379C321.801 287.494 321.147 288.174 319.737 286.52C318.749 285.366 317.993 285.43 316.774 283.699C317.121 286.263 318.621 286.058 319.929 287.61C320.083 292.354 319.531 292.739 315.607 294.227C312.797 295.212 309.898 295.925 306.951 296.355C300.326 297.437 293.621 297.96 286.908 297.92C277.329 297.92 257.273 297.535 249.13 292.79C248.745 291.067 248.479 289.319 248.335 287.558C249.618 286.097 251.234 286.02 251.516 283.711C250.477 285.225 250.823 284.789 249.323 285.776C247.822 286.763 249.156 286.943 246.899 287.61C245.617 287.994 240.975 289.585 242.937 291.547V291.393Z" fill="#0A0C33"/>
<path fill-rule="evenodd" clip-rule="evenodd" d="M242.527 302.113L243.232 307.691L246.605 313.09C247.887 313.09 248.002 313.718 248.951 314.706L254.94 320.412C264.609 327.76 274.175 334.261 287.473 334.518L287.293 335.569C286.614 337.403 282.626 338.07 280.882 338.66C278.438 339.573 275.894 340.188 273.303 340.494C273.303 340.571 273.457 340.571 273.495 340.686C273.636 341.148 275.098 341.404 275.611 341.507C278.431 342.129 281.317 342.4 284.203 342.315C285.178 341.302 319.403 319.809 321.135 319.232C322.276 317.835 324.148 311.872 324.61 309.897C325.526 305.896 325.905 301.79 325.738 297.689C325.007 296.843 324.789 296.009 323.776 295.419C321.532 300.331 323.494 300.818 317.159 308.243C308.311 318.707 289.204 325.49 275.957 324.759C276.406 324.092 282.061 322.874 283.357 322.438C289.063 320.553 299.719 316.27 303.964 312.795C298.745 312.295 276.932 332.492 248.092 307.178C246.489 305.781 243.95 303.203 242.45 302.049L242.527 302.113Z" fill="#0401BB"/>
<path fill-rule="evenodd" clip-rule="evenodd" d="M266.686 267.913C268.084 265.912 268.763 267.541 270.661 266.977C272.033 266.566 272.508 265.117 273.623 264.194C277.727 264.092 276.188 266.156 280.125 262.668C282.613 262.54 282.113 263.797 284.139 263.797C286.165 263.797 285.806 262.514 288.152 262.668C292.153 266.195 290.538 264.066 294.654 264.194C295.68 265.092 296.18 266.425 297.398 266.9C299.424 267.682 300.13 265.81 301.591 267.926C302.874 266.643 305.438 266.105 307.285 265.438C309.224 264.613 311.216 263.919 313.248 263.361L307.67 272.106C307.49 275.466 310.529 274.761 312.196 275.953C312.966 274.671 310.914 276.094 313.12 272.773C313.915 271.593 314.646 270.414 315.415 269.208C316.916 266.849 318.544 264.489 319.993 262.104C321.673 259.347 321.788 260.014 327.469 257.885C328.905 257.346 330.354 256.833 331.739 256.295L335.92 254.435L334.24 249.96L325.879 253.115L330.021 246.151L326.033 243.741C324.751 244.818 321.955 249.665 320.904 251.358C318.262 255.551 319.019 255.641 314.364 257.436C308.657 259.629 301.463 262.642 295.77 264.335C293.205 261.565 293.077 264.669 290.127 263.361C289.204 262.95 288.768 261.988 287.96 261.745C286.549 261.322 286.434 262.245 285.1 262.668C282.164 263.604 281.779 260.501 279.638 262.078C275.457 265.143 277.458 262.912 273.688 263.245C272.072 264.245 272.572 265.81 270.251 266.028C269.584 266.105 265.275 265.682 266.647 267.862L266.686 267.913Z" fill="#000233"/>
<path fill-rule="evenodd" clip-rule="evenodd" d="M284.254 342.289C292.064 342.622 300.848 339.519 307.067 335.313C311.966 331.992 319.108 324.964 321.173 319.168C319.442 319.784 285.267 341.276 284.241 342.25L284.254 342.289Z" fill="#000233"/>
<path fill-rule="evenodd" clip-rule="evenodd" d="M284.985 323.657C293.986 322.212 302.573 318.859 310.17 313.821C313.626 311.499 316.632 308.571 319.044 305.178C320.839 302.613 324.75 295.253 322.186 292.624C321.686 292.829 320.673 293.804 319.878 294.252C318.898 294.745 317.887 295.174 316.851 295.535C312.812 297.253 319.788 306.024 296.334 318.181C294.025 319.386 286.357 322.541 284.985 323.695V323.657Z" fill="#E9E301"/>
<path fill-rule="evenodd" clip-rule="evenodd" d="M242.526 298.574C243.8 299.66 244.991 300.839 246.091 302.1C249.511 305.842 253.502 309.018 257.915 311.513C262.903 314.142 275.585 318.386 281.202 316.578C277.663 314.937 271.225 315.911 258.697 307.602C252.608 303.041 247.276 297.55 242.898 291.329C241.86 292.495 242.488 296.971 242.539 298.51L242.526 298.574Z" fill="#E9E301"/>
<path fill-rule="evenodd" clip-rule="evenodd" d="M284.716 335.877L287.28 335.608L287.46 334.556C274.098 334.326 264.596 327.824 254.927 320.451L248.938 314.706C247.989 313.718 247.861 313.09 246.592 313.09C249.438 317.642 246.784 315.065 252.375 322.349C254.795 325.086 257.578 327.481 260.646 329.466C268.481 334.749 275.06 336.095 284.729 335.813L284.716 335.877Z" fill="#0603FC"/>
<path fill-rule="evenodd" clip-rule="evenodd" d="M258.056 332.62C262.3 333.697 264.993 335.672 270.148 336.531C273.508 337.096 281.831 337.314 284.716 335.813C275.047 336.095 268.469 334.749 260.633 329.466C257.565 327.481 254.783 325.086 252.362 322.349C246.771 315.065 249.426 317.642 246.579 313.09L243.206 307.666C244.014 315.014 248.118 322.22 252.734 327.799C253.96 329.622 255.571 331.154 257.453 332.287L258.056 332.594V332.62Z" fill="#000233"/>
<path fill-rule="evenodd" clip-rule="evenodd" d="M273.303 340.494C275.86 340.172 278.369 339.548 280.779 338.634C282.549 338.045 286.537 337.352 287.191 335.544L284.626 335.813C281.741 337.314 273.418 337.096 270.059 336.531C264.929 335.672 262.211 333.697 257.966 332.62C258.184 333.697 259.466 334.364 261.069 335.416C263.839 337.224 270.507 340.763 273.264 340.545L273.303 340.494Z" fill="#EAE305"/>
<path fill-rule="evenodd" clip-rule="evenodd" d="M343.229 247.152L344.434 250.999C345.717 251.781 348.846 249.96 350.333 249.409C352.577 248.575 355.463 248.344 354.668 245.344C353.642 241.779 349.756 244.331 344.652 246.177C343.37 246.664 343.524 246.344 343.229 247.203V247.152Z" fill="#03315C"/>
<path fill-rule="evenodd" clip-rule="evenodd" d="M331.009 235.713L334.997 238.188C336.074 237.726 337.92 234.238 338.69 233.059C339.831 231.328 341.819 229.212 339.472 227.506C336.728 225.608 335.779 228.25 334.574 230.161C333.368 232.071 332.15 234.097 331.009 235.687V235.713Z" fill="#03315C"/>
<path fill-rule="evenodd" clip-rule="evenodd" d="M327.443 242.022L331.213 244.266C332.445 243.185 333.298 241.738 333.65 240.137L330.123 237.868C329.136 238.291 327.302 240.83 327.443 242.022Z" fill="#000233"/>
<path fill-rule="evenodd" clip-rule="evenodd" d="M336.497 249.396L337.92 253.833L342.498 252.127L341.152 247.934C339.87 247.549 337.459 248.614 336.497 249.396Z" fill="#000233"/>
<path fill-rule="evenodd" clip-rule="evenodd" d="M330.124 237.867L333.65 240.137C334.676 239.714 334.753 239.342 334.932 238.188L331.008 235.713C330.38 236.713 330.072 236.765 330.136 237.867H330.124Z" fill="#FDF866"/>
<path fill-rule="evenodd" clip-rule="evenodd" d="M334.24 249.96L335.92 254.384C336.277 254.43 336.64 254.4 336.984 254.296C337.329 254.192 337.648 254.017 337.92 253.781L336.497 249.345L334.24 249.96Z" fill="#BFBB4D"/>
<path fill-rule="evenodd" clip-rule="evenodd" d="M341.152 247.934L342.498 252.127C343.588 251.922 344.229 251.884 344.435 250.947L343.229 247.1C342.357 246.78 341.383 246.998 341.152 247.883V247.934Z" fill="#FDF866"/>
<path fill-rule="evenodd" clip-rule="evenodd" d="M326.084 243.741L330.072 246.151L331.214 244.266L327.444 242.022C326.584 242.176 326.341 242.779 326.084 243.741Z" fill="#FDF866"/>
<path d="M268.307 280.592L270.062 278.836" stroke="#0A0C33" stroke-width="0.709211" stroke-linecap="round"/>
<path d="M271.135 290.334L272.89 288.579" stroke="#0A0C33" stroke-width="0.709211" stroke-linecap="round"/>
<path d="M282.482 284.306L284.237 282.551" stroke="#0A0C33" stroke-width="0.709211" stroke-linecap="round"/>
<path d="M287.447 270.476L289.202 268.721" stroke="#0A0C33" stroke-width="0.709211" stroke-linecap="round"/>
<path d="M304.113 288.561L305.868 286.806" stroke="#0A0C33" stroke-width="0.709211" stroke-linecap="round"/>
<path d="M277.872 274.732C278.829 274.391 279.205 273.995 279.627 272.977" stroke="#0A0C33" stroke-width="0.709211" stroke-linecap="round"/>
<path d="M255.887 285.015C256.843 284.674 257.22 284.278 257.642 283.26" stroke="#0A0C33" stroke-width="0.709211" stroke-linecap="round"/>
<path d="M293.475 278.632C294.431 278.291 294.808 277.896 295.23 276.877" stroke="#0A0C33" stroke-width="0.709211" stroke-linecap="round"/>
<path d="M294.184 293.171C295.141 292.83 295.517 292.434 295.94 291.416" stroke="#0A0C33" stroke-width="0.709211" stroke-linecap="round"/>
<defs>
<linearGradient id="paint0_linear_84_810" x1="408.613" y1="136.729" x2="155.989" y2="389.354" gradientUnits="userSpaceOnUse">
<stop stop-color="#0A1A29"/>
<stop offset="1" stop-color="#07132C"/>
</linearGradient>
<linearGradient id="paint1_linear_84_810" x1="432.279" y1="286.474" x2="432.279" y2="292.146" gradientUnits="userSpaceOnUse">
<stop stop-color="#03315C"/>
<stop offset="1" stop-color="#010F2D"/>
</linearGradient>
<linearGradient id="paint2_linear_84_810" x1="429.884" y1="295.923" x2="429.884" y2="316.215" gradientUnits="userSpaceOnUse">
<stop stop-color="#03315C"/>
<stop offset="1" stop-color="#010F2D"/>
</linearGradient>
<linearGradient id="paint3_linear_84_810" x1="285.104" y1="131.278" x2="285.104" y2="428.186" gradientUnits="userSpaceOnUse">
<stop stop-color="#03315C"/>
<stop offset="1" stop-color="#010F2D"/>
</linearGradient>
<linearGradient id="paint4_linear_84_810" x1="432.535" y1="275.382" x2="432.535" y2="280.887" gradientUnits="userSpaceOnUse">
<stop stop-color="#03315C"/>
<stop offset="1" stop-color="#010F2D"/>
</linearGradient>
<linearGradient id="paint5_linear_84_810" x1="245.977" y1="196.926" x2="326.854" y2="392.18" gradientUnits="userSpaceOnUse">
<stop stop-color="#0D5FDB"/>
<stop offset="1" stop-color="#14386D"/>
</linearGradient>
<linearGradient id="paint6_linear_84_810" x1="460.673" y1="324.645" x2="460.673" y2="445.538" gradientUnits="userSpaceOnUse">
<stop stop-color="#0D5FDB"/>
<stop offset="1" stop-color="#14386D"/>
</linearGradient>
<linearGradient id="paint7_linear_84_810" x1="178.25" y1="301.026" x2="178.25" y2="390.498" gradientUnits="userSpaceOnUse">
<stop stop-color="#0D5FDB"/>
<stop offset="1" stop-color="#14386D"/>
</linearGradient>
<linearGradient id="paint8_linear_84_810" x1="191.347" y1="31.0665" x2="191.347" y2="48.8188" gradientUnits="userSpaceOnUse">
<stop stop-color="#03315C"/>
<stop offset="1" stop-color="#010F2D"/>
</linearGradient>
<linearGradient id="paint9_linear_84_810" x1="191.347" y1="55.0764" x2="191.347" y2="121.647" gradientUnits="userSpaceOnUse">
<stop stop-color="#03315C"/>
<stop offset="1" stop-color="#010F2D"/>
</linearGradient>
<linearGradient id="paint10_linear_84_810" x1="191.347" y1="127.683" x2="191.347" y2="130.923" gradientUnits="userSpaceOnUse">
<stop stop-color="#03315C"/>
<stop offset="1" stop-color="#010F2D"/>
</linearGradient>
<linearGradient id="paint11_linear_84_810" x1="191.347" y1="1.90833" x2="191.347" y2="29.7351" gradientUnits="userSpaceOnUse">
<stop stop-color="#03315C"/>
<stop offset="1" stop-color="#010F2D"/>
</linearGradient>
<linearGradient id="paint12_linear_84_810" x1="90.7366" y1="419.354" x2="90.7366" y2="437.55" gradientUnits="userSpaceOnUse">
<stop stop-color="#0D5FDB"/>
<stop offset="1" stop-color="#14386D"/>
</linearGradient>
<linearGradient id="paint13_linear_84_810" x1="90.7366" y1="346.747" x2="90.7366" y2="413.318" gradientUnits="userSpaceOnUse">
<stop stop-color="#0D5FDB"/>
<stop offset="1" stop-color="#14386D"/>
</linearGradient>
<linearGradient id="paint14_linear_84_810" x1="90.7366" y1="337.427" x2="90.7366" y2="340.667" gradientUnits="userSpaceOnUse">
<stop stop-color="#0D5FDB"/>
<stop offset="1" stop-color="#14386D"/>
</linearGradient>
<linearGradient id="paint15_linear_84_810" x1="90.8252" y1="438.659" x2="90.8252" y2="466.442" gradientUnits="userSpaceOnUse">
<stop stop-color="#0D5FDB"/>
<stop offset="1" stop-color="#14386D"/>
</linearGradient>
<linearGradient id="paint16_linear_84_810" x1="413.762" y1="82.5925" x2="413.762" y2="94.0871" gradientUnits="userSpaceOnUse">
<stop stop-color="#0D5FDB"/>
<stop offset="1" stop-color="#14386D"/>
</linearGradient>
<linearGradient id="paint17_linear_84_810" x1="413.762" y1="97.9039" x2="413.762" y2="140.066" gradientUnits="userSpaceOnUse">
<stop stop-color="#0D5FDB"/>
<stop offset="1" stop-color="#14386D"/>
</linearGradient>
<linearGradient id="paint18_linear_84_810" x1="413.673" y1="143.882" x2="413.673" y2="145.924" gradientUnits="userSpaceOnUse">
<stop stop-color="#0D5FDB"/>
<stop offset="1" stop-color="#14386D"/>
</linearGradient>
<linearGradient id="paint19_linear_84_810" x1="413.694" y1="64.2632" x2="413.694" y2="82.0155" gradientUnits="userSpaceOnUse">
<stop stop-color="#0D5FDB"/>
<stop offset="1" stop-color="#14386D"/>
</linearGradient>
<linearGradient id="paint20_linear_84_810" x1="50.683" y1="111.041" x2="50.683" y2="170.777" gradientUnits="userSpaceOnUse">
<stop stop-color="#0D5FDB"/>
<stop offset="1" stop-color="#14386D"/>
</linearGradient>
<linearGradient id="paint21_linear_84_810" x1="34.3956" y1="121.204" x2="34.3956" y2="170.821" gradientUnits="userSpaceOnUse">
<stop stop-color="#0D5FDB"/>
<stop offset="1" stop-color="#14386D"/>
</linearGradient>
<linearGradient id="paint22_linear_84_810" x1="16.2423" y1="133.764" x2="16.2423" y2="170.822" gradientUnits="userSpaceOnUse">
<stop stop-color="#0D5FDB"/>
<stop offset="1" stop-color="#14386D"/>
</linearGradient>
<linearGradient id="paint23_linear_84_810" x1="25.9849" y1="94.7972" x2="25.9849" y2="126.086" gradientUnits="userSpaceOnUse">
<stop stop-color="#0D5FDB"/>
<stop offset="1" stop-color="#14386D"/>
</linearGradient>
<linearGradient id="paint24_linear_84_810" x1="304.94" y1="470.835" x2="304.94" y2="495.023" gradientUnits="userSpaceOnUse">
<stop stop-color="#0D5FDB"/>
<stop offset="1" stop-color="#14386D"/>
</linearGradient>
<linearGradient id="paint25_linear_84_810" x1="315.569" y1="468.394" x2="315.569" y2="495.023" gradientUnits="userSpaceOnUse">
<stop stop-color="#0D5FDB"/>
<stop offset="1" stop-color="#14386D"/>
</linearGradient>
<linearGradient id="paint26_linear_84_810" x1="326.11" y1="465.332" x2="326.11" y2="495.023" gradientUnits="userSpaceOnUse">
<stop stop-color="#0D5FDB"/>
<stop offset="1" stop-color="#14386D"/>
</linearGradient>
<linearGradient id="paint27_linear_84_810" x1="336.784" y1="461.56" x2="336.784" y2="495.023" gradientUnits="userSpaceOnUse">
<stop stop-color="#0D5FDB"/>
<stop offset="1" stop-color="#14386D"/>
</linearGradient>
<linearGradient id="paint28_linear_84_810" x1="347.28" y1="457.122" x2="347.28" y2="495.023" gradientUnits="userSpaceOnUse">
<stop stop-color="#0D5FDB"/>
<stop offset="1" stop-color="#14386D"/>
</linearGradient>
<linearGradient id="paint29_linear_84_810" x1="357.885" y1="451.663" x2="357.885" y2="495.023" gradientUnits="userSpaceOnUse">
<stop stop-color="#0D5FDB"/>
<stop offset="1" stop-color="#14386D"/>
</linearGradient>
<linearGradient id="paint30_linear_84_810" x1="368.45" y1="445.183" x2="368.45" y2="495.023" gradientUnits="userSpaceOnUse">
<stop stop-color="#0D5FDB"/>
<stop offset="1" stop-color="#14386D"/>
</linearGradient>
<linearGradient id="paint31_linear_84_810" x1="379.055" y1="437.328" x2="379.055" y2="495.023" gradientUnits="userSpaceOnUse">
<stop stop-color="#0D5FDB"/>
<stop offset="1" stop-color="#14386D"/>
</linearGradient>
<linearGradient id="paint32_linear_84_810" x1="341.644" y1="418.022" x2="341.644" y2="471.146" gradientUnits="userSpaceOnUse">
<stop stop-color="#0D5FDB"/>
<stop offset="1" stop-color="#14386D"/>
</linearGradient>
<linearGradient id="paint33_linear_84_810" x1="487.416" y1="54" x2="487.416" y2="148.831" gradientUnits="userSpaceOnUse">
<stop stop-color="#0D5FDB"/>
<stop offset="1" stop-color="#14386D"/>
</linearGradient>
<linearGradient id="paint34_linear_84_810" x1="183.105" y1="326" x2="183.105" y2="356.384" gradientUnits="userSpaceOnUse">
<stop stop-color="#0D5FDB"/>
<stop offset="1" stop-color="#14386D"/>
</linearGradient>
<linearGradient id="paint35_linear_84_810" x1="169.751" y1="326" x2="169.751" y2="356.384" gradientUnits="userSpaceOnUse">
<stop stop-color="#03315C"/>
<stop offset="1" stop-color="#010F2D"/>
</linearGradient>
<linearGradient id="paint36_linear_84_810" x1="183.174" y1="350.964" x2="183.174" y2="369.99" gradientUnits="userSpaceOnUse">
<stop stop-color="#03315C"/>
<stop offset="1" stop-color="#010F2D"/>
</linearGradient>
<linearGradient id="paint37_linear_84_810" x1="183.253" y1="342.266" x2="183.253" y2="356.384" gradientUnits="userSpaceOnUse">
<stop stop-color="#03315C"/>
<stop offset="1" stop-color="#010F2D"/>
</linearGradient>
<linearGradient id="paint38_linear_84_810" x1="169.751" y1="342.266" x2="169.751" y2="356.384" gradientUnits="userSpaceOnUse">
<stop stop-color="#0A1A29"/>
<stop offset="1" stop-color="#000103"/>
</linearGradient>
<linearGradient id="paint39_linear_84_810" x1="461.494" y1="376.508" x2="461.494" y2="386.371" gradientUnits="userSpaceOnUse">
<stop stop-color="#0D5FDB"/>
<stop offset="1" stop-color="#14386D"/>
</linearGradient>
<linearGradient id="paint40_linear_84_810" x1="461.505" y1="390.253" x2="461.505" y2="400.183" gradientUnits="userSpaceOnUse">
<stop stop-color="#0D5FDB"/>
<stop offset="1" stop-color="#14386D"/>
</linearGradient>
<linearGradient id="paint41_linear_84_810" x1="461.5" y1="362" x2="461.5" y2="372.627" gradientUnits="userSpaceOnUse">
<stop stop-color="#0D5FDB"/>
<stop offset="1" stop-color="#14386D"/>
</linearGradient>
<linearGradient id="paint42_linear_84_810" x1="461.506" y1="403.467" x2="461.506" y2="415.221" gradientUnits="userSpaceOnUse">
<stop stop-color="#0D5FDB"/>
<stop offset="1" stop-color="#14386D"/>
</linearGradient>
<clipPath id="clip0_84_810">
<rect width="573" height="515.66" fill="white"/>
</clipPath>
<clipPath id="clip1_84_810">
<rect width="27.012" height="44" fill="white" transform="translate(163 326)"/>
</clipPath>
<clipPath id="clip2_84_810">
<rect width="53" height="53.2101" fill="white" transform="translate(435 362)"/>
</clipPath>
</defs>
</svg>
