<svg width="59" height="60" viewBox="0 0 59 60" fill="none" xmlns="http://www.w3.org/2000/svg">
<path d="M11.8546 22.6149L11.8548 22.6148C12.139 22.4407 12.2856 22.2291 12.3914 21.9938C12.4405 21.8848 12.4811 21.7698 12.5222 21.6537C12.5246 21.6468 12.5271 21.6399 12.5295 21.6329C12.5675 21.5256 12.6067 21.4162 12.655 21.3034H12.6559L12.6833 21.2646C12.8609 21.0127 13.008 20.8856 13.138 20.8241C13.2654 20.7638 13.3869 20.7615 13.5273 20.7824C13.5848 20.791 13.6458 20.8039 13.7111 20.8178C13.9634 20.8712 14.2781 20.9379 14.6881 20.8161L14.6883 20.816C15.0701 20.7018 15.3232 20.4433 15.5479 20.1666C15.6035 20.0982 15.6571 20.0291 15.7104 19.9604C15.8701 19.7545 16.027 19.5522 16.2265 19.3816C16.7302 19.3716 17.0604 19.4264 17.302 19.4874C17.4021 19.5127 17.4869 19.539 17.5653 19.5633C17.5844 19.5693 17.6032 19.5751 17.6218 19.5808C17.7143 19.609 17.8021 19.6338 17.8914 19.6435C18.0787 19.6639 18.2568 19.6167 18.5122 19.4558C18.7603 19.2996 19.0913 19.0298 19.5877 18.5921C19.8845 18.5763 20.0922 18.6027 20.2507 18.6489C20.4139 18.6965 20.53 18.7665 20.6432 18.8426C20.6611 18.8547 20.6791 18.867 20.6974 18.8795C20.7933 18.9452 20.896 19.0156 21.0228 19.0701C21.1767 19.1362 21.3637 19.1787 21.6248 19.177C21.8855 19.1753 22.0761 19.1319 22.2345 19.067C22.3685 19.012 22.478 18.9417 22.5806 18.8758C22.5974 18.8651 22.614 18.8544 22.6305 18.844C22.749 18.7689 22.868 18.7 23.0288 18.6525C23.1841 18.6068 23.3828 18.5798 23.6611 18.5924C24.1639 19.0348 24.4978 19.3063 24.7467 19.4624C25.0029 19.6232 25.18 19.6687 25.3658 19.6458C25.4541 19.6349 25.5408 19.609 25.632 19.5798C25.647 19.575 25.6623 19.5701 25.6778 19.5651C25.7578 19.5392 25.8446 19.5112 25.9479 19.4845C26.1872 19.4228 26.5159 19.3684 27.0203 19.3814C27.2053 19.5483 27.355 19.7419 27.5072 19.9386C27.5563 20.002 27.6056 20.0657 27.6564 20.129C27.8678 20.3922 28.1024 20.6421 28.4406 20.7739L28.4409 20.774C28.9022 20.9521 29.2471 20.8774 29.5241 20.8174C29.5792 20.8054 29.6317 20.7941 29.6819 20.7854C29.8325 20.7594 29.9604 20.7564 30.0931 20.8151C30.227 20.8744 30.3782 21.0021 30.5604 21.2643C30.6123 21.3754 30.6581 21.4837 30.7032 21.5903C30.7222 21.6354 30.7412 21.6802 30.7604 21.7248C30.8252 21.8752 30.8926 22.0212 30.9753 22.1551C31.1435 22.4272 31.374 22.6466 31.7722 22.77L31.7728 22.7701C32.1183 22.8746 32.3419 22.9018 32.5039 22.8986C32.585 22.8969 32.6489 22.8877 32.7024 22.878C32.721 22.8746 32.7371 22.8714 32.7517 22.8686C32.7816 22.8627 32.8049 22.8581 32.8298 22.8555C32.8881 22.8494 32.9491 22.8549 33.0773 22.933C33.2056 23.0112 33.3914 23.1563 33.6931 23.4181C33.677 23.8359 33.7597 24.1404 33.9163 24.3683C34.0781 24.6036 34.3108 24.7453 34.5634 24.8489C34.7369 24.9201 34.9278 24.976 35.1152 25.0309C35.1967 25.0548 35.2774 25.0784 35.3559 25.1031C35.6094 25.1827 35.8466 25.2746 36.0438 25.4189C36.1047 25.6743 36.1314 25.8981 36.1524 26.102C36.1551 26.1282 36.1578 26.1543 36.1604 26.1801C36.1786 26.3607 36.1957 26.5305 36.2339 26.6885C36.2783 26.8725 36.3518 27.044 36.4895 27.2104C36.6261 27.3757 36.8226 27.5317 37.1069 27.6909C37.3395 27.8226 37.5366 27.9099 37.6991 27.9819C37.7133 27.9881 37.7272 27.9943 37.7408 28.0004C37.9138 28.0772 38.0357 28.135 38.1275 28.2132C38.2995 28.3598 38.3851 28.5968 38.3851 29.287H38.3843L38.3859 29.2989C38.4318 29.6473 38.5175 29.9053 38.6342 30.1085C38.7512 30.3121 38.8965 30.4557 39.0539 30.5782C39.1462 30.65 39.2484 30.7184 39.3505 30.7868C39.416 30.8306 39.4815 30.8745 39.5442 30.9192C39.7033 31.0324 39.863 31.1623 40.0158 31.342C40.0345 31.9387 40.0306 32.396 39.9852 32.7589C39.9391 33.1271 39.8508 33.3918 39.7047 33.6028C39.5587 33.8138 39.3493 33.9793 39.0463 34.1394C38.742 34.3001 38.35 34.4522 37.8427 34.6395C36.3894 35.1619 34.8889 35.542 33.3621 35.7744L33.3612 35.7746C29.9436 36.3325 26.4853 36.6024 23.0226 36.5816H23.022C20.552 36.5816 16.7282 36.5269 12.9973 36.1688C9.28179 35.8122 5.67656 35.1559 3.58716 33.9641C3.39647 33.1037 3.26393 32.2315 3.19042 31.3533C3.34372 31.1902 3.50573 31.0622 3.66803 30.9446C3.72006 30.9069 3.77287 30.8698 3.82563 30.8327C3.94434 30.7492 4.0628 30.6659 4.17158 30.5767C4.33137 30.4456 4.4779 30.2961 4.59364 30.0981C4.70946 29.9001 4.7919 29.6579 4.8296 29.3443L4.83049 29.3369L4.83017 29.3294C4.80037 28.6373 4.88742 28.4009 5.06446 28.2546C5.15988 28.1758 5.28737 28.1176 5.46534 28.0406C5.47577 28.036 5.48634 28.0315 5.49705 28.0268C5.66606 27.9538 5.87049 27.8654 6.1087 27.7304L6.10883 27.7304C6.39088 27.5699 6.58297 27.4182 6.71471 27.2616C6.84776 27.1035 6.9159 26.9443 6.95589 26.775C6.98703 26.6432 7.00145 26.5024 7.01658 26.3546C7.02038 26.3175 7.02422 26.2799 7.02839 26.242C7.04859 26.058 7.07693 25.8548 7.14307 25.62C7.52519 25.3498 7.85327 25.2594 8.16502 25.1782C8.17556 25.1755 8.18609 25.1728 8.19662 25.17C8.50504 25.0899 8.8074 25.0114 9.1097 24.7601C9.4256 24.4974 9.5249 24.2227 9.60949 23.9292C9.61833 23.8986 9.627 23.8677 9.63574 23.8367C9.70785 23.5804 9.78438 23.3084 9.99095 22.9916C10.2603 22.9067 10.5004 22.8973 10.7464 22.8876C10.7928 22.8858 10.8395 22.8839 10.8865 22.8816C11.1914 22.8664 11.5042 22.8287 11.8546 22.6149Z" fill="#FFDB21" stroke="#000233" stroke-width="0.183183"/>
<path fill-rule="evenodd" clip-rule="evenodd" d="M22.0481 50.0081C22.7569 49.4119 26.6852 47.7823 27.9107 47.1596C40.0267 40.8797 36.4231 36.3486 38.5097 35.4609C39.0447 35.2743 39.5669 35.0531 40.0731 34.7985C40.4838 34.5666 41.0071 34.0631 41.2655 33.9572C42.5903 35.3152 40.603 39.0911 39.6425 40.4424C38.3966 42.1953 36.8435 43.708 35.0584 44.9073C31.1338 47.5097 26.6977 49.2421 22.0481 49.9882V50.0081ZM0.326732 33.3411C2.58838 36.5548 5.34262 39.3917 8.48799 41.7474C14.96 46.0136 18.2855 45.5101 20.1138 46.3845C17.2123 47.3186 10.6608 45.1259 8.08391 43.7679C5.80616 42.4768 3.747 40.8336 1.98283 38.899C1.41444 38.2474 0.798905 37.6385 0.14123 37.0773L0.101485 38.9056C0.876539 39.4753 2.18818 40.8068 3.01623 41.5553C17.9145 54.6319 29.1826 44.2051 31.8787 44.4568C29.686 46.252 24.1812 48.4646 21.2333 49.4384C20.5709 49.6636 17.6429 50.2929 17.411 50.6374C24.254 51.015 34.1244 47.5107 38.6952 42.1052C41.9676 38.2431 40.9541 37.9914 42.1134 35.4808C42.6367 35.7855 42.7758 36.2161 43.1269 36.6533C43.1932 34.5136 43.5178 32.4534 42.0538 31.7844C41.0667 31.3273 40.7289 31.6784 40.0002 30.8238C39.4901 30.2276 39.0993 30.2607 38.47 29.3665C38.6488 30.6913 39.4239 30.5853 40.0996 31.3869C40.1791 33.8379 39.8942 34.0366 37.8671 34.8051C36.4154 35.3143 34.918 35.6826 33.3957 35.9047C29.9731 36.4634 26.5096 36.7337 23.0418 36.7129C18.0933 36.7129 7.73281 36.5142 3.52632 34.0631C3.32709 33.1728 3.18986 32.2697 3.11562 31.3604C3.77805 30.6052 4.61272 30.5655 4.75845 29.3731C4.22188 30.1548 4.40072 29.9295 3.62567 30.4396C2.85061 30.9497 3.53954 31.0424 2.37365 31.3869C1.71121 31.5856 -0.686799 32.407 0.326732 33.4206V33.3411Z" fill="#0A0C33"/>
<path fill-rule="evenodd" clip-rule="evenodd" d="M0.114818 38.8791L0.479151 41.7607L2.22137 44.5496C2.88381 44.5496 2.94344 44.8741 3.43364 45.3842L6.52722 48.3321C11.522 52.1278 16.4638 55.4864 23.3333 55.6189L23.2406 56.1621C22.8895 57.1094 20.8293 57.4539 19.9284 57.7586C18.666 58.23 17.3516 58.5481 16.0134 58.7059C16.0134 58.7456 16.0929 58.7456 16.1127 58.8052C16.1856 59.0437 16.9408 59.1762 17.2057 59.2292C18.6624 59.5505 20.1531 59.6906 21.6441 59.6465C22.1475 59.1232 39.828 48.0207 40.7223 47.7226C41.3119 47.0006 42.2791 43.9202 42.5176 42.9001C42.9908 40.8331 43.1868 38.7123 43.1005 36.5937C42.7229 36.1564 42.6103 35.7259 42.087 35.4211C40.9277 37.9583 41.9412 38.21 38.6688 42.0455C34.098 47.451 24.2276 50.9553 17.3846 50.5777C17.6165 50.2333 20.5378 49.6039 21.2069 49.3787C24.1548 48.4049 29.6596 46.1924 31.8523 44.3972C29.1561 44.1388 17.8881 54.5722 2.98982 41.4957C2.16177 40.7736 0.850127 39.4421 0.0750732 38.8459L0.114818 38.8791Z" fill="#0401BB"/>
<path fill-rule="evenodd" clip-rule="evenodd" d="M12.5953 21.2118C13.3173 20.1784 13.6684 21.0197 14.6488 20.7282C15.3576 20.5163 15.6027 19.7677 16.179 19.2908C18.2988 19.2378 17.5039 20.3043 19.5376 18.5025C20.8227 18.4362 20.5644 19.0854 21.611 19.0854C22.6577 19.0854 22.4722 18.423 23.6845 18.5025C25.7513 20.3242 24.9166 19.2245 27.0431 19.2908C27.573 19.7545 27.8313 20.4434 28.4606 20.6885C29.5073 21.0926 29.8716 20.1254 30.6268 21.2185C31.2893 20.556 32.6141 20.2778 33.5681 19.9333C34.5698 19.5073 35.5988 19.1488 36.6484 18.8602L33.7668 23.378C33.674 25.1136 35.244 24.7493 36.1052 25.3653C36.5027 24.7029 35.4428 25.4382 36.5821 23.7225C36.9929 23.113 37.3705 22.5036 37.7679 21.8809C38.543 20.662 39.3843 19.4431 40.1328 18.211C41.0006 16.7867 41.0602 17.1312 43.9948 16.0316C44.7368 15.7533 45.4853 15.4884 46.2008 15.2101L48.3603 14.2496L47.4925 11.9377L43.1734 13.5673L45.3131 9.97024L43.2529 8.72485C42.5905 9.2813 41.1464 11.7853 40.6032 12.6597C39.2385 14.8259 39.6294 14.8723 37.2247 15.7997C34.2769 16.9325 30.5606 18.4892 27.6194 19.3636C26.2945 17.9328 26.2282 19.5359 24.7046 18.8602C24.2277 18.6482 24.0024 18.1514 23.5851 18.0255C22.8564 17.8069 22.7968 18.2839 22.1079 18.5025C20.5909 18.986 20.3921 17.3829 19.2859 18.1977C17.1263 19.781 18.1597 18.6283 16.2121 18.8005C15.3775 19.3173 15.6358 20.1254 14.4368 20.238C14.0923 20.2778 11.8666 20.0592 12.5754 21.1853L12.5953 21.2118Z" fill="#000233"/>
<path fill-rule="evenodd" clip-rule="evenodd" d="M21.6705 59.6333C25.7048 59.8055 30.2425 58.2024 33.4553 56.0296C35.9859 54.3139 39.6757 50.6837 40.7422 47.6895C39.8479 48.0075 22.1939 59.11 21.6639 59.6134L21.6705 59.6333Z" fill="#000233"/>
<path fill-rule="evenodd" clip-rule="evenodd" d="M22.0481 50.0081C26.6977 49.262 31.1338 47.5296 35.0584 44.9272C36.8435 43.7279 38.3966 42.2152 39.6425 40.4623C40.5699 39.1375 42.5903 35.3351 41.2655 33.9771C41.0071 34.083 40.4838 34.5865 40.0731 34.8184C39.5669 35.073 39.0447 35.2942 38.5097 35.4808C36.423 36.3685 40.0267 40.8996 27.9107 47.1795C26.7183 47.8022 22.7569 49.4318 22.0481 50.028V50.0081Z" fill="#E9E301"/>
<path fill-rule="evenodd" clip-rule="evenodd" d="M0.114783 37.0508C0.772457 37.612 1.388 38.2209 1.95638 38.8725C3.72306 40.8053 5.78443 42.4463 8.06405 43.7348C10.6409 45.0928 17.1924 47.2854 20.0939 46.3514C18.2656 45.5035 14.9402 46.0069 8.46813 41.7143C5.32277 39.3586 2.56852 36.5217 0.306876 33.308C-0.2297 33.9108 0.0949164 36.2227 0.121414 37.0176L0.114783 37.0508Z" fill="#E9E301"/>
<path fill-rule="evenodd" clip-rule="evenodd" d="M21.9091 56.3211L23.2339 56.182L23.3267 55.6388C16.424 55.5195 11.5154 52.161 6.52058 48.352L3.427 45.3842C2.93679 44.8741 2.87054 44.5496 2.21472 44.5496C3.68534 46.9012 2.31409 45.5697 5.20233 49.3324C6.45263 50.7466 7.89016 51.9835 9.47507 53.0089C13.5226 55.7381 16.9209 56.4337 21.9157 56.288L21.9091 56.3211Z" fill="#0603FC"/>
<path fill-rule="evenodd" clip-rule="evenodd" d="M8.13696 54.6385C10.3296 55.1949 11.7207 56.2151 14.3838 56.6589C16.1193 56.9504 20.4186 57.063 21.9091 56.288C16.9143 56.4337 13.516 55.7382 9.46847 53.0089C7.88355 51.9835 6.44603 50.7466 5.19573 49.3324C2.30749 45.5697 3.67873 46.9012 2.20812 44.5496L0.465942 41.7474C0.883279 45.5432 3.00308 49.2661 5.38786 52.1477C6.02089 53.0898 6.85308 53.8812 7.82563 54.4663L8.13696 54.6253V54.6385Z" fill="#000233"/>
<path fill-rule="evenodd" clip-rule="evenodd" d="M16.0134 58.7059C17.3342 58.5397 18.6306 58.2172 19.8754 57.7453C20.7896 57.4406 22.8497 57.0829 23.1876 56.1488L21.8627 56.288C20.3722 57.063 16.073 56.9504 14.3374 56.6589C11.6876 56.2151 10.2832 55.1949 8.09058 54.6385C8.20319 55.1949 8.86566 55.5394 9.69371 56.0826C11.1246 57.0167 14.5692 58.845 15.9935 58.7324L16.0134 58.7059Z" fill="#EAE305"/>
<path fill-rule="evenodd" clip-rule="evenodd" d="M52.1361 10.487L52.7588 12.4743C53.4212 12.8784 55.0376 11.9377 55.806 11.6529C56.9653 11.2223 58.4558 11.103 58.0451 9.55293C57.5151 7.71135 55.5079 9.0296 52.8714 9.98351C52.209 10.2352 52.2885 10.0696 52.1361 10.5135V10.487Z" fill="#000233"/>
<path fill-rule="evenodd" clip-rule="evenodd" d="M45.8231 4.578L47.8833 5.8565C48.4397 5.61802 49.3937 3.81619 49.7911 3.20674C50.3807 2.31245 51.4075 1.21941 50.1952 0.33837C48.7776 -0.64204 48.2874 0.722589 47.6647 1.70962C47.042 2.69666 46.4127 3.74331 45.8231 4.56473V4.578Z" fill="#000233"/>
<path fill-rule="evenodd" clip-rule="evenodd" d="M43.9814 7.83715L45.929 8.99642C46.565 8.4376 47.006 7.69029 47.1876 6.86337L45.3659 5.69086C44.8558 5.90946 43.9085 7.22108 43.9814 7.83715Z" fill="#000233"/>
<path fill-rule="evenodd" clip-rule="evenodd" d="M48.6584 11.6463L49.3937 13.9383L51.7587 13.0573L51.0631 10.8911C50.4006 10.6923 49.1553 11.2422 48.6584 11.6463Z" fill="#000233"/>
<path fill-rule="evenodd" clip-rule="evenodd" d="M45.3661 5.6909L47.1878 6.86341C47.7177 6.6448 47.7575 6.4527 47.8502 5.85651L45.8232 4.578C45.4986 5.09471 45.3396 5.1212 45.3727 5.6909H45.3661Z" fill="#FDF866"/>
<path fill-rule="evenodd" clip-rule="evenodd" d="M47.4926 11.9377L48.3603 14.2232C48.5448 14.2467 48.7321 14.2311 48.9102 14.1775C49.0882 14.1238 49.253 14.0333 49.3938 13.9118L48.6585 11.6198L47.4926 11.9377Z" fill="#BFBB4D"/>
<path fill-rule="evenodd" clip-rule="evenodd" d="M51.063 10.8911L51.7586 13.0572C52.3217 12.9512 52.6528 12.9314 52.7588 12.4478L52.1362 10.4605C51.6857 10.2948 51.1822 10.4075 51.063 10.8646V10.8911Z" fill="#FDF866"/>
<path fill-rule="evenodd" clip-rule="evenodd" d="M43.2793 8.72482L45.3395 9.97021L45.9291 8.99643L43.9815 7.83716C43.5376 7.91665 43.4118 8.22799 43.2793 8.72482Z" fill="#FDF866"/>
<path d="M13.4325 27.7615L14.3392 26.8548" stroke="#0A0C33" stroke-width="0.366367" stroke-linecap="round"/>
<path d="M14.8933 32.7944L15.8 31.8877" stroke="#0A0C33" stroke-width="0.366367" stroke-linecap="round"/>
<path d="M20.7552 29.6803L21.662 28.7736" stroke="#0A0C33" stroke-width="0.366367" stroke-linecap="round"/>
<path d="M23.3197 22.5361L24.2264 21.6294" stroke="#0A0C33" stroke-width="0.366367" stroke-linecap="round"/>
<path d="M31.9294 31.8785L32.8362 30.9718" stroke="#0A0C33" stroke-width="0.366367" stroke-linecap="round"/>
<path d="M18.3738 24.7343C18.8679 24.5581 19.0623 24.3537 19.2805 23.8276" stroke="#0A0C33" stroke-width="0.366367" stroke-linecap="round"/>
<path d="M7.01648 30.0466C7.51062 29.8704 7.70502 29.666 7.92319 29.1399" stroke="#0A0C33" stroke-width="0.366367" stroke-linecap="round"/>
<path d="M26.434 26.7494C26.9281 26.5732 27.1225 26.3688 27.3407 25.8427" stroke="#0A0C33" stroke-width="0.366367" stroke-linecap="round"/>
<path d="M26.8003 34.2599C27.2944 34.0837 27.4888 33.8793 27.707 33.3532" stroke="#0A0C33" stroke-width="0.366367" stroke-linecap="round"/>
</svg>
