<svg width="586" height="447" viewBox="0 0 586 447" fill="none" xmlns="http://www.w3.org/2000/svg">
<path d="M206.338 446.23C341.719 446.23 423.768 313.284 411.46 189.2H1.21562C-11.0918 304.42 70.957 450.662 206.338 446.23Z" fill="#041227"/>
<path d="M554.191 83.4755C555.042 85.0997 555.561 86.8737 555.718 88.696C555.875 90.5183 555.667 92.3532 555.105 94.096C554.544 95.8389 553.64 97.4554 552.446 98.8532C551.252 100.251 549.791 101.403 548.146 102.243L547.899 102.369L499.432 125.963L479.577 135.637L470.365 140.104L457.36 146.441L251.967 246.454C250.11 247.344 247.975 247.482 246.016 246.838C244.058 246.195 242.431 244.821 241.484 243.01C240.536 241.199 240.343 239.094 240.945 237.144C241.547 235.194 242.897 233.554 244.706 232.573L447.403 124.344L459.401 117.94L467.19 113.783L487.848 102.753L534.942 77.6003C536.593 76.7208 538.404 76.175 540.271 75.9947C542.138 75.8144 544.022 76.0032 545.814 76.5502C547.606 77.0971 549.27 77.9912 550.708 79.1803C552.146 80.3694 553.33 81.8295 554.191 83.4755Z" fill="#FBBE25"/>
<path d="M249.671 247.688C247.937 247.928 246.17 247.634 244.612 246.845C243.054 246.056 241.781 244.811 240.967 243.28C239.951 241.338 239.747 239.079 240.4 236.99C241.052 234.9 242.508 233.147 244.455 232.107L534.689 77.1328C537.258 75.7645 540.182 75.1854 543.086 75.4697C545.991 75.7541 548.743 76.889 550.989 78.7288C553.236 80.5686 554.875 83.0294 555.697 85.7956C556.518 88.5618 556.484 91.5072 555.598 94.2541C555.02 96.062 554.084 97.7387 552.845 99.1872C551.607 100.636 550.09 101.827 548.382 102.693L548.134 102.819L252.199 246.921C251.403 247.308 250.55 247.567 249.671 247.688ZM539.781 76.5677C538.172 76.7905 536.616 77.2958 535.187 78.0597L244.956 233.033C243.254 233.944 241.98 235.476 241.408 237.302C240.837 239.129 241.012 241.104 241.897 242.804C242.797 244.492 244.327 245.768 246.164 246.362C248 246.956 249.998 246.821 251.735 245.985L457.13 145.985L547.904 101.791C549.488 100.982 550.895 99.8736 552.044 98.528C553.194 97.1824 554.064 95.6261 554.605 93.9482C555.146 92.2702 555.346 90.5035 555.195 88.749C555.044 86.9945 554.544 85.2866 553.725 83.7229C552.431 81.2529 550.394 79.2397 547.895 77.9602C545.395 76.6807 542.555 76.1979 539.766 76.5782L539.781 76.5677Z" fill="#041227"/>
<path d="M467.623 127.993C469.449 131.775 470.386 135.915 470.365 140.104L457.36 146.442C459.195 142.042 459.148 137.18 457.09 132.949C455.166 128.968 451.769 125.978 447.401 124.332L459.399 117.928C462.896 120.605 465.712 124.052 467.623 127.993Z" fill="#041227"/>
<path d="M496.333 113.473C498.23 117.38 499.285 121.633 499.43 125.963L479.575 135.637L477.961 134.581C480.706 130.493 481.123 125.759 479.094 121.599C477.024 117.308 472.716 114.489 467.175 113.78L487.834 102.751C491.426 105.669 494.327 109.329 496.333 113.473Z" fill="#041227"/>
<g opacity="0.55">
<path d="M554.192 83.4753C554.806 84.6415 555.246 85.8891 555.498 87.1795C553.365 84.9519 550.548 83.4811 547.483 82.9949C544.418 82.5087 541.277 83.0343 538.545 84.4902L491.45 109.633L470.793 120.662L463.002 124.82L451.004 131.223L248.31 239.456C247.105 240.102 246.089 241.045 245.363 242.194C244.636 243.342 244.223 244.657 244.163 246.01C243.011 245.271 242.073 244.249 241.442 243.044C240.81 241.839 240.507 240.492 240.562 239.136C240.617 237.78 241.028 236.462 241.755 235.311C242.481 234.159 243.499 233.214 244.707 232.568L447.404 124.34L459.402 117.936L467.191 113.778L487.849 102.749L534.944 77.6001C536.594 76.7206 538.406 76.1747 540.273 75.9944C542.139 75.8141 544.024 76.0029 545.816 76.5499C547.608 77.0969 549.271 77.991 550.71 79.18C552.148 80.3691 553.332 81.8293 554.192 83.4753Z" fill="white"/>
</g>
<path d="M250.132 250.902C247.409 251.288 244.635 250.715 242.296 249.285C239.958 247.854 238.203 245.656 237.339 243.077C236.476 240.497 236.559 237.699 237.573 235.174C238.587 232.648 240.469 230.556 242.888 229.262L533.124 74.2878C536.282 72.6017 539.88 71.8906 543.452 72.2466C547.024 72.6027 550.405 74.0094 553.159 76.2848C555.912 78.5602 557.911 81.5995 558.896 85.0093C559.881 88.419 559.807 92.0423 558.684 95.4102C557.945 97.6494 556.759 99.7193 555.195 101.497C553.631 103.274 551.721 104.723 549.579 105.758L253.648 249.834C252.541 250.373 251.354 250.734 250.132 250.902ZM540.23 79.7902C539.012 79.9595 537.834 80.343 536.753 80.9226L246.518 235.888C245.553 236.381 244.826 237.231 244.497 238.252C244.167 239.274 244.262 240.383 244.76 241.335C245.258 242.288 246.119 243.006 247.154 243.332C248.188 243.657 249.311 243.564 250.275 243.071L546.206 98.9975C548.407 97.9316 550.151 96.1254 551.125 93.9034C552.098 91.6814 552.237 89.1893 551.517 86.875C550.797 84.5607 549.265 82.5759 547.196 81.2773C545.127 79.9787 542.658 79.4514 540.23 79.7902Z" fill="#041227"/>
<path d="M517.225 31.0941C518.312 32.5746 519.093 34.2521 519.524 36.0308C519.955 37.8096 520.026 39.6547 519.735 41.4607C519.443 43.2668 518.794 44.9984 517.825 46.5567C516.855 48.1149 515.585 49.4693 514.085 50.5424L513.86 50.7039L469.503 81.1811L451.333 93.6742L442.9 99.4499L430.999 107.634L243.027 236.815C241.326 237.969 239.235 238.421 237.201 238.073C235.167 237.726 233.351 236.607 232.141 234.956C230.93 233.305 230.421 231.252 230.721 229.235C231.022 227.219 232.108 225.397 233.749 224.161L417.812 87.2527L428.708 79.1515L435.781 73.8919L454.54 59.9393L497.304 28.1235C498.803 27.0104 500.512 26.2035 502.33 25.7499C504.149 25.2963 506.041 25.2051 507.895 25.4817C509.75 25.7582 511.53 26.397 513.132 27.3606C514.734 28.3242 516.125 29.5934 517.225 31.0941Z" fill="#FBBE25"/>
<path d="M240.943 238.374C239.265 238.867 237.474 238.837 235.814 238.287C234.154 237.736 232.707 236.693 231.67 235.299C230.372 233.528 229.829 231.325 230.158 229.163C230.487 227.001 231.662 225.052 233.43 223.737L496.982 27.6981C499.316 25.9663 502.119 24.9625 505.034 24.8153C507.949 24.6682 510.842 25.3845 513.342 26.8723C515.841 28.3601 517.834 30.5517 519.064 33.1658C520.294 35.7799 520.706 38.6973 520.246 41.5439C519.947 43.4169 519.275 45.2127 518.27 46.8277C517.264 48.4426 515.944 49.8446 514.386 50.9525L514.16 51.114L243.327 237.243C242.598 237.743 241.793 238.124 240.943 238.374ZM501.932 26.3883C500.375 26.846 498.913 27.5751 497.615 28.5412L234.065 224.579C232.52 225.73 231.492 227.433 231.203 229.323C230.914 231.213 231.386 233.14 232.518 234.691C233.663 236.228 235.369 237.264 237.275 237.58C239.18 237.897 241.135 237.468 242.727 236.386L430.702 107.217L513.777 50.1307C515.221 49.0979 516.444 47.7941 517.378 46.294C518.311 44.7939 518.937 43.1267 519.217 41.3879C519.498 39.6491 519.43 37.8726 519.015 36.16C518.6 34.4474 517.848 32.8324 516.801 31.4071C515.149 29.1556 512.83 27.4653 510.165 26.5688C507.5 25.6723 504.619 25.6137 501.919 26.401L501.932 26.3883Z" fill="#041227"/>
<path d="M438.355 87.8777C440.732 91.3478 442.285 95.3032 442.898 99.4488L430.997 107.633C432.146 103.012 431.364 98.2119 428.69 94.3314C426.185 90.6784 422.374 88.2232 417.807 87.2397L428.702 79.1385C432.565 81.27 435.87 84.2624 438.355 87.8777Z" fill="#041227"/>
<path d="M464.551 69.2869C467.017 72.8699 468.703 76.9198 469.502 81.18L451.332 93.6731L449.576 92.8671C451.673 88.4205 451.368 83.6777 448.734 79.8635C446.039 75.9264 441.352 73.7738 435.767 73.8904L454.526 59.9378C458.519 62.2939 461.941 65.485 464.551 69.2869Z" fill="#041227"/>
<g opacity="0.55">
<path d="M517.225 31.0937C518.007 32.1564 518.631 33.3251 519.076 34.5638C516.63 32.6757 513.622 31.6368 510.518 31.6081C507.414 31.5794 504.387 32.5624 501.906 34.4048L459.139 66.2107L440.382 80.1627L433.307 85.423L422.411 93.5241L238.351 230.435C237.257 231.252 236.396 232.334 235.851 233.577C235.306 234.82 235.096 236.181 235.242 237.527C233.991 236.967 232.909 236.094 232.102 234.996C231.296 233.897 230.793 232.61 230.642 231.262C230.491 229.913 230.698 228.549 231.243 227.303C231.787 226.057 232.65 224.973 233.747 224.156L417.811 87.2483L428.706 79.1472L435.779 73.8875L454.539 59.9349L497.303 28.1231C498.803 27.01 500.511 26.2031 502.33 25.7495C504.148 25.2959 506.04 25.2047 507.895 25.4813C509.749 25.7578 511.53 26.3966 513.132 27.3602C514.733 28.3238 516.125 29.593 517.225 31.0937Z" fill="white"/>
</g>
<path d="M241.883 241.485C239.249 242.268 236.42 242.11 233.891 241.041C231.363 239.971 229.295 238.057 228.052 235.633C226.808 233.21 226.467 230.431 227.088 227.785C227.709 225.138 229.253 222.791 231.45 221.155L495.004 25.1161C497.872 22.9831 501.322 21.7494 504.907 21.5747C508.493 21.4 512.049 22.2923 515.116 24.1361C518.183 25.98 520.618 28.6904 522.108 31.9167C523.597 35.143 524.072 38.7366 523.47 42.2323C523.079 44.5553 522.218 46.777 520.941 48.7653C519.663 50.7535 517.993 52.4679 516.032 53.8066L245.199 239.909C244.186 240.606 243.067 241.138 241.883 241.485ZM502.862 29.5088C501.683 29.8559 500.577 30.4088 499.595 31.1413L236.04 227.172C235.161 227.801 234.571 228.749 234.399 229.808C234.228 230.866 234.489 231.949 235.126 232.817C235.762 233.686 236.722 234.269 237.794 234.438C238.866 234.607 239.962 234.349 240.841 233.72L511.675 47.6195C513.69 46.241 515.141 44.1978 515.768 41.8572C516.395 39.5165 516.156 37.0319 515.094 34.8497C514.032 32.6675 512.217 30.9309 509.975 29.9519C507.733 28.973 505.211 28.8158 502.862 29.5088Z" fill="#041227"/>
<path d="M114.279 95.6096L114.286 95.6058C117.812 93.4742 119.667 90.8137 120.932 88.0382C121.482 86.8305 121.933 85.5721 122.335 84.4499C122.363 84.3711 122.391 84.293 122.419 84.2157C122.757 83.2713 123.082 82.3785 123.456 81.4861L123.55 81.3551C125.169 79.0885 126.253 78.3185 126.858 78.0363C127.349 77.8072 127.862 77.7305 128.945 77.89C129.32 77.9453 129.782 78.0446 130.32 78.1605C132.815 78.6974 136.968 79.5913 141.956 78.1277L141.962 78.1259C146.745 76.7141 149.797 73.5225 152.154 70.6574C152.822 69.8457 153.424 69.0806 153.994 68.3569C155.276 66.727 156.392 65.3077 157.723 64.0425C161.829 64.0464 164.537 64.5164 166.504 65.007C167.419 65.2351 168.176 65.4665 168.953 65.7043C169.154 65.7657 169.356 65.8275 169.563 65.8898C170.499 66.172 171.63 66.4979 172.85 66.6289C175.674 66.9322 178.178 66.1279 181.108 64.3069C183.681 62.7074 186.933 60.1027 191.451 56.1949C193.556 56.1607 194.968 56.3847 195.975 56.6746C197.155 57.014 198.004 57.5032 199.028 58.1832C199.171 58.2785 199.327 58.3839 199.493 58.497C200.447 59.1444 201.77 60.0427 203.357 60.7158C205.351 61.5619 207.667 62.0479 210.666 62.0283C213.647 62.0088 215.963 61.5141 217.961 60.7049C219.597 60.0424 220.96 59.1769 221.979 58.5294C222.137 58.4285 222.288 58.3328 222.43 58.2441C223.536 57.5525 224.434 57.0541 225.623 56.708C226.604 56.4225 227.93 56.2013 229.846 56.2092C234.419 60.157 237.698 62.7762 240.279 64.375C243.22 66.1964 245.731 66.9914 248.561 66.6469C249.772 66.4994 250.895 66.1561 251.807 65.8685C251.972 65.8165 252.134 65.7648 252.295 65.7134C253.094 65.4591 253.866 65.2129 254.803 64.9742C256.728 64.484 259.4 64.018 263.485 64.0331C264.719 65.2644 265.789 66.6275 267.001 68.172C267.523 68.8368 268.071 69.5352 268.67 70.2712C270.863 72.9662 273.659 76.006 277.874 77.6264L277.886 77.6307C283.479 79.7618 287.936 78.7838 290.703 78.1765C291.193 78.069 291.63 77.9731 292.011 77.9081C293.264 77.6944 293.82 77.7622 294.32 77.9806C294.891 78.2301 295.941 78.9334 297.509 81.1116C297.952 82.0598 298.341 82.9677 298.746 83.9141C298.943 84.3732 299.143 84.8413 299.356 85.3275C300.019 86.8464 300.772 88.4731 301.734 90.0094C303.779 93.2744 306.687 95.9894 311.51 97.4636L311.523 97.4676L311.536 97.4715C315.211 98.5685 317.795 98.9166 319.848 98.876C320.881 98.8555 321.698 98.7378 322.341 98.6225C322.701 98.5578 322.905 98.5174 323.04 98.4905C323.155 98.4678 323.221 98.4547 323.292 98.4446C323.39 98.4852 323.58 98.5747 323.888 98.7598C324.787 99.3005 326.17 100.332 328.492 102.282C328.563 106.188 329.494 109.425 331.325 112.054C333.45 115.105 336.43 116.814 339.246 117.954C341.147 118.724 343.34 119.358 345.285 119.921C346.056 120.144 346.789 120.356 347.449 120.561C349.427 121.174 351.084 121.802 352.453 122.597C352.828 124.423 353.027 126.091 353.197 127.711C353.222 127.957 353.248 128.206 353.273 128.459C353.452 130.222 353.648 132.15 354.089 133.951C354.63 136.16 355.56 138.33 357.313 140.423C359.019 142.458 361.345 144.231 364.409 145.924C366.881 147.306 368.987 148.226 370.616 148.938C370.76 149.001 370.901 149.062 371.038 149.122C372.849 149.916 373.634 150.32 374.141 150.747C374.625 151.154 375.577 152.041 375.577 158.911V159.185L375.614 159.457C376.116 163.223 377.082 166.208 378.514 168.669C379.959 171.151 381.745 172.87 383.546 174.252C384.529 175.007 385.788 175.843 386.905 176.584C387.531 176.999 388.112 177.385 388.575 177.709C389.765 178.546 390.895 179.436 391.973 180.549C392.117 185.829 392.048 189.783 391.655 192.88C391.232 196.215 390.464 198.274 389.401 199.79C388.338 201.305 386.721 202.648 383.939 204.099C381.105 205.577 377.37 207.015 372.26 208.877C357.878 213.978 343.029 217.69 327.92 219.961L327.898 219.964L327.877 219.968C293.766 225.463 259.248 228.122 224.686 227.917L224.674 227.917H224.662C199.915 227.917 161.673 227.376 124.394 223.844C87.8392 220.381 52.9912 214.099 32.5073 203.098C30.8996 195.673 29.7416 188.16 29.0395 180.599C30.0848 179.632 31.1912 178.783 32.3624 177.946C32.804 177.63 33.2859 177.295 33.7884 176.946C35.0219 176.09 36.3792 175.148 37.5668 174.187C39.357 172.737 41.1273 170.979 42.5441 168.588C43.9652 166.189 44.914 163.351 45.3382 159.869L45.3794 159.531L45.3645 159.19C45.0675 152.383 46.0779 151.559 46.5273 151.193L46.5329 151.188C47.0766 150.745 47.914 150.333 49.7885 149.532C49.8963 149.486 50.0064 149.439 50.1186 149.391C51.8143 148.668 54.0042 147.734 56.5473 146.312L56.5533 146.308C59.5727 144.613 61.8488 142.891 63.5031 140.95C65.2181 138.938 66.1043 136.88 66.6042 134.791C66.9717 133.256 67.1439 131.584 67.296 130.108C67.3312 129.766 67.3653 129.435 67.4005 129.118C67.5584 127.699 67.7604 126.231 68.1515 124.611C71.0884 122.761 73.665 122.053 76.4106 121.348C76.5503 121.312 76.6913 121.276 76.8336 121.24C79.8861 120.46 83.5305 119.529 87.1227 116.581C91.0379 113.368 92.2703 109.898 93.1847 106.767C93.2768 106.451 93.3657 106.141 93.4534 105.835C94.0853 103.627 94.6579 101.627 95.9878 99.3508C97.8085 98.9215 99.5118 98.8529 101.557 98.7706C102.041 98.7511 102.545 98.7308 103.075 98.7048C106.337 98.5442 110.097 98.1274 114.279 95.6096Z" fill="url(#paint0_linear_275_364)" stroke="#041227" stroke-width="8.25352"/>
<path fill-rule="evenodd" clip-rule="evenodd" d="M213.252 354.177C220.108 348.482 258.103 332.914 269.956 326.966C387.143 266.974 352.288 223.688 372.471 215.209C377.645 213.426 382.696 211.312 387.592 208.88C391.564 206.665 396.626 201.856 399.125 200.843C411.939 213.816 392.717 249.887 383.427 262.797C371.377 279.542 356.355 293.993 339.089 305.449C301.13 330.311 258.224 346.861 213.252 353.987V354.177ZM3.16129 194.958C25.0361 225.658 51.6754 252.76 82.0977 275.264C144.696 316.018 176.86 311.208 194.544 319.562C166.48 328.484 103.113 307.538 78.1894 294.565C56.1588 282.232 36.2425 266.533 19.1792 248.052C13.6817 241.828 7.72818 236.011 1.36709 230.65L0.982676 248.115C8.47907 253.558 21.1654 266.278 29.1744 273.428C173.272 398.348 282.258 298.742 308.335 301.146C287.127 318.296 233.884 339.432 205.372 348.735C198.964 350.886 170.645 356.898 168.402 360.189C234.588 363.796 330.055 330.32 374.265 278.681C405.916 241.787 396.113 239.383 407.326 215.398C412.388 218.309 413.733 222.423 417.129 226.599C417.769 206.159 420.909 186.478 406.749 180.087C397.202 175.72 393.935 179.074 386.887 170.911C381.953 165.215 378.463 171.582 372.376 163.039C374.106 175.696 380.349 169.712 386.884 177.369C387.653 200.783 385.862 201.603 366.256 208.943C352.214 213.808 337.731 217.326 323.007 219.448C289.903 224.785 256.404 227.368 222.863 227.169C175.002 227.169 74.7936 225.27 34.108 201.856C32.181 193.35 30.8537 184.723 30.1356 176.037C36.5428 168.822 44.6157 168.443 46.0253 157.052C40.8355 164.519 42.5653 162.367 35.0689 167.24C27.5725 172.113 34.2359 172.999 22.9592 176.29C16.5521 178.188 -6.64169 186.035 3.16129 195.717V194.958Z" fill="#041227"/>
<path fill-rule="evenodd" clip-rule="evenodd" d="M1.10997 247.863L4.63384 275.39L21.4847 302.032C27.8919 302.032 28.4687 305.133 33.21 310.006L63.1314 338.167C111.441 374.428 159.239 406.512 225.681 407.778L224.784 412.967C221.388 422.016 201.462 425.307 192.748 428.218C180.539 432.722 167.826 435.76 154.882 437.267C154.882 437.647 155.651 437.647 155.843 438.217C156.548 440.495 163.852 441.761 166.415 442.267C180.504 445.336 194.922 446.675 209.343 446.254C214.213 441.254 385.22 335.192 393.87 332.345C399.572 325.447 408.927 296.02 411.233 286.275C415.81 266.529 417.706 246.27 416.872 226.03C413.22 221.853 412.13 217.74 407.068 214.829C395.856 239.066 405.659 241.471 374.008 278.112C329.798 329.75 234.331 363.227 168.145 359.62C170.388 356.329 198.643 350.317 205.115 348.165C233.627 338.863 286.87 317.727 308.078 300.577C282 298.109 173.015 397.779 28.9173 272.859C20.9083 265.961 8.22195 253.241 0.725555 247.546L1.10997 247.863Z" fill="url(#paint1_linear_275_364)"/>
<path fill-rule="evenodd" clip-rule="evenodd" d="M209.599 446.127C248.619 447.772 292.508 432.458 323.583 411.701C348.059 395.311 383.747 360.632 394.062 332.028C385.412 335.066 214.661 441.127 209.536 445.937L209.599 446.127Z" fill="#041227"/>
<path fill-rule="evenodd" clip-rule="evenodd" d="M213.252 354.177C258.223 347.05 301.129 330.501 339.089 305.639C356.354 294.183 371.376 279.732 383.426 262.987C392.396 250.33 411.938 214.006 399.124 201.033C396.625 202.046 391.563 206.855 387.591 209.07C382.695 211.502 377.644 213.616 372.47 215.398C352.287 223.878 387.143 267.164 269.955 327.156C258.422 333.104 220.107 348.672 213.252 354.367V354.177Z" fill="url(#paint2_linear_275_364)"/>
<path fill-rule="evenodd" clip-rule="evenodd" d="M1.11019 230.396C7.47128 235.758 13.4248 241.575 18.9223 247.799C36.0098 266.263 55.9475 281.94 77.9963 294.248C102.92 307.221 166.287 328.168 194.35 319.245C176.667 311.145 144.503 315.954 81.9046 274.947C51.4823 252.443 24.843 225.342 2.96813 194.641C-2.22168 200.4 0.918041 222.486 1.17433 230.08L1.11019 230.396Z" fill="url(#paint3_linear_275_364)"/>
<path fill-rule="evenodd" clip-rule="evenodd" d="M211.907 414.486L224.722 413.157L225.618 407.968C158.856 406.829 111.379 374.744 63.0684 338.357L33.1471 310.006C28.4057 305.133 27.7649 302.032 21.4218 302.032C35.6457 324.498 22.383 311.778 50.3182 347.723C62.4113 361.233 76.3152 373.049 91.6446 382.844C130.792 408.917 163.661 415.562 211.971 414.169L211.907 414.486Z" fill="url(#paint4_linear_275_364)"/>
<path fill-rule="evenodd" clip-rule="evenodd" d="M78.7002 398.411C99.9079 403.727 113.363 413.473 139.12 417.713C155.907 420.497 197.489 421.573 211.906 414.169C163.595 415.561 130.727 408.916 91.5787 382.844C76.2492 373.049 62.3454 361.232 50.2523 347.722C22.317 311.778 35.5798 324.497 21.3559 302.032L4.5054 275.263C8.54192 311.524 29.0448 347.089 52.1107 374.617C58.2334 383.616 66.2824 391.177 75.689 396.766L78.7002 398.285V398.411Z" fill="#041227"/>
<path fill-rule="evenodd" clip-rule="evenodd" d="M154.883 437.268C167.658 435.68 180.197 432.6 192.237 428.092C201.079 425.181 221.005 421.763 224.273 412.841L211.459 414.17C197.042 421.574 155.46 420.498 138.673 417.713C113.044 413.473 99.4609 403.728 78.2532 398.412C79.3424 403.728 85.7499 407.019 93.7588 412.208C107.598 421.131 140.915 438.597 154.691 437.521L154.883 437.268Z" fill="url(#paint5_linear_275_364)"/>
<path d="M129.92 141.656L138.69 132.994" stroke="#0A0C33" stroke-width="3.02382" stroke-linecap="round"/>
<path d="M144.049 189.736L152.819 181.074" stroke="#0A0C33" stroke-width="3.02382" stroke-linecap="round"/>
<path d="M200.746 159.987L209.516 151.325" stroke="#0A0C33" stroke-width="3.02382" stroke-linecap="round"/>
<path d="M225.552 91.7385L234.321 83.0767" stroke="#0A0C33" stroke-width="3.02382" stroke-linecap="round"/>
<path d="M308.824 180.986L317.594 172.324" stroke="#0A0C33" stroke-width="3.02382" stroke-linecap="round"/>
<path d="M177.713 112.739C182.492 111.055 184.372 109.102 186.483 104.077" stroke="#0A0C33" stroke-width="3.02382" stroke-linecap="round"/>
<path d="M67.8637 163.486C72.6431 161.803 74.5233 159.85 76.6335 154.824" stroke="#0A0C33" stroke-width="3.02382" stroke-linecap="round"/>
<path d="M255.672 131.988C260.451 130.305 262.331 128.352 264.442 123.326" stroke="#0A0C33" stroke-width="3.02382" stroke-linecap="round"/>
<path d="M259.216 203.735C263.996 202.052 265.876 200.099 267.986 195.074" stroke="#0A0C33" stroke-width="3.02382" stroke-linecap="round"/>
<path d="M396.556 191.699C396.556 218.079 312.114 239.464 207.95 239.464C103.786 239.464 19.3443 218.079 19.3443 191.699" stroke="#041227" stroke-width="16.507" stroke-linecap="round"/>
<rect x="203.114" y="229.911" width="96.7209" height="66.8708" fill="#041227"/>
<defs>
<linearGradient id="paint0_linear_275_364" x1="210.465" y1="52.0647" x2="210.465" y2="232.055" gradientUnits="userSpaceOnUse">
<stop stop-color="#F4C607"/>
<stop offset="1" stop-color="#FFA430"/>
</linearGradient>
<linearGradient id="paint1_linear_275_364" x1="208.894" y1="214.829" x2="208.894" y2="446.329" gradientUnits="userSpaceOnUse">
<stop stop-color="#07C9F4"/>
<stop offset="1" stop-color="#073DC7"/>
</linearGradient>
<linearGradient id="paint2_linear_275_364" x1="308.303" y1="201.033" x2="308.303" y2="354.367" gradientUnits="userSpaceOnUse">
<stop stop-color="#F4C607"/>
<stop offset="1" stop-color="#FFA430"/>
</linearGradient>
<linearGradient id="paint3_linear_275_364" x1="97.1752" y1="194.641" x2="97.1752" y2="321.393" gradientUnits="userSpaceOnUse">
<stop stop-color="#F4C607"/>
<stop offset="1" stop-color="#FFA430"/>
</linearGradient>
<linearGradient id="paint4_linear_275_364" x1="123.52" y1="302.032" x2="123.52" y2="414.486" gradientUnits="userSpaceOnUse">
<stop stop-color="#07C9F4"/>
<stop offset="1" stop-color="#073DC7"/>
</linearGradient>
<linearGradient id="paint5_linear_275_364" x1="151.263" y1="398.412" x2="151.263" y2="437.568" gradientUnits="userSpaceOnUse">
<stop stop-color="#F4C607"/>
<stop offset="1" stop-color="#FFA430"/>
</linearGradient>
</defs>
</svg>
