<svg width="371" height="334" viewBox="0 0 371 334" fill="none" xmlns="http://www.w3.org/2000/svg">
<path d="M252.48 321.32C252.563 318.671 253.674 316.159 255.576 314.315C257.479 312.471 260.025 311.439 262.675 311.439C265.325 311.439 267.871 312.471 269.774 314.315C271.677 316.159 272.787 318.671 272.87 321.32C272.869 321.718 272.842 322.116 272.79 322.51C294.346 315.092 314.515 304.135 332.47 290.09C330.597 288.77 329.045 287.045 327.929 285.043C326.812 283.042 326.161 280.815 326.022 278.527C325.883 276.24 326.26 273.95 327.126 271.828C327.992 269.707 329.324 267.807 331.023 266.269C332.723 264.732 334.746 263.596 336.944 262.947C339.142 262.298 341.458 262.151 343.72 262.518C345.982 262.885 348.133 263.756 350.013 265.067C351.893 266.377 353.454 268.094 354.58 270.09C372.791 251.077 387.191 228.752 397 204.32C395.95 204.261 394.921 203.995 393.973 203.539C393.025 203.082 392.176 202.443 391.475 201.659C390.774 200.874 390.234 199.959 389.887 198.966C389.539 197.973 389.391 196.921 389.45 195.87C389.509 194.819 389.775 193.791 390.231 192.843C390.688 191.895 391.327 191.046 392.111 190.345C392.896 189.644 393.811 189.104 394.804 188.757C395.798 188.409 396.85 188.261 397.9 188.32C399.448 188.315 400.964 188.763 402.26 189.61C412.834 155.851 414.54 119.938 407.214 85.329C399.888 50.7196 383.777 18.5787 360.43 -7.99997C358.75 -6.81886 356.702 -6.27959 354.658 -6.48013C352.614 -6.68066 350.71 -7.60769 349.291 -9.0928C347.873 -10.5779 347.034 -12.5226 346.927 -14.5736C346.821 -16.6245 347.453 -18.6457 348.71 -20.27C346.12 -22.77 343.48 -25.2 340.76 -27.56C337.832 -24.8819 334.066 -23.3019 330.104 -23.0894C326.141 -22.8769 322.228 -24.0449 319.03 -26.3945C315.833 -28.7441 313.549 -32.1298 312.568 -35.9746C311.587 -39.8195 311.969 -43.8856 313.65 -47.48C289.306 -62.5089 262.08 -72.2623 233.73 -76.11C234.85 -74.8571 235.564 -73.2941 235.777 -71.6273C235.99 -69.9605 235.693 -68.2681 234.925 -66.7736C234.157 -65.279 232.954 -64.0524 231.474 -63.2557C229.995 -62.4589 228.308 -62.1295 226.638 -62.3107C224.967 -62.492 223.391 -63.1755 222.117 -64.271C220.842 -65.3665 219.93 -66.8226 219.501 -68.4471C219.071 -70.0717 219.144 -71.7883 219.71 -73.3706C220.275 -74.9528 221.308 -76.3264 222.67 -77.31C217.11 -77.76 211.5 -78 205.83 -78C186.288 -78.0112 166.843 -75.2435 148.08 -69.78C148.798 -69.4067 149.402 -68.849 149.833 -68.1642C150.263 -67.4795 150.503 -66.6924 150.528 -65.8841C150.553 -65.0758 150.362 -64.2755 149.975 -63.5655C149.588 -62.8555 149.018 -62.2615 148.325 -61.8446C147.632 -61.4278 146.841 -61.2032 146.032 -61.1939C145.223 -61.1847 144.427 -61.3911 143.725 -61.792C143.022 -62.1928 142.439 -62.7736 142.036 -63.4746C141.633 -64.1755 141.424 -64.9713 141.43 -65.78C141.433 -66.5292 141.626 -67.2655 141.99 -67.92C137.137 -66.34 132.367 -64.5866 127.68 -62.66C129.757 -61.1531 131.412 -59.1388 132.488 -56.8097C133.563 -54.4806 134.024 -51.9145 133.825 -49.3566C133.626 -46.7987 132.774 -44.3347 131.351 -42.1999C129.928 -40.0651 127.981 -38.3311 125.697 -37.1634C123.412 -35.9957 120.867 -35.4335 118.303 -35.5305C115.739 -35.6275 113.243 -36.3805 111.053 -37.7174C108.864 -39.0544 107.054 -40.9306 105.796 -43.1668C104.538 -45.403 103.875 -47.9244 103.87 -50.49C103.87 -50.68 103.87 -50.87 103.87 -51.05C82.0874 -38.5891 62.7555 -22.2662 46.8201 -2.87997C48.7446 -1.03015 49.9308 1.45634 50.1575 4.11603C50.3843 6.77572 49.6362 9.42713 48.0526 11.576C46.4691 13.725 44.1582 15.2247 41.5507 15.7958C38.9431 16.3669 36.2169 15.9703 33.8801 14.68C20.2773 35.2944 10.5167 58.2001 5.07012 82.29C5.62331 82.1334 6.1952 82.0527 6.77012 82.05C7.7947 82.0481 8.80496 82.2906 9.71699 82.7575C10.629 83.2243 11.4165 83.9021 12.014 84.7344C12.6115 85.5667 13.0018 86.5296 13.1525 87.543C13.3031 88.5565 13.2098 89.5912 12.8803 90.5614C12.5507 91.5315 11.9945 92.409 11.2577 93.121C10.5209 93.833 9.6249 94.3589 8.64406 94.6551C7.66322 94.9513 6.62586 95.0091 5.61817 94.8239C4.61047 94.6387 3.66151 94.2157 2.85012 93.59C2.68012 94.59 2.51012 95.59 2.35012 96.59C4.58174 97.347 6.51996 98.7844 7.89219 100.7C9.26442 102.616 10.0016 104.914 10.0001 107.27C9.99713 109.998 9.00398 112.632 7.20519 114.683C5.40641 116.733 2.92432 118.061 0.220116 118.42C0.080116 121.54 0.000116032 124.68 0.000116032 127.83C-0.0286738 154.91 5.3003 181.728 15.6801 206.74C16.9539 206.238 18.3109 205.98 19.6801 205.98C22.0518 205.981 24.3563 206.768 26.2335 208.217C28.1107 209.666 29.4549 211.697 30.0558 213.991C30.6568 216.285 30.4808 218.714 29.5552 220.898C28.6297 223.081 27.0067 224.897 24.9401 226.06C35.5246 245.496 49.1654 263.104 65.3401 278.21C69.0571 274.553 73.9658 272.355 79.1695 272.018C84.3731 271.681 89.5243 273.227 93.682 276.374C97.8398 279.521 100.727 284.059 101.815 289.159C102.903 294.259 102.121 299.58 99.6101 304.15C146.209 332.18 201.991 340.672 254.82 327.78C253.311 325.965 252.484 323.68 252.48 321.32ZM380.48 209.2C379.578 209.2 378.697 208.933 377.947 208.432C377.197 207.93 376.612 207.218 376.267 206.385C375.922 205.552 375.832 204.635 376.008 203.75C376.184 202.866 376.618 202.053 377.256 201.416C377.893 200.778 378.706 200.344 379.591 200.168C380.475 199.992 381.392 200.082 382.225 200.427C383.058 200.772 383.771 201.357 384.272 202.107C384.773 202.857 385.04 203.738 385.04 204.64C385.04 205.243 384.921 205.84 384.688 206.397C384.456 206.953 384.116 207.458 383.687 207.882C383.258 208.306 382.75 208.641 382.191 208.867C381.632 209.094 381.033 209.207 380.43 209.2H380.48ZM385.31 42.89C386.638 42.89 387.935 43.2838 389.039 44.0216C390.143 44.7593 391.003 45.8079 391.51 47.0345C392.018 48.2612 392.15 49.6109 391.89 50.9128C391.631 52.2146 390.991 53.4102 390.051 54.3483C389.112 55.2863 387.915 55.9245 386.613 56.1823C385.311 56.4401 383.961 56.3058 382.735 55.7964C381.509 55.287 380.462 54.4254 379.726 53.3206C378.99 52.2159 378.598 50.9176 378.6 49.59C378.603 47.8208 379.304 46.1242 380.551 44.8694C381.799 43.6146 383.491 42.9032 385.26 42.89H385.31ZM382 173.79C383.75 173.79 385.462 174.309 386.917 175.282C388.372 176.254 389.507 177.636 390.176 179.253C390.846 180.87 391.022 182.65 390.68 184.367C390.339 186.083 389.496 187.66 388.258 188.898C387.02 190.136 385.443 190.978 383.727 191.32C382.01 191.661 380.23 191.486 378.613 190.816C376.996 190.147 375.614 189.012 374.642 187.557C373.669 186.101 373.15 184.39 373.15 182.64C373.15 180.293 374.083 178.042 375.742 176.382C377.402 174.722 379.653 173.79 382 173.79ZM314.14 273.58C315.096 273.58 316.03 273.864 316.825 274.395C317.619 274.926 318.238 275.681 318.603 276.564C318.969 277.447 319.064 278.419 318.877 279.356C318.689 280.293 318.228 281.154 317.552 281.829C316.875 282.504 316.014 282.963 315.076 283.148C314.139 283.334 313.167 283.237 312.285 282.87C311.402 282.502 310.649 281.882 310.119 281.086C309.59 280.291 309.308 279.356 309.31 278.4C309.31 277.763 309.436 277.132 309.682 276.544C309.927 275.956 310.287 275.422 310.74 274.974C311.192 274.526 311.73 274.172 312.32 273.932C312.911 273.693 313.543 273.573 314.18 273.58H314.14ZM276.31 300.94C277.212 300.94 278.094 301.207 278.844 301.709C279.593 302.21 280.178 302.922 280.523 303.755C280.868 304.588 280.958 305.505 280.783 306.39C280.607 307.274 280.172 308.087 279.535 308.724C278.897 309.362 278.084 309.796 277.2 309.972C276.315 310.148 275.398 310.058 274.565 309.713C273.732 309.368 273.02 308.783 272.519 308.033C272.018 307.284 271.75 306.402 271.75 305.5C271.75 304.898 271.869 304.302 272.101 303.746C272.333 303.19 272.672 302.685 273.1 302.261C273.527 301.837 274.035 301.502 274.593 301.276C275.151 301.049 275.748 300.935 276.35 300.94H276.31ZM10.0001 134.63C9.36326 134.63 8.74071 134.441 8.21118 134.087C7.68165 133.734 7.26894 133.231 7.02522 132.642C6.78151 132.054 6.71774 131.406 6.84199 130.782C6.96623 130.157 7.27291 129.583 7.72323 129.133C8.17356 128.683 8.74731 128.376 9.37193 128.252C9.99654 128.128 10.644 128.191 11.2324 128.435C11.8207 128.679 12.3236 129.092 12.6774 129.621C13.0313 130.151 13.2201 130.773 13.2201 131.41C13.2201 131.833 13.1368 132.252 12.975 132.642C12.8132 133.033 12.576 133.388 12.277 133.687C11.978 133.986 11.623 134.223 11.2324 134.385C10.8417 134.547 10.423 134.63 10.0001 134.63ZM44.3401 231.19C43.0656 231.192 41.8191 230.816 40.7585 230.109C39.6979 229.402 38.8709 228.396 38.3823 227.219C37.8936 226.042 37.7652 224.746 38.0134 223.496C38.2615 222.246 38.8751 221.098 39.7764 220.196C40.6776 219.295 41.826 218.681 43.0762 218.433C44.3264 218.185 45.6221 218.313 46.7992 218.802C47.9764 219.291 48.9821 220.118 49.6889 221.178C50.3958 222.239 50.7721 223.485 50.7701 224.76C50.7701 225.605 50.6035 226.442 50.2797 227.223C49.9559 228.004 49.4814 228.713 48.8833 229.31C48.2851 229.907 47.5751 230.381 46.7938 230.703C46.0126 231.026 45.1754 231.191 44.3301 231.19H44.3401ZM99.0601 270.36C98.1044 270.362 97.1696 270.08 96.374 269.551C95.5784 269.021 94.9578 268.268 94.5907 267.385C94.2235 266.503 94.1265 265.531 94.3117 264.594C94.4969 263.656 94.9562 262.795 95.6312 262.118C96.3063 261.442 97.1669 260.981 98.1041 260.794C99.0413 260.606 100.013 260.701 100.896 261.067C101.779 261.432 102.534 262.051 103.065 262.846C103.597 263.64 103.88 264.574 103.88 265.53C103.88 266.811 103.371 268.04 102.465 268.945C101.56 269.851 100.331 270.36 99.0501 270.36H99.0601ZM209.83 -56.36C209.039 -56.36 208.266 -56.5946 207.608 -57.0341C206.95 -57.4736 206.437 -58.0983 206.135 -58.8292C205.832 -59.5601 205.753 -60.3644 205.907 -61.1403C206.061 -61.9163 206.442 -62.629 207.002 -63.1884C207.561 -63.7478 208.274 -64.1288 209.05 -64.2831C209.826 -64.4374 210.63 -64.3582 211.361 -64.0555C212.092 -63.7527 212.716 -63.24 213.156 -62.5822C213.596 -61.9244 213.83 -61.1511 213.83 -60.36C213.83 -59.2991 213.409 -58.2817 212.659 -57.5315C211.908 -56.7814 210.891 -56.36 209.83 -56.36Z" fill="#173F60" fill-opacity="0.25"/>
</svg>
