<svg width="735" height="488" viewBox="0 0 735 488" fill="none" xmlns="http://www.w3.org/2000/svg">
<path style="mix-blend-mode:screen" opacity="0.35" d="M543.365 417.467C542.929 416.612 559.852 407.163 581.166 396.352C602.48 385.54 620.098 377.47 620.534 378.325C620.97 379.181 604.001 388.609 582.724 399.437C561.446 410.265 543.792 418.319 543.365 417.467Z" fill="url(#paint0_radial_443_139)"/>
<path style="mix-blend-mode:screen" opacity="0.35" d="M407.887 250.547C407.965 251.153 399.052 252.711 387.995 254.012C376.937 255.314 367.911 255.909 367.847 255.298C367.783 254.688 376.682 253.135 387.734 251.82C398.787 250.506 407.819 249.946 407.887 250.547Z" fill="url(#paint1_radial_443_139)"/>
<path style="mix-blend-mode:screen" opacity="0.35" d="M228.865 243.151C229.786 242.887 225.035 224.092 218.215 201.158C211.395 178.224 205.244 159.905 204.308 160.228C203.372 160.551 208.138 179.287 214.958 202.221C221.778 225.155 227.95 243.429 228.865 243.151Z" fill="url(#paint2_radial_443_139)"/>
<path style="mix-blend-mode:screen" opacity="0.35" d="M127.318 183.506C127.512 183.078 115.925 178.072 101.486 172.336C87.047 166.6 75.2022 162.311 75.0765 162.759C74.9509 163.207 86.4695 168.194 100.909 173.929C115.348 179.665 127.143 183.942 127.318 183.506Z" fill="url(#paint3_radial_443_139)"/>
<path style="mix-blend-mode:screen" opacity="0.35" d="M679.047 320.513C678.978 320.252 669.806 322.482 658.539 325.51C647.271 328.539 638.214 331.194 638.291 331.459C638.369 331.725 647.546 329.486 658.809 326.466C670.072 323.447 679.124 320.778 679.047 320.513Z" fill="url(#paint4_radial_443_139)"/>
<path style="mix-blend-mode:screen" opacity="0.35" d="M398.277 188.843C398.404 188.44 384.676 183.706 367.599 178.27C350.522 172.835 336.574 168.78 336.446 169.184C336.319 169.587 350.057 174.325 367.124 179.757C384.192 185.188 398.15 189.247 398.277 188.843Z" fill="url(#paint5_radial_443_139)"/>
<g style="mix-blend-mode:overlay" opacity="0.99">
<path d="M653.079 363.109L638.67 331.302L610.307 360.622L653.079 363.109Z" stroke="white" stroke-width="0.5" stroke-miterlimit="10"/>
</g>
<g style="mix-blend-mode:overlay" opacity="0.88">
<path d="M653.079 363.109L630.804 377.14L610.307 360.622L610.714 330.562L618.677 339.725L610.307 360.622" stroke="white" stroke-width="0.5" stroke-miterlimit="10"/>
</g>
<g style="mix-blend-mode:overlay" opacity="0.39">
<path d="M695.38 340.317L681.071 320.21L638.67 331.301L695.38 340.317Z" stroke="white" stroke-width="0.5" stroke-miterlimit="10"/>
</g>
<g style="mix-blend-mode:overlay" opacity="0.53">
<path d="M684.807 360.845L695.38 340.317L638.67 331.302L684.807 360.845Z" stroke="white" stroke-width="0.5" stroke-miterlimit="10"/>
</g>
<g style="mix-blend-mode:overlay" opacity="0.9">
<path d="M701.262 324.825L695.38 340.317L681.071 320.21L701.262 324.825Z" stroke="white" stroke-width="0.5" stroke-miterlimit="10"/>
</g>
<g style="mix-blend-mode:overlay" opacity="0.4">
<path d="M610.714 330.562L612.183 314.733L597.306 320.991L610.714 330.562Z" stroke="white" stroke-width="0.5" stroke-miterlimit="10"/>
</g>
<g style="mix-blend-mode:overlay" opacity="0.37">
<path d="M597.306 320.991L562.66 341.316L576.157 359.893L597.306 320.991Z" stroke="white" stroke-width="0.5" stroke-miterlimit="10"/>
</g>
<g style="mix-blend-mode:overlay" opacity="0.39">
<path d="M560.036 364.7L556.611 367.981L560.348 379.404C560.364 379.438 560.391 379.467 560.425 379.484C560.459 379.501 560.497 379.507 560.535 379.5C560.572 379.493 560.606 379.473 560.631 379.445C560.656 379.416 560.671 379.38 560.673 379.342L560.036 364.7Z" stroke="white" stroke-width="0.5" stroke-miterlimit="10"/>
</g>
<g style="mix-blend-mode:overlay" opacity="0.32">
<path d="M537.35 280.088L525.109 308.169L507.106 290.287L537.35 280.088Z" stroke="white" stroke-width="0.5" stroke-miterlimit="10"/>
</g>
<g style="mix-blend-mode:overlay" opacity="0.63">
<path d="M639.862 300.038L630.335 314.245L624.496 299.436L639.862 300.038Z" stroke="white" stroke-width="0.5" stroke-miterlimit="10"/>
</g>
<g style="mix-blend-mode:overlay" opacity="0.5">
<path d="M437.177 196.23L431.693 204.407L428.324 195.883L437.177 196.23Z" stroke="white" stroke-width="0.5" stroke-miterlimit="10"/>
</g>
<g style="mix-blend-mode:overlay" opacity="0.48">
<path d="M662.859 376.362L681.267 410.295L650.088 403.282L662.859 376.362Z" stroke="white" stroke-width="0.5" stroke-miterlimit="10"/>
</g>
<g style="mix-blend-mode:overlay" opacity="0.53">
<path d="M131.013 33.0447L123.811 43.8579L119.804 32.8618L131.013 33.0447Z" stroke="white" stroke-width="0.5" stroke-miterlimit="10"/>
</g>
<g style="mix-blend-mode:overlay" opacity="0.2">
<path d="M460.105 240.315L436.43 263.733L418.456 214.391L460.105 240.315Z" stroke="white" stroke-width="0.5" stroke-miterlimit="10"/>
</g>
<g style="mix-blend-mode:overlay" opacity="0.96">
<path d="M587.15 286.376L566.898 311.835L597.306 320.991L587.15 286.376ZM587.15 286.376L612.183 314.733" stroke="white" stroke-width="0.5" stroke-miterlimit="10"/>
</g>
<g style="mix-blend-mode:overlay" opacity="0.2">
<path d="M586.772 287.116L556.448 268.791L566.898 311.835L562.66 341.316L540.494 330.266L566.898 311.835" stroke="white" stroke-width="0.5" stroke-miterlimit="10"/>
</g>
<g style="mix-blend-mode:overlay" opacity="0.4">
<path d="M540.494 330.266L547.398 360.832L562.66 341.316" stroke="white" stroke-width="0.5" stroke-miterlimit="10"/>
</g>
<g style="mix-blend-mode:overlay" opacity="0.22">
<path d="M507.106 290.287L509.675 234.318L437.271 288.387L490.503 312.599L514.099 352.246L525.109 308.169L490.503 312.599L507.106 290.287ZM507.106 290.287L459.402 271.591L490.503 312.599" stroke="white" stroke-width="0.5" stroke-miterlimit="10"/>
</g>
<g style="mix-blend-mode:overlay" opacity="0.77">
<path d="M437.271 288.387L437.492 300.888L422.929 298.388L437.271 288.387Z" stroke="white" stroke-width="0.5" stroke-miterlimit="10"/>
</g>
<g style="mix-blend-mode:overlay" opacity="0.29">
<path d="M422.929 298.388L410.219 335.42L383.347 298.386L358.146 301.043L410.219 335.42L348.147 340.771L358.146 301.043" stroke="white" stroke-width="0.5" stroke-miterlimit="10"/>
</g>
<g style="mix-blend-mode:overlay" opacity="0.42">
<path d="M358.146 301.043L312.562 248.935L302.911 308.287L358.146 301.043Z" stroke="white" stroke-width="0.5" stroke-miterlimit="10"/>
</g>
<g style="mix-blend-mode:overlay" opacity="0.44">
<path d="M358.146 301.043L364.065 255.29L383.347 298.386" stroke="white" stroke-width="0.5" stroke-miterlimit="10"/>
</g>
<g style="mix-blend-mode:overlay" opacity="0.71">
<path d="M332.609 168.909L289.42 193.351L337.532 215.173L332.609 168.909ZM332.609 168.909L404.5 191.173L410.288 250.48" stroke="white" stroke-width="0.5" stroke-miterlimit="10"/>
</g>
<g style="mix-blend-mode:overlay">
<path d="M312.562 248.935L289.42 193.351L233 255.928L312.562 248.935Z" stroke="white" stroke-width="0.5" stroke-miterlimit="10"/>
</g>
<g style="mix-blend-mode:overlay">
<path d="M232.653 255.749L201.276 151.396L289.082 193.176L245.375 120.111L201.276 151.396" stroke="white" stroke-width="0.5" stroke-miterlimit="10"/>
</g>
<g style="mix-blend-mode:overlay" opacity="0.36">
<path d="M146.809 63.5801L119.99 52.4575L112.068 79.4066L146.809 63.5801Z" stroke="white" stroke-width="0.5" stroke-miterlimit="10"/>
</g>
<g style="mix-blend-mode:overlay" opacity="0.76">
<path d="M99.2737 24.1647L68.9608 43.3533L92.057 57.6876L110.782 106.897L112.068 79.4066L92.057 57.6876L119.99 52.4575L99.2737 24.1647ZM99.2737 24.1647L92.057 57.6876" stroke="white" stroke-width="0.5" stroke-miterlimit="10"/>
</g>
<g style="mix-blend-mode:overlay" opacity="0.48">
<path d="M58.6122 157.425C62.1696 156.037 150.307 194.192 150.307 194.192" stroke="white" stroke-width="0.5" stroke-miterlimit="10"/>
</g>
<g style="mix-blend-mode:overlay" opacity="0.92">
<path d="M410.22 335.42L437.492 300.888L460.868 385.867L410.22 335.42Z" stroke="white" stroke-width="0.5" stroke-miterlimit="10"/>
</g>
<g style="mix-blend-mode:overlay" opacity="0.2">
<path d="M110.782 106.897L58.6122 157.425L63.605 96.8449L110.782 106.897Z" stroke="white" stroke-width="0.5" stroke-miterlimit="10"/>
</g>
<g style="mix-blend-mode:overlay" opacity="0.2">
<path d="M173.848 89.9021C174.466 89.5556 240.264 68.8467 240.264 68.8467L245.713 120.286L174.502 89.5721L110.794 106.869L150.343 194.186L170.877 272.196L233.036 255.922L150.307 194.192L201.627 151.543L174.514 89.5447L150.283 194.148L112.434 237.563L170.817 272.159" stroke="white" stroke-width="0.5" stroke-miterlimit="10"/>
</g>
<g style="mix-blend-mode:overlay" opacity="0.2">
<path d="M487.327 312.294L460.868 385.867L348.147 340.771" stroke="white" stroke-width="0.5" stroke-miterlimit="10"/>
</g>
<g style="mix-blend-mode:overlay" opacity="0.2">
<path d="M514.099 352.246L503.853 419.132L460.868 385.867L514.099 352.246ZM514.099 352.246L547.398 360.832L525.109 308.169" stroke="white" stroke-width="0.5" stroke-miterlimit="10"/>
</g>
<g style="mix-blend-mode:overlay">
<path d="M459.366 271.575L437.234 288.371L410.251 250.464M410.251 250.464L422.893 298.372L383.311 298.37L410.251 250.464ZM410.251 250.464L364.028 255.274L312.562 248.935L337.532 215.172M337.532 215.172C337.532 215.172 363.908 252.893 364.065 255.29L404.5 191.173L337.532 215.172Z" stroke="white" stroke-width="0.5" stroke-miterlimit="10"/>
</g>
<g style="mix-blend-mode:overlay" opacity="0.2">
<path d="M538.982 418.57C542.274 419.443 628.606 465.77 630.942 464.851C633.278 463.931 630.808 377.131 630.808 377.131L538.986 418.561L610.636 359.992" stroke="white" stroke-width="0.5" stroke-miterlimit="10"/>
</g>
<g style="mix-blend-mode:overlay" opacity="0.2">
<path d="M503.857 419.123L547.398 360.832" stroke="white" stroke-width="0.5" stroke-miterlimit="10"/>
</g>
<defs>
<radialGradient id="paint0_radial_443_139" cx="0" cy="0" r="1" gradientUnits="userSpaceOnUse" gradientTransform="translate(567.766 399.63) rotate(153.9) scale(37.892 1.58067)">
<stop stop-color="white"/>
<stop offset="0.17" stop-color="#D6EBFE" stop-opacity="0.76"/>
<stop offset="0.32" stop-color="#B3DBFC" stop-opacity="0.55"/>
<stop offset="0.39" stop-color="#A5D4FC" stop-opacity="0.47"/>
<stop offset="0.49" stop-color="#8BB5FB" stop-opacity="0.35"/>
<stop offset="0.64" stop-color="#6C8DFA" stop-opacity="0.2"/>
<stop offset="0.78" stop-color="#5571F9" stop-opacity="0.09"/>
<stop offset="0.91" stop-color="#4760F8" stop-opacity="0.02"/>
<stop offset="1" stop-color="#425AF8" stop-opacity="0"/>
</radialGradient>
<radialGradient id="paint1_radial_443_139" cx="0" cy="0" r="1" gradientUnits="userSpaceOnUse" gradientTransform="translate(412.618 318.736) rotate(-6.20876) scale(17.6308 0.748236)">
<stop stop-color="white"/>
<stop offset="0.17" stop-color="#D6EBFE" stop-opacity="0.76"/>
<stop offset="0.32" stop-color="#B3DBFC" stop-opacity="0.55"/>
<stop offset="0.39" stop-color="#A5D4FC" stop-opacity="0.47"/>
<stop offset="0.49" stop-color="#8BB5FB" stop-opacity="0.35"/>
<stop offset="0.64" stop-color="#6C8DFA" stop-opacity="0.2"/>
<stop offset="0.78" stop-color="#5571F9" stop-opacity="0.09"/>
<stop offset="0.91" stop-color="#4760F8" stop-opacity="0.02"/>
<stop offset="1" stop-color="#425AF8" stop-opacity="0"/>
</radialGradient>
<radialGradient id="paint2_radial_443_139" cx="0" cy="0" r="1" gradientUnits="userSpaceOnUse" gradientTransform="translate(199.747 198.508) rotate(73.0795) scale(37.8136 1.68907)">
<stop stop-color="white"/>
<stop offset="0.17" stop-color="#D6EBFE" stop-opacity="0.76"/>
<stop offset="0.32" stop-color="#B3DBFC" stop-opacity="0.55"/>
<stop offset="0.39" stop-color="#A5D4FC" stop-opacity="0.47"/>
<stop offset="0.49" stop-color="#8BB5FB" stop-opacity="0.35"/>
<stop offset="0.64" stop-color="#6C8DFA" stop-opacity="0.2"/>
<stop offset="0.78" stop-color="#5571F9" stop-opacity="0.09"/>
<stop offset="0.91" stop-color="#4760F8" stop-opacity="0.02"/>
<stop offset="1" stop-color="#425AF8" stop-opacity="0"/>
</radialGradient>
<radialGradient id="paint3_radial_443_139" cx="0" cy="0" r="1" gradientUnits="userSpaceOnUse" gradientTransform="translate(45.8566 201.328) rotate(21.5947) scale(24.5789 0.889732)">
<stop stop-color="white"/>
<stop offset="0.17" stop-color="#D6EBFE" stop-opacity="0.76"/>
<stop offset="0.32" stop-color="#B3DBFC" stop-opacity="0.55"/>
<stop offset="0.39" stop-color="#A5D4FC" stop-opacity="0.47"/>
<stop offset="0.49" stop-color="#8BB5FB" stop-opacity="0.35"/>
<stop offset="0.64" stop-color="#6C8DFA" stop-opacity="0.2"/>
<stop offset="0.78" stop-color="#5571F9" stop-opacity="0.09"/>
<stop offset="0.91" stop-color="#4760F8" stop-opacity="0.02"/>
<stop offset="1" stop-color="#425AF8" stop-opacity="0"/>
</radialGradient>
<radialGradient id="paint4_radial_443_139" cx="0" cy="0" r="1" gradientUnits="userSpaceOnUse" gradientTransform="translate(563.921 331.377) rotate(-14.7145) scale(18.5487 0.376042)">
<stop stop-color="white"/>
<stop offset="0.17" stop-color="#D6EBFE" stop-opacity="0.76"/>
<stop offset="0.32" stop-color="#B3DBFC" stop-opacity="0.55"/>
<stop offset="0.39" stop-color="#A5D4FC" stop-opacity="0.47"/>
<stop offset="0.49" stop-color="#8BB5FB" stop-opacity="0.35"/>
<stop offset="0.64" stop-color="#6C8DFA" stop-opacity="0.2"/>
<stop offset="0.78" stop-color="#5571F9" stop-opacity="0.09"/>
<stop offset="0.91" stop-color="#4760F8" stop-opacity="0.02"/>
<stop offset="1" stop-color="#425AF8" stop-opacity="0"/>
</radialGradient>
<radialGradient id="paint5_radial_443_139" cx="0" cy="0" r="1" gradientUnits="userSpaceOnUse" gradientTransform="translate(359.531 179.638) rotate(17.2926) scale(28.6561 0.720375)">
<stop stop-color="white"/>
<stop offset="0.17" stop-color="#D6EBFE" stop-opacity="0.76"/>
<stop offset="0.32" stop-color="#B3DBFC" stop-opacity="0.55"/>
<stop offset="0.39" stop-color="#A5D4FC" stop-opacity="0.47"/>
<stop offset="0.49" stop-color="#8BB5FB" stop-opacity="0.35"/>
<stop offset="0.64" stop-color="#6C8DFA" stop-opacity="0.2"/>
<stop offset="0.78" stop-color="#5571F9" stop-opacity="0.09"/>
<stop offset="0.91" stop-color="#4760F8" stop-opacity="0.02"/>
<stop offset="1" stop-color="#425AF8" stop-opacity="0"/>
</radialGradient>
</defs>
</svg>
