<svg width="741" height="391" viewBox="0 0 741 391" fill="none" xmlns="http://www.w3.org/2000/svg">
<path style="mix-blend-mode:screen" opacity="0.35" d="M123.972 172.08C124.852 172.465 117.747 190.499 108.109 212.368C98.4706 234.238 89.9557 251.645 89.076 251.259C88.1963 250.874 95.3493 232.828 104.949 210.968C114.548 189.109 123.102 171.692 123.972 172.08Z" fill="url(#paint0_radial_461_383)"/>
<path style="mix-blend-mode:screen" opacity="0.35" d="M334.55 215.363C334.106 214.944 340.014 208.091 347.743 200.078C355.472 192.064 362.078 185.884 362.514 186.316C362.951 186.747 357.05 193.587 349.333 201.608C341.616 209.629 334.984 215.785 334.55 215.363Z" fill="url(#paint1_radial_461_383)"/>
<path style="mix-blend-mode:screen" opacity="0.35" d="M477.729 107.645C477.184 108.433 492.769 119.962 512.578 133.383C532.386 146.803 548.753 157.077 549.272 156.234C549.792 155.391 534.232 143.917 514.424 130.496C494.615 117.076 478.261 106.85 477.729 107.645Z" fill="url(#paint2_radial_461_383)"/>
<path style="mix-blend-mode:screen" opacity="0.35" d="M594.082 89.4404C594.203 89.8944 606.339 86.4253 621.144 81.713C635.949 77.0006 647.83 72.8129 647.643 72.3867C647.456 71.9605 635.386 75.4018 620.581 80.1142C605.776 84.8265 593.941 88.9916 594.082 89.4404Z" fill="url(#paint3_radial_461_383)"/>
<path style="mix-blend-mode:screen" opacity="0.35" d="M80.4436 333.061C80.6622 333.22 86.3449 325.682 93.1423 316.2C99.9397 306.717 105.264 298.924 105.036 298.768C104.808 298.611 99.1275 306.159 92.3275 315.631C85.5275 325.104 80.2154 332.905 80.4436 333.061Z" fill="url(#paint4_radial_461_383)"/>
<path style="mix-blend-mode:screen" opacity="0.35" d="M381.084 257.008C381.241 257.401 394.861 252.364 411.516 245.748C428.171 239.132 441.531 233.43 441.374 233.037C441.217 232.644 427.587 237.684 410.941 244.297C394.296 250.911 380.927 256.615 381.084 257.008Z" fill="url(#paint5_radial_461_383)"/>
<g style="mix-blend-mode:overlay" opacity="0.99">
<path d="M73.541 283.654L104.843 299.13L108.205 258.474L73.541 283.654Z" stroke="white" stroke-width="0.5" stroke-miterlimit="10"/>
</g>
<g style="mix-blend-mode:overlay" opacity="0.88">
<path d="M73.541 283.654L81.8826 258.684L108.205 258.474L126.939 281.987L114.973 279.944L108.205 258.474" stroke="white" stroke-width="0.5" stroke-miterlimit="10"/>
</g>
<g style="mix-blend-mode:overlay" opacity="0.39">
<path d="M55.2589 328.09L79.0695 334.578L104.843 299.13L55.2589 328.09Z" stroke="white" stroke-width="0.5" stroke-miterlimit="10"/>
</g>
<g style="mix-blend-mode:overlay" opacity="0.53">
<path d="M50.4303 305.51L55.2589 328.09L104.843 299.13L50.4303 305.51Z" stroke="white" stroke-width="0.5" stroke-miterlimit="10"/>
</g>
<g style="mix-blend-mode:overlay" opacity="0.9">
<path d="M60.525 343.802L55.2588 328.09L79.0695 334.578L60.525 343.802Z" stroke="white" stroke-width="0.5" stroke-miterlimit="10"/>
</g>
<g style="mix-blend-mode:overlay" opacity="0.4">
<path d="M126.939 281.987L135.832 295.164L143.377 280.895L126.939 281.987Z" stroke="white" stroke-width="0.5" stroke-miterlimit="10"/>
</g>
<g style="mix-blend-mode:overlay" opacity="0.37">
<path d="M143.377 280.895L157.299 243.218L135.086 237.399L143.377 280.895Z" stroke="white" stroke-width="0.5" stroke-miterlimit="10"/>
</g>
<g style="mix-blend-mode:overlay" opacity="0.39">
<path d="M144.511 223.465L145.082 218.757L134.953 212.288C134.918 212.271 134.88 212.266 134.842 212.274C134.805 212.282 134.772 212.302 134.747 212.332C134.723 212.361 134.709 212.397 134.708 212.435C134.707 212.473 134.718 212.511 134.741 212.541L144.511 223.465Z" stroke="white" stroke-width="0.5" stroke-miterlimit="10"/>
</g>
<g style="mix-blend-mode:overlay" opacity="0.32">
<path d="M215.677 274.546L207.353 245.066L232.612 247.491L215.677 274.546Z" stroke="white" stroke-width="0.5" stroke-miterlimit="10"/>
</g>
<g style="mix-blend-mode:overlay" opacity="0.63">
<path d="M123.732 324.071L122.099 307.043L136 314.8L123.732 324.071Z" stroke="white" stroke-width="0.5" stroke-miterlimit="10"/>
</g>
<g style="mix-blend-mode:overlay" opacity="0.5">
<path d="M346.31 275.944L345.371 266.142L353.378 270.602L346.31 275.944Z" stroke="white" stroke-width="0.5" stroke-miterlimit="10"/>
</g>
<g style="mix-blend-mode:overlay" opacity="0.48">
<path d="M57.5771 279.598L21.834 265.012L50.3982 250.68L57.5771 279.598Z" stroke="white" stroke-width="0.5" stroke-miterlimit="10"/>
</g>
<g style="mix-blend-mode:overlay" opacity="0.53">
<path d="M686.565 208.18L685.285 195.251L695.353 201.218L686.565 208.18Z" stroke="white" stroke-width="0.5" stroke-miterlimit="10"/>
</g>
<g style="mix-blend-mode:overlay" opacity="0.2">
<path d="M300.637 256.367L304.114 223.249L349.284 250.031L300.637 256.367Z" stroke="white" stroke-width="0.5" stroke-miterlimit="10"/>
</g>
<g style="mix-blend-mode:overlay" opacity="0.96">
<path d="M173.167 301.238L172.702 268.71L143.377 280.895L173.167 301.238ZM173.167 301.238L135.832 295.164" stroke="white" stroke-width="0.5" stroke-miterlimit="10"/>
</g>
<g style="mix-blend-mode:overlay" opacity="0.2">
<path d="M172.991 300.426L208.061 295.387L172.702 268.71L157.299 243.218L181.449 237.72L172.702 268.71" stroke="white" stroke-width="0.5" stroke-miterlimit="10"/>
</g>
<g style="mix-blend-mode:overlay" opacity="0.4">
<path d="M181.449 237.72L156.74 218.449L157.299 243.218" stroke="white" stroke-width="0.5" stroke-miterlimit="10"/>
</g>
<g style="mix-blend-mode:overlay" opacity="0.22">
<path d="M232.612 247.491L266.09 292.417L287.841 204.709L231.317 219.71L187.941 203.991L207.353 245.066L231.317 219.71L232.612 247.491ZM232.612 247.491L281.362 231.726L231.317 219.71" stroke="white" stroke-width="0.5" stroke-miterlimit="10"/>
</g>
<g style="mix-blend-mode:overlay" opacity="0.77">
<path d="M287.841 204.709L279.748 195.179L292.598 187.885L287.841 204.709Z" stroke="white" stroke-width="0.5" stroke-miterlimit="10"/>
</g>
<g style="mix-blend-mode:overlay" opacity="0.29">
<path d="M292.598 187.885L278.964 151.183L323.22 162.804L341.032 144.78L278.964 151.183L323.594 107.711L341.032 144.78" stroke="white" stroke-width="0.5" stroke-miterlimit="10"/>
</g>
<g style="mix-blend-mode:overlay" opacity="0.42">
<path d="M341.032 144.78L409.316 156.206L379.173 104.175L341.032 144.78Z" stroke="white" stroke-width="0.5" stroke-miterlimit="10"/>
</g>
<g style="mix-blend-mode:overlay" opacity="0.44">
<path d="M341.032 144.78L365.446 183.925L323.22 162.804" stroke="white" stroke-width="0.5" stroke-miterlimit="10"/>
</g>
<g style="mix-blend-mode:overlay" opacity="0.71">
<path d="M444.517 230.818L462.44 184.542L411.392 198.148L444.517 230.818ZM444.517 230.818L374.794 259.149L332.735 216.936" stroke="white" stroke-width="0.5" stroke-miterlimit="10"/>
</g>
<g style="mix-blend-mode:overlay">
<path d="M409.316 156.206L462.44 184.542L466.434 100.381L409.316 156.206Z" stroke="white" stroke-width="0.5" stroke-miterlimit="10"/>
</g>
<g style="mix-blend-mode:overlay">
<path d="M466.816 100.299L557.214 161.146L462.813 184.463L542.924 213.291L557.214 161.146" stroke="white" stroke-width="0.5" stroke-miterlimit="10"/>
</g>
<g style="mix-blend-mode:overlay" opacity="0.36">
<path d="M654.996 194.567L682.792 186.177L671.844 160.309L654.996 194.567Z" stroke="white" stroke-width="0.5" stroke-miterlimit="10"/>
</g>
<g style="mix-blend-mode:overlay" opacity="0.76">
<path d="M716.746 194.937L728.037 160.885L701.087 164.431L655.419 138.228L671.844 160.309L701.087 164.431L682.792 186.177L716.746 194.937ZM716.746 194.937L701.087 164.431" stroke="white" stroke-width="0.5" stroke-miterlimit="10"/>
</g>
<g style="mix-blend-mode:overlay" opacity="0.48">
<path d="M663.76 66.0805C661.888 69.4085 569.526 95.7408 569.526 95.7408" stroke="white" stroke-width="0.5" stroke-miterlimit="10"/>
</g>
<g style="mix-blend-mode:overlay" opacity="0.92">
<path d="M278.964 151.183L279.748 195.179L207.816 144.251L278.964 151.183Z" stroke="white" stroke-width="0.5" stroke-miterlimit="10"/>
</g>
<g style="mix-blend-mode:overlay" opacity="0.2">
<path d="M655.419 138.228L663.76 66.0804L698.285 116.109L655.419 138.228Z" stroke="white" stroke-width="0.5" stroke-miterlimit="10"/>
</g>
<g style="mix-blend-mode:overlay" opacity="0.2">
<path d="M617.399 191.337C617.141 191.997 579.361 249.711 579.361 249.711L542.551 213.37L617.102 192.007L655.427 138.257L569.502 95.7677L504.184 48.4302L466.41 100.408L569.526 95.7406L556.85 161.254L617.11 192.036L569.572 95.7593L571.342 38.1895L504.255 48.4217" stroke="white" stroke-width="0.5" stroke-miterlimit="10"/>
</g>
<g style="mix-blend-mode:overlay" opacity="0.2">
<path d="M233.968 217.933L207.816 144.251L323.594 107.71" stroke="white" stroke-width="0.5" stroke-miterlimit="10"/>
</g>
<g style="mix-blend-mode:overlay" opacity="0.2">
<path d="M187.941 203.991L153.484 145.755L207.816 144.251L187.941 203.991ZM187.941 203.991L156.74 218.449L207.353 245.066" stroke="white" stroke-width="0.5" stroke-miterlimit="10"/>
</g>
<g style="mix-blend-mode:overlay">
<path d="M281.401 231.716L287.879 204.699L332.774 216.926M332.774 216.926L292.637 187.874L323.259 162.794L332.774 216.926ZM332.774 216.926L365.484 183.915L409.316 156.206L411.392 198.148M411.392 198.148C411.392 198.148 367.086 185.681 365.446 183.925L374.794 259.149L411.392 198.148Z" stroke="white" stroke-width="0.5" stroke-miterlimit="10"/>
</g>
<g style="mix-blend-mode:overlay" opacity="0.2">
<path d="M126.664 168.449C123.563 169.86 27.4204 188.726 26.1959 190.918C24.9714 193.11 81.8852 258.694 81.8852 258.694L126.667 168.459L108.35 259.171" stroke="white" stroke-width="0.5" stroke-miterlimit="10"/>
</g>
<g style="mix-blend-mode:overlay" opacity="0.2">
<path d="M153.487 145.764L156.74 218.449" stroke="white" stroke-width="0.5" stroke-miterlimit="10"/>
</g>
<defs>
<radialGradient id="paint0_radial_461_383" cx="0" cy="0" r="1" gradientUnits="userSpaceOnUse" gradientTransform="translate(116.398 201.341) rotate(-65.4206) scale(37.892 1.58067)">
<stop stop-color="white"/>
<stop offset="0.17" stop-color="#D6EBFE" stop-opacity="0.76"/>
<stop offset="0.32" stop-color="#B3DBFC" stop-opacity="0.55"/>
<stop offset="0.39" stop-color="#A5D4FC" stop-opacity="0.47"/>
<stop offset="0.49" stop-color="#8BB5FB" stop-opacity="0.35"/>
<stop offset="0.64" stop-color="#6C8DFA" stop-opacity="0.2"/>
<stop offset="0.78" stop-color="#5571F9" stop-opacity="0.09"/>
<stop offset="0.91" stop-color="#4760F8" stop-opacity="0.02"/>
<stop offset="1" stop-color="#425AF8" stop-opacity="0"/>
</radialGradient>
<radialGradient id="paint1_radial_461_383" cx="0" cy="0" r="1" gradientUnits="userSpaceOnUse" gradientTransform="translate(287.682 165.61) rotate(134.47) scale(17.6308 0.748236)">
<stop stop-color="white"/>
<stop offset="0.17" stop-color="#D6EBFE" stop-opacity="0.76"/>
<stop offset="0.32" stop-color="#B3DBFC" stop-opacity="0.55"/>
<stop offset="0.39" stop-color="#A5D4FC" stop-opacity="0.47"/>
<stop offset="0.49" stop-color="#8BB5FB" stop-opacity="0.35"/>
<stop offset="0.64" stop-color="#6C8DFA" stop-opacity="0.2"/>
<stop offset="0.78" stop-color="#5571F9" stop-opacity="0.09"/>
<stop offset="0.91" stop-color="#4760F8" stop-opacity="0.02"/>
<stop offset="1" stop-color="#425AF8" stop-opacity="0"/>
</radialGradient>
<radialGradient id="paint2_radial_461_383" cx="0" cy="0" r="1" gradientUnits="userSpaceOnUse" gradientTransform="translate(528.544 123.73) rotate(-146.241) scale(37.8136 1.68907)">
<stop stop-color="white"/>
<stop offset="0.17" stop-color="#D6EBFE" stop-opacity="0.76"/>
<stop offset="0.32" stop-color="#B3DBFC" stop-opacity="0.55"/>
<stop offset="0.39" stop-color="#A5D4FC" stop-opacity="0.47"/>
<stop offset="0.49" stop-color="#8BB5FB" stop-opacity="0.35"/>
<stop offset="0.64" stop-color="#6C8DFA" stop-opacity="0.2"/>
<stop offset="0.78" stop-color="#5571F9" stop-opacity="0.09"/>
<stop offset="0.91" stop-color="#4760F8" stop-opacity="0.02"/>
<stop offset="1" stop-color="#425AF8" stop-opacity="0"/>
</radialGradient>
<radialGradient id="paint3_radial_461_383" cx="0" cy="0" r="1" gradientUnits="userSpaceOnUse" gradientTransform="translate(645.808 24.0339) rotate(162.274) scale(24.5789 0.889732)">
<stop stop-color="white"/>
<stop offset="0.17" stop-color="#D6EBFE" stop-opacity="0.76"/>
<stop offset="0.32" stop-color="#B3DBFC" stop-opacity="0.55"/>
<stop offset="0.39" stop-color="#A5D4FC" stop-opacity="0.47"/>
<stop offset="0.49" stop-color="#8BB5FB" stop-opacity="0.35"/>
<stop offset="0.64" stop-color="#6C8DFA" stop-opacity="0.2"/>
<stop offset="0.78" stop-color="#5571F9" stop-opacity="0.09"/>
<stop offset="0.91" stop-color="#4760F8" stop-opacity="0.02"/>
<stop offset="1" stop-color="#425AF8" stop-opacity="0"/>
</radialGradient>
<radialGradient id="paint4_radial_461_383" cx="0" cy="0" r="1" gradientUnits="userSpaceOnUse" gradientTransform="translate(162.622 251.706) rotate(125.965) scale(18.5487 0.376042)">
<stop stop-color="white"/>
<stop offset="0.17" stop-color="#D6EBFE" stop-opacity="0.76"/>
<stop offset="0.32" stop-color="#B3DBFC" stop-opacity="0.55"/>
<stop offset="0.39" stop-color="#A5D4FC" stop-opacity="0.47"/>
<stop offset="0.49" stop-color="#8BB5FB" stop-opacity="0.35"/>
<stop offset="0.64" stop-color="#6C8DFA" stop-opacity="0.2"/>
<stop offset="0.78" stop-color="#5571F9" stop-opacity="0.09"/>
<stop offset="0.91" stop-color="#4760F8" stop-opacity="0.02"/>
<stop offset="1" stop-color="#425AF8" stop-opacity="0"/>
</radialGradient>
<radialGradient id="paint5_radial_461_383" cx="0" cy="0" r="1" gradientUnits="userSpaceOnUse" gradientTransform="translate(416.891 239.577) rotate(157.972) scale(28.6561 0.720375)">
<stop stop-color="white"/>
<stop offset="0.17" stop-color="#D6EBFE" stop-opacity="0.76"/>
<stop offset="0.32" stop-color="#B3DBFC" stop-opacity="0.55"/>
<stop offset="0.39" stop-color="#A5D4FC" stop-opacity="0.47"/>
<stop offset="0.49" stop-color="#8BB5FB" stop-opacity="0.35"/>
<stop offset="0.64" stop-color="#6C8DFA" stop-opacity="0.2"/>
<stop offset="0.78" stop-color="#5571F9" stop-opacity="0.09"/>
<stop offset="0.91" stop-color="#4760F8" stop-opacity="0.02"/>
<stop offset="1" stop-color="#425AF8" stop-opacity="0"/>
</radialGradient>
</defs>
</svg>
