<svg width="36" height="42" viewBox="0 0 36 42" fill="none" xmlns="http://www.w3.org/2000/svg">
<path d="M8.21216 8.83974C8.00847 8.83974 7.84182 9.00639 7.84182 9.21007V11.4321C7.84182 11.6358 8.00847 11.8024 8.21216 11.8024H25.9883C26.192 11.8024 26.3587 11.6358 26.3587 11.4321V9.21007C26.3587 9.00639 26.192 8.83974 25.9883 8.83974H8.21216ZM16.7299 15.5058H8.21216C8.00847 15.5058 7.84182 15.6725 7.84182 15.8761V18.0982C7.84182 18.3018 8.00847 18.4685 8.21216 18.4685H16.7299C16.9336 18.4685 17.1002 18.3018 17.1002 18.0982V15.8761C17.1002 15.6725 16.9336 15.5058 16.7299 15.5058ZM14.5079 36.7076H4.13845V4.11794H30.062V18.9314C30.062 19.1351 30.2287 19.3018 30.4324 19.3018H33.0247C33.2284 19.3018 33.3951 19.1351 33.3951 18.9314V2.26626C33.3951 1.44689 32.7331 0.784912 31.9137 0.784912H2.28677C1.4674 0.784912 0.80542 1.44689 0.80542 2.26626V38.5593C0.80542 39.3786 1.4674 40.0406 2.28677 40.0406H14.5079C14.7116 40.0406 14.8782 39.874 14.8782 39.6703V37.0779C14.8782 36.8742 14.7116 36.7076 14.5079 36.7076ZM34.8764 32.6339H28.2103V30.9396C30.3537 30.3008 31.9137 28.3195 31.9137 25.9678C31.9137 23.1023 29.5945 20.7831 26.729 20.7831C23.8635 20.7831 21.5443 23.1023 21.5443 25.9678C21.5443 28.3148 23.1043 30.3008 25.2477 30.9396V32.6339H18.5816C18.1742 32.6339 17.8409 32.9672 17.8409 33.3745V40.4109C17.8409 40.8183 18.1742 41.1516 18.5816 41.1516H34.8764C35.2838 41.1516 35.6171 40.8183 35.6171 40.4109V33.3745C35.6171 32.9672 35.2838 32.6339 34.8764 32.6339ZM24.4144 25.9678C24.4144 24.6902 25.4513 23.6532 26.729 23.6532C28.0067 23.6532 29.0436 24.6902 29.0436 25.9678C29.0436 27.2455 28.0067 28.2824 26.729 28.2824C25.4513 28.2824 24.4144 27.2455 24.4144 25.9678ZM32.747 38.2815H20.711V35.504H32.747V38.2815Z" fill="#7DADF4"/>
</svg>
