<svg width="303" height="191" viewBox="0 0 303 191" fill="none" xmlns="http://www.w3.org/2000/svg">
<g filter="url(#filter0_i_141_1130)">
<rect x="0.249756" y="0.638184" width="302.75" height="189.724" rx="13.4556" fill="url(#paint0_linear_141_1130)"/>
</g>
<path d="M42.4498 115.173C42.3165 115.173 42.2032 115.126 42.1098 115.033C42.0165 114.94 41.9698 114.826 41.9698 114.693V103.633H38.2698C38.1365 103.633 38.0232 103.586 37.9298 103.493C37.8365 103.4 37.7898 103.286 37.7898 103.153V101.673C37.7898 101.526 37.8365 101.406 37.9298 101.313C38.0232 101.22 38.1365 101.173 38.2698 101.173H48.4699C48.6165 101.173 48.7365 101.22 48.8299 101.313C48.9232 101.406 48.9698 101.526 48.9698 101.673V103.153C48.9698 103.286 48.9232 103.4 48.8299 103.493C48.7365 103.586 48.6165 103.633 48.4699 103.633H44.7898V114.693C44.7898 114.826 44.7432 114.94 44.6498 115.033C44.5565 115.126 44.4365 115.173 44.2898 115.173H42.4498ZM50.8881 115.173C50.7548 115.173 50.6415 115.126 50.5481 115.033C50.4548 114.94 50.4081 114.826 50.4081 114.693V101.453C50.4081 101.32 50.4548 101.206 50.5481 101.113C50.6415 101.02 50.7548 100.973 50.8881 100.973H52.6681C52.8148 100.973 52.9281 101.02 53.0081 101.113C53.1015 101.206 53.1481 101.32 53.1481 101.453V106.013C53.5081 105.586 53.9481 105.24 54.4681 104.973C54.9881 104.706 55.6281 104.573 56.3881 104.573C57.2015 104.573 57.9081 104.76 58.5081 105.133C59.1215 105.493 59.5948 106.006 59.9281 106.673C60.2615 107.34 60.4281 108.14 60.4281 109.073V114.693C60.4281 114.826 60.3815 114.94 60.2881 115.033C60.1948 115.126 60.0815 115.173 59.9481 115.173H58.1481C58.0148 115.173 57.9015 115.126 57.8081 115.033C57.7148 114.94 57.6681 114.826 57.6681 114.693V109.193C57.6681 108.42 57.4748 107.813 57.0881 107.373C56.7148 106.933 56.1681 106.713 55.4481 106.713C54.7548 106.713 54.1948 106.933 53.7681 107.373C53.3548 107.813 53.1481 108.42 53.1481 109.193V114.693C53.1481 114.826 53.1015 114.94 53.0081 115.033C52.9281 115.126 52.8148 115.173 52.6681 115.173H50.8881ZM67.4463 115.373C65.9663 115.373 64.7929 114.946 63.9263 114.093C63.0596 113.24 62.5929 112.026 62.5263 110.453C62.5129 110.32 62.5063 110.153 62.5063 109.953C62.5063 109.74 62.5129 109.573 62.5263 109.453C62.5796 108.453 62.8063 107.586 63.2063 106.853C63.6196 106.12 64.1863 105.56 64.9063 105.173C65.6263 104.773 66.4729 104.573 67.4463 104.573C68.5263 104.573 69.4329 104.8 70.1663 105.253C70.8996 105.693 71.4529 106.313 71.8263 107.113C72.1996 107.9 72.3863 108.813 72.3863 109.853V110.273C72.3863 110.406 72.3396 110.52 72.2463 110.613C72.1529 110.706 72.0329 110.753 71.8863 110.753H65.2463C65.2463 110.753 65.2463 110.773 65.2463 110.813C65.2463 110.853 65.2463 110.886 65.2463 110.913C65.2596 111.38 65.3463 111.813 65.5063 112.213C65.6796 112.6 65.9263 112.913 66.2463 113.153C66.5796 113.393 66.9729 113.513 67.4263 113.513C67.7996 113.513 68.1129 113.46 68.3663 113.353C68.6196 113.233 68.8263 113.1 68.9863 112.953C69.1463 112.806 69.2596 112.686 69.3263 112.593C69.4463 112.433 69.5396 112.34 69.6063 112.313C69.6863 112.273 69.7996 112.253 69.9463 112.253H71.6663C71.7996 112.253 71.9063 112.293 71.9863 112.373C72.0796 112.453 72.1196 112.553 72.1063 112.673C72.0929 112.886 71.9796 113.146 71.7663 113.453C71.5663 113.76 71.2729 114.06 70.8863 114.353C70.4996 114.646 70.0129 114.893 69.4263 115.093C68.8529 115.28 68.1929 115.373 67.4463 115.373ZM65.2463 109.073H69.6663V109.013C69.6663 108.493 69.5796 108.04 69.4063 107.653C69.2329 107.266 68.9796 106.96 68.6463 106.733C68.3129 106.506 67.9129 106.393 67.4463 106.393C66.9796 106.393 66.5796 106.506 66.2463 106.733C65.9129 106.96 65.6596 107.266 65.4863 107.653C65.3263 108.04 65.2463 108.493 65.2463 109.013V109.073ZM79.5795 118.973C79.4462 118.973 79.3329 118.926 79.2395 118.833C79.1462 118.74 79.0995 118.626 79.0995 118.493V105.253C79.0995 105.12 79.1462 105.006 79.2395 104.913C79.3329 104.82 79.4462 104.773 79.5795 104.773H81.1595C81.3062 104.773 81.4195 104.82 81.4995 104.913C81.5929 105.006 81.6395 105.12 81.6395 105.253V106.053C81.9595 105.626 82.3795 105.273 82.8995 104.993C83.4195 104.713 84.0662 104.573 84.8395 104.573C85.5462 104.573 86.1595 104.686 86.6795 104.913C87.1995 105.14 87.6329 105.466 87.9795 105.893C88.3262 106.306 88.5929 106.8 88.7795 107.373C88.9662 107.946 89.0729 108.58 89.0995 109.273C89.1129 109.5 89.1195 109.733 89.1195 109.973C89.1195 110.213 89.1129 110.453 89.0995 110.693C89.0862 111.36 88.9862 111.98 88.7995 112.553C88.6129 113.113 88.3395 113.606 87.9795 114.033C87.6329 114.446 87.1995 114.773 86.6795 115.013C86.1595 115.253 85.5462 115.373 84.8395 115.373C84.1195 115.373 83.5062 115.246 82.9995 114.993C82.4929 114.726 82.0795 114.38 81.7595 113.953V118.493C81.7595 118.626 81.7129 118.74 81.6195 118.833C81.5395 118.926 81.4262 118.973 81.2795 118.973H79.5795ZM84.0995 113.233C84.6729 113.233 85.1195 113.113 85.4395 112.873C85.7595 112.62 85.9862 112.293 86.1195 111.893C86.2662 111.493 86.3529 111.053 86.3795 110.573C86.4062 110.173 86.4062 109.773 86.3795 109.373C86.3529 108.893 86.2662 108.453 86.1195 108.053C85.9862 107.653 85.7595 107.333 85.4395 107.093C85.1195 106.84 84.6729 106.713 84.0995 106.713C83.5529 106.713 83.1062 106.84 82.7595 107.093C82.4262 107.346 82.1795 107.673 82.0195 108.073C81.8729 108.46 81.7862 108.86 81.7595 109.273C81.7462 109.513 81.7395 109.766 81.7395 110.033C81.7395 110.3 81.7462 110.56 81.7595 110.813C81.7729 111.213 81.8662 111.6 82.0395 111.973C82.2129 112.333 82.4662 112.633 82.7995 112.873C83.1329 113.113 83.5662 113.233 84.0995 113.233ZM91.8447 115.173C91.7114 115.173 91.598 115.126 91.5047 115.033C91.4114 114.94 91.3647 114.826 91.3647 114.693V105.273C91.3647 105.126 91.4114 105.006 91.5047 104.913C91.598 104.82 91.7114 104.773 91.8447 104.773H93.4647C93.598 104.773 93.7114 104.82 93.8047 104.913C93.9114 105.006 93.9647 105.126 93.9647 105.273V106.093C94.2714 105.666 94.6647 105.34 95.1447 105.113C95.638 104.886 96.2047 104.773 96.8447 104.773H97.6647C97.8114 104.773 97.9247 104.82 98.0047 104.913C98.098 105.006 98.1447 105.12 98.1447 105.253V106.693C98.1447 106.826 98.098 106.94 98.0047 107.033C97.9247 107.126 97.8114 107.173 97.6647 107.173H96.1047C95.4647 107.173 94.9647 107.353 94.6047 107.713C94.258 108.073 94.0847 108.566 94.0847 109.193V114.693C94.0847 114.826 94.038 114.94 93.9447 115.033C93.8514 115.126 93.7314 115.173 93.5847 115.173H91.8447ZM104.168 115.373C103.101 115.373 102.201 115.186 101.468 114.813C100.748 114.44 100.194 113.913 99.8078 113.233C99.4345 112.553 99.2212 111.76 99.1678 110.853C99.1545 110.613 99.1478 110.32 99.1478 109.973C99.1478 109.626 99.1545 109.333 99.1678 109.093C99.2212 108.173 99.4412 107.38 99.8278 106.713C100.228 106.033 100.788 105.506 101.508 105.133C102.241 104.76 103.128 104.573 104.168 104.573C105.208 104.573 106.088 104.76 106.808 105.133C107.541 105.506 108.101 106.033 108.488 106.713C108.888 107.38 109.114 108.173 109.168 109.093C109.181 109.333 109.188 109.626 109.188 109.973C109.188 110.32 109.181 110.613 109.168 110.853C109.114 111.76 108.894 112.553 108.508 113.233C108.134 113.913 107.581 114.44 106.848 114.813C106.128 115.186 105.234 115.373 104.168 115.373ZM104.168 113.393C104.874 113.393 105.421 113.173 105.808 112.733C106.194 112.28 106.408 111.62 106.448 110.753C106.461 110.553 106.468 110.293 106.468 109.973C106.468 109.653 106.461 109.393 106.448 109.193C106.408 108.34 106.194 107.686 105.808 107.233C105.421 106.78 104.874 106.553 104.168 106.553C103.461 106.553 102.914 106.78 102.528 107.233C102.141 107.686 101.928 108.34 101.888 109.193C101.874 109.393 101.868 109.653 101.868 109.973C101.868 110.293 101.874 110.553 101.888 110.753C101.928 111.62 102.141 112.28 102.528 112.733C102.914 113.173 103.461 113.393 104.168 113.393ZM116.026 115.173C115.226 115.173 114.552 115.033 114.006 114.753C113.459 114.473 113.052 114.06 112.786 113.513C112.519 112.953 112.386 112.26 112.386 111.433V106.893H110.806C110.672 106.893 110.559 106.846 110.466 106.753C110.372 106.66 110.326 106.546 110.326 106.413V105.253C110.326 105.12 110.372 105.006 110.466 104.913C110.559 104.82 110.672 104.773 110.806 104.773H112.386V101.453C112.386 101.32 112.426 101.206 112.506 101.113C112.599 101.02 112.719 100.973 112.866 100.973H114.486C114.619 100.973 114.732 101.02 114.826 101.113C114.919 101.206 114.966 101.32 114.966 101.453V104.773H117.466C117.599 104.773 117.712 104.82 117.806 104.913C117.899 105.006 117.946 105.12 117.946 105.253V106.413C117.946 106.546 117.899 106.66 117.806 106.753C117.712 106.846 117.599 106.893 117.466 106.893H114.966V111.233C114.966 111.78 115.059 112.206 115.246 112.513C115.446 112.82 115.786 112.973 116.266 112.973H117.646C117.779 112.973 117.892 113.02 117.986 113.113C118.079 113.206 118.126 113.32 118.126 113.453V114.693C118.126 114.826 118.079 114.94 117.986 115.033C117.892 115.126 117.779 115.173 117.646 115.173H116.026ZM124.5 115.373C123.433 115.373 122.533 115.186 121.8 114.813C121.08 114.44 120.527 113.913 120.14 113.233C119.767 112.553 119.553 111.76 119.5 110.853C119.487 110.613 119.48 110.32 119.48 109.973C119.48 109.626 119.487 109.333 119.5 109.093C119.553 108.173 119.773 107.38 120.16 106.713C120.56 106.033 121.12 105.506 121.84 105.133C122.573 104.76 123.46 104.573 124.5 104.573C125.54 104.573 126.42 104.76 127.14 105.133C127.873 105.506 128.433 106.033 128.82 106.713C129.22 107.38 129.447 108.173 129.5 109.093C129.513 109.333 129.52 109.626 129.52 109.973C129.52 110.32 129.513 110.613 129.5 110.853C129.447 111.76 129.227 112.553 128.84 113.233C128.467 113.913 127.913 114.44 127.18 114.813C126.46 115.186 125.567 115.373 124.5 115.373ZM124.5 113.393C125.207 113.393 125.753 113.173 126.14 112.733C126.527 112.28 126.74 111.62 126.78 110.753C126.793 110.553 126.8 110.293 126.8 109.973C126.8 109.653 126.793 109.393 126.78 109.193C126.74 108.34 126.527 107.686 126.14 107.233C125.753 106.78 125.207 106.553 124.5 106.553C123.793 106.553 123.247 106.78 122.86 107.233C122.473 107.686 122.26 108.34 122.22 109.193C122.207 109.393 122.2 109.653 122.2 109.973C122.2 110.293 122.207 110.553 122.22 110.753C122.26 111.62 122.473 112.28 122.86 112.733C123.247 113.173 123.793 113.393 124.5 113.393ZM136.236 115.373C135.276 115.373 134.429 115.193 133.696 114.833C132.976 114.473 132.409 113.953 131.996 113.273C131.596 112.58 131.376 111.746 131.336 110.773C131.322 110.573 131.316 110.313 131.316 109.993C131.316 109.66 131.322 109.386 131.336 109.173C131.376 108.2 131.596 107.373 131.996 106.693C132.409 106 132.976 105.473 133.696 105.113C134.429 104.753 135.276 104.573 136.236 104.573C137.089 104.573 137.816 104.693 138.416 104.933C139.016 105.173 139.509 105.473 139.896 105.833C140.282 106.193 140.569 106.573 140.756 106.973C140.956 107.36 141.062 107.713 141.076 108.033C141.089 108.18 141.042 108.3 140.936 108.393C140.842 108.473 140.729 108.513 140.596 108.513H138.836C138.702 108.513 138.596 108.48 138.516 108.413C138.449 108.346 138.382 108.246 138.316 108.113C138.116 107.58 137.849 107.206 137.516 106.993C137.196 106.766 136.782 106.653 136.276 106.653C135.609 106.653 135.076 106.866 134.676 107.293C134.289 107.706 134.082 108.366 134.056 109.273C134.029 109.78 134.029 110.246 134.056 110.673C134.082 111.593 134.289 112.26 134.676 112.673C135.076 113.086 135.609 113.293 136.276 113.293C136.796 113.293 137.216 113.186 137.536 112.973C137.856 112.746 138.116 112.366 138.316 111.833C138.382 111.7 138.449 111.6 138.516 111.533C138.596 111.466 138.702 111.433 138.836 111.433H140.596C140.729 111.433 140.842 111.48 140.936 111.573C141.042 111.653 141.089 111.766 141.076 111.913C141.062 112.153 140.996 112.426 140.876 112.733C140.769 113.026 140.589 113.333 140.336 113.653C140.096 113.96 139.789 114.246 139.416 114.513C139.042 114.766 138.589 114.973 138.056 115.133C137.536 115.293 136.929 115.373 136.236 115.373ZM147.762 115.373C146.695 115.373 145.795 115.186 145.062 114.813C144.342 114.44 143.788 113.913 143.402 113.233C143.028 112.553 142.815 111.76 142.762 110.853C142.748 110.613 142.742 110.32 142.742 109.973C142.742 109.626 142.748 109.333 142.762 109.093C142.815 108.173 143.035 107.38 143.422 106.713C143.822 106.033 144.382 105.506 145.102 105.133C145.835 104.76 146.722 104.573 147.762 104.573C148.802 104.573 149.682 104.76 150.402 105.133C151.135 105.506 151.695 106.033 152.082 106.713C152.482 107.38 152.708 108.173 152.762 109.093C152.775 109.333 152.782 109.626 152.782 109.973C152.782 110.32 152.775 110.613 152.762 110.853C152.708 111.76 152.488 112.553 152.102 113.233C151.728 113.913 151.175 114.44 150.442 114.813C149.722 115.186 148.828 115.373 147.762 115.373ZM147.762 113.393C148.468 113.393 149.015 113.173 149.402 112.733C149.788 112.28 150.002 111.62 150.042 110.753C150.055 110.553 150.062 110.293 150.062 109.973C150.062 109.653 150.055 109.393 150.042 109.193C150.002 108.34 149.788 107.686 149.402 107.233C149.015 106.78 148.468 106.553 147.762 106.553C147.055 106.553 146.508 106.78 146.122 107.233C145.735 107.686 145.522 108.34 145.482 109.193C145.468 109.393 145.462 109.653 145.462 109.973C145.462 110.293 145.468 110.553 145.482 110.753C145.522 111.62 145.735 112.28 146.122 112.733C146.508 113.173 147.055 113.393 147.762 113.393ZM155.498 115.173C155.364 115.173 155.251 115.126 155.158 115.033C155.064 114.94 155.018 114.826 155.018 114.693V101.453C155.018 101.32 155.064 101.206 155.158 101.113C155.251 101.02 155.364 100.973 155.498 100.973H157.158C157.291 100.973 157.404 101.02 157.498 101.113C157.591 101.206 157.638 101.32 157.638 101.453V114.693C157.638 114.826 157.591 114.94 157.498 115.033C157.404 115.126 157.291 115.173 157.158 115.173H155.498ZM165.341 115.173C165.207 115.173 165.094 115.126 165.001 115.033C164.907 114.94 164.861 114.826 164.861 114.693V105.253C164.861 105.12 164.907 105.006 165.001 104.913C165.094 104.82 165.207 104.773 165.341 104.773H167.001C167.147 104.773 167.261 104.82 167.341 104.913C167.434 105.006 167.481 105.12 167.481 105.253V114.693C167.481 114.826 167.434 114.94 167.341 115.033C167.261 115.126 167.147 115.173 167.001 115.173H165.341ZM165.261 103.053C165.114 103.053 164.994 103.013 164.901 102.933C164.821 102.84 164.781 102.72 164.781 102.573V101.133C164.781 101 164.821 100.886 164.901 100.793C164.994 100.7 165.114 100.653 165.261 100.653H167.081C167.227 100.653 167.347 100.7 167.441 100.793C167.534 100.886 167.581 101 167.581 101.133V102.573C167.581 102.72 167.534 102.84 167.441 102.933C167.347 103.013 167.227 103.053 167.081 103.053H165.261ZM174.309 115.373C173.509 115.373 172.822 115.28 172.249 115.093C171.689 114.906 171.229 114.673 170.869 114.393C170.509 114.113 170.242 113.833 170.069 113.553C169.895 113.273 169.802 113.04 169.789 112.853C169.775 112.706 169.815 112.593 169.909 112.513C170.015 112.42 170.129 112.373 170.249 112.373H171.829C171.882 112.373 171.929 112.38 171.969 112.393C172.009 112.406 172.062 112.446 172.129 112.513C172.302 112.66 172.482 112.813 172.669 112.973C172.869 113.133 173.102 113.273 173.369 113.393C173.635 113.5 173.969 113.553 174.369 113.553C174.889 113.553 175.322 113.453 175.669 113.253C176.029 113.04 176.209 112.74 176.209 112.353C176.209 112.073 176.129 111.846 175.969 111.673C175.822 111.5 175.542 111.346 175.129 111.213C174.715 111.066 174.129 110.913 173.369 110.753C172.622 110.58 172.002 110.36 171.509 110.093C171.015 109.826 170.649 109.493 170.409 109.093C170.169 108.693 170.049 108.226 170.049 107.693C170.049 107.173 170.202 106.68 170.509 106.213C170.829 105.733 171.295 105.34 171.909 105.033C172.535 104.726 173.309 104.573 174.229 104.573C174.949 104.573 175.575 104.666 176.109 104.853C176.642 105.026 177.082 105.246 177.429 105.513C177.789 105.78 178.062 106.053 178.249 106.333C178.435 106.6 178.535 106.833 178.549 107.033C178.562 107.18 178.522 107.3 178.429 107.393C178.335 107.473 178.229 107.513 178.109 107.513H176.629C176.562 107.513 176.502 107.5 176.449 107.473C176.395 107.446 176.342 107.413 176.289 107.373C176.142 107.24 175.982 107.1 175.809 106.953C175.635 106.806 175.422 106.68 175.169 106.573C174.929 106.453 174.609 106.393 174.209 106.393C173.702 106.393 173.315 106.506 173.049 106.733C172.782 106.946 172.649 107.22 172.649 107.553C172.649 107.78 172.709 107.98 172.829 108.153C172.962 108.313 173.222 108.466 173.609 108.613C173.995 108.76 174.582 108.913 175.369 109.073C176.262 109.233 176.969 109.473 177.489 109.793C178.022 110.1 178.395 110.46 178.609 110.873C178.835 111.273 178.949 111.72 178.949 112.213C178.949 112.813 178.769 113.353 178.409 113.833C178.062 114.313 177.542 114.693 176.849 114.973C176.169 115.24 175.322 115.373 174.309 115.373ZM186.832 115.173C186.699 115.173 186.585 115.126 186.492 115.033C186.399 114.94 186.352 114.826 186.352 114.693V106.893H184.732C184.599 106.893 184.485 106.846 184.392 106.753C184.299 106.66 184.252 106.546 184.252 106.413V105.253C184.252 105.12 184.299 105.006 184.392 104.913C184.485 104.82 184.599 104.773 184.732 104.773H186.352V103.953C186.352 103.153 186.499 102.493 186.792 101.973C187.085 101.44 187.519 101.04 188.092 100.773C188.665 100.506 189.392 100.373 190.272 100.373H191.632C191.779 100.373 191.892 100.42 191.972 100.513C192.065 100.606 192.112 100.72 192.112 100.853V102.013C192.112 102.146 192.065 102.26 191.972 102.353C191.892 102.446 191.779 102.493 191.632 102.493H190.352C189.819 102.493 189.452 102.626 189.252 102.893C189.052 103.16 188.952 103.546 188.952 104.053V104.773H191.432C191.579 104.773 191.692 104.82 191.772 104.913C191.865 105.006 191.912 105.12 191.912 105.253V106.413C191.912 106.546 191.865 106.66 191.772 106.753C191.692 106.846 191.579 106.893 191.432 106.893H188.952V114.693C188.952 114.826 188.905 114.94 188.812 115.033C188.719 115.126 188.605 115.173 188.472 115.173H186.832ZM197.957 115.373C196.89 115.373 195.99 115.186 195.257 114.813C194.537 114.44 193.984 113.913 193.597 113.233C193.224 112.553 193.01 111.76 192.957 110.853C192.944 110.613 192.937 110.32 192.937 109.973C192.937 109.626 192.944 109.333 192.957 109.093C193.01 108.173 193.23 107.38 193.617 106.713C194.017 106.033 194.577 105.506 195.297 105.133C196.03 104.76 196.917 104.573 197.957 104.573C198.997 104.573 199.877 104.76 200.597 105.133C201.33 105.506 201.89 106.033 202.277 106.713C202.677 107.38 202.904 108.173 202.957 109.093C202.97 109.333 202.977 109.626 202.977 109.973C202.977 110.32 202.97 110.613 202.957 110.853C202.904 111.76 202.684 112.553 202.297 113.233C201.924 113.913 201.37 114.44 200.637 114.813C199.917 115.186 199.024 115.373 197.957 115.373ZM197.957 113.393C198.664 113.393 199.21 113.173 199.597 112.733C199.984 112.28 200.197 111.62 200.237 110.753C200.25 110.553 200.257 110.293 200.257 109.973C200.257 109.653 200.25 109.393 200.237 109.193C200.197 108.34 199.984 107.686 199.597 107.233C199.21 106.78 198.664 106.553 197.957 106.553C197.25 106.553 196.704 106.78 196.317 107.233C195.93 107.686 195.717 108.34 195.677 109.193C195.664 109.393 195.657 109.653 195.657 109.973C195.657 110.293 195.664 110.553 195.677 110.753C195.717 111.62 195.93 112.28 196.317 112.733C196.704 113.173 197.25 113.393 197.957 113.393ZM205.673 115.173C205.539 115.173 205.426 115.126 205.333 115.033C205.239 114.94 205.193 114.826 205.193 114.693V105.273C205.193 105.126 205.239 105.006 205.333 104.913C205.426 104.82 205.539 104.773 205.673 104.773H207.293C207.426 104.773 207.539 104.82 207.633 104.913C207.739 105.006 207.793 105.126 207.793 105.273V106.093C208.099 105.666 208.493 105.34 208.973 105.113C209.466 104.886 210.033 104.773 210.673 104.773H211.493C211.639 104.773 211.753 104.82 211.833 104.913C211.926 105.006 211.973 105.12 211.973 105.253V106.693C211.973 106.826 211.926 106.94 211.833 107.033C211.753 107.126 211.639 107.173 211.493 107.173H209.933C209.293 107.173 208.793 107.353 208.433 107.713C208.086 108.073 207.913 108.566 207.913 109.193V114.693C207.913 114.826 207.866 114.94 207.773 115.033C207.679 115.126 207.559 115.173 207.413 115.173H205.673ZM214.013 115.173C213.879 115.173 213.766 115.126 213.673 115.033C213.579 114.94 213.533 114.826 213.533 114.693V105.253C213.533 105.12 213.579 105.006 213.673 104.913C213.766 104.82 213.879 104.773 214.013 104.773H215.573C215.706 104.773 215.819 104.82 215.913 104.913C216.006 105.006 216.053 105.12 216.053 105.253V105.933C216.333 105.56 216.706 105.246 217.173 104.993C217.653 104.726 218.219 104.586 218.873 104.573C220.393 104.546 221.453 105.14 222.053 106.353C222.359 105.82 222.799 105.393 223.373 105.073C223.959 104.74 224.606 104.573 225.313 104.573C226.006 104.573 226.633 104.733 227.193 105.053C227.766 105.373 228.213 105.86 228.533 106.513C228.866 107.153 229.033 107.966 229.033 108.953V114.693C229.033 114.826 228.986 114.94 228.893 115.033C228.799 115.126 228.686 115.173 228.553 115.173H226.913C226.779 115.173 226.666 115.126 226.573 115.033C226.479 114.94 226.433 114.826 226.433 114.693V109.113C226.433 108.513 226.346 108.04 226.173 107.693C225.999 107.333 225.766 107.08 225.473 106.933C225.179 106.786 224.853 106.713 224.493 106.713C224.199 106.713 223.906 106.786 223.613 106.933C223.319 107.08 223.079 107.333 222.893 107.693C222.706 108.04 222.613 108.513 222.613 109.113V114.693C222.613 114.826 222.566 114.94 222.473 115.033C222.379 115.126 222.266 115.173 222.133 115.173H220.493C220.346 115.173 220.226 115.126 220.133 115.033C220.053 114.94 220.013 114.826 220.013 114.693V109.113C220.013 108.513 219.919 108.04 219.733 107.693C219.546 107.333 219.306 107.08 219.013 106.933C218.719 106.786 218.406 106.713 218.073 106.713C217.766 106.713 217.466 106.793 217.173 106.953C216.879 107.1 216.639 107.346 216.453 107.693C216.266 108.04 216.173 108.513 216.173 109.113V114.693C216.173 114.826 216.126 114.94 216.033 115.033C215.939 115.126 215.826 115.173 215.693 115.173H214.013ZM234.6 115.373C233.906 115.373 233.28 115.24 232.72 114.973C232.16 114.693 231.713 114.326 231.38 113.873C231.06 113.406 230.9 112.886 230.9 112.313C230.9 111.38 231.273 110.64 232.02 110.093C232.78 109.533 233.78 109.16 235.02 108.973L237.76 108.573V108.153C237.76 107.593 237.62 107.16 237.34 106.853C237.06 106.546 236.58 106.393 235.9 106.393C235.42 106.393 235.026 106.493 234.72 106.693C234.426 106.88 234.206 107.133 234.06 107.453C233.953 107.626 233.8 107.713 233.6 107.713H232.02C231.873 107.713 231.76 107.673 231.68 107.593C231.613 107.513 231.58 107.406 231.58 107.273C231.593 107.06 231.68 106.8 231.84 106.493C232 106.186 232.253 105.893 232.6 105.613C232.946 105.32 233.393 105.073 233.94 104.873C234.486 104.673 235.146 104.573 235.92 104.573C236.76 104.573 237.466 104.68 238.04 104.893C238.626 105.093 239.093 105.366 239.44 105.713C239.786 106.06 240.04 106.466 240.2 106.933C240.36 107.4 240.44 107.893 240.44 108.413V114.693C240.44 114.826 240.393 114.94 240.3 115.033C240.206 115.126 240.093 115.173 239.96 115.173H238.34C238.193 115.173 238.073 115.126 237.98 115.033C237.9 114.94 237.86 114.826 237.86 114.693V113.913C237.686 114.166 237.453 114.406 237.16 114.633C236.866 114.846 236.506 115.026 236.08 115.173C235.666 115.306 235.173 115.373 234.6 115.373ZM235.28 113.473C235.746 113.473 236.166 113.373 236.54 113.173C236.926 112.973 237.226 112.666 237.44 112.253C237.666 111.826 237.78 111.293 237.78 110.653V110.233L235.78 110.553C234.993 110.673 234.406 110.866 234.02 111.133C233.633 111.4 233.44 111.726 233.44 112.113C233.44 112.406 233.526 112.66 233.7 112.873C233.886 113.073 234.12 113.226 234.4 113.333C234.68 113.426 234.973 113.473 235.28 113.473ZM243.505 115.173C243.372 115.173 243.259 115.126 243.165 115.033C243.072 114.94 243.025 114.826 243.025 114.693V101.453C243.025 101.32 243.072 101.206 243.165 101.113C243.259 101.02 243.372 100.973 243.505 100.973H245.165C245.299 100.973 245.412 101.02 245.505 101.113C245.599 101.206 245.645 101.32 245.645 101.453V114.693C245.645 114.826 245.599 114.94 245.505 115.033C245.412 115.126 245.299 115.173 245.165 115.173H243.505ZM248.798 115.173C248.665 115.173 248.552 115.126 248.458 115.033C248.365 114.94 248.318 114.826 248.318 114.693V101.453C248.318 101.32 248.365 101.206 248.458 101.113C248.552 101.02 248.665 100.973 248.798 100.973H250.458C250.592 100.973 250.705 101.02 250.798 101.113C250.892 101.206 250.938 101.32 250.938 101.453V114.693C250.938 114.826 250.892 114.94 250.798 115.033C250.705 115.126 250.592 115.173 250.458 115.173H248.798ZM255.471 118.973C255.365 118.973 255.271 118.933 255.191 118.853C255.111 118.773 255.071 118.68 255.071 118.573C255.071 118.52 255.071 118.466 255.071 118.413C255.085 118.373 255.111 118.32 255.151 118.253L256.711 114.553L252.871 105.493C252.818 105.36 252.791 105.266 252.791 105.213C252.805 105.093 252.851 104.993 252.931 104.913C253.011 104.82 253.111 104.773 253.231 104.773H254.851C255.011 104.773 255.131 104.813 255.211 104.893C255.291 104.973 255.351 105.06 255.391 105.153L258.051 111.693L260.791 105.153C260.831 105.046 260.891 104.96 260.971 104.893C261.051 104.813 261.171 104.773 261.331 104.773H262.931C263.038 104.773 263.131 104.813 263.211 104.893C263.305 104.973 263.351 105.066 263.351 105.173C263.351 105.253 263.325 105.36 263.271 105.493L257.611 118.593C257.558 118.7 257.491 118.786 257.411 118.853C257.331 118.933 257.211 118.973 257.051 118.973H255.471ZM50.1757 139.373C49.4824 139.373 48.8557 139.24 48.2957 138.973C47.7357 138.693 47.289 138.326 46.9557 137.873C46.6357 137.406 46.4757 136.886 46.4757 136.313C46.4757 135.38 46.849 134.64 47.5957 134.093C48.3557 133.533 49.3557 133.16 50.5957 132.973L53.3357 132.573V132.153C53.3357 131.593 53.1957 131.16 52.9157 130.853C52.6357 130.546 52.1557 130.393 51.4757 130.393C50.9957 130.393 50.6024 130.493 50.2957 130.693C50.0024 130.88 49.7824 131.133 49.6357 131.453C49.529 131.626 49.3757 131.713 49.1757 131.713H47.5957C47.449 131.713 47.3357 131.673 47.2557 131.593C47.189 131.513 47.1557 131.406 47.1557 131.273C47.169 131.06 47.2557 130.8 47.4157 130.493C47.5757 130.186 47.829 129.893 48.1757 129.613C48.5224 129.32 48.969 129.073 49.5157 128.873C50.0624 128.673 50.7224 128.573 51.4957 128.573C52.3357 128.573 53.0424 128.68 53.6157 128.893C54.2024 129.093 54.669 129.366 55.0157 129.713C55.3624 130.06 55.6157 130.466 55.7757 130.933C55.9357 131.4 56.0157 131.893 56.0157 132.413V138.693C56.0157 138.826 55.969 138.94 55.8757 139.033C55.7824 139.126 55.669 139.173 55.5357 139.173H53.9157C53.769 139.173 53.649 139.126 53.5557 139.033C53.4757 138.94 53.4357 138.826 53.4357 138.693V137.913C53.2624 138.166 53.029 138.406 52.7357 138.633C52.4424 138.846 52.0824 139.026 51.6557 139.173C51.2424 139.306 50.749 139.373 50.1757 139.373ZM50.8557 137.473C51.3224 137.473 51.7424 137.373 52.1157 137.173C52.5024 136.973 52.8024 136.666 53.0157 136.253C53.2424 135.826 53.3557 135.293 53.3557 134.653V134.233L51.3557 134.553C50.569 134.673 49.9824 134.866 49.5957 135.133C49.209 135.4 49.0157 135.726 49.0157 136.113C49.0157 136.406 49.1024 136.66 49.2757 136.873C49.4624 137.073 49.6957 137.226 49.9757 137.333C50.2557 137.426 50.549 137.473 50.8557 137.473ZM62.4415 139.373C61.6282 139.373 60.9215 139.193 60.3215 138.833C59.7348 138.46 59.2815 137.94 58.9615 137.273C58.6415 136.593 58.4815 135.793 58.4815 134.873V129.253C58.4815 129.12 58.5282 129.006 58.6215 128.913C58.7148 128.82 58.8282 128.773 58.9615 128.773H60.7215C60.8682 128.773 60.9815 128.82 61.0615 128.913C61.1548 129.006 61.2015 129.12 61.2015 129.253V134.753C61.2015 136.406 61.9282 137.233 63.3815 137.233C64.0748 137.233 64.6215 137.013 65.0215 136.573C65.4348 136.133 65.6415 135.526 65.6415 134.753V129.253C65.6415 129.12 65.6882 129.006 65.7815 128.913C65.8748 128.82 65.9882 128.773 66.1215 128.773H67.8815C68.0148 128.773 68.1282 128.82 68.2215 128.913C68.3148 129.006 68.3615 129.12 68.3615 129.253V138.693C68.3615 138.826 68.3148 138.94 68.2215 139.033C68.1282 139.126 68.0148 139.173 67.8815 139.173H66.2615C66.1148 139.173 65.9948 139.126 65.9015 139.033C65.8215 138.94 65.7815 138.826 65.7815 138.693V137.873C65.4215 138.34 64.9748 138.706 64.4415 138.973C63.9082 139.24 63.2415 139.373 62.4415 139.373ZM74.8634 139.373C74.17 139.373 73.5567 139.26 73.0234 139.033C72.5034 138.793 72.07 138.46 71.7234 138.033C71.3767 137.606 71.11 137.106 70.9234 136.533C70.7367 135.946 70.63 135.306 70.6034 134.613C70.59 134.373 70.5834 134.16 70.5834 133.973C70.5834 133.773 70.59 133.553 70.6034 133.313C70.63 132.646 70.73 132.026 70.9034 131.453C71.09 130.88 71.3567 130.38 71.7034 129.953C72.0634 129.513 72.5034 129.173 73.0234 128.933C73.5567 128.693 74.17 128.573 74.8634 128.573C75.5834 128.573 76.19 128.7 76.6834 128.953C77.19 129.193 77.61 129.506 77.9434 129.893V125.453C77.9434 125.32 77.9834 125.206 78.0634 125.113C78.1567 125.02 78.2767 124.973 78.4234 124.973H80.1234C80.2567 124.973 80.37 125.02 80.4634 125.113C80.5567 125.206 80.6034 125.32 80.6034 125.453V138.693C80.6034 138.826 80.5567 138.94 80.4634 139.033C80.37 139.126 80.2567 139.173 80.1234 139.173H78.5434C78.3967 139.173 78.2767 139.126 78.1834 139.033C78.1034 138.94 78.0634 138.826 78.0634 138.693V137.953C77.73 138.366 77.3034 138.706 76.7834 138.973C76.2767 139.24 75.6367 139.373 74.8634 139.373ZM75.6034 137.233C76.1634 137.233 76.61 137.106 76.9434 136.853C77.2767 136.6 77.5234 136.28 77.6834 135.893C77.8434 135.493 77.93 135.086 77.9434 134.673C77.9567 134.433 77.9634 134.18 77.9634 133.913C77.9634 133.633 77.9567 133.373 77.9434 133.133C77.93 132.733 77.8367 132.353 77.6634 131.993C77.49 131.62 77.2367 131.313 76.9034 131.073C76.57 130.833 76.1367 130.713 75.6034 130.713C75.0434 130.713 74.5967 130.84 74.2634 131.093C73.9434 131.333 73.71 131.653 73.5634 132.053C73.4167 132.453 73.33 132.893 73.3034 133.373C73.29 133.773 73.29 134.173 73.3034 134.573C73.33 135.053 73.4167 135.493 73.5634 135.893C73.71 136.293 73.9434 136.62 74.2634 136.873C74.5967 137.113 75.0434 137.233 75.6034 137.233ZM83.749 139.173C83.6157 139.173 83.5023 139.126 83.409 139.033C83.3157 138.94 83.269 138.826 83.269 138.693V129.253C83.269 129.12 83.3157 129.006 83.409 128.913C83.5023 128.82 83.6157 128.773 83.749 128.773H85.409C85.5557 128.773 85.669 128.82 85.749 128.913C85.8423 129.006 85.889 129.12 85.889 129.253V138.693C85.889 138.826 85.8423 138.94 85.749 139.033C85.669 139.126 85.5557 139.173 85.409 139.173H83.749ZM83.669 127.053C83.5223 127.053 83.4023 127.013 83.309 126.933C83.229 126.84 83.189 126.72 83.189 126.573V125.133C83.189 125 83.229 124.886 83.309 124.793C83.4023 124.7 83.5223 124.653 83.669 124.653H85.489C85.6357 124.653 85.7557 124.7 85.849 124.793C85.9423 124.886 85.989 125 85.989 125.133V126.573C85.989 126.72 85.9423 126.84 85.849 126.933C85.7557 127.013 85.6357 127.053 85.489 127.053H83.669ZM93.2424 139.173C92.4424 139.173 91.7691 139.033 91.2224 138.753C90.6758 138.473 90.2691 138.06 90.0024 137.513C89.7358 136.953 89.6024 136.26 89.6024 135.433V130.893H88.0224C87.8891 130.893 87.7758 130.846 87.6824 130.753C87.5891 130.66 87.5424 130.546 87.5424 130.413V129.253C87.5424 129.12 87.5891 129.006 87.6824 128.913C87.7758 128.82 87.8891 128.773 88.0224 128.773H89.6024V125.453C89.6024 125.32 89.6424 125.206 89.7224 125.113C89.8158 125.02 89.9358 124.973 90.0824 124.973H91.7024C91.8358 124.973 91.9491 125.02 92.0424 125.113C92.1358 125.206 92.1824 125.32 92.1824 125.453V128.773H94.6824C94.8158 128.773 94.9291 128.82 95.0224 128.913C95.1158 129.006 95.1624 129.12 95.1624 129.253V130.413C95.1624 130.546 95.1158 130.66 95.0224 130.753C94.9291 130.846 94.8158 130.893 94.6824 130.893H92.1824V135.233C92.1824 135.78 92.2758 136.206 92.4624 136.513C92.6624 136.82 93.0024 136.973 93.4824 136.973H94.8624C94.9958 136.973 95.1091 137.02 95.2024 137.113C95.2958 137.206 95.3424 137.32 95.3424 137.453V138.693C95.3424 138.826 95.2958 138.94 95.2024 139.033C95.1091 139.126 94.9958 139.173 94.8624 139.173H93.2424ZM101.597 139.373C100.117 139.373 98.9433 138.946 98.0766 138.093C97.21 137.24 96.7433 136.026 96.6766 134.453C96.6633 134.32 96.6566 134.153 96.6566 133.953C96.6566 133.74 96.6633 133.573 96.6766 133.453C96.73 132.453 96.9566 131.586 97.3566 130.853C97.77 130.12 98.3366 129.56 99.0566 129.173C99.7766 128.773 100.623 128.573 101.597 128.573C102.677 128.573 103.583 128.8 104.317 129.253C105.05 129.693 105.603 130.313 105.977 131.113C106.35 131.9 106.537 132.813 106.537 133.853V134.273C106.537 134.406 106.49 134.52 106.397 134.613C106.303 134.706 106.183 134.753 106.037 134.753H99.3966C99.3966 134.753 99.3966 134.773 99.3966 134.813C99.3966 134.853 99.3966 134.886 99.3966 134.913C99.41 135.38 99.4966 135.813 99.6566 136.213C99.83 136.6 100.077 136.913 100.397 137.153C100.73 137.393 101.123 137.513 101.577 137.513C101.95 137.513 102.263 137.46 102.517 137.353C102.77 137.233 102.977 137.1 103.137 136.953C103.297 136.806 103.41 136.686 103.477 136.593C103.597 136.433 103.69 136.34 103.757 136.313C103.837 136.273 103.95 136.253 104.097 136.253H105.817C105.95 136.253 106.057 136.293 106.137 136.373C106.23 136.453 106.27 136.553 106.257 136.673C106.243 136.886 106.13 137.146 105.917 137.453C105.717 137.76 105.423 138.06 105.037 138.353C104.65 138.646 104.163 138.893 103.577 139.093C103.003 139.28 102.343 139.373 101.597 139.373ZM99.3966 133.073H103.817V133.013C103.817 132.493 103.73 132.04 103.557 131.653C103.383 131.266 103.13 130.96 102.797 130.733C102.463 130.506 102.063 130.393 101.597 130.393C101.13 130.393 100.73 130.506 100.397 130.733C100.063 130.96 99.81 131.266 99.6366 131.653C99.4766 132.04 99.3966 132.493 99.3966 133.013V133.073ZM112.52 139.373C111.826 139.373 111.213 139.26 110.68 139.033C110.16 138.793 109.726 138.46 109.38 138.033C109.033 137.606 108.766 137.106 108.58 136.533C108.393 135.946 108.286 135.306 108.26 134.613C108.246 134.373 108.24 134.16 108.24 133.973C108.24 133.773 108.246 133.553 108.26 133.313C108.286 132.646 108.386 132.026 108.56 131.453C108.746 130.88 109.013 130.38 109.36 129.953C109.72 129.513 110.16 129.173 110.68 128.933C111.213 128.693 111.826 128.573 112.52 128.573C113.24 128.573 113.846 128.7 114.34 128.953C114.846 129.193 115.266 129.506 115.6 129.893V125.453C115.6 125.32 115.64 125.206 115.72 125.113C115.813 125.02 115.933 124.973 116.08 124.973H117.78C117.913 124.973 118.026 125.02 118.12 125.113C118.213 125.206 118.26 125.32 118.26 125.453V138.693C118.26 138.826 118.213 138.94 118.12 139.033C118.026 139.126 117.913 139.173 117.78 139.173H116.2C116.053 139.173 115.933 139.126 115.84 139.033C115.76 138.94 115.72 138.826 115.72 138.693V137.953C115.386 138.366 114.96 138.706 114.44 138.973C113.933 139.24 113.293 139.373 112.52 139.373ZM113.26 137.233C113.82 137.233 114.266 137.106 114.6 136.853C114.933 136.6 115.18 136.28 115.34 135.893C115.5 135.493 115.586 135.086 115.6 134.673C115.613 134.433 115.62 134.18 115.62 133.913C115.62 133.633 115.613 133.373 115.6 133.133C115.586 132.733 115.493 132.353 115.32 131.993C115.146 131.62 114.893 131.313 114.56 131.073C114.226 130.833 113.793 130.713 113.26 130.713C112.7 130.713 112.253 130.84 111.92 131.093C111.6 131.333 111.366 131.653 111.22 132.053C111.073 132.453 110.986 132.893 110.96 133.373C110.946 133.773 110.946 134.173 110.96 134.573C110.986 135.053 111.073 135.493 111.22 135.893C111.366 136.293 111.6 136.62 111.92 136.873C112.253 137.113 112.7 137.233 113.26 137.233ZM129.785 139.173C128.985 139.173 128.312 139.033 127.765 138.753C127.219 138.473 126.812 138.06 126.545 137.513C126.279 136.953 126.145 136.26 126.145 135.433V130.893H124.565C124.432 130.893 124.319 130.846 124.225 130.753C124.132 130.66 124.085 130.546 124.085 130.413V129.253C124.085 129.12 124.132 129.006 124.225 128.913C124.319 128.82 124.432 128.773 124.565 128.773H126.145V125.453C126.145 125.32 126.185 125.206 126.265 125.113C126.359 125.02 126.479 124.973 126.625 124.973H128.245C128.379 124.973 128.492 125.02 128.585 125.113C128.679 125.206 128.725 125.32 128.725 125.453V128.773H131.225C131.359 128.773 131.472 128.82 131.565 128.913C131.659 129.006 131.705 129.12 131.705 129.253V130.413C131.705 130.546 131.659 130.66 131.565 130.753C131.472 130.846 131.359 130.893 131.225 130.893H128.725V135.233C128.725 135.78 128.819 136.206 129.005 136.513C129.205 136.82 129.545 136.973 130.025 136.973H131.405C131.539 136.973 131.652 137.02 131.745 137.113C131.839 137.206 131.885 137.32 131.885 137.453V138.693C131.885 138.826 131.839 138.94 131.745 139.033C131.652 139.126 131.539 139.173 131.405 139.173H129.785ZM138.26 139.373C137.193 139.373 136.293 139.186 135.56 138.813C134.84 138.44 134.286 137.913 133.9 137.233C133.526 136.553 133.313 135.76 133.26 134.853C133.246 134.613 133.24 134.32 133.24 133.973C133.24 133.626 133.246 133.333 133.26 133.093C133.313 132.173 133.533 131.38 133.92 130.713C134.32 130.033 134.88 129.506 135.6 129.133C136.333 128.76 137.22 128.573 138.26 128.573C139.3 128.573 140.18 128.76 140.9 129.133C141.633 129.506 142.193 130.033 142.58 130.713C142.98 131.38 143.206 132.173 143.26 133.093C143.273 133.333 143.28 133.626 143.28 133.973C143.28 134.32 143.273 134.613 143.26 134.853C143.206 135.76 142.986 136.553 142.6 137.233C142.226 137.913 141.673 138.44 140.94 138.813C140.22 139.186 139.326 139.373 138.26 139.373ZM138.26 137.393C138.966 137.393 139.513 137.173 139.9 136.733C140.286 136.28 140.5 135.62 140.54 134.753C140.553 134.553 140.56 134.293 140.56 133.973C140.56 133.653 140.553 133.393 140.54 133.193C140.5 132.34 140.286 131.686 139.9 131.233C139.513 130.78 138.966 130.553 138.26 130.553C137.553 130.553 137.006 130.78 136.62 131.233C136.233 131.686 136.02 132.34 135.98 133.193C135.966 133.393 135.96 133.653 135.96 133.973C135.96 134.293 135.966 134.553 135.98 134.753C136.02 135.62 136.233 136.28 136.62 136.733C137.006 137.173 137.553 137.393 138.26 137.393ZM154.546 139.373C153.066 139.373 151.893 138.946 151.026 138.093C150.159 137.24 149.693 136.026 149.626 134.453C149.613 134.32 149.606 134.153 149.606 133.953C149.606 133.74 149.613 133.573 149.626 133.453C149.679 132.453 149.906 131.586 150.306 130.853C150.719 130.12 151.286 129.56 152.006 129.173C152.726 128.773 153.573 128.573 154.546 128.573C155.626 128.573 156.533 128.8 157.266 129.253C157.999 129.693 158.553 130.313 158.926 131.113C159.299 131.9 159.486 132.813 159.486 133.853V134.273C159.486 134.406 159.439 134.52 159.346 134.613C159.253 134.706 159.133 134.753 158.986 134.753H152.346C152.346 134.753 152.346 134.773 152.346 134.813C152.346 134.853 152.346 134.886 152.346 134.913C152.359 135.38 152.446 135.813 152.606 136.213C152.779 136.6 153.026 136.913 153.346 137.153C153.679 137.393 154.073 137.513 154.526 137.513C154.899 137.513 155.213 137.46 155.466 137.353C155.719 137.233 155.926 137.1 156.086 136.953C156.246 136.806 156.359 136.686 156.426 136.593C156.546 136.433 156.639 136.34 156.706 136.313C156.786 136.273 156.899 136.253 157.046 136.253H158.766C158.899 136.253 159.006 136.293 159.086 136.373C159.179 136.453 159.219 136.553 159.206 136.673C159.193 136.886 159.079 137.146 158.866 137.453C158.666 137.76 158.373 138.06 157.986 138.353C157.599 138.646 157.113 138.893 156.526 139.093C155.953 139.28 155.293 139.373 154.546 139.373ZM152.346 133.073H156.766V133.013C156.766 132.493 156.679 132.04 156.506 131.653C156.333 131.266 156.079 130.96 155.746 130.733C155.413 130.506 155.013 130.393 154.546 130.393C154.079 130.393 153.679 130.506 153.346 130.733C153.013 130.96 152.759 131.266 152.586 131.653C152.426 132.04 152.346 132.493 152.346 133.013V133.073ZM162.089 139.173C161.956 139.173 161.842 139.126 161.749 139.033C161.656 138.94 161.609 138.826 161.609 138.693V129.253C161.609 129.12 161.656 129.006 161.749 128.913C161.842 128.82 161.956 128.773 162.089 128.773H163.729C163.862 128.773 163.976 128.82 164.069 128.913C164.162 129.006 164.209 129.12 164.209 129.253V130.073C164.556 129.646 164.996 129.293 165.529 129.013C166.076 128.72 166.749 128.573 167.549 128.573C168.362 128.573 169.069 128.76 169.669 129.133C170.269 129.493 170.729 130.006 171.049 130.673C171.382 131.34 171.549 132.14 171.549 133.073V138.693C171.549 138.826 171.502 138.94 171.409 139.033C171.316 139.126 171.202 139.173 171.069 139.173H169.309C169.176 139.173 169.062 139.126 168.969 139.033C168.876 138.94 168.829 138.826 168.829 138.693V133.193C168.829 132.42 168.636 131.813 168.249 131.373C167.876 130.933 167.329 130.713 166.609 130.713C165.916 130.713 165.362 130.933 164.949 131.373C164.536 131.813 164.329 132.42 164.329 133.193V138.693C164.329 138.826 164.282 138.94 164.189 139.033C164.096 139.126 163.982 139.173 163.849 139.173H162.089ZM178.029 139.373C177.229 139.373 176.543 139.28 175.969 139.093C175.409 138.906 174.949 138.673 174.589 138.393C174.229 138.113 173.963 137.833 173.789 137.553C173.616 137.273 173.523 137.04 173.509 136.853C173.496 136.706 173.536 136.593 173.629 136.513C173.736 136.42 173.849 136.373 173.969 136.373H175.549C175.603 136.373 175.649 136.38 175.689 136.393C175.729 136.406 175.783 136.446 175.849 136.513C176.023 136.66 176.203 136.813 176.389 136.973C176.589 137.133 176.823 137.273 177.089 137.393C177.356 137.5 177.689 137.553 178.089 137.553C178.609 137.553 179.043 137.453 179.389 137.253C179.749 137.04 179.929 136.74 179.929 136.353C179.929 136.073 179.849 135.846 179.689 135.673C179.543 135.5 179.263 135.346 178.849 135.213C178.436 135.066 177.849 134.913 177.089 134.753C176.343 134.58 175.723 134.36 175.229 134.093C174.736 133.826 174.369 133.493 174.129 133.093C173.889 132.693 173.769 132.226 173.769 131.693C173.769 131.173 173.923 130.68 174.229 130.213C174.549 129.733 175.016 129.34 175.629 129.033C176.256 128.726 177.029 128.573 177.949 128.573C178.669 128.573 179.296 128.666 179.829 128.853C180.363 129.026 180.803 129.246 181.149 129.513C181.509 129.78 181.783 130.053 181.969 130.333C182.156 130.6 182.256 130.833 182.269 131.033C182.283 131.18 182.243 131.3 182.149 131.393C182.056 131.473 181.949 131.513 181.829 131.513H180.349C180.283 131.513 180.223 131.5 180.169 131.473C180.116 131.446 180.063 131.413 180.009 131.373C179.863 131.24 179.703 131.1 179.529 130.953C179.356 130.806 179.143 130.68 178.889 130.573C178.649 130.453 178.329 130.393 177.929 130.393C177.423 130.393 177.036 130.506 176.769 130.733C176.503 130.946 176.369 131.22 176.369 131.553C176.369 131.78 176.429 131.98 176.549 132.153C176.683 132.313 176.943 132.466 177.329 132.613C177.716 132.76 178.303 132.913 179.089 133.073C179.983 133.233 180.689 133.473 181.209 133.793C181.743 134.1 182.116 134.46 182.329 134.873C182.556 135.273 182.669 135.72 182.669 136.213C182.669 136.813 182.489 137.353 182.129 137.833C181.783 138.313 181.263 138.693 180.569 138.973C179.889 139.24 179.043 139.373 178.029 139.373ZM188.594 139.373C187.781 139.373 187.074 139.193 186.474 138.833C185.887 138.46 185.434 137.94 185.114 137.273C184.794 136.593 184.634 135.793 184.634 134.873V129.253C184.634 129.12 184.681 129.006 184.774 128.913C184.867 128.82 184.981 128.773 185.114 128.773H186.874C187.021 128.773 187.134 128.82 187.214 128.913C187.307 129.006 187.354 129.12 187.354 129.253V134.753C187.354 136.406 188.081 137.233 189.534 137.233C190.227 137.233 190.774 137.013 191.174 136.573C191.587 136.133 191.794 135.526 191.794 134.753V129.253C191.794 129.12 191.841 129.006 191.934 128.913C192.027 128.82 192.141 128.773 192.274 128.773H194.034C194.167 128.773 194.281 128.82 194.374 128.913C194.467 129.006 194.514 129.12 194.514 129.253V138.693C194.514 138.826 194.467 138.94 194.374 139.033C194.281 139.126 194.167 139.173 194.034 139.173H192.414C192.267 139.173 192.147 139.126 192.054 139.033C191.974 138.94 191.934 138.826 191.934 138.693V137.873C191.574 138.34 191.127 138.706 190.594 138.973C190.061 139.24 189.394 139.373 188.594 139.373ZM197.636 139.173C197.502 139.173 197.389 139.126 197.296 139.033C197.202 138.94 197.156 138.826 197.156 138.693V129.273C197.156 129.126 197.202 129.006 197.296 128.913C197.389 128.82 197.502 128.773 197.636 128.773H199.256C199.389 128.773 199.502 128.82 199.596 128.913C199.702 129.006 199.756 129.126 199.756 129.273V130.093C200.062 129.666 200.456 129.34 200.936 129.113C201.429 128.886 201.996 128.773 202.636 128.773H203.456C203.602 128.773 203.716 128.82 203.796 128.913C203.889 129.006 203.936 129.12 203.936 129.253V130.693C203.936 130.826 203.889 130.94 203.796 131.033C203.716 131.126 203.602 131.173 203.456 131.173H201.896C201.256 131.173 200.756 131.353 200.396 131.713C200.049 132.073 199.876 132.566 199.876 133.193V138.693C199.876 138.826 199.829 138.94 199.736 139.033C199.642 139.126 199.522 139.173 199.376 139.173H197.636ZM209.839 139.373C208.359 139.373 207.186 138.946 206.319 138.093C205.452 137.24 204.986 136.026 204.919 134.453C204.906 134.32 204.899 134.153 204.899 133.953C204.899 133.74 204.906 133.573 204.919 133.453C204.972 132.453 205.199 131.586 205.599 130.853C206.012 130.12 206.579 129.56 207.299 129.173C208.019 128.773 208.866 128.573 209.839 128.573C210.919 128.573 211.826 128.8 212.559 129.253C213.292 129.693 213.846 130.313 214.219 131.113C214.592 131.9 214.779 132.813 214.779 133.853V134.273C214.779 134.406 214.732 134.52 214.639 134.613C214.546 134.706 214.426 134.753 214.279 134.753H207.639C207.639 134.753 207.639 134.773 207.639 134.813C207.639 134.853 207.639 134.886 207.639 134.913C207.652 135.38 207.739 135.813 207.899 136.213C208.072 136.6 208.319 136.913 208.639 137.153C208.972 137.393 209.366 137.513 209.819 137.513C210.192 137.513 210.506 137.46 210.759 137.353C211.012 137.233 211.219 137.1 211.379 136.953C211.539 136.806 211.652 136.686 211.719 136.593C211.839 136.433 211.932 136.34 211.999 136.313C212.079 136.273 212.192 136.253 212.339 136.253H214.059C214.192 136.253 214.299 136.293 214.379 136.373C214.472 136.453 214.512 136.553 214.499 136.673C214.486 136.886 214.372 137.146 214.159 137.453C213.959 137.76 213.666 138.06 213.279 138.353C212.892 138.646 212.406 138.893 211.819 139.093C211.246 139.28 210.586 139.373 209.839 139.373ZM207.639 133.073H212.059V133.013C212.059 132.493 211.972 132.04 211.799 131.653C211.626 131.266 211.372 130.96 211.039 130.733C210.706 130.506 210.306 130.393 209.839 130.393C209.372 130.393 208.972 130.506 208.639 130.733C208.306 130.96 208.052 131.266 207.879 131.653C207.719 132.04 207.639 132.493 207.639 133.013V133.073ZM221.952 139.173C221.819 139.173 221.705 139.126 221.612 139.033C221.519 138.94 221.472 138.826 221.472 138.693V129.253C221.472 129.12 221.519 129.006 221.612 128.913C221.705 128.82 221.819 128.773 221.952 128.773H223.612C223.759 128.773 223.872 128.82 223.952 128.913C224.045 129.006 224.092 129.12 224.092 129.253V138.693C224.092 138.826 224.045 138.94 223.952 139.033C223.872 139.126 223.759 139.173 223.612 139.173H221.952ZM221.872 127.053C221.725 127.053 221.605 127.013 221.512 126.933C221.432 126.84 221.392 126.72 221.392 126.573V125.133C221.392 125 221.432 124.886 221.512 124.793C221.605 124.7 221.725 124.653 221.872 124.653H223.692C223.839 124.653 223.959 124.7 224.052 124.793C224.145 124.886 224.192 125 224.192 125.133V126.573C224.192 126.72 224.145 126.84 224.052 126.933C223.959 127.013 223.839 127.053 223.692 127.053H221.872ZM231.446 139.173C230.646 139.173 229.972 139.033 229.426 138.753C228.879 138.473 228.472 138.06 228.206 137.513C227.939 136.953 227.806 136.26 227.806 135.433V130.893H226.226C226.092 130.893 225.979 130.846 225.886 130.753C225.792 130.66 225.746 130.546 225.746 130.413V129.253C225.746 129.12 225.792 129.006 225.886 128.913C225.979 128.82 226.092 128.773 226.226 128.773H227.806V125.453C227.806 125.32 227.846 125.206 227.926 125.113C228.019 125.02 228.139 124.973 228.286 124.973H229.906C230.039 124.973 230.152 125.02 230.246 125.113C230.339 125.206 230.386 125.32 230.386 125.453V128.773H232.886C233.019 128.773 233.132 128.82 233.226 128.913C233.319 129.006 233.366 129.12 233.366 129.253V130.413C233.366 130.546 233.319 130.66 233.226 130.753C233.132 130.846 233.019 130.893 232.886 130.893H230.386V135.233C230.386 135.78 230.479 136.206 230.666 136.513C230.866 136.82 231.206 136.973 231.686 136.973H233.066C233.199 136.973 233.312 137.02 233.406 137.113C233.499 137.206 233.546 137.32 233.546 137.453V138.693C233.546 138.826 233.499 138.94 233.406 139.033C233.312 139.126 233.199 139.173 233.066 139.173H231.446ZM240.37 139.173C240.237 139.173 240.123 139.126 240.03 139.033C239.937 138.94 239.89 138.826 239.89 138.693V129.253C239.89 129.12 239.937 129.006 240.03 128.913C240.123 128.82 240.237 128.773 240.37 128.773H242.03C242.177 128.773 242.29 128.82 242.37 128.913C242.463 129.006 242.51 129.12 242.51 129.253V138.693C242.51 138.826 242.463 138.94 242.37 139.033C242.29 139.126 242.177 139.173 242.03 139.173H240.37ZM240.29 127.053C240.143 127.053 240.023 127.013 239.93 126.933C239.85 126.84 239.81 126.72 239.81 126.573V125.133C239.81 125 239.85 124.886 239.93 124.793C240.023 124.7 240.143 124.653 240.29 124.653H242.11C242.257 124.653 242.377 124.7 242.47 124.793C242.563 124.886 242.61 125 242.61 125.133V126.573C242.61 126.72 242.563 126.84 242.47 126.933C242.377 127.013 242.257 127.053 242.11 127.053H240.29ZM249.338 139.373C248.538 139.373 247.851 139.28 247.278 139.093C246.718 138.906 246.258 138.673 245.898 138.393C245.538 138.113 245.271 137.833 245.098 137.553C244.925 137.273 244.831 137.04 244.818 136.853C244.805 136.706 244.845 136.593 244.938 136.513C245.045 136.42 245.158 136.373 245.278 136.373H246.858C246.911 136.373 246.958 136.38 246.998 136.393C247.038 136.406 247.091 136.446 247.158 136.513C247.331 136.66 247.511 136.813 247.698 136.973C247.898 137.133 248.131 137.273 248.398 137.393C248.665 137.5 248.998 137.553 249.398 137.553C249.918 137.553 250.351 137.453 250.698 137.253C251.058 137.04 251.238 136.74 251.238 136.353C251.238 136.073 251.158 135.846 250.998 135.673C250.851 135.5 250.571 135.346 250.158 135.213C249.745 135.066 249.158 134.913 248.398 134.753C247.651 134.58 247.031 134.36 246.538 134.093C246.045 133.826 245.678 133.493 245.438 133.093C245.198 132.693 245.078 132.226 245.078 131.693C245.078 131.173 245.231 130.68 245.538 130.213C245.858 129.733 246.325 129.34 246.938 129.033C247.565 128.726 248.338 128.573 249.258 128.573C249.978 128.573 250.605 128.666 251.138 128.853C251.671 129.026 252.111 129.246 252.458 129.513C252.818 129.78 253.091 130.053 253.278 130.333C253.465 130.6 253.565 130.833 253.578 131.033C253.591 131.18 253.551 131.3 253.458 131.393C253.365 131.473 253.258 131.513 253.138 131.513H251.658C251.591 131.513 251.531 131.5 251.478 131.473C251.425 131.446 251.371 131.413 251.318 131.373C251.171 131.24 251.011 131.1 250.838 130.953C250.665 130.806 250.451 130.68 250.198 130.573C249.958 130.453 249.638 130.393 249.238 130.393C248.731 130.393 248.345 130.506 248.078 130.733C247.811 130.946 247.678 131.22 247.678 131.553C247.678 131.78 247.738 131.98 247.858 132.153C247.991 132.313 248.251 132.466 248.638 132.613C249.025 132.76 249.611 132.913 250.398 133.073C251.291 133.233 251.998 133.473 252.518 133.793C253.051 134.1 253.425 134.46 253.638 134.873C253.865 135.273 253.978 135.72 253.978 136.213C253.978 136.813 253.798 137.353 253.438 137.833C253.091 138.313 252.571 138.693 251.878 138.973C251.198 139.24 250.351 139.373 249.338 139.373ZM132.043 163.373C131.243 163.373 130.556 163.28 129.983 163.093C129.423 162.906 128.963 162.673 128.603 162.393C128.243 162.113 127.976 161.833 127.803 161.553C127.63 161.273 127.536 161.04 127.523 160.853C127.51 160.706 127.55 160.593 127.643 160.513C127.75 160.42 127.863 160.373 127.983 160.373H129.563C129.616 160.373 129.663 160.38 129.703 160.393C129.743 160.406 129.796 160.446 129.863 160.513C130.036 160.66 130.216 160.813 130.403 160.973C130.603 161.133 130.836 161.273 131.103 161.393C131.37 161.5 131.703 161.553 132.103 161.553C132.623 161.553 133.056 161.453 133.403 161.253C133.763 161.04 133.943 160.74 133.943 160.353C133.943 160.073 133.863 159.846 133.703 159.673C133.556 159.5 133.276 159.346 132.863 159.213C132.45 159.066 131.863 158.913 131.103 158.753C130.356 158.58 129.736 158.36 129.243 158.093C128.75 157.826 128.383 157.493 128.143 157.093C127.903 156.693 127.783 156.226 127.783 155.693C127.783 155.173 127.936 154.68 128.243 154.213C128.563 153.733 129.03 153.34 129.643 153.033C130.27 152.726 131.043 152.573 131.963 152.573C132.683 152.573 133.31 152.666 133.843 152.853C134.376 153.026 134.816 153.246 135.163 153.513C135.523 153.78 135.796 154.053 135.983 154.333C136.17 154.6 136.27 154.833 136.283 155.033C136.296 155.18 136.256 155.3 136.163 155.393C136.07 155.473 135.963 155.513 135.843 155.513H134.363C134.296 155.513 134.236 155.5 134.183 155.473C134.13 155.446 134.076 155.413 134.023 155.373C133.876 155.24 133.716 155.1 133.543 154.953C133.37 154.806 133.156 154.68 132.903 154.573C132.663 154.453 132.343 154.393 131.943 154.393C131.436 154.393 131.05 154.506 130.783 154.733C130.516 154.946 130.383 155.22 130.383 155.553C130.383 155.78 130.443 155.98 130.563 156.153C130.696 156.313 130.956 156.466 131.343 156.613C131.73 156.76 132.316 156.913 133.103 157.073C133.996 157.233 134.703 157.473 135.223 157.793C135.756 158.1 136.13 158.46 136.343 158.873C136.57 159.273 136.683 159.72 136.683 160.213C136.683 160.813 136.503 161.353 136.143 161.833C135.796 162.313 135.276 162.693 134.583 162.973C133.903 163.24 133.056 163.373 132.043 163.373ZM141.768 163.373C141.074 163.373 140.448 163.24 139.888 162.973C139.328 162.693 138.881 162.326 138.548 161.873C138.228 161.406 138.068 160.886 138.068 160.313C138.068 159.38 138.441 158.64 139.188 158.093C139.948 157.533 140.948 157.16 142.188 156.973L144.928 156.573V156.153C144.928 155.593 144.788 155.16 144.508 154.853C144.228 154.546 143.748 154.393 143.068 154.393C142.588 154.393 142.194 154.493 141.888 154.693C141.594 154.88 141.374 155.133 141.228 155.453C141.121 155.626 140.968 155.713 140.768 155.713H139.188C139.041 155.713 138.928 155.673 138.848 155.593C138.781 155.513 138.748 155.406 138.748 155.273C138.761 155.06 138.848 154.8 139.008 154.493C139.168 154.186 139.421 153.893 139.768 153.613C140.114 153.32 140.561 153.073 141.108 152.873C141.654 152.673 142.314 152.573 143.088 152.573C143.928 152.573 144.634 152.68 145.208 152.893C145.794 153.093 146.261 153.366 146.608 153.713C146.954 154.06 147.208 154.466 147.368 154.933C147.528 155.4 147.608 155.893 147.608 156.413V162.693C147.608 162.826 147.561 162.94 147.468 163.033C147.374 163.126 147.261 163.173 147.128 163.173H145.508C145.361 163.173 145.241 163.126 145.148 163.033C145.068 162.94 145.028 162.826 145.028 162.693V161.913C144.854 162.166 144.621 162.406 144.328 162.633C144.034 162.846 143.674 163.026 143.248 163.173C142.834 163.306 142.341 163.373 141.768 163.373ZM142.448 161.473C142.914 161.473 143.334 161.373 143.708 161.173C144.094 160.973 144.394 160.666 144.608 160.253C144.834 159.826 144.948 159.293 144.948 158.653V158.233L142.948 158.553C142.161 158.673 141.574 158.866 141.188 159.133C140.801 159.4 140.608 159.726 140.608 160.113C140.608 160.406 140.694 160.66 140.868 160.873C141.054 161.073 141.288 161.226 141.568 161.333C141.848 161.426 142.141 161.473 142.448 161.473ZM151.676 163.173C151.542 163.173 151.429 163.126 151.336 163.033C151.242 162.94 151.196 162.826 151.196 162.693V154.893H149.576C149.442 154.893 149.329 154.846 149.236 154.753C149.142 154.66 149.096 154.546 149.096 154.413V153.253C149.096 153.12 149.142 153.006 149.236 152.913C149.329 152.82 149.442 152.773 149.576 152.773H151.196V151.953C151.196 151.153 151.342 150.493 151.636 149.973C151.929 149.44 152.362 149.04 152.936 148.773C153.509 148.506 154.236 148.373 155.116 148.373H156.476C156.622 148.373 156.736 148.42 156.816 148.513C156.909 148.606 156.956 148.72 156.956 148.853V150.013C156.956 150.146 156.909 150.26 156.816 150.353C156.736 150.446 156.622 150.493 156.476 150.493H155.196C154.662 150.493 154.296 150.626 154.096 150.893C153.896 151.16 153.796 151.546 153.796 152.053V152.773H156.276C156.422 152.773 156.536 152.82 156.616 152.913C156.709 153.006 156.756 153.12 156.756 153.253V154.413C156.756 154.546 156.709 154.66 156.616 154.753C156.536 154.846 156.422 154.893 156.276 154.893H153.796V162.693C153.796 162.826 153.749 162.94 153.656 163.033C153.562 163.126 153.449 163.173 153.316 163.173H151.676ZM162.681 163.373C161.201 163.373 160.027 162.946 159.161 162.093C158.294 161.24 157.827 160.026 157.761 158.453C157.747 158.32 157.741 158.153 157.741 157.953C157.741 157.74 157.747 157.573 157.761 157.453C157.814 156.453 158.041 155.586 158.441 154.853C158.854 154.12 159.421 153.56 160.141 153.173C160.861 152.773 161.707 152.573 162.681 152.573C163.761 152.573 164.667 152.8 165.401 153.253C166.134 153.693 166.687 154.313 167.061 155.113C167.434 155.9 167.621 156.813 167.621 157.853V158.273C167.621 158.406 167.574 158.52 167.481 158.613C167.387 158.706 167.267 158.753 167.121 158.753H160.481C160.481 158.753 160.481 158.773 160.481 158.813C160.481 158.853 160.481 158.886 160.481 158.913C160.494 159.38 160.581 159.813 160.741 160.213C160.914 160.6 161.161 160.913 161.481 161.153C161.814 161.393 162.207 161.513 162.661 161.513C163.034 161.513 163.347 161.46 163.601 161.353C163.854 161.233 164.061 161.1 164.221 160.953C164.381 160.806 164.494 160.686 164.561 160.593C164.681 160.433 164.774 160.34 164.841 160.313C164.921 160.273 165.034 160.253 165.181 160.253H166.901C167.034 160.253 167.141 160.293 167.221 160.373C167.314 160.453 167.354 160.553 167.341 160.673C167.327 160.886 167.214 161.146 167.001 161.453C166.801 161.76 166.507 162.06 166.121 162.353C165.734 162.646 165.247 162.893 164.661 163.093C164.087 163.28 163.427 163.373 162.681 163.373ZM160.481 157.073H164.901V157.013C164.901 156.493 164.814 156.04 164.641 155.653C164.467 155.266 164.214 154.96 163.881 154.733C163.547 154.506 163.147 154.393 162.681 154.393C162.214 154.393 161.814 154.506 161.481 154.733C161.147 154.96 160.894 155.266 160.721 155.653C160.561 156.04 160.481 156.493 160.481 157.013V157.073ZM170.104 163.173C169.97 163.173 169.857 163.126 169.764 163.033C169.67 162.94 169.624 162.826 169.624 162.693V160.713C169.624 160.566 169.67 160.446 169.764 160.353C169.857 160.26 169.97 160.213 170.104 160.213H172.104C172.237 160.213 172.35 160.26 172.444 160.353C172.537 160.446 172.584 160.566 172.584 160.713V162.693C172.584 162.826 172.537 162.94 172.444 163.033C172.35 163.126 172.237 163.173 172.104 163.173H170.104Z" fill="#A2B1BF"/>
<path d="M113.377 80.8425H109.829L115.235 65.1851H119.501L124.898 80.8425H121.351L117.429 68.7631H117.306L113.377 80.8425ZM113.155 74.6881H121.534V77.2722H113.155V74.6881ZM134.252 75.8426V69.0995H137.509V80.8425H134.382V78.7095H134.26C133.995 79.3976 133.554 79.9506 132.937 80.3685C132.325 80.7865 131.579 80.9954 130.697 80.9954C129.912 80.9954 129.222 80.817 128.625 80.4603C128.029 80.1035 127.563 79.5964 127.226 78.9389C126.895 78.2814 126.727 77.4939 126.722 76.5765V69.0995H129.978V75.9955C129.984 76.6886 130.17 77.2365 130.537 77.6392C130.903 78.0418 131.395 78.2432 132.012 78.2432C132.404 78.2432 132.771 78.154 133.113 77.9756C133.454 77.7921 133.73 77.522 133.939 77.1652C134.153 76.8084 134.257 76.3675 134.252 75.8426ZM144.441 81.0337C143.549 81.0337 142.741 80.8043 142.018 80.3456C141.299 79.8818 140.728 79.2014 140.305 78.3043C139.887 77.4022 139.678 76.2962 139.678 74.9863C139.678 73.6407 139.895 72.522 140.328 71.6301C140.761 70.733 141.337 70.0628 142.056 69.6194C142.78 69.1708 143.572 68.9466 144.434 68.9466C145.091 68.9466 145.639 69.0587 146.077 69.283C146.521 69.5021 146.878 69.7774 147.148 70.1087C147.423 70.4348 147.632 70.7559 147.775 71.0719H147.874V65.1851H151.123V80.8425H147.912V78.9618H147.775C147.622 79.288 147.405 79.6117 147.125 79.9327C146.849 80.2488 146.49 80.5112 146.047 80.7202C145.608 80.9292 145.073 81.0337 144.441 81.0337ZM145.473 78.4419C145.998 78.4419 146.442 78.2992 146.804 78.0138C147.171 77.7233 147.451 77.3181 147.645 76.7982C147.843 76.2783 147.943 75.6693 147.943 74.971C147.943 74.2727 147.846 73.6662 147.652 73.1514C147.459 72.6367 147.178 72.2391 146.811 71.9588C146.444 71.6785 145.998 71.5383 145.473 71.5383C144.938 71.5383 144.487 71.6836 144.12 71.9741C143.753 72.2646 143.475 72.6673 143.287 73.182C143.098 73.6968 143.004 74.2931 143.004 74.971C143.004 75.654 143.098 76.258 143.287 76.7829C143.48 77.3028 143.758 77.7105 144.12 78.0062C144.487 78.2967 144.938 78.4419 145.473 78.4419ZM153.801 80.8425V69.0995H157.058V80.8425H153.801ZM155.437 67.5857C154.953 67.5857 154.537 67.4252 154.191 67.1041C153.849 66.7779 153.679 66.388 153.679 65.9344C153.679 65.4858 153.849 65.101 154.191 64.7799C154.537 64.4537 154.953 64.2906 155.437 64.2906C155.921 64.2906 156.334 64.4537 156.675 64.7799C157.022 65.101 157.195 65.4858 157.195 65.9344C157.195 66.388 157.022 66.7779 156.675 67.1041C156.334 67.4252 155.921 67.5857 155.437 67.5857ZM165.913 69.0995V71.546H158.841V69.0995H165.913ZM160.446 66.286H163.703V77.234C163.703 77.5347 163.749 77.7692 163.841 77.9373C163.933 78.1004 164.06 78.2151 164.223 78.2814C164.391 78.3476 164.585 78.3808 164.804 78.3808C164.957 78.3808 165.11 78.368 165.263 78.3425C165.416 78.312 165.533 78.289 165.615 78.2737L166.127 80.6973C165.964 80.7482 165.734 80.8069 165.439 80.8731C165.143 80.9445 164.784 80.9878 164.361 81.0031C163.576 81.0337 162.888 80.9292 162.297 80.6896C161.711 80.4501 161.254 80.078 160.928 79.5734C160.602 79.0688 160.441 78.4317 160.446 77.6621V66.286ZM173.26 81.0719C172.052 81.0719 171.012 80.8272 170.141 80.3379C169.274 79.8436 168.606 79.1453 168.138 78.2432C167.669 77.3359 167.434 76.263 167.434 75.0245C167.434 73.8166 167.669 72.7564 168.138 71.8441C168.606 70.9318 169.267 70.2208 170.118 69.7111C170.974 69.2014 171.978 68.9466 173.13 68.9466C173.905 68.9466 174.626 69.0715 175.293 69.3212C175.966 69.5658 176.552 69.9354 177.052 70.4298C177.556 70.9241 177.949 71.546 178.229 72.2952C178.51 73.0393 178.65 73.9109 178.65 74.9098V75.8043H168.734V73.786H175.584C175.584 73.3171 175.482 72.9017 175.278 72.5398C175.074 72.178 174.791 71.8951 174.43 71.6912C174.073 71.4822 173.657 71.3778 173.183 71.3778C172.689 71.3778 172.251 71.4924 171.868 71.7218C171.491 71.9461 171.196 72.2493 170.982 72.6316C170.768 73.0087 170.658 73.4292 170.653 73.893V75.812C170.653 76.393 170.76 76.8951 170.974 77.3181C171.193 77.7411 171.501 78.0673 171.899 78.2967C172.297 78.526 172.768 78.6407 173.313 78.6407C173.675 78.6407 174.007 78.5897 174.307 78.4878C174.608 78.3859 174.865 78.233 175.079 78.0291C175.293 77.8252 175.457 77.5755 175.569 77.2799L178.581 77.4786C178.428 78.2024 178.115 78.8344 177.641 79.3746C177.172 79.9098 176.565 80.3278 175.821 80.6285C175.082 80.9241 174.228 81.0719 173.26 81.0719ZM185.102 81.0337C184.21 81.0337 183.403 80.8043 182.679 80.3456C181.96 79.8818 181.389 79.2014 180.966 78.3043C180.548 77.4022 180.339 76.2962 180.339 74.9863C180.339 73.6407 180.556 72.522 180.989 71.6301C181.422 70.733 181.998 70.0628 182.717 69.6194C183.441 69.1708 184.233 68.9466 185.095 68.9466C185.752 68.9466 186.3 69.0587 186.738 69.283C187.182 69.5021 187.539 69.7774 187.809 70.1087C188.084 70.4348 188.293 70.7559 188.436 71.0719H188.535V65.1851H191.784V80.8425H188.573V78.9618H188.436C188.283 79.288 188.066 79.6117 187.786 79.9327C187.511 80.2488 187.151 80.5112 186.708 80.7202C186.269 80.9292 185.734 81.0337 185.102 81.0337ZM186.134 78.4419C186.659 78.4419 187.103 78.2992 187.465 78.0138C187.832 77.7233 188.112 77.3181 188.306 76.7982C188.504 76.2783 188.604 75.6693 188.604 74.971C188.604 74.2727 188.507 73.6662 188.313 73.1514C188.12 72.6367 187.839 72.2391 187.472 71.9588C187.105 71.6785 186.659 71.5383 186.134 71.5383C185.599 71.5383 185.148 71.6836 184.781 71.9741C184.414 72.2646 184.136 72.6673 183.948 73.182C183.759 73.6968 183.665 74.2931 183.665 74.971C183.665 75.654 183.759 76.258 183.948 76.7829C184.142 77.3028 184.419 77.7105 184.781 78.0062C185.148 78.2967 185.599 78.4419 186.134 78.4419Z" fill="white"/>
<path d="M142.212 24.8397C142.008 24.8397 141.842 25.0064 141.842 25.2101V27.4321C141.842 27.6358 142.008 27.8024 142.212 27.8024H159.988C160.192 27.8024 160.359 27.6358 160.359 27.4321V25.2101C160.359 25.0064 160.192 24.8397 159.988 24.8397H142.212ZM150.73 31.5058H142.212C142.008 31.5058 141.842 31.6725 141.842 31.8761V34.0982C141.842 34.3018 142.008 34.4685 142.212 34.4685H150.73C150.934 34.4685 151.1 34.3018 151.1 34.0982V31.8761C151.1 31.6725 150.934 31.5058 150.73 31.5058ZM148.508 52.7076H138.138V20.1179H164.062V34.9314C164.062 35.1351 164.229 35.3018 164.432 35.3018H167.025C167.228 35.3018 167.395 35.1351 167.395 34.9314V18.2663C167.395 17.4469 166.733 16.7849 165.914 16.7849H136.287C135.467 16.7849 134.805 17.4469 134.805 18.2663V54.5593C134.805 55.3786 135.467 56.0406 136.287 56.0406H148.508C148.712 56.0406 148.878 55.874 148.878 55.6703V53.0779C148.878 52.8742 148.712 52.7076 148.508 52.7076ZM168.876 48.6339H162.21V46.9396C164.354 46.3008 165.914 44.3195 165.914 41.9678C165.914 39.1023 163.594 36.7831 160.729 36.7831C157.864 36.7831 155.544 39.1023 155.544 41.9678C155.544 44.3148 157.104 46.3008 159.248 46.9396V48.6339H152.582C152.174 48.6339 151.841 48.9672 151.841 49.3745V56.4109C151.841 56.8183 152.174 57.1516 152.582 57.1516H168.876C169.284 57.1516 169.617 56.8183 169.617 56.4109V49.3745C169.617 48.9672 169.284 48.6339 168.876 48.6339ZM158.414 41.9678C158.414 40.6902 159.451 39.6532 160.729 39.6532C162.007 39.6532 163.044 40.6902 163.044 41.9678C163.044 43.2455 162.007 44.2824 160.729 44.2824C159.451 44.2824 158.414 43.2455 158.414 41.9678ZM166.747 54.2815H154.711V51.504H166.747V54.2815Z" fill="#7DADF4"/>
<defs>
<filter id="filter0_i_141_1130" x="0.249756" y="0.638184" width="302.75" height="189.724" filterUnits="userSpaceOnUse" color-interpolation-filters="sRGB">
<feFlood flood-opacity="0" result="BackgroundImageFix"/>
<feBlend mode="normal" in="SourceGraphic" in2="BackgroundImageFix" result="shape"/>
<feColorMatrix in="SourceAlpha" type="matrix" values="0 0 0 0 0 0 0 0 0 0 0 0 0 0 0 0 0 0 127 0" result="hardAlpha"/>
<feOffset/>
<feGaussianBlur stdDeviation="4.03667"/>
<feComposite in2="hardAlpha" operator="arithmetic" k2="-1" k3="1"/>
<feColorMatrix type="matrix" values="0 0 0 0 0 0 0 0 0 0.4 0 0 0 0 1 0 0 0 0.75 0"/>
<feBlend mode="normal" in2="shape" result="effect1_innerShadow_141_1130"/>
</filter>
<linearGradient id="paint0_linear_141_1130" x1="151.625" y1="0.638184" x2="151.625" y2="190.362" gradientUnits="userSpaceOnUse">
<stop stop-color="#03315C"/>
<stop offset="1" stop-color="#010F2D"/>
</linearGradient>
</defs>
</svg>
