<svg width="303" height="191" viewBox="0 0 303 191" fill="none" xmlns="http://www.w3.org/2000/svg">
<g filter="url(#filter0_i_141_1132)">
<rect y="0.638184" width="302.75" height="189.724" rx="13.4556" fill="url(#paint0_linear_141_1132)"/>
</g>
<path d="M42.5011 115.173C42.3678 115.173 42.2545 115.126 42.1611 115.033C42.0678 114.94 42.0211 114.826 42.0211 114.693V103.633H38.3211C38.1878 103.633 38.0745 103.586 37.9811 103.493C37.8878 103.4 37.8411 103.286 37.8411 103.153V101.673C37.8411 101.526 37.8878 101.406 37.9811 101.313C38.0745 101.22 38.1878 101.173 38.3211 101.173H48.5211C48.6678 101.173 48.7878 101.22 48.8811 101.313C48.9745 101.406 49.0211 101.526 49.0211 101.673V103.153C49.0211 103.286 48.9745 103.4 48.8811 103.493C48.7878 103.586 48.6678 103.633 48.5211 103.633H44.8411V114.693C44.8411 114.826 44.7945 114.94 44.7011 115.033C44.6078 115.126 44.4878 115.173 44.3411 115.173H42.5011ZM50.9394 115.173C50.8061 115.173 50.6927 115.126 50.5994 115.033C50.5061 114.94 50.4594 114.826 50.4594 114.693V101.453C50.4594 101.32 50.5061 101.206 50.5994 101.113C50.6927 101.02 50.8061 100.973 50.9394 100.973H52.7194C52.8661 100.973 52.9794 101.02 53.0594 101.113C53.1527 101.206 53.1994 101.32 53.1994 101.453V106.013C53.5594 105.586 53.9994 105.24 54.5194 104.973C55.0394 104.706 55.6794 104.573 56.4394 104.573C57.2527 104.573 57.9594 104.76 58.5594 105.133C59.1727 105.493 59.6461 106.006 59.9794 106.673C60.3127 107.34 60.4794 108.14 60.4794 109.073V114.693C60.4794 114.826 60.4327 114.94 60.3394 115.033C60.2461 115.126 60.1327 115.173 59.9994 115.173H58.1994C58.0661 115.173 57.9527 115.126 57.8594 115.033C57.7661 114.94 57.7194 114.826 57.7194 114.693V109.193C57.7194 108.42 57.5261 107.813 57.1394 107.373C56.7661 106.933 56.2194 106.713 55.4994 106.713C54.8061 106.713 54.2461 106.933 53.8194 107.373C53.4061 107.813 53.1994 108.42 53.1994 109.193V114.693C53.1994 114.826 53.1527 114.94 53.0594 115.033C52.9794 115.126 52.8661 115.173 52.7194 115.173H50.9394ZM67.4975 115.373C66.0175 115.373 64.8442 114.946 63.9775 114.093C63.1109 113.24 62.6442 112.026 62.5775 110.453C62.5642 110.32 62.5575 110.153 62.5575 109.953C62.5575 109.74 62.5642 109.573 62.5775 109.453C62.6309 108.453 62.8575 107.586 63.2575 106.853C63.6709 106.12 64.2375 105.56 64.9575 105.173C65.6775 104.773 66.5242 104.573 67.4975 104.573C68.5775 104.573 69.4842 104.8 70.2175 105.253C70.9509 105.693 71.5042 106.313 71.8775 107.113C72.2509 107.9 72.4375 108.813 72.4375 109.853V110.273C72.4375 110.406 72.3909 110.52 72.2975 110.613C72.2042 110.706 72.0842 110.753 71.9375 110.753H65.2975C65.2975 110.753 65.2975 110.773 65.2975 110.813C65.2975 110.853 65.2975 110.886 65.2975 110.913C65.3109 111.38 65.3975 111.813 65.5575 112.213C65.7309 112.6 65.9775 112.913 66.2975 113.153C66.6309 113.393 67.0242 113.513 67.4775 113.513C67.8509 113.513 68.1642 113.46 68.4175 113.353C68.6709 113.233 68.8775 113.1 69.0375 112.953C69.1975 112.806 69.3109 112.686 69.3775 112.593C69.4975 112.433 69.5909 112.34 69.6575 112.313C69.7375 112.273 69.8509 112.253 69.9975 112.253H71.7175C71.8509 112.253 71.9575 112.293 72.0375 112.373C72.1309 112.453 72.1709 112.553 72.1575 112.673C72.1442 112.886 72.0309 113.146 71.8175 113.453C71.6175 113.76 71.3242 114.06 70.9375 114.353C70.5509 114.646 70.0642 114.893 69.4775 115.093C68.9042 115.28 68.2442 115.373 67.4975 115.373ZM65.2975 109.073H69.7175V109.013C69.7175 108.493 69.6309 108.04 69.4575 107.653C69.2842 107.266 69.0309 106.96 68.6975 106.733C68.3642 106.506 67.9642 106.393 67.4975 106.393C67.0309 106.393 66.6309 106.506 66.2975 106.733C65.9642 106.96 65.7109 107.266 65.5375 107.653C65.3775 108.04 65.2975 108.493 65.2975 109.013V109.073ZM82.2835 115.173C82.0701 115.173 81.9101 115.126 81.8035 115.033C81.7101 114.926 81.6301 114.806 81.5635 114.673L77.8235 105.393C77.7968 105.326 77.7835 105.266 77.7835 105.213C77.7835 105.093 77.8235 104.993 77.9035 104.913C77.9968 104.82 78.1035 104.773 78.2235 104.773H79.8435C80.0035 104.773 80.1235 104.82 80.2035 104.913C80.2835 104.993 80.3368 105.073 80.3635 105.153L83.0235 112.173L85.6835 105.153C85.7101 105.073 85.7635 104.993 85.8435 104.913C85.9235 104.82 86.0435 104.773 86.2035 104.773H87.8435C87.9501 104.773 88.0435 104.82 88.1235 104.913C88.2168 104.993 88.2635 105.093 88.2635 105.213C88.2635 105.266 88.2568 105.326 88.2435 105.393L84.4835 114.673C84.4301 114.806 84.3501 114.926 84.2435 115.033C84.1368 115.126 83.9768 115.173 83.7635 115.173H82.2835ZM92.6977 115.373C92.0043 115.373 91.3777 115.24 90.8177 114.973C90.2577 114.693 89.811 114.326 89.4777 113.873C89.1577 113.406 88.9977 112.886 88.9977 112.313C88.9977 111.38 89.371 110.64 90.1177 110.093C90.8777 109.533 91.8777 109.16 93.1177 108.973L95.8577 108.573V108.153C95.8577 107.593 95.7177 107.16 95.4377 106.853C95.1577 106.546 94.6777 106.393 93.9977 106.393C93.5177 106.393 93.1243 106.493 92.8177 106.693C92.5243 106.88 92.3043 107.133 92.1577 107.453C92.051 107.626 91.8977 107.713 91.6977 107.713H90.1177C89.971 107.713 89.8577 107.673 89.7777 107.593C89.711 107.513 89.6777 107.406 89.6777 107.273C89.691 107.06 89.7777 106.8 89.9377 106.493C90.0977 106.186 90.351 105.893 90.6977 105.613C91.0443 105.32 91.491 105.073 92.0377 104.873C92.5843 104.673 93.2443 104.573 94.0177 104.573C94.8577 104.573 95.5643 104.68 96.1377 104.893C96.7243 105.093 97.191 105.366 97.5377 105.713C97.8843 106.06 98.1377 106.466 98.2977 106.933C98.4577 107.4 98.5377 107.893 98.5377 108.413V114.693C98.5377 114.826 98.491 114.94 98.3977 115.033C98.3043 115.126 98.191 115.173 98.0577 115.173H96.4377C96.291 115.173 96.171 115.126 96.0777 115.033C95.9977 114.94 95.9577 114.826 95.9577 114.693V113.913C95.7843 114.166 95.551 114.406 95.2577 114.633C94.9643 114.846 94.6043 115.026 94.1777 115.173C93.7643 115.306 93.271 115.373 92.6977 115.373ZM93.3777 113.473C93.8443 113.473 94.2643 113.373 94.6377 113.173C95.0243 112.973 95.3243 112.666 95.5377 112.253C95.7643 111.826 95.8777 111.293 95.8777 110.653V110.233L93.8777 110.553C93.091 110.673 92.5043 110.866 92.1177 111.133C91.731 111.4 91.5377 111.726 91.5377 112.113C91.5377 112.406 91.6243 112.66 91.7977 112.873C91.9843 113.073 92.2177 113.226 92.4977 113.333C92.7777 113.426 93.071 113.473 93.3777 113.473ZM104.963 115.373C104.15 115.373 103.443 115.193 102.843 114.833C102.257 114.46 101.803 113.94 101.483 113.273C101.163 112.593 101.003 111.793 101.003 110.873V105.253C101.003 105.12 101.05 105.006 101.143 104.913C101.237 104.82 101.35 104.773 101.483 104.773H103.243C103.39 104.773 103.503 104.82 103.583 104.913C103.677 105.006 103.723 105.12 103.723 105.253V110.753C103.723 112.406 104.45 113.233 105.903 113.233C106.597 113.233 107.143 113.013 107.543 112.573C107.957 112.133 108.163 111.526 108.163 110.753V105.253C108.163 105.12 108.21 105.006 108.303 104.913C108.397 104.82 108.51 104.773 108.643 104.773H110.403C110.537 104.773 110.65 104.82 110.743 104.913C110.837 105.006 110.883 105.12 110.883 105.253V114.693C110.883 114.826 110.837 114.94 110.743 115.033C110.65 115.126 110.537 115.173 110.403 115.173H108.783C108.637 115.173 108.517 115.126 108.423 115.033C108.343 114.94 108.303 114.826 108.303 114.693V113.873C107.943 114.34 107.497 114.706 106.963 114.973C106.43 115.24 105.763 115.373 104.963 115.373ZM114.025 115.173C113.892 115.173 113.779 115.126 113.685 115.033C113.592 114.94 113.545 114.826 113.545 114.693V101.453C113.545 101.32 113.592 101.206 113.685 101.113C113.779 101.02 113.892 100.973 114.025 100.973H115.685C115.819 100.973 115.932 101.02 116.025 101.113C116.119 101.206 116.165 101.32 116.165 101.453V114.693C116.165 114.826 116.119 114.94 116.025 115.033C115.932 115.126 115.819 115.173 115.685 115.173H114.025ZM123.518 115.173C122.718 115.173 122.045 115.033 121.498 114.753C120.952 114.473 120.545 114.06 120.278 113.513C120.012 112.953 119.878 112.26 119.878 111.433V106.893H118.298C118.165 106.893 118.052 106.846 117.958 106.753C117.865 106.66 117.818 106.546 117.818 106.413V105.253C117.818 105.12 117.865 105.006 117.958 104.913C118.052 104.82 118.165 104.773 118.298 104.773H119.878V101.453C119.878 101.32 119.918 101.206 119.998 101.113C120.092 101.02 120.212 100.973 120.358 100.973H121.978C122.112 100.973 122.225 101.02 122.318 101.113C122.412 101.206 122.458 101.32 122.458 101.453V104.773H124.958C125.092 104.773 125.205 104.82 125.298 104.913C125.392 105.006 125.438 105.12 125.438 105.253V106.413C125.438 106.546 125.392 106.66 125.298 106.753C125.205 106.846 125.092 106.893 124.958 106.893H122.458V111.233C122.458 111.78 122.552 112.206 122.738 112.513C122.938 112.82 123.278 112.973 123.758 112.973H125.138C125.272 112.973 125.385 113.02 125.478 113.113C125.572 113.206 125.618 113.32 125.618 113.453V114.693C125.618 114.826 125.572 114.94 125.478 115.033C125.385 115.126 125.272 115.173 125.138 115.173H123.518ZM131.333 115.373C130.533 115.373 129.846 115.28 129.273 115.093C128.713 114.906 128.253 114.673 127.893 114.393C127.533 114.113 127.266 113.833 127.093 113.553C126.919 113.273 126.826 113.04 126.813 112.853C126.799 112.706 126.839 112.593 126.933 112.513C127.039 112.42 127.153 112.373 127.273 112.373H128.853C128.906 112.373 128.953 112.38 128.993 112.393C129.033 112.406 129.086 112.446 129.153 112.513C129.326 112.66 129.506 112.813 129.693 112.973C129.893 113.133 130.126 113.273 130.393 113.393C130.659 113.5 130.993 113.553 131.393 113.553C131.913 113.553 132.346 113.453 132.693 113.253C133.053 113.04 133.233 112.74 133.233 112.353C133.233 112.073 133.153 111.846 132.993 111.673C132.846 111.5 132.566 111.346 132.153 111.213C131.739 111.066 131.153 110.913 130.393 110.753C129.646 110.58 129.026 110.36 128.533 110.093C128.039 109.826 127.673 109.493 127.433 109.093C127.193 108.693 127.073 108.226 127.073 107.693C127.073 107.173 127.226 106.68 127.533 106.213C127.853 105.733 128.319 105.34 128.933 105.033C129.559 104.726 130.333 104.573 131.253 104.573C131.973 104.573 132.599 104.666 133.133 104.853C133.666 105.026 134.106 105.246 134.453 105.513C134.813 105.78 135.086 106.053 135.273 106.333C135.459 106.6 135.559 106.833 135.573 107.033C135.586 107.18 135.546 107.3 135.453 107.393C135.359 107.473 135.253 107.513 135.133 107.513H133.653C133.586 107.513 133.526 107.5 133.473 107.473C133.419 107.446 133.366 107.413 133.313 107.373C133.166 107.24 133.006 107.1 132.833 106.953C132.659 106.806 132.446 106.68 132.193 106.573C131.953 106.453 131.633 106.393 131.233 106.393C130.726 106.393 130.339 106.506 130.073 106.733C129.806 106.946 129.673 107.22 129.673 107.553C129.673 107.78 129.733 107.98 129.853 108.153C129.986 108.313 130.246 108.466 130.633 108.613C131.019 108.76 131.606 108.913 132.393 109.073C133.286 109.233 133.993 109.473 134.513 109.793C135.046 110.1 135.419 110.46 135.633 110.873C135.859 111.273 135.973 111.72 135.973 112.213C135.973 112.813 135.793 113.353 135.433 113.833C135.086 114.313 134.566 114.693 133.873 114.973C133.193 115.24 132.346 115.373 131.333 115.373ZM145.627 115.373C144.934 115.373 144.307 115.24 143.747 114.973C143.187 114.693 142.741 114.326 142.407 113.873C142.087 113.406 141.927 112.886 141.927 112.313C141.927 111.38 142.301 110.64 143.047 110.093C143.807 109.533 144.807 109.16 146.047 108.973L148.787 108.573V108.153C148.787 107.593 148.647 107.16 148.367 106.853C148.087 106.546 147.607 106.393 146.927 106.393C146.447 106.393 146.054 106.493 145.747 106.693C145.454 106.88 145.234 107.133 145.087 107.453C144.981 107.626 144.827 107.713 144.627 107.713H143.047C142.901 107.713 142.787 107.673 142.707 107.593C142.641 107.513 142.607 107.406 142.607 107.273C142.621 107.06 142.707 106.8 142.867 106.493C143.027 106.186 143.281 105.893 143.627 105.613C143.974 105.32 144.421 105.073 144.967 104.873C145.514 104.673 146.174 104.573 146.947 104.573C147.787 104.573 148.494 104.68 149.067 104.893C149.654 105.093 150.121 105.366 150.467 105.713C150.814 106.06 151.067 106.466 151.227 106.933C151.387 107.4 151.467 107.893 151.467 108.413V114.693C151.467 114.826 151.421 114.94 151.327 115.033C151.234 115.126 151.121 115.173 150.987 115.173H149.367C149.221 115.173 149.101 115.126 149.007 115.033C148.927 114.94 148.887 114.826 148.887 114.693V113.913C148.714 114.166 148.481 114.406 148.187 114.633C147.894 114.846 147.534 115.026 147.107 115.173C146.694 115.306 146.201 115.373 145.627 115.373ZM146.307 113.473C146.774 113.473 147.194 113.373 147.567 113.173C147.954 112.973 148.254 112.666 148.467 112.253C148.694 111.826 148.807 111.293 148.807 110.653V110.233L146.807 110.553C146.021 110.673 145.434 110.866 145.047 111.133C144.661 111.4 144.467 111.726 144.467 112.113C144.467 112.406 144.554 112.66 144.727 112.873C144.914 113.073 145.147 113.226 145.427 113.333C145.707 113.426 146.001 113.473 146.307 113.473ZM154.513 115.173C154.38 115.173 154.266 115.126 154.173 115.033C154.08 114.94 154.033 114.826 154.033 114.693V105.273C154.033 105.126 154.08 105.006 154.173 104.913C154.266 104.82 154.38 104.773 154.513 104.773H156.133C156.266 104.773 156.38 104.82 156.473 104.913C156.58 105.006 156.633 105.126 156.633 105.273V106.093C156.94 105.666 157.333 105.34 157.813 105.113C158.306 104.886 158.873 104.773 159.513 104.773H160.333C160.48 104.773 160.593 104.82 160.673 104.913C160.766 105.006 160.813 105.12 160.813 105.253V106.693C160.813 106.826 160.766 106.94 160.673 107.033C160.593 107.126 160.48 107.173 160.333 107.173H158.773C158.133 107.173 157.633 107.353 157.273 107.713C156.926 108.073 156.753 108.566 156.753 109.193V114.693C156.753 114.826 156.706 114.94 156.613 115.033C156.52 115.126 156.4 115.173 156.253 115.173H154.513ZM166.716 115.373C165.236 115.373 164.063 114.946 163.196 114.093C162.33 113.24 161.863 112.026 161.796 110.453C161.783 110.32 161.776 110.153 161.776 109.953C161.776 109.74 161.783 109.573 161.796 109.453C161.85 108.453 162.076 107.586 162.476 106.853C162.89 106.12 163.456 105.56 164.176 105.173C164.896 104.773 165.743 104.573 166.716 104.573C167.796 104.573 168.703 104.8 169.436 105.253C170.17 105.693 170.723 106.313 171.096 107.113C171.47 107.9 171.656 108.813 171.656 109.853V110.273C171.656 110.406 171.61 110.52 171.516 110.613C171.423 110.706 171.303 110.753 171.156 110.753H164.516C164.516 110.753 164.516 110.773 164.516 110.813C164.516 110.853 164.516 110.886 164.516 110.913C164.53 111.38 164.616 111.813 164.776 112.213C164.95 112.6 165.196 112.913 165.516 113.153C165.85 113.393 166.243 113.513 166.696 113.513C167.07 113.513 167.383 113.46 167.636 113.353C167.89 113.233 168.096 113.1 168.256 112.953C168.416 112.806 168.53 112.686 168.596 112.593C168.716 112.433 168.81 112.34 168.876 112.313C168.956 112.273 169.07 112.253 169.216 112.253H170.936C171.07 112.253 171.176 112.293 171.256 112.373C171.35 112.453 171.39 112.553 171.376 112.673C171.363 112.886 171.25 113.146 171.036 113.453C170.836 113.76 170.543 114.06 170.156 114.353C169.77 114.646 169.283 114.893 168.696 115.093C168.123 115.28 167.463 115.373 166.716 115.373ZM164.516 109.073H168.936V109.013C168.936 108.493 168.85 108.04 168.676 107.653C168.503 107.266 168.25 106.96 167.916 106.733C167.583 106.506 167.183 106.393 166.716 106.393C166.25 106.393 165.85 106.506 165.516 106.733C165.183 106.96 164.93 107.266 164.756 107.653C164.596 108.04 164.516 108.493 164.516 109.013V109.073ZM182.21 115.373C181.516 115.373 180.903 115.26 180.37 115.033C179.85 114.793 179.416 114.46 179.07 114.033C178.723 113.606 178.456 113.106 178.27 112.533C178.083 111.946 177.976 111.306 177.95 110.613C177.936 110.373 177.93 110.16 177.93 109.973C177.93 109.773 177.936 109.553 177.95 109.313C177.976 108.646 178.076 108.026 178.25 107.453C178.436 106.88 178.703 106.38 179.05 105.953C179.41 105.513 179.85 105.173 180.37 104.933C180.903 104.693 181.516 104.573 182.21 104.573C182.93 104.573 183.536 104.7 184.03 104.953C184.536 105.193 184.956 105.506 185.29 105.893V101.453C185.29 101.32 185.33 101.206 185.41 101.113C185.503 101.02 185.623 100.973 185.77 100.973H187.47C187.603 100.973 187.716 101.02 187.81 101.113C187.903 101.206 187.95 101.32 187.95 101.453V114.693C187.95 114.826 187.903 114.94 187.81 115.033C187.716 115.126 187.603 115.173 187.47 115.173H185.89C185.743 115.173 185.623 115.126 185.53 115.033C185.45 114.94 185.41 114.826 185.41 114.693V113.953C185.076 114.366 184.65 114.706 184.13 114.973C183.623 115.24 182.983 115.373 182.21 115.373ZM182.95 113.233C183.51 113.233 183.956 113.106 184.29 112.853C184.623 112.6 184.87 112.28 185.03 111.893C185.19 111.493 185.276 111.086 185.29 110.673C185.303 110.433 185.31 110.18 185.31 109.913C185.31 109.633 185.303 109.373 185.29 109.133C185.276 108.733 185.183 108.353 185.01 107.993C184.836 107.62 184.583 107.313 184.25 107.073C183.916 106.833 183.483 106.713 182.95 106.713C182.39 106.713 181.943 106.84 181.61 107.093C181.29 107.333 181.056 107.653 180.91 108.053C180.763 108.453 180.676 108.893 180.65 109.373C180.636 109.773 180.636 110.173 180.65 110.573C180.676 111.053 180.763 111.493 180.91 111.893C181.056 112.293 181.29 112.62 181.61 112.873C181.943 113.113 182.39 113.233 182.95 113.233ZM195.095 115.373C193.615 115.373 192.442 114.946 191.575 114.093C190.709 113.24 190.242 112.026 190.175 110.453C190.162 110.32 190.155 110.153 190.155 109.953C190.155 109.74 190.162 109.573 190.175 109.453C190.229 108.453 190.455 107.586 190.855 106.853C191.269 106.12 191.835 105.56 192.555 105.173C193.275 104.773 194.122 104.573 195.095 104.573C196.175 104.573 197.082 104.8 197.815 105.253C198.549 105.693 199.102 106.313 199.475 107.113C199.849 107.9 200.035 108.813 200.035 109.853V110.273C200.035 110.406 199.989 110.52 199.895 110.613C199.802 110.706 199.682 110.753 199.535 110.753H192.895C192.895 110.753 192.895 110.773 192.895 110.813C192.895 110.853 192.895 110.886 192.895 110.913C192.909 111.38 192.995 111.813 193.155 112.213C193.329 112.6 193.575 112.913 193.895 113.153C194.229 113.393 194.622 113.513 195.075 113.513C195.449 113.513 195.762 113.46 196.015 113.353C196.269 113.233 196.475 113.1 196.635 112.953C196.795 112.806 196.909 112.686 196.975 112.593C197.095 112.433 197.189 112.34 197.255 112.313C197.335 112.273 197.449 112.253 197.595 112.253H199.315C199.449 112.253 199.555 112.293 199.635 112.373C199.729 112.453 199.769 112.553 199.755 112.673C199.742 112.886 199.629 113.146 199.415 113.453C199.215 113.76 198.922 114.06 198.535 114.353C198.149 114.646 197.662 114.893 197.075 115.093C196.502 115.28 195.842 115.373 195.095 115.373ZM192.895 109.073H197.315V109.013C197.315 108.493 197.229 108.04 197.055 107.653C196.882 107.266 196.629 106.96 196.295 106.733C195.962 106.506 195.562 106.393 195.095 106.393C194.629 106.393 194.229 106.506 193.895 106.733C193.562 106.96 193.309 107.266 193.135 107.653C192.975 108.04 192.895 108.493 192.895 109.013V109.073ZM206.098 115.373C205.298 115.373 204.611 115.28 204.038 115.093C203.478 114.906 203.018 114.673 202.658 114.393C202.298 114.113 202.031 113.833 201.858 113.553C201.685 113.273 201.591 113.04 201.578 112.853C201.565 112.706 201.605 112.593 201.698 112.513C201.805 112.42 201.918 112.373 202.038 112.373H203.618C203.671 112.373 203.718 112.38 203.758 112.393C203.798 112.406 203.851 112.446 203.918 112.513C204.091 112.66 204.271 112.813 204.458 112.973C204.658 113.133 204.891 113.273 205.158 113.393C205.425 113.5 205.758 113.553 206.158 113.553C206.678 113.553 207.111 113.453 207.458 113.253C207.818 113.04 207.998 112.74 207.998 112.353C207.998 112.073 207.918 111.846 207.758 111.673C207.611 111.5 207.331 111.346 206.918 111.213C206.505 111.066 205.918 110.913 205.158 110.753C204.411 110.58 203.791 110.36 203.298 110.093C202.805 109.826 202.438 109.493 202.198 109.093C201.958 108.693 201.838 108.226 201.838 107.693C201.838 107.173 201.991 106.68 202.298 106.213C202.618 105.733 203.085 105.34 203.698 105.033C204.325 104.726 205.098 104.573 206.018 104.573C206.738 104.573 207.365 104.666 207.898 104.853C208.431 105.026 208.871 105.246 209.218 105.513C209.578 105.78 209.851 106.053 210.038 106.333C210.225 106.6 210.325 106.833 210.338 107.033C210.351 107.18 210.311 107.3 210.218 107.393C210.125 107.473 210.018 107.513 209.898 107.513H208.418C208.351 107.513 208.291 107.5 208.238 107.473C208.185 107.446 208.131 107.413 208.078 107.373C207.931 107.24 207.771 107.1 207.598 106.953C207.425 106.806 207.211 106.68 206.958 106.573C206.718 106.453 206.398 106.393 205.998 106.393C205.491 106.393 205.105 106.506 204.838 106.733C204.571 106.946 204.438 107.22 204.438 107.553C204.438 107.78 204.498 107.98 204.618 108.153C204.751 108.313 205.011 108.466 205.398 108.613C205.785 108.76 206.371 108.913 207.158 109.073C208.051 109.233 208.758 109.473 209.278 109.793C209.811 110.1 210.185 110.46 210.398 110.873C210.625 111.273 210.738 111.72 210.738 112.213C210.738 112.813 210.558 113.353 210.198 113.833C209.851 114.313 209.331 114.693 208.638 114.973C207.958 115.24 207.111 115.373 206.098 115.373ZM213.283 115.173C213.149 115.173 213.036 115.126 212.943 115.033C212.849 114.94 212.803 114.826 212.803 114.693V105.253C212.803 105.12 212.849 105.006 212.943 104.913C213.036 104.82 213.149 104.773 213.283 104.773H214.943C215.089 104.773 215.203 104.82 215.283 104.913C215.376 105.006 215.423 105.12 215.423 105.253V114.693C215.423 114.826 215.376 114.94 215.283 115.033C215.203 115.126 215.089 115.173 214.943 115.173H213.283ZM213.203 103.053C213.056 103.053 212.936 103.013 212.843 102.933C212.763 102.84 212.723 102.72 212.723 102.573V101.133C212.723 101 212.763 100.886 212.843 100.793C212.936 100.7 213.056 100.653 213.203 100.653H215.023C215.169 100.653 215.289 100.7 215.383 100.793C215.476 100.886 215.523 101 215.523 101.133V102.573C215.523 102.72 215.476 102.84 215.383 102.933C215.289 103.013 215.169 103.053 215.023 103.053H213.203ZM222.776 119.573C221.803 119.573 221.003 119.446 220.376 119.193C219.749 118.94 219.256 118.633 218.896 118.273C218.536 117.913 218.276 117.553 218.116 117.193C217.969 116.846 217.889 116.573 217.876 116.373C217.863 116.24 217.903 116.12 217.996 116.013C218.103 115.92 218.223 115.873 218.356 115.873H220.096C220.229 115.873 220.336 115.9 220.416 115.953C220.496 116.02 220.563 116.133 220.616 116.293C220.696 116.466 220.803 116.653 220.936 116.853C221.069 117.053 221.269 117.22 221.536 117.353C221.816 117.5 222.196 117.573 222.676 117.573C223.183 117.573 223.609 117.5 223.956 117.353C224.303 117.206 224.563 116.96 224.736 116.613C224.923 116.266 225.016 115.786 225.016 115.173V113.813C224.696 114.2 224.283 114.513 223.776 114.753C223.283 114.993 222.669 115.113 221.936 115.113C221.216 115.113 220.596 115 220.076 114.773C219.556 114.533 219.123 114.206 218.776 113.793C218.429 113.366 218.163 112.866 217.976 112.293C217.803 111.72 217.703 111.086 217.676 110.393C217.663 110.033 217.663 109.673 217.676 109.313C217.703 108.646 217.803 108.026 217.976 107.453C218.149 106.88 218.409 106.38 218.756 105.953C219.116 105.513 219.556 105.173 220.076 104.933C220.596 104.693 221.216 104.573 221.936 104.573C222.696 104.573 223.336 104.72 223.856 105.013C224.376 105.293 224.803 105.646 225.136 106.073V105.273C225.136 105.126 225.183 105.006 225.276 104.913C225.369 104.82 225.483 104.773 225.616 104.773H227.236C227.369 104.773 227.483 104.82 227.576 104.913C227.669 105.006 227.716 105.126 227.716 105.273L227.736 114.913C227.736 115.873 227.556 116.7 227.196 117.393C226.836 118.086 226.289 118.62 225.556 118.993C224.836 119.38 223.909 119.573 222.776 119.573ZM222.676 112.993C223.223 112.993 223.663 112.873 223.996 112.633C224.329 112.393 224.576 112.08 224.736 111.693C224.896 111.306 224.989 110.913 225.016 110.513C225.029 110.34 225.036 110.12 225.036 109.853C225.036 109.586 225.029 109.373 225.016 109.213C224.989 108.8 224.896 108.406 224.736 108.033C224.576 107.646 224.329 107.333 223.996 107.093C223.663 106.84 223.223 106.713 222.676 106.713C222.129 106.713 221.689 106.84 221.356 107.093C221.023 107.333 220.783 107.653 220.636 108.053C220.503 108.453 220.423 108.893 220.396 109.373C220.369 109.693 220.369 110.02 220.396 110.353C220.423 110.82 220.503 111.26 220.636 111.673C220.783 112.073 221.023 112.393 221.356 112.633C221.689 112.873 222.129 112.993 222.676 112.993ZM230.88 115.173C230.747 115.173 230.634 115.126 230.54 115.033C230.447 114.94 230.4 114.826 230.4 114.693V105.253C230.4 105.12 230.447 105.006 230.54 104.913C230.634 104.82 230.747 104.773 230.88 104.773H232.52C232.654 104.773 232.767 104.82 232.86 104.913C232.954 105.006 233 105.12 233 105.253V106.073C233.347 105.646 233.787 105.293 234.32 105.013C234.867 104.72 235.54 104.573 236.34 104.573C237.154 104.573 237.86 104.76 238.46 105.133C239.06 105.493 239.52 106.006 239.84 106.673C240.174 107.34 240.34 108.14 240.34 109.073V114.693C240.34 114.826 240.294 114.94 240.2 115.033C240.107 115.126 239.994 115.173 239.86 115.173H238.1C237.967 115.173 237.854 115.126 237.76 115.033C237.667 114.94 237.62 114.826 237.62 114.693V109.193C237.62 108.42 237.427 107.813 237.04 107.373C236.667 106.933 236.12 106.713 235.4 106.713C234.707 106.713 234.154 106.933 233.74 107.373C233.327 107.813 233.12 108.42 233.12 109.193V114.693C233.12 114.826 233.074 114.94 232.98 115.033C232.887 115.126 232.774 115.173 232.64 115.173H230.88ZM247.361 115.373C245.881 115.373 244.707 114.946 243.841 114.093C242.974 113.24 242.507 112.026 242.441 110.453C242.427 110.32 242.421 110.153 242.421 109.953C242.421 109.74 242.427 109.573 242.441 109.453C242.494 108.453 242.721 107.586 243.121 106.853C243.534 106.12 244.101 105.56 244.821 105.173C245.541 104.773 246.387 104.573 247.361 104.573C248.441 104.573 249.347 104.8 250.081 105.253C250.814 105.693 251.367 106.313 251.741 107.113C252.114 107.9 252.301 108.813 252.301 109.853V110.273C252.301 110.406 252.254 110.52 252.161 110.613C252.067 110.706 251.947 110.753 251.801 110.753H245.161C245.161 110.753 245.161 110.773 245.161 110.813C245.161 110.853 245.161 110.886 245.161 110.913C245.174 111.38 245.261 111.813 245.421 112.213C245.594 112.6 245.841 112.913 246.161 113.153C246.494 113.393 246.887 113.513 247.341 113.513C247.714 113.513 248.027 113.46 248.281 113.353C248.534 113.233 248.741 113.1 248.901 112.953C249.061 112.806 249.174 112.686 249.241 112.593C249.361 112.433 249.454 112.34 249.521 112.313C249.601 112.273 249.714 112.253 249.861 112.253H251.581C251.714 112.253 251.821 112.293 251.901 112.373C251.994 112.453 252.034 112.553 252.021 112.673C252.007 112.886 251.894 113.146 251.681 113.453C251.481 113.76 251.187 114.06 250.801 114.353C250.414 114.646 249.927 114.893 249.341 115.093C248.767 115.28 248.107 115.373 247.361 115.373ZM245.161 109.073H249.581V109.013C249.581 108.493 249.494 108.04 249.321 107.653C249.147 107.266 248.894 106.96 248.561 106.733C248.227 106.506 247.827 106.393 247.361 106.393C246.894 106.393 246.494 106.506 246.161 106.733C245.827 106.96 245.574 107.266 245.401 107.653C245.241 108.04 245.161 108.493 245.161 109.013V109.073ZM258.284 115.373C257.59 115.373 256.977 115.26 256.444 115.033C255.924 114.793 255.49 114.46 255.144 114.033C254.797 113.606 254.53 113.106 254.344 112.533C254.157 111.946 254.05 111.306 254.024 110.613C254.01 110.373 254.004 110.16 254.004 109.973C254.004 109.773 254.01 109.553 254.024 109.313C254.05 108.646 254.15 108.026 254.324 107.453C254.51 106.88 254.777 106.38 255.124 105.953C255.484 105.513 255.924 105.173 256.444 104.933C256.977 104.693 257.59 104.573 258.284 104.573C259.004 104.573 259.61 104.7 260.104 104.953C260.61 105.193 261.03 105.506 261.364 105.893V101.453C261.364 101.32 261.404 101.206 261.484 101.113C261.577 101.02 261.697 100.973 261.844 100.973H263.544C263.677 100.973 263.79 101.02 263.884 101.113C263.977 101.206 264.024 101.32 264.024 101.453V114.693C264.024 114.826 263.977 114.94 263.884 115.033C263.79 115.126 263.677 115.173 263.544 115.173H261.964C261.817 115.173 261.697 115.126 261.604 115.033C261.524 114.94 261.484 114.826 261.484 114.693V113.953C261.15 114.366 260.724 114.706 260.204 114.973C259.697 115.24 259.057 115.373 258.284 115.373ZM259.024 113.233C259.584 113.233 260.03 113.106 260.364 112.853C260.697 112.6 260.944 112.28 261.104 111.893C261.264 111.493 261.35 111.086 261.364 110.673C261.377 110.433 261.384 110.18 261.384 109.913C261.384 109.633 261.377 109.373 261.364 109.133C261.35 108.733 261.257 108.353 261.084 107.993C260.91 107.62 260.657 107.313 260.324 107.073C259.99 106.833 259.557 106.713 259.024 106.713C258.464 106.713 258.017 106.84 257.684 107.093C257.364 107.333 257.13 107.653 256.984 108.053C256.837 108.453 256.75 108.893 256.724 109.373C256.71 109.773 256.71 110.173 256.724 110.573C256.75 111.053 256.837 111.493 256.984 111.893C257.13 112.293 257.364 112.62 257.684 112.873C258.017 113.113 258.464 113.233 259.024 113.233ZM60.4962 139.173C60.3095 139.173 60.1695 139.126 60.0762 139.033C59.9829 138.94 59.9029 138.82 59.8362 138.673L56.9762 129.393C56.9629 129.326 56.9562 129.266 56.9562 129.213C56.9562 129.093 56.9962 128.993 57.0762 128.913C57.1695 128.82 57.2695 128.773 57.3762 128.773H58.8562C59.0162 128.773 59.1429 128.82 59.2362 128.913C59.3295 128.993 59.3829 129.073 59.3962 129.153L61.3562 135.773L63.4362 129.213C63.4629 129.12 63.5229 129.026 63.6162 128.933C63.7095 128.826 63.8495 128.773 64.0362 128.773H65.0362C65.2229 128.773 65.3629 128.826 65.4562 128.933C65.5495 129.026 65.6095 129.12 65.6362 129.213L67.7162 135.773L69.6762 129.153C69.6895 129.073 69.7362 128.993 69.8162 128.913C69.9095 128.82 70.0362 128.773 70.1962 128.773H71.6762C71.7962 128.773 71.8962 128.82 71.9762 128.913C72.0695 128.993 72.1162 129.093 72.1162 129.213C72.1162 129.266 72.1029 129.326 72.0762 129.393L69.2162 138.673C69.1762 138.82 69.1029 138.94 68.9962 139.033C68.9029 139.126 68.7629 139.173 68.5762 139.173H67.2762C67.0895 139.173 66.9429 139.126 66.8362 139.033C66.7295 138.94 66.6562 138.82 66.6162 138.673L64.5362 132.353L62.4562 138.673C62.4029 138.82 62.3229 138.94 62.2162 139.033C62.1229 139.126 61.9762 139.173 61.7762 139.173H60.4962ZM74.5424 139.173C74.4091 139.173 74.2958 139.126 74.2024 139.033C74.1091 138.94 74.0624 138.826 74.0624 138.693V129.253C74.0624 129.12 74.1091 129.006 74.2024 128.913C74.2958 128.82 74.4091 128.773 74.5424 128.773H76.2024C76.3491 128.773 76.4624 128.82 76.5424 128.913C76.6358 129.006 76.6824 129.12 76.6824 129.253V138.693C76.6824 138.826 76.6358 138.94 76.5424 139.033C76.4624 139.126 76.3491 139.173 76.2024 139.173H74.5424ZM74.4624 127.053C74.3158 127.053 74.1958 127.013 74.1024 126.933C74.0224 126.84 73.9824 126.72 73.9824 126.573V125.133C73.9824 125 74.0224 124.886 74.1024 124.793C74.1958 124.7 74.3158 124.653 74.4624 124.653H76.2824C76.4291 124.653 76.5491 124.7 76.6424 124.793C76.7358 124.886 76.7824 125 76.7824 125.133V126.573C76.7824 126.72 76.7358 126.84 76.6424 126.933C76.5491 127.013 76.4291 127.053 76.2824 127.053H74.4624ZM84.0359 139.173C83.2359 139.173 82.5626 139.033 82.0159 138.753C81.4692 138.473 81.0626 138.06 80.7959 137.513C80.5292 136.953 80.3959 136.26 80.3959 135.433V130.893H78.8159C78.6826 130.893 78.5692 130.846 78.4759 130.753C78.3826 130.66 78.3359 130.546 78.3359 130.413V129.253C78.3359 129.12 78.3826 129.006 78.4759 128.913C78.5692 128.82 78.6826 128.773 78.8159 128.773H80.3959V125.453C80.3959 125.32 80.4359 125.206 80.5159 125.113C80.6092 125.02 80.7292 124.973 80.8759 124.973H82.4959C82.6292 124.973 82.7426 125.02 82.8359 125.113C82.9292 125.206 82.9759 125.32 82.9759 125.453V128.773H85.4759C85.6092 128.773 85.7226 128.82 85.8159 128.913C85.9092 129.006 85.9559 129.12 85.9559 129.253V130.413C85.9559 130.546 85.9092 130.66 85.8159 130.753C85.7226 130.846 85.6092 130.893 85.4759 130.893H82.9759V135.233C82.9759 135.78 83.0692 136.206 83.2559 136.513C83.4559 136.82 83.7959 136.973 84.2759 136.973H85.6559C85.7892 136.973 85.9026 137.02 85.9959 137.113C86.0892 137.206 86.1359 137.32 86.1359 137.453V138.693C86.1359 138.826 86.0892 138.94 85.9959 139.033C85.9026 139.126 85.7892 139.173 85.6559 139.173H84.0359ZM88.4101 139.173C88.2768 139.173 88.1634 139.126 88.0701 139.033C87.9768 138.94 87.9301 138.826 87.9301 138.693V125.453C87.9301 125.32 87.9768 125.206 88.0701 125.113C88.1634 125.02 88.2768 124.973 88.4101 124.973H90.1901C90.3368 124.973 90.4501 125.02 90.5301 125.113C90.6234 125.206 90.6701 125.32 90.6701 125.453V130.013C91.0301 129.586 91.4701 129.24 91.9901 128.973C92.5101 128.706 93.1501 128.573 93.9101 128.573C94.7234 128.573 95.4301 128.76 96.0301 129.133C96.6434 129.493 97.1168 130.006 97.4501 130.673C97.7834 131.34 97.9501 132.14 97.9501 133.073V138.693C97.9501 138.826 97.9034 138.94 97.8101 139.033C97.7168 139.126 97.6034 139.173 97.4701 139.173H95.6701C95.5368 139.173 95.4234 139.126 95.3301 139.033C95.2368 138.94 95.1901 138.826 95.1901 138.693V133.193C95.1901 132.42 94.9968 131.813 94.6101 131.373C94.2368 130.933 93.6901 130.713 92.9701 130.713C92.2768 130.713 91.7168 130.933 91.2901 131.373C90.8768 131.813 90.6701 132.42 90.6701 133.193V138.693C90.6701 138.826 90.6234 138.94 90.5301 139.033C90.4501 139.126 90.3368 139.173 90.1901 139.173H88.4101ZM108.999 139.373C108.199 139.373 107.512 139.28 106.939 139.093C106.379 138.906 105.919 138.673 105.559 138.393C105.199 138.113 104.932 137.833 104.759 137.553C104.585 137.273 104.492 137.04 104.479 136.853C104.465 136.706 104.505 136.593 104.599 136.513C104.705 136.42 104.819 136.373 104.939 136.373H106.519C106.572 136.373 106.619 136.38 106.659 136.393C106.699 136.406 106.752 136.446 106.819 136.513C106.992 136.66 107.172 136.813 107.359 136.973C107.559 137.133 107.792 137.273 108.059 137.393C108.325 137.5 108.659 137.553 109.059 137.553C109.579 137.553 110.012 137.453 110.359 137.253C110.719 137.04 110.899 136.74 110.899 136.353C110.899 136.073 110.819 135.846 110.659 135.673C110.512 135.5 110.232 135.346 109.819 135.213C109.405 135.066 108.819 134.913 108.059 134.753C107.312 134.58 106.692 134.36 106.199 134.093C105.705 133.826 105.339 133.493 105.099 133.093C104.859 132.693 104.739 132.226 104.739 131.693C104.739 131.173 104.892 130.68 105.199 130.213C105.519 129.733 105.985 129.34 106.599 129.033C107.225 128.726 107.999 128.573 108.919 128.573C109.639 128.573 110.265 128.666 110.799 128.853C111.332 129.026 111.772 129.246 112.119 129.513C112.479 129.78 112.752 130.053 112.939 130.333C113.125 130.6 113.225 130.833 113.239 131.033C113.252 131.18 113.212 131.3 113.119 131.393C113.025 131.473 112.919 131.513 112.799 131.513H111.319C111.252 131.513 111.192 131.5 111.139 131.473C111.085 131.446 111.032 131.413 110.979 131.373C110.832 131.24 110.672 131.1 110.499 130.953C110.325 130.806 110.112 130.68 109.859 130.573C109.619 130.453 109.299 130.393 108.899 130.393C108.392 130.393 108.005 130.506 107.739 130.733C107.472 130.946 107.339 131.22 107.339 131.553C107.339 131.78 107.399 131.98 107.519 132.153C107.652 132.313 107.912 132.466 108.299 132.613C108.685 132.76 109.272 132.913 110.059 133.073C110.952 133.233 111.659 133.473 112.179 133.793C112.712 134.1 113.085 134.46 113.299 134.873C113.525 135.273 113.639 135.72 113.639 136.213C113.639 136.813 113.459 137.353 113.099 137.833C112.752 138.313 112.232 138.693 111.539 138.973C110.859 139.24 110.012 139.373 108.999 139.373ZM120.183 139.373C118.703 139.373 117.53 138.946 116.663 138.093C115.796 137.24 115.33 136.026 115.263 134.453C115.25 134.32 115.243 134.153 115.243 133.953C115.243 133.74 115.25 133.573 115.263 133.453C115.316 132.453 115.543 131.586 115.943 130.853C116.356 130.12 116.923 129.56 117.643 129.173C118.363 128.773 119.21 128.573 120.183 128.573C121.263 128.573 122.17 128.8 122.903 129.253C123.636 129.693 124.19 130.313 124.563 131.113C124.936 131.9 125.123 132.813 125.123 133.853V134.273C125.123 134.406 125.076 134.52 124.983 134.613C124.89 134.706 124.77 134.753 124.623 134.753H117.983C117.983 134.753 117.983 134.773 117.983 134.813C117.983 134.853 117.983 134.886 117.983 134.913C117.996 135.38 118.083 135.813 118.243 136.213C118.416 136.6 118.663 136.913 118.983 137.153C119.316 137.393 119.71 137.513 120.163 137.513C120.536 137.513 120.85 137.46 121.103 137.353C121.356 137.233 121.563 137.1 121.723 136.953C121.883 136.806 121.996 136.686 122.063 136.593C122.183 136.433 122.276 136.34 122.343 136.313C122.423 136.273 122.536 136.253 122.683 136.253H124.403C124.536 136.253 124.643 136.293 124.723 136.373C124.816 136.453 124.856 136.553 124.843 136.673C124.83 136.886 124.716 137.146 124.503 137.453C124.303 137.76 124.01 138.06 123.623 138.353C123.236 138.646 122.75 138.893 122.163 139.093C121.59 139.28 120.93 139.373 120.183 139.373ZM117.983 133.073H122.403V133.013C122.403 132.493 122.316 132.04 122.143 131.653C121.97 131.266 121.716 130.96 121.383 130.733C121.05 130.506 120.65 130.393 120.183 130.393C119.716 130.393 119.316 130.506 118.983 130.733C118.65 130.96 118.396 131.266 118.223 131.653C118.063 132.04 117.983 132.493 117.983 133.013V133.073ZM131.746 139.373C130.786 139.373 129.939 139.193 129.206 138.833C128.486 138.473 127.919 137.953 127.506 137.273C127.106 136.58 126.886 135.746 126.846 134.773C126.833 134.573 126.826 134.313 126.826 133.993C126.826 133.66 126.833 133.386 126.846 133.173C126.886 132.2 127.106 131.373 127.506 130.693C127.919 130 128.486 129.473 129.206 129.113C129.939 128.753 130.786 128.573 131.746 128.573C132.599 128.573 133.326 128.693 133.926 128.933C134.526 129.173 135.019 129.473 135.406 129.833C135.793 130.193 136.079 130.573 136.266 130.973C136.466 131.36 136.573 131.713 136.586 132.033C136.599 132.18 136.553 132.3 136.446 132.393C136.353 132.473 136.239 132.513 136.106 132.513H134.346C134.213 132.513 134.106 132.48 134.026 132.413C133.959 132.346 133.893 132.246 133.826 132.113C133.626 131.58 133.359 131.206 133.026 130.993C132.706 130.766 132.293 130.653 131.786 130.653C131.119 130.653 130.586 130.866 130.186 131.293C129.799 131.706 129.593 132.366 129.566 133.273C129.539 133.78 129.539 134.246 129.566 134.673C129.593 135.593 129.799 136.26 130.186 136.673C130.586 137.086 131.119 137.293 131.786 137.293C132.306 137.293 132.726 137.186 133.046 136.973C133.366 136.746 133.626 136.366 133.826 135.833C133.893 135.7 133.959 135.6 134.026 135.533C134.106 135.466 134.213 135.433 134.346 135.433H136.106C136.239 135.433 136.353 135.48 136.446 135.573C136.553 135.653 136.599 135.766 136.586 135.913C136.573 136.153 136.506 136.426 136.386 136.733C136.279 137.026 136.099 137.333 135.846 137.653C135.606 137.96 135.299 138.246 134.926 138.513C134.553 138.766 134.099 138.973 133.566 139.133C133.046 139.293 132.439 139.373 131.746 139.373ZM142.532 139.373C141.718 139.373 141.012 139.193 140.412 138.833C139.825 138.46 139.372 137.94 139.052 137.273C138.732 136.593 138.572 135.793 138.572 134.873V129.253C138.572 129.12 138.618 129.006 138.712 128.913C138.805 128.82 138.918 128.773 139.052 128.773H140.812C140.958 128.773 141.072 128.82 141.152 128.913C141.245 129.006 141.292 129.12 141.292 129.253V134.753C141.292 136.406 142.018 137.233 143.472 137.233C144.165 137.233 144.712 137.013 145.112 136.573C145.525 136.133 145.732 135.526 145.732 134.753V129.253C145.732 129.12 145.778 129.006 145.872 128.913C145.965 128.82 146.078 128.773 146.212 128.773H147.972C148.105 128.773 148.218 128.82 148.312 128.913C148.405 129.006 148.452 129.12 148.452 129.253V138.693C148.452 138.826 148.405 138.94 148.312 139.033C148.218 139.126 148.105 139.173 147.972 139.173H146.352C146.205 139.173 146.085 139.126 145.992 139.033C145.912 138.94 145.872 138.826 145.872 138.693V137.873C145.512 138.34 145.065 138.706 144.532 138.973C143.998 139.24 143.332 139.373 142.532 139.373ZM151.574 139.173C151.44 139.173 151.327 139.126 151.234 139.033C151.14 138.94 151.094 138.826 151.094 138.693V129.273C151.094 129.126 151.14 129.006 151.234 128.913C151.327 128.82 151.44 128.773 151.574 128.773H153.194C153.327 128.773 153.44 128.82 153.534 128.913C153.64 129.006 153.694 129.126 153.694 129.273V130.093C154 129.666 154.394 129.34 154.874 129.113C155.367 128.886 155.934 128.773 156.574 128.773H157.394C157.54 128.773 157.654 128.82 157.734 128.913C157.827 129.006 157.874 129.12 157.874 129.253V130.693C157.874 130.826 157.827 130.94 157.734 131.033C157.654 131.126 157.54 131.173 157.394 131.173H155.834C155.194 131.173 154.694 131.353 154.334 131.713C153.987 132.073 153.814 132.566 153.814 133.193V138.693C153.814 138.826 153.767 138.94 153.674 139.033C153.58 139.126 153.46 139.173 153.314 139.173H151.574ZM159.914 139.173C159.78 139.173 159.667 139.126 159.574 139.033C159.48 138.94 159.434 138.826 159.434 138.693V129.253C159.434 129.12 159.48 129.006 159.574 128.913C159.667 128.82 159.78 128.773 159.914 128.773H161.574C161.72 128.773 161.834 128.82 161.914 128.913C162.007 129.006 162.054 129.12 162.054 129.253V138.693C162.054 138.826 162.007 138.94 161.914 139.033C161.834 139.126 161.72 139.173 161.574 139.173H159.914ZM159.834 127.053C159.687 127.053 159.567 127.013 159.474 126.933C159.394 126.84 159.354 126.72 159.354 126.573V125.133C159.354 125 159.394 124.886 159.474 124.793C159.567 124.7 159.687 124.653 159.834 124.653H161.654C161.8 124.653 161.92 124.7 162.014 124.793C162.107 124.886 162.154 125 162.154 125.133V126.573C162.154 126.72 162.107 126.84 162.014 126.933C161.92 127.013 161.8 127.053 161.654 127.053H159.834ZM169.407 139.173C168.607 139.173 167.934 139.033 167.387 138.753C166.84 138.473 166.434 138.06 166.167 137.513C165.9 136.953 165.767 136.26 165.767 135.433V130.893H164.187C164.054 130.893 163.94 130.846 163.847 130.753C163.754 130.66 163.707 130.546 163.707 130.413V129.253C163.707 129.12 163.754 129.006 163.847 128.913C163.94 128.82 164.054 128.773 164.187 128.773H165.767V125.453C165.767 125.32 165.807 125.206 165.887 125.113C165.98 125.02 166.1 124.973 166.247 124.973H167.867C168 124.973 168.114 125.02 168.207 125.113C168.3 125.206 168.347 125.32 168.347 125.453V128.773H170.847C170.98 128.773 171.094 128.82 171.187 128.913C171.28 129.006 171.327 129.12 171.327 129.253V130.413C171.327 130.546 171.28 130.66 171.187 130.753C171.094 130.846 170.98 130.893 170.847 130.893H168.347V135.233C168.347 135.78 168.44 136.206 168.627 136.513C168.827 136.82 169.167 136.973 169.647 136.973H171.027C171.16 136.973 171.274 137.02 171.367 137.113C171.46 137.206 171.507 137.32 171.507 137.453V138.693C171.507 138.826 171.46 138.94 171.367 139.033C171.274 139.126 171.16 139.173 171.027 139.173H169.407ZM175.161 142.973C175.055 142.973 174.961 142.933 174.881 142.853C174.801 142.773 174.761 142.68 174.761 142.573C174.761 142.52 174.761 142.466 174.761 142.413C174.775 142.373 174.801 142.32 174.841 142.253L176.401 138.553L172.561 129.493C172.508 129.36 172.481 129.266 172.481 129.213C172.495 129.093 172.541 128.993 172.621 128.913C172.701 128.82 172.801 128.773 172.921 128.773H174.541C174.701 128.773 174.821 128.813 174.901 128.893C174.981 128.973 175.041 129.06 175.081 129.153L177.741 135.693L180.481 129.153C180.521 129.046 180.581 128.96 180.661 128.893C180.741 128.813 180.861 128.773 181.021 128.773H182.621C182.728 128.773 182.821 128.813 182.901 128.893C182.995 128.973 183.041 129.066 183.041 129.173C183.041 129.253 183.015 129.36 182.961 129.493L177.301 142.593C177.248 142.7 177.181 142.786 177.101 142.853C177.021 142.933 176.901 142.973 176.741 142.973H175.161ZM191.829 139.373C191.135 139.373 190.509 139.24 189.949 138.973C189.389 138.693 188.942 138.326 188.609 137.873C188.289 137.406 188.129 136.886 188.129 136.313C188.129 135.38 188.502 134.64 189.249 134.093C190.009 133.533 191.009 133.16 192.249 132.973L194.989 132.573V132.153C194.989 131.593 194.849 131.16 194.569 130.853C194.289 130.546 193.809 130.393 193.129 130.393C192.649 130.393 192.255 130.493 191.949 130.693C191.655 130.88 191.435 131.133 191.289 131.453C191.182 131.626 191.029 131.713 190.829 131.713H189.249C189.102 131.713 188.989 131.673 188.909 131.593C188.842 131.513 188.809 131.406 188.809 131.273C188.822 131.06 188.909 130.8 189.069 130.493C189.229 130.186 189.482 129.893 189.829 129.613C190.175 129.32 190.622 129.073 191.169 128.873C191.715 128.673 192.375 128.573 193.149 128.573C193.989 128.573 194.695 128.68 195.269 128.893C195.855 129.093 196.322 129.366 196.669 129.713C197.015 130.06 197.269 130.466 197.429 130.933C197.589 131.4 197.669 131.893 197.669 132.413V138.693C197.669 138.826 197.622 138.94 197.529 139.033C197.435 139.126 197.322 139.173 197.189 139.173H195.569C195.422 139.173 195.302 139.126 195.209 139.033C195.129 138.94 195.089 138.826 195.089 138.693V137.913C194.915 138.166 194.682 138.406 194.389 138.633C194.095 138.846 193.735 139.026 193.309 139.173C192.895 139.306 192.402 139.373 191.829 139.373ZM192.509 137.473C192.975 137.473 193.395 137.373 193.769 137.173C194.155 136.973 194.455 136.666 194.669 136.253C194.895 135.826 195.009 135.293 195.009 134.653V134.233L193.009 134.553C192.222 134.673 191.635 134.866 191.249 135.133C190.862 135.4 190.669 135.726 190.669 136.113C190.669 136.406 190.755 136.66 190.929 136.873C191.115 137.073 191.349 137.226 191.629 137.333C191.909 137.426 192.202 137.473 192.509 137.473ZM204.174 139.373C203.374 139.373 202.688 139.28 202.114 139.093C201.554 138.906 201.094 138.673 200.734 138.393C200.374 138.113 200.108 137.833 199.934 137.553C199.761 137.273 199.668 137.04 199.654 136.853C199.641 136.706 199.681 136.593 199.774 136.513C199.881 136.42 199.994 136.373 200.114 136.373H201.694C201.748 136.373 201.794 136.38 201.834 136.393C201.874 136.406 201.928 136.446 201.994 136.513C202.168 136.66 202.348 136.813 202.534 136.973C202.734 137.133 202.968 137.273 203.234 137.393C203.501 137.5 203.834 137.553 204.234 137.553C204.754 137.553 205.188 137.453 205.534 137.253C205.894 137.04 206.074 136.74 206.074 136.353C206.074 136.073 205.994 135.846 205.834 135.673C205.688 135.5 205.408 135.346 204.994 135.213C204.581 135.066 203.994 134.913 203.234 134.753C202.488 134.58 201.868 134.36 201.374 134.093C200.881 133.826 200.514 133.493 200.274 133.093C200.034 132.693 199.914 132.226 199.914 131.693C199.914 131.173 200.068 130.68 200.374 130.213C200.694 129.733 201.161 129.34 201.774 129.033C202.401 128.726 203.174 128.573 204.094 128.573C204.814 128.573 205.441 128.666 205.974 128.853C206.508 129.026 206.948 129.246 207.294 129.513C207.654 129.78 207.928 130.053 208.114 130.333C208.301 130.6 208.401 130.833 208.414 131.033C208.428 131.18 208.388 131.3 208.294 131.393C208.201 131.473 208.094 131.513 207.974 131.513H206.494C206.428 131.513 206.368 131.5 206.314 131.473C206.261 131.446 206.208 131.413 206.154 131.373C206.008 131.24 205.848 131.1 205.674 130.953C205.501 130.806 205.288 130.68 205.034 130.573C204.794 130.453 204.474 130.393 204.074 130.393C203.568 130.393 203.181 130.506 202.914 130.733C202.648 130.946 202.514 131.22 202.514 131.553C202.514 131.78 202.574 131.98 202.694 132.153C202.828 132.313 203.088 132.466 203.474 132.613C203.861 132.76 204.448 132.913 205.234 133.073C206.128 133.233 206.834 133.473 207.354 133.793C207.888 134.1 208.261 134.46 208.474 134.873C208.701 135.273 208.814 135.72 208.814 136.213C208.814 136.813 208.634 137.353 208.274 137.833C207.928 138.313 207.408 138.693 206.714 138.973C206.034 139.24 205.188 139.373 204.174 139.373ZM219.739 139.173C218.939 139.173 218.266 139.033 217.719 138.753C217.172 138.473 216.766 138.06 216.499 137.513C216.232 136.953 216.099 136.26 216.099 135.433V130.893H214.519C214.386 130.893 214.272 130.846 214.179 130.753C214.086 130.66 214.039 130.546 214.039 130.413V129.253C214.039 129.12 214.086 129.006 214.179 128.913C214.272 128.82 214.386 128.773 214.519 128.773H216.099V125.453C216.099 125.32 216.139 125.206 216.219 125.113C216.312 125.02 216.432 124.973 216.579 124.973H218.199C218.332 124.973 218.446 125.02 218.539 125.113C218.632 125.206 218.679 125.32 218.679 125.453V128.773H221.179C221.312 128.773 221.426 128.82 221.519 128.913C221.612 129.006 221.659 129.12 221.659 129.253V130.413C221.659 130.546 221.612 130.66 221.519 130.753C221.426 130.846 221.312 130.893 221.179 130.893H218.679V135.233C218.679 135.78 218.772 136.206 218.959 136.513C219.159 136.82 219.499 136.973 219.979 136.973H221.359C221.492 136.973 221.606 137.02 221.699 137.113C221.792 137.206 221.839 137.32 221.839 137.453V138.693C221.839 138.826 221.792 138.94 221.699 139.033C221.606 139.126 221.492 139.173 221.359 139.173H219.739ZM224.113 139.173C223.98 139.173 223.867 139.126 223.773 139.033C223.68 138.94 223.633 138.826 223.633 138.693V125.453C223.633 125.32 223.68 125.206 223.773 125.113C223.867 125.02 223.98 124.973 224.113 124.973H225.893C226.04 124.973 226.153 125.02 226.233 125.113C226.327 125.206 226.373 125.32 226.373 125.453V130.013C226.733 129.586 227.173 129.24 227.693 128.973C228.213 128.706 228.853 128.573 229.613 128.573C230.427 128.573 231.133 128.76 231.733 129.133C232.347 129.493 232.82 130.006 233.153 130.673C233.487 131.34 233.653 132.14 233.653 133.073V138.693C233.653 138.826 233.607 138.94 233.513 139.033C233.42 139.126 233.307 139.173 233.173 139.173H231.373C231.24 139.173 231.127 139.126 231.033 139.033C230.94 138.94 230.893 138.826 230.893 138.693V133.193C230.893 132.42 230.7 131.813 230.313 131.373C229.94 130.933 229.393 130.713 228.673 130.713C227.98 130.713 227.42 130.933 226.993 131.373C226.58 131.813 226.373 132.42 226.373 133.193V138.693C226.373 138.826 226.327 138.94 226.233 139.033C226.153 139.126 226.04 139.173 225.893 139.173H224.113ZM240.671 139.373C239.191 139.373 238.018 138.946 237.151 138.093C236.285 137.24 235.818 136.026 235.751 134.453C235.738 134.32 235.731 134.153 235.731 133.953C235.731 133.74 235.738 133.573 235.751 133.453C235.805 132.453 236.031 131.586 236.431 130.853C236.845 130.12 237.411 129.56 238.131 129.173C238.851 128.773 239.698 128.573 240.671 128.573C241.751 128.573 242.658 128.8 243.391 129.253C244.125 129.693 244.678 130.313 245.051 131.113C245.425 131.9 245.611 132.813 245.611 133.853V134.273C245.611 134.406 245.565 134.52 245.471 134.613C245.378 134.706 245.258 134.753 245.111 134.753H238.471C238.471 134.753 238.471 134.773 238.471 134.813C238.471 134.853 238.471 134.886 238.471 134.913C238.485 135.38 238.571 135.813 238.731 136.213C238.905 136.6 239.151 136.913 239.471 137.153C239.805 137.393 240.198 137.513 240.651 137.513C241.025 137.513 241.338 137.46 241.591 137.353C241.845 137.233 242.051 137.1 242.211 136.953C242.371 136.806 242.485 136.686 242.551 136.593C242.671 136.433 242.765 136.34 242.831 136.313C242.911 136.273 243.025 136.253 243.171 136.253H244.891C245.025 136.253 245.131 136.293 245.211 136.373C245.305 136.453 245.345 136.553 245.331 136.673C245.318 136.886 245.205 137.146 244.991 137.453C244.791 137.76 244.498 138.06 244.111 138.353C243.725 138.646 243.238 138.893 242.651 139.093C242.078 139.28 241.418 139.373 240.671 139.373ZM238.471 133.073H242.891V133.013C242.891 132.493 242.805 132.04 242.631 131.653C242.458 131.266 242.205 130.96 241.871 130.733C241.538 130.506 241.138 130.393 240.671 130.393C240.205 130.393 239.805 130.506 239.471 130.733C239.138 130.96 238.885 131.266 238.711 131.653C238.551 132.04 238.471 132.493 238.471 133.013V133.073ZM115.314 166.973C115.181 166.973 115.068 166.926 114.974 166.833C114.881 166.74 114.834 166.626 114.834 166.493V153.253C114.834 153.12 114.881 153.006 114.974 152.913C115.068 152.82 115.181 152.773 115.314 152.773H116.894C117.041 152.773 117.154 152.82 117.234 152.913C117.328 153.006 117.374 153.12 117.374 153.253V154.053C117.694 153.626 118.114 153.273 118.634 152.993C119.154 152.713 119.801 152.573 120.574 152.573C121.281 152.573 121.894 152.686 122.414 152.913C122.934 153.14 123.368 153.466 123.714 153.893C124.061 154.306 124.328 154.8 124.514 155.373C124.701 155.946 124.808 156.58 124.834 157.273C124.848 157.5 124.854 157.733 124.854 157.973C124.854 158.213 124.848 158.453 124.834 158.693C124.821 159.36 124.721 159.98 124.534 160.553C124.348 161.113 124.074 161.606 123.714 162.033C123.368 162.446 122.934 162.773 122.414 163.013C121.894 163.253 121.281 163.373 120.574 163.373C119.854 163.373 119.241 163.246 118.734 162.993C118.228 162.726 117.814 162.38 117.494 161.953V166.493C117.494 166.626 117.448 166.74 117.354 166.833C117.274 166.926 117.161 166.973 117.014 166.973H115.314ZM119.834 161.233C120.408 161.233 120.854 161.113 121.174 160.873C121.494 160.62 121.721 160.293 121.854 159.893C122.001 159.493 122.088 159.053 122.114 158.573C122.141 158.173 122.141 157.773 122.114 157.373C122.088 156.893 122.001 156.453 121.854 156.053C121.721 155.653 121.494 155.333 121.174 155.093C120.854 154.84 120.408 154.713 119.834 154.713C119.288 154.713 118.841 154.84 118.494 155.093C118.161 155.346 117.914 155.673 117.754 156.073C117.608 156.46 117.521 156.86 117.494 157.273C117.481 157.513 117.474 157.766 117.474 158.033C117.474 158.3 117.481 158.56 117.494 158.813C117.508 159.213 117.601 159.6 117.774 159.973C117.948 160.333 118.201 160.633 118.534 160.873C118.868 161.113 119.301 161.233 119.834 161.233ZM127.58 163.173C127.446 163.173 127.333 163.126 127.24 163.033C127.146 162.94 127.1 162.826 127.1 162.693V153.273C127.1 153.126 127.146 153.006 127.24 152.913C127.333 152.82 127.446 152.773 127.58 152.773H129.2C129.333 152.773 129.446 152.82 129.54 152.913C129.646 153.006 129.7 153.126 129.7 153.273V154.093C130.006 153.666 130.4 153.34 130.88 153.113C131.373 152.886 131.94 152.773 132.58 152.773H133.4C133.546 152.773 133.66 152.82 133.74 152.913C133.833 153.006 133.88 153.12 133.88 153.253V154.693C133.88 154.826 133.833 154.94 133.74 155.033C133.66 155.126 133.546 155.173 133.4 155.173H131.84C131.2 155.173 130.7 155.353 130.34 155.713C129.993 156.073 129.82 156.566 129.82 157.193V162.693C129.82 162.826 129.773 162.94 129.68 163.033C129.586 163.126 129.466 163.173 129.32 163.173H127.58ZM135.919 163.173C135.786 163.173 135.673 163.126 135.579 163.033C135.486 162.94 135.439 162.826 135.439 162.693V153.253C135.439 153.12 135.486 153.006 135.579 152.913C135.673 152.82 135.786 152.773 135.919 152.773H137.579C137.726 152.773 137.839 152.82 137.919 152.913C138.013 153.006 138.059 153.12 138.059 153.253V162.693C138.059 162.826 138.013 162.94 137.919 163.033C137.839 163.126 137.726 163.173 137.579 163.173H135.919ZM135.839 151.053C135.693 151.053 135.573 151.013 135.479 150.933C135.399 150.84 135.359 150.72 135.359 150.573V149.133C135.359 149 135.399 148.886 135.479 148.793C135.573 148.7 135.693 148.653 135.839 148.653H137.659C137.806 148.653 137.926 148.7 138.019 148.793C138.113 148.886 138.159 149 138.159 149.133V150.573C138.159 150.72 138.113 150.84 138.019 150.933C137.926 151.013 137.806 151.053 137.659 151.053H135.839ZM145.371 163.373C144.305 163.373 143.405 163.186 142.671 162.813C141.951 162.44 141.398 161.913 141.011 161.233C140.638 160.553 140.425 159.76 140.371 158.853C140.358 158.613 140.351 158.32 140.351 157.973C140.351 157.626 140.358 157.333 140.371 157.093C140.425 156.173 140.645 155.38 141.031 154.713C141.431 154.033 141.991 153.506 142.711 153.133C143.445 152.76 144.331 152.573 145.371 152.573C146.411 152.573 147.291 152.76 148.011 153.133C148.745 153.506 149.305 154.033 149.691 154.713C150.091 155.38 150.318 156.173 150.371 157.093C150.385 157.333 150.391 157.626 150.391 157.973C150.391 158.32 150.385 158.613 150.371 158.853C150.318 159.76 150.098 160.553 149.711 161.233C149.338 161.913 148.785 162.44 148.051 162.813C147.331 163.186 146.438 163.373 145.371 163.373ZM145.371 161.393C146.078 161.393 146.625 161.173 147.011 160.733C147.398 160.28 147.611 159.62 147.651 158.753C147.665 158.553 147.671 158.293 147.671 157.973C147.671 157.653 147.665 157.393 147.651 157.193C147.611 156.34 147.398 155.686 147.011 155.233C146.625 154.78 146.078 154.553 145.371 154.553C144.665 154.553 144.118 154.78 143.731 155.233C143.345 155.686 143.131 156.34 143.091 157.193C143.078 157.393 143.071 157.653 143.071 157.973C143.071 158.293 143.078 158.553 143.091 158.753C143.131 159.62 143.345 160.28 143.731 160.733C144.118 161.173 144.665 161.393 145.371 161.393ZM153.087 163.173C152.954 163.173 152.841 163.126 152.747 163.033C152.654 162.94 152.607 162.826 152.607 162.693V153.273C152.607 153.126 152.654 153.006 152.747 152.913C152.841 152.82 152.954 152.773 153.087 152.773H154.707C154.841 152.773 154.954 152.82 155.047 152.913C155.154 153.006 155.207 153.126 155.207 153.273V154.093C155.514 153.666 155.907 153.34 156.387 153.113C156.881 152.886 157.447 152.773 158.087 152.773H158.907C159.054 152.773 159.167 152.82 159.247 152.913C159.341 153.006 159.387 153.12 159.387 153.253V154.693C159.387 154.826 159.341 154.94 159.247 155.033C159.167 155.126 159.054 155.173 158.907 155.173H157.347C156.707 155.173 156.207 155.353 155.847 155.713C155.501 156.073 155.327 156.566 155.327 157.193V162.693C155.327 162.826 155.281 162.94 155.187 163.033C155.094 163.126 154.974 163.173 154.827 163.173H153.087ZM161.427 163.173C161.294 163.173 161.181 163.126 161.087 163.033C160.994 162.94 160.947 162.826 160.947 162.693V153.253C160.947 153.12 160.994 153.006 161.087 152.913C161.181 152.82 161.294 152.773 161.427 152.773H163.087C163.234 152.773 163.347 152.82 163.427 152.913C163.521 153.006 163.567 153.12 163.567 153.253V162.693C163.567 162.826 163.521 162.94 163.427 163.033C163.347 163.126 163.234 163.173 163.087 163.173H161.427ZM161.347 151.053C161.201 151.053 161.081 151.013 160.987 150.933C160.907 150.84 160.867 150.72 160.867 150.573V149.133C160.867 149 160.907 148.886 160.987 148.793C161.081 148.7 161.201 148.653 161.347 148.653H163.167C163.314 148.653 163.434 148.7 163.527 148.793C163.621 148.886 163.667 149 163.667 149.133V150.573C163.667 150.72 163.621 150.84 163.527 150.933C163.434 151.013 163.314 151.053 163.167 151.053H161.347ZM170.921 163.173C170.121 163.173 169.447 163.033 168.901 162.753C168.354 162.473 167.947 162.06 167.681 161.513C167.414 160.953 167.281 160.26 167.281 159.433V154.893H165.701C165.567 154.893 165.454 154.846 165.361 154.753C165.267 154.66 165.221 154.546 165.221 154.413V153.253C165.221 153.12 165.267 153.006 165.361 152.913C165.454 152.82 165.567 152.773 165.701 152.773H167.281V149.453C167.281 149.32 167.321 149.206 167.401 149.113C167.494 149.02 167.614 148.973 167.761 148.973H169.381C169.514 148.973 169.627 149.02 169.721 149.113C169.814 149.206 169.861 149.32 169.861 149.453V152.773H172.361C172.494 152.773 172.607 152.82 172.701 152.913C172.794 153.006 172.841 153.12 172.841 153.253V154.413C172.841 154.546 172.794 154.66 172.701 154.753C172.607 154.846 172.494 154.893 172.361 154.893H169.861V159.233C169.861 159.78 169.954 160.206 170.141 160.513C170.341 160.82 170.681 160.973 171.161 160.973H172.541C172.674 160.973 172.787 161.02 172.881 161.113C172.974 161.206 173.021 161.32 173.021 161.453V162.693C173.021 162.826 172.974 162.94 172.881 163.033C172.787 163.126 172.674 163.173 172.541 163.173H170.921ZM176.675 166.973C176.568 166.973 176.475 166.933 176.395 166.853C176.315 166.773 176.275 166.68 176.275 166.573C176.275 166.52 176.275 166.466 176.275 166.413C176.288 166.373 176.315 166.32 176.355 166.253L177.915 162.553L174.075 153.493C174.022 153.36 173.995 153.266 173.995 153.213C174.008 153.093 174.055 152.993 174.135 152.913C174.215 152.82 174.315 152.773 174.435 152.773H176.055C176.215 152.773 176.335 152.813 176.415 152.893C176.495 152.973 176.555 153.06 176.595 153.153L179.255 159.693L181.995 153.153C182.035 153.046 182.095 152.96 182.175 152.893C182.255 152.813 182.375 152.773 182.535 152.773H184.135C184.242 152.773 184.335 152.813 184.415 152.893C184.508 152.973 184.555 153.066 184.555 153.173C184.555 153.253 184.528 153.36 184.475 153.493L178.815 166.593C178.762 166.7 178.695 166.786 178.615 166.853C178.535 166.933 178.415 166.973 178.255 166.973H176.675ZM185.585 163.173C185.451 163.173 185.338 163.126 185.245 163.033C185.151 162.94 185.105 162.826 185.105 162.693V160.713C185.105 160.566 185.151 160.446 185.245 160.353C185.338 160.26 185.451 160.213 185.585 160.213H187.585C187.718 160.213 187.831 160.26 187.925 160.353C188.018 160.446 188.065 160.566 188.065 160.713V162.693C188.065 162.826 188.018 162.94 187.925 163.033C187.831 163.126 187.718 163.173 187.585 163.173H185.585Z" fill="#A2B1BF"/>
<path d="M117.67 69.6882C117.608 69.0715 117.346 68.5924 116.882 68.2509C116.418 67.9094 115.789 67.7386 114.994 67.7386C114.454 67.7386 113.997 67.8151 113.625 67.968C113.253 68.1158 112.968 68.3222 112.769 68.5873C112.575 68.8523 112.479 69.153 112.479 69.4894C112.468 69.7697 112.527 70.0144 112.654 70.2233C112.787 70.4323 112.968 70.6132 113.197 70.7661C113.427 70.9139 113.692 71.0439 113.992 71.156C114.293 71.2631 114.614 71.3548 114.956 71.4313L116.362 71.7677C117.045 71.9206 117.672 72.1244 118.243 72.3793C118.814 72.6341 119.308 72.9476 119.726 73.3196C120.144 73.6917 120.468 74.13 120.697 74.6346C120.932 75.1392 121.051 75.7177 121.056 76.3701C121.051 77.3283 120.807 78.1591 120.323 78.8624C119.843 79.5607 119.15 80.1035 118.243 80.4908C117.341 80.8731 116.253 81.0642 114.979 81.0642C113.715 81.0642 112.614 80.8706 111.676 80.4832C110.743 80.0958 110.014 79.5225 109.489 78.763C108.969 77.9985 108.697 77.0531 108.671 75.9267H111.875C111.91 76.4516 112.061 76.89 112.326 77.2416C112.596 77.5882 112.955 77.8507 113.404 78.0291C113.857 78.2024 114.369 78.289 114.94 78.289C115.501 78.289 115.988 78.2075 116.401 78.0444C116.818 77.8813 117.142 77.6545 117.371 77.364C117.601 77.0734 117.716 76.7396 117.716 76.3624C117.716 76.0108 117.611 75.7151 117.402 75.4756C117.198 75.236 116.897 75.0322 116.5 74.864C116.107 74.6958 115.626 74.5429 115.055 74.4053L113.35 73.9771C112.03 73.656 110.988 73.154 110.223 72.471C109.459 71.7881 109.079 70.8681 109.084 69.7111C109.079 68.7631 109.331 67.9349 109.841 67.2264C110.356 66.518 111.062 65.9649 111.959 65.5674C112.856 65.1698 113.875 64.9711 115.017 64.9711C116.179 64.9711 117.193 65.1698 118.06 65.5674C118.931 65.9649 119.609 66.518 120.093 67.2264C120.577 67.9349 120.827 68.7555 120.842 69.6882H117.67ZM128.574 81.0719C127.366 81.0719 126.326 80.8272 125.454 80.3379C124.588 79.8436 123.92 79.1453 123.451 78.2432C122.982 77.3359 122.748 76.263 122.748 75.0245C122.748 73.8166 122.982 72.7564 123.451 71.8441C123.92 70.9318 124.58 70.2208 125.431 69.7111C126.288 69.2014 127.292 68.9466 128.444 68.9466C129.218 68.9466 129.94 69.0715 130.607 69.3212C131.28 69.5658 131.866 69.9354 132.366 70.4298C132.87 70.9241 133.263 71.546 133.543 72.2952C133.823 73.0393 133.964 73.9109 133.964 74.9098V75.8043H124.048V73.786H130.898C130.898 73.3171 130.796 72.9017 130.592 72.5398C130.388 72.178 130.105 71.8951 129.743 71.6912C129.387 71.4822 128.971 71.3778 128.497 71.3778C128.003 71.3778 127.564 71.4924 127.182 71.7218C126.805 71.9461 126.509 72.2493 126.295 72.6316C126.081 73.0087 125.972 73.4292 125.967 73.893V75.812C125.967 76.393 126.074 76.8951 126.288 77.3181C126.507 77.7411 126.815 78.0673 127.213 78.2967C127.61 78.526 128.082 78.6407 128.627 78.6407C128.989 78.6407 129.32 78.5897 129.621 78.4878C129.922 78.3859 130.179 78.233 130.393 78.0291C130.607 77.8252 130.77 77.5755 130.882 77.2799L133.895 77.4786C133.742 78.2024 133.428 78.8344 132.954 79.3746C132.485 79.9098 131.879 80.3278 131.135 80.6285C130.396 80.9241 129.542 81.0719 128.574 81.0719ZM141.395 81.0719C140.192 81.0719 139.157 80.817 138.291 80.3074C137.429 79.7926 136.767 79.079 136.303 78.1667C135.844 77.2544 135.615 76.2044 135.615 75.0169C135.615 73.814 135.847 72.759 136.311 71.8518C136.779 70.9394 137.445 70.2284 138.306 69.7187C139.167 69.204 140.192 68.9466 141.379 68.9466C142.404 68.9466 143.301 69.1326 144.07 69.5047C144.84 69.8767 145.449 70.3992 145.898 71.0719C146.346 71.7447 146.593 72.5347 146.639 73.442H143.566C143.479 72.8558 143.25 72.3844 142.878 72.0276C142.511 71.6657 142.029 71.4848 141.433 71.4848C140.928 71.4848 140.487 71.6224 140.11 71.8976C139.738 72.1678 139.448 72.5628 139.239 73.0826C139.03 73.6025 138.925 74.232 138.925 74.971C138.925 75.7202 139.027 76.3573 139.231 76.8823C139.44 77.4073 139.733 77.8074 140.11 78.0826C140.487 78.3578 140.928 78.4954 141.433 78.4954C141.805 78.4954 142.139 78.419 142.434 78.2661C142.735 78.1132 142.982 77.8915 143.176 77.601C143.375 77.3053 143.505 76.9511 143.566 76.5383H146.639C146.588 77.4353 146.344 78.2253 145.905 78.9083C145.472 79.5862 144.873 80.1162 144.109 80.4985C143.344 80.8808 142.44 81.0719 141.395 81.0719ZM156.255 75.8426V69.0995H159.512V80.8425H156.385V78.7095H156.263C155.998 79.3976 155.557 79.9506 154.94 80.3685C154.328 80.7865 153.582 80.9954 152.7 80.9954C151.915 80.9954 151.224 80.817 150.628 80.4603C150.032 80.1035 149.565 79.5964 149.229 78.9389C148.898 78.2814 148.73 77.4939 148.724 76.5765V69.0995H151.981V75.9955C151.986 76.6886 152.172 77.2365 152.539 77.6392C152.906 78.0418 153.398 78.2432 154.015 78.2432C154.407 78.2432 154.774 78.154 155.116 77.9756C155.457 77.7921 155.733 77.522 155.942 77.1652C156.156 76.8084 156.26 76.3675 156.255 75.8426ZM162.117 80.8425V69.0995H165.274V71.1484H165.397C165.611 70.4196 165.97 69.8691 166.475 69.497C166.979 69.1199 167.56 68.9313 168.218 68.9313C168.381 68.9313 168.557 68.9415 168.745 68.9619C168.934 68.9823 169.1 69.0103 169.242 69.046V71.9359C169.089 71.89 168.878 71.8492 168.608 71.8135C168.338 71.7779 168.09 71.76 167.866 71.76C167.387 71.76 166.959 71.8645 166.582 72.0735C166.21 72.2773 165.914 72.5628 165.695 72.9297C165.481 73.2967 165.374 73.7197 165.374 74.1988V80.8425H162.117ZM170.926 80.8425V69.0995H174.183V80.8425H170.926ZM172.562 67.5857C172.078 67.5857 171.663 67.4252 171.316 67.1041C170.975 66.7779 170.804 66.388 170.804 65.9344C170.804 65.4858 170.975 65.101 171.316 64.7799C171.663 64.4537 172.078 64.2906 172.562 64.2906C173.046 64.2906 173.459 64.4537 173.801 64.7799C174.147 65.101 174.321 65.4858 174.321 65.9344C174.321 66.388 174.147 66.7779 173.801 67.1041C173.459 67.4252 173.046 67.5857 172.562 67.5857ZM183.038 69.0995V71.546H175.966V69.0995H183.038ZM177.572 66.286H180.829V77.234C180.829 77.5347 180.875 77.7692 180.966 77.9373C181.058 78.1004 181.185 78.2151 181.349 78.2814C181.517 78.3476 181.71 78.3808 181.93 78.3808C182.082 78.3808 182.235 78.368 182.388 78.3425C182.541 78.312 182.658 78.289 182.74 78.2737L183.252 80.6973C183.089 80.7482 182.86 80.8069 182.564 80.8731C182.268 80.9445 181.909 80.9878 181.486 81.0031C180.701 81.0337 180.013 80.9292 179.422 80.6896C178.836 80.4501 178.38 80.078 178.053 79.5734C177.727 79.0688 177.567 78.4317 177.572 77.6621V66.286ZM187.17 85.2462C186.758 85.2462 186.37 85.213 186.008 85.1468C185.651 85.0856 185.356 85.0066 185.121 84.9098L185.855 82.4786C186.238 82.5958 186.582 82.6595 186.887 82.6697C187.198 82.6799 187.466 82.6086 187.69 82.4557C187.92 82.3028 188.106 82.0428 188.248 81.6759L188.439 81.1789L184.227 69.0995H187.652L190.083 77.7233H190.205L192.66 69.0995H196.108L191.543 82.1116C191.324 82.7436 191.026 83.2941 190.649 83.763C190.277 84.237 189.805 84.6014 189.235 84.8563C188.664 85.1162 187.976 85.2462 187.17 85.2462Z" fill="white"/>
<path d="M151.824 47.7328H153.842C154.377 47.7328 154.891 47.9455 155.269 48.324C155.648 48.7025 155.86 49.2159 155.86 49.7512H169.989V53.7878H155.86C155.86 54.3231 155.648 54.8365 155.269 55.215C154.891 55.5935 154.377 55.8062 153.842 55.8062H145.769C145.233 55.8062 144.72 55.5935 144.341 55.215C143.963 54.8365 143.75 54.3231 143.75 53.7878H129.622V49.7512H143.75C143.75 49.2159 143.963 48.7025 144.341 48.324C144.72 47.9455 145.233 47.7328 145.769 47.7328H147.787V44.3824C141.873 41.9402 137.695 35.6228 137.695 28.9018V20.8284L149.805 15.4395L161.915 20.8284V28.9018C161.915 35.6228 157.737 41.9402 151.824 44.3824V47.7328ZM149.805 19.4761L141.732 22.8871V29.5678H149.805V19.4761ZM149.805 29.5678V41.6778C153.66 40.7292 157.879 35.7439 157.879 31.5861V29.5678H149.805Z" fill="#7DADF4"/>
<defs>
<filter id="filter0_i_141_1132" x="0" y="0.638184" width="302.75" height="189.724" filterUnits="userSpaceOnUse" color-interpolation-filters="sRGB">
<feFlood flood-opacity="0" result="BackgroundImageFix"/>
<feBlend mode="normal" in="SourceGraphic" in2="BackgroundImageFix" result="shape"/>
<feColorMatrix in="SourceAlpha" type="matrix" values="0 0 0 0 0 0 0 0 0 0 0 0 0 0 0 0 0 0 127 0" result="hardAlpha"/>
<feOffset/>
<feGaussianBlur stdDeviation="4.03667"/>
<feComposite in2="hardAlpha" operator="arithmetic" k2="-1" k3="1"/>
<feColorMatrix type="matrix" values="0 0 0 0 0 0 0 0 0 0.4 0 0 0 0 1 0 0 0 0.75 0"/>
<feBlend mode="normal" in2="shape" result="effect1_innerShadow_141_1132"/>
</filter>
<linearGradient id="paint0_linear_141_1132" x1="151.375" y1="0.638184" x2="151.375" y2="190.362" gradientUnits="userSpaceOnUse">
<stop stop-color="#03315C"/>
<stop offset="1" stop-color="#010F2D"/>
</linearGradient>
</defs>
</svg>
