<svg width="304" height="191" viewBox="0 0 304 191" fill="none" xmlns="http://www.w3.org/2000/svg">
<g filter="url(#filter0_i_141_1131)">
<rect x="0.624756" y="0.638184" width="302.75" height="189.724" rx="13.4556" fill="url(#paint0_linear_141_1131)"/>
</g>
<path d="M40.4423 115.173C40.2423 115.173 40.0823 115.12 39.9623 115.013C39.8556 114.893 39.7823 114.746 39.7423 114.573L37.3623 101.753C37.3623 101.713 37.3556 101.68 37.3423 101.653C37.3423 101.626 37.3423 101.606 37.3423 101.593C37.3423 101.473 37.3823 101.373 37.4623 101.293C37.5556 101.213 37.6556 101.173 37.7623 101.173H39.5223C39.8556 101.173 40.0423 101.306 40.0823 101.573L41.7423 110.633L43.5423 104.773C43.5823 104.666 43.649 104.56 43.7423 104.453C43.849 104.333 44.0023 104.273 44.2023 104.273H45.2823C45.4956 104.273 45.649 104.333 45.7423 104.453C45.8356 104.56 45.8956 104.666 45.9223 104.773L47.7423 110.613L49.4023 101.573C49.4423 101.306 49.629 101.173 49.9623 101.173H51.7223C51.829 101.173 51.9223 101.213 52.0023 101.293C52.0823 101.373 52.1223 101.473 52.1223 101.593C52.1223 101.606 52.1223 101.626 52.1223 101.653C52.1223 101.68 52.1156 101.713 52.1023 101.753L49.7223 114.573C49.6956 114.746 49.6223 114.893 49.5023 115.013C49.3823 115.12 49.2223 115.173 49.0223 115.173H47.6823C47.4823 115.173 47.3223 115.12 47.2023 115.013C47.0956 114.906 47.0223 114.793 46.9823 114.673L44.7423 107.993L42.5023 114.673C42.449 114.793 42.369 114.906 42.2623 115.013C42.1556 115.12 41.9956 115.173 41.7823 115.173H40.4423ZM54.7104 115.173C54.5771 115.173 54.4637 115.126 54.3704 115.033C54.2771 114.94 54.2304 114.826 54.2304 114.693V105.253C54.2304 105.12 54.2771 105.006 54.3704 104.913C54.4637 104.82 54.5771 104.773 54.7104 104.773H56.3704C56.5171 104.773 56.6304 104.82 56.7104 104.913C56.8037 105.006 56.8504 105.12 56.8504 105.253V114.693C56.8504 114.826 56.8037 114.94 56.7104 115.033C56.6304 115.126 56.5171 115.173 56.3704 115.173H54.7104ZM54.6304 103.053C54.4837 103.053 54.3637 103.013 54.2704 102.933C54.1904 102.84 54.1504 102.72 54.1504 102.573V101.133C54.1504 101 54.1904 100.886 54.2704 100.793C54.3637 100.7 54.4837 100.653 54.6304 100.653H56.4504C56.5971 100.653 56.7171 100.7 56.8104 100.793C56.9037 100.886 56.9504 101 56.9504 101.133V102.573C56.9504 102.72 56.9037 102.84 56.8104 102.933C56.7171 103.013 56.5971 103.053 56.4504 103.053H54.6304ZM64.2039 115.173C63.4039 115.173 62.7305 115.033 62.1839 114.753C61.6372 114.473 61.2305 114.06 60.9639 113.513C60.6972 112.953 60.5639 112.26 60.5639 111.433V106.893H58.9839C58.8505 106.893 58.7372 106.846 58.6439 106.753C58.5505 106.66 58.5039 106.546 58.5039 106.413V105.253C58.5039 105.12 58.5505 105.006 58.6439 104.913C58.7372 104.82 58.8505 104.773 58.9839 104.773H60.5639V101.453C60.5639 101.32 60.6039 101.206 60.6839 101.113C60.7772 101.02 60.8972 100.973 61.0439 100.973H62.6639C62.7972 100.973 62.9105 101.02 63.0039 101.113C63.0972 101.206 63.1439 101.32 63.1439 101.453V104.773H65.6439C65.7772 104.773 65.8905 104.82 65.9839 104.913C66.0772 105.006 66.1239 105.12 66.1239 105.253V106.413C66.1239 106.546 66.0772 106.66 65.9839 106.753C65.8905 106.846 65.7772 106.893 65.6439 106.893H63.1439V111.233C63.1439 111.78 63.2372 112.206 63.4239 112.513C63.6239 112.82 63.9639 112.973 64.4439 112.973H65.8239C65.9572 112.973 66.0705 113.02 66.1639 113.113C66.2572 113.206 66.3039 113.32 66.3039 113.453V114.693C66.3039 114.826 66.2572 114.94 66.1639 115.033C66.0705 115.126 65.9572 115.173 65.8239 115.173H64.2039ZM68.5781 115.173C68.4447 115.173 68.3314 115.126 68.2381 115.033C68.1447 114.94 68.0981 114.826 68.0981 114.693V101.453C68.0981 101.32 68.1447 101.206 68.2381 101.113C68.3314 101.02 68.4447 100.973 68.5781 100.973H70.3581C70.5047 100.973 70.6181 101.02 70.6981 101.113C70.7914 101.206 70.8381 101.32 70.8381 101.453V106.013C71.1981 105.586 71.6381 105.24 72.1581 104.973C72.6781 104.706 73.3181 104.573 74.0781 104.573C74.8914 104.573 75.5981 104.76 76.1981 105.133C76.8114 105.493 77.2847 106.006 77.6181 106.673C77.9514 107.34 78.1181 108.14 78.1181 109.073V114.693C78.1181 114.826 78.0714 114.94 77.9781 115.033C77.8847 115.126 77.7714 115.173 77.6381 115.173H75.8381C75.7047 115.173 75.5914 115.126 75.4981 115.033C75.4047 114.94 75.3581 114.826 75.3581 114.693V109.193C75.3581 108.42 75.1647 107.813 74.7781 107.373C74.4047 106.933 73.8581 106.713 73.1381 106.713C72.4447 106.713 71.8847 106.933 71.4581 107.373C71.0447 107.813 70.8381 108.42 70.8381 109.193V114.693C70.8381 114.826 70.7914 114.94 70.6981 115.033C70.6181 115.126 70.5047 115.173 70.3581 115.173H68.5781ZM85.7065 115.173C85.5732 115.173 85.4598 115.126 85.3665 115.033C85.2732 114.94 85.2265 114.826 85.2265 114.693V105.253C85.2265 105.12 85.2732 105.006 85.3665 104.913C85.4598 104.82 85.5732 104.773 85.7065 104.773H87.3465C87.4798 104.773 87.5932 104.82 87.6865 104.913C87.7798 105.006 87.8265 105.12 87.8265 105.253V106.073C88.1732 105.646 88.6132 105.293 89.1465 105.013C89.6932 104.72 90.3665 104.573 91.1665 104.573C91.9798 104.573 92.6865 104.76 93.2865 105.133C93.8865 105.493 94.3465 106.006 94.6665 106.673C94.9998 107.34 95.1665 108.14 95.1665 109.073V114.693C95.1665 114.826 95.1198 114.94 95.0265 115.033C94.9332 115.126 94.8198 115.173 94.6865 115.173H92.9265C92.7932 115.173 92.6798 115.126 92.5865 115.033C92.4932 114.94 92.4465 114.826 92.4465 114.693V109.193C92.4465 108.42 92.2532 107.813 91.8665 107.373C91.4932 106.933 90.9465 106.713 90.2265 106.713C89.5332 106.713 88.9798 106.933 88.5665 107.373C88.1532 107.813 87.9465 108.42 87.9465 109.193V114.693C87.9465 114.826 87.8998 114.94 87.8065 115.033C87.7132 115.126 87.5998 115.173 87.4665 115.173H85.7065ZM102.307 115.373C101.24 115.373 100.34 115.186 99.607 114.813C98.887 114.44 98.3336 113.913 97.947 113.233C97.5736 112.553 97.3603 111.76 97.307 110.853C97.2936 110.613 97.287 110.32 97.287 109.973C97.287 109.626 97.2936 109.333 97.307 109.093C97.3603 108.173 97.5803 107.38 97.967 106.713C98.367 106.033 98.927 105.506 99.647 105.133C100.38 104.76 101.267 104.573 102.307 104.573C103.347 104.573 104.227 104.76 104.947 105.133C105.68 105.506 106.24 106.033 106.627 106.713C107.027 107.38 107.254 108.173 107.307 109.093C107.32 109.333 107.327 109.626 107.327 109.973C107.327 110.32 107.32 110.613 107.307 110.853C107.254 111.76 107.034 112.553 106.647 113.233C106.274 113.913 105.72 114.44 104.987 114.813C104.267 115.186 103.374 115.373 102.307 115.373ZM102.307 113.393C103.014 113.393 103.56 113.173 103.947 112.733C104.334 112.28 104.547 111.62 104.587 110.753C104.6 110.553 104.607 110.293 104.607 109.973C104.607 109.653 104.6 109.393 104.587 109.193C104.547 108.34 104.334 107.686 103.947 107.233C103.56 106.78 103.014 106.553 102.307 106.553C101.6 106.553 101.054 106.78 100.667 107.233C100.28 107.686 100.067 108.34 100.027 109.193C100.014 109.393 100.007 109.653 100.007 109.973C100.007 110.293 100.014 110.553 100.027 110.753C100.067 111.62 100.28 112.28 100.667 112.733C101.054 113.173 101.6 113.393 102.307 113.393ZM118.713 115.373C117.647 115.373 116.747 115.186 116.013 114.813C115.293 114.44 114.74 113.913 114.353 113.233C113.98 112.553 113.767 111.76 113.713 110.853C113.7 110.613 113.693 110.32 113.693 109.973C113.693 109.626 113.7 109.333 113.713 109.093C113.767 108.173 113.987 107.38 114.373 106.713C114.773 106.033 115.333 105.506 116.053 105.133C116.787 104.76 117.673 104.573 118.713 104.573C119.753 104.573 120.633 104.76 121.353 105.133C122.087 105.506 122.647 106.033 123.033 106.713C123.433 107.38 123.66 108.173 123.713 109.093C123.727 109.333 123.733 109.626 123.733 109.973C123.733 110.32 123.727 110.613 123.713 110.853C123.66 111.76 123.44 112.553 123.053 113.233C122.68 113.913 122.127 114.44 121.393 114.813C120.673 115.186 119.78 115.373 118.713 115.373ZM118.713 113.393C119.42 113.393 119.967 113.173 120.353 112.733C120.74 112.28 120.953 111.62 120.993 110.753C121.007 110.553 121.013 110.293 121.013 109.973C121.013 109.653 121.007 109.393 120.993 109.193C120.953 108.34 120.74 107.686 120.353 107.233C119.967 106.78 119.42 106.553 118.713 106.553C118.007 106.553 117.46 106.78 117.073 107.233C116.687 107.686 116.473 108.34 116.433 109.193C116.42 109.393 116.413 109.653 116.413 109.973C116.413 110.293 116.42 110.553 116.433 110.753C116.473 111.62 116.687 112.28 117.073 112.733C117.46 113.173 118.007 113.393 118.713 113.393ZM129.809 115.373C128.996 115.373 128.289 115.193 127.689 114.833C127.102 114.46 126.649 113.94 126.329 113.273C126.009 112.593 125.849 111.793 125.849 110.873V105.253C125.849 105.12 125.896 105.006 125.989 104.913C126.082 104.82 126.196 104.773 126.329 104.773H128.089C128.236 104.773 128.349 104.82 128.429 104.913C128.522 105.006 128.569 105.12 128.569 105.253V110.753C128.569 112.406 129.296 113.233 130.749 113.233C131.442 113.233 131.989 113.013 132.389 112.573C132.802 112.133 133.009 111.526 133.009 110.753V105.253C133.009 105.12 133.056 105.006 133.149 104.913C133.242 104.82 133.356 104.773 133.489 104.773H135.249C135.382 104.773 135.496 104.82 135.589 104.913C135.682 105.006 135.729 105.12 135.729 105.253V114.693C135.729 114.826 135.682 114.94 135.589 115.033C135.496 115.126 135.382 115.173 135.249 115.173H133.629C133.482 115.173 133.362 115.126 133.269 115.033C133.189 114.94 133.149 114.826 133.149 114.693V113.873C132.789 114.34 132.342 114.706 131.809 114.973C131.276 115.24 130.609 115.373 129.809 115.373ZM143.071 115.173C142.271 115.173 141.598 115.033 141.051 114.753C140.504 114.473 140.098 114.06 139.831 113.513C139.564 112.953 139.431 112.26 139.431 111.433V106.893H137.851C137.718 106.893 137.604 106.846 137.511 106.753C137.418 106.66 137.371 106.546 137.371 106.413V105.253C137.371 105.12 137.418 105.006 137.511 104.913C137.604 104.82 137.718 104.773 137.851 104.773H139.431V101.453C139.431 101.32 139.471 101.206 139.551 101.113C139.644 101.02 139.764 100.973 139.911 100.973H141.531C141.664 100.973 141.778 101.02 141.871 101.113C141.964 101.206 142.011 101.32 142.011 101.453V104.773H144.511C144.644 104.773 144.758 104.82 144.851 104.913C144.944 105.006 144.991 105.12 144.991 105.253V106.413C144.991 106.546 144.944 106.66 144.851 106.753C144.758 106.846 144.644 106.893 144.511 106.893H142.011V111.233C142.011 111.78 142.104 112.206 142.291 112.513C142.491 112.82 142.831 112.973 143.311 112.973H144.691C144.824 112.973 144.938 113.02 145.031 113.113C145.124 113.206 145.171 113.32 145.171 113.453V114.693C145.171 114.826 145.124 114.94 145.031 115.033C144.938 115.126 144.824 115.173 144.691 115.173H143.071ZM150.885 115.373C150.085 115.373 149.399 115.28 148.825 115.093C148.265 114.906 147.805 114.673 147.445 114.393C147.085 114.113 146.819 113.833 146.645 113.553C146.472 113.273 146.379 113.04 146.365 112.853C146.352 112.706 146.392 112.593 146.485 112.513C146.592 112.42 146.705 112.373 146.825 112.373H148.405C148.459 112.373 148.505 112.38 148.545 112.393C148.585 112.406 148.639 112.446 148.705 112.513C148.879 112.66 149.059 112.813 149.245 112.973C149.445 113.133 149.679 113.273 149.945 113.393C150.212 113.5 150.545 113.553 150.945 113.553C151.465 113.553 151.899 113.453 152.245 113.253C152.605 113.04 152.785 112.74 152.785 112.353C152.785 112.073 152.705 111.846 152.545 111.673C152.399 111.5 152.119 111.346 151.705 111.213C151.292 111.066 150.705 110.913 149.945 110.753C149.199 110.58 148.579 110.36 148.085 110.093C147.592 109.826 147.225 109.493 146.985 109.093C146.745 108.693 146.625 108.226 146.625 107.693C146.625 107.173 146.779 106.68 147.085 106.213C147.405 105.733 147.872 105.34 148.485 105.033C149.112 104.726 149.885 104.573 150.805 104.573C151.525 104.573 152.152 104.666 152.685 104.853C153.219 105.026 153.659 105.246 154.005 105.513C154.365 105.78 154.639 106.053 154.825 106.333C155.012 106.6 155.112 106.833 155.125 107.033C155.139 107.18 155.099 107.3 155.005 107.393C154.912 107.473 154.805 107.513 154.685 107.513H153.205C153.139 107.513 153.079 107.5 153.025 107.473C152.972 107.446 152.919 107.413 152.865 107.373C152.719 107.24 152.559 107.1 152.385 106.953C152.212 106.806 151.999 106.68 151.745 106.573C151.505 106.453 151.185 106.393 150.785 106.393C150.279 106.393 149.892 106.506 149.625 106.733C149.359 106.946 149.225 107.22 149.225 107.553C149.225 107.78 149.285 107.98 149.405 108.153C149.539 108.313 149.799 108.466 150.185 108.613C150.572 108.76 151.159 108.913 151.945 109.073C152.839 109.233 153.545 109.473 154.065 109.793C154.599 110.1 154.972 110.46 155.185 110.873C155.412 111.273 155.525 111.72 155.525 112.213C155.525 112.813 155.345 113.353 154.985 113.833C154.639 114.313 154.119 114.693 153.425 114.973C152.745 115.24 151.899 115.373 150.885 115.373ZM158.07 115.173C157.936 115.173 157.823 115.126 157.73 115.033C157.636 114.94 157.59 114.826 157.59 114.693V105.253C157.59 105.12 157.636 105.006 157.73 104.913C157.823 104.82 157.936 104.773 158.07 104.773H159.73C159.876 104.773 159.99 104.82 160.07 104.913C160.163 105.006 160.21 105.12 160.21 105.253V114.693C160.21 114.826 160.163 114.94 160.07 115.033C159.99 115.126 159.876 115.173 159.73 115.173H158.07ZM157.99 103.053C157.843 103.053 157.723 103.013 157.63 102.933C157.55 102.84 157.51 102.72 157.51 102.573V101.133C157.51 101 157.55 100.886 157.63 100.793C157.723 100.7 157.843 100.653 157.99 100.653H159.81C159.956 100.653 160.076 100.7 160.17 100.793C160.263 100.886 160.31 101 160.31 101.133V102.573C160.31 102.72 160.263 102.84 160.17 102.933C160.076 103.013 159.956 103.053 159.81 103.053H157.99ZM166.723 115.373C166.03 115.373 165.417 115.26 164.883 115.033C164.363 114.793 163.93 114.46 163.583 114.033C163.237 113.606 162.97 113.106 162.783 112.533C162.597 111.946 162.49 111.306 162.463 110.613C162.45 110.373 162.443 110.16 162.443 109.973C162.443 109.773 162.45 109.553 162.463 109.313C162.49 108.646 162.59 108.026 162.763 107.453C162.95 106.88 163.217 106.38 163.563 105.953C163.923 105.513 164.363 105.173 164.883 104.933C165.417 104.693 166.03 104.573 166.723 104.573C167.443 104.573 168.05 104.7 168.543 104.953C169.05 105.193 169.47 105.506 169.803 105.893V101.453C169.803 101.32 169.843 101.206 169.923 101.113C170.017 101.02 170.137 100.973 170.283 100.973H171.983C172.117 100.973 172.23 101.02 172.323 101.113C172.417 101.206 172.463 101.32 172.463 101.453V114.693C172.463 114.826 172.417 114.94 172.323 115.033C172.23 115.126 172.117 115.173 171.983 115.173H170.403C170.257 115.173 170.137 115.126 170.043 115.033C169.963 114.94 169.923 114.826 169.923 114.693V113.953C169.59 114.366 169.163 114.706 168.643 114.973C168.137 115.24 167.497 115.373 166.723 115.373ZM167.463 113.233C168.023 113.233 168.47 113.106 168.803 112.853C169.137 112.6 169.383 112.28 169.543 111.893C169.703 111.493 169.79 111.086 169.803 110.673C169.817 110.433 169.823 110.18 169.823 109.913C169.823 109.633 169.817 109.373 169.803 109.133C169.79 108.733 169.697 108.353 169.523 107.993C169.35 107.62 169.097 107.313 168.763 107.073C168.43 106.833 167.997 106.713 167.463 106.713C166.903 106.713 166.457 106.84 166.123 107.093C165.803 107.333 165.57 107.653 165.423 108.053C165.277 108.453 165.19 108.893 165.163 109.373C165.15 109.773 165.15 110.173 165.163 110.573C165.19 111.053 165.277 111.493 165.423 111.893C165.57 112.293 165.803 112.62 166.123 112.873C166.457 113.113 166.903 113.233 167.463 113.233ZM179.609 115.373C178.129 115.373 176.956 114.946 176.089 114.093C175.222 113.24 174.756 112.026 174.689 110.453C174.676 110.32 174.669 110.153 174.669 109.953C174.669 109.74 174.676 109.573 174.689 109.453C174.742 108.453 174.969 107.586 175.369 106.853C175.782 106.12 176.349 105.56 177.069 105.173C177.789 104.773 178.636 104.573 179.609 104.573C180.689 104.573 181.596 104.8 182.329 105.253C183.062 105.693 183.616 106.313 183.989 107.113C184.362 107.9 184.549 108.813 184.549 109.853V110.273C184.549 110.406 184.502 110.52 184.409 110.613C184.316 110.706 184.196 110.753 184.049 110.753H177.409C177.409 110.753 177.409 110.773 177.409 110.813C177.409 110.853 177.409 110.886 177.409 110.913C177.422 111.38 177.509 111.813 177.669 112.213C177.842 112.6 178.089 112.913 178.409 113.153C178.742 113.393 179.136 113.513 179.589 113.513C179.962 113.513 180.276 113.46 180.529 113.353C180.782 113.233 180.989 113.1 181.149 112.953C181.309 112.806 181.422 112.686 181.489 112.593C181.609 112.433 181.702 112.34 181.769 112.313C181.849 112.273 181.962 112.253 182.109 112.253H183.829C183.962 112.253 184.069 112.293 184.149 112.373C184.242 112.453 184.282 112.553 184.269 112.673C184.256 112.886 184.142 113.146 183.929 113.453C183.729 113.76 183.436 114.06 183.049 114.353C182.662 114.646 182.176 114.893 181.589 115.093C181.016 115.28 180.356 115.373 179.609 115.373ZM177.409 109.073H181.829V109.013C181.829 108.493 181.742 108.04 181.569 107.653C181.396 107.266 181.142 106.96 180.809 106.733C180.476 106.506 180.076 106.393 179.609 106.393C179.142 106.393 178.742 106.506 178.409 106.733C178.076 106.96 177.822 107.266 177.649 107.653C177.489 108.04 177.409 108.493 177.409 109.013V109.073ZM195.742 115.373C194.782 115.373 193.935 115.193 193.202 114.833C192.482 114.473 191.915 113.953 191.502 113.273C191.102 112.58 190.882 111.746 190.842 110.773C190.829 110.573 190.822 110.313 190.822 109.993C190.822 109.66 190.829 109.386 190.842 109.173C190.882 108.2 191.102 107.373 191.502 106.693C191.915 106 192.482 105.473 193.202 105.113C193.935 104.753 194.782 104.573 195.742 104.573C196.595 104.573 197.322 104.693 197.922 104.933C198.522 105.173 199.015 105.473 199.402 105.833C199.789 106.193 200.075 106.573 200.262 106.973C200.462 107.36 200.569 107.713 200.582 108.033C200.595 108.18 200.549 108.3 200.442 108.393C200.349 108.473 200.235 108.513 200.102 108.513H198.342C198.209 108.513 198.102 108.48 198.022 108.413C197.955 108.346 197.889 108.246 197.822 108.113C197.622 107.58 197.355 107.206 197.022 106.993C196.702 106.766 196.289 106.653 195.782 106.653C195.115 106.653 194.582 106.866 194.182 107.293C193.795 107.706 193.589 108.366 193.562 109.273C193.535 109.78 193.535 110.246 193.562 110.673C193.589 111.593 193.795 112.26 194.182 112.673C194.582 113.086 195.115 113.293 195.782 113.293C196.302 113.293 196.722 113.186 197.042 112.973C197.362 112.746 197.622 112.366 197.822 111.833C197.889 111.7 197.955 111.6 198.022 111.533C198.102 111.466 198.209 111.433 198.342 111.433H200.102C200.235 111.433 200.349 111.48 200.442 111.573C200.549 111.653 200.595 111.766 200.582 111.913C200.569 112.153 200.502 112.426 200.382 112.733C200.275 113.026 200.095 113.333 199.842 113.653C199.602 113.96 199.295 114.246 198.922 114.513C198.549 114.766 198.095 114.973 197.562 115.133C197.042 115.293 196.435 115.373 195.742 115.373ZM207.268 115.373C206.201 115.373 205.301 115.186 204.568 114.813C203.848 114.44 203.295 113.913 202.908 113.233C202.535 112.553 202.321 111.76 202.268 110.853C202.255 110.613 202.248 110.32 202.248 109.973C202.248 109.626 202.255 109.333 202.268 109.093C202.321 108.173 202.541 107.38 202.928 106.713C203.328 106.033 203.888 105.506 204.608 105.133C205.341 104.76 206.228 104.573 207.268 104.573C208.308 104.573 209.188 104.76 209.908 105.133C210.641 105.506 211.201 106.033 211.588 106.713C211.988 107.38 212.215 108.173 212.268 109.093C212.281 109.333 212.288 109.626 212.288 109.973C212.288 110.32 212.281 110.613 212.268 110.853C212.215 111.76 211.995 112.553 211.608 113.233C211.235 113.913 210.681 114.44 209.948 114.813C209.228 115.186 208.335 115.373 207.268 115.373ZM207.268 113.393C207.975 113.393 208.521 113.173 208.908 112.733C209.295 112.28 209.508 111.62 209.548 110.753C209.561 110.553 209.568 110.293 209.568 109.973C209.568 109.653 209.561 109.393 209.548 109.193C209.508 108.34 209.295 107.686 208.908 107.233C208.521 106.78 207.975 106.553 207.268 106.553C206.561 106.553 206.015 106.78 205.628 107.233C205.241 107.686 205.028 108.34 204.988 109.193C204.975 109.393 204.968 109.653 204.968 109.973C204.968 110.293 204.975 110.553 204.988 110.753C205.028 111.62 205.241 112.28 205.628 112.733C206.015 113.173 206.561 113.393 207.268 113.393ZM214.984 115.173C214.851 115.173 214.737 115.126 214.644 115.033C214.551 114.94 214.504 114.826 214.504 114.693V105.253C214.504 105.12 214.551 105.006 214.644 104.913C214.737 104.82 214.851 104.773 214.984 104.773H216.624C216.757 104.773 216.871 104.82 216.964 104.913C217.057 105.006 217.104 105.12 217.104 105.253V106.073C217.451 105.646 217.891 105.293 218.424 105.013C218.971 104.72 219.644 104.573 220.444 104.573C221.257 104.573 221.964 104.76 222.564 105.133C223.164 105.493 223.624 106.006 223.944 106.673C224.277 107.34 224.444 108.14 224.444 109.073V114.693C224.444 114.826 224.397 114.94 224.304 115.033C224.211 115.126 224.097 115.173 223.964 115.173H222.204C222.071 115.173 221.957 115.126 221.864 115.033C221.771 114.94 221.724 114.826 221.724 114.693V109.193C221.724 108.42 221.531 107.813 221.144 107.373C220.771 106.933 220.224 106.713 219.504 106.713C218.811 106.713 218.257 106.933 217.844 107.373C217.431 107.813 217.224 108.42 217.224 109.193V114.693C217.224 114.826 217.177 114.94 217.084 115.033C216.991 115.126 216.877 115.173 216.744 115.173H214.984ZM231.567 115.173C230.767 115.173 230.094 115.033 229.547 114.753C229 114.473 228.594 114.06 228.327 113.513C228.06 112.953 227.927 112.26 227.927 111.433V106.893H226.347C226.214 106.893 226.1 106.846 226.007 106.753C225.914 106.66 225.867 106.546 225.867 106.413V105.253C225.867 105.12 225.914 105.006 226.007 104.913C226.1 104.82 226.214 104.773 226.347 104.773H227.927V101.453C227.927 101.32 227.967 101.206 228.047 101.113C228.14 101.02 228.26 100.973 228.407 100.973H230.027C230.16 100.973 230.274 101.02 230.367 101.113C230.46 101.206 230.507 101.32 230.507 101.453V104.773H233.007C233.14 104.773 233.254 104.82 233.347 104.913C233.44 105.006 233.487 105.12 233.487 105.253V106.413C233.487 106.546 233.44 106.66 233.347 106.753C233.254 106.846 233.14 106.893 233.007 106.893H230.507V111.233C230.507 111.78 230.6 112.206 230.787 112.513C230.987 112.82 231.327 112.973 231.807 112.973H233.187C233.32 112.973 233.434 113.02 233.527 113.113C233.62 113.206 233.667 113.32 233.667 113.453V114.693C233.667 114.826 233.62 114.94 233.527 115.033C233.434 115.126 233.32 115.173 233.187 115.173H231.567ZM235.921 115.173C235.788 115.173 235.675 115.126 235.581 115.033C235.488 114.94 235.441 114.826 235.441 114.693V105.273C235.441 105.126 235.488 105.006 235.581 104.913C235.675 104.82 235.788 104.773 235.921 104.773H237.541C237.675 104.773 237.788 104.82 237.881 104.913C237.988 105.006 238.041 105.126 238.041 105.273V106.093C238.348 105.666 238.741 105.34 239.221 105.113C239.715 104.886 240.281 104.773 240.921 104.773H241.741C241.888 104.773 242.001 104.82 242.081 104.913C242.175 105.006 242.221 105.12 242.221 105.253V106.693C242.221 106.826 242.175 106.94 242.081 107.033C242.001 107.126 241.888 107.173 241.741 107.173H240.181C239.541 107.173 239.041 107.353 238.681 107.713C238.335 108.073 238.161 108.566 238.161 109.193V114.693C238.161 114.826 238.115 114.94 238.021 115.033C237.928 115.126 237.808 115.173 237.661 115.173H235.921ZM248.244 115.373C247.178 115.373 246.278 115.186 245.544 114.813C244.824 114.44 244.271 113.913 243.884 113.233C243.511 112.553 243.298 111.76 243.244 110.853C243.231 110.613 243.224 110.32 243.224 109.973C243.224 109.626 243.231 109.333 243.244 109.093C243.298 108.173 243.518 107.38 243.904 106.713C244.304 106.033 244.864 105.506 245.584 105.133C246.318 104.76 247.204 104.573 248.244 104.573C249.284 104.573 250.164 104.76 250.884 105.133C251.618 105.506 252.178 106.033 252.564 106.713C252.964 107.38 253.191 108.173 253.244 109.093C253.258 109.333 253.264 109.626 253.264 109.973C253.264 110.32 253.258 110.613 253.244 110.853C253.191 111.76 252.971 112.553 252.584 113.233C252.211 113.913 251.658 114.44 250.924 114.813C250.204 115.186 249.311 115.373 248.244 115.373ZM248.244 113.393C248.951 113.393 249.498 113.173 249.884 112.733C250.271 112.28 250.484 111.62 250.524 110.753C250.538 110.553 250.544 110.293 250.544 109.973C250.544 109.653 250.538 109.393 250.524 109.193C250.484 108.34 250.271 107.686 249.884 107.233C249.498 106.78 248.951 106.553 248.244 106.553C247.538 106.553 246.991 106.78 246.604 107.233C246.218 107.686 246.004 108.34 245.964 109.193C245.951 109.393 245.944 109.653 245.944 109.973C245.944 110.293 245.951 110.553 245.964 110.753C246.004 111.62 246.218 112.28 246.604 112.733C246.991 113.173 247.538 113.393 248.244 113.393ZM255.98 115.173C255.847 115.173 255.734 115.126 255.64 115.033C255.547 114.94 255.5 114.826 255.5 114.693V101.453C255.5 101.32 255.547 101.206 255.64 101.113C255.734 101.02 255.847 100.973 255.98 100.973H257.64C257.774 100.973 257.887 101.02 257.98 101.113C258.074 101.206 258.12 101.32 258.12 101.453V114.693C258.12 114.826 258.074 114.94 257.98 115.033C257.887 115.126 257.774 115.173 257.64 115.173H255.98ZM260.653 116.673C260.533 116.673 260.44 116.633 260.373 116.553C260.307 116.473 260.28 116.373 260.293 116.253L260.833 112.853C260.86 112.68 260.92 112.533 261.013 112.413C261.12 112.28 261.273 112.213 261.473 112.213H263.313C263.42 112.213 263.507 112.253 263.573 112.333C263.64 112.4 263.673 112.486 263.673 112.593C263.673 112.686 263.653 112.773 263.613 112.853L262.333 116.173C262.28 116.306 262.2 116.42 262.093 116.513C262 116.62 261.86 116.673 261.673 116.673H260.653ZM49.0108 142.973C48.9041 142.973 48.8108 142.933 48.7308 142.853C48.6508 142.773 48.6108 142.68 48.6108 142.573C48.6108 142.52 48.6108 142.466 48.6108 142.413C48.6241 142.373 48.6508 142.32 48.6908 142.253L50.2508 138.553L46.4108 129.493C46.3575 129.36 46.3308 129.266 46.3308 129.213C46.3441 129.093 46.3908 128.993 46.4708 128.913C46.5508 128.82 46.6508 128.773 46.7708 128.773H48.3908C48.5508 128.773 48.6708 128.813 48.7508 128.893C48.8308 128.973 48.8908 129.06 48.9308 129.153L51.5908 135.693L54.3308 129.153C54.3708 129.046 54.4308 128.96 54.5108 128.893C54.5908 128.813 54.7108 128.773 54.8708 128.773H56.4708C56.5775 128.773 56.6708 128.813 56.7508 128.893C56.8441 128.973 56.8908 129.066 56.8908 129.173C56.8908 129.253 56.8641 129.36 56.8108 129.493L51.1508 142.593C51.0975 142.7 51.0308 142.786 50.9508 142.853C50.8708 142.933 50.7508 142.973 50.5908 142.973H49.0108ZM62.8441 139.373C61.7774 139.373 60.8774 139.186 60.1441 138.813C59.4241 138.44 58.8708 137.913 58.4841 137.233C58.1108 136.553 57.8974 135.76 57.8441 134.853C57.8308 134.613 57.8241 134.32 57.8241 133.973C57.8241 133.626 57.8308 133.333 57.8441 133.093C57.8974 132.173 58.1174 131.38 58.5041 130.713C58.9041 130.033 59.4641 129.506 60.1841 129.133C60.9174 128.76 61.8041 128.573 62.8441 128.573C63.8841 128.573 64.7641 128.76 65.4841 129.133C66.2174 129.506 66.7774 130.033 67.1641 130.713C67.5641 131.38 67.7908 132.173 67.8441 133.093C67.8574 133.333 67.8641 133.626 67.8641 133.973C67.8641 134.32 67.8574 134.613 67.8441 134.853C67.7908 135.76 67.5708 136.553 67.1841 137.233C66.8108 137.913 66.2574 138.44 65.5241 138.813C64.8041 139.186 63.9108 139.373 62.8441 139.373ZM62.8441 137.393C63.5508 137.393 64.0974 137.173 64.4841 136.733C64.8708 136.28 65.0841 135.62 65.1241 134.753C65.1374 134.553 65.1441 134.293 65.1441 133.973C65.1441 133.653 65.1374 133.393 65.1241 133.193C65.0841 132.34 64.8708 131.686 64.4841 131.233C64.0974 130.78 63.5508 130.553 62.8441 130.553C62.1374 130.553 61.5908 130.78 61.2041 131.233C60.8174 131.686 60.6041 132.34 60.5641 133.193C60.5508 133.393 60.5441 133.653 60.5441 133.973C60.5441 134.293 60.5508 134.553 60.5641 134.753C60.6041 135.62 60.8174 136.28 61.2041 136.733C61.5908 137.173 62.1374 137.393 62.8441 137.393ZM73.94 139.373C73.1267 139.373 72.42 139.193 71.82 138.833C71.2334 138.46 70.78 137.94 70.46 137.273C70.14 136.593 69.98 135.793 69.98 134.873V129.253C69.98 129.12 70.0267 129.006 70.12 128.913C70.2134 128.82 70.3267 128.773 70.46 128.773H72.22C72.3667 128.773 72.48 128.82 72.56 128.913C72.6534 129.006 72.7 129.12 72.7 129.253V134.753C72.7 136.406 73.4267 137.233 74.88 137.233C75.5734 137.233 76.12 137.013 76.52 136.573C76.9334 136.133 77.14 135.526 77.14 134.753V129.253C77.14 129.12 77.1867 129.006 77.28 128.913C77.3734 128.82 77.4867 128.773 77.62 128.773H79.38C79.5134 128.773 79.6267 128.82 79.72 128.913C79.8134 129.006 79.86 129.12 79.86 129.253V138.693C79.86 138.826 79.8134 138.94 79.72 139.033C79.6267 139.126 79.5134 139.173 79.38 139.173H77.76C77.6134 139.173 77.4934 139.126 77.4 139.033C77.32 138.94 77.28 138.826 77.28 138.693V137.873C76.92 138.34 76.4734 138.706 75.94 138.973C75.4067 139.24 74.74 139.373 73.94 139.373ZM82.9819 139.173C82.8486 139.173 82.7352 139.126 82.6419 139.033C82.5486 138.94 82.5019 138.826 82.5019 138.693V129.273C82.5019 129.126 82.5486 129.006 82.6419 128.913C82.7352 128.82 82.8486 128.773 82.9819 128.773H84.6019C84.7352 128.773 84.8486 128.82 84.9419 128.913C85.0486 129.006 85.1019 129.126 85.1019 129.273V130.093C85.4086 129.666 85.8019 129.34 86.2819 129.113C86.7752 128.886 87.3419 128.773 87.9819 128.773H88.8019C88.9486 128.773 89.0619 128.82 89.1419 128.913C89.2352 129.006 89.2819 129.12 89.2819 129.253V130.693C89.2819 130.826 89.2352 130.94 89.1419 131.033C89.0619 131.126 88.9486 131.173 88.8019 131.173H87.2419C86.6019 131.173 86.1019 131.353 85.7419 131.713C85.3952 132.073 85.2219 132.566 85.2219 133.193V138.693C85.2219 138.826 85.1752 138.94 85.0819 139.033C84.9886 139.126 84.8686 139.173 84.7219 139.173H82.9819ZM96.2308 139.173C96.0975 139.173 95.9841 139.126 95.8908 139.033C95.7975 138.94 95.7508 138.826 95.7508 138.693V130.893H94.1308C93.9975 130.893 93.8841 130.846 93.7908 130.753C93.6975 130.66 93.6508 130.546 93.6508 130.413V129.253C93.6508 129.12 93.6975 129.006 93.7908 128.913C93.8841 128.82 93.9975 128.773 94.1308 128.773H95.7508V127.953C95.7508 127.153 95.8975 126.493 96.1908 125.973C96.4841 125.44 96.9175 125.04 97.4908 124.773C98.0641 124.506 98.7908 124.373 99.6708 124.373H101.031C101.177 124.373 101.291 124.42 101.371 124.513C101.464 124.606 101.511 124.72 101.511 124.853V126.013C101.511 126.146 101.464 126.26 101.371 126.353C101.291 126.446 101.177 126.493 101.031 126.493H99.7508C99.2175 126.493 98.8508 126.626 98.6508 126.893C98.4508 127.16 98.3508 127.546 98.3508 128.053V128.773H100.831C100.977 128.773 101.091 128.82 101.171 128.913C101.264 129.006 101.311 129.12 101.311 129.253V130.413C101.311 130.546 101.264 130.66 101.171 130.753C101.091 130.846 100.977 130.893 100.831 130.893H98.3508V138.693C98.3508 138.826 98.3041 138.94 98.2108 139.033C98.1175 139.126 98.0041 139.173 97.8708 139.173H96.2308ZM106.772 139.373C105.959 139.373 105.252 139.193 104.652 138.833C104.065 138.46 103.612 137.94 103.292 137.273C102.972 136.593 102.812 135.793 102.812 134.873V129.253C102.812 129.12 102.859 129.006 102.952 128.913C103.045 128.82 103.159 128.773 103.292 128.773H105.052C105.199 128.773 105.312 128.82 105.392 128.913C105.485 129.006 105.532 129.12 105.532 129.253V134.753C105.532 136.406 106.259 137.233 107.712 137.233C108.405 137.233 108.952 137.013 109.352 136.573C109.765 136.133 109.972 135.526 109.972 134.753V129.253C109.972 129.12 110.019 129.006 110.112 128.913C110.205 128.82 110.319 128.773 110.452 128.773H112.212C112.345 128.773 112.459 128.82 112.552 128.913C112.645 129.006 112.692 129.12 112.692 129.253V138.693C112.692 138.826 112.645 138.94 112.552 139.033C112.459 139.126 112.345 139.173 112.212 139.173H110.592C110.445 139.173 110.325 139.126 110.232 139.033C110.152 138.94 110.112 138.826 110.112 138.693V137.873C109.752 138.34 109.305 138.706 108.772 138.973C108.239 139.24 107.572 139.373 106.772 139.373ZM115.814 139.173C115.681 139.173 115.567 139.126 115.474 139.033C115.381 138.94 115.334 138.826 115.334 138.693V129.253C115.334 129.12 115.381 129.006 115.474 128.913C115.567 128.82 115.681 128.773 115.814 128.773H117.454C117.587 128.773 117.701 128.82 117.794 128.913C117.887 129.006 117.934 129.12 117.934 129.253V130.073C118.281 129.646 118.721 129.293 119.254 129.013C119.801 128.72 120.474 128.573 121.274 128.573C122.087 128.573 122.794 128.76 123.394 129.133C123.994 129.493 124.454 130.006 124.774 130.673C125.107 131.34 125.274 132.14 125.274 133.073V138.693C125.274 138.826 125.227 138.94 125.134 139.033C125.041 139.126 124.927 139.173 124.794 139.173H123.034C122.901 139.173 122.787 139.126 122.694 139.033C122.601 138.94 122.554 138.826 122.554 138.693V133.193C122.554 132.42 122.361 131.813 121.974 131.373C121.601 130.933 121.054 130.713 120.334 130.713C119.641 130.713 119.087 130.933 118.674 131.373C118.261 131.813 118.054 132.42 118.054 133.193V138.693C118.054 138.826 118.007 138.94 117.914 139.033C117.821 139.126 117.707 139.173 117.574 139.173H115.814ZM131.674 139.373C130.981 139.373 130.368 139.26 129.834 139.033C129.314 138.793 128.881 138.46 128.534 138.033C128.188 137.606 127.921 137.106 127.734 136.533C127.548 135.946 127.441 135.306 127.414 134.613C127.401 134.373 127.394 134.16 127.394 133.973C127.394 133.773 127.401 133.553 127.414 133.313C127.441 132.646 127.541 132.026 127.714 131.453C127.901 130.88 128.168 130.38 128.514 129.953C128.874 129.513 129.314 129.173 129.834 128.933C130.368 128.693 130.981 128.573 131.674 128.573C132.394 128.573 133.001 128.7 133.494 128.953C134.001 129.193 134.421 129.506 134.754 129.893V125.453C134.754 125.32 134.794 125.206 134.874 125.113C134.968 125.02 135.088 124.973 135.234 124.973H136.934C137.068 124.973 137.181 125.02 137.274 125.113C137.368 125.206 137.414 125.32 137.414 125.453V138.693C137.414 138.826 137.368 138.94 137.274 139.033C137.181 139.126 137.068 139.173 136.934 139.173H135.354C135.208 139.173 135.088 139.126 134.994 139.033C134.914 138.94 134.874 138.826 134.874 138.693V137.953C134.541 138.366 134.114 138.706 133.594 138.973C133.088 139.24 132.448 139.373 131.674 139.373ZM132.414 137.233C132.974 137.233 133.421 137.106 133.754 136.853C134.088 136.6 134.334 136.28 134.494 135.893C134.654 135.493 134.741 135.086 134.754 134.673C134.768 134.433 134.774 134.18 134.774 133.913C134.774 133.633 134.768 133.373 134.754 133.133C134.741 132.733 134.648 132.353 134.474 131.993C134.301 131.62 134.048 131.313 133.714 131.073C133.381 130.833 132.948 130.713 132.414 130.713C131.854 130.713 131.408 130.84 131.074 131.093C130.754 131.333 130.521 131.653 130.374 132.053C130.228 132.453 130.141 132.893 130.114 133.373C130.101 133.773 130.101 134.173 130.114 134.573C130.141 135.053 130.228 135.493 130.374 135.893C130.521 136.293 130.754 136.62 131.074 136.873C131.408 137.113 131.854 137.233 132.414 137.233ZM144.02 139.373C143.22 139.373 142.533 139.28 141.96 139.093C141.4 138.906 140.94 138.673 140.58 138.393C140.22 138.113 139.953 137.833 139.78 137.553C139.607 137.273 139.513 137.04 139.5 136.853C139.487 136.706 139.527 136.593 139.62 136.513C139.727 136.42 139.84 136.373 139.96 136.373H141.54C141.593 136.373 141.64 136.38 141.68 136.393C141.72 136.406 141.773 136.446 141.84 136.513C142.013 136.66 142.193 136.813 142.38 136.973C142.58 137.133 142.813 137.273 143.08 137.393C143.347 137.5 143.68 137.553 144.08 137.553C144.6 137.553 145.033 137.453 145.38 137.253C145.74 137.04 145.92 136.74 145.92 136.353C145.92 136.073 145.84 135.846 145.68 135.673C145.533 135.5 145.253 135.346 144.84 135.213C144.427 135.066 143.84 134.913 143.08 134.753C142.333 134.58 141.713 134.36 141.22 134.093C140.727 133.826 140.36 133.493 140.12 133.093C139.88 132.693 139.76 132.226 139.76 131.693C139.76 131.173 139.913 130.68 140.22 130.213C140.54 129.733 141.007 129.34 141.62 129.033C142.247 128.726 143.02 128.573 143.94 128.573C144.66 128.573 145.287 128.666 145.82 128.853C146.353 129.026 146.793 129.246 147.14 129.513C147.5 129.78 147.773 130.053 147.96 130.333C148.147 130.6 148.247 130.833 148.26 131.033C148.273 131.18 148.233 131.3 148.14 131.393C148.047 131.473 147.94 131.513 147.82 131.513H146.34C146.273 131.513 146.213 131.5 146.16 131.473C146.107 131.446 146.053 131.413 146 131.373C145.853 131.24 145.693 131.1 145.52 130.953C145.347 130.806 145.133 130.68 144.88 130.573C144.64 130.453 144.32 130.393 143.92 130.393C143.413 130.393 143.027 130.506 142.76 130.733C142.493 130.946 142.36 131.22 142.36 131.553C142.36 131.78 142.42 131.98 142.54 132.153C142.673 132.313 142.933 132.466 143.32 132.613C143.707 132.76 144.293 132.913 145.08 133.073C145.973 133.233 146.68 133.473 147.2 133.793C147.733 134.1 148.107 134.46 148.32 134.873C148.547 135.273 148.66 135.72 148.66 136.213C148.66 136.813 148.48 137.353 148.12 137.833C147.773 138.313 147.253 138.693 146.56 138.973C145.88 139.24 145.033 139.373 144.02 139.373ZM158.315 139.373C157.622 139.373 156.995 139.24 156.435 138.973C155.875 138.693 155.428 138.326 155.095 137.873C154.775 137.406 154.615 136.886 154.615 136.313C154.615 135.38 154.988 134.64 155.735 134.093C156.495 133.533 157.495 133.16 158.735 132.973L161.475 132.573V132.153C161.475 131.593 161.335 131.16 161.055 130.853C160.775 130.546 160.295 130.393 159.615 130.393C159.135 130.393 158.742 130.493 158.435 130.693C158.142 130.88 157.922 131.133 157.775 131.453C157.668 131.626 157.515 131.713 157.315 131.713H155.735C155.588 131.713 155.475 131.673 155.395 131.593C155.328 131.513 155.295 131.406 155.295 131.273C155.308 131.06 155.395 130.8 155.555 130.493C155.715 130.186 155.968 129.893 156.315 129.613C156.662 129.32 157.108 129.073 157.655 128.873C158.202 128.673 158.862 128.573 159.635 128.573C160.475 128.573 161.182 128.68 161.755 128.893C162.342 129.093 162.808 129.366 163.155 129.713C163.502 130.06 163.755 130.466 163.915 130.933C164.075 131.4 164.155 131.893 164.155 132.413V138.693C164.155 138.826 164.108 138.94 164.015 139.033C163.922 139.126 163.808 139.173 163.675 139.173H162.055C161.908 139.173 161.788 139.126 161.695 139.033C161.615 138.94 161.575 138.826 161.575 138.693V137.913C161.402 138.166 161.168 138.406 160.875 138.633C160.582 138.846 160.222 139.026 159.795 139.173C159.382 139.306 158.888 139.373 158.315 139.373ZM158.995 137.473C159.462 137.473 159.882 137.373 160.255 137.173C160.642 136.973 160.942 136.666 161.155 136.253C161.382 135.826 161.495 135.293 161.495 134.653V134.233L159.495 134.553C158.708 134.673 158.122 134.866 157.735 135.133C157.348 135.4 157.155 135.726 157.155 136.113C157.155 136.406 157.242 136.66 157.415 136.873C157.602 137.073 157.835 137.226 158.115 137.333C158.395 137.426 158.688 137.473 158.995 137.473ZM167.201 139.173C167.067 139.173 166.954 139.126 166.861 139.033C166.767 138.94 166.721 138.826 166.721 138.693V129.273C166.721 129.126 166.767 129.006 166.861 128.913C166.954 128.82 167.067 128.773 167.201 128.773H168.821C168.954 128.773 169.067 128.82 169.161 128.913C169.267 129.006 169.321 129.126 169.321 129.273V130.093C169.627 129.666 170.021 129.34 170.501 129.113C170.994 128.886 171.561 128.773 172.201 128.773H173.021C173.167 128.773 173.281 128.82 173.361 128.913C173.454 129.006 173.501 129.12 173.501 129.253V130.693C173.501 130.826 173.454 130.94 173.361 131.033C173.281 131.126 173.167 131.173 173.021 131.173H171.461C170.821 131.173 170.321 131.353 169.961 131.713C169.614 132.073 169.441 132.566 169.441 133.193V138.693C169.441 138.826 169.394 138.94 169.301 139.033C169.207 139.126 169.087 139.173 168.941 139.173H167.201ZM179.404 139.373C177.924 139.373 176.75 138.946 175.884 138.093C175.017 137.24 174.55 136.026 174.484 134.453C174.47 134.32 174.464 134.153 174.464 133.953C174.464 133.74 174.47 133.573 174.484 133.453C174.537 132.453 174.764 131.586 175.164 130.853C175.577 130.12 176.144 129.56 176.864 129.173C177.584 128.773 178.43 128.573 179.404 128.573C180.484 128.573 181.39 128.8 182.124 129.253C182.857 129.693 183.41 130.313 183.784 131.113C184.157 131.9 184.344 132.813 184.344 133.853V134.273C184.344 134.406 184.297 134.52 184.204 134.613C184.11 134.706 183.99 134.753 183.844 134.753H177.204C177.204 134.753 177.204 134.773 177.204 134.813C177.204 134.853 177.204 134.886 177.204 134.913C177.217 135.38 177.304 135.813 177.464 136.213C177.637 136.6 177.884 136.913 178.204 137.153C178.537 137.393 178.93 137.513 179.384 137.513C179.757 137.513 180.07 137.46 180.324 137.353C180.577 137.233 180.784 137.1 180.944 136.953C181.104 136.806 181.217 136.686 181.284 136.593C181.404 136.433 181.497 136.34 181.564 136.313C181.644 136.273 181.757 136.253 181.904 136.253H183.624C183.757 136.253 183.864 136.293 183.944 136.373C184.037 136.453 184.077 136.553 184.064 136.673C184.05 136.886 183.937 137.146 183.724 137.453C183.524 137.76 183.23 138.06 182.844 138.353C182.457 138.646 181.97 138.893 181.384 139.093C180.81 139.28 180.15 139.373 179.404 139.373ZM177.204 133.073H181.624V133.013C181.624 132.493 181.537 132.04 181.364 131.653C181.19 131.266 180.937 130.96 180.604 130.733C180.27 130.506 179.87 130.393 179.404 130.393C178.937 130.393 178.537 130.506 178.204 130.733C177.87 130.96 177.617 131.266 177.444 131.653C177.284 132.04 177.204 132.493 177.204 133.013V133.073ZM194.057 139.373C193.364 139.373 192.737 139.24 192.177 138.973C191.617 138.693 191.17 138.326 190.837 137.873C190.517 137.406 190.357 136.886 190.357 136.313C190.357 135.38 190.73 134.64 191.477 134.093C192.237 133.533 193.237 133.16 194.477 132.973L197.217 132.573V132.153C197.217 131.593 197.077 131.16 196.797 130.853C196.517 130.546 196.037 130.393 195.357 130.393C194.877 130.393 194.484 130.493 194.177 130.693C193.884 130.88 193.664 131.133 193.517 131.453C193.41 131.626 193.257 131.713 193.057 131.713H191.477C191.33 131.713 191.217 131.673 191.137 131.593C191.07 131.513 191.037 131.406 191.037 131.273C191.05 131.06 191.137 130.8 191.297 130.493C191.457 130.186 191.71 129.893 192.057 129.613C192.404 129.32 192.85 129.073 193.397 128.873C193.944 128.673 194.604 128.573 195.377 128.573C196.217 128.573 196.924 128.68 197.497 128.893C198.084 129.093 198.55 129.366 198.897 129.713C199.244 130.06 199.497 130.466 199.657 130.933C199.817 131.4 199.897 131.893 199.897 132.413V138.693C199.897 138.826 199.85 138.94 199.757 139.033C199.664 139.126 199.55 139.173 199.417 139.173H197.797C197.65 139.173 197.53 139.126 197.437 139.033C197.357 138.94 197.317 138.826 197.317 138.693V137.913C197.144 138.166 196.91 138.406 196.617 138.633C196.324 138.846 195.964 139.026 195.537 139.173C195.124 139.306 194.63 139.373 194.057 139.373ZM194.737 137.473C195.204 137.473 195.624 137.373 195.997 137.173C196.384 136.973 196.684 136.666 196.897 136.253C197.124 135.826 197.237 135.293 197.237 134.653V134.233L195.237 134.553C194.45 134.673 193.864 134.866 193.477 135.133C193.09 135.4 192.897 135.726 192.897 136.113C192.897 136.406 192.984 136.66 193.157 136.873C193.344 137.073 193.577 137.226 193.857 137.333C194.137 137.426 194.43 137.473 194.737 137.473ZM202.963 139.173C202.83 139.173 202.716 139.126 202.623 139.033C202.53 138.94 202.483 138.826 202.483 138.693V125.453C202.483 125.32 202.53 125.206 202.623 125.113C202.716 125.02 202.83 124.973 202.963 124.973H204.623C204.756 124.973 204.87 125.02 204.963 125.113C205.056 125.206 205.103 125.32 205.103 125.453V138.693C205.103 138.826 205.056 138.94 204.963 139.033C204.87 139.126 204.756 139.173 204.623 139.173H202.963ZM210.596 139.173C210.409 139.173 210.269 139.126 210.176 139.033C210.082 138.94 210.002 138.82 209.936 138.673L207.076 129.393C207.062 129.326 207.056 129.266 207.056 129.213C207.056 129.093 207.096 128.993 207.176 128.913C207.269 128.82 207.369 128.773 207.476 128.773H208.956C209.116 128.773 209.242 128.82 209.336 128.913C209.429 128.993 209.482 129.073 209.496 129.153L211.456 135.773L213.536 129.213C213.562 129.12 213.622 129.026 213.716 128.933C213.809 128.826 213.949 128.773 214.136 128.773H215.136C215.322 128.773 215.462 128.826 215.556 128.933C215.649 129.026 215.709 129.12 215.736 129.213L217.816 135.773L219.776 129.153C219.789 129.073 219.836 128.993 219.916 128.913C220.009 128.82 220.136 128.773 220.296 128.773H221.776C221.896 128.773 221.996 128.82 222.076 128.913C222.169 128.993 222.216 129.093 222.216 129.213C222.216 129.266 222.202 129.326 222.176 129.393L219.316 138.673C219.276 138.82 219.202 138.94 219.096 139.033C219.002 139.126 218.862 139.173 218.676 139.173H217.376C217.189 139.173 217.042 139.126 216.936 139.033C216.829 138.94 216.756 138.82 216.716 138.673L214.636 132.353L212.556 138.673C212.502 138.82 212.422 138.94 212.316 139.033C212.222 139.126 212.076 139.173 211.876 139.173H210.596ZM226.87 139.373C226.176 139.373 225.55 139.24 224.99 138.973C224.43 138.693 223.983 138.326 223.65 137.873C223.33 137.406 223.17 136.886 223.17 136.313C223.17 135.38 223.543 134.64 224.29 134.093C225.05 133.533 226.05 133.16 227.29 132.973L230.03 132.573V132.153C230.03 131.593 229.89 131.16 229.61 130.853C229.33 130.546 228.85 130.393 228.17 130.393C227.69 130.393 227.296 130.493 226.99 130.693C226.696 130.88 226.476 131.133 226.33 131.453C226.223 131.626 226.07 131.713 225.87 131.713H224.29C224.143 131.713 224.03 131.673 223.95 131.593C223.883 131.513 223.85 131.406 223.85 131.273C223.863 131.06 223.95 130.8 224.11 130.493C224.27 130.186 224.523 129.893 224.87 129.613C225.216 129.32 225.663 129.073 226.21 128.873C226.756 128.673 227.416 128.573 228.19 128.573C229.03 128.573 229.736 128.68 230.31 128.893C230.896 129.093 231.363 129.366 231.71 129.713C232.056 130.06 232.31 130.466 232.47 130.933C232.63 131.4 232.71 131.893 232.71 132.413V138.693C232.71 138.826 232.663 138.94 232.57 139.033C232.476 139.126 232.363 139.173 232.23 139.173H230.61C230.463 139.173 230.343 139.126 230.25 139.033C230.17 138.94 230.13 138.826 230.13 138.693V137.913C229.956 138.166 229.723 138.406 229.43 138.633C229.136 138.846 228.776 139.026 228.35 139.173C227.936 139.306 227.443 139.373 226.87 139.373ZM227.55 137.473C228.016 137.473 228.436 137.373 228.81 137.173C229.196 136.973 229.496 136.666 229.71 136.253C229.936 135.826 230.05 135.293 230.05 134.653V134.233L228.05 134.553C227.263 134.673 226.676 134.866 226.29 135.133C225.903 135.4 225.71 135.726 225.71 136.113C225.71 136.406 225.796 136.66 225.97 136.873C226.156 137.073 226.39 137.226 226.67 137.333C226.95 137.426 227.243 137.473 227.55 137.473ZM236.882 142.973C236.775 142.973 236.682 142.933 236.602 142.853C236.522 142.773 236.482 142.68 236.482 142.573C236.482 142.52 236.482 142.466 236.482 142.413C236.495 142.373 236.522 142.32 236.562 142.253L238.122 138.553L234.282 129.493C234.229 129.36 234.202 129.266 234.202 129.213C234.215 129.093 234.262 128.993 234.342 128.913C234.422 128.82 234.522 128.773 234.642 128.773H236.262C236.422 128.773 236.542 128.813 236.622 128.893C236.702 128.973 236.762 129.06 236.802 129.153L239.462 135.693L242.202 129.153C242.242 129.046 242.302 128.96 242.382 128.893C242.462 128.813 242.582 128.773 242.742 128.773H244.342C244.449 128.773 244.542 128.813 244.622 128.893C244.715 128.973 244.762 129.066 244.762 129.173C244.762 129.253 244.735 129.36 244.682 129.493L239.022 142.593C238.969 142.7 238.902 142.786 238.822 142.853C238.742 142.933 238.622 142.973 238.462 142.973H236.882ZM250.114 139.373C249.314 139.373 248.627 139.28 248.054 139.093C247.494 138.906 247.034 138.673 246.674 138.393C246.314 138.113 246.047 137.833 245.874 137.553C245.7 137.273 245.607 137.04 245.594 136.853C245.58 136.706 245.62 136.593 245.714 136.513C245.82 136.42 245.934 136.373 246.054 136.373H247.634C247.687 136.373 247.734 136.38 247.774 136.393C247.814 136.406 247.867 136.446 247.934 136.513C248.107 136.66 248.287 136.813 248.474 136.973C248.674 137.133 248.907 137.273 249.174 137.393C249.44 137.5 249.774 137.553 250.174 137.553C250.694 137.553 251.127 137.453 251.474 137.253C251.834 137.04 252.014 136.74 252.014 136.353C252.014 136.073 251.934 135.846 251.774 135.673C251.627 135.5 251.347 135.346 250.934 135.213C250.52 135.066 249.934 134.913 249.174 134.753C248.427 134.58 247.807 134.36 247.314 134.093C246.82 133.826 246.454 133.493 246.214 133.093C245.974 132.693 245.854 132.226 245.854 131.693C245.854 131.173 246.007 130.68 246.314 130.213C246.634 129.733 247.1 129.34 247.714 129.033C248.34 128.726 249.114 128.573 250.034 128.573C250.754 128.573 251.38 128.666 251.914 128.853C252.447 129.026 252.887 129.246 253.234 129.513C253.594 129.78 253.867 130.053 254.054 130.333C254.24 130.6 254.34 130.833 254.354 131.033C254.367 131.18 254.327 131.3 254.234 131.393C254.14 131.473 254.034 131.513 253.914 131.513H252.434C252.367 131.513 252.307 131.5 252.254 131.473C252.2 131.446 252.147 131.413 252.094 131.373C251.947 131.24 251.787 131.1 251.614 130.953C251.44 130.806 251.227 130.68 250.974 130.573C250.734 130.453 250.414 130.393 250.014 130.393C249.507 130.393 249.12 130.506 248.854 130.733C248.587 130.946 248.454 131.22 248.454 131.553C248.454 131.78 248.514 131.98 248.634 132.153C248.767 132.313 249.027 132.466 249.414 132.613C249.8 132.76 250.387 132.913 251.174 133.073C252.067 133.233 252.774 133.473 253.294 133.793C253.827 134.1 254.2 134.46 254.414 134.873C254.64 135.273 254.754 135.72 254.754 136.213C254.754 136.813 254.574 137.353 254.214 137.833C253.867 138.313 253.347 138.693 252.654 138.973C251.974 139.24 251.127 139.373 250.114 139.373ZM135.094 163.373C134.294 163.373 133.608 163.28 133.034 163.093C132.474 162.906 132.014 162.673 131.654 162.393C131.294 162.113 131.028 161.833 130.854 161.553C130.681 161.273 130.588 161.04 130.574 160.853C130.561 160.706 130.601 160.593 130.694 160.513C130.801 160.42 130.914 160.373 131.034 160.373H132.614C132.668 160.373 132.714 160.38 132.754 160.393C132.794 160.406 132.848 160.446 132.914 160.513C133.088 160.66 133.268 160.813 133.454 160.973C133.654 161.133 133.888 161.273 134.154 161.393C134.421 161.5 134.754 161.553 135.154 161.553C135.674 161.553 136.108 161.453 136.454 161.253C136.814 161.04 136.994 160.74 136.994 160.353C136.994 160.073 136.914 159.846 136.754 159.673C136.608 159.5 136.328 159.346 135.914 159.213C135.501 159.066 134.914 158.913 134.154 158.753C133.408 158.58 132.788 158.36 132.294 158.093C131.801 157.826 131.434 157.493 131.194 157.093C130.954 156.693 130.834 156.226 130.834 155.693C130.834 155.173 130.988 154.68 131.294 154.213C131.614 153.733 132.081 153.34 132.694 153.033C133.321 152.726 134.094 152.573 135.014 152.573C135.734 152.573 136.361 152.666 136.894 152.853C137.428 153.026 137.868 153.246 138.214 153.513C138.574 153.78 138.848 154.053 139.034 154.333C139.221 154.6 139.321 154.833 139.334 155.033C139.348 155.18 139.308 155.3 139.214 155.393C139.121 155.473 139.014 155.513 138.894 155.513H137.414C137.348 155.513 137.288 155.5 137.234 155.473C137.181 155.446 137.128 155.413 137.074 155.373C136.928 155.24 136.768 155.1 136.594 154.953C136.421 154.806 136.208 154.68 135.954 154.573C135.714 154.453 135.394 154.393 134.994 154.393C134.488 154.393 134.101 154.506 133.834 154.733C133.568 154.946 133.434 155.22 133.434 155.553C133.434 155.78 133.494 155.98 133.614 156.153C133.748 156.313 134.008 156.466 134.394 156.613C134.781 156.76 135.368 156.913 136.154 157.073C137.048 157.233 137.754 157.473 138.274 157.793C138.808 158.1 139.181 158.46 139.394 158.873C139.621 159.273 139.734 159.72 139.734 160.213C139.734 160.813 139.554 161.353 139.194 161.833C138.848 162.313 138.328 162.693 137.634 162.973C136.954 163.24 136.108 163.373 135.094 163.373ZM144.819 163.373C144.125 163.373 143.499 163.24 142.939 162.973C142.379 162.693 141.932 162.326 141.599 161.873C141.279 161.406 141.119 160.886 141.119 160.313C141.119 159.38 141.492 158.64 142.239 158.093C142.999 157.533 143.999 157.16 145.239 156.973L147.979 156.573V156.153C147.979 155.593 147.839 155.16 147.559 154.853C147.279 154.546 146.799 154.393 146.119 154.393C145.639 154.393 145.245 154.493 144.939 154.693C144.645 154.88 144.425 155.133 144.279 155.453C144.172 155.626 144.019 155.713 143.819 155.713H142.239C142.092 155.713 141.979 155.673 141.899 155.593C141.832 155.513 141.799 155.406 141.799 155.273C141.812 155.06 141.899 154.8 142.059 154.493C142.219 154.186 142.472 153.893 142.819 153.613C143.165 153.32 143.612 153.073 144.159 152.873C144.705 152.673 145.365 152.573 146.139 152.573C146.979 152.573 147.685 152.68 148.259 152.893C148.845 153.093 149.312 153.366 149.659 153.713C150.005 154.06 150.259 154.466 150.419 154.933C150.579 155.4 150.659 155.893 150.659 156.413V162.693C150.659 162.826 150.612 162.94 150.519 163.033C150.425 163.126 150.312 163.173 150.179 163.173H148.559C148.412 163.173 148.292 163.126 148.199 163.033C148.119 162.94 148.079 162.826 148.079 162.693V161.913C147.905 162.166 147.672 162.406 147.379 162.633C147.085 162.846 146.725 163.026 146.299 163.173C145.885 163.306 145.392 163.373 144.819 163.373ZM145.499 161.473C145.965 161.473 146.385 161.373 146.759 161.173C147.145 160.973 147.445 160.666 147.659 160.253C147.885 159.826 147.999 159.293 147.999 158.653V158.233L145.999 158.553C145.212 158.673 144.625 158.866 144.239 159.133C143.852 159.4 143.659 159.726 143.659 160.113C143.659 160.406 143.745 160.66 143.919 160.873C144.105 161.073 144.339 161.226 144.619 161.333C144.899 161.426 145.192 161.473 145.499 161.473ZM154.727 163.173C154.594 163.173 154.48 163.126 154.387 163.033C154.294 162.94 154.247 162.826 154.247 162.693V154.893H152.627C152.494 154.893 152.38 154.846 152.287 154.753C152.194 154.66 152.147 154.546 152.147 154.413V153.253C152.147 153.12 152.194 153.006 152.287 152.913C152.38 152.82 152.494 152.773 152.627 152.773H154.247V151.953C154.247 151.153 154.394 150.493 154.687 149.973C154.98 149.44 155.414 149.04 155.987 148.773C156.56 148.506 157.287 148.373 158.167 148.373H159.527C159.674 148.373 159.787 148.42 159.867 148.513C159.96 148.606 160.007 148.72 160.007 148.853V150.013C160.007 150.146 159.96 150.26 159.867 150.353C159.787 150.446 159.674 150.493 159.527 150.493H158.247C157.714 150.493 157.347 150.626 157.147 150.893C156.947 151.16 156.847 151.546 156.847 152.053V152.773H159.327C159.474 152.773 159.587 152.82 159.667 152.913C159.76 153.006 159.807 153.12 159.807 153.253V154.413C159.807 154.546 159.76 154.66 159.667 154.753C159.587 154.846 159.474 154.893 159.327 154.893H156.847V162.693C156.847 162.826 156.8 162.94 156.707 163.033C156.614 163.126 156.5 163.173 156.367 163.173H154.727ZM165.732 163.373C164.252 163.373 163.079 162.946 162.212 162.093C161.345 161.24 160.879 160.026 160.812 158.453C160.799 158.32 160.792 158.153 160.792 157.953C160.792 157.74 160.799 157.573 160.812 157.453C160.865 156.453 161.092 155.586 161.492 154.853C161.905 154.12 162.472 153.56 163.192 153.173C163.912 152.773 164.759 152.573 165.732 152.573C166.812 152.573 167.719 152.8 168.452 153.253C169.185 153.693 169.739 154.313 170.112 155.113C170.485 155.9 170.672 156.813 170.672 157.853V158.273C170.672 158.406 170.625 158.52 170.532 158.613C170.439 158.706 170.319 158.753 170.172 158.753H163.532C163.532 158.753 163.532 158.773 163.532 158.813C163.532 158.853 163.532 158.886 163.532 158.913C163.545 159.38 163.632 159.813 163.792 160.213C163.965 160.6 164.212 160.913 164.532 161.153C164.865 161.393 165.259 161.513 165.712 161.513C166.085 161.513 166.399 161.46 166.652 161.353C166.905 161.233 167.112 161.1 167.272 160.953C167.432 160.806 167.545 160.686 167.612 160.593C167.732 160.433 167.825 160.34 167.892 160.313C167.972 160.273 168.085 160.253 168.232 160.253H169.952C170.085 160.253 170.192 160.293 170.272 160.373C170.365 160.453 170.405 160.553 170.392 160.673C170.379 160.886 170.265 161.146 170.052 161.453C169.852 161.76 169.559 162.06 169.172 162.353C168.785 162.646 168.299 162.893 167.712 163.093C167.139 163.28 166.479 163.373 165.732 163.373ZM163.532 157.073H167.952V157.013C167.952 156.493 167.865 156.04 167.692 155.653C167.519 155.266 167.265 154.96 166.932 154.733C166.599 154.506 166.199 154.393 165.732 154.393C165.265 154.393 164.865 154.506 164.532 154.733C164.199 154.96 163.945 155.266 163.772 155.653C163.612 156.04 163.532 156.493 163.532 157.013V157.073Z" fill="#A2B1BF"/>
<path d="M70.8784 80.8425V65.1851H77.0557C78.2433 65.1851 79.255 65.4119 80.0909 65.8656C80.9268 66.3141 81.5639 66.9384 82.0022 67.7386C82.4456 68.5337 82.6673 69.4512 82.6673 70.4909C82.6673 71.5307 82.4431 72.4481 81.9945 73.2432C81.546 74.0383 80.8962 74.6576 80.045 75.101C79.1989 75.5444 78.1745 75.7661 76.9716 75.7661H73.0344V73.1132H76.4365C77.0736 73.1132 77.5985 73.0036 78.0114 72.7845C78.4293 72.5602 78.7402 72.2519 78.9441 71.8594C79.1531 71.4619 79.2576 71.0057 79.2576 70.4909C79.2576 69.971 79.1531 69.5174 78.9441 69.1301C78.7402 68.7376 78.4293 68.4344 78.0114 68.2203C77.5934 68.0011 77.0634 67.8915 76.4212 67.8915H74.1888V80.8425H70.8784ZM89.9188 81.0719C88.7109 81.0719 87.6711 80.8272 86.7996 80.3379C85.9331 79.8436 85.2654 79.1453 84.7965 78.2432C84.3276 77.3359 84.0931 76.263 84.0931 75.0245C84.0931 73.8166 84.3276 72.7564 84.7965 71.8441C85.2654 70.9318 85.9255 70.2208 86.7766 69.7111C87.6329 69.2014 88.637 68.9466 89.7888 68.9466C90.5635 68.9466 91.2847 69.0715 91.9524 69.3212C92.6252 69.5658 93.2113 69.9354 93.7108 70.4298C94.2154 70.9241 94.6079 71.546 94.8882 72.2952C95.1685 73.0393 95.3087 73.9109 95.3087 74.9098V75.8043H85.3928V73.786H92.2429C92.2429 73.3171 92.141 72.9017 91.9371 72.5398C91.7333 72.178 91.4504 71.8951 91.0885 71.6912C90.7317 71.4822 90.3164 71.3778 89.8423 71.3778C89.348 71.3778 88.9096 71.4924 88.5274 71.7218C88.1502 71.9461 87.8546 72.2493 87.6405 72.6316C87.4265 73.0087 87.3169 73.4292 87.3118 73.893V75.812C87.3118 76.393 87.4188 76.8951 87.6329 77.3181C87.852 77.7411 88.1604 78.0673 88.558 78.2967C88.9555 78.526 89.427 78.6407 89.9723 78.6407C90.3342 78.6407 90.6655 78.5897 90.9662 78.4878C91.2669 78.3859 91.5243 78.233 91.7384 78.0291C91.9524 77.8252 92.1155 77.5755 92.2277 77.2799L95.2399 77.4786C95.087 78.2024 94.7735 78.8344 94.2995 79.3746C93.8306 79.9098 93.2241 80.3278 92.4799 80.6285C91.7409 80.9241 90.8872 81.0719 89.9188 81.0719ZM97.434 80.8425V69.0995H100.592V71.1484H100.714C100.928 70.4196 101.287 69.8691 101.792 69.497C102.296 69.1199 102.877 68.9313 103.535 68.9313C103.698 68.9313 103.874 68.9415 104.062 68.9619C104.251 68.9823 104.417 69.0103 104.559 69.046V71.9359C104.406 71.89 104.195 71.8492 103.925 71.8135C103.655 71.7779 103.408 71.76 103.183 71.76C102.704 71.76 102.276 71.8645 101.899 72.0735C101.527 72.2773 101.231 72.5628 101.012 72.9297C100.798 73.2967 100.691 73.7197 100.691 74.1988V80.8425H97.434ZM106.243 80.8425V69.0995H109.347V71.1713H109.485C109.729 70.4833 110.137 69.9405 110.708 69.5429C111.279 69.1454 111.962 68.9466 112.757 68.9466C113.562 68.9466 114.248 69.1479 114.814 69.5506C115.379 69.9481 115.756 70.4884 115.945 71.1713H116.067C116.307 70.4986 116.74 69.9608 117.367 69.5582C117.999 69.1505 118.746 68.9466 119.607 68.9466C120.703 68.9466 121.592 69.2957 122.275 69.994C122.963 70.6871 123.307 71.6708 123.307 72.945V80.8425H120.058V73.5872C120.058 72.9348 119.885 72.4455 119.538 72.1193C119.192 71.7931 118.758 71.6301 118.239 71.6301C117.647 71.6301 117.186 71.8186 116.855 72.1958C116.523 72.5679 116.358 73.0597 116.358 73.6713V80.8425H113.2V73.5184C113.2 72.9425 113.035 72.4838 112.703 72.1423C112.377 71.8008 111.947 71.6301 111.411 71.6301C111.05 71.6301 110.723 71.7218 110.433 71.9053C110.147 72.0837 109.921 72.336 109.752 72.6622C109.584 72.9833 109.5 73.3604 109.5 73.7936V80.8425H106.243ZM125.88 80.8425V69.0995H129.137V80.8425H125.88ZM127.516 67.5857C127.032 67.5857 126.616 67.4252 126.27 67.1041C125.928 66.7779 125.758 66.388 125.758 65.9344C125.758 65.4858 125.928 65.101 126.27 64.7799C126.616 64.4537 127.032 64.2906 127.516 64.2906C128 64.2906 128.413 64.4537 128.755 64.7799C129.101 65.101 129.274 65.4858 129.274 65.9344C129.274 66.388 129.101 66.7779 128.755 67.1041C128.413 67.4252 128 67.5857 127.516 67.5857ZM141.516 72.4481L138.535 72.6316C138.484 72.3767 138.374 72.1474 138.206 71.9435C138.038 71.7345 137.816 71.5689 137.541 71.4466C137.271 71.3191 136.947 71.2554 136.57 71.2554C136.065 71.2554 135.64 71.3625 135.293 71.5765C134.947 71.7855 134.773 72.0658 134.773 72.4175C134.773 72.6978 134.885 72.9348 135.11 73.1285C135.334 73.3222 135.719 73.4776 136.264 73.5949L138.389 74.023C139.531 74.2575 140.382 74.6346 140.943 75.1545C141.504 75.6744 141.784 76.3573 141.784 77.2034C141.784 77.973 141.557 78.6484 141.103 79.2294C140.655 79.8104 140.038 80.264 139.253 80.5902C138.474 80.9113 137.574 81.0719 136.555 81.0719C135 81.0719 133.762 80.7482 132.839 80.1009C131.922 79.4486 131.384 78.5617 131.226 77.4404L134.429 77.2722C134.526 77.7462 134.761 78.1081 135.133 78.3578C135.505 78.6025 135.981 78.7248 136.562 78.7248C137.133 78.7248 137.592 78.6152 137.938 78.3961C138.29 78.1718 138.468 77.8838 138.474 77.5322C138.468 77.2365 138.344 76.9944 138.099 76.8059C137.854 76.6122 137.477 76.4644 136.967 76.3624L134.934 75.9572C133.787 75.7279 132.933 75.3303 132.373 74.7646C131.817 74.1988 131.539 73.4776 131.539 72.601C131.539 71.8467 131.743 71.1968 132.151 70.6515C132.564 70.1061 133.142 69.6856 133.886 69.39C134.636 69.0944 135.512 68.9466 136.516 68.9466C138 68.9466 139.167 69.26 140.018 69.8869C140.874 70.5138 141.374 71.3676 141.516 72.4481ZM153.605 72.4481L150.624 72.6316C150.573 72.3767 150.463 72.1474 150.295 71.9435C150.127 71.7345 149.905 71.5689 149.63 71.4466C149.36 71.3191 149.036 71.2554 148.659 71.2554C148.154 71.2554 147.729 71.3625 147.382 71.5765C147.036 71.7855 146.862 72.0658 146.862 72.4175C146.862 72.6978 146.974 72.9348 147.199 73.1285C147.423 73.3222 147.808 73.4776 148.353 73.5949L150.478 74.023C151.62 74.2575 152.471 74.6346 153.032 75.1545C153.593 75.6744 153.873 76.3573 153.873 77.2034C153.873 77.973 153.646 78.6484 153.192 79.2294C152.744 79.8104 152.127 80.264 151.342 80.5902C150.563 80.9113 149.663 81.0719 148.644 81.0719C147.089 81.0719 145.851 80.7482 144.928 80.1009C144.011 79.4486 143.473 78.5617 143.315 77.4404L146.518 77.2722C146.615 77.7462 146.849 78.1081 147.222 78.3578C147.594 78.6025 148.07 78.7248 148.651 78.7248C149.222 78.7248 149.681 78.6152 150.027 78.3961C150.379 78.1718 150.557 77.8838 150.563 77.5322C150.557 77.2365 150.433 76.9944 150.188 76.8059C149.943 76.6122 149.566 76.4644 149.056 76.3624L147.023 75.9572C145.876 75.7279 145.022 75.3303 144.462 74.7646C143.906 74.1988 143.628 73.4776 143.628 72.601C143.628 71.8467 143.832 71.1968 144.24 70.6515C144.653 70.1061 145.231 69.6856 145.975 69.39C146.725 69.0944 147.601 68.9466 148.605 68.9466C150.089 68.9466 151.256 69.26 152.107 69.8869C152.963 70.5138 153.463 71.3676 153.605 72.4481ZM155.924 80.8425V69.0995H159.181V80.8425H155.924ZM157.56 67.5857C157.076 67.5857 156.66 67.4252 156.314 67.1041C155.972 66.7779 155.801 66.388 155.801 65.9344C155.801 65.4858 155.972 65.101 156.314 64.7799C156.66 64.4537 157.076 64.2906 157.56 64.2906C158.044 64.2906 158.457 64.4537 158.798 64.7799C159.145 65.101 159.318 65.4858 159.318 65.9344C159.318 66.388 159.145 66.7779 158.798 67.1041C158.457 67.4252 158.044 67.5857 157.56 67.5857ZM167.095 81.0719C165.908 81.0719 164.881 80.8196 164.014 80.315C163.153 79.8053 162.488 79.0969 162.019 78.1896C161.55 77.2773 161.316 76.2197 161.316 75.0169C161.316 73.8038 161.55 72.7437 162.019 71.8365C162.488 70.9241 163.153 70.2157 164.014 69.7111C164.881 69.2014 165.908 68.9466 167.095 68.9466C168.283 68.9466 169.307 69.2014 170.169 69.7111C171.035 70.2157 171.703 70.9241 172.172 71.8365C172.641 72.7437 172.875 73.8038 172.875 75.0169C172.875 76.2197 172.641 77.2773 172.172 78.1896C171.703 79.0969 171.035 79.8053 170.169 80.315C169.307 80.8196 168.283 81.0719 167.095 81.0719ZM167.111 78.549C167.651 78.549 168.102 78.3961 168.464 78.0903C168.826 77.7793 169.098 77.3563 169.282 76.8211C169.47 76.286 169.565 75.6769 169.565 74.9939C169.565 74.311 169.47 73.7019 169.282 73.1667C169.098 72.6316 168.826 72.2085 168.464 71.8976C168.102 71.5867 167.651 71.4313 167.111 71.4313C166.565 71.4313 166.107 71.5867 165.734 71.8976C165.367 72.2085 165.09 72.6316 164.901 73.1667C164.718 73.7019 164.626 74.311 164.626 74.9939C164.626 75.6769 164.718 76.286 164.901 76.8211C165.09 77.3563 165.367 77.7793 165.734 78.0903C166.107 78.3961 166.565 78.549 167.111 78.549ZM178.25 74.0536V80.8425H174.993V69.0995H178.097V71.1713H178.234C178.494 70.4884 178.93 69.9481 179.542 69.5506C180.153 69.1479 180.895 68.9466 181.766 68.9466C182.582 68.9466 183.293 69.125 183.899 69.4817C184.506 69.8385 184.977 70.3482 185.314 71.0108C185.65 71.6683 185.818 72.4532 185.818 73.3655V80.8425H182.562V73.9465C182.567 73.2279 182.383 72.6673 182.011 72.2646C181.639 71.8569 181.127 71.653 180.474 71.653C180.036 71.653 179.649 71.7473 179.312 71.9359C178.981 72.1244 178.721 72.3997 178.533 72.7615C178.349 73.1183 178.255 73.549 178.25 74.0536ZM196.625 65.1851V80.8425H193.368V65.1851H196.625ZM204.586 81.0719C203.378 81.0719 202.338 80.8272 201.466 80.3379C200.6 79.8436 199.932 79.1453 199.463 78.2432C198.994 77.3359 198.76 76.263 198.76 75.0245C198.76 73.8166 198.994 72.7564 199.463 71.8441C199.932 70.9318 200.592 70.2208 201.443 69.7111C202.3 69.2014 203.304 68.9466 204.456 68.9466C205.23 68.9466 205.951 69.0715 206.619 69.3212C207.292 69.5658 207.878 69.9354 208.378 70.4298C208.882 70.9241 209.275 71.546 209.555 72.2952C209.835 73.0393 209.975 73.9109 209.975 74.9098V75.8043H200.06V73.786H206.91C206.91 73.3171 206.808 72.9017 206.604 72.5398C206.4 72.178 206.117 71.8951 205.755 71.6912C205.398 71.4822 204.983 71.3778 204.509 71.3778C204.015 71.3778 203.576 71.4924 203.194 71.7218C202.817 71.9461 202.521 72.2493 202.307 72.6316C202.093 73.0087 201.984 73.4292 201.978 73.893V75.812C201.978 76.393 202.086 76.8951 202.3 77.3181C202.519 77.7411 202.827 78.0673 203.225 78.2967C203.622 78.526 204.094 78.6407 204.639 78.6407C205.001 78.6407 205.332 78.5897 205.633 78.4878C205.934 78.3859 206.191 78.233 206.405 78.0291C206.619 77.8252 206.782 77.5755 206.894 77.2799L209.907 77.4786C209.754 78.2024 209.44 78.8344 208.966 79.3746C208.497 79.9098 207.891 80.3278 207.147 80.6285C206.408 80.9241 205.554 81.0719 204.586 81.0719ZM221.871 72.4481L218.89 72.6316C218.839 72.3767 218.729 72.1474 218.561 71.9435C218.393 71.7345 218.171 71.5689 217.896 71.4466C217.626 71.3191 217.302 71.2554 216.925 71.2554C216.42 71.2554 215.995 71.3625 215.648 71.5765C215.302 71.7855 215.128 72.0658 215.128 72.4175C215.128 72.6978 215.24 72.9348 215.465 73.1285C215.689 73.3222 216.074 73.4776 216.619 73.5949L218.744 74.023C219.886 74.2575 220.737 74.6346 221.298 75.1545C221.859 75.6744 222.139 76.3573 222.139 77.2034C222.139 77.973 221.912 78.6484 221.458 79.2294C221.01 79.8104 220.393 80.264 219.608 80.5902C218.829 80.9113 217.929 81.0719 216.91 81.0719C215.355 81.0719 214.117 80.7482 213.194 80.1009C212.277 79.4486 211.739 78.5617 211.581 77.4404L214.784 77.2722C214.881 77.7462 215.116 78.1081 215.488 78.3578C215.86 78.6025 216.336 78.7248 216.917 78.7248C217.488 78.7248 217.947 78.6152 218.293 78.3961C218.645 78.1718 218.823 77.8838 218.829 77.5322C218.823 77.2365 218.699 76.9944 218.454 76.8059C218.209 76.6122 217.832 76.4644 217.322 76.3624L215.289 75.9572C214.142 75.7279 213.288 75.3303 212.728 74.7646C212.172 74.1988 211.894 73.4776 211.894 72.601C211.894 71.8467 212.098 71.1968 212.506 70.6515C212.919 70.1061 213.497 69.6856 214.241 69.39C214.991 69.0944 215.867 68.9466 216.871 68.9466C218.355 68.9466 219.522 69.26 220.373 69.8869C221.229 70.5138 221.729 71.3676 221.871 72.4481ZM233.96 72.4481L230.979 72.6316C230.928 72.3767 230.818 72.1474 230.65 71.9435C230.482 71.7345 230.26 71.5689 229.985 71.4466C229.715 71.3191 229.391 71.2554 229.014 71.2554C228.509 71.2554 228.084 71.3625 227.737 71.5765C227.391 71.7855 227.217 72.0658 227.217 72.4175C227.217 72.6978 227.329 72.9348 227.554 73.1285C227.778 73.3222 228.163 73.4776 228.708 73.5949L230.833 74.023C231.975 74.2575 232.826 74.6346 233.387 75.1545C233.948 75.6744 234.228 76.3573 234.228 77.2034C234.228 77.973 234.001 78.6484 233.547 79.2294C233.099 79.8104 232.482 80.264 231.697 80.5902C230.918 80.9113 230.018 81.0719 228.999 81.0719C227.444 81.0719 226.206 80.7482 225.283 80.1009C224.366 79.4486 223.828 78.5617 223.67 77.4404L226.873 77.2722C226.97 77.7462 227.204 78.1081 227.577 78.3578C227.949 78.6025 228.425 78.7248 229.006 78.7248C229.577 78.7248 230.036 78.6152 230.382 78.3961C230.734 78.1718 230.912 77.8838 230.918 77.5322C230.912 77.2365 230.788 76.9944 230.543 76.8059C230.298 76.6122 229.921 76.4644 229.411 76.3624L227.378 75.9572C226.231 75.7279 225.377 75.3303 224.817 74.7646C224.261 74.1988 223.983 73.4776 223.983 72.601C223.983 71.8467 224.187 71.1968 224.595 70.6515C225.008 70.1061 225.586 69.6856 226.33 69.39C227.08 69.0944 227.956 68.9466 228.96 68.9466C230.444 68.9466 231.611 69.26 232.462 69.8869C233.318 70.5138 233.818 71.3676 233.96 72.4481Z" fill="white"/>
<path d="M145.945 17.1213L130.807 23.8491V33.9408C130.807 43.2756 137.266 52.0049 145.945 54.1242C154.624 52.0049 161.082 43.2756 161.082 33.9408V23.8491L145.945 17.1213ZM145.945 23.8491C147.283 23.8491 148.567 24.3807 149.513 25.327C150.459 26.2733 150.991 27.5567 150.991 28.895C150.991 30.2332 150.459 31.5166 149.513 32.4629C148.567 33.4092 147.283 33.9408 145.945 33.9408C144.607 33.9408 143.323 33.4092 142.377 32.4629C141.431 31.5166 140.899 30.2332 140.899 28.895C140.899 27.5567 141.431 26.2733 142.377 25.327C143.323 24.3807 144.607 23.8491 145.945 23.8491ZM154.573 44.0325C152.535 47.1519 149.49 49.4789 145.945 50.6257C142.4 49.4789 139.354 47.1519 137.317 44.0325C136.745 43.1915 136.257 42.3505 135.853 41.4591C135.853 38.6839 140.411 36.4133 145.945 36.4133C151.478 36.4133 156.037 38.6334 156.037 41.4591C155.633 42.3505 155.145 43.1915 154.573 44.0325Z" fill="#7DADF4"/>
<defs>
<filter id="filter0_i_141_1131" x="0.624756" y="0.638184" width="302.75" height="189.724" filterUnits="userSpaceOnUse" color-interpolation-filters="sRGB">
<feFlood flood-opacity="0" result="BackgroundImageFix"/>
<feBlend mode="normal" in="SourceGraphic" in2="BackgroundImageFix" result="shape"/>
<feColorMatrix in="SourceAlpha" type="matrix" values="0 0 0 0 0 0 0 0 0 0 0 0 0 0 0 0 0 0 127 0" result="hardAlpha"/>
<feOffset/>
<feGaussianBlur stdDeviation="4.03667"/>
<feComposite in2="hardAlpha" operator="arithmetic" k2="-1" k3="1"/>
<feColorMatrix type="matrix" values="0 0 0 0 0 0 0 0 0 0.4 0 0 0 0 1 0 0 0 0.75 0"/>
<feBlend mode="normal" in2="shape" result="effect1_innerShadow_141_1131"/>
</filter>
<linearGradient id="paint0_linear_141_1131" x1="152" y1="0.638184" x2="152" y2="190.362" gradientUnits="userSpaceOnUse">
<stop stop-color="#03315C"/>
<stop offset="1" stop-color="#010F2D"/>
</linearGradient>
</defs>
</svg>
