<svg width="32" height="38" viewBox="0 0 32 38" fill="none" xmlns="http://www.w3.org/2000/svg">
<path d="M15.9449 0.121338L0.807373 6.84912V16.9408C0.807373 26.2756 7.26605 35.0049 15.9449 37.1242C24.6237 35.0049 31.0824 26.2756 31.0824 16.9408V6.84912L15.9449 0.121338ZM15.9449 6.84912C17.2831 6.84912 18.5666 7.38074 19.5128 8.32701C20.4591 9.27329 20.9907 10.5567 20.9907 11.895C20.9907 13.2332 20.4591 14.5166 19.5128 15.4629C18.5666 16.4092 17.2831 16.9408 15.9449 16.9408C14.6067 16.9408 13.3232 16.4092 12.3769 15.4629C11.4307 14.5166 10.8991 13.2332 10.8991 11.895C10.8991 10.5567 11.4307 9.27329 12.3769 8.32701C13.3232 7.38074 14.6067 6.84912 15.9449 6.84912ZM24.5733 27.0325C22.5354 30.1519 19.4901 32.4789 15.9449 33.6257C12.3996 32.4789 9.35439 30.1519 7.3165 27.0325C6.74464 26.1915 6.25688 25.3505 5.85321 24.4591C5.85321 21.6839 10.4113 19.4133 15.9449 19.4133C21.4785 19.4133 26.0366 21.6334 26.0366 24.4591C25.6329 25.3505 25.1451 26.1915 24.5733 27.0325Z" fill="#7DADF4"/>
</svg>
