<svg width="41" height="41" viewBox="0 0 41 41" fill="none" xmlns="http://www.w3.org/2000/svg">
<path d="M22.8235 32.7328H24.8419C25.3771 32.7328 25.8905 32.9455 26.269 33.324C26.6475 33.7025 26.8602 34.2159 26.8602 34.7512H40.9885V38.7878H26.8602C26.8602 39.3231 26.6475 39.8365 26.269 40.215C25.8905 40.5935 25.3771 40.8062 24.8419 40.8062H16.7685C16.2332 40.8062 15.7198 40.5935 15.3413 40.215C14.9628 39.8365 14.7502 39.3231 14.7502 38.7878H0.621826V34.7512H14.7502C14.7502 34.2159 14.9628 33.7025 15.3413 33.324C15.7198 32.9455 16.2332 32.7328 16.7685 32.7328H18.7868V29.3824C12.8731 26.9402 8.69517 20.6228 8.69517 13.9018V5.82841L20.8052 0.439453L32.9152 5.82841V13.9018C32.9152 20.6228 28.7372 26.9402 22.8235 29.3824V32.7328ZM20.8052 4.47612L12.7318 7.88711V14.5678H20.8052V4.47612ZM20.8052 14.5678V26.6778C24.6602 25.7292 28.8785 20.7439 28.8785 16.5861V14.5678H20.8052Z" fill="#7DADF4"/>
</svg>
