<svg width="28" height="24" viewBox="0 0 28 24" fill="none" xmlns="http://www.w3.org/2000/svg">
<path d="M25.9955 5.60664C25.7006 5.84288 25.5288 6.20395 25.5301 6.58178C25.5303 6.64052 25.5303 6.69937 25.5303 6.75833C25.5303 14.7648 19.4356 23.9986 8.29109 24C8.28973 24 8.2886 23.9989 8.2886 23.9975C8.2886 23.9962 8.28749 23.9951 8.28613 23.9951C5.47752 23.9987 2.71861 23.3128 0.248343 22.0072C-0.062978 21.8427 0.0902168 21.3652 0.442344 21.366C1.90556 21.3672 3.34621 21.1046 4.69865 20.6009C5.8806 20.1607 5.47549 18.3226 4.46325 17.5702C3.66063 16.9736 3.0213 16.1904 2.59737 15.2935C2.44538 14.972 2.7367 14.6364 3.09174 14.6575C3.584 14.6868 3.63363 14.0072 3.20683 13.7602C1.37638 12.7008 0.181934 10.7255 0.181934 8.51491C0.181934 8.48048 0.218972 8.45869 0.249264 8.47506C0.504782 8.61314 0.769227 8.73216 1.04043 8.83154C1.56432 9.02351 1.86277 8.32574 1.51947 7.88589C0.577173 6.67859 0.131219 5.15849 0.256197 3.64785C0.363223 2.35422 1.94156 2.18247 2.90697 3.05018C4.02704 4.05691 5.27741 4.91477 6.6276 5.59921C7.83454 6.21103 9.1061 6.67659 10.4153 6.98871C11.9589 7.35675 13.1885 5.82603 13.6484 4.30718C13.956 3.29117 14.525 2.37373 15.2985 1.64663C17.5627 -0.4818 21.03 -0.53442 23.3513 1.41671C23.6927 1.70369 24.139 1.86186 24.5708 1.74984C25.1654 1.59554 25.7472 1.39648 26.311 1.15457C26.8177 0.937207 27.3438 1.40051 27.0454 1.86405C26.9171 2.06341 26.7772 2.25499 26.6267 2.43782C26.3209 2.80913 26.6318 3.50663 27.0927 3.36907C27.521 3.24123 27.896 3.72151 27.6034 4.05939C27.1158 4.62227 26.5777 5.14022 25.9955 5.60664Z" fill="#142237"/>
</svg>
