<svg width="12" height="10" viewBox="0 0 12 10" fill="none" xmlns="http://www.w3.org/2000/svg">
<path d="M11.1418 2.52439C11.0251 2.61782 10.9572 2.76061 10.9577 2.91003C10.9578 2.93326 10.9578 2.95653 10.9578 2.97985C10.9578 6.14617 8.5475 9.79788 4.14017 9.79842C4.13964 9.79842 4.13919 9.79799 4.13919 9.79745C4.13919 9.79691 4.13875 9.79648 4.13821 9.79648C3.02749 9.79792 1.93642 9.52667 0.959503 9.01035C0.836385 8.94528 0.896969 8.75644 1.03623 8.75677C1.61489 8.75723 2.18462 8.65337 2.71947 8.45418C3.1869 8.2801 3.02669 7.55318 2.62638 7.25562C2.30896 7.01968 2.05613 6.70997 1.88848 6.35526C1.82837 6.2281 1.94358 6.0954 2.08398 6.10376C2.27866 6.11534 2.29828 5.84658 2.1295 5.74889C1.40561 5.32991 0.933241 4.54877 0.933241 3.67452C0.933241 3.66091 0.947888 3.65229 0.959868 3.65876C1.06092 3.71337 1.1655 3.76044 1.27275 3.79974C1.47993 3.87566 1.59796 3.59971 1.4622 3.42577C1.08955 2.94832 0.913184 2.34716 0.96261 1.74975C1.00494 1.23815 1.62912 1.17023 2.01091 1.51339C2.45387 1.91152 2.94835 2.25078 3.48231 2.52145C3.95962 2.76341 4.46249 2.94752 4.98022 3.07096C5.5907 3.21651 6.07697 2.61115 6.25884 2.01049C6.3805 1.60869 6.60551 1.24587 6.91139 0.958322C7.80682 0.116591 9.17803 0.0957814 10.096 0.867397C10.2311 0.98089 10.4076 1.04344 10.5783 0.99914C10.8135 0.938116 11.0435 0.859397 11.2665 0.763729C11.4669 0.677767 11.675 0.860989 11.557 1.04431C11.5062 1.12315 11.4509 1.19891 11.3914 1.27121C11.2704 1.41806 11.3934 1.6939 11.5756 1.6395C11.745 1.58894 11.8934 1.77888 11.7776 1.9125C11.5848 2.1351 11.372 2.33993 11.1418 2.52439Z" fill="white"/>
</svg>
