<svg width="31" height="25" viewBox="0 0 31 25" fill="none" xmlns="http://www.w3.org/2000/svg">
<path d="M26.0509 5.93986C26.1537 5.93986 26.2523 5.89902 26.325 5.82633C26.3977 5.75363 26.4386 5.65504 26.4386 5.55223V4.26142C26.4381 3.92476 26.3042 3.602 26.0662 3.36394C25.8281 3.12588 25.5054 2.99195 25.1687 2.99154H23.0856L22.6103 1.5891C22.578 1.49372 22.5099 1.41466 22.4203 1.36864C22.3307 1.32263 22.2268 1.31328 22.1304 1.34256L10.8481 4.77232C10.7547 4.80639 10.6779 4.87497 10.6336 4.96393C10.5892 5.05289 10.5807 5.15547 10.6097 5.25055C10.6387 5.34563 10.7031 5.42596 10.7895 5.47502C10.876 5.52407 10.9779 5.53811 11.0744 5.51424L21.9971 2.19302L23.0383 5.26694C23.0713 5.36429 23.1416 5.44455 23.2338 5.49006C23.3259 5.53557 23.4324 5.54259 23.5298 5.50959C23.6271 5.47659 23.7074 5.40627 23.7529 5.31409C23.7984 5.22191 23.8054 5.11543 23.7724 5.01808L23.3484 3.76603H25.1695C25.4423 3.76603 25.6641 3.98775 25.6641 4.26065V5.55223C25.6633 5.7662 25.837 5.93986 26.0509 5.93986Z" fill="#FFDB21"/>
<path d="M29.1457 11.7543C29.0429 11.7543 28.9443 11.7951 28.8716 11.8678C28.7989 11.9405 28.758 12.0391 28.758 12.1419C28.758 12.2447 28.7989 12.3433 28.8716 12.416C28.9443 12.4887 29.0429 12.5296 29.1457 12.5296C29.4178 12.5296 29.5333 12.6451 29.5333 12.9172V17.5688C29.5333 17.8409 29.4178 17.9564 29.1457 17.9564H22.9436C22.6715 17.9564 22.556 17.8409 22.556 17.5688V13.6925C22.556 13.4203 22.6715 13.3048 22.9436 13.3048H27.5951C27.698 13.3048 27.7966 13.264 27.8692 13.1913C27.9419 13.1186 27.9828 13.02 27.9828 12.9172V8.26562C27.9828 7.55936 27.5262 7.10273 26.8199 7.10273H3.17442C2.21852 7.10273 1.62389 6.5081 1.62389 5.55221C1.62389 4.59631 2.21852 4.00168 3.17442 4.00168H7.10964L4.7637 4.77539C4.71361 4.78984 4.66694 4.81425 4.62649 4.84715C4.58605 4.88005 4.55265 4.92077 4.52831 4.96688C4.50397 5.01299 4.48918 5.06354 4.48483 5.11549C4.48048 5.16745 4.48665 5.21975 4.50299 5.26926C4.51932 5.31878 4.54547 5.36449 4.57988 5.40366C4.61428 5.44283 4.65624 5.47466 4.70324 5.49724C4.75023 5.51982 4.8013 5.53269 4.85338 5.53507C4.90547 5.53746 4.9575 5.52931 5.00636 5.51112L19.0533 0.880482C19.1017 0.864498 19.1464 0.839145 19.185 0.805872C19.2235 0.772598 19.2552 0.732055 19.2781 0.686558C19.301 0.64106 19.3147 0.591499 19.3184 0.540705C19.3221 0.48991 19.3158 0.438876 19.2999 0.390517C19.2839 0.342157 19.2585 0.29742 19.2252 0.258859C19.192 0.220298 19.1514 0.188668 19.1059 0.165775C19.0604 0.142882 19.0109 0.129175 18.9601 0.125436C18.9093 0.121697 18.8582 0.128 18.8099 0.143984L9.42922 3.23728C9.41139 3.23418 9.39511 3.22642 9.37651 3.22642H3.17442C1.7836 3.22642 0.848633 4.16139 0.848633 5.55221V22.608C0.848633 23.9988 1.7836 24.9337 3.17442 24.9337H26.8199C27.5262 24.9337 27.9828 24.4771 27.9828 23.7708V19.8945C27.9828 19.7917 27.9419 19.6931 27.8692 19.6204C27.7966 19.5478 27.698 19.5069 27.5951 19.5069C27.4923 19.5069 27.3937 19.5478 27.3211 19.6204C27.2484 19.6931 27.2075 19.7917 27.2075 19.8945V23.7708C27.2075 24.043 27.092 24.1585 26.8199 24.1585H3.17442C2.21852 24.1585 1.62389 23.5639 1.62389 22.608V7.34461C2.0216 7.6803 2.54801 7.87799 3.17442 7.87799H26.8199C27.092 7.87799 27.2075 7.99351 27.2075 8.26562V12.5296H22.9436C22.2373 12.5296 21.7807 12.9862 21.7807 13.6925V17.5688C21.7807 18.275 22.2373 18.7316 22.9436 18.7316H29.1457C29.8519 18.7316 30.3086 18.275 30.3086 17.5688V12.9172C30.3086 12.2109 29.8519 11.7543 29.1457 11.7543Z" fill="#FFDB21"/>
<path d="M25.6571 16.4059C26.0853 16.4059 26.4324 16.0588 26.4324 15.6306C26.4324 15.2024 26.0853 14.8553 25.6571 14.8553C25.2289 14.8553 24.8818 15.2024 24.8818 15.6306C24.8818 16.0588 25.2289 16.4059 25.6571 16.4059Z" fill="#051834"/>
</svg>
