<svg width="232" height="269" viewBox="0 0 232 269" fill="none" xmlns="http://www.w3.org/2000/svg">
<g filter="url(#filter0_d_141_987)">
<path d="M6.00895 195.242L116.502 260.161L225.991 193.233L226.995 65.4045L141.32 16.0717L89.1046 16.0717L6.00894 65.4045L6.00895 195.242Z" fill="#FBBE25"/>
<g filter="url(#filter1_di_141_987)">
<path d="M228 68.9705C228 66.4627 226.664 64.1448 224.495 62.8872L119.526 2.04385C117.345 0.779782 114.655 0.779783 112.474 2.04385L7.50528 62.8872C5.33563 64.1448 4 66.4627 4 68.9705V190.705C4 193.213 5.33563 195.531 7.50528 196.789L89.2077 244.146C90.2791 244.767 91.4955 245.094 92.7339 245.094H138.915C140.149 245.094 141.362 244.769 142.43 244.152L224.484 196.787C226.66 195.531 228 193.209 228 190.697V68.9705Z" fill="url(#paint0_linear_141_987)"/>
</g>
<path d="M19.9217 158.16C18.9937 158.16 18.215 158.021 17.5857 157.744C16.9564 157.456 16.471 157.088 16.1297 156.64C15.799 156.181 15.623 155.696 15.6017 155.184C15.6017 155.099 15.6337 155.024 15.6977 154.96C15.7724 154.885 15.8577 154.848 15.9537 154.848H16.7697C16.8977 154.848 16.9937 154.88 17.0577 154.944C17.1217 155.008 17.1644 155.083 17.1857 155.168C17.239 155.424 17.367 155.68 17.5697 155.936C17.783 156.181 18.0764 156.389 18.4497 156.56C18.8337 156.72 19.3244 156.8 19.9217 156.8C20.839 156.8 21.511 156.64 21.9377 156.32C22.375 155.989 22.5937 155.552 22.5937 155.008C22.5937 154.635 22.4764 154.336 22.2417 154.112C22.0177 153.877 21.671 153.669 21.2017 153.488C20.7324 153.307 20.1244 153.109 19.3777 152.896C18.599 152.672 17.9537 152.427 17.4417 152.16C16.9297 151.893 16.5457 151.563 16.2897 151.168C16.0444 150.773 15.9217 150.272 15.9217 149.664C15.9217 149.088 16.0764 148.576 16.3857 148.128C16.695 147.669 17.1377 147.307 17.7137 147.04C18.3004 146.773 19.0097 146.64 19.8417 146.64C20.503 146.64 21.079 146.731 21.5697 146.912C22.071 147.083 22.487 147.317 22.8177 147.616C23.1484 147.904 23.399 148.219 23.5697 148.56C23.7404 148.891 23.831 149.216 23.8417 149.536C23.8417 149.611 23.815 149.685 23.7617 149.76C23.7084 149.824 23.623 149.856 23.5057 149.856H22.6577C22.583 149.856 22.503 149.835 22.4177 149.792C22.343 149.749 22.2844 149.669 22.2417 149.552C22.1777 149.115 21.9324 148.747 21.5057 148.448C21.079 148.149 20.5244 148 19.8417 148C19.1484 148 18.583 148.133 18.1457 148.4C17.719 148.667 17.5057 149.083 17.5057 149.648C17.5057 150.011 17.607 150.315 17.8097 150.56C18.0124 150.795 18.3324 151.003 18.7697 151.184C19.207 151.365 19.7777 151.557 20.4817 151.76C21.335 151.995 22.0337 152.245 22.5777 152.512C23.1217 152.768 23.5217 153.093 23.7777 153.488C24.0444 153.872 24.1777 154.368 24.1777 154.976C24.1777 155.648 24.0017 156.224 23.6497 156.704C23.2977 157.173 22.8017 157.536 22.1617 157.792C21.5324 158.037 20.7857 158.16 19.9217 158.16ZM29.3148 158C28.7175 158 28.2321 157.888 27.8588 157.664C27.4855 157.429 27.2135 157.104 27.0428 156.688C26.8721 156.261 26.7868 155.76 26.7868 155.184V150.96H25.5388C25.4321 150.96 25.3415 150.928 25.2668 150.864C25.2028 150.789 25.1708 150.699 25.1708 150.592V150.048C25.1708 149.941 25.2028 149.856 25.2668 149.792C25.3415 149.717 25.4321 149.68 25.5388 149.68H26.7868V147.008C26.7868 146.901 26.8188 146.816 26.8828 146.752C26.9575 146.677 27.0481 146.64 27.1548 146.64H27.9068C28.0135 146.64 28.0988 146.677 28.1628 146.752C28.2375 146.816 28.2748 146.901 28.2748 147.008V149.68H30.2588C30.3655 149.68 30.4508 149.717 30.5148 149.792C30.5895 149.856 30.6268 149.941 30.6268 150.048V150.592C30.6268 150.699 30.5895 150.789 30.5148 150.864C30.4508 150.928 30.3655 150.96 30.2588 150.96H28.2748V155.072C28.2748 155.573 28.3601 155.968 28.5308 156.256C28.7015 156.544 29.0055 156.688 29.4428 156.688H30.4188C30.5255 156.688 30.6108 156.725 30.6748 156.8C30.7495 156.864 30.7868 156.949 30.7868 157.056V157.632C30.7868 157.739 30.7495 157.829 30.6748 157.904C30.6108 157.968 30.5255 158 30.4188 158H29.3148ZM34.6368 158.16C34.1035 158.16 33.6181 158.053 33.1808 157.84C32.7435 157.627 32.3915 157.339 32.1248 156.976C31.8581 156.613 31.7248 156.203 31.7248 155.744C31.7248 155.008 32.0235 154.421 32.6208 153.984C33.2181 153.547 33.9968 153.259 34.9568 153.12L37.3408 152.784V152.32C37.3408 151.808 37.1915 151.408 36.8928 151.12C36.6048 150.832 36.1301 150.688 35.4688 150.688C34.9888 150.688 34.5995 150.784 34.3008 150.976C34.0128 151.168 33.8101 151.413 33.6928 151.712C33.6288 151.872 33.5168 151.952 33.3568 151.952H32.6368C32.5195 151.952 32.4288 151.92 32.3648 151.856C32.3115 151.781 32.2848 151.696 32.2848 151.6C32.2848 151.44 32.3435 151.243 32.4608 151.008C32.5888 150.773 32.7808 150.544 33.0368 150.32C33.2928 150.096 33.6181 149.909 34.0128 149.76C34.4181 149.6 34.9088 149.52 35.4848 149.52C36.1248 149.52 36.6635 149.605 37.1008 149.776C37.5381 149.936 37.8795 150.155 38.1248 150.432C38.3808 150.709 38.5621 151.024 38.6688 151.376C38.7861 151.728 38.8448 152.085 38.8448 152.448V157.632C38.8448 157.739 38.8075 157.829 38.7328 157.904C38.6688 157.968 38.5835 158 38.4768 158H37.7408C37.6235 158 37.5328 157.968 37.4688 157.904C37.4048 157.829 37.3728 157.739 37.3728 157.632V156.944C37.2341 157.136 37.0475 157.328 36.8128 157.52C36.5781 157.701 36.2848 157.856 35.9328 157.984C35.5808 158.101 35.1488 158.16 34.6368 158.16ZM34.9728 156.96C35.4101 156.96 35.8101 156.869 36.1728 156.688C36.5355 156.496 36.8181 156.203 37.0208 155.808C37.2341 155.413 37.3408 154.917 37.3408 154.32V153.872L35.4848 154.144C34.7275 154.251 34.1568 154.432 33.7728 154.688C33.3888 154.933 33.1968 155.248 33.1968 155.632C33.1968 155.931 33.2821 156.181 33.4528 156.384C33.6341 156.576 33.8581 156.72 34.1248 156.816C34.4021 156.912 34.6848 156.96 34.9728 156.96ZM41.5289 158C41.4223 158 41.3316 157.968 41.2569 157.904C41.1929 157.829 41.1609 157.739 41.1609 157.632V147.008C41.1609 146.901 41.1929 146.816 41.2569 146.752C41.3316 146.677 41.4223 146.64 41.5289 146.64H42.2809C42.3876 146.64 42.4729 146.677 42.5369 146.752C42.6116 146.816 42.6489 146.901 42.6489 147.008V152.576L45.8009 149.952C45.9289 149.845 46.0249 149.776 46.0889 149.744C46.1636 149.701 46.2809 149.68 46.4409 149.68H47.2889C47.3849 149.68 47.4649 149.712 47.5289 149.776C47.5929 149.84 47.6249 149.92 47.6249 150.016C47.6249 150.059 47.6089 150.107 47.5769 150.16C47.5556 150.213 47.5076 150.267 47.4329 150.32L43.7369 153.392L47.8329 157.376C47.9609 157.483 48.0249 157.579 48.0249 157.664C48.0249 157.76 47.9929 157.84 47.9289 157.904C47.8649 157.968 47.7849 158 47.6889 158H46.8569C46.6969 158 46.5796 157.984 46.5049 157.952C46.4303 157.909 46.3343 157.835 46.2169 157.728L42.6489 154.32V157.632C42.6489 157.739 42.6116 157.829 42.5369 157.904C42.4729 157.968 42.3876 158 42.2809 158H41.5289ZM49.7629 158C49.6563 158 49.5656 157.968 49.4909 157.904C49.4269 157.829 49.3949 157.739 49.3949 157.632V150.048C49.3949 149.941 49.4269 149.856 49.4909 149.792C49.5656 149.717 49.6563 149.68 49.7629 149.68H50.5309C50.6376 149.68 50.7229 149.717 50.7869 149.792C50.8509 149.856 50.8829 149.941 50.8829 150.048V157.632C50.8829 157.739 50.8509 157.829 50.7869 157.904C50.7229 157.968 50.6376 158 50.5309 158H49.7629ZM49.6349 148.128C49.5283 148.128 49.4376 148.096 49.3629 148.032C49.2989 147.957 49.2669 147.867 49.2669 147.76V146.896C49.2669 146.789 49.2989 146.704 49.3629 146.64C49.4376 146.565 49.5283 146.528 49.6349 146.528H50.6429C50.7496 146.528 50.8349 146.565 50.8989 146.64C50.9736 146.704 51.0109 146.789 51.0109 146.896V147.76C51.0109 147.867 50.9736 147.957 50.8989 148.032C50.8349 148.096 50.7496 148.128 50.6429 148.128H49.6349ZM53.7942 158C53.6875 158 53.5969 157.968 53.5222 157.904C53.4582 157.829 53.4262 157.739 53.4262 157.632V150.048C53.4262 149.941 53.4582 149.856 53.5222 149.792C53.5969 149.717 53.6875 149.68 53.7942 149.68H54.5462C54.6529 149.68 54.7382 149.717 54.8022 149.792C54.8769 149.856 54.9142 149.941 54.9142 150.048V150.752C55.1915 150.389 55.5382 150.096 55.9542 149.872C56.3809 149.637 56.9249 149.52 57.5862 149.52C58.2795 149.52 58.8662 149.675 59.3462 149.984C59.8369 150.283 60.2049 150.704 60.4502 151.248C60.6955 151.781 60.8182 152.405 60.8182 153.12V157.632C60.8182 157.739 60.7862 157.829 60.7222 157.904C60.6582 157.968 60.5729 158 60.4662 158H59.6662C59.5595 158 59.4689 157.968 59.3942 157.904C59.3302 157.829 59.2982 157.739 59.2982 157.632V153.2C59.2982 152.453 59.1169 151.872 58.7542 151.456C58.3915 151.029 57.8582 150.816 57.1542 150.816C56.4929 150.816 55.9595 151.029 55.5542 151.456C55.1595 151.872 54.9622 152.453 54.9622 153.2V157.632C54.9622 157.739 54.9249 157.829 54.8502 157.904C54.7862 157.968 54.7009 158 54.5942 158H53.7942ZM66.5373 161.52C65.812 161.52 65.2146 161.424 64.7453 161.232C64.2866 161.04 63.924 160.805 63.6573 160.528C63.4013 160.261 63.2146 159.989 63.0973 159.712C62.9906 159.445 62.932 159.232 62.9213 159.072C62.9106 158.965 62.9426 158.875 63.0173 158.8C63.1026 158.725 63.1933 158.688 63.2893 158.688H64.0573C64.1533 158.688 64.2333 158.709 64.2973 158.752C64.3613 158.795 64.4146 158.885 64.4573 159.024C64.5213 159.184 64.6173 159.36 64.7453 159.552C64.8733 159.755 65.0706 159.925 65.3373 160.064C65.604 160.213 65.9773 160.288 66.4573 160.288C66.9586 160.288 67.38 160.219 67.7213 160.08C68.0626 159.952 68.3186 159.717 68.4893 159.376C68.6706 159.045 68.7613 158.587 68.7613 158V156.912C68.5053 157.243 68.1693 157.52 67.7533 157.744C67.3373 157.957 66.8146 158.064 66.1853 158.064C65.588 158.064 65.076 157.963 64.6493 157.76C64.2226 157.547 63.8706 157.264 63.5933 156.912C63.3266 156.549 63.124 156.139 62.9853 155.68C62.8573 155.221 62.7826 154.741 62.7613 154.24C62.7506 153.941 62.7506 153.648 62.7613 153.36C62.7826 152.859 62.8573 152.379 62.9853 151.92C63.124 151.461 63.3266 151.051 63.5933 150.688C63.8706 150.325 64.2226 150.043 64.6493 149.84C65.076 149.627 65.588 149.52 66.1853 149.52C66.8253 149.52 67.3533 149.643 67.7693 149.888C68.196 150.123 68.5426 150.411 68.8093 150.752V150.064C68.8093 149.957 68.8413 149.867 68.9053 149.792C68.98 149.717 69.0706 149.68 69.1773 149.68H69.9133C70.02 149.68 70.1106 149.717 70.1853 149.792C70.26 149.867 70.2973 149.957 70.2973 150.064V157.824C70.2973 158.539 70.1746 159.173 69.9293 159.728C69.6946 160.283 69.3 160.72 68.7453 161.04C68.2013 161.36 67.4653 161.52 66.5373 161.52ZM66.5053 156.784C67.0386 156.784 67.4653 156.661 67.7853 156.416C68.116 156.171 68.356 155.861 68.5053 155.488C68.6653 155.115 68.7506 154.736 68.7613 154.352C68.772 154.203 68.7773 154.021 68.7773 153.808C68.7773 153.584 68.772 153.397 68.7613 153.248C68.7506 152.864 68.6653 152.485 68.5053 152.112C68.356 151.739 68.116 151.429 67.7853 151.184C67.4653 150.939 67.0386 150.816 66.5053 150.816C65.972 150.816 65.5453 150.939 65.2253 151.184C64.9053 151.419 64.676 151.733 64.5373 152.128C64.3986 152.512 64.3186 152.928 64.2973 153.376C64.2866 153.653 64.2866 153.936 64.2973 154.224C64.3186 154.672 64.3986 155.093 64.5373 155.488C64.676 155.872 64.9053 156.187 65.2253 156.432C65.5453 156.667 65.972 156.784 66.5053 156.784ZM80.0541 159.6C79.9367 159.6 79.8461 159.563 79.7821 159.488C79.7181 159.424 79.6861 159.339 79.6861 159.232V158.112C78.9074 158.048 78.2514 157.872 77.7181 157.584C77.1847 157.285 76.7794 156.928 76.5021 156.512C76.2247 156.096 76.0754 155.653 76.0541 155.184C76.0541 155.099 76.0861 155.024 76.1501 154.96C76.2247 154.885 76.3101 154.848 76.4061 154.848H77.2221C77.3501 154.848 77.4461 154.88 77.5101 154.944C77.5741 155.008 77.6167 155.083 77.6381 155.168C77.7021 155.424 77.8354 155.68 78.0381 155.936C78.2407 156.181 78.5287 156.389 78.9021 156.56C79.2861 156.72 79.7767 156.8 80.3741 156.8C81.2914 156.8 81.9634 156.64 82.3901 156.32C82.8274 155.989 83.0461 155.552 83.0461 155.008C83.0461 154.635 82.9287 154.336 82.6941 154.112C82.4701 153.877 82.1234 153.669 81.6541 153.488C81.1847 153.307 80.5767 153.109 79.8301 152.896C79.0514 152.672 78.4061 152.427 77.8941 152.16C77.3821 151.893 76.9981 151.563 76.7421 151.168C76.4967 150.773 76.3741 150.272 76.3741 149.664C76.3741 148.885 76.6621 148.219 77.2381 147.664C77.8141 147.099 78.6301 146.768 79.6861 146.672V145.568C79.6861 145.461 79.7181 145.376 79.7821 145.312C79.8461 145.237 79.9367 145.2 80.0541 145.2H80.6621C80.7687 145.2 80.8541 145.237 80.9181 145.312C80.9927 145.376 81.0301 145.461 81.0301 145.568V146.688C81.7447 146.773 82.3421 146.971 82.8221 147.28C83.3021 147.589 83.6647 147.947 83.9101 148.352C84.1554 148.757 84.2834 149.152 84.2941 149.536C84.2941 149.611 84.2674 149.685 84.2141 149.76C84.1607 149.824 84.0754 149.856 83.9581 149.856H83.1101C83.0354 149.856 82.9554 149.835 82.8701 149.792C82.7954 149.749 82.7367 149.669 82.6941 149.552C82.6301 149.115 82.3847 148.747 81.9581 148.448C81.5314 148.149 80.9767 148 80.2941 148C79.6007 148 79.0354 148.133 78.5981 148.4C78.1714 148.667 77.9581 149.083 77.9581 149.648C77.9581 150.011 78.0594 150.315 78.2621 150.56C78.4647 150.795 78.7847 151.003 79.2221 151.184C79.6594 151.365 80.2301 151.557 80.9341 151.76C81.7874 151.995 82.4861 152.245 83.0301 152.512C83.5741 152.768 83.9741 153.093 84.2301 153.488C84.4967 153.872 84.6301 154.368 84.6301 154.976C84.6301 155.584 84.4807 156.112 84.1821 156.56C83.8941 157.008 83.4781 157.365 82.9341 157.632C82.4007 157.899 81.7661 158.064 81.0301 158.128V159.232C81.0301 159.339 80.9927 159.424 80.9181 159.488C80.8541 159.563 80.7687 159.6 80.6621 159.6H80.0541ZM90.7287 158.16C89.7474 158.16 88.9314 157.979 88.2807 157.616C87.6407 157.253 87.1554 156.747 86.8247 156.096C86.494 155.445 86.3127 154.688 86.2807 153.824C86.27 153.387 86.2647 152.917 86.2647 152.416C86.2647 151.915 86.27 151.435 86.2807 150.976C86.3127 150.112 86.494 149.355 86.8247 148.704C87.1554 148.053 87.6407 147.547 88.2807 147.184C88.9314 146.821 89.7474 146.64 90.7287 146.64C91.4647 146.64 92.11 146.741 92.6647 146.944C93.2194 147.147 93.678 147.419 94.0407 147.76C94.414 148.101 94.6967 148.485 94.8887 148.912C95.0807 149.328 95.1874 149.76 95.2087 150.208C95.2194 150.304 95.1874 150.384 95.1127 150.448C95.0487 150.512 94.9687 150.544 94.8727 150.544H93.9927C93.8967 150.544 93.8114 150.517 93.7367 150.464C93.6727 150.411 93.6247 150.315 93.5927 150.176C93.4114 149.344 93.07 148.773 92.5687 148.464C92.078 148.155 91.4594 148 90.7127 148C89.8594 148 89.182 148.245 88.6807 148.736C88.1794 149.216 87.9074 149.989 87.8647 151.056C87.8327 151.931 87.8327 152.827 87.8647 153.744C87.9074 154.811 88.1794 155.589 88.6807 156.08C89.182 156.56 89.8594 156.8 90.7127 156.8C91.4594 156.8 92.078 156.645 92.5687 156.336C93.07 156.027 93.4114 155.456 93.5927 154.624C93.6247 154.485 93.6727 154.389 93.7367 154.336C93.8114 154.283 93.8967 154.256 93.9927 154.256H94.8727C94.9687 154.256 95.0487 154.288 95.1127 154.352C95.1874 154.416 95.2194 154.496 95.2087 154.592C95.1874 155.04 95.0807 155.477 94.8887 155.904C94.6967 156.32 94.414 156.699 94.0407 157.04C93.678 157.381 93.2194 157.653 92.6647 157.856C92.11 158.059 91.4647 158.16 90.7287 158.16ZM97.7209 158C97.6036 158 97.5129 157.968 97.4489 157.904C97.3849 157.829 97.3529 157.739 97.3529 157.632V147.184C97.3529 147.067 97.3849 146.976 97.4489 146.912C97.5129 146.837 97.6036 146.8 97.7209 146.8H98.5369C98.6543 146.8 98.7449 146.837 98.8089 146.912C98.8836 146.976 98.9209 147.067 98.9209 147.184V151.6H104.425V147.184C104.425 147.067 104.457 146.976 104.521 146.912C104.596 146.837 104.686 146.8 104.793 146.8H105.609C105.726 146.8 105.817 146.837 105.881 146.912C105.956 146.976 105.993 147.067 105.993 147.184V157.632C105.993 157.739 105.956 157.829 105.881 157.904C105.817 157.968 105.726 158 105.609 158H104.793C104.686 158 104.596 157.968 104.521 157.904C104.457 157.829 104.425 157.739 104.425 157.632V153.04H98.9209V157.632C98.9209 157.739 98.8836 157.829 98.8089 157.904C98.7449 157.968 98.6543 158 98.5369 158H97.7209ZM112.775 158.16C111.869 158.16 111.09 158.005 110.439 157.696C109.789 157.376 109.287 156.891 108.935 156.24C108.583 155.579 108.386 154.752 108.343 153.76C108.333 153.291 108.327 152.843 108.327 152.416C108.327 151.979 108.333 151.525 108.343 151.056C108.386 150.075 108.589 149.259 108.951 148.608C109.325 147.947 109.837 147.456 110.487 147.136C111.149 146.805 111.911 146.64 112.775 146.64C113.65 146.64 114.413 146.805 115.063 147.136C115.725 147.456 116.242 147.947 116.615 148.608C116.989 149.259 117.191 150.075 117.223 151.056C117.245 151.525 117.255 151.979 117.255 152.416C117.255 152.843 117.245 153.291 117.223 153.76C117.191 154.752 116.994 155.579 116.631 156.24C116.279 156.891 115.778 157.376 115.127 157.696C114.477 158.005 113.693 158.16 112.775 158.16ZM112.775 156.8C113.597 156.8 114.263 156.555 114.775 156.064C115.298 155.573 115.581 154.779 115.623 153.68C115.645 153.2 115.655 152.773 115.655 152.4C115.655 152.016 115.645 151.589 115.623 151.12C115.602 150.384 115.463 149.787 115.207 149.328C114.962 148.869 114.631 148.533 114.215 148.32C113.799 148.107 113.319 148 112.775 148C112.253 148 111.783 148.107 111.367 148.32C110.951 148.533 110.615 148.869 110.359 149.328C110.114 149.787 109.975 150.384 109.943 151.12C109.933 151.589 109.927 152.016 109.927 152.4C109.927 152.773 109.933 153.2 109.943 153.68C109.986 154.779 110.269 155.573 110.791 156.064C111.314 156.555 111.975 156.8 112.775 156.8ZM119.955 158C119.838 158 119.747 157.968 119.683 157.904C119.619 157.829 119.587 157.739 119.587 157.632V147.184C119.587 147.067 119.619 146.976 119.683 146.912C119.747 146.837 119.838 146.8 119.955 146.8H124.019C124.809 146.8 125.491 146.928 126.067 147.184C126.654 147.44 127.107 147.824 127.427 148.336C127.747 148.837 127.907 149.467 127.907 150.224C127.907 150.981 127.747 151.611 127.427 152.112C127.107 152.613 126.654 152.992 126.067 153.248C125.491 153.504 124.809 153.632 124.019 153.632H121.187V157.632C121.187 157.739 121.15 157.829 121.075 157.904C121.011 157.968 120.921 158 120.803 158H119.955ZM121.171 152.288H123.939C124.729 152.288 125.321 152.112 125.715 151.76C126.11 151.408 126.307 150.896 126.307 150.224C126.307 149.563 126.115 149.051 125.731 148.688C125.347 148.325 124.75 148.144 123.939 148.144H121.171V152.288ZM133.575 158C133.469 158 133.378 157.968 133.303 157.904C133.239 157.829 133.207 157.739 133.207 157.632V150.048C133.207 149.941 133.239 149.856 133.303 149.792C133.378 149.717 133.469 149.68 133.575 149.68H134.343C134.45 149.68 134.535 149.717 134.599 149.792C134.663 149.856 134.695 149.941 134.695 150.048V157.632C134.695 157.739 134.663 157.829 134.599 157.904C134.535 157.968 134.45 158 134.343 158H133.575ZM133.447 148.128C133.341 148.128 133.25 148.096 133.175 148.032C133.111 147.957 133.079 147.867 133.079 147.76V146.896C133.079 146.789 133.111 146.704 133.175 146.64C133.25 146.565 133.341 146.528 133.447 146.528H134.455C134.562 146.528 134.647 146.565 134.711 146.64C134.786 146.704 134.823 146.789 134.823 146.896V147.76C134.823 147.867 134.786 147.957 134.711 148.032C134.647 148.096 134.562 148.128 134.455 148.128H133.447ZM137.607 158C137.5 158 137.409 157.968 137.335 157.904C137.271 157.829 137.239 157.739 137.239 157.632V150.048C137.239 149.941 137.271 149.856 137.335 149.792C137.409 149.717 137.5 149.68 137.607 149.68H138.359C138.465 149.68 138.551 149.717 138.615 149.792C138.689 149.856 138.727 149.941 138.727 150.048V150.752C139.004 150.389 139.351 150.096 139.767 149.872C140.193 149.637 140.737 149.52 141.399 149.52C142.092 149.52 142.679 149.675 143.159 149.984C143.649 150.283 144.017 150.704 144.263 151.248C144.508 151.781 144.631 152.405 144.631 153.12V157.632C144.631 157.739 144.599 157.829 144.535 157.904C144.471 157.968 144.385 158 144.279 158H143.479C143.372 158 143.281 157.968 143.207 157.904C143.143 157.829 143.111 157.739 143.111 157.632V153.2C143.111 152.453 142.929 151.872 142.567 151.456C142.204 151.029 141.671 150.816 140.967 150.816C140.305 150.816 139.772 151.029 139.367 151.456C138.972 151.872 138.775 152.453 138.775 153.2V157.632C138.775 157.739 138.737 157.829 138.663 157.904C138.599 157.968 138.513 158 138.407 158H137.607ZM154.272 158.16C153.461 158.16 152.784 158.005 152.24 157.696C151.696 157.387 151.28 156.96 150.992 156.416C150.704 155.861 150.544 155.232 150.512 154.528C150.501 154.347 150.496 154.117 150.496 153.84C150.496 153.552 150.501 153.323 150.512 153.152C150.544 152.437 150.704 151.808 150.992 151.264C151.29 150.72 151.712 150.293 152.256 149.984C152.8 149.675 153.472 149.52 154.272 149.52C155.072 149.52 155.744 149.675 156.288 149.984C156.832 150.293 157.248 150.72 157.536 151.264C157.834 151.808 158 152.437 158.032 153.152C158.042 153.323 158.048 153.552 158.048 153.84C158.048 154.117 158.042 154.347 158.032 154.528C158 155.232 157.84 155.861 157.552 156.416C157.264 156.96 156.848 157.387 156.304 157.696C155.76 158.005 155.082 158.16 154.272 158.16ZM154.272 156.928C154.933 156.928 155.461 156.72 155.856 156.304C156.25 155.877 156.464 155.259 156.496 154.448C156.506 154.288 156.512 154.085 156.512 153.84C156.512 153.595 156.506 153.392 156.496 153.232C156.464 152.421 156.25 151.808 155.856 151.392C155.461 150.965 154.933 150.752 154.272 150.752C153.61 150.752 153.077 150.965 152.672 151.392C152.277 151.808 152.069 152.421 152.048 153.232C152.037 153.392 152.032 153.595 152.032 153.84C152.032 154.085 152.037 154.288 152.048 154.448C152.069 155.259 152.277 155.877 152.672 156.304C153.077 156.72 153.61 156.928 154.272 156.928ZM163.155 158.16C162.473 158.16 161.891 158.011 161.411 157.712C160.942 157.403 160.585 156.976 160.339 156.432C160.094 155.888 159.971 155.264 159.971 154.56V150.048C159.971 149.941 160.003 149.856 160.067 149.792C160.142 149.717 160.233 149.68 160.339 149.68H161.139C161.246 149.68 161.331 149.717 161.395 149.792C161.47 149.856 161.507 149.941 161.507 150.048V154.48C161.507 156.069 162.201 156.864 163.587 156.864C164.249 156.864 164.777 156.656 165.171 156.24C165.577 155.813 165.779 155.227 165.779 154.48V150.048C165.779 149.941 165.811 149.856 165.875 149.792C165.95 149.717 166.041 149.68 166.147 149.68H166.931C167.049 149.68 167.139 149.717 167.203 149.792C167.267 149.856 167.299 149.941 167.299 150.048V157.632C167.299 157.739 167.267 157.829 167.203 157.904C167.139 157.968 167.049 158 166.931 158H166.195C166.089 158 165.998 157.968 165.923 157.904C165.859 157.829 165.827 157.739 165.827 157.632V156.928C165.539 157.301 165.187 157.6 164.771 157.824C164.366 158.048 163.827 158.16 163.155 158.16ZM170.044 158C169.938 158 169.847 157.968 169.772 157.904C169.708 157.829 169.676 157.739 169.676 157.632V150.064C169.676 149.957 169.708 149.867 169.772 149.792C169.847 149.717 169.938 149.68 170.044 149.68H170.78C170.887 149.68 170.978 149.717 171.052 149.792C171.127 149.867 171.164 149.957 171.164 150.064V150.768C171.378 150.405 171.671 150.133 172.044 149.952C172.418 149.771 172.866 149.68 173.388 149.68H174.028C174.135 149.68 174.22 149.717 174.284 149.792C174.348 149.856 174.38 149.941 174.38 150.048V150.704C174.38 150.811 174.348 150.896 174.284 150.96C174.22 151.024 174.135 151.056 174.028 151.056H173.068C172.492 151.056 172.039 151.227 171.708 151.568C171.378 151.899 171.212 152.352 171.212 152.928V157.632C171.212 157.739 171.175 157.829 171.1 157.904C171.026 157.968 170.935 158 170.828 158H170.044ZM179.685 161.04C179.579 161.04 179.488 161.003 179.413 160.928C179.349 160.864 179.317 160.779 179.317 160.672V150.048C179.317 149.941 179.349 149.856 179.413 149.792C179.488 149.717 179.579 149.68 179.685 149.68H180.421C180.528 149.68 180.613 149.717 180.677 149.792C180.752 149.856 180.789 149.941 180.789 150.048V150.752C181.045 150.4 181.387 150.107 181.813 149.872C182.24 149.637 182.773 149.52 183.413 149.52C184.011 149.52 184.517 149.621 184.933 149.824C185.36 150.027 185.707 150.304 185.973 150.656C186.251 151.008 186.459 151.408 186.597 151.856C186.736 152.304 186.811 152.784 186.821 153.296C186.832 153.467 186.837 153.648 186.837 153.84C186.837 154.032 186.832 154.213 186.821 154.384C186.811 154.885 186.736 155.365 186.597 155.824C186.459 156.272 186.251 156.672 185.973 157.024C185.707 157.365 185.36 157.643 184.933 157.856C184.517 158.059 184.011 158.16 183.413 158.16C182.795 158.16 182.272 158.048 181.845 157.824C181.429 157.589 181.088 157.301 180.821 156.96V160.672C180.821 160.779 180.789 160.864 180.725 160.928C180.661 161.003 180.571 161.04 180.453 161.04H179.685ZM183.077 156.864C183.632 156.864 184.064 156.747 184.373 156.512C184.693 156.267 184.923 155.952 185.061 155.568C185.2 155.173 185.28 154.752 185.301 154.304C185.312 153.995 185.312 153.685 185.301 153.376C185.28 152.928 185.2 152.512 185.061 152.128C184.923 151.733 184.693 151.419 184.373 151.184C184.064 150.939 183.632 150.816 183.077 150.816C182.555 150.816 182.128 150.939 181.797 151.184C181.477 151.429 181.237 151.744 181.077 152.128C180.928 152.501 180.843 152.885 180.821 153.28C180.811 153.451 180.805 153.653 180.805 153.888C180.805 154.123 180.811 154.331 180.821 154.512C180.832 154.885 180.917 155.253 181.077 155.616C181.248 155.979 181.499 156.277 181.829 156.512C182.16 156.747 182.576 156.864 183.077 156.864ZM192.24 158.16C191.43 158.16 190.752 158.005 190.208 157.696C189.664 157.387 189.248 156.96 188.96 156.416C188.672 155.861 188.512 155.232 188.48 154.528C188.47 154.347 188.464 154.117 188.464 153.84C188.464 153.552 188.47 153.323 188.48 153.152C188.512 152.437 188.672 151.808 188.96 151.264C189.259 150.72 189.68 150.293 190.224 149.984C190.768 149.675 191.44 149.52 192.24 149.52C193.04 149.52 193.712 149.675 194.256 149.984C194.8 150.293 195.216 150.72 195.504 151.264C195.803 151.808 195.968 152.437 196 153.152C196.011 153.323 196.016 153.552 196.016 153.84C196.016 154.117 196.011 154.347 196 154.528C195.968 155.232 195.808 155.861 195.52 156.416C195.232 156.96 194.816 157.387 194.272 157.696C193.728 158.005 193.051 158.16 192.24 158.16ZM192.24 156.928C192.902 156.928 193.43 156.72 193.824 156.304C194.219 155.877 194.432 155.259 194.464 154.448C194.475 154.288 194.48 154.085 194.48 153.84C194.48 153.595 194.475 153.392 194.464 153.232C194.432 152.421 194.219 151.808 193.824 151.392C193.43 150.965 192.902 150.752 192.24 150.752C191.579 150.752 191.046 150.965 190.64 151.392C190.246 151.808 190.038 152.421 190.016 153.232C190.006 153.392 190 153.595 190 153.84C190 154.085 190.006 154.288 190.016 154.448C190.038 155.259 190.246 155.877 190.64 156.304C191.046 156.72 191.579 156.928 192.24 156.928ZM201.428 158.16C200.617 158.16 199.94 158.005 199.396 157.696C198.852 157.387 198.436 156.96 198.148 156.416C197.86 155.861 197.7 155.232 197.668 154.528C197.657 154.347 197.652 154.117 197.652 153.84C197.652 153.552 197.657 153.323 197.668 153.152C197.7 152.437 197.86 151.808 198.148 151.264C198.447 150.72 198.868 150.293 199.412 149.984C199.956 149.675 200.628 149.52 201.428 149.52C202.228 149.52 202.9 149.675 203.444 149.984C203.988 150.293 204.404 150.72 204.692 151.264C204.991 151.808 205.156 152.437 205.188 153.152C205.199 153.323 205.204 153.552 205.204 153.84C205.204 154.117 205.199 154.347 205.188 154.528C205.156 155.232 204.996 155.861 204.708 156.416C204.42 156.96 204.004 157.387 203.46 157.696C202.916 158.005 202.239 158.16 201.428 158.16ZM201.428 156.928C202.089 156.928 202.617 156.72 203.012 156.304C203.407 155.877 203.62 155.259 203.652 154.448C203.663 154.288 203.668 154.085 203.668 153.84C203.668 153.595 203.663 153.392 203.652 153.232C203.62 152.421 203.407 151.808 203.012 151.392C202.617 150.965 202.089 150.752 201.428 150.752C200.767 150.752 200.233 150.965 199.828 151.392C199.433 151.808 199.225 152.421 199.204 153.232C199.193 153.392 199.188 153.595 199.188 153.84C199.188 154.085 199.193 154.288 199.204 154.448C199.225 155.259 199.433 155.877 199.828 156.304C200.233 156.72 200.767 156.928 201.428 156.928ZM207.591 158C207.485 158 207.394 157.968 207.319 157.904C207.255 157.829 207.223 157.739 207.223 157.632V147.008C207.223 146.901 207.255 146.816 207.319 146.752C207.394 146.677 207.485 146.64 207.591 146.64H208.343C208.461 146.64 208.551 146.677 208.615 146.752C208.679 146.816 208.711 146.901 208.711 147.008V157.632C208.711 157.739 208.679 157.829 208.615 157.904C208.551 157.968 208.461 158 208.343 158H207.591ZM213.978 158.16C213.381 158.16 212.869 158.085 212.442 157.936C212.015 157.787 211.669 157.605 211.402 157.392C211.135 157.179 210.933 156.965 210.794 156.752C210.666 156.539 210.597 156.368 210.586 156.24C210.575 156.123 210.613 156.032 210.698 155.968C210.783 155.904 210.869 155.872 210.954 155.872H211.658C211.722 155.872 211.77 155.883 211.802 155.904C211.845 155.915 211.898 155.957 211.962 156.032C212.101 156.181 212.255 156.331 212.426 156.48C212.597 156.629 212.805 156.752 213.05 156.848C213.306 156.944 213.621 156.992 213.994 156.992C214.538 156.992 214.986 156.891 215.338 156.688C215.69 156.475 215.866 156.165 215.866 155.76C215.866 155.493 215.791 155.28 215.642 155.12C215.503 154.96 215.247 154.816 214.874 154.688C214.511 154.56 214.01 154.427 213.37 154.288C212.73 154.139 212.223 153.957 211.85 153.744C211.477 153.52 211.21 153.259 211.05 152.96C210.89 152.651 210.81 152.304 210.81 151.92C210.81 151.525 210.927 151.147 211.162 150.784C211.397 150.411 211.738 150.107 212.186 149.872C212.645 149.637 213.215 149.52 213.898 149.52C214.453 149.52 214.927 149.589 215.322 149.728C215.717 149.867 216.042 150.043 216.298 150.256C216.554 150.459 216.746 150.661 216.874 150.864C217.002 151.067 217.071 151.237 217.082 151.376C217.093 151.483 217.061 151.573 216.986 151.648C216.911 151.712 216.826 151.744 216.73 151.744H216.058C215.983 151.744 215.919 151.728 215.866 151.696C215.823 151.664 215.781 151.627 215.738 151.584C215.631 151.445 215.503 151.307 215.354 151.168C215.215 151.029 215.029 150.917 214.794 150.832C214.57 150.736 214.271 150.688 213.898 150.688C213.365 150.688 212.965 150.8 212.698 151.024C212.431 151.248 212.298 151.531 212.298 151.872C212.298 152.075 212.357 152.256 212.474 152.416C212.591 152.576 212.815 152.72 213.146 152.848C213.477 152.976 213.967 153.115 214.618 153.264C215.322 153.403 215.877 153.589 216.282 153.824C216.687 154.059 216.975 154.331 217.146 154.64C217.317 154.949 217.402 155.307 217.402 155.712C217.402 156.16 217.269 156.571 217.002 156.944C216.746 157.317 216.362 157.616 215.85 157.84C215.349 158.053 214.725 158.16 213.978 158.16ZM43.5014 182C43.3627 182 43.256 181.968 43.1814 181.904C43.1067 181.829 43.0427 181.728 42.9894 181.6L40.7174 174.176C40.696 174.123 40.6854 174.069 40.6854 174.016C40.6854 173.92 40.7174 173.84 40.7814 173.776C40.856 173.712 40.936 173.68 41.0214 173.68H41.7254C41.8427 173.68 41.9334 173.712 41.9974 173.776C42.0614 173.84 42.104 173.899 42.1254 173.952L43.9014 179.984L45.8054 174.016C45.8267 173.941 45.8694 173.867 45.9334 173.792C46.008 173.717 46.1147 173.68 46.2534 173.68H46.7974C46.936 173.68 47.0427 173.717 47.1174 173.792C47.192 173.867 47.2347 173.941 47.2454 174.016L49.1494 179.984L50.9254 173.952C50.936 173.899 50.9734 173.84 51.0374 173.776C51.1014 173.712 51.192 173.68 51.3094 173.68H52.0134C52.1094 173.68 52.1894 173.712 52.2534 173.776C52.3174 173.84 52.3494 173.92 52.3494 174.016C52.3494 174.069 52.3387 174.123 52.3174 174.176L50.0454 181.6C50.0134 181.728 49.9547 181.829 49.8694 181.904C49.7947 181.968 49.6827 182 49.5334 182H48.9094C48.7707 182 48.6534 181.968 48.5574 181.904C48.472 181.829 48.4134 181.728 48.3814 181.6L46.5254 175.872L44.6694 181.6C44.6267 181.728 44.5627 181.829 44.4774 181.904C44.392 181.968 44.2747 182 44.1254 182H43.5014ZM54.4895 182C54.3828 182 54.2922 181.968 54.2175 181.904C54.1535 181.829 54.1215 181.739 54.1215 181.632V174.048C54.1215 173.941 54.1535 173.856 54.2175 173.792C54.2922 173.717 54.3828 173.68 54.4895 173.68H55.2575C55.3642 173.68 55.4495 173.717 55.5135 173.792C55.5775 173.856 55.6095 173.941 55.6095 174.048V181.632C55.6095 181.739 55.5775 181.829 55.5135 181.904C55.4495 181.968 55.3642 182 55.2575 182H54.4895ZM54.3615 172.128C54.2548 172.128 54.1642 172.096 54.0895 172.032C54.0255 171.957 53.9935 171.867 53.9935 171.76V170.896C53.9935 170.789 54.0255 170.704 54.0895 170.64C54.1642 170.565 54.2548 170.528 54.3615 170.528H55.3695C55.4762 170.528 55.5615 170.565 55.6255 170.64C55.7002 170.704 55.7375 170.789 55.7375 170.896V171.76C55.7375 171.867 55.7002 171.957 55.6255 172.032C55.5615 172.096 55.4762 172.128 55.3695 172.128H54.3615ZM58.3805 182C58.2738 182 58.1832 181.968 58.1085 181.904C58.0445 181.829 58.0125 181.739 58.0125 181.632V171.008C58.0125 170.901 58.0445 170.816 58.1085 170.752C58.1832 170.677 58.2738 170.64 58.3805 170.64H59.1325C59.2498 170.64 59.3405 170.677 59.4045 170.752C59.4685 170.816 59.5005 170.901 59.5005 171.008V181.632C59.5005 181.739 59.4685 181.829 59.4045 181.904C59.3405 181.968 59.2498 182 59.1325 182H58.3805ZM62.2711 182C62.1645 182 62.0738 181.968 61.9991 181.904C61.9351 181.829 61.9031 181.739 61.9031 181.632V171.008C61.9031 170.901 61.9351 170.816 61.9991 170.752C62.0738 170.677 62.1645 170.64 62.2711 170.64H63.0231C63.1405 170.64 63.2311 170.677 63.2951 170.752C63.3591 170.816 63.3911 170.901 63.3911 171.008V181.632C63.3911 181.739 63.3591 181.829 63.2951 181.904C63.2311 181.968 63.1405 182 63.0231 182H62.2711ZM73.0116 182.16C71.913 182.16 71.0383 181.824 70.3876 181.152C69.737 180.469 69.3796 179.541 69.3156 178.368C69.305 178.229 69.2996 178.053 69.2996 177.84C69.2996 177.616 69.305 177.435 69.3156 177.296C69.3583 176.539 69.5343 175.877 69.8436 175.312C70.153 174.736 70.5743 174.293 71.1076 173.984C71.6516 173.675 72.2863 173.52 73.0116 173.52C73.8223 173.52 74.4996 173.691 75.0436 174.032C75.5983 174.373 76.0196 174.859 76.3076 175.488C76.5956 176.117 76.7396 176.853 76.7396 177.696V177.968C76.7396 178.085 76.7023 178.176 76.6276 178.24C76.5636 178.304 76.4783 178.336 76.3716 178.336H70.8356C70.8356 178.347 70.8356 178.368 70.8356 178.4C70.8356 178.432 70.8356 178.459 70.8356 178.48C70.857 178.917 70.953 179.328 71.1236 179.712C71.2943 180.085 71.5396 180.389 71.8596 180.624C72.1796 180.859 72.5636 180.976 73.0116 180.976C73.3956 180.976 73.7156 180.917 73.9716 180.8C74.2276 180.683 74.4356 180.555 74.5956 180.416C74.7556 180.267 74.8623 180.155 74.9156 180.08C75.0116 179.941 75.0863 179.861 75.1396 179.84C75.193 179.808 75.2783 179.792 75.3956 179.792H76.1636C76.2703 179.792 76.3556 179.824 76.4196 179.888C76.4943 179.941 76.5263 180.021 76.5156 180.128C76.505 180.288 76.4196 180.485 76.2596 180.72C76.0996 180.944 75.8703 181.168 75.5716 181.392C75.273 181.616 74.9103 181.803 74.4836 181.952C74.057 182.091 73.5663 182.16 73.0116 182.16ZM70.8356 177.232H75.2196V177.184C75.2196 176.704 75.129 176.277 74.9476 175.904C74.777 175.531 74.5263 175.237 74.1956 175.024C73.865 174.8 73.4703 174.688 73.0116 174.688C72.553 174.688 72.1583 174.8 71.8276 175.024C71.5076 175.237 71.2623 175.531 71.0916 175.904C70.921 176.277 70.8356 176.704 70.8356 177.184V177.232ZM80.9728 182.16C80.4394 182.16 79.9541 182.053 79.5168 181.84C79.0794 181.627 78.7274 181.339 78.4608 180.976C78.1941 180.613 78.0608 180.203 78.0608 179.744C78.0608 179.008 78.3594 178.421 78.9568 177.984C79.5541 177.547 80.3328 177.259 81.2928 177.12L83.6768 176.784V176.32C83.6768 175.808 83.5274 175.408 83.2288 175.12C82.9408 174.832 82.4661 174.688 81.8048 174.688C81.3248 174.688 80.9354 174.784 80.6368 174.976C80.3488 175.168 80.1461 175.413 80.0288 175.712C79.9648 175.872 79.8528 175.952 79.6928 175.952H78.9728C78.8554 175.952 78.7648 175.92 78.7008 175.856C78.6474 175.781 78.6208 175.696 78.6208 175.6C78.6208 175.44 78.6794 175.243 78.7968 175.008C78.9248 174.773 79.1168 174.544 79.3728 174.32C79.6288 174.096 79.9541 173.909 80.3488 173.76C80.7541 173.6 81.2448 173.52 81.8208 173.52C82.4608 173.52 82.9994 173.605 83.4368 173.776C83.8741 173.936 84.2154 174.155 84.4608 174.432C84.7168 174.709 84.8981 175.024 85.0048 175.376C85.1221 175.728 85.1808 176.085 85.1808 176.448V181.632C85.1808 181.739 85.1434 181.829 85.0688 181.904C85.0048 181.968 84.9194 182 84.8128 182H84.0768C83.9594 182 83.8688 181.968 83.8048 181.904C83.7408 181.829 83.7088 181.739 83.7088 181.632V180.944C83.5701 181.136 83.3834 181.328 83.1488 181.52C82.9141 181.701 82.6208 181.856 82.2688 181.984C81.9168 182.101 81.4848 182.16 80.9728 182.16ZM81.3088 180.96C81.7461 180.96 82.1461 180.869 82.5088 180.688C82.8714 180.496 83.1541 180.203 83.3568 179.808C83.5701 179.413 83.6768 178.917 83.6768 178.32V177.872L81.8208 178.144C81.0634 178.251 80.4928 178.432 80.1088 178.688C79.7248 178.933 79.5328 179.248 79.5328 179.632C79.5328 179.931 79.6181 180.181 79.7888 180.384C79.9701 180.576 80.1941 180.72 80.4608 180.816C80.7381 180.912 81.0208 180.96 81.3088 180.96ZM87.8489 182C87.7422 182 87.6515 181.968 87.5769 181.904C87.5129 181.829 87.4809 181.739 87.4809 181.632V174.064C87.4809 173.957 87.5129 173.867 87.5769 173.792C87.6515 173.717 87.7422 173.68 87.8489 173.68H88.5849C88.6915 173.68 88.7822 173.717 88.8569 173.792C88.9315 173.867 88.9689 173.957 88.9689 174.064V174.768C89.1822 174.405 89.4755 174.133 89.8489 173.952C90.2222 173.771 90.6702 173.68 91.1929 173.68H91.8329C91.9395 173.68 92.0249 173.717 92.0889 173.792C92.1529 173.856 92.1849 173.941 92.1849 174.048V174.704C92.1849 174.811 92.1529 174.896 92.0889 174.96C92.0249 175.024 91.9395 175.056 91.8329 175.056H90.8729C90.2969 175.056 89.8435 175.227 89.5129 175.568C89.1822 175.899 89.0169 176.352 89.0169 176.928V181.632C89.0169 181.739 88.9795 181.829 88.9049 181.904C88.8302 181.968 88.7395 182 88.6329 182H87.8489ZM93.927 182C93.8203 182 93.7297 181.968 93.655 181.904C93.591 181.829 93.559 181.739 93.559 181.632V174.048C93.559 173.941 93.591 173.856 93.655 173.792C93.7297 173.717 93.8203 173.68 93.927 173.68H94.679C94.7857 173.68 94.871 173.717 94.935 173.792C95.0097 173.856 95.047 173.941 95.047 174.048V174.752C95.3243 174.389 95.671 174.096 96.087 173.872C96.5137 173.637 97.0577 173.52 97.719 173.52C98.4123 173.52 98.999 173.675 99.479 173.984C99.9697 174.283 100.338 174.704 100.583 175.248C100.828 175.781 100.951 176.405 100.951 177.12V181.632C100.951 181.739 100.919 181.829 100.855 181.904C100.791 181.968 100.706 182 100.599 182H99.799C99.6923 182 99.6017 181.968 99.527 181.904C99.463 181.829 99.431 181.739 99.431 181.632V177.2C99.431 176.453 99.2497 175.872 98.887 175.456C98.5243 175.029 97.991 174.816 97.287 174.816C96.6257 174.816 96.0923 175.029 95.687 175.456C95.2923 175.872 95.095 176.453 95.095 177.2V181.632C95.095 181.739 95.0577 181.829 94.983 181.904C94.919 181.968 94.8337 182 94.727 182H93.927ZM108.203 185.04C108.117 185.04 108.043 185.008 107.979 184.944C107.915 184.88 107.883 184.805 107.883 184.72C107.883 184.677 107.888 184.635 107.899 184.592C107.909 184.549 107.931 184.496 107.963 184.432L109.195 181.504L106.139 174.288C106.085 174.16 106.059 174.069 106.059 174.016C106.059 173.92 106.091 173.84 106.155 173.776C106.219 173.712 106.299 173.68 106.395 173.68H107.179C107.285 173.68 107.371 173.707 107.435 173.76C107.499 173.813 107.541 173.877 107.562 173.952L109.995 179.776L112.491 173.952C112.523 173.877 112.565 173.813 112.619 173.76C112.683 173.707 112.773 173.68 112.891 173.68H113.642C113.738 173.68 113.819 173.712 113.883 173.776C113.947 173.84 113.979 173.915 113.979 174C113.979 174.053 113.952 174.149 113.899 174.288L109.355 184.768C109.323 184.843 109.275 184.907 109.211 184.96C109.157 185.013 109.072 185.04 108.955 185.04H108.203ZM118.686 182.16C117.875 182.16 117.198 182.005 116.654 181.696C116.11 181.387 115.694 180.96 115.406 180.416C115.118 179.861 114.958 179.232 114.926 178.528C114.915 178.347 114.91 178.117 114.91 177.84C114.91 177.552 114.915 177.323 114.926 177.152C114.958 176.437 115.118 175.808 115.406 175.264C115.704 174.72 116.126 174.293 116.67 173.984C117.214 173.675 117.886 173.52 118.686 173.52C119.486 173.52 120.158 173.675 120.702 173.984C121.246 174.293 121.662 174.72 121.95 175.264C122.248 175.808 122.414 176.437 122.446 177.152C122.456 177.323 122.462 177.552 122.462 177.84C122.462 178.117 122.456 178.347 122.446 178.528C122.414 179.232 122.254 179.861 121.966 180.416C121.678 180.96 121.262 181.387 120.718 181.696C120.174 182.005 119.496 182.16 118.686 182.16ZM118.686 180.928C119.347 180.928 119.875 180.72 120.27 180.304C120.664 179.877 120.878 179.259 120.91 178.448C120.92 178.288 120.926 178.085 120.926 177.84C120.926 177.595 120.92 177.392 120.91 177.232C120.878 176.421 120.664 175.808 120.27 175.392C119.875 174.965 119.347 174.752 118.686 174.752C118.024 174.752 117.491 174.965 117.086 175.392C116.691 175.808 116.483 176.421 116.462 177.232C116.451 177.392 116.446 177.595 116.446 177.84C116.446 178.085 116.451 178.288 116.462 178.448C116.483 179.259 116.691 179.877 117.086 180.304C117.491 180.72 118.024 180.928 118.686 180.928ZM127.569 182.16C126.887 182.16 126.305 182.011 125.825 181.712C125.356 181.403 124.999 180.976 124.753 180.432C124.508 179.888 124.385 179.264 124.385 178.56V174.048C124.385 173.941 124.417 173.856 124.481 173.792C124.556 173.717 124.647 173.68 124.753 173.68H125.553C125.66 173.68 125.745 173.717 125.809 173.792C125.884 173.856 125.921 173.941 125.921 174.048V178.48C125.921 180.069 126.615 180.864 128.001 180.864C128.663 180.864 129.191 180.656 129.585 180.24C129.991 179.813 130.193 179.227 130.193 178.48V174.048C130.193 173.941 130.225 173.856 130.289 173.792C130.364 173.717 130.455 173.68 130.561 173.68H131.345C131.463 173.68 131.553 173.717 131.617 173.792C131.681 173.856 131.713 173.941 131.713 174.048V181.632C131.713 181.739 131.681 181.829 131.617 181.904C131.553 181.968 131.463 182 131.345 182H130.609C130.503 182 130.412 181.968 130.337 181.904C130.273 181.829 130.241 181.739 130.241 181.632V180.928C129.953 181.301 129.601 181.6 129.185 181.824C128.78 182.048 128.241 182.16 127.569 182.16ZM138.396 185.04C138.289 185.04 138.199 185.003 138.124 184.928C138.06 184.864 138.028 184.779 138.028 184.672V174.048C138.028 173.941 138.06 173.856 138.124 173.792C138.199 173.717 138.289 173.68 138.396 173.68H139.132C139.239 173.68 139.324 173.717 139.388 173.792C139.463 173.856 139.5 173.941 139.5 174.048V174.752C139.756 174.4 140.097 174.107 140.524 173.872C140.951 173.637 141.484 173.52 142.124 173.52C142.721 173.52 143.228 173.621 143.644 173.824C144.071 174.027 144.417 174.304 144.684 174.656C144.961 175.008 145.169 175.408 145.308 175.856C145.447 176.304 145.521 176.784 145.532 177.296C145.543 177.467 145.548 177.648 145.548 177.84C145.548 178.032 145.543 178.213 145.532 178.384C145.521 178.885 145.447 179.365 145.308 179.824C145.169 180.272 144.961 180.672 144.684 181.024C144.417 181.365 144.071 181.643 143.644 181.856C143.228 182.059 142.721 182.16 142.124 182.16C141.505 182.16 140.983 182.048 140.556 181.824C140.14 181.589 139.799 181.301 139.532 180.96V184.672C139.532 184.779 139.5 184.864 139.436 184.928C139.372 185.003 139.281 185.04 139.164 185.04H138.396ZM141.788 180.864C142.343 180.864 142.775 180.747 143.084 180.512C143.404 180.267 143.633 179.952 143.772 179.568C143.911 179.173 143.991 178.752 144.012 178.304C144.023 177.995 144.023 177.685 144.012 177.376C143.991 176.928 143.911 176.512 143.772 176.128C143.633 175.733 143.404 175.419 143.084 175.184C142.775 174.939 142.343 174.816 141.788 174.816C141.265 174.816 140.839 174.939 140.508 175.184C140.188 175.429 139.948 175.744 139.788 176.128C139.639 176.501 139.553 176.885 139.532 177.28C139.521 177.451 139.516 177.653 139.516 177.888C139.516 178.123 139.521 178.331 139.532 178.512C139.543 178.885 139.628 179.253 139.788 179.616C139.959 179.979 140.209 180.277 140.54 180.512C140.871 180.747 141.287 180.864 141.788 180.864ZM149.863 182.16C149.33 182.16 148.845 182.053 148.407 181.84C147.97 181.627 147.618 181.339 147.351 180.976C147.085 180.613 146.951 180.203 146.951 179.744C146.951 179.008 147.25 178.421 147.847 177.984C148.445 177.547 149.223 177.259 150.183 177.12L152.567 176.784V176.32C152.567 175.808 152.418 175.408 152.119 175.12C151.831 174.832 151.357 174.688 150.695 174.688C150.215 174.688 149.826 174.784 149.527 174.976C149.239 175.168 149.037 175.413 148.919 175.712C148.855 175.872 148.743 175.952 148.583 175.952H147.863C147.746 175.952 147.655 175.92 147.591 175.856C147.538 175.781 147.511 175.696 147.511 175.6C147.511 175.44 147.57 175.243 147.687 175.008C147.815 174.773 148.007 174.544 148.263 174.32C148.519 174.096 148.845 173.909 149.239 173.76C149.645 173.6 150.135 173.52 150.711 173.52C151.351 173.52 151.89 173.605 152.327 173.776C152.765 173.936 153.106 174.155 153.351 174.432C153.607 174.709 153.789 175.024 153.895 175.376C154.013 175.728 154.071 176.085 154.071 176.448V181.632C154.071 181.739 154.034 181.829 153.959 181.904C153.895 181.968 153.81 182 153.703 182H152.967C152.85 182 152.759 181.968 152.695 181.904C152.631 181.829 152.599 181.739 152.599 181.632V180.944C152.461 181.136 152.274 181.328 152.039 181.52C151.805 181.701 151.511 181.856 151.159 181.984C150.807 182.101 150.375 182.16 149.863 182.16ZM150.199 180.96C150.637 180.96 151.037 180.869 151.399 180.688C151.762 180.496 152.045 180.203 152.247 179.808C152.461 179.413 152.567 178.917 152.567 178.32V177.872L150.711 178.144C149.954 178.251 149.383 178.432 148.999 178.688C148.615 178.933 148.423 179.248 148.423 179.632C148.423 179.931 148.509 180.181 148.679 180.384C148.861 180.576 149.085 180.72 149.351 180.816C149.629 180.912 149.911 180.96 150.199 180.96ZM159.252 182.16C158.654 182.16 158.142 182.085 157.716 181.936C157.289 181.787 156.942 181.605 156.676 181.392C156.409 181.179 156.206 180.965 156.068 180.752C155.94 180.539 155.87 180.368 155.86 180.24C155.849 180.123 155.886 180.032 155.972 179.968C156.057 179.904 156.142 179.872 156.228 179.872H156.932C156.996 179.872 157.044 179.883 157.076 179.904C157.118 179.915 157.172 179.957 157.236 180.032C157.374 180.181 157.529 180.331 157.7 180.48C157.87 180.629 158.078 180.752 158.324 180.848C158.58 180.944 158.894 180.992 159.268 180.992C159.812 180.992 160.26 180.891 160.612 180.688C160.964 180.475 161.14 180.165 161.14 179.76C161.14 179.493 161.065 179.28 160.916 179.12C160.777 178.96 160.521 178.816 160.148 178.688C159.785 178.56 159.284 178.427 158.644 178.288C158.004 178.139 157.497 177.957 157.124 177.744C156.75 177.52 156.484 177.259 156.324 176.96C156.164 176.651 156.084 176.304 156.084 175.92C156.084 175.525 156.201 175.147 156.436 174.784C156.67 174.411 157.012 174.107 157.46 173.872C157.918 173.637 158.489 173.52 159.172 173.52C159.726 173.52 160.201 173.589 160.596 173.728C160.99 173.867 161.316 174.043 161.572 174.256C161.828 174.459 162.02 174.661 162.148 174.864C162.276 175.067 162.345 175.237 162.356 175.376C162.366 175.483 162.334 175.573 162.26 175.648C162.185 175.712 162.1 175.744 162.004 175.744H161.332C161.257 175.744 161.193 175.728 161.14 175.696C161.097 175.664 161.054 175.627 161.012 175.584C160.905 175.445 160.777 175.307 160.628 175.168C160.489 175.029 160.302 174.917 160.068 174.832C159.844 174.736 159.545 174.688 159.172 174.688C158.638 174.688 158.238 174.8 157.972 175.024C157.705 175.248 157.572 175.531 157.572 175.872C157.572 176.075 157.63 176.256 157.748 176.416C157.865 176.576 158.089 176.72 158.42 176.848C158.75 176.976 159.241 177.115 159.891 177.264C160.596 177.403 161.15 177.589 161.556 177.824C161.961 178.059 162.249 178.331 162.42 178.64C162.59 178.949 162.676 179.307 162.676 179.712C162.676 180.16 162.542 180.571 162.276 180.944C162.02 181.317 161.636 181.616 161.124 181.84C160.622 182.053 159.998 182.16 159.252 182.16ZM167.408 182.16C166.81 182.16 166.298 182.085 165.872 181.936C165.445 181.787 165.098 181.605 164.832 181.392C164.565 181.179 164.362 180.965 164.224 180.752C164.096 180.539 164.026 180.368 164.016 180.24C164.005 180.123 164.042 180.032 164.128 179.968C164.213 179.904 164.298 179.872 164.384 179.872H165.088C165.152 179.872 165.2 179.883 165.232 179.904C165.274 179.915 165.328 179.957 165.392 180.032C165.53 180.181 165.685 180.331 165.856 180.48C166.026 180.629 166.234 180.752 166.48 180.848C166.736 180.944 167.05 180.992 167.424 180.992C167.968 180.992 168.416 180.891 168.768 180.688C169.12 180.475 169.296 180.165 169.296 179.76C169.296 179.493 169.221 179.28 169.072 179.12C168.933 178.96 168.677 178.816 168.304 178.688C167.941 178.56 167.44 178.427 166.8 178.288C166.16 178.139 165.653 177.957 165.28 177.744C164.906 177.52 164.64 177.259 164.48 176.96C164.32 176.651 164.24 176.304 164.24 175.92C164.24 175.525 164.357 175.147 164.592 174.784C164.826 174.411 165.168 174.107 165.616 173.872C166.074 173.637 166.645 173.52 167.328 173.52C167.882 173.52 168.357 173.589 168.752 173.728C169.146 173.867 169.472 174.043 169.728 174.256C169.984 174.459 170.176 174.661 170.304 174.864C170.432 175.067 170.501 175.237 170.512 175.376C170.522 175.483 170.49 175.573 170.416 175.648C170.341 175.712 170.256 175.744 170.16 175.744H169.488C169.413 175.744 169.349 175.728 169.296 175.696C169.253 175.664 169.21 175.627 169.168 175.584C169.061 175.445 168.933 175.307 168.784 175.168C168.645 175.029 168.458 174.917 168.224 174.832C168 174.736 167.701 174.688 167.328 174.688C166.794 174.688 166.394 174.8 166.128 175.024C165.861 175.248 165.728 175.531 165.728 175.872C165.728 176.075 165.786 176.256 165.904 176.416C166.021 176.576 166.245 176.72 166.576 176.848C166.906 176.976 167.397 177.115 168.048 177.264C168.752 177.403 169.306 177.589 169.712 177.824C170.117 178.059 170.405 178.331 170.576 178.64C170.746 178.949 170.832 179.307 170.832 179.712C170.832 180.16 170.698 180.571 170.432 180.944C170.176 181.317 169.792 181.616 169.28 181.84C168.778 182.053 168.154 182.16 167.408 182.16ZM173.052 182C172.945 182 172.855 181.968 172.78 181.904C172.716 181.829 172.684 181.739 172.684 181.632V174.048C172.684 173.941 172.716 173.856 172.78 173.792C172.855 173.717 172.945 173.68 173.052 173.68H173.82C173.927 173.68 174.012 173.717 174.076 173.792C174.14 173.856 174.172 173.941 174.172 174.048V181.632C174.172 181.739 174.14 181.829 174.076 181.904C174.012 181.968 173.927 182 173.82 182H173.052ZM172.924 172.128C172.817 172.128 172.727 172.096 172.652 172.032C172.588 171.957 172.556 171.867 172.556 171.76V170.896C172.556 170.789 172.588 170.704 172.652 170.64C172.727 170.565 172.817 170.528 172.924 170.528H173.932C174.039 170.528 174.124 170.565 174.188 170.64C174.263 170.704 174.3 170.789 174.3 170.896V171.76C174.3 171.867 174.263 171.957 174.188 172.032C174.124 172.096 174.039 172.128 173.932 172.128H172.924ZM179.455 182C179.295 182 179.167 181.963 179.071 181.888C178.986 181.813 178.916 181.717 178.863 181.6L175.903 174.176C175.882 174.123 175.871 174.069 175.871 174.016C175.871 173.92 175.903 173.84 175.967 173.776C176.031 173.712 176.111 173.68 176.207 173.68H176.975C177.092 173.68 177.183 173.712 177.247 173.776C177.311 173.84 177.348 173.899 177.359 173.952L179.807 180.256L182.239 173.952C182.26 173.899 182.298 173.84 182.351 173.776C182.415 173.712 182.506 173.68 182.623 173.68H183.407C183.492 173.68 183.567 173.712 183.631 173.776C183.706 173.84 183.743 173.92 183.743 174.016C183.743 174.069 183.732 174.123 183.711 174.176L180.735 181.6C180.692 181.717 180.623 181.813 180.527 181.888C180.442 181.963 180.314 182 180.143 182H179.455ZM188.434 182.16C187.335 182.16 186.46 181.824 185.81 181.152C185.159 180.469 184.802 179.541 184.738 178.368C184.727 178.229 184.722 178.053 184.722 177.84C184.722 177.616 184.727 177.435 184.738 177.296C184.78 176.539 184.956 175.877 185.266 175.312C185.575 174.736 185.996 174.293 186.53 173.984C187.074 173.675 187.708 173.52 188.434 173.52C189.244 173.52 189.922 173.691 190.466 174.032C191.02 174.373 191.442 174.859 191.73 175.488C192.018 176.117 192.161 176.853 192.161 177.696V177.968C192.161 178.085 192.124 178.176 192.05 178.24C191.986 178.304 191.9 178.336 191.794 178.336H186.258C186.258 178.347 186.258 178.368 186.258 178.4C186.258 178.432 186.258 178.459 186.258 178.48C186.279 178.917 186.375 179.328 186.546 179.712C186.716 180.085 186.962 180.389 187.282 180.624C187.602 180.859 187.986 180.976 188.434 180.976C188.818 180.976 189.138 180.917 189.394 180.8C189.65 180.683 189.858 180.555 190.018 180.416C190.178 180.267 190.284 180.155 190.338 180.08C190.434 179.941 190.508 179.861 190.562 179.84C190.615 179.808 190.7 179.792 190.818 179.792H191.586C191.692 179.792 191.778 179.824 191.842 179.888C191.916 179.941 191.948 180.021 191.938 180.128C191.927 180.288 191.842 180.485 191.682 180.72C191.522 180.944 191.292 181.168 190.994 181.392C190.695 181.616 190.332 181.803 189.906 181.952C189.479 182.091 188.988 182.16 188.434 182.16ZM186.258 177.232H190.642V177.184C190.642 176.704 190.551 176.277 190.37 175.904C190.199 175.531 189.948 175.237 189.618 175.024C189.287 174.8 188.892 174.688 188.434 174.688C187.975 174.688 187.58 174.8 187.25 175.024C186.93 175.237 186.684 175.531 186.514 175.904C186.343 176.277 186.258 176.704 186.258 177.184V177.232ZM88.5754 206C88.4688 206 88.3781 205.968 88.3034 205.904C88.2394 205.829 88.2074 205.739 88.2074 205.632V198.048C88.2074 197.941 88.2394 197.856 88.3034 197.792C88.3781 197.717 88.4688 197.68 88.5754 197.68H89.3434C89.4501 197.68 89.5354 197.717 89.5994 197.792C89.6634 197.856 89.6954 197.941 89.6954 198.048V205.632C89.6954 205.739 89.6634 205.829 89.5994 205.904C89.5354 205.968 89.4501 206 89.3434 206H88.5754ZM88.4474 196.128C88.3408 196.128 88.2501 196.096 88.1754 196.032C88.1114 195.957 88.0794 195.867 88.0794 195.76V194.896C88.0794 194.789 88.1114 194.704 88.1754 194.64C88.2501 194.565 88.3408 194.528 88.4474 194.528H89.4554C89.5621 194.528 89.6474 194.565 89.7114 194.64C89.7861 194.704 89.8234 194.789 89.8234 194.896V195.76C89.8234 195.867 89.7861 195.957 89.7114 196.032C89.6474 196.096 89.5621 196.128 89.4554 196.128H88.4474ZM92.6067 206C92.5 206 92.4094 205.968 92.3347 205.904C92.2707 205.829 92.2387 205.739 92.2387 205.632V198.048C92.2387 197.941 92.2707 197.856 92.3347 197.792C92.4094 197.717 92.5 197.68 92.6067 197.68H93.3587C93.4654 197.68 93.5507 197.717 93.6147 197.792C93.6894 197.856 93.7267 197.941 93.7267 198.048V198.752C94.004 198.389 94.3507 198.096 94.7667 197.872C95.1934 197.637 95.7374 197.52 96.3987 197.52C97.092 197.52 97.6787 197.675 98.1587 197.984C98.6494 198.283 99.0174 198.704 99.2627 199.248C99.508 199.781 99.6307 200.405 99.6307 201.12V205.632C99.6307 205.739 99.5987 205.829 99.5347 205.904C99.4707 205.968 99.3854 206 99.2787 206H98.4787C98.372 206 98.2814 205.968 98.2067 205.904C98.1427 205.829 98.1107 205.739 98.1107 205.632V201.2C98.1107 200.453 97.9294 199.872 97.5667 199.456C97.204 199.029 96.6707 198.816 95.9667 198.816C95.3054 198.816 94.772 199.029 94.3667 199.456C93.972 199.872 93.7747 200.453 93.7747 201.2V205.632C93.7747 205.739 93.7374 205.829 93.6627 205.904C93.5987 205.968 93.5134 206 93.4067 206H92.6067ZM105.302 206.16C104.544 206.16 103.888 206.016 103.334 205.728C102.79 205.429 102.368 205.008 102.07 204.464C101.771 203.909 101.611 203.248 101.59 202.48C101.579 202.32 101.574 202.107 101.574 201.84C101.574 201.573 101.579 201.36 101.59 201.2C101.611 200.432 101.771 199.776 102.07 199.232C102.368 198.677 102.79 198.256 103.334 197.968C103.888 197.669 104.544 197.52 105.302 197.52C105.92 197.52 106.448 197.605 106.886 197.776C107.334 197.947 107.702 198.165 107.99 198.432C108.278 198.699 108.491 198.987 108.63 199.296C108.779 199.605 108.859 199.899 108.87 200.176C108.88 200.283 108.848 200.368 108.774 200.432C108.699 200.496 108.608 200.528 108.502 200.528H107.734C107.627 200.528 107.547 200.507 107.494 200.464C107.44 200.411 107.387 200.325 107.334 200.208C107.142 199.685 106.88 199.317 106.55 199.104C106.219 198.891 105.808 198.784 105.318 198.784C104.678 198.784 104.155 198.981 103.75 199.376C103.355 199.771 103.142 200.405 103.11 201.28C103.099 201.664 103.099 202.037 103.11 202.4C103.142 203.285 103.355 203.925 103.75 204.32C104.155 204.704 104.678 204.896 105.318 204.896C105.808 204.896 106.219 204.789 106.55 204.576C106.88 204.363 107.142 203.995 107.334 203.472C107.387 203.355 107.44 203.275 107.494 203.232C107.547 203.179 107.627 203.152 107.734 203.152H108.502C108.608 203.152 108.699 203.184 108.774 203.248C108.848 203.312 108.88 203.397 108.87 203.504C108.859 203.728 108.811 203.957 108.726 204.192C108.64 204.427 108.502 204.667 108.31 204.912C108.128 205.147 107.899 205.36 107.622 205.552C107.344 205.733 107.008 205.883 106.614 206C106.23 206.107 105.792 206.16 105.302 206.16ZM114.178 206.16C113.367 206.16 112.69 206.005 112.146 205.696C111.602 205.387 111.186 204.96 110.898 204.416C110.61 203.861 110.45 203.232 110.418 202.528C110.407 202.347 110.402 202.117 110.402 201.84C110.402 201.552 110.407 201.323 110.418 201.152C110.45 200.437 110.61 199.808 110.898 199.264C111.197 198.72 111.618 198.293 112.162 197.984C112.706 197.675 113.378 197.52 114.178 197.52C114.978 197.52 115.65 197.675 116.194 197.984C116.738 198.293 117.154 198.72 117.442 199.264C117.741 199.808 117.906 200.437 117.938 201.152C117.949 201.323 117.954 201.552 117.954 201.84C117.954 202.117 117.949 202.347 117.938 202.528C117.906 203.232 117.746 203.861 117.458 204.416C117.17 204.96 116.754 205.387 116.21 205.696C115.666 206.005 114.989 206.16 114.178 206.16ZM114.178 204.928C114.839 204.928 115.367 204.72 115.762 204.304C116.157 203.877 116.37 203.259 116.402 202.448C116.413 202.288 116.418 202.085 116.418 201.84C116.418 201.595 116.413 201.392 116.402 201.232C116.37 200.421 116.157 199.808 115.762 199.392C115.367 198.965 114.839 198.752 114.178 198.752C113.517 198.752 112.983 198.965 112.578 199.392C112.183 199.808 111.975 200.421 111.954 201.232C111.943 201.392 111.938 201.595 111.938 201.84C111.938 202.085 111.943 202.288 111.954 202.448C111.975 203.259 112.183 203.877 112.578 204.304C112.983 204.72 113.517 204.928 114.178 204.928ZM120.325 206C120.219 206 120.128 205.968 120.053 205.904C119.989 205.829 119.957 205.739 119.957 205.632V198.048C119.957 197.941 119.989 197.856 120.053 197.792C120.128 197.717 120.219 197.68 120.325 197.68H121.045C121.152 197.68 121.237 197.717 121.301 197.792C121.376 197.856 121.413 197.941 121.413 198.048V198.608C121.659 198.277 121.968 198.016 122.341 197.824C122.715 197.621 123.163 197.52 123.685 197.52C124.891 197.509 125.744 198 126.245 198.992C126.491 198.544 126.848 198.187 127.317 197.92C127.787 197.653 128.32 197.52 128.917 197.52C129.472 197.52 129.973 197.648 130.421 197.904C130.88 198.16 131.237 198.549 131.493 199.072C131.76 199.584 131.893 200.229 131.893 201.008V205.632C131.893 205.739 131.856 205.829 131.781 205.904C131.717 205.968 131.632 206 131.525 206H130.773C130.667 206 130.576 205.968 130.501 205.904C130.437 205.829 130.405 205.739 130.405 205.632V201.152C130.405 200.555 130.32 200.085 130.149 199.744C129.979 199.403 129.749 199.163 129.461 199.024C129.173 198.885 128.859 198.816 128.517 198.816C128.24 198.816 127.957 198.885 127.669 199.024C127.381 199.163 127.141 199.403 126.949 199.744C126.768 200.085 126.677 200.555 126.677 201.152V205.632C126.677 205.739 126.64 205.829 126.565 205.904C126.501 205.968 126.416 206 126.309 206H125.557C125.451 206 125.36 205.968 125.285 205.904C125.221 205.829 125.189 205.739 125.189 205.632V201.152C125.189 200.555 125.099 200.085 124.917 199.744C124.736 199.403 124.501 199.163 124.213 199.024C123.925 198.885 123.621 198.816 123.301 198.816C123.024 198.816 122.741 198.885 122.453 199.024C122.165 199.163 121.925 199.403 121.733 199.744C121.552 200.085 121.461 200.549 121.461 201.136V205.632C121.461 205.739 121.424 205.829 121.349 205.904C121.285 205.968 121.2 206 121.093 206H120.325ZM137.488 206.16C136.39 206.16 135.515 205.824 134.864 205.152C134.214 204.469 133.856 203.541 133.792 202.368C133.782 202.229 133.776 202.053 133.776 201.84C133.776 201.616 133.782 201.435 133.792 201.296C133.835 200.539 134.011 199.877 134.32 199.312C134.63 198.736 135.051 198.293 135.584 197.984C136.128 197.675 136.763 197.52 137.488 197.52C138.299 197.52 138.976 197.691 139.52 198.032C140.075 198.373 140.496 198.859 140.784 199.488C141.072 200.117 141.216 200.853 141.216 201.696V201.968C141.216 202.085 141.179 202.176 141.104 202.24C141.04 202.304 140.955 202.336 140.848 202.336H135.312C135.312 202.347 135.312 202.368 135.312 202.4C135.312 202.432 135.312 202.459 135.312 202.48C135.334 202.917 135.43 203.328 135.6 203.712C135.771 204.085 136.016 204.389 136.336 204.624C136.656 204.859 137.04 204.976 137.488 204.976C137.872 204.976 138.192 204.917 138.448 204.8C138.704 204.683 138.912 204.555 139.072 204.416C139.232 204.267 139.339 204.155 139.392 204.08C139.488 203.941 139.563 203.861 139.616 203.84C139.67 203.808 139.755 203.792 139.872 203.792H140.64C140.747 203.792 140.832 203.824 140.896 203.888C140.971 203.941 141.003 204.021 140.992 204.128C140.982 204.288 140.896 204.485 140.736 204.72C140.576 204.944 140.347 205.168 140.048 205.392C139.75 205.616 139.387 205.803 138.96 205.952C138.534 206.091 138.043 206.16 137.488 206.16ZM135.312 201.232H139.696V201.184C139.696 200.704 139.606 200.277 139.424 199.904C139.254 199.531 139.003 199.237 138.672 199.024C138.342 198.8 137.947 198.688 137.488 198.688C137.03 198.688 136.635 198.8 136.304 199.024C135.984 199.237 135.739 199.531 135.568 199.904C135.398 200.277 135.312 200.704 135.312 201.184V201.232ZM143.385 206C143.279 206 143.188 205.968 143.113 205.904C143.049 205.829 143.017 205.739 143.017 205.632V204.48C143.017 204.373 143.049 204.288 143.113 204.224C143.188 204.149 143.279 204.112 143.385 204.112H144.537C144.644 204.112 144.729 204.149 144.793 204.224C144.868 204.288 144.905 204.373 144.905 204.48V205.632C144.905 205.739 144.868 205.829 144.793 205.904C144.729 205.968 144.644 206 144.537 206H143.385Z" fill="white"/>
<path d="M103.316 58.8872C101.562 58.8872 100.141 59.2367 100.141 59.6679V83.1357H106.491V59.6679C106.491 59.2367 105.07 58.8872 103.316 58.8872Z" fill="#9BA5A8"/>
<path d="M103.028 62.6578H102.28C102.214 62.6578 102.15 62.6707 102.09 62.6957C102.029 62.7206 101.975 62.7572 101.928 62.8033C101.882 62.8495 101.846 62.9042 101.821 62.9645C101.796 63.0248 101.783 63.0894 101.783 63.1546V73.3293C101.783 73.3945 101.796 73.4591 101.821 73.5194C101.846 73.5797 101.882 73.6344 101.928 73.6806C101.975 73.7267 102.029 73.7633 102.09 73.7882C102.15 73.8132 102.214 73.8261 102.28 73.8261H103.028C103.16 73.8261 103.286 73.7737 103.379 73.6806C103.472 73.5874 103.525 73.461 103.525 73.3293V63.1546C103.525 63.0894 103.512 63.0248 103.487 62.9645C103.462 62.9042 103.425 62.8495 103.379 62.8033C103.333 62.7572 103.278 62.7206 103.218 62.6957C103.158 62.6707 103.093 62.6578 103.028 62.6578Z" fill="#D1CFC3"/>
<path d="M143.827 52.7706H123.188C121.751 52.7706 120.587 53.935 120.587 55.3715L118.899 89.5421C118.899 90.9786 120.063 92.143 121.5 92.143H143.827C145.264 92.143 146.428 90.9786 146.428 89.5421V55.3715C146.428 53.935 145.264 52.7706 143.827 52.7706Z" fill="#C4F0F2"/>
<path d="M151.481 80.9229L131.216 85.3124V82.1677C131.216 80.6459 121.046 83.0529 117.865 80.62C114.684 78.187 118.491 70.9142 116.969 70.9142H100.434C95.1137 70.9142 89.8356 71.8543 84.8428 73.6912L70.0931 79.118C69.116 79.4774 68.2608 80.1063 67.6264 80.9318C66.9921 81.7574 66.6046 82.7457 66.5088 83.7824L64.2504 108.222C63.9519 111.452 66.494 114.239 69.7376 114.239H125.706C128.749 114.239 131.216 111.772 131.216 108.729V106.244L151.481 101.855V80.9229H151.481Z" fill="#FFD652"/>
<path d="M118.193 88.1335L119.819 51.2617C119.819 50.9613 119.939 50.6733 120.151 50.4609C120.363 50.2485 120.652 50.1292 120.952 50.1292H150.944V81.0394L145.661 82.1838V59.3021C145.661 57.1539 143.919 55.4123 141.771 55.4123H128.992C126.844 55.4123 125.103 57.1539 125.103 59.3021L123.556 86.9719L118.193 88.1335ZM79.9919 104.916C73.9974 104.916 69.1381 109.776 69.1381 115.77C69.1381 121.764 73.9976 126.624 79.9919 126.624C85.9862 126.624 90.8457 121.764 90.8457 115.77C90.8457 109.776 85.9864 104.916 79.9919 104.916ZM139.939 87.0712C129.016 87.0712 120.162 95.9254 120.162 106.848C120.162 117.77 129.016 126.624 139.939 126.624C150.861 126.624 159.715 117.77 159.715 106.848C159.715 95.9256 150.861 87.0712 139.939 87.0712ZM116.97 90.1826H65.9824L65.5812 94.5232H116.97V90.1826ZM103.316 59.1898C102.014 59.1898 100.958 59.4038 100.958 59.6679C100.958 59.9319 102.013 60.1459 103.316 60.1459C104.618 60.1459 105.674 59.9319 105.674 59.6679C105.674 59.4038 104.618 59.1898 103.316 59.1898Z" fill="#2B3B47"/>
<path d="M79.992 109.289C76.4124 109.289 73.5105 112.191 73.5105 115.77C73.5105 119.35 76.4124 122.252 79.992 122.252C83.5716 122.252 86.4735 119.35 86.4735 115.77C86.4737 112.191 83.5716 109.289 79.992 109.289ZM79.992 117.126C79.8126 117.129 79.6345 117.095 79.4681 117.028C79.3017 116.961 79.1503 116.861 79.0227 116.735C78.8951 116.609 78.7937 116.459 78.7246 116.293C78.6554 116.127 78.6198 115.95 78.6199 115.77C78.6199 115.591 78.6555 115.413 78.7247 115.247C78.7938 115.082 78.8952 114.932 79.0228 114.806C79.1505 114.679 79.3019 114.58 79.4683 114.513C79.6347 114.445 79.8127 114.412 79.9922 114.414C80.3491 114.418 80.69 114.563 80.9409 114.817C81.1918 115.071 81.3325 115.413 81.3325 115.77C81.3324 116.127 81.1917 116.47 80.9408 116.724C80.6898 116.978 80.3489 117.122 79.992 117.126ZM139.939 95.038C133.416 95.038 128.129 100.325 128.129 106.848C128.129 113.37 133.416 118.658 139.939 118.658C146.461 118.658 151.749 113.37 151.749 106.848C151.749 100.325 146.461 95.038 139.939 95.038ZM139.939 110.811C137.75 110.811 135.976 109.036 135.976 106.848C135.976 104.659 137.75 102.885 139.939 102.885C142.127 102.885 143.902 104.659 143.902 106.848C143.902 109.036 142.127 110.811 139.939 110.811Z" fill="#9BA5A8"/>
<path d="M139.939 99.5967C143.937 99.5967 147.19 102.85 147.19 106.848C147.19 110.846 143.937 114.099 139.939 114.099C135.94 114.099 132.688 110.846 132.688 106.848C132.688 102.85 135.94 99.5967 139.939 99.5967ZM139.939 97.9087C135.002 97.9087 131 101.911 131 106.848C131 111.785 135.002 115.787 139.939 115.787C144.876 115.787 148.878 111.785 148.878 106.848C148.878 101.911 144.876 97.9087 139.939 97.9087Z" fill="#D1CFC3"/>
<path d="M112.321 110.536H94.3109C92.7065 110.536 91.401 109.23 91.401 107.626V100.124C91.401 98.5196 92.7063 97.2141 94.3109 97.2141H112.321C113.925 97.2141 115.231 98.5196 115.231 100.124V107.626C115.231 109.23 113.926 110.536 112.321 110.536ZM94.3109 98.5217C93.4274 98.5217 92.7086 99.2405 92.7086 100.124V107.626C92.7086 108.509 93.4274 109.228 94.3109 109.228H112.321C113.205 109.228 113.923 108.509 113.923 107.626V100.124C113.923 99.2405 113.205 98.5217 112.321 98.5217H94.3109Z" fill="#E2A042"/>
<path d="M66.0485 87.8026H69.8515C71.2226 87.8026 72.334 89.3508 72.334 91.2605V93.4454C72.334 95.355 71.2226 96.9032 69.8515 96.9032H65.1672L66.0485 87.8026Z" fill="#FF473E"/>
<path d="M149.907 45.8798H118.543C118.185 45.8798 117.842 46.0219 117.589 46.2749C117.336 46.5279 117.194 46.8711 117.194 47.2289V49.6991C117.194 50.0569 117.336 50.4001 117.589 50.6531C117.842 50.9061 118.185 51.0482 118.543 51.0482H149.907C150.265 51.0482 150.608 50.9061 150.861 50.6531C151.114 50.4001 151.257 50.0569 151.257 49.6991V47.2289C151.257 46.8711 151.114 46.5279 150.861 46.2749C150.608 46.0219 150.265 45.8798 149.907 45.8798Z" fill="#FFD652"/>
<path d="M114.244 105.664C113.967 105.664 113.687 105.636 113.405 105.577C111.188 105.116 109.765 102.946 110.226 100.729C112.366 90.4339 119.817 81.843 129.672 78.3089C136.75 75.7705 144.453 75.9195 151.362 78.7283C153.459 79.581 154.468 81.9725 153.615 84.0699C152.762 86.1671 150.371 87.1764 148.273 86.3236C143.311 84.3058 137.54 84.1975 132.439 86.0268C125.252 88.6043 119.816 94.8772 118.253 102.398C117.851 104.333 116.145 105.664 114.244 105.664Z" fill="#FFA412"/>
<path d="M59 225H183L193 238L183 251H59L49 238L59 225Z" fill="#FBBE25"/>
<path d="M100.428 244C100.335 244 100.255 243.967 100.19 243.902C100.125 243.837 100.092 243.757 100.092 243.664V234.55C100.092 234.447 100.125 234.363 100.19 234.298C100.255 234.233 100.335 234.2 100.428 234.2H106.504C106.607 234.2 106.691 234.233 106.756 234.298C106.821 234.363 106.854 234.447 106.854 234.55V235.53C106.854 235.633 106.821 235.717 106.756 235.782C106.691 235.838 106.607 235.866 106.504 235.866H102.01V238.526H106.224C106.327 238.526 106.411 238.559 106.476 238.624C106.541 238.689 106.574 238.773 106.574 238.876V239.856C106.574 239.949 106.541 240.029 106.476 240.094C106.411 240.159 106.327 240.192 106.224 240.192H102.01V243.664C102.01 243.757 101.977 243.837 101.912 243.902C101.847 243.967 101.763 244 101.66 244H100.428ZM107.38 244C107.305 244 107.235 243.972 107.17 243.916C107.114 243.86 107.086 243.79 107.086 243.706C107.086 243.669 107.095 243.627 107.114 243.58L110.488 234.55C110.516 234.457 110.567 234.377 110.642 234.312C110.726 234.237 110.838 234.2 110.978 234.2H112.504C112.644 234.2 112.751 234.237 112.826 234.312C112.901 234.377 112.957 234.457 112.994 234.55L116.368 243.58C116.377 243.627 116.382 243.669 116.382 243.706C116.382 243.79 116.354 243.86 116.298 243.916C116.242 243.972 116.177 244 116.102 244H114.884C114.753 244 114.655 243.972 114.59 243.916C114.534 243.851 114.497 243.79 114.478 243.734L113.82 242.026H109.662L109.004 243.734C108.985 243.79 108.943 243.851 108.878 243.916C108.822 243.972 108.729 244 108.598 244H107.38ZM110.152 240.416H113.33L111.734 236.09L110.152 240.416ZM118.081 244C117.988 244 117.908 243.967 117.843 243.902C117.778 243.837 117.745 243.757 117.745 243.664V234.55C117.745 234.447 117.778 234.363 117.843 234.298C117.908 234.233 117.988 234.2 118.081 234.2H121.707C122.836 234.2 123.728 234.461 124.381 234.984C125.034 235.507 125.361 236.267 125.361 237.266C125.361 237.957 125.188 238.531 124.843 238.988C124.507 239.445 124.054 239.777 123.485 239.982L125.529 243.552C125.557 243.608 125.571 243.659 125.571 243.706C125.571 243.79 125.538 243.86 125.473 243.916C125.417 243.972 125.352 244 125.277 244H124.003C123.844 244 123.723 243.958 123.639 243.874C123.555 243.79 123.49 243.706 123.443 243.622L121.637 240.304H119.691V243.664C119.691 243.757 119.658 243.837 119.593 243.902C119.537 243.967 119.458 244 119.355 244H118.081ZM119.691 238.722H121.665C122.234 238.722 122.659 238.596 122.939 238.344C123.219 238.083 123.359 237.719 123.359 237.252C123.359 236.785 123.219 236.421 122.939 236.16C122.668 235.889 122.244 235.754 121.665 235.754H119.691V238.722ZM127.571 244C127.468 244 127.384 243.967 127.319 243.902C127.254 243.837 127.221 243.757 127.221 243.664V234.55C127.221 234.447 127.254 234.363 127.319 234.298C127.384 234.233 127.468 234.2 127.571 234.2H128.677C128.808 234.2 128.906 234.237 128.971 234.312C129.036 234.377 129.078 234.429 129.097 234.466L131.799 239.506L134.529 234.466C134.548 234.429 134.59 234.377 134.655 234.312C134.72 234.237 134.818 234.2 134.949 234.2H136.041C136.144 234.2 136.228 234.233 136.293 234.298C136.358 234.363 136.391 234.447 136.391 234.55V243.664C136.391 243.757 136.358 243.837 136.293 243.902C136.228 243.967 136.144 244 136.041 244H134.865C134.762 244 134.678 243.967 134.613 243.902C134.557 243.837 134.529 243.757 134.529 243.664V237.602L132.569 241.34C132.522 241.424 132.462 241.499 132.387 241.564C132.312 241.62 132.214 241.648 132.093 241.648H131.519C131.388 241.648 131.286 241.62 131.211 241.564C131.146 241.499 131.09 241.424 131.043 241.34L129.083 237.602V243.664C129.083 243.757 129.05 243.837 128.985 243.902C128.92 243.967 128.84 244 128.747 244H127.571Z" fill="black"/>
</g>
<defs>
<filter id="filter0_d_141_987" x="0" y="1.09579" width="232" height="267.066" filterUnits="userSpaceOnUse" color-interpolation-filters="sRGB">
<feFlood flood-opacity="0" result="BackgroundImageFix"/>
<feColorMatrix in="SourceAlpha" type="matrix" values="0 0 0 0 0 0 0 0 0 0 0 0 0 0 0 0 0 0 127 0" result="hardAlpha"/>
<feOffset dy="4"/>
<feGaussianBlur stdDeviation="2"/>
<feComposite in2="hardAlpha" operator="out"/>
<feColorMatrix type="matrix" values="0 0 0 0 0 0 0 0 0 0 0 0 0 0 0 0 0 0 0.44 0"/>
<feBlend mode="normal" in2="BackgroundImageFix" result="effect1_dropShadow_141_987"/>
<feBlend mode="normal" in="SourceGraphic" in2="effect1_dropShadow_141_987" result="shape"/>
</filter>
<filter id="filter1_di_141_987" x="0" y="1.09579" width="232" height="251.998" filterUnits="userSpaceOnUse" color-interpolation-filters="sRGB">
<feFlood flood-opacity="0" result="BackgroundImageFix"/>
<feColorMatrix in="SourceAlpha" type="matrix" values="0 0 0 0 0 0 0 0 0 0 0 0 0 0 0 0 0 0 127 0" result="hardAlpha"/>
<feOffset dy="4"/>
<feGaussianBlur stdDeviation="2"/>
<feComposite in2="hardAlpha" operator="out"/>
<feColorMatrix type="matrix" values="0 0 0 0 0 0 0 0 0 0 0 0 0 0 0 0 0 0 0.25 0"/>
<feBlend mode="normal" in2="BackgroundImageFix" result="effect1_dropShadow_141_987"/>
<feBlend mode="normal" in="SourceGraphic" in2="effect1_dropShadow_141_987" result="shape"/>
<feColorMatrix in="SourceAlpha" type="matrix" values="0 0 0 0 0 0 0 0 0 0 0 0 0 0 0 0 0 0 127 0" result="hardAlpha"/>
<feOffset dy="4"/>
<feGaussianBlur stdDeviation="2"/>
<feComposite in2="hardAlpha" operator="arithmetic" k2="-1" k3="1"/>
<feColorMatrix type="matrix" values="0 0 0 0 0 0 0 0 0 0 0 0 0 0 0 0 0 0 0.25 0"/>
<feBlend mode="normal" in2="shape" result="effect2_innerShadow_141_987"/>
</filter>
<linearGradient id="paint0_linear_141_987" x1="116" y1="0" x2="116" y2="245.094" gradientUnits="userSpaceOnUse">
<stop stop-color="#0A1122"/>
<stop offset="1" stop-color="#040B1A"/>
<stop offset="1" stop-color="#051029"/>
</linearGradient>
</defs>
</svg>
